<?xml version="1.0" encoding="UTF-8" standalone="no"?>
<!DOCTYPE svg PUBLIC "-//W3C//DTD SVG 1.1//EN"
 "http://www.w3.org/Graphics/SVG/1.1/DTD/svg11.dtd">
<!-- Generated by graphviz version 5.0.0 (20220707.1540)
 -->
<!-- Title: K_COMMUNICATION::Initialize Pages: 1 -->
<svg width="385pt" height="88pt"
 viewBox="0.00 0.00 385.00 88.00" xmlns="http://www.w3.org/2000/svg" xmlns:xlink="http://www.w3.org/1999/xlink">
<g id="graph0" class="graph" transform="scale(1 1) rotate(0) translate(4 84)">
<title>K_COMMUNICATION::Initialize</title>
<!-- Node1 -->
<g id="node1" class="node">
<title>Node1</title>
<g id="a_node1"><a xlink:title="Initialize the communicaton.">
<polygon fill="#bfbfbf" stroke="black" points="0,-30 0,-49 152,-49 152,-30 0,-30"/>
<text text-anchor="middle" x="76" y="-37" font-family="Helvetica,sans-Serif" font-size="10.00">K_COMMUNICATION::Initialize</text>
</a>
</g>
</g>
<!-- Node2 -->
<g id="node2" class="node">
<title>Node2</title>
<g id="a_node2"><a xlink:href="../../d5/d98/class_k___c_o_m_m_u_n_i_c_a_t_i_o_n.html#ab17f1e4ceb87f15d2698859cc66f637f" target="_top" xlink:title="The disconnection notify callback is called when a user mode application disconnect from the server p...">
<polygon fill="none" stroke="black" points="191,-49.5 191,-79.5 374,-79.5 374,-49.5 191,-49.5"/>
<text text-anchor="start" x="199" y="-67.5" font-family="Helvetica,sans-Serif" font-size="10.00">K_COMMUNICATION::_Disconnection</text>
<text text-anchor="middle" x="282.5" y="-56.5" font-family="Helvetica,sans-Serif" font-size="10.00">Callback</text>
</a>
</g>
</g>
<!-- Node1&#45;&gt;Node2 -->
<g id="edge1" class="edge">
<title>Node1&#45;&gt;Node2</title>
<path fill="none" stroke="midnightblue" d="M152.28,-48.7C161.57,-49.84 171.19,-51.02 180.79,-52.19"/>
<polygon fill="midnightblue" stroke="midnightblue" points="180.43,-55.67 190.78,-53.41 181.28,-48.72 180.43,-55.67"/>
</g>
<!-- Node3 -->
<g id="node3" class="node">
<title>Node3</title>
<g id="a_node3"><a xlink:href="../../d5/d98/class_k___c_o_m_m_u_n_i_c_a_t_i_o_n.html#adc988a77deb3241099ddcebf06cf3af8" target="_top" xlink:title="The connection notify callback is called when a user mode application connect to the server port.">
<polygon fill="none" stroke="black" points="188,-0.5 188,-30.5 377,-30.5 377,-0.5 188,-0.5"/>
<text text-anchor="start" x="196" y="-18.5" font-family="Helvetica,sans-Serif" font-size="10.00">K_COMMUNICATION::_NewConnection</text>
<text text-anchor="middle" x="282.5" y="-7.5" font-family="Helvetica,sans-Serif" font-size="10.00">Callback</text>
</a>
</g>
</g>
<!-- Node1&#45;&gt;Node3 -->
<g id="edge2" class="edge">
<title>Node1&#45;&gt;Node3</title>
<path fill="none" stroke="midnightblue" d="M152.28,-30.67C160.63,-29.69 169.23,-28.68 177.85,-27.66"/>
<polygon fill="midnightblue" stroke="midnightblue" points="178.44,-31.12 187.97,-26.48 177.63,-24.17 178.44,-31.12"/>
</g>
</g>
</svg>
