<?xml version="1.0" encoding="UTF-8" standalone="no"?>
<!DOCTYPE svg PUBLIC "-//W3C//DTD SVG 1.1//EN"
 "http://www.w3.org/Graphics/SVG/1.1/DTD/svg11.dtd">
<!-- Generated by graphviz version 5.0.0 (20220707.1540)
 -->
<!-- Title: K_OB::Unload Pages: 1 -->
<svg width="294pt" height="28pt"
 viewBox="0.00 0.00 294.00 28.00" xmlns="http://www.w3.org/2000/svg" xmlns:xlink="http://www.w3.org/1999/xlink">
<g id="graph0" class="graph" transform="scale(1 1) rotate(0) translate(4 24)">
<title>K_OB::Unload</title>
<!-- Node1 -->
<g id="node1" class="node">
<title>Node1</title>
<g id="a_node1"><a xlink:title="Routine used to unload ObCallback.">
<polygon fill="#bfbfbf" stroke="black" points="207,-0.5 207,-19.5 286,-19.5 286,-0.5 207,-0.5"/>
<text text-anchor="middle" x="246.5" y="-7.5" font-family="Helvetica,sans-Serif" font-size="10.00">K_OB::Unload</text>
</a>
</g>
</g>
<!-- Node2 -->
<g id="node2" class="node">
<title>Node2</title>
<g id="a_node2"><a xlink:href="../../d3/d9c/_k___driver_8cpp.html#a551262cb86f3d855ff91a51b2448945f" target="_top" xlink:title="Driver Unloading Routine.">
<polygon fill="none" stroke="black" points="100,-0.5 100,-19.5 171,-19.5 171,-0.5 100,-0.5"/>
<text text-anchor="middle" x="135.5" y="-7.5" font-family="Helvetica,sans-Serif" font-size="10.00">DriverUnload</text>
</a>
</g>
</g>
<!-- Node1&#45;&gt;Node2 -->
<g id="edge1" class="edge">
<title>Node1&#45;&gt;Node2</title>
<path fill="none" stroke="midnightblue" d="M196.76,-10C188.11,-10 179.27,-10 171.12,-10"/>
<polygon fill="midnightblue" stroke="midnightblue" points="196.76,-13.5 206.76,-10 196.76,-6.5 196.76,-13.5"/>
</g>
<!-- Node3 -->
<g id="node3" class="node">
<title>Node3</title>
<g id="a_node3"><a xlink:href="../../d3/d9c/_k___driver_8cpp.html#abd482ac5174a4365b1fa1c26e463c60d" target="_top" xlink:title="Main Driver Entry Routine.">
<polygon fill="none" stroke="black" points="0,-0.5 0,-19.5 64,-19.5 64,-0.5 0,-0.5"/>
<text text-anchor="middle" x="32" y="-7.5" font-family="Helvetica,sans-Serif" font-size="10.00">DriverEntry</text>
</a>
</g>
</g>
<!-- Node2&#45;&gt;Node3 -->
<g id="edge2" class="edge">
<title>Node2&#45;&gt;Node3</title>
<path fill="none" stroke="midnightblue" d="M89.83,-10C81.14,-10 72.22,-10 64.09,-10"/>
<polygon fill="midnightblue" stroke="midnightblue" points="89.85,-13.5 99.85,-10 89.85,-6.5 89.85,-13.5"/>
</g>
</g>
</svg>
