<?xml version="1.0" encoding="UTF-8" standalone="no"?>
<!DOCTYPE svg PUBLIC "-//W3C//DTD SVG 1.1//EN"
 "http://www.w3.org/Graphics/SVG/1.1/DTD/svg11.dtd">
<!-- Generated by graphviz version 5.0.0 (20220707.1540)
 -->
<!-- Title: U_COMMUNICATION::_PumpMessageInQueue Pages: 1 -->
<svg width="826pt" height="39pt"
 viewBox="0.00 0.00 826.00 39.00" xmlns="http://www.w3.org/2000/svg" xmlns:xlink="http://www.w3.org/1999/xlink">
<g id="graph0" class="graph" transform="scale(1 1) rotate(0) translate(4 35)">
<title>U_COMMUNICATION::_PumpMessageInQueue</title>
<!-- Node1 -->
<g id="node1" class="node">
<title>Node1</title>
<g id="a_node1"><a xlink:title="Push a new message in the queue.">
<polygon fill="#bfbfbf" stroke="black" points="631,-0.5 631,-30.5 818,-30.5 818,-0.5 631,-0.5"/>
<text text-anchor="start" x="639" y="-18.5" font-family="Helvetica,sans-Serif" font-size="10.00">U_COMMUNICATION::_PumpMessage</text>
<text text-anchor="middle" x="724.5" y="-7.5" font-family="Helvetica,sans-Serif" font-size="10.00">InQueue</text>
</a>
</g>
</g>
<!-- Node2 -->
<g id="node2" class="node">
<title>Node2</title>
<g id="a_node2"><a xlink:href="../../d9/da5/class_u___c_o_m_m_u_n_i_c_a_t_i_o_n.html#a87d0f531204d9141da9e181c20a18c59" target="_top" xlink:title="Worker thread used to check file signature.">
<polygon fill="none" stroke="black" points="442,-0.5 442,-30.5 595,-30.5 595,-0.5 442,-0.5"/>
<text text-anchor="start" x="450" y="-18.5" font-family="Helvetica,sans-Serif" font-size="10.00">U_COMMUNICATION::_Worker</text>
<text text-anchor="middle" x="518.5" y="-7.5" font-family="Helvetica,sans-Serif" font-size="10.00">Thread</text>
</a>
</g>
</g>
<!-- Node1&#45;&gt;Node2 -->
<g id="edge1" class="edge">
<title>Node1&#45;&gt;Node2</title>
<path fill="none" stroke="midnightblue" d="M620.69,-15.5C612.11,-15.5 603.54,-15.5 595.22,-15.5"/>
<polygon fill="midnightblue" stroke="midnightblue" points="620.75,-19 630.75,-15.5 620.75,-12 620.75,-19"/>
</g>
<!-- Node3 -->
<g id="node3" class="node">
<title>Node3</title>
<g id="a_node3"><a xlink:href="../../d9/da5/class_u___c_o_m_m_u_n_i_c_a_t_i_o_n.html#a1cbfbcf7e7e895608457abf405455e6a" target="_top" xlink:title="Thread listening message sends from kernel driver.">
<polygon fill="none" stroke="black" points="255,-0.5 255,-30.5 406,-30.5 406,-0.5 255,-0.5"/>
<text text-anchor="start" x="263" y="-18.5" font-family="Helvetica,sans-Serif" font-size="10.00">U_COMMUNICATION::Listener</text>
<text text-anchor="middle" x="330.5" y="-7.5" font-family="Helvetica,sans-Serif" font-size="10.00">Thread</text>
</a>
</g>
</g>
<!-- Node2&#45;&gt;Node3 -->
<g id="edge2" class="edge">
<title>Node2&#45;&gt;Node3</title>
<path fill="none" stroke="midnightblue" d="M431.84,-15.5C423.28,-15.5 414.62,-15.5 406.18,-15.5"/>
<polygon fill="midnightblue" stroke="midnightblue" points="431.85,-19 441.85,-15.5 431.85,-12 431.85,-19"/>
</g>
<!-- Node4 -->
<g id="node4" class="node">
<title>Node4</title>
<g id="a_node4"><a xlink:href="../../d7/dc4/_u___service_8cpp.html#a2ef7fa664545ef1bfd08460f37d2140a" target="_top" xlink:title="Entrypoint and core of the user space service.">
<polygon fill="none" stroke="black" points="166,-6 166,-25 219,-25 219,-6 166,-6"/>
<text text-anchor="middle" x="192.5" y="-13" font-family="Helvetica,sans-Serif" font-size="10.00">SvcMain</text>
</a>
</g>
</g>
<!-- Node3&#45;&gt;Node4 -->
<g id="edge3" class="edge">
<title>Node3&#45;&gt;Node4</title>
<path fill="none" stroke="midnightblue" d="M244.61,-15.5C235.4,-15.5 226.64,-15.5 219.05,-15.5"/>
<polygon fill="midnightblue" stroke="midnightblue" points="244.74,-19 254.74,-15.5 244.74,-12 244.74,-19"/>
</g>
<!-- Node5 -->
<g id="node5" class="node">
<title>Node5</title>
<g id="a_node5"><a xlink:href="../../d7/dc4/_u___service_8cpp.html#afa2e3daf278842db7a49d41ebebc8519" target="_top" xlink:title="Wrap the call to the service entrypoint.">
<polygon fill="none" stroke="black" points="82,-6 82,-25 130,-25 130,-6 82,-6"/>
<text text-anchor="middle" x="106" y="-13" font-family="Helvetica,sans-Serif" font-size="10.00">Service</text>
</a>
</g>
</g>
<!-- Node4&#45;&gt;Node5 -->
<g id="edge4" class="edge">
<title>Node4&#45;&gt;Node5</title>
<path fill="none" stroke="midnightblue" d="M155.47,-15.5C146.86,-15.5 137.91,-15.5 130.07,-15.5"/>
<polygon fill="midnightblue" stroke="midnightblue" points="155.69,-19 165.69,-15.5 155.69,-12 155.69,-19"/>
</g>
<!-- Node6 -->
<g id="node6" class="node">
<title>Node6</title>
<g id="a_node6"><a xlink:href="../../d7/dc4/_u___service_8cpp.html#a3e9716f0248a5a48598490cd4920cbee" target="_top" xlink:title="Entrypoint of the user space executable.">
<polygon fill="none" stroke="black" points="0,-6 0,-25 46,-25 46,-6 0,-6"/>
<text text-anchor="middle" x="23" y="-13" font-family="Helvetica,sans-Serif" font-size="10.00">_tmain</text>
</a>
</g>
</g>
<!-- Node5&#45;&gt;Node6 -->
<g id="edge5" class="edge">
<title>Node5&#45;&gt;Node6</title>
<path fill="none" stroke="midnightblue" d="M71.51,-15.5C63,-15.5 54.06,-15.5 46.26,-15.5"/>
<polygon fill="midnightblue" stroke="midnightblue" points="71.57,-19 81.57,-15.5 71.57,-12 71.57,-19"/>
</g>
</g>
</svg>
