<?xml version="1.0" encoding="UTF-8" standalone="no"?>
<!DOCTYPE svg PUBLIC "-//W3C//DTD SVG 1.1//EN"
 "http://www.w3.org/Graphics/SVG/1.1/DTD/svg11.dtd">
<!-- Generated by graphviz version 5.0.0 (20220707.1540)
 -->
<!-- Title: Query Pages: 1 -->
<!--zoomable 335 -->
<svg id="main" version="1.1" xmlns="http://www.w3.org/2000/svg" xmlns:xlink="http://www.w3.org/1999/xlink" xml:space="preserve" onload="init(evt)">
<style type="text/css"><![CDATA[
.edge:hover path { stroke: red; }
.edge:hover polygon { stroke: red; fill: red; }
]]></style>
<script type="text/javascript"><![CDATA[
var edges = document.getElementsByTagName('g');
if (edges && edges.length) {
  for (var i=0;i<edges.length;i++) {
    if (edges[i].id.substr(0,4)=='edge') {
      edges[i].setAttribute('class','edge');
    }
  }
}
]]></script>
        <defs>
                <circle id="rim" cx="0" cy="0" r="7"/>
                <circle id="rim2" cx="0" cy="0" r="3.5"/>
                <g id="zoomPlus">
                        <use xlink:href="#rim" fill="#404040">
                                <set attributeName="fill" to="#808080" begin="zoomplus.mouseover" end="zoomplus.mouseout"/>
                        </use>
                        <path d="M-4,0h8M0,-4v8" fill="none" stroke="white" stroke-width="1.5" pointer-events="none"/>
                </g>
                <g id="zoomMin">
                        <use xlink:href="#rim" fill="#404040">
                                <set attributeName="fill" to="#808080" begin="zoomminus.mouseover" end="zoomminus.mouseout"/>
                        </use>
                        <path d="M-4,0h8" fill="none" stroke="white" stroke-width="1.5" pointer-events="none"/>
                </g>
                <g id="dirArrow">
                        <path fill="none" stroke="white" stroke-width="1.5" d="M0,-3.0v7 M-2.5,-0.5L0,-3.0L2.5,-0.5"/>
                </g>
               <g id="resetDef">
                       <use xlink:href="#rim2" fill="#404040">
                               <set attributeName="fill" to="#808080" begin="reset.mouseover" end="reset.mouseout"/>
                       </use>
               </g>
        </defs>

<script type="text/javascript">
var viewWidth = 711;
var viewHeight = 335;
var sectionId = 'dynsection-6';
</script>
<script xlink:href="../../svgpan.js"/>
<svg id="graph" class="graph">
<g id="viewport">
<title>Query</title>
<!-- Node1 -->
<g id="node1" class="node">
<title>Node1</title>
<g id="a_node1"><a xlink:title="Wrap the query information about the service.">
<polygon fill="#bfbfbf" stroke="black" points="0,-269 0,-288 43,-288 43,-269 0,-269"/>
<text text-anchor="middle" x="21.5" y="-276" font-family="Helvetica,sans-Serif" font-size="10.00">Query</text>
</a>
</g>
</g>
<!-- Node2 -->
<g id="node2" class="node">
<title>Node2</title>
<g id="a_node2"><a xlink:href="../../d8/dfb/class_u___c_o_n_t_r_o_l_l_e_r.html#ab1f13df84b5c2eaa78de41718b01029a" target="_top" xlink:title="Check if the service is already installed.">
<polygon fill="none" stroke="black" points="87,-307 87,-326 261,-326 261,-307 87,-307"/>
<text text-anchor="middle" x="174" y="-314" font-family="Helvetica,sans-Serif" font-size="10.00">U_CONTROLLER::IsServiceInstalled</text>
</a>
</g>
</g>
<!-- Node1&#45;&gt;Node2 -->
<g id="edge1" class="edge">
<title>Node1&#45;&gt;Node2</title>
<path fill="none" stroke="midnightblue" d="M43.24,-286.17C53.84,-289.91 67,-294.28 79,-297.5 88.99,-300.18 99.67,-302.68 110.12,-304.92"/>
<polygon fill="midnightblue" stroke="midnightblue" points="109.53,-308.38 120.03,-307 110.96,-301.52 109.53,-308.38"/>
</g>
<!-- Node4 -->
<g id="node4" class="node">
<title>Node4</title>
<g id="a_node4"><a xlink:href="../../d6/dd4/class_u___c_o_n_f_i_g_u_r_a_t_i_o_n.html#aad2db6e150e4eac643ee28b874af54fa" target="_top" xlink:title="Print and populate service structure with the configuration read from registry keys.">
<polygon fill="none" stroke="black" points="79,-165 79,-184 269,-184 269,-165 79,-165"/>
<text text-anchor="middle" x="174" y="-172" font-family="Helvetica,sans-Serif" font-size="10.00">U_CONFIGURATION::PrintConfiguration</text>
</a>
</g>
</g>
<!-- Node1&#45;&gt;Node4 -->
<g id="edge3" class="edge">
<title>Node1&#45;&gt;Node4</title>
<path fill="none" stroke="midnightblue" d="M36.39,-268.9C62.48,-250.87 119.04,-211.79 150.59,-189.99"/>
<polygon fill="midnightblue" stroke="midnightblue" points="152.91,-192.64 159.14,-184.07 148.93,-186.88 152.91,-192.64"/>
</g>
<!-- Node14 -->
<g id="node14" class="node">
<title>Node14</title>
<g id="a_node14"><a xlink:href="../../d8/dfb/class_u___c_o_n_t_r_o_l_l_e_r.html#aa18d4c0b0f8c0bfb79bf2b6c1742bef9" target="_top" xlink:title="Query the service &quot;szServiceName&quot; configuration.">
<polygon fill="none" stroke="black" points="95.5,-269 95.5,-288 252.5,-288 252.5,-269 95.5,-269"/>
<text text-anchor="middle" x="174" y="-276" font-family="Helvetica,sans-Serif" font-size="10.00">U_CONTROLLER::QueryService</text>
</a>
</g>
</g>
<!-- Node1&#45;&gt;Node14 -->
<g id="edge18" class="edge">
<title>Node1&#45;&gt;Node14</title>
<path fill="none" stroke="midnightblue" d="M43.11,-278.5C54.4,-278.5 69.26,-278.5 84.87,-278.5"/>
<polygon fill="midnightblue" stroke="midnightblue" points="85.22,-282 95.22,-278.5 85.22,-275 85.22,-282"/>
</g>
<!-- Node3 -->
<g id="node3" class="node">
<title>Node3</title>
<g id="a_node3"><a xlink:href="../../d8/dfb/class_u___c_o_n_t_r_o_l_l_e_r.html#a65733b52c6801a89b0c12d7836feef9c" target="_top" xlink:title="Get a handle to the Service Controller Database.">
<polygon fill="none" stroke="black" points="326.5,-307 326.5,-326 498.5,-326 498.5,-307 326.5,-307"/>
<text text-anchor="middle" x="412.5" y="-314" font-family="Helvetica,sans-Serif" font-size="10.00">U_CONTROLLER::_GetSCMHandle</text>
</a>
</g>
</g>
<!-- Node2&#45;&gt;Node3 -->
<g id="edge2" class="edge">
<title>Node2&#45;&gt;Node3</title>
<path fill="none" stroke="midnightblue" d="M261.05,-316.5C278.99,-316.5 298,-316.5 316.26,-316.5"/>
<polygon fill="midnightblue" stroke="midnightblue" points="316.3,-320 326.3,-316.5 316.3,-313 316.3,-320"/>
</g>
<!-- Node5 -->
<g id="node5" class="node">
<title>Node5</title>
<g id="a_node5"><a xlink:href="../../d6/dd4/class_u___c_o_n_f_i_g_u_r_a_t_i_o_n.html#a5d693465439549ecef553ae863f04cb5" target="_top" xlink:title="Get the number of items to be kept in the cache by the filter.">
<polygon fill="none" stroke="black" points="324.5,-269 324.5,-288 500.5,-288 500.5,-269 324.5,-269"/>
<text text-anchor="middle" x="412.5" y="-276" font-family="Helvetica,sans-Serif" font-size="10.00">U_CONFIGURATION::GetCacheSize</text>
</a>
</g>
</g>
<!-- Node4&#45;&gt;Node5 -->
<g id="edge4" class="edge">
<title>Node4&#45;&gt;Node5</title>
<path fill="none" stroke="midnightblue" d="M186.29,-184.2C207.81,-202.14 256.88,-240.4 305,-259.5 311.78,-262.19 318.96,-264.5 326.25,-266.49"/>
<polygon fill="midnightblue" stroke="midnightblue" points="325.69,-269.96 336.24,-269 327.4,-263.17 325.69,-269.96"/>
</g>
<!-- Node7 -->
<g id="node7" class="node">
<title>Node7</title>
<g id="a_node7"><a xlink:href="../../d6/dd4/class_u___c_o_n_f_i_g_u_r_a_t_i_o_n.html#aafcf880d7361d9f00cd4dd497c3a97fa" target="_top" xlink:title="Get the communication port used by the driver to interact with the service.">
<polygon fill="none" stroke="black" points="305,-231 305,-250 520,-250 520,-231 305,-231"/>
<text text-anchor="middle" x="412.5" y="-238" font-family="Helvetica,sans-Serif" font-size="10.00">U_CONFIGURATION::GetCommunicationPort</text>
</a>
</g>
</g>
<!-- Node4&#45;&gt;Node7 -->
<g id="edge6" class="edge">
<title>Node4&#45;&gt;Node7</title>
<path fill="none" stroke="midnightblue" d="M197.64,-184.02C223.28,-194.49 266.52,-211.19 305,-221.5 315.49,-224.31 326.67,-226.82 337.69,-229.02"/>
<polygon fill="midnightblue" stroke="midnightblue" points="337.27,-232.5 347.75,-230.96 338.6,-225.63 337.27,-232.5"/>
</g>
<!-- Node8 -->
<g id="node8" class="node">
<title>Node8</title>
<g id="a_node8"><a xlink:href="../../d6/dd4/class_u___c_o_n_f_i_g_u_r_a_t_i_o_n.html#a11328249616049976aeafd9ad80429bc" target="_top" xlink:title="Get the number of threads of the service by reading the values in the Registry.">
<polygon fill="none" stroke="black" points="330.5,-181.5 330.5,-211.5 494.5,-211.5 494.5,-181.5 330.5,-181.5"/>
<text text-anchor="start" x="338.5" y="-199.5" font-family="Helvetica,sans-Serif" font-size="10.00">U_CONFIGURATION::GetListener</text>
<text text-anchor="middle" x="412.5" y="-188.5" font-family="Helvetica,sans-Serif" font-size="10.00">Threads</text>
</a>
</g>
</g>
<!-- Node4&#45;&gt;Node8 -->
<g id="edge8" class="edge">
<title>Node4&#45;&gt;Node8</title>
<path fill="none" stroke="midnightblue" d="M269.15,-183.26C285.9,-184.82 303.32,-186.44 319.99,-187.99"/>
<polygon fill="midnightblue" stroke="midnightblue" points="319.98,-191.5 330.26,-188.94 320.63,-184.53 319.98,-191.5"/>
</g>
<!-- Node9 -->
<g id="node9" class="node">
<title>Node9</title>
<g id="a_node9"><a xlink:href="../../d6/dd4/class_u___c_o_n_f_i_g_u_r_a_t_i_o_n.html#a16a3374e66a338c898a4e84fc6602368" target="_top" xlink:title="Get the maximum number of clients of the service by reading the values in the REGISTRY:: &#160;[i] This va...">
<polygon fill="none" stroke="black" points="323.5,-143 323.5,-162 501.5,-162 501.5,-143 323.5,-143"/>
<text text-anchor="middle" x="412.5" y="-150" font-family="Helvetica,sans-Serif" font-size="10.00">U_CONFIGURATION::GetMaxClients</text>
</a>
</g>
</g>
<!-- Node4&#45;&gt;Node9 -->
<g id="edge10" class="edge">
<title>Node4&#45;&gt;Node9</title>
<path fill="none" stroke="midnightblue" d="M269.15,-165.74C283.7,-164.39 298.75,-162.99 313.39,-161.63"/>
<polygon fill="midnightblue" stroke="midnightblue" points="313.8,-165.1 323.44,-160.69 313.16,-158.13 313.8,-165.1"/>
</g>
<!-- Node10 -->
<g id="node10" class="node">
<title>Node10</title>
<g id="a_node10"><a xlink:href="../../d6/dd4/class_u___c_o_n_f_i_g_u_r_a_t_i_o_n.html#a86c433a3d57e5800ad03a4411ace09d6" target="_top" xlink:title="Get the number of threads of the service by reading the values in the REGISTRY::">
<polygon fill="none" stroke="black" points="323,-93.5 323,-123.5 502,-123.5 502,-93.5 323,-93.5"/>
<text text-anchor="start" x="331" y="-111.5" font-family="Helvetica,sans-Serif" font-size="10.00">U_CONFIGURATION::GetMaxWorker</text>
<text text-anchor="middle" x="412.5" y="-100.5" font-family="Helvetica,sans-Serif" font-size="10.00">Threads</text>
</a>
</g>
</g>
<!-- Node4&#45;&gt;Node10 -->
<g id="edge12" class="edge">
<title>Node4&#45;&gt;Node10</title>
<path fill="none" stroke="midnightblue" d="M203.22,-164.93C229.43,-156.2 269.63,-143.21 305,-133.5 314.41,-130.92 324.33,-128.36 334.18,-125.93"/>
<polygon fill="midnightblue" stroke="midnightblue" points="335.1,-129.31 343.98,-123.54 333.44,-122.51 335.1,-129.31"/>
</g>
<!-- Node11 -->
<g id="node11" class="node">
<title>Node11</title>
<g id="a_node11"><a xlink:href="../../d6/dd4/class_u___c_o_n_f_i_g_u_r_a_t_i_o_n.html#a3979610ba0d110c0e79481925f413ea0" target="_top" xlink:title="Get the number of threads of the service by reading the values in the Registry.">
<polygon fill="none" stroke="black" points="324.5,-44.5 324.5,-74.5 500.5,-74.5 500.5,-44.5 324.5,-44.5"/>
<text text-anchor="start" x="332.5" y="-62.5" font-family="Helvetica,sans-Serif" font-size="10.00">U_CONFIGURATION::GetMinWorker</text>
<text text-anchor="middle" x="412.5" y="-51.5" font-family="Helvetica,sans-Serif" font-size="10.00">Threads</text>
</a>
</g>
</g>
<!-- Node4&#45;&gt;Node11 -->
<g id="edge14" class="edge">
<title>Node4&#45;&gt;Node11</title>
<path fill="none" stroke="midnightblue" d="M185.95,-164.74C207.28,-146.24 256.58,-106.01 305,-84.5 310.7,-81.97 316.68,-79.68 322.79,-77.6"/>
<polygon fill="midnightblue" stroke="midnightblue" points="323.99,-80.89 332.46,-74.52 321.87,-74.22 323.99,-80.89"/>
</g>
<!-- Node12 -->
<g id="node12" class="node">
<title>Node12</title>
<g id="a_node12"><a xlink:href="../../d6/dd4/class_u___c_o_n_f_i_g_u_r_a_t_i_o_n.html#a3d4d97df1d0d20e20f7a1d696f9c4150" target="_top" xlink:title="Get the whitelist used to allow user&#45;specified apps.">
<polygon fill="none" stroke="black" points="329,-6 329,-25 496,-25 496,-6 329,-6"/>
<text text-anchor="middle" x="412.5" y="-13" font-family="Helvetica,sans-Serif" font-size="10.00">U_CONFIGURATION::GetWhitelist</text>
</a>
</g>
</g>
<!-- Node4&#45;&gt;Node12 -->
<g id="edge16" class="edge">
<title>Node4&#45;&gt;Node12</title>
<path fill="none" stroke="midnightblue" d="M180.84,-164.69C196.93,-138.62 244.73,-67.39 305,-34.5 309.52,-32.03 314.3,-29.88 319.22,-27.99"/>
<polygon fill="midnightblue" stroke="midnightblue" points="320.51,-31.25 328.84,-24.7 318.24,-24.63 320.51,-31.25"/>
</g>
<!-- Node6 -->
<g id="node6" class="node">
<title>Node6</title>
<g id="a_node6"><a xlink:href="../../d1/da3/class_u___r_e_g_i_s_t_r_y.html#ab8fcbe86de2429b471dcaa94d9025aa8" target="_top" xlink:title="Read the content (DWORD) of the registry key &quot;szSubKey&quot; located in the HIVE &quot;hKeyParent&quot;.">
<polygon fill="none" stroke="black" points="564,-165 564,-184 695,-184 695,-165 564,-165"/>
<text text-anchor="middle" x="629.5" y="-172" font-family="Helvetica,sans-Serif" font-size="10.00">U_REGISTRY::ReadValue</text>
</a>
</g>
</g>
<!-- Node5&#45;&gt;Node6 -->
<g id="edge5" class="edge">
<title>Node5&#45;&gt;Node6</title>
<path fill="none" stroke="midnightblue" d="M492.18,-268.98C501.77,-266.52 511.26,-263.41 520,-259.5 556.86,-243.01 592.27,-211.33 612.13,-191.65"/>
<polygon fill="midnightblue" stroke="midnightblue" points="614.88,-193.84 619.41,-184.26 609.9,-188.92 614.88,-193.84"/>
</g>
<!-- Node7&#45;&gt;Node6 -->
<g id="edge7" class="edge">
<title>Node7&#45;&gt;Node6</title>
<path fill="none" stroke="midnightblue" d="M480.53,-230.99C493.75,-228.43 507.41,-225.29 520,-221.5 548.46,-212.92 579.45,-199.01 600.99,-188.54"/>
<polygon fill="midnightblue" stroke="midnightblue" points="602.76,-191.57 610.18,-184.01 599.66,-185.29 602.76,-191.57"/>
</g>
<!-- Node8&#45;&gt;Node6 -->
<g id="edge9" class="edge">
<title>Node8&#45;&gt;Node6</title>
<path fill="none" stroke="midnightblue" d="M494.78,-188.18C514.14,-186.2 534.7,-184.1 553.74,-182.15"/>
<polygon fill="midnightblue" stroke="midnightblue" points="554.26,-185.62 563.85,-181.12 553.54,-178.65 554.26,-185.62"/>
</g>
<!-- Node9&#45;&gt;Node6 -->
<g id="edge11" class="edge">
<title>Node9&#45;&gt;Node6</title>
<path fill="none" stroke="midnightblue" d="M501.57,-161.51C518.86,-163.28 536.84,-165.12 553.64,-166.84"/>
<polygon fill="midnightblue" stroke="midnightblue" points="553.63,-170.36 563.93,-167.89 554.34,-163.39 553.63,-170.36"/>
</g>
<!-- Node10&#45;&gt;Node6 -->
<g id="edge13" class="edge">
<title>Node10&#45;&gt;Node6</title>
<path fill="none" stroke="midnightblue" d="M483.45,-123.54C495.71,-126.57 508.28,-129.93 520,-133.5 546.22,-141.5 575.24,-152.58 596.67,-161.21"/>
<polygon fill="midnightblue" stroke="midnightblue" points="595.36,-164.46 605.94,-164.98 597.99,-157.97 595.36,-164.46"/>
</g>
<!-- Node11&#45;&gt;Node6 -->
<g id="edge15" class="edge">
<title>Node11&#45;&gt;Node6</title>
<path fill="none" stroke="midnightblue" d="M495.13,-74.51C503.73,-77.31 512.18,-80.61 520,-84.5 557.53,-103.17 593.41,-137.14 613.04,-157.58"/>
<polygon fill="midnightblue" stroke="midnightblue" points="610.57,-160.06 619.97,-164.94 615.66,-155.26 610.57,-160.06"/>
</g>
<!-- Node13 -->
<g id="node13" class="node">
<title>Node13</title>
<g id="a_node13"><a xlink:href="../../d1/dca/class_u___h_e_l_p_e_r.html#abea5f0267dd3ed7ae7e13da331a27897" target="_top" xlink:title="Returns the number of Unicode strings found in a buffer (raw data from REG_MULTI_SZ)">
<polygon fill="none" stroke="black" points="556,-0.5 556,-30.5 703,-30.5 703,-0.5 556,-0.5"/>
<text text-anchor="start" x="564" y="-18.5" font-family="Helvetica,sans-Serif" font-size="10.00">U_HELPER::CountWStringsIn</text>
<text text-anchor="middle" x="629.5" y="-7.5" font-family="Helvetica,sans-Serif" font-size="10.00">Buffer</text>
</a>
</g>
</g>
<!-- Node12&#45;&gt;Node13 -->
<g id="edge17" class="edge">
<title>Node12&#45;&gt;Node13</title>
<path fill="none" stroke="midnightblue" d="M496.01,-15.5C512.29,-15.5 529.38,-15.5 545.67,-15.5"/>
<polygon fill="midnightblue" stroke="midnightblue" points="545.69,-19 555.69,-15.5 545.69,-12 545.69,-19"/>
</g>
<!-- Node14&#45;&gt;Node3 -->
<g id="edge19" class="edge">
<title>Node14&#45;&gt;Node3</title>
<path fill="none" stroke="midnightblue" d="M234.37,-288.04C267.13,-293.3 307.97,-299.87 342.18,-305.36"/>
<polygon fill="midnightblue" stroke="midnightblue" points="341.67,-308.83 352.1,-306.96 342.78,-301.91 341.67,-308.83"/>
</g>
</g>
</svg>
        <g id="navigator" transform="translate(0 0)" fill="#404254">
                <rect fill="#f2f5e9" fill-opacity="0.5" stroke="#606060" stroke-width=".5" x="0" y="0" width="60" height="60"/>
                <use id="zoomplus" xlink:href="#zoomPlus" x="17" y="9" onmousedown="handleZoom(evt,'in')"/>
                <use id="zoomminus" xlink:href="#zoomMin" x="42" y="9" onmousedown="handleZoom(evt,'out')"/>
                <use id="reset" xlink:href="#resetDef" x="30" y="36" onmousedown="handleReset()"/>
                <g id="arrowUp" xlink:href="#dirArrow" transform="translate(30 24)" onmousedown="handlePan(0,-1)">
                  <use xlink:href="#rim" fill="#404040">
                        <set attributeName="fill" to="#808080" begin="arrowUp.mouseover" end="arrowUp.mouseout"/>
                  </use>
                  <path fill="none" stroke="white" stroke-width="1.5" d="M0,-3.0v7 M-2.5,-0.5L0,-3.0L2.5,-0.5"/>
                </g>
                <g id="arrowRight" xlink:href="#dirArrow" transform="rotate(90) translate(36 -43)" onmousedown="handlePan(1,0)">
                  <use xlink:href="#rim" fill="#404040">
                        <set attributeName="fill" to="#808080" begin="arrowRight.mouseover" end="arrowRight.mouseout"/>
                  </use>
                  <path fill="none" stroke="white" stroke-width="1.5" d="M0,-3.0v7 M-2.5,-0.5L0,-3.0L2.5,-0.5"/>
                </g>
                <g id="arrowDown" xlink:href="#dirArrow" transform="rotate(180) translate(-30 -48)" onmousedown="handlePan(0,1)">
                  <use xlink:href="#rim" fill="#404040">
                        <set attributeName="fill" to="#808080" begin="arrowDown.mouseover" end="arrowDown.mouseout"/>
                  </use>
                  <path fill="none" stroke="white" stroke-width="1.5" d="M0,-3.0v7 M-2.5,-0.5L0,-3.0L2.5,-0.5"/>
                </g>
                <g id="arrowLeft" xlink:href="#dirArrow" transform="rotate(270) translate(-36 17)" onmousedown="handlePan(-1,0)">
                  <use xlink:href="#rim" fill="#404040">
                        <set attributeName="fill" to="#808080" begin="arrowLeft.mouseover" end="arrowLeft.mouseout"/>
                  </use>
                  <path fill="none" stroke="white" stroke-width="1.5" d="M0,-3.0v7 M-2.5,-0.5L0,-3.0L2.5,-0.5"/>
                </g>
        </g>
        <svg viewBox="0 0 15 15" width="100%" height="30px" preserveAspectRatio="xMaxYMin meet">
         <g id="arrow_out" transform="scale(0.3 0.3)">
          <a xlink:href="_u___service_8cpp_aff39ead9760e0687df750416a070f137_cgraph_org.svg" target="_base">
           <rect id="button" ry="5" rx="5" y="6" x="6" height="38" width="38"
                fill="#f2f5e9" fill-opacity="0.5" stroke="#606060" stroke-width="1.0"/>
           <path id="arrow"
             d="M 11.500037,31.436501 C 11.940474,20.09759 22.043105,11.32322 32.158766,21.979434 L 37.068811,17.246167 C 37.068811,17.246167 37.088388,32 37.088388,32 L 22.160133,31.978069 C 22.160133,31.978069 26.997745,27.140456 26.997745,27.140456 C 18.528582,18.264221 13.291696,25.230495 11.500037,31.436501 z"
             style="fill:#404040;"/>
          </a>
         </g>
        </svg>
</svg>
