<?xml version="1.0" encoding="UTF-8" standalone="no"?>
<!DOCTYPE svg PUBLIC "-//W3C//DTD SVG 1.1//EN"
 "http://www.w3.org/Graphics/SVG/1.1/DTD/svg11.dtd">
<!-- Generated by graphviz version 5.0.0 (20220707.1540)
 -->
<!-- Title: U_Communication.cpp Pages: 1 -->
<!--zoomable 476 -->
<svg id="main" version="1.1" xmlns="http://www.w3.org/2000/svg" xmlns:xlink="http://www.w3.org/1999/xlink" xml:space="preserve" onload="init(evt)">
<style type="text/css"><![CDATA[
.edge:hover path { stroke: red; }
.edge:hover polygon { stroke: red; fill: red; }
]]></style>
<script type="text/javascript"><![CDATA[
var edges = document.getElementsByTagName('g');
if (edges && edges.length) {
  for (var i=0;i<edges.length;i++) {
    if (edges[i].id.substr(0,4)=='edge') {
      edges[i].setAttribute('class','edge');
    }
  }
}
]]></script>
        <defs>
                <circle id="rim" cx="0" cy="0" r="7"/>
                <circle id="rim2" cx="0" cy="0" r="3.5"/>
                <g id="zoomPlus">
                        <use xlink:href="#rim" fill="#404040">
                                <set attributeName="fill" to="#808080" begin="zoomplus.mouseover" end="zoomplus.mouseout"/>
                        </use>
                        <path d="M-4,0h8M0,-4v8" fill="none" stroke="white" stroke-width="1.5" pointer-events="none"/>
                </g>
                <g id="zoomMin">
                        <use xlink:href="#rim" fill="#404040">
                                <set attributeName="fill" to="#808080" begin="zoomminus.mouseover" end="zoomminus.mouseout"/>
                        </use>
                        <path d="M-4,0h8" fill="none" stroke="white" stroke-width="1.5" pointer-events="none"/>
                </g>
                <g id="dirArrow">
                        <path fill="none" stroke="white" stroke-width="1.5" d="M0,-3.0v7 M-2.5,-0.5L0,-3.0L2.5,-0.5"/>
                </g>
               <g id="resetDef">
                       <use xlink:href="#rim2" fill="#404040">
                               <set attributeName="fill" to="#808080" begin="reset.mouseover" end="reset.mouseout"/>
                       </use>
               </g>
        </defs>

<script type="text/javascript">
var viewWidth = 1186;
var viewHeight = 476;
var sectionId = 'dynsection-0';
</script>
<script xlink:href="../../svgpan.js"/>
<svg id="graph" class="graph">
<g id="viewport">
<title>U_Communication.cpp</title>
<!-- Node1 -->
<g id="node1" class="node">
<title>Node1</title>
<g id="a_node1"><a xlink:title="Manage the communication with the driver (Connect|Reply|ListenerThread|WorkerThread)">
<polygon fill="#bfbfbf" stroke="black" points="727.62,-448.5 727.62,-467.5 842.62,-467.5 842.62,-448.5 727.62,-448.5"/>
<text text-anchor="middle" x="785.12" y="-455.5" font-family="Helvetica,sans-Serif" font-size="10.00">U_Communication.cpp</text>
</a>
</g>
</g>
<!-- Node2 -->
<g id="node2" class="node">
<title>Node2</title>
<g id="a_node2"><a xlink:href="../../d9/d01/_u___communication_8hpp.html" target="_top" xlink:title="Header for U_Communication.cpp.">
<polygon fill="none" stroke="black" points="727.62,-392.5 727.62,-411.5 842.62,-411.5 842.62,-392.5 727.62,-392.5"/>
<text text-anchor="middle" x="785.12" y="-399.5" font-family="Helvetica,sans-Serif" font-size="10.00">U_Communication.hpp</text>
</a>
</g>
</g>
<!-- Node1&#45;&gt;Node2 -->
<g id="edge1" class="edge">
<title>Node1&#45;&gt;Node2</title>
<path fill="none" stroke="midnightblue" d="M785.12,-448.08C785.12,-441.01 785.12,-430.86 785.12,-421.99"/>
<polygon fill="midnightblue" stroke="midnightblue" points="788.62,-421.75 785.12,-411.75 781.62,-421.75 788.62,-421.75"/>
</g>
<!-- Node3 -->
<g id="node3" class="node">
<title>Node3</title>
<g id="a_node3"><a xlink:href="../../df/d02/_u___global_header_8hpp.html" target="_top" xlink:title="Header used by several .hpp files.">
<polygon fill="none" stroke="black" points="618.12,-56.5 618.12,-75.5 724.12,-75.5 724.12,-56.5 618.12,-56.5"/>
<text text-anchor="middle" x="671.12" y="-63.5" font-family="Helvetica,sans-Serif" font-size="10.00">U_GlobalHeader.hpp</text>
</a>
</g>
</g>
<!-- Node2&#45;&gt;Node3 -->
<g id="edge2" class="edge">
<title>Node2&#45;&gt;Node3</title>
<path fill="none" stroke="midnightblue" d="M785.12,-392.44C785.12,-373.94 785.12,-328.81 785.12,-291 785.12,-291 785.12,-291 785.12,-177 785.12,-130.11 734.57,-96.89 700.79,-79.93"/>
<polygon fill="midnightblue" stroke="midnightblue" points="702.29,-76.77 691.77,-75.58 699.25,-83.07 702.29,-76.77"/>
</g>
<!-- Node9 -->
<g id="node9" class="node">
<title>Node9</title>
<g id="a_node9"><a xlink:href="../../d2/d01/_u___service_8hpp.html" target="_top" xlink:title="Header for U_Service.cpp.">
<polygon fill="none" stroke="black" points="336.62,-336.5 336.62,-355.5 415.62,-355.5 415.62,-336.5 336.62,-336.5"/>
<text text-anchor="middle" x="376.12" y="-343.5" font-family="Helvetica,sans-Serif" font-size="10.00">U_Service.hpp</text>
</a>
</g>
</g>
<!-- Node2&#45;&gt;Node9 -->
<g id="edge8" class="edge">
<title>Node2&#45;&gt;Node9</title>
<path fill="none" stroke="midnightblue" d="M727.36,-394C646.73,-383.71 502.03,-364.6 425.91,-354.2"/>
<polygon fill="midnightblue" stroke="midnightblue" points="426.02,-350.69 415.64,-352.8 425.07,-357.62 426.02,-350.69"/>
</g>
<!-- Node14 -->
<g id="node14" class="node">
<title>Node14</title>
<g id="a_node14"><a xlink:href="../../d3/d00/_u___logs_8hpp.html" target="_top" xlink:title="Header for U_Logs.cpp.">
<polygon fill="none" stroke="black" points="56.12,-168.5 56.12,-187.5 124.12,-187.5 124.12,-168.5 56.12,-168.5"/>
<text text-anchor="middle" x="90.12" y="-175.5" font-family="Helvetica,sans-Serif" font-size="10.00">U_Logs.hpp</text>
</a>
</g>
</g>
<!-- Node2&#45;&gt;Node14 -->
<g id="edge40" class="edge">
<title>Node2&#45;&gt;Node14</title>
<path fill="none" stroke="midnightblue" d="M727.38,-399.4C639.92,-396.06 469.01,-385.96 327.12,-356 195.98,-328.31 117.17,-358.27 47.12,-244 36.4,-226.51 53.45,-206.95 69.15,-193.89"/>
<polygon fill="midnightblue" stroke="midnightblue" points="71.34,-196.62 77.07,-187.71 67.04,-191.1 71.34,-196.62"/>
</g>
<!-- Node23 -->
<g id="node23" class="node">
<title>Node23</title>
<g id="a_node23"><a xlink:href="../../d3/d03/_shared_defs_8hpp.html" target="_top" xlink:title="Header file which contains the structures, type definitions, constants, global variablesand function ...">
<polygon fill="none" stroke="black" points="954.12,-336.5 954.12,-355.5 1102.12,-355.5 1102.12,-336.5 954.12,-336.5"/>
<text text-anchor="middle" x="1028.12" y="-343.5" font-family="Helvetica,sans-Serif" font-size="10.00">../SharedDefs/SharedDefs.hpp</text>
</a>
</g>
</g>
<!-- Node2&#45;&gt;Node23 -->
<g id="edge41" class="edge">
<title>Node2&#45;&gt;Node23</title>
<path fill="none" stroke="midnightblue" d="M823.63,-392.44C865.93,-383.04 933.94,-367.93 979.8,-357.74"/>
<polygon fill="midnightblue" stroke="midnightblue" points="980.8,-361.1 989.8,-355.52 979.28,-354.27 980.8,-361.1"/>
</g>
<!-- Node24 -->
<g id="node24" class="node">
<title>Node24</title>
<g id="a_node24"><a xlink:href="../../da/d00/_u___signature_8hpp.html" target="_top" xlink:title="Header for U_Signature.cpp.">
<polygon fill="none" stroke="black" points="846.62,-336.5 846.62,-355.5 935.62,-355.5 935.62,-336.5 846.62,-336.5"/>
<text text-anchor="middle" x="891.12" y="-343.5" font-family="Helvetica,sans-Serif" font-size="10.00">U_Signature.hpp</text>
</a>
</g>
</g>
<!-- Node2&#45;&gt;Node24 -->
<g id="edge42" class="edge">
<title>Node2&#45;&gt;Node24</title>
<path fill="none" stroke="midnightblue" d="M802.15,-392.32C819.15,-383.66 845.5,-370.24 865.11,-360.25"/>
<polygon fill="midnightblue" stroke="midnightblue" points="866.81,-363.31 874.13,-355.65 863.63,-357.08 866.81,-363.31"/>
</g>
<!-- Node29 -->
<g id="node29" class="node">
<title>Node29</title>
<g id="a_node29"><a xlink:title=" ">
<polygon fill="none" stroke="#bfbfbf" points="1120.12,-336.5 1120.12,-355.5 1178.12,-355.5 1178.12,-336.5 1120.12,-336.5"/>
<text text-anchor="middle" x="1149.12" y="-343.5" font-family="Helvetica,sans-Serif" font-size="10.00">winternl.h</text>
</a>
</g>
</g>
<!-- Node2&#45;&gt;Node29 -->
<g id="edge48" class="edge">
<title>Node2&#45;&gt;Node29</title>
<path fill="none" stroke="midnightblue" d="M842.81,-394.72C906.06,-387.46 1010.74,-374.34 1109.84,-356.1"/>
<polygon fill="midnightblue" stroke="midnightblue" points="1110.53,-359.53 1119.72,-354.26 1109.25,-352.65 1110.53,-359.53"/>
</g>
<!-- Node4 -->
<g id="node4" class="node">
<title>Node4</title>
<g id="a_node4"><a xlink:title=" ">
<polygon fill="none" stroke="#bfbfbf" points="712.62,-0.5 712.62,-19.5 777.62,-19.5 777.62,-0.5 712.62,-0.5"/>
<text text-anchor="middle" x="745.12" y="-7.5" font-family="Helvetica,sans-Serif" font-size="10.00">Windows.h</text>
</a>
</g>
</g>
<!-- Node3&#45;&gt;Node4 -->
<g id="edge3" class="edge">
<title>Node3&#45;&gt;Node4</title>
<path fill="none" stroke="midnightblue" d="M683.01,-56.32C694.27,-48.11 711.41,-35.6 724.83,-25.81"/>
<polygon fill="midnightblue" stroke="midnightblue" points="727,-28.56 733.02,-19.83 722.88,-22.9 727,-28.56"/>
</g>
<!-- Node5 -->
<g id="node5" class="node">
<title>Node5</title>
<g id="a_node5"><a xlink:title=" ">
<polygon fill="none" stroke="#bfbfbf" points="511.62,-0.5 511.62,-19.5 564.62,-19.5 564.62,-0.5 511.62,-0.5"/>
<text text-anchor="middle" x="538.12" y="-7.5" font-family="Helvetica,sans-Serif" font-size="10.00">fltUser.h</text>
</a>
</g>
</g>
<!-- Node3&#45;&gt;Node5 -->
<g id="edge4" class="edge">
<title>Node3&#45;&gt;Node5</title>
<path fill="none" stroke="midnightblue" d="M650.05,-56.44C628.06,-47.52 593.39,-33.44 568.46,-23.32"/>
<polygon fill="midnightblue" stroke="midnightblue" points="569.68,-20.04 559.1,-19.52 567.05,-26.52 569.68,-20.04"/>
</g>
<!-- Node6 -->
<g id="node6" class="node">
<title>Node6</title>
<g id="a_node6"><a xlink:title=" ">
<polygon fill="none" stroke="#bfbfbf" points="583.12,-0.5 583.12,-19.5 629.12,-19.5 629.12,-0.5 583.12,-0.5"/>
<text text-anchor="middle" x="606.12" y="-7.5" font-family="Helvetica,sans-Serif" font-size="10.00">stdio.h</text>
</a>
</g>
</g>
<!-- Node3&#45;&gt;Node6 -->
<g id="edge5" class="edge">
<title>Node3&#45;&gt;Node6</title>
<path fill="none" stroke="midnightblue" d="M660.68,-56.32C650.98,-48.26 636.31,-36.08 624.62,-26.37"/>
<polygon fill="midnightblue" stroke="midnightblue" points="626.68,-23.53 616.76,-19.83 622.21,-28.92 626.68,-23.53"/>
</g>
<!-- Node7 -->
<g id="node7" class="node">
<title>Node7</title>
<g id="a_node7"><a xlink:title=" ">
<polygon fill="none" stroke="#bfbfbf" points="647.62,-0.5 647.62,-19.5 694.62,-19.5 694.62,-0.5 647.62,-0.5"/>
<text text-anchor="middle" x="671.12" y="-7.5" font-family="Helvetica,sans-Serif" font-size="10.00">tchar.h</text>
</a>
</g>
</g>
<!-- Node3&#45;&gt;Node7 -->
<g id="edge6" class="edge">
<title>Node3&#45;&gt;Node7</title>
<path fill="none" stroke="midnightblue" d="M671.12,-56.08C671.12,-49.01 671.12,-38.86 671.12,-29.99"/>
<polygon fill="midnightblue" stroke="midnightblue" points="674.62,-29.75 671.12,-19.75 667.62,-29.75 674.62,-29.75"/>
</g>
<!-- Node8 -->
<g id="node8" class="node">
<title>Node8</title>
<g id="a_node8"><a xlink:title=" ">
<polygon fill="none" stroke="#bfbfbf" points="796.12,-0.5 796.12,-19.5 850.12,-19.5 850.12,-0.5 796.12,-0.5"/>
<text text-anchor="middle" x="823.12" y="-7.5" font-family="Helvetica,sans-Serif" font-size="10.00">strsafe.h</text>
</a>
</g>
</g>
<!-- Node3&#45;&gt;Node8 -->
<g id="edge7" class="edge">
<title>Node3&#45;&gt;Node8</title>
<path fill="none" stroke="midnightblue" d="M695.21,-56.44C720.67,-47.4 761.02,-33.06 789.58,-22.92"/>
<polygon fill="midnightblue" stroke="midnightblue" points="790.9,-26.16 799.15,-19.52 788.56,-19.57 790.9,-26.16"/>
</g>
<!-- Node9&#45;&gt;Node2 -->
<g id="edge39" class="edge">
<title>Node9&#45;&gt;Node2</title>
<path fill="none" stroke="midnightblue" d="M415.71,-351.7C485.67,-360.52 631.57,-379.72 717.65,-391.39"/>
<polygon fill="midnightblue" stroke="midnightblue" points="717.2,-394.86 727.58,-392.74 718.14,-387.93 717.2,-394.86"/>
</g>
<!-- Node9&#45;&gt;Node3 -->
<g id="edge9" class="edge">
<title>Node9&#45;&gt;Node3</title>
<path fill="none" stroke="midnightblue" d="M415.83,-341.71C511.53,-332.69 747.12,-303.52 747.12,-235 747.12,-235 747.12,-235 747.12,-177 747.12,-137.28 713.16,-101.5 690.64,-82.15"/>
<polygon fill="midnightblue" stroke="midnightblue" points="692.6,-79.24 682.67,-75.57 688.15,-84.63 692.6,-79.24"/>
</g>
<!-- Node10 -->
<g id="node10" class="node">
<title>Node10</title>
<g id="a_node10"><a xlink:href="../../d6/d00/_u___configuration_8hpp.html" target="_top" xlink:title="Header for U_Configuration.cpp.">
<polygon fill="none" stroke="black" points="166.12,-280.5 166.12,-299.5 270.12,-299.5 270.12,-280.5 166.12,-280.5"/>
<text text-anchor="middle" x="218.12" y="-287.5" font-family="Helvetica,sans-Serif" font-size="10.00">U_Configuration.hpp</text>
</a>
</g>
</g>
<!-- Node9&#45;&gt;Node10 -->
<g id="edge10" class="edge">
<title>Node9&#45;&gt;Node10</title>
<path fill="none" stroke="midnightblue" d="M346,-336.44C317.67,-327.44 275.77,-313.19 247.65,-303.05"/>
<polygon fill="midnightblue" stroke="midnightblue" points="248.55,-299.65 237.96,-299.52 246.16,-306.23 248.55,-299.65"/>
</g>
<!-- Node9&#45;&gt;Node14 -->
<g id="edge37" class="edge">
<title>Node9&#45;&gt;Node14</title>
<path fill="none" stroke="midnightblue" d="M364.89,-336.25C337.4,-315.1 264.08,-260.26 197.12,-224 173.3,-211.1 145,-199.34 123.48,-191.08"/>
<polygon fill="midnightblue" stroke="midnightblue" points="124.71,-187.8 114.12,-187.54 122.24,-194.35 124.71,-187.8"/>
</g>
<!-- Node15 -->
<g id="node15" class="node">
<title>Node15</title>
<g id="a_node15"><a xlink:href="../../d5/d01/_u___helper_8hpp.html" target="_top" xlink:title="Header for U_Helper.cpp.">
<polygon fill="none" stroke="black" points="338.62,-224.5 338.62,-243.5 413.62,-243.5 413.62,-224.5 338.62,-224.5"/>
<text text-anchor="middle" x="376.12" y="-231.5" font-family="Helvetica,sans-Serif" font-size="10.00">U_Helper.hpp</text>
</a>
</g>
</g>
<!-- Node9&#45;&gt;Node15 -->
<g id="edge38" class="edge">
<title>Node9&#45;&gt;Node15</title>
<path fill="none" stroke="midnightblue" d="M372.28,-336.37C368.93,-318.62 368.48,-277.67 370.91,-253.6"/>
<polygon fill="midnightblue" stroke="midnightblue" points="374.39,-253.97 372.29,-243.59 367.46,-253.02 374.39,-253.97"/>
</g>
<!-- Node22 -->
<g id="node22" class="node">
<title>Node22</title>
<g id="a_node22"><a xlink:href="../../d3/d01/_u___controller_8hpp.html" target="_top" xlink:title="Header for U_Controller.cpp.">
<polygon fill="none" stroke="black" points="467.62,-280.5 467.62,-299.5 556.62,-299.5 556.62,-280.5 467.62,-280.5"/>
<text text-anchor="middle" x="512.12" y="-287.5" font-family="Helvetica,sans-Serif" font-size="10.00">U_Controller.hpp</text>
</a>
</g>
</g>
<!-- Node9&#45;&gt;Node22 -->
<g id="edge33" class="edge">
<title>Node9&#45;&gt;Node22</title>
<path fill="none" stroke="midnightblue" d="M397.67,-336.44C420.15,-327.52 455.61,-313.44 481.1,-303.32"/>
<polygon fill="midnightblue" stroke="midnightblue" points="482.67,-306.46 490.67,-299.52 480.09,-299.95 482.67,-306.46"/>
</g>
<!-- Node10&#45;&gt;Node3 -->
<g id="edge11" class="edge">
<title>Node10&#45;&gt;Node3</title>
<path fill="none" stroke="midnightblue" d="M209.85,-280.35C196.49,-266.79 168.84,-240.37 141.12,-224 102.6,-201.25 82.18,-215.79 47.12,-188 17.53,-164.54 -16.66,-139.59 9.12,-112 49.45,-68.84 450.16,-65.95 607.85,-66.51"/>
<polygon fill="midnightblue" stroke="midnightblue" points="607.86,-70.01 617.88,-66.55 607.89,-63.01 607.86,-70.01"/>
</g>
<!-- Node10&#45;&gt;Node9 -->
<g id="edge16" class="edge">
<title>Node10&#45;&gt;Node9</title>
<path fill="none" stroke="midnightblue" d="M248.12,-299.52C276.4,-308.51 318.31,-322.75 346.47,-332.91"/>
<polygon fill="midnightblue" stroke="midnightblue" points="345.58,-336.31 356.18,-336.44 347.98,-329.73 345.58,-336.31"/>
</g>
<!-- Node11 -->
<g id="node11" class="node">
<title>Node11</title>
<g id="a_node11"><a xlink:title=" ">
<polygon fill="none" stroke="#bfbfbf" points="619.12,-168.5 619.12,-187.5 681.12,-187.5 681.12,-168.5 619.12,-168.5"/>
<text text-anchor="middle" x="650.12" y="-175.5" font-family="Helvetica,sans-Serif" font-size="10.00">PathCch.h</text>
</a>
</g>
</g>
<!-- Node10&#45;&gt;Node11 -->
<g id="edge12" class="edge">
<title>Node10&#45;&gt;Node11</title>
<path fill="none" stroke="midnightblue" d="M260.49,-280.44C301.88,-271.89 366.56,-258.03 422.12,-244 489.65,-226.94 567.51,-204.04 612.55,-190.47"/>
<polygon fill="midnightblue" stroke="midnightblue" points="613.63,-193.8 622.19,-187.55 611.6,-187.1 613.63,-193.8"/>
</g>
<!-- Node12 -->
<g id="node12" class="node">
<title>Node12</title>
<g id="a_node12"><a xlink:title=" ">
<polygon fill="none" stroke="#bfbfbf" points="56.12,-224.5 56.12,-243.5 132.12,-243.5 132.12,-224.5 56.12,-224.5"/>
<text text-anchor="middle" x="94.12" y="-231.5" font-family="Helvetica,sans-Serif" font-size="10.00">Shlobj_core.h</text>
</a>
</g>
</g>
<!-- Node10&#45;&gt;Node12 -->
<g id="edge13" class="edge">
<title>Node10&#45;&gt;Node12</title>
<path fill="none" stroke="midnightblue" d="M198.47,-280.44C178.16,-271.6 146.22,-257.69 123.02,-247.59"/>
<polygon fill="midnightblue" stroke="midnightblue" points="124.24,-244.3 113.68,-243.52 121.45,-250.72 124.24,-244.3"/>
</g>
<!-- Node13 -->
<g id="node13" class="node">
<title>Node13</title>
<g id="a_node13"><a xlink:href="../../d5/d02/_u___registry_8hpp.html" target="_top" xlink:title="Header for U_Registry.cpp.">
<polygon fill="none" stroke="black" points="18.62,-112.5 18.62,-131.5 101.62,-131.5 101.62,-112.5 18.62,-112.5"/>
<text text-anchor="middle" x="60.12" y="-119.5" font-family="Helvetica,sans-Serif" font-size="10.00">U_Registry.hpp</text>
</a>
</g>
</g>
<!-- Node10&#45;&gt;Node13 -->
<g id="edge14" class="edge">
<title>Node10&#45;&gt;Node13</title>
<path fill="none" stroke="midnightblue" d="M166.06,-282.31C121.27,-275.36 61.65,-262.84 47.12,-244 23.99,-214 39.64,-166.67 51.09,-141"/>
<polygon fill="midnightblue" stroke="midnightblue" points="54.37,-142.26 55.47,-131.72 48.04,-139.27 54.37,-142.26"/>
</g>
<!-- Node10&#45;&gt;Node14 -->
<g id="edge17" class="edge">
<title>Node10&#45;&gt;Node14</title>
<path fill="none" stroke="midnightblue" d="M214.06,-280.45C207.33,-267.02 192.74,-240.79 174.12,-224 158.92,-210.29 138.79,-199.32 122.05,-191.65"/>
<polygon fill="midnightblue" stroke="midnightblue" points="123.21,-188.34 112.65,-187.51 120.39,-194.74 123.21,-188.34"/>
</g>
<!-- Node10&#45;&gt;Node15 -->
<g id="edge32" class="edge">
<title>Node10&#45;&gt;Node15</title>
<path fill="none" stroke="midnightblue" d="M243.16,-280.44C269.74,-271.36 311.93,-256.94 341.65,-246.78"/>
<polygon fill="midnightblue" stroke="midnightblue" points="342.87,-250.06 351.2,-243.52 340.61,-243.44 342.87,-250.06"/>
</g>
<!-- Node13&#45;&gt;Node3 -->
<g id="edge15" class="edge">
<title>Node13&#45;&gt;Node3</title>
<path fill="none" stroke="midnightblue" d="M101.66,-113.95C106.53,-113.24 111.43,-112.57 116.12,-112 293.58,-90.58 504.22,-76.63 607.53,-70.53"/>
<polygon fill="midnightblue" stroke="midnightblue" points="608.02,-74.01 617.79,-69.93 607.61,-67.02 608.02,-74.01"/>
</g>
<!-- Node14&#45;&gt;Node3 -->
<g id="edge18" class="edge">
<title>Node14&#45;&gt;Node3</title>
<path fill="none" stroke="midnightblue" d="M95.57,-168.36C105.3,-153.79 127.18,-124.68 154.12,-112 232.93,-74.9 487.65,-68.17 607.57,-67.1"/>
<polygon fill="midnightblue" stroke="midnightblue" points="607.73,-70.6 617.71,-67.02 607.68,-63.6 607.73,-70.6"/>
</g>
<!-- Node14&#45;&gt;Node13 -->
<g id="edge19" class="edge">
<title>Node14&#45;&gt;Node13</title>
<path fill="none" stroke="midnightblue" d="M85.17,-168.08C81.02,-160.61 74.97,-149.72 69.86,-140.52"/>
<polygon fill="midnightblue" stroke="midnightblue" points="72.9,-138.79 64.98,-131.75 66.78,-142.19 72.9,-138.79"/>
</g>
<!-- Node14&#45;&gt;Node15 -->
<g id="edge20" class="edge">
<title>Node14&#45;&gt;Node15</title>
<path fill="none" stroke="midnightblue" d="M124.49,-184.67C175.48,-193.77 271.01,-211.74 328.63,-223.02"/>
<polygon fill="midnightblue" stroke="midnightblue" points="328.1,-226.48 338.58,-224.97 329.45,-219.61 328.1,-226.48"/>
</g>
<!-- Node15&#45;&gt;Node3 -->
<g id="edge29" class="edge">
<title>Node15&#45;&gt;Node3</title>
<path fill="none" stroke="midnightblue" d="M338.53,-230.25C285.19,-225.49 191.73,-213.63 171.12,-188 165.55,-181.07 165.49,-174.88 171.12,-168 225.61,-101.4 485.51,-77.71 607.55,-70.16"/>
<polygon fill="midnightblue" stroke="midnightblue" points="608.09,-73.64 617.86,-69.55 607.67,-66.65 608.09,-73.64"/>
</g>
<!-- Node15&#45;&gt;Node8 -->
<g id="edge26" class="edge">
<title>Node15&#45;&gt;Node8</title>
<path fill="none" stroke="midnightblue" d="M413.77,-224.69C468.38,-212.59 563.89,-191.19 571.12,-188 621.64,-165.69 754.74,-64.11 804.23,-25.74"/>
<polygon fill="midnightblue" stroke="midnightblue" points="806.46,-28.44 812.21,-19.54 802.16,-22.91 806.46,-28.44"/>
</g>
<!-- Node15&#45;&gt;Node9 -->
<g id="edge31" class="edge">
<title>Node15&#45;&gt;Node9</title>
<path fill="none" stroke="midnightblue" d="M379.96,-243.59C383.31,-261.31 383.77,-302.25 381.34,-326.35"/>
<polygon fill="midnightblue" stroke="midnightblue" points="377.86,-325.99 379.97,-336.37 384.79,-326.94 377.86,-325.99"/>
</g>
<!-- Node15&#45;&gt;Node11 -->
<g id="edge22" class="edge">
<title>Node15&#45;&gt;Node11</title>
<path fill="none" stroke="midnightblue" d="M413.82,-225.63C459.21,-216.75 537.76,-201.36 605.12,-188 606.22,-187.78 607.33,-187.56 608.44,-187.34"/>
<polygon fill="midnightblue" stroke="midnightblue" points="609.53,-190.69 618.65,-185.31 608.16,-183.83 609.53,-190.69"/>
</g>
<!-- Node15&#45;&gt;Node14 -->
<g id="edge30" class="edge">
<title>Node15&#45;&gt;Node14</title>
<path fill="none" stroke="midnightblue" d="M338.53,-226.75C285.84,-217.32 190.53,-199.37 134.47,-188.37"/>
<polygon fill="midnightblue" stroke="midnightblue" points="134.96,-184.9 124.47,-186.4 133.61,-191.76 134.96,-184.9"/>
</g>
<!-- Node16 -->
<g id="node16" class="node">
<title>Node16</title>
<g id="a_node16"><a xlink:title=" ">
<polygon fill="none" stroke="#bfbfbf" points="503.62,-168.5 503.62,-187.5 562.62,-187.5 562.62,-168.5 503.62,-168.5"/>
<text text-anchor="middle" x="533.12" y="-175.5" font-family="Helvetica,sans-Serif" font-size="10.00">Shlwapi.h</text>
</a>
</g>
</g>
<!-- Node15&#45;&gt;Node16 -->
<g id="edge21" class="edge">
<title>Node15&#45;&gt;Node16</title>
<path fill="none" stroke="midnightblue" d="M401,-224.44C427.41,-215.36 469.34,-200.94 498.86,-190.78"/>
<polygon fill="midnightblue" stroke="midnightblue" points="500.04,-194.08 508.36,-187.52 497.77,-187.46 500.04,-194.08"/>
</g>
<!-- Node17 -->
<g id="node17" class="node">
<title>Node17</title>
<g id="a_node17"><a xlink:title=" ">
<polygon fill="none" stroke="#bfbfbf" points="180.62,-168.5 180.62,-187.5 221.62,-187.5 221.62,-168.5 180.62,-168.5"/>
<text text-anchor="middle" x="201.12" y="-175.5" font-family="Helvetica,sans-Serif" font-size="10.00">string</text>
</a>
</g>
</g>
<!-- Node15&#45;&gt;Node17 -->
<g id="edge23" class="edge">
<title>Node15&#45;&gt;Node17</title>
<path fill="none" stroke="midnightblue" d="M348.39,-224.44C316.51,-214.61 264.36,-198.51 231.43,-188.35"/>
<polygon fill="midnightblue" stroke="midnightblue" points="232.46,-185.01 221.87,-185.4 230.39,-191.7 232.46,-185.01"/>
</g>
<!-- Node18 -->
<g id="node18" class="node">
<title>Node18</title>
<g id="a_node18"><a xlink:title=" ">
<polygon fill="none" stroke="#bfbfbf" points="240.12,-168.5 240.12,-187.5 294.12,-187.5 294.12,-168.5 240.12,-168.5"/>
<text text-anchor="middle" x="267.12" y="-175.5" font-family="Helvetica,sans-Serif" font-size="10.00">iostream</text>
</a>
</g>
</g>
<!-- Node15&#45;&gt;Node18 -->
<g id="edge24" class="edge">
<title>Node15&#45;&gt;Node18</title>
<path fill="none" stroke="midnightblue" d="M358.61,-224.32C341.05,-215.62 313.79,-202.12 293.59,-192.11"/>
<polygon fill="midnightblue" stroke="midnightblue" points="295.11,-188.96 284.59,-187.65 292,-195.23 295.11,-188.96"/>
</g>
<!-- Node19 -->
<g id="node19" class="node">
<title>Node19</title>
<g id="a_node19"><a xlink:title=" ">
<polygon fill="none" stroke="#bfbfbf" points="312.12,-168.5 312.12,-187.5 374.12,-187.5 374.12,-168.5 312.12,-168.5"/>
<text text-anchor="middle" x="343.12" y="-175.5" font-family="Helvetica,sans-Serif" font-size="10.00">TlHelp32.h</text>
</a>
</g>
</g>
<!-- Node15&#45;&gt;Node19 -->
<g id="edge25" class="edge">
<title>Node15&#45;&gt;Node19</title>
<path fill="none" stroke="midnightblue" d="M370.67,-224.08C366.11,-216.61 359.45,-205.72 353.83,-196.52"/>
<polygon fill="midnightblue" stroke="midnightblue" points="356.67,-194.46 348.47,-187.75 350.7,-198.11 356.67,-194.46"/>
</g>
<!-- Node20 -->
<g id="node20" class="node">
<title>Node20</title>
<g id="a_node20"><a xlink:title=" ">
<polygon fill="none" stroke="#bfbfbf" points="392.12,-168.5 392.12,-187.5 424.12,-187.5 424.12,-168.5 392.12,-168.5"/>
<text text-anchor="middle" x="408.12" y="-175.5" font-family="Helvetica,sans-Serif" font-size="10.00">io.h</text>
</a>
</g>
</g>
<!-- Node15&#45;&gt;Node20 -->
<g id="edge27" class="edge">
<title>Node15&#45;&gt;Node20</title>
<path fill="none" stroke="midnightblue" d="M381.41,-224.08C385.83,-216.61 392.29,-205.72 397.74,-196.52"/>
<polygon fill="midnightblue" stroke="midnightblue" points="400.85,-198.14 402.94,-187.75 394.83,-194.57 400.85,-198.14"/>
</g>
<!-- Node21 -->
<g id="node21" class="node">
<title>Node21</title>
<g id="a_node21"><a xlink:title=" ">
<polygon fill="none" stroke="#bfbfbf" points="442.62,-168.5 442.62,-187.5 485.62,-187.5 485.62,-168.5 442.62,-168.5"/>
<text text-anchor="middle" x="464.12" y="-175.5" font-family="Helvetica,sans-Serif" font-size="10.00">fcntl.h</text>
</a>
</g>
</g>
<!-- Node15&#45;&gt;Node21 -->
<g id="edge28" class="edge">
<title>Node15&#45;&gt;Node21</title>
<path fill="none" stroke="midnightblue" d="M390.26,-224.32C403.99,-215.9 425.06,-202.97 441.19,-193.07"/>
<polygon fill="midnightblue" stroke="midnightblue" points="443.33,-195.87 450.02,-187.65 439.66,-189.9 443.33,-195.87"/>
</g>
<!-- Node22&#45;&gt;Node3 -->
<g id="edge34" class="edge">
<title>Node22&#45;&gt;Node3</title>
<path fill="none" stroke="midnightblue" d="M547.99,-280.44C590.69,-268.1 659.98,-240.75 690.12,-188 708.94,-155.06 692.3,-109.26 680.49,-84.53"/>
<polygon fill="midnightblue" stroke="midnightblue" points="683.61,-82.95 675.98,-75.59 677.36,-86.1 683.61,-82.95"/>
</g>
<!-- Node22&#45;&gt;Node11 -->
<g id="edge35" class="edge">
<title>Node22&#45;&gt;Node11</title>
<path fill="none" stroke="midnightblue" d="M522.95,-280.37C546.43,-261.65 602.26,-217.15 631.51,-193.83"/>
<polygon fill="midnightblue" stroke="midnightblue" points="633.71,-196.56 639.34,-187.59 629.34,-191.09 633.71,-196.56"/>
</g>
<!-- Node22&#45;&gt;Node15 -->
<g id="edge36" class="edge">
<title>Node22&#45;&gt;Node15</title>
<path fill="none" stroke="midnightblue" d="M490.57,-280.44C468.09,-271.52 432.63,-257.44 407.14,-247.32"/>
<polygon fill="midnightblue" stroke="midnightblue" points="408.16,-243.95 397.57,-243.52 405.57,-250.46 408.16,-243.95"/>
</g>
<!-- Node24&#45;&gt;Node3 -->
<g id="edge43" class="edge">
<title>Node24&#45;&gt;Node3</title>
<path fill="none" stroke="midnightblue" d="M932.68,-336.48C969.6,-328.13 1019.87,-314.55 1034.12,-300 1055.19,-278.5 1053.12,-265.1 1053.12,-235 1053.12,-235 1053.12,-235 1053.12,-177 1053.12,-111.48 842.98,-82.64 734.42,-72.11"/>
<polygon fill="midnightblue" stroke="midnightblue" points="734.52,-68.61 724.24,-71.15 733.86,-75.58 734.52,-68.61"/>
</g>
<!-- Node25 -->
<g id="node25" class="node">
<title>Node25</title>
<g id="a_node25"><a xlink:title=" ">
<polygon fill="none" stroke="#bfbfbf" points="1081.62,-280.5 1081.62,-299.5 1142.62,-299.5 1142.62,-280.5 1081.62,-280.5"/>
<text text-anchor="middle" x="1112.12" y="-287.5" font-family="Helvetica,sans-Serif" font-size="10.00">wincrypt.h</text>
</a>
</g>
</g>
<!-- Node24&#45;&gt;Node25 -->
<g id="edge44" class="edge">
<title>Node24&#45;&gt;Node25</title>
<path fill="none" stroke="midnightblue" d="M926.14,-336.44C965.72,-326.77 1030.05,-311.05 1071.72,-300.87"/>
<polygon fill="midnightblue" stroke="midnightblue" points="1072.65,-304.25 1081.54,-298.47 1070.99,-297.45 1072.65,-304.25"/>
</g>
<!-- Node26 -->
<g id="node26" class="node">
<title>Node26</title>
<g id="a_node26"><a xlink:title=" ">
<polygon fill="none" stroke="#bfbfbf" points="813.12,-280.5 813.12,-299.5 877.12,-299.5 877.12,-280.5 813.12,-280.5"/>
<text text-anchor="middle" x="845.12" y="-287.5" font-family="Helvetica,sans-Serif" font-size="10.00">WinTrust.h</text>
</a>
</g>
</g>
<!-- Node24&#45;&gt;Node26 -->
<g id="edge45" class="edge">
<title>Node24&#45;&gt;Node26</title>
<path fill="none" stroke="midnightblue" d="M883.53,-336.08C876.89,-328.3 867.1,-316.8 859.06,-307.37"/>
<polygon fill="midnightblue" stroke="midnightblue" points="861.73,-305.09 852.58,-299.75 856.4,-309.63 861.73,-305.09"/>
</g>
<!-- Node27 -->
<g id="node27" class="node">
<title>Node27</title>
<g id="a_node27"><a xlink:title=" ">
<polygon fill="none" stroke="#bfbfbf" points="895.62,-280.5 895.62,-299.5 954.62,-299.5 954.62,-280.5 895.62,-280.5"/>
<text text-anchor="middle" x="925.12" y="-287.5" font-family="Helvetica,sans-Serif" font-size="10.00">SoftPub.h</text>
</a>
</g>
</g>
<!-- Node24&#45;&gt;Node27 -->
<g id="edge46" class="edge">
<title>Node24&#45;&gt;Node27</title>
<path fill="none" stroke="midnightblue" d="M896.74,-336.08C901.49,-328.53 908.44,-317.49 914.27,-308.23"/>
<polygon fill="midnightblue" stroke="midnightblue" points="917.25,-310.08 919.61,-299.75 911.32,-306.35 917.25,-310.08"/>
</g>
<!-- Node28 -->
<g id="node28" class="node">
<title>Node28</title>
<g id="a_node28"><a xlink:title=" ">
<polygon fill="none" stroke="#bfbfbf" points="973.12,-280.5 973.12,-299.5 1025.12,-299.5 1025.12,-280.5 973.12,-280.5"/>
<text text-anchor="middle" x="999.12" y="-287.5" font-family="Helvetica,sans-Serif" font-size="10.00">mscat.h</text>
</a>
</g>
</g>
<!-- Node24&#45;&gt;Node28 -->
<g id="edge47" class="edge">
<title>Node24&#45;&gt;Node28</title>
<path fill="none" stroke="midnightblue" d="M908.47,-336.32C925.79,-327.66 952.64,-314.24 972.62,-304.25"/>
<polygon fill="midnightblue" stroke="midnightblue" points="974.43,-307.26 981.81,-299.65 971.3,-301 974.43,-307.26"/>
</g>
</g>
</svg>
        <g id="navigator" transform="translate(0 0)" fill="#404254">
                <rect fill="#f2f5e9" fill-opacity="0.5" stroke="#606060" stroke-width=".5" x="0" y="0" width="60" height="60"/>
                <use id="zoomplus" xlink:href="#zoomPlus" x="17" y="9" onmousedown="handleZoom(evt,'in')"/>
                <use id="zoomminus" xlink:href="#zoomMin" x="42" y="9" onmousedown="handleZoom(evt,'out')"/>
                <use id="reset" xlink:href="#resetDef" x="30" y="36" onmousedown="handleReset()"/>
                <g id="arrowUp" xlink:href="#dirArrow" transform="translate(30 24)" onmousedown="handlePan(0,-1)">
                  <use xlink:href="#rim" fill="#404040">
                        <set attributeName="fill" to="#808080" begin="arrowUp.mouseover" end="arrowUp.mouseout"/>
                  </use>
                  <path fill="none" stroke="white" stroke-width="1.5" d="M0,-3.0v7 M-2.5,-0.5L0,-3.0L2.5,-0.5"/>
                </g>
                <g id="arrowRight" xlink:href="#dirArrow" transform="rotate(90) translate(36 -43)" onmousedown="handlePan(1,0)">
                  <use xlink:href="#rim" fill="#404040">
                        <set attributeName="fill" to="#808080" begin="arrowRight.mouseover" end="arrowRight.mouseout"/>
                  </use>
                  <path fill="none" stroke="white" stroke-width="1.5" d="M0,-3.0v7 M-2.5,-0.5L0,-3.0L2.5,-0.5"/>
                </g>
                <g id="arrowDown" xlink:href="#dirArrow" transform="rotate(180) translate(-30 -48)" onmousedown="handlePan(0,1)">
                  <use xlink:href="#rim" fill="#404040">
                        <set attributeName="fill" to="#808080" begin="arrowDown.mouseover" end="arrowDown.mouseout"/>
                  </use>
                  <path fill="none" stroke="white" stroke-width="1.5" d="M0,-3.0v7 M-2.5,-0.5L0,-3.0L2.5,-0.5"/>
                </g>
                <g id="arrowLeft" xlink:href="#dirArrow" transform="rotate(270) translate(-36 17)" onmousedown="handlePan(-1,0)">
                  <use xlink:href="#rim" fill="#404040">
                        <set attributeName="fill" to="#808080" begin="arrowLeft.mouseover" end="arrowLeft.mouseout"/>
                  </use>
                  <path fill="none" stroke="white" stroke-width="1.5" d="M0,-3.0v7 M-2.5,-0.5L0,-3.0L2.5,-0.5"/>
                </g>
        </g>
        <svg viewBox="0 0 15 15" width="100%" height="30px" preserveAspectRatio="xMaxYMin meet">
         <g id="arrow_out" transform="scale(0.3 0.3)">
          <a xlink:href="_u___communication_8cpp__incl_org.svg" target="_base">
           <rect id="button" ry="5" rx="5" y="6" x="6" height="38" width="38"
                fill="#f2f5e9" fill-opacity="0.5" stroke="#606060" stroke-width="1.0"/>
           <path id="arrow"
             d="M 11.500037,31.436501 C 11.940474,20.09759 22.043105,11.32322 32.158766,21.979434 L 37.068811,17.246167 C 37.068811,17.246167 37.088388,32 37.088388,32 L 22.160133,31.978069 C 22.160133,31.978069 26.997745,27.140456 26.997745,27.140456 C 18.528582,18.264221 13.291696,25.230495 11.500037,31.436501 z"
             style="fill:#404040;"/>
          </a>
         </g>
        </svg>
</svg>
