<?xml version="1.0" encoding="UTF-8" standalone="no"?>
<!DOCTYPE svg PUBLIC "-//W3C//DTD SVG 1.1//EN"
 "http://www.w3.org/Graphics/SVG/1.1/DTD/svg11.dtd">
<!-- Generated by graphviz version 5.0.0 (20220707.1540)
 -->
<!-- Title: U_COMMUNICATION::ListenerThread Pages: 1 -->
<svg width="1089pt" height="283pt"
 viewBox="0.00 0.00 1089.00 283.05" xmlns="http://www.w3.org/2000/svg" xmlns:xlink="http://www.w3.org/1999/xlink">
<g id="graph0" class="graph" transform="scale(1 1) rotate(0) translate(4 279.05)">
<title>U_COMMUNICATION::ListenerThread</title>
<!-- Node1 -->
<g id="node1" class="node">
<title>Node1</title>
<g id="a_node1"><a xlink:title="Thread listening message sends from kernel driver.">
<polygon fill="#bfbfbf" stroke="black" points="0,-100.61 0,-130.61 151,-130.61 151,-100.61 0,-100.61"/>
<text text-anchor="start" x="8" y="-118.61" font-family="Helvetica,sans-Serif" font-size="10.00">U_COMMUNICATION::Listener</text>
<text text-anchor="middle" x="75.5" y="-107.61" font-family="Helvetica,sans-Serif" font-size="10.00">Thread</text>
</a>
</g>
</g>
<!-- Node2 -->
<g id="node2" class="node">
<title>Node2</title>
<g id="a_node2"><a xlink:href="../../d9/d01/class_u___c_o_m_m_u_n_i_c_a_t_i_o_n.html#a87d0f531204d9141da9e181c20a18c59" target="_top" xlink:title="Worker thread used to check file signature.">
<polygon fill="none" stroke="black" points="187,-100.61 187,-130.61 340,-130.61 340,-100.61 187,-100.61"/>
<text text-anchor="start" x="195" y="-118.61" font-family="Helvetica,sans-Serif" font-size="10.00">U_COMMUNICATION::_Worker</text>
<text text-anchor="middle" x="263.5" y="-107.61" font-family="Helvetica,sans-Serif" font-size="10.00">Thread</text>
</a>
</g>
</g>
<!-- Node1&#45;&gt;Node2 -->
<g id="edge1" class="edge">
<title>Node1&#45;&gt;Node2</title>
<path fill="none" stroke="midnightblue" d="M151.08,-115.61C159.58,-115.61 168.29,-115.61 176.92,-115.61"/>
<polygon fill="midnightblue" stroke="midnightblue" points="176.99,-119.11 186.99,-115.61 176.99,-112.11 176.99,-119.11"/>
</g>
<!-- Node4 -->
<g id="node4" class="node">
<title>Node4</title>
<g id="a_node4"><a xlink:href="../../d1/d02/class_u___h_e_l_p_e_r.html#a6fca38e2de32e2da0598743ef731c2f1" target="_top" xlink:title="This routine will display an error message based off of the Win32 error code that is passed in.">
<polygon fill="none" stroke="black" points="600.5,-199.11 600.5,-218.11 727.5,-218.11 727.5,-199.11 600.5,-199.11"/>
<text text-anchor="middle" x="664" y="-206.11" font-family="Helvetica,sans-Serif" font-size="10.00">U_HELPER::DisplayError</text>
</a>
</g>
</g>
<!-- Node1&#45;&gt;Node4 -->
<g id="edge13" class="edge">
<title>Node1&#45;&gt;Node4</title>
<path fill="none" stroke="midnightblue" d="M98.49,-130.63C146.32,-162.29 264.51,-235.04 376,-260.61 457.01,-279.19 482.27,-280.35 563,-260.61 591.88,-253.55 621.7,-236.56 641.18,-223.91"/>
<polygon fill="midnightblue" stroke="midnightblue" points="643.23,-226.74 649.61,-218.28 639.35,-220.92 643.23,-226.74"/>
</g>
<!-- Node8 -->
<g id="node8" class="node">
<title>Node8</title>
<g id="a_node8"><a xlink:href="../../d8/d00/class_u___l_o_g_s.html#a0f2932b79fce103453dd1cfc60de2007" target="_top" xlink:title="Send the reported event in the Event Viewer (Application &#45;&gt; PI&#45;Defender_UM).">
<polygon fill="none" stroke="black" points="599,-8.11 599,-27.11 729,-27.11 729,-8.11 599,-8.11"/>
<text text-anchor="middle" x="664" y="-15.11" font-family="Helvetica,sans-Serif" font-size="10.00">U_LOGS::SvcReportEvent</text>
</a>
</g>
</g>
<!-- Node1&#45;&gt;Node8 -->
<g id="edge14" class="edge">
<title>Node1&#45;&gt;Node8</title>
<path fill="none" stroke="midnightblue" d="M107,-100.59C160.1,-75.36 273.64,-25.51 376,-7.61 457.87,6.7 479.99,-3.47 563,-7.61 571.33,-8.03 580.03,-8.64 588.68,-9.35"/>
<polygon fill="midnightblue" stroke="midnightblue" points="588.52,-12.85 598.79,-10.24 589.13,-5.88 588.52,-12.85"/>
</g>
<!-- Node3 -->
<g id="node3" class="node">
<title>Node3</title>
<g id="a_node3"><a xlink:href="../../d9/d01/class_u___c_o_m_m_u_n_i_c_a_t_i_o_n.html#a6f2f0c62b6e4f1270d5c95c6e6521ee3" target="_top" xlink:title="Push a new message in the queue.">
<polygon fill="none" stroke="black" points="376,-122.61 376,-152.61 563,-152.61 563,-122.61 376,-122.61"/>
<text text-anchor="start" x="384" y="-140.61" font-family="Helvetica,sans-Serif" font-size="10.00">U_COMMUNICATION::_PumpMessage</text>
<text text-anchor="middle" x="469.5" y="-129.61" font-family="Helvetica,sans-Serif" font-size="10.00">InQueue</text>
</a>
</g>
</g>
<!-- Node2&#45;&gt;Node3 -->
<g id="edge2" class="edge">
<title>Node2&#45;&gt;Node3</title>
<path fill="none" stroke="midnightblue" d="M340.17,-123.77C348.49,-124.67 357.05,-125.59 365.62,-126.52"/>
<polygon fill="midnightblue" stroke="midnightblue" points="365.35,-130.01 375.67,-127.6 366.11,-123.05 365.35,-130.01"/>
</g>
<!-- Node7 -->
<g id="node7" class="node">
<title>Node7</title>
<g id="a_node7"><a xlink:href="../../d9/d01/class_u___c_o_m_m_u_n_i_c_a_t_i_o_n.html#ac7267746e2596819493bbf7fca1d4520" target="_top" xlink:title="Reply to the kernel driver.">
<polygon fill="none" stroke="black" points="396.5,-46.11 396.5,-65.11 542.5,-65.11 542.5,-46.11 396.5,-46.11"/>
<text text-anchor="middle" x="469.5" y="-53.11" font-family="Helvetica,sans-Serif" font-size="10.00">U_COMMUNICATION::_Reply</text>
</a>
</g>
</g>
<!-- Node2&#45;&gt;Node7 -->
<g id="edge7" class="edge">
<title>Node2&#45;&gt;Node7</title>
<path fill="none" stroke="midnightblue" d="M301.21,-100.54C322.73,-92.1 350.61,-81.85 376,-74.61 385.24,-71.98 395.11,-69.56 404.82,-67.38"/>
<polygon fill="midnightblue" stroke="midnightblue" points="405.82,-70.75 414.85,-65.21 404.34,-63.91 405.82,-70.75"/>
</g>
<!-- Node2&#45;&gt;Node8 -->
<g id="edge10" class="edge">
<title>Node2&#45;&gt;Node8</title>
<path fill="none" stroke="midnightblue" d="M279.87,-100.42C300,-81.6 337.32,-50.35 376,-36.61 445.17,-12.05 529.53,-9.43 588.83,-11.65"/>
<polygon fill="midnightblue" stroke="midnightblue" points="588.72,-15.15 598.86,-12.08 589.02,-8.16 588.72,-15.15"/>
</g>
<!-- Node9 -->
<g id="node9" class="node">
<title>Node9</title>
<g id="a_node9"><a xlink:href="../../d1/d02/class_u___h_e_l_p_e_r.html#a0532d2f45a1a8977c99caf1c6d27e7c1" target="_top" xlink:title=" ">
<polygon fill="none" stroke="black" points="378,-84.11 378,-103.11 561,-103.11 561,-84.11 378,-84.11"/>
<text text-anchor="middle" x="469.5" y="-91.11" font-family="Helvetica,sans-Serif" font-size="10.00">U_HELPER::GetHandleFromFileName</text>
</a>
</g>
</g>
<!-- Node2&#45;&gt;Node9 -->
<g id="edge9" class="edge">
<title>Node2&#45;&gt;Node9</title>
<path fill="none" stroke="midnightblue" d="M340.17,-107.45C349.95,-106.4 360.08,-105.31 370.16,-104.22"/>
<polygon fill="midnightblue" stroke="midnightblue" points="370.64,-107.69 380.21,-103.14 369.89,-100.73 370.64,-107.69"/>
</g>
<!-- Node10 -->
<g id="node10" class="node">
<title>Node10</title>
<g id="a_node10"><a xlink:href="../../dd/d00/class_u___s_i_g_n_a_t_u_r_e.html#a4a2b43ca305cb41a3eab3b76d60cb6db" target="_top" xlink:title="Verify the signature of &#39;szFile&#39; by looking at catalogs files.">
<polygon fill="none" stroke="black" points="395.5,-220.61 395.5,-250.61 543.5,-250.61 543.5,-220.61 395.5,-220.61"/>
<text text-anchor="start" x="403.5" y="-238.61" font-family="Helvetica,sans-Serif" font-size="10.00">U_SIGNATURE::VerifyCatalog</text>
<text text-anchor="middle" x="469.5" y="-227.61" font-family="Helvetica,sans-Serif" font-size="10.00">Signature</text>
</a>
</g>
</g>
<!-- Node2&#45;&gt;Node10 -->
<g id="edge11" class="edge">
<title>Node2&#45;&gt;Node10</title>
<path fill="none" stroke="midnightblue" d="M277.7,-130.69C297.12,-151.92 335.49,-190.4 376,-211.61 379.54,-213.47 383.23,-215.18 387.01,-216.77"/>
<polygon fill="midnightblue" stroke="midnightblue" points="385.97,-220.12 396.56,-220.46 388.5,-213.59 385.97,-220.12"/>
</g>
<!-- Node11 -->
<g id="node11" class="node">
<title>Node11</title>
<g id="a_node11"><a xlink:href="../../dd/d00/class_u___s_i_g_n_a_t_u_r_e.html#a08a76b9f115ae35af11c805c8a58ebb0" target="_top" xlink:title="Check if the file &quot;szFile&quot; is signed by a trusted authority.">
<polygon fill="none" stroke="black" points="389,-171.61 389,-201.61 550,-201.61 550,-171.61 389,-171.61"/>
<text text-anchor="start" x="397" y="-189.61" font-family="Helvetica,sans-Serif" font-size="10.00">U_SIGNATURE::VerifyEmbedded</text>
<text text-anchor="middle" x="469.5" y="-178.61" font-family="Helvetica,sans-Serif" font-size="10.00">Signature</text>
</a>
</g>
</g>
<!-- Node2&#45;&gt;Node11 -->
<g id="edge12" class="edge">
<title>Node2&#45;&gt;Node11</title>
<path fill="none" stroke="midnightblue" d="M296.71,-130.66C318.72,-140.57 348.74,-153.39 376,-162.61 382.34,-164.76 388.97,-166.82 395.65,-168.78"/>
<polygon fill="midnightblue" stroke="midnightblue" points="394.87,-172.19 405.44,-171.56 396.78,-165.46 394.87,-172.19"/>
</g>
<!-- Node3&#45;&gt;Node4 -->
<g id="edge3" class="edge">
<title>Node3&#45;&gt;Node4</title>
<path fill="none" stroke="midnightblue" d="M532.15,-152.73C542.54,-155.72 553.15,-159.04 563,-162.61 588.17,-171.73 615.73,-184.64 635.54,-194.47"/>
<polygon fill="midnightblue" stroke="midnightblue" points="634.08,-197.65 644.59,-199.01 637.22,-191.4 634.08,-197.65"/>
</g>
<!-- Node5 -->
<g id="node5" class="node">
<title>Node5</title>
<g id="a_node5"><a xlink:href="../../d1/d02/class_u___h_e_l_p_e_r.html#a74e583e738595b638363c7cdec7b3d3f" target="_top" xlink:title="Popup error message displaying the function that failed associated with the error code.">
<polygon fill="none" stroke="black" points="765,-218.11 765,-237.11 911,-237.11 911,-218.11 765,-218.11"/>
<text text-anchor="middle" x="838" y="-225.11" font-family="Helvetica,sans-Serif" font-size="10.00">U_HELPER::DisplayMessage</text>
</a>
</g>
</g>
<!-- Node4&#45;&gt;Node5 -->
<g id="edge4" class="edge">
<title>Node4&#45;&gt;Node5</title>
<path fill="none" stroke="midnightblue" d="M727.58,-215.53C736.38,-216.5 745.52,-217.51 754.62,-218.51"/>
<polygon fill="midnightblue" stroke="midnightblue" points="754.51,-222.02 764.84,-219.64 755.28,-215.07 754.51,-222.02"/>
</g>
<!-- Node6 -->
<g id="node6" class="node">
<title>Node6</title>
<g id="a_node6"><a xlink:href="../../d1/d02/class_u___h_e_l_p_e_r.html#a54991307972870225fd074f0e7a21686" target="_top" xlink:title="Print error message in the terminal.">
<polygon fill="none" stroke="black" points="947,-199.11 947,-218.11 1081,-218.11 1081,-199.11 947,-199.11"/>
<text text-anchor="middle" x="1014" y="-206.11" font-family="Helvetica,sans-Serif" font-size="10.00">U_HELPER::PrintMessage</text>
</a>
</g>
</g>
<!-- Node4&#45;&gt;Node6 -->
<g id="edge6" class="edge">
<title>Node4&#45;&gt;Node6</title>
<path fill="none" stroke="midnightblue" d="M727.62,-208.61C786.19,-208.61 873.82,-208.61 936.51,-208.61"/>
<polygon fill="midnightblue" stroke="midnightblue" points="936.74,-212.11 946.74,-208.61 936.74,-205.11 936.74,-212.11"/>
</g>
<!-- Node5&#45;&gt;Node6 -->
<g id="edge5" class="edge">
<title>Node5&#45;&gt;Node6</title>
<path fill="none" stroke="midnightblue" d="M911.03,-219.75C919.56,-218.82 928.29,-217.86 936.88,-216.93"/>
<polygon fill="midnightblue" stroke="midnightblue" points="937.32,-220.4 946.88,-215.83 936.56,-213.44 937.32,-220.4"/>
</g>
<!-- Node7&#45;&gt;Node8 -->
<g id="edge8" class="edge">
<title>Node7&#45;&gt;Node8</title>
<path fill="none" stroke="midnightblue" d="M519.08,-46.02C545.16,-40.87 577.51,-34.49 604.92,-29.08"/>
<polygon fill="midnightblue" stroke="midnightblue" points="605.64,-32.5 614.77,-27.13 604.28,-25.64 605.64,-32.5"/>
</g>
</g>
</svg>
