<?xml version="1.0" encoding="UTF-8" standalone="no"?>
<!DOCTYPE svg PUBLIC "-//W3C//DTD SVG 1.1//EN"
 "http://www.w3.org/Graphics/SVG/1.1/DTD/svg11.dtd">
<!-- Generated by graphviz version 5.0.0 (20220707.1540)
 -->
<!-- Title: K_Helper.hpp Pages: 1 -->
<!--zoomable 364 -->
<svg id="main" version="1.1" xmlns="http://www.w3.org/2000/svg" xmlns:xlink="http://www.w3.org/1999/xlink" xml:space="preserve" onload="init(evt)">
<style type="text/css"><![CDATA[
.edge:hover path { stroke: red; }
.edge:hover polygon { stroke: red; fill: red; }
]]></style>
<script type="text/javascript"><![CDATA[
var edges = document.getElementsByTagName('g');
if (edges && edges.length) {
  for (var i=0;i<edges.length;i++) {
    if (edges[i].id.substr(0,4)=='edge') {
      edges[i].setAttribute('class','edge');
    }
  }
}
]]></script>
        <defs>
                <circle id="rim" cx="0" cy="0" r="7"/>
                <circle id="rim2" cx="0" cy="0" r="3.5"/>
                <g id="zoomPlus">
                        <use xlink:href="#rim" fill="#404040">
                                <set attributeName="fill" to="#808080" begin="zoomplus.mouseover" end="zoomplus.mouseout"/>
                        </use>
                        <path d="M-4,0h8M0,-4v8" fill="none" stroke="white" stroke-width="1.5" pointer-events="none"/>
                </g>
                <g id="zoomMin">
                        <use xlink:href="#rim" fill="#404040">
                                <set attributeName="fill" to="#808080" begin="zoomminus.mouseover" end="zoomminus.mouseout"/>
                        </use>
                        <path d="M-4,0h8" fill="none" stroke="white" stroke-width="1.5" pointer-events="none"/>
                </g>
                <g id="dirArrow">
                        <path fill="none" stroke="white" stroke-width="1.5" d="M0,-3.0v7 M-2.5,-0.5L0,-3.0L2.5,-0.5"/>
                </g>
               <g id="resetDef">
                       <use xlink:href="#rim2" fill="#404040">
                               <set attributeName="fill" to="#808080" begin="reset.mouseover" end="reset.mouseout"/>
                       </use>
               </g>
        </defs>

<script type="text/javascript">
var viewWidth = 674;
var viewHeight = 364;
var sectionId = 'dynsection-1';
</script>
<script xlink:href="../../svgpan.js"/>
<svg id="graph" class="graph">
<g id="viewport">
<title>K_Helper.hpp</title>
<!-- Node1 -->
<g id="node1" class="node">
<title>Node1</title>
<g id="a_node1"><a xlink:title="Header for K_Helper.cpp.">
<polygon fill="#bfbfbf" stroke="black" points="296.6,-336.5 296.6,-355.5 371.6,-355.5 371.6,-336.5 296.6,-336.5"/>
<text text-anchor="middle" x="334.1" y="-343.5" font-family="Helvetica,sans-Serif" font-size="10.00">K_Helper.hpp</text>
</a>
</g>
</g>
<!-- Node2 -->
<g id="node2" class="node">
<title>Node2</title>
<g id="a_node2"><a xlink:href="../../db/d96/_k___filter_8hpp.html" target="_top" xlink:title="Header for K_Filter.cpp.">
<polygon fill="none" stroke="black" points="44.6,-112.5 44.6,-131.5 113.6,-131.5 113.6,-112.5 44.6,-112.5"/>
<text text-anchor="middle" x="79.1" y="-119.5" font-family="Helvetica,sans-Serif" font-size="10.00">K_Filter.hpp</text>
</a>
</g>
</g>
<!-- Node1&#45;&gt;Node2 -->
<g id="edge1" class="edge">
<title>Node1&#45;&gt;Node2</title>
<path fill="none" stroke="midnightblue" d="M286.29,-337.21C225.74,-325.44 120.47,-298.47 47.1,-244 16.28,-221.12 -12.61,-201.51 6.1,-168 16.04,-150.19 36.25,-138.56 52.89,-131.59"/>
<polygon fill="midnightblue" stroke="midnightblue" points="285.86,-340.69 296.33,-339.1 287.15,-333.81 285.86,-340.69"/>
</g>
<!-- Node6 -->
<g id="node6" class="node">
<title>Node6</title>
<g id="a_node6"><a xlink:href="../../d6/dc4/_k___global_header_8hpp.html" target="_top" xlink:title="Header used by several .cpp files.">
<polygon fill="none" stroke="black" points="281.1,-280.5 281.1,-299.5 387.1,-299.5 387.1,-280.5 281.1,-280.5"/>
<text text-anchor="middle" x="334.1" y="-287.5" font-family="Helvetica,sans-Serif" font-size="10.00">K_GlobalHeader.hpp</text>
</a>
</g>
</g>
<!-- Node1&#45;&gt;Node6 -->
<g id="edge5" class="edge">
<title>Node1&#45;&gt;Node6</title>
<path fill="none" stroke="midnightblue" d="M327.63,-326.1C327,-317.14 327.44,-306.86 328.97,-299.75"/>
<polygon fill="midnightblue" stroke="midnightblue" points="324.17,-326.62 328.93,-336.08 331.11,-325.71 324.17,-326.62"/>
</g>
<!-- Node11 -->
<g id="node11" class="node">
<title>Node11</title>
<g id="a_node11"><a xlink:href="../../d5/d8d/_k___ob_callback_8hpp.html" target="_top" xlink:title="Header for K_ObCallback.cpp.">
<polygon fill="none" stroke="black" points="513.1,-112.5 513.1,-131.5 611.1,-131.5 611.1,-112.5 513.1,-112.5"/>
<text text-anchor="middle" x="562.1" y="-119.5" font-family="Helvetica,sans-Serif" font-size="10.00">K_ObCallback.hpp</text>
</a>
</g>
</g>
<!-- Node1&#45;&gt;Node11 -->
<g id="edge28" class="edge">
<title>Node1&#45;&gt;Node11</title>
<path fill="none" stroke="midnightblue" d="M370.94,-332.96C412.13,-317.88 478.6,-288.49 521.1,-244 552.5,-211.12 559.9,-153.31 561.61,-131.58"/>
<polygon fill="midnightblue" stroke="midnightblue" points="369.54,-329.74 361.3,-336.39 371.89,-336.33 369.54,-329.74"/>
</g>
<!-- Node17 -->
<g id="node17" class="node">
<title>Node17</title>
<g id="a_node17"><a xlink:href="../../df/deb/_k___helper_8cpp.html" target="_top" xlink:title="Help functions used by several .cpp files.">
<polygon fill="none" stroke="black" points="590.6,-280.5 590.6,-299.5 665.6,-299.5 665.6,-280.5 590.6,-280.5"/>
<text text-anchor="middle" x="628.1" y="-287.5" font-family="Helvetica,sans-Serif" font-size="10.00">K_Helper.cpp</text>
</a>
</g>
</g>
<!-- Node1&#45;&gt;Node17 -->
<g id="edge27" class="edge">
<title>Node1&#45;&gt;Node17</title>
<path fill="none" stroke="midnightblue" d="M381.67,-336.26C439.81,-325.58 537.04,-307.73 590.32,-297.94"/>
<polygon fill="midnightblue" stroke="midnightblue" points="380.84,-332.86 371.63,-338.11 382.1,-339.74 380.84,-332.86"/>
</g>
<!-- Node3 -->
<g id="node3" class="node">
<title>Node3</title>
<g id="a_node3"><a xlink:href="../../d3/dde/_k___driver_8hpp.html" target="_top" xlink:title="Header for K_Driver.cpp.">
<polygon fill="none" stroke="black" points="334.6,-56.5 334.6,-75.5 405.6,-75.5 405.6,-56.5 334.6,-56.5"/>
<text text-anchor="middle" x="370.1" y="-63.5" font-family="Helvetica,sans-Serif" font-size="10.00">K_Driver.hpp</text>
</a>
</g>
</g>
<!-- Node2&#45;&gt;Node3 -->
<g id="edge2" class="edge">
<title>Node2&#45;&gt;Node3</title>
<path fill="none" stroke="midnightblue" d="M123.59,-111.94C205.04,-96.26 288.29,-81.39 334.47,-73.24"/>
<polygon fill="midnightblue" stroke="midnightblue" points="122.83,-108.52 113.67,-113.85 124.16,-115.4 122.83,-108.52"/>
</g>
<!-- Node5 -->
<g id="node5" class="node">
<title>Node5</title>
<g id="a_node5"><a xlink:href="../../d2/d94/_k___filter_8cpp.html" target="_top" xlink:title="Initialize filter object used by the communication.">
<polygon fill="none" stroke="black" points="44.6,-56.5 44.6,-75.5 113.6,-75.5 113.6,-56.5 44.6,-56.5"/>
<text text-anchor="middle" x="79.1" y="-63.5" font-family="Helvetica,sans-Serif" font-size="10.00">K_Filter.cpp</text>
</a>
</g>
</g>
<!-- Node2&#45;&gt;Node5 -->
<g id="edge4" class="edge">
<title>Node2&#45;&gt;Node5</title>
<path fill="none" stroke="midnightblue" d="M79.1,-101.8C79.1,-92.91 79.1,-82.78 79.1,-75.75"/>
<polygon fill="midnightblue" stroke="midnightblue" points="75.6,-102.08 79.1,-112.08 82.6,-102.08 75.6,-102.08"/>
</g>
<!-- Node4 -->
<g id="node4" class="node">
<title>Node4</title>
<g id="a_node4"><a xlink:href="../../d3/d9c/_k___driver_8cpp.html" target="_top" xlink:title="Entrypoint of the driver, unload routine.">
<polygon fill="none" stroke="black" points="334.6,-0.5 334.6,-19.5 405.6,-19.5 405.6,-0.5 334.6,-0.5"/>
<text text-anchor="middle" x="370.1" y="-7.5" font-family="Helvetica,sans-Serif" font-size="10.00">K_Driver.cpp</text>
</a>
</g>
</g>
<!-- Node3&#45;&gt;Node4 -->
<g id="edge3" class="edge">
<title>Node3&#45;&gt;Node4</title>
<path fill="none" stroke="midnightblue" d="M370.1,-45.8C370.1,-36.91 370.1,-26.78 370.1,-19.75"/>
<polygon fill="midnightblue" stroke="midnightblue" points="366.6,-46.08 370.1,-56.08 373.6,-46.08 366.6,-46.08"/>
</g>
<!-- Node6&#45;&gt;Node1 -->
<g id="edge22" class="edge">
<title>Node6&#45;&gt;Node1</title>
<path fill="none" stroke="midnightblue" d="M340.56,-309.69C341.21,-318.64 340.78,-328.93 339.27,-336.08"/>
<polygon fill="midnightblue" stroke="midnightblue" points="344.02,-309.2 339.23,-299.75 337.08,-310.13 344.02,-309.2"/>
</g>
<!-- Node6&#45;&gt;Node2 -->
<g id="edge21" class="edge">
<title>Node6&#45;&gt;Node2</title>
<path fill="none" stroke="midnightblue" d="M270.78,-282.02C224.82,-275.61 161.73,-263.97 109.1,-244 62.92,-226.47 37.7,-230.83 13.1,-188 -0.68,-164.01 33.85,-142.92 58,-131.65"/>
<polygon fill="midnightblue" stroke="midnightblue" points="270.52,-285.52 280.9,-283.39 271.46,-278.58 270.52,-285.52"/>
</g>
<!-- Node6&#45;&gt;Node3 -->
<g id="edge20" class="edge">
<title>Node6&#45;&gt;Node3</title>
<path fill="none" stroke="midnightblue" d="M364.54,-276.01C396.77,-260.4 445.84,-230.84 467.1,-188 473.44,-175.23 482.35,-137.07 466.1,-112 452.78,-91.46 427.39,-80.11 406.07,-73.96"/>
<polygon fill="midnightblue" stroke="midnightblue" points="362.71,-273.01 355.13,-280.41 365.68,-279.35 362.71,-273.01"/>
</g>
<!-- Node7 -->
<g id="node7" class="node">
<title>Node7</title>
<g id="a_node7"><a xlink:href="../../d8/d1e/_k___cache_8hpp.html" target="_top" xlink:title="Header for K_Cache.cpp.">
<polygon fill="none" stroke="black" points="118.6,-224.5 118.6,-243.5 193.6,-243.5 193.6,-224.5 118.6,-224.5"/>
<text text-anchor="middle" x="156.1" y="-231.5" font-family="Helvetica,sans-Serif" font-size="10.00">K_Cache.hpp</text>
</a>
</g>
</g>
<!-- Node6&#45;&gt;Node7 -->
<g id="edge6" class="edge">
<title>Node6&#45;&gt;Node7</title>
<path fill="none" stroke="midnightblue" d="M295.98,-277.44C262.42,-267.26 214.33,-252.66 184.17,-243.52"/>
<polygon fill="midnightblue" stroke="midnightblue" points="295.31,-280.89 305.9,-280.44 297.34,-274.19 295.31,-280.89"/>
</g>
<!-- Node9 -->
<g id="node9" class="node">
<title>Node9</title>
<g id="a_node9"><a xlink:href="../../d8/d22/_k___configuration_8hpp.html" target="_top" xlink:title="Header for K_Configuration.cpp.">
<polygon fill="none" stroke="black" points="116.1,-168.5 116.1,-187.5 220.1,-187.5 220.1,-168.5 116.1,-168.5"/>
<text text-anchor="middle" x="168.1" y="-175.5" font-family="Helvetica,sans-Serif" font-size="10.00">K_Configuration.hpp</text>
</a>
</g>
</g>
<!-- Node6&#45;&gt;Node9 -->
<g id="edge19" class="edge">
<title>Node6&#45;&gt;Node9</title>
<path fill="none" stroke="midnightblue" d="M302.9,-276.5C284.27,-268.41 260.53,-256.98 241.1,-244 215.42,-226.84 189.36,-201.23 176.44,-187.85"/>
<polygon fill="midnightblue" stroke="midnightblue" points="301.56,-279.73 312.13,-280.41 304.29,-273.28 301.56,-279.73"/>
</g>
<!-- Node6&#45;&gt;Node11 -->
<g id="edge23" class="edge">
<title>Node6&#45;&gt;Node11</title>
<path fill="none" stroke="midnightblue" d="M397.55,-284.12C431.1,-278.71 471.19,-267.43 500.1,-244 519.36,-228.4 548.74,-156.97 558.68,-131.8"/>
<polygon fill="midnightblue" stroke="midnightblue" points="396.76,-280.7 387.37,-285.62 397.77,-287.62 396.76,-280.7"/>
</g>
<!-- Node13 -->
<g id="node13" class="node">
<title>Node13</title>
<g id="a_node13"><a xlink:href="../../d6/d2f/_k___communication_8hpp.html" target="_top" xlink:title="Header for K_Communication.cpp.">
<polygon fill="none" stroke="black" points="342.6,-168.5 342.6,-187.5 457.6,-187.5 457.6,-168.5 342.6,-168.5"/>
<text text-anchor="middle" x="400.1" y="-175.5" font-family="Helvetica,sans-Serif" font-size="10.00">K_Communication.hpp</text>
</a>
</g>
</g>
<!-- Node6&#45;&gt;Node13 -->
<g id="edge15" class="edge">
<title>Node6&#45;&gt;Node13</title>
<path fill="none" stroke="midnightblue" d="M344.52,-271.64C358.85,-247.74 384.12,-205.63 394.94,-187.59"/>
<polygon fill="midnightblue" stroke="midnightblue" points="341.42,-269.99 339.28,-280.37 347.42,-273.59 341.42,-269.99"/>
</g>
<!-- Node15 -->
<g id="node15" class="node">
<title>Node15</title>
<g id="a_node15"><a xlink:href="../../d6/db7/_k___whitelist_8hpp.html" target="_top" xlink:title="Header for K_Whitelist.cpp.">
<polygon fill="none" stroke="black" points="250.1,-224.5 250.1,-243.5 336.1,-243.5 336.1,-224.5 250.1,-224.5"/>
<text text-anchor="middle" x="293.1" y="-231.5" font-family="Helvetica,sans-Serif" font-size="10.00">K_Whitelist.hpp</text>
</a>
</g>
</g>
<!-- Node6&#45;&gt;Node15 -->
<g id="edge24" class="edge">
<title>Node6&#45;&gt;Node15</title>
<path fill="none" stroke="midnightblue" d="M321.08,-271.86C313.98,-262.5 305.5,-251.33 299.74,-243.75"/>
<polygon fill="midnightblue" stroke="midnightblue" points="318.49,-274.24 327.33,-280.08 324.07,-270 318.49,-274.24"/>
</g>
<!-- Node8 -->
<g id="node8" class="node">
<title>Node8</title>
<g id="a_node8"><a xlink:href="../../dd/d28/_k___cache_8cpp.html" target="_top" xlink:title="Store hash of signed and unsigned executable previously scanned.">
<polygon fill="none" stroke="black" points="22.6,-168.5 22.6,-187.5 97.6,-187.5 97.6,-168.5 22.6,-168.5"/>
<text text-anchor="middle" x="60.1" y="-175.5" font-family="Helvetica,sans-Serif" font-size="10.00">K_Cache.cpp</text>
</a>
</g>
</g>
<!-- Node7&#45;&gt;Node8 -->
<g id="edge7" class="edge">
<title>Node7&#45;&gt;Node8</title>
<path fill="none" stroke="midnightblue" d="M131.53,-219.18C113.86,-209.24 90.59,-196.15 75.49,-187.65"/>
<polygon fill="midnightblue" stroke="midnightblue" points="130.24,-222.47 140.68,-224.32 133.68,-216.37 130.24,-222.47"/>
</g>
<!-- Node7&#45;&gt;Node9 -->
<g id="edge8" class="edge">
<title>Node7&#45;&gt;Node9</title>
<path fill="none" stroke="midnightblue" d="M160.3,-214.1C162.29,-205.14 164.58,-194.86 166.15,-187.75"/>
<polygon fill="midnightblue" stroke="midnightblue" points="156.83,-213.56 158.08,-224.08 163.67,-215.08 156.83,-213.56"/>
</g>
<!-- Node9&#45;&gt;Node2 -->
<g id="edge11" class="edge">
<title>Node9&#45;&gt;Node2</title>
<path fill="none" stroke="midnightblue" d="M144.86,-162.9C128.54,-153 107.23,-140.07 93.36,-131.65"/>
<polygon fill="midnightblue" stroke="midnightblue" points="143.44,-166.13 153.8,-168.32 147.07,-160.14 143.44,-166.13"/>
</g>
<!-- Node9&#45;&gt;Node3 -->
<g id="edge10" class="edge">
<title>Node9&#45;&gt;Node3</title>
<path fill="none" stroke="midnightblue" d="M192.99,-163.45C235.13,-140.5 319.36,-94.63 354.32,-75.59"/>
<polygon fill="midnightblue" stroke="midnightblue" points="191.06,-160.51 183.95,-168.37 194.41,-166.66 191.06,-160.51"/>
</g>
<!-- Node10 -->
<g id="node10" class="node">
<title>Node10</title>
<g id="a_node10"><a xlink:href="../../dc/da7/_k___configuration_8cpp.html" target="_top" xlink:title="Load the configuration of the driver.">
<polygon fill="none" stroke="black" points="132.1,-112.5 132.1,-131.5 236.1,-131.5 236.1,-112.5 132.1,-112.5"/>
<text text-anchor="middle" x="184.1" y="-119.5" font-family="Helvetica,sans-Serif" font-size="10.00">K_Configuration.cpp</text>
</a>
</g>
</g>
<!-- Node9&#45;&gt;Node10 -->
<g id="edge9" class="edge">
<title>Node9&#45;&gt;Node10</title>
<path fill="none" stroke="midnightblue" d="M173.61,-158.4C176.29,-149.36 179.38,-138.94 181.51,-131.75"/>
<polygon fill="midnightblue" stroke="midnightblue" points="170.23,-157.5 170.74,-168.08 176.94,-159.49 170.23,-157.5"/>
</g>
<!-- Node9&#45;&gt;Node11 -->
<g id="edge12" class="edge">
<title>Node9&#45;&gt;Node11</title>
<path fill="none" stroke="midnightblue" d="M230.31,-167.84C337,-152.81 449.97,-137.76 512.99,-129.45"/>
<polygon fill="midnightblue" stroke="midnightblue" points="229.75,-164.39 220.34,-169.25 230.73,-171.32 229.75,-164.39"/>
</g>
<!-- Node11&#45;&gt;Node3 -->
<g id="edge13" class="edge">
<title>Node11&#45;&gt;Node3</title>
<path fill="none" stroke="midnightblue" d="M521.92,-109.7C485.68,-99.51 433.19,-84.74 400.38,-75.52"/>
<polygon fill="midnightblue" stroke="midnightblue" points="521.1,-113.11 531.68,-112.44 523,-106.37 521.1,-113.11"/>
</g>
<!-- Node12 -->
<g id="node12" class="node">
<title>Node12</title>
<g id="a_node12"><a xlink:href="../../da/d12/_k___ob_callback_8cpp.html" target="_top" xlink:title="Handle request callback.">
<polygon fill="none" stroke="black" points="513.1,-56.5 513.1,-75.5 611.1,-75.5 611.1,-56.5 513.1,-56.5"/>
<text text-anchor="middle" x="562.1" y="-63.5" font-family="Helvetica,sans-Serif" font-size="10.00">K_ObCallback.cpp</text>
</a>
</g>
</g>
<!-- Node11&#45;&gt;Node12 -->
<g id="edge14" class="edge">
<title>Node11&#45;&gt;Node12</title>
<path fill="none" stroke="midnightblue" d="M562.1,-101.8C562.1,-92.91 562.1,-82.78 562.1,-75.75"/>
<polygon fill="midnightblue" stroke="midnightblue" points="558.6,-102.08 562.1,-112.08 565.6,-102.08 558.6,-102.08"/>
</g>
<!-- Node13&#45;&gt;Node2 -->
<g id="edge17" class="edge">
<title>Node13&#45;&gt;Node2</title>
<path fill="none" stroke="midnightblue" d="M333.31,-166.93C277.12,-158.27 194.72,-145.14 123.1,-132 120.03,-131.44 116.85,-130.83 113.66,-130.21"/>
<polygon fill="midnightblue" stroke="midnightblue" points="333.07,-170.43 343.48,-168.49 334.13,-163.52 333.07,-170.43"/>
</g>
<!-- Node13&#45;&gt;Node11 -->
<g id="edge18" class="edge">
<title>Node13&#45;&gt;Node11</title>
<path fill="none" stroke="midnightblue" d="M435.58,-165.17C466.09,-155 509.34,-140.59 536.55,-131.52"/>
<polygon fill="midnightblue" stroke="midnightblue" points="434.15,-161.96 425.77,-168.44 436.36,-168.6 434.15,-161.96"/>
</g>
<!-- Node14 -->
<g id="node14" class="node">
<title>Node14</title>
<g id="a_node14"><a xlink:href="../../d3/d0b/_k___communication_8cpp.html" target="_top" xlink:title="Create the communication server, send data to the user&#45;mode service once a client is connected.">
<polygon fill="none" stroke="black" points="341.6,-112.5 341.6,-131.5 456.6,-131.5 456.6,-112.5 341.6,-112.5"/>
<text text-anchor="middle" x="399.1" y="-119.5" font-family="Helvetica,sans-Serif" font-size="10.00">K_Communication.cpp</text>
</a>
</g>
</g>
<!-- Node13&#45;&gt;Node14 -->
<g id="edge16" class="edge">
<title>Node13&#45;&gt;Node14</title>
<path fill="none" stroke="midnightblue" d="M399.74,-157.8C399.58,-148.91 399.39,-138.78 399.26,-131.75"/>
<polygon fill="midnightblue" stroke="midnightblue" points="396.25,-158.15 399.93,-168.08 403.25,-158.02 396.25,-158.15"/>
</g>
<!-- Node15&#45;&gt;Node9 -->
<g id="edge25" class="edge">
<title>Node15&#45;&gt;Node9</title>
<path fill="none" stroke="midnightblue" d="M263.86,-220.37C240.45,-210.26 208.26,-196.35 187.81,-187.52"/>
<polygon fill="midnightblue" stroke="midnightblue" points="262.72,-223.69 273.29,-224.44 265.5,-217.26 262.72,-223.69"/>
</g>
<!-- Node16 -->
<g id="node16" class="node">
<title>Node16</title>
<g id="a_node16"><a xlink:href="../../d2/de6/_k___whitelist_8cpp.html" target="_top" xlink:title="Store paths of autorized files and folders.">
<polygon fill="none" stroke="black" points="238.1,-168.5 238.1,-187.5 324.1,-187.5 324.1,-168.5 238.1,-168.5"/>
<text text-anchor="middle" x="281.1" y="-175.5" font-family="Helvetica,sans-Serif" font-size="10.00">K_Whitelist.cpp</text>
</a>
</g>
</g>
<!-- Node15&#45;&gt;Node16 -->
<g id="edge26" class="edge">
<title>Node15&#45;&gt;Node16</title>
<path fill="none" stroke="midnightblue" d="M288.9,-214.1C286.91,-205.14 284.62,-194.86 283.04,-187.75"/>
<polygon fill="midnightblue" stroke="midnightblue" points="285.53,-215.08 291.12,-224.08 292.37,-213.56 285.53,-215.08"/>
</g>
</g>
</svg>
        <g id="navigator" transform="translate(0 0)" fill="#404254">
                <rect fill="#f2f5e9" fill-opacity="0.5" stroke="#606060" stroke-width=".5" x="0" y="0" width="60" height="60"/>
                <use id="zoomplus" xlink:href="#zoomPlus" x="17" y="9" onmousedown="handleZoom(evt,'in')"/>
                <use id="zoomminus" xlink:href="#zoomMin" x="42" y="9" onmousedown="handleZoom(evt,'out')"/>
                <use id="reset" xlink:href="#resetDef" x="30" y="36" onmousedown="handleReset()"/>
                <g id="arrowUp" xlink:href="#dirArrow" transform="translate(30 24)" onmousedown="handlePan(0,-1)">
                  <use xlink:href="#rim" fill="#404040">
                        <set attributeName="fill" to="#808080" begin="arrowUp.mouseover" end="arrowUp.mouseout"/>
                  </use>
                  <path fill="none" stroke="white" stroke-width="1.5" d="M0,-3.0v7 M-2.5,-0.5L0,-3.0L2.5,-0.5"/>
                </g>
                <g id="arrowRight" xlink:href="#dirArrow" transform="rotate(90) translate(36 -43)" onmousedown="handlePan(1,0)">
                  <use xlink:href="#rim" fill="#404040">
                        <set attributeName="fill" to="#808080" begin="arrowRight.mouseover" end="arrowRight.mouseout"/>
                  </use>
                  <path fill="none" stroke="white" stroke-width="1.5" d="M0,-3.0v7 M-2.5,-0.5L0,-3.0L2.5,-0.5"/>
                </g>
                <g id="arrowDown" xlink:href="#dirArrow" transform="rotate(180) translate(-30 -48)" onmousedown="handlePan(0,1)">
                  <use xlink:href="#rim" fill="#404040">
                        <set attributeName="fill" to="#808080" begin="arrowDown.mouseover" end="arrowDown.mouseout"/>
                  </use>
                  <path fill="none" stroke="white" stroke-width="1.5" d="M0,-3.0v7 M-2.5,-0.5L0,-3.0L2.5,-0.5"/>
                </g>
                <g id="arrowLeft" xlink:href="#dirArrow" transform="rotate(270) translate(-36 17)" onmousedown="handlePan(-1,0)">
                  <use xlink:href="#rim" fill="#404040">
                        <set attributeName="fill" to="#808080" begin="arrowLeft.mouseover" end="arrowLeft.mouseout"/>
                  </use>
                  <path fill="none" stroke="white" stroke-width="1.5" d="M0,-3.0v7 M-2.5,-0.5L0,-3.0L2.5,-0.5"/>
                </g>
        </g>
        <svg viewBox="0 0 15 15" width="100%" height="30px" preserveAspectRatio="xMaxYMin meet">
         <g id="arrow_out" transform="scale(0.3 0.3)">
          <a xlink:href="_k___helper_8hpp__dep__incl_org.svg" target="_base">
           <rect id="button" ry="5" rx="5" y="6" x="6" height="38" width="38"
                fill="#f2f5e9" fill-opacity="0.5" stroke="#606060" stroke-width="1.0"/>
           <path id="arrow"
             d="M 11.500037,31.436501 C 11.940474,20.09759 22.043105,11.32322 32.158766,21.979434 L 37.068811,17.246167 C 37.068811,17.246167 37.088388,32 37.088388,32 L 22.160133,31.978069 C 22.160133,31.978069 26.997745,27.140456 26.997745,27.140456 C 18.528582,18.264221 13.291696,25.230495 11.500037,31.436501 z"
             style="fill:#404040;"/>
          </a>
         </g>
        </svg>
</svg>
