<?xml version="1.0" encoding="UTF-8" standalone="no"?>
<!DOCTYPE svg PUBLIC "-//W3C//DTD SVG 1.1//EN"
 "http://www.w3.org/Graphics/SVG/1.1/DTD/svg11.dtd">
<!-- Generated by graphviz version 5.0.0 (20220707.1540)
 -->
<!-- Title: U_CONTROLLER::_GetSCMHandle Pages: 1 -->
<!--zoomable 218 -->
<svg id="main" version="1.1" xmlns="http://www.w3.org/2000/svg" xmlns:xlink="http://www.w3.org/1999/xlink" xml:space="preserve" onload="init(evt)">
<style type="text/css"><![CDATA[
.edge:hover path { stroke: red; }
.edge:hover polygon { stroke: red; fill: red; }
]]></style>
<script type="text/javascript"><![CDATA[
var edges = document.getElementsByTagName('g');
if (edges && edges.length) {
  for (var i=0;i<edges.length;i++) {
    if (edges[i].id.substr(0,4)=='edge') {
      edges[i].setAttribute('class','edge');
    }
  }
}
]]></script>
        <defs>
                <circle id="rim" cx="0" cy="0" r="7"/>
                <circle id="rim2" cx="0" cy="0" r="3.5"/>
                <g id="zoomPlus">
                        <use xlink:href="#rim" fill="#404040">
                                <set attributeName="fill" to="#808080" begin="zoomplus.mouseover" end="zoomplus.mouseout"/>
                        </use>
                        <path d="M-4,0h8M0,-4v8" fill="none" stroke="white" stroke-width="1.5" pointer-events="none"/>
                </g>
                <g id="zoomMin">
                        <use xlink:href="#rim" fill="#404040">
                                <set attributeName="fill" to="#808080" begin="zoomminus.mouseover" end="zoomminus.mouseout"/>
                        </use>
                        <path d="M-4,0h8" fill="none" stroke="white" stroke-width="1.5" pointer-events="none"/>
                </g>
                <g id="dirArrow">
                        <path fill="none" stroke="white" stroke-width="1.5" d="M0,-3.0v7 M-2.5,-0.5L0,-3.0L2.5,-0.5"/>
                </g>
               <g id="resetDef">
                       <use xlink:href="#rim2" fill="#404040">
                               <set attributeName="fill" to="#808080" begin="reset.mouseover" end="reset.mouseout"/>
                       </use>
               </g>
        </defs>

<script type="text/javascript">
var viewWidth = 1031;
var viewHeight = 218;
var sectionId = 'dynsection-1';
</script>
<script xlink:href="../../svgpan.js"/>
<svg id="graph" class="graph">
<g id="viewport">
<title>U_CONTROLLER::_GetSCMHandle</title>
<!-- Node1 -->
<g id="node1" class="node">
<title>Node1</title>
<g id="a_node1"><a xlink:title="Get a handle to the Service Controller Database.">
<polygon fill="#bfbfbf" stroke="black" points="851,-95.5 851,-114.5 1023,-114.5 1023,-95.5 851,-95.5"/>
<text text-anchor="middle" x="937" y="-102.5" font-family="Helvetica,sans-Serif" font-size="10.00">U_CONTROLLER::_GetSCMHandle</text>
</a>
</g>
</g>
<!-- Node2 -->
<g id="node2" class="node">
<title>Node2</title>
<g id="a_node2"><a xlink:href="../../d8/d03/class_u___c_o_n_t_r_o_l_l_e_r.html#af55beae6c2742cab857466b32140a5dd" target="_top" xlink:title="Query the service &quot;szServiceName&quot; and return its state.">
<polygon fill="none" stroke="black" points="655,-153 655,-183 801,-183 801,-153 655,-153"/>
<text text-anchor="start" x="663" y="-171" font-family="Helvetica,sans-Serif" font-size="10.00">U_CONTROLLER::GetService</text>
<text text-anchor="middle" x="728" y="-160" font-family="Helvetica,sans-Serif" font-size="10.00">State</text>
</a>
</g>
</g>
<!-- Node1&#45;&gt;Node2 -->
<g id="edge1" class="edge">
<title>Node1&#45;&gt;Node2</title>
<path fill="none" stroke="midnightblue" d="M894.65,-117.59C861.19,-127.77 813.97,-142.14 778.5,-152.93"/>
<polygon fill="midnightblue" stroke="midnightblue" points="896.01,-120.83 904.56,-114.57 893.98,-114.13 896.01,-120.83"/>
</g>
<!-- Node3 -->
<g id="node3" class="node">
<title>Node3</title>
<g id="a_node3"><a xlink:href="../../d8/d03/class_u___c_o_n_t_r_o_l_l_e_r.html#a32bed2bf85d659bbaff8e1d3fcafa42e" target="_top" xlink:title="Stop the service &quot;szServiceName&quot;.">
<polygon fill="none" stroke="black" points="454,-174.5 454,-193.5 605,-193.5 605,-174.5 454,-174.5"/>
<text text-anchor="middle" x="529.5" y="-181.5" font-family="Helvetica,sans-Serif" font-size="10.00">U_CONTROLLER::StopService</text>
</a>
</g>
</g>
<!-- Node1&#45;&gt;Node3 -->
<g id="edge22" class="edge">
<title>Node1&#45;&gt;Node3</title>
<path fill="none" stroke="midnightblue" d="M920.15,-121.79C898.7,-143.16 858.12,-178.98 815,-193 731.35,-220.2 626.48,-205.22 570.34,-193.57"/>
<polygon fill="midnightblue" stroke="midnightblue" points="922.66,-124.23 927.15,-114.64 917.66,-119.33 922.66,-124.23"/>
</g>
<!-- Node9 -->
<g id="node9" class="node">
<title>Node9</title>
<g id="a_node9"><a xlink:href="../../d8/d03/class_u___c_o_n_t_r_o_l_l_e_r.html#a81c82381327f2e86e44e97bd330f2796" target="_top" xlink:title="Install the service &quot;szServiceName&quot;.">
<polygon fill="none" stroke="black" points="650,-76.5 650,-95.5 806,-95.5 806,-76.5 650,-76.5"/>
<text text-anchor="middle" x="728" y="-83.5" font-family="Helvetica,sans-Serif" font-size="10.00">U_CONTROLLER::InstallService</text>
</a>
</g>
</g>
<!-- Node1&#45;&gt;Node9 -->
<g id="edge9" class="edge">
<title>Node1&#45;&gt;Node9</title>
<path fill="none" stroke="midnightblue" d="M840.76,-96.26C829.16,-95.19 817.42,-94.12 806.12,-93.08"/>
<polygon fill="midnightblue" stroke="midnightblue" points="840.63,-99.76 850.91,-97.19 841.27,-92.79 840.63,-99.76"/>
</g>
<!-- Node11 -->
<g id="node11" class="node">
<title>Node11</title>
<g id="a_node11"><a xlink:href="../../d8/d03/class_u___c_o_n_t_r_o_l_l_e_r.html#ab1f13df84b5c2eaa78de41718b01029a" target="_top" xlink:title="Check if the service is already installed.">
<polygon fill="none" stroke="black" points="641,-38.5 641,-57.5 815,-57.5 815,-38.5 641,-38.5"/>
<text text-anchor="middle" x="728" y="-45.5" font-family="Helvetica,sans-Serif" font-size="10.00">U_CONTROLLER::IsServiceInstalled</text>
</a>
</g>
</g>
<!-- Node1&#45;&gt;Node11 -->
<g id="edge12" class="edge">
<title>Node1&#45;&gt;Node11</title>
<path fill="none" stroke="midnightblue" d="M898.17,-92.19C874.43,-84.38 843.11,-74.5 815,-67 802.29,-63.61 788.42,-60.35 775.6,-57.52"/>
<polygon fill="midnightblue" stroke="midnightblue" points="897.25,-95.57 907.84,-95.39 899.45,-88.93 897.25,-95.57"/>
</g>
<!-- Node13 -->
<g id="node13" class="node">
<title>Node13</title>
<g id="a_node13"><a xlink:href="../../d8/d03/class_u___c_o_n_t_r_o_l_l_e_r.html#a031d85cad5238299ce37dcac69a91ffc" target="_top" xlink:title="Start the service &quot;szServiceName&quot;.">
<polygon fill="none" stroke="black" points="255.5,-114.5 255.5,-133.5 417.5,-133.5 417.5,-114.5 255.5,-114.5"/>
<text text-anchor="middle" x="336.5" y="-121.5" font-family="Helvetica,sans-Serif" font-size="10.00">U_CONTROLLER::LaunchService</text>
</a>
</g>
</g>
<!-- Node1&#45;&gt;Node13 -->
<g id="edge16" class="edge">
<title>Node1&#45;&gt;Node13</title>
<path fill="none" stroke="midnightblue" d="M840.86,-108.02C723.81,-111.74 527.19,-117.98 417.54,-121.46"/>
<polygon fill="midnightblue" stroke="midnightblue" points="841,-111.52 850.89,-107.7 840.78,-104.52 841,-111.52"/>
</g>
<!-- Node15 -->
<g id="node15" class="node">
<title>Node15</title>
<g id="a_node15"><a xlink:href="../../d8/d03/class_u___c_o_n_t_r_o_l_l_e_r.html#aa18d4c0b0f8c0bfb79bf2b6c1742bef9" target="_top" xlink:title="Query the service &quot;szServiceName&quot; configuration.">
<polygon fill="none" stroke="black" points="649.5,-0.5 649.5,-19.5 806.5,-19.5 806.5,-0.5 649.5,-0.5"/>
<text text-anchor="middle" x="728" y="-7.5" font-family="Helvetica,sans-Serif" font-size="10.00">U_CONTROLLER::QueryService</text>
</a>
</g>
</g>
<!-- Node1&#45;&gt;Node15 -->
<g id="edge20" class="edge">
<title>Node1&#45;&gt;Node15</title>
<path fill="none" stroke="midnightblue" d="M915.7,-89.16C892.58,-71.88 853.06,-44.61 815,-29 805.66,-25.17 795.42,-22.05 785.37,-19.54"/>
<polygon fill="midnightblue" stroke="midnightblue" points="913.64,-91.99 923.72,-95.25 917.87,-86.41 913.64,-91.99"/>
</g>
<!-- Node2&#45;&gt;Node3 -->
<g id="edge2" class="edge">
<title>Node2&#45;&gt;Node3</title>
<path fill="none" stroke="midnightblue" d="M644.96,-174.68C631.77,-175.75 618.18,-176.86 605.18,-177.92"/>
<polygon fill="midnightblue" stroke="midnightblue" points="645.26,-178.17 654.95,-173.87 644.7,-171.19 645.26,-178.17"/>
</g>
<!-- Node4 -->
<g id="node4" class="node">
<title>Node4</title>
<g id="a_node4"><a xlink:href="../../d7/d00/_u___service_8cpp.html#a0532e721ee8f5d84f2c2f57cb3b19951" target="_top" xlink:title="Wrap the stop of the driver and the service.">
<polygon fill="none" stroke="black" points="87.5,-190.5 87.5,-209.5 124.5,-209.5 124.5,-190.5 87.5,-190.5"/>
<text text-anchor="middle" x="106" y="-197.5" font-family="Helvetica,sans-Serif" font-size="10.00">Stop</text>
</a>
</g>
</g>
<!-- Node3&#45;&gt;Node4 -->
<g id="edge3" class="edge">
<title>Node3&#45;&gt;Node4</title>
<path fill="none" stroke="midnightblue" d="M443.36,-187.23C341.49,-191.1 177.98,-197.31 124.52,-199.33"/>
<polygon fill="midnightblue" stroke="midnightblue" points="443.77,-190.72 453.63,-186.84 443.5,-183.72 443.77,-190.72"/>
</g>
<!-- Node6 -->
<g id="node6" class="node">
<title>Node6</title>
<g id="a_node6"><a xlink:href="../../d8/d03/class_u___c_o_n_t_r_o_l_l_e_r.html#a62de7b3a08b00dde2a3de3fa50ed52ea" target="_top" xlink:title="Receive signal send by the User / SC Manager, handle it, update service status.">
<polygon fill="none" stroke="black" points="255,-152.5 255,-171.5 418,-171.5 418,-152.5 255,-152.5"/>
<text text-anchor="middle" x="336.5" y="-159.5" font-family="Helvetica,sans-Serif" font-size="10.00">U_CONTROLLER::SvcCtrlHandler</text>
</a>
</g>
</g>
<!-- Node3&#45;&gt;Node6 -->
<g id="edge5" class="edge">
<title>Node3&#45;&gt;Node6</title>
<path fill="none" stroke="midnightblue" d="M443.86,-174.25C435.3,-173.27 426.63,-172.27 418.11,-171.29"/>
<polygon fill="midnightblue" stroke="midnightblue" points="443.5,-177.73 453.83,-175.4 444.3,-170.78 443.5,-177.73"/>
</g>
<!-- Node5 -->
<g id="node5" class="node">
<title>Node5</title>
<g id="a_node5"><a xlink:href="../../d7/d00/_u___service_8cpp.html#a3e9716f0248a5a48598490cd4920cbee" target="_top" xlink:title="Entrypoint of the user space executable.">
<polygon fill="none" stroke="black" points="0,-114.5 0,-133.5 46,-133.5 46,-114.5 0,-114.5"/>
<text text-anchor="middle" x="23" y="-121.5" font-family="Helvetica,sans-Serif" font-size="10.00">_tmain</text>
</a>
</g>
</g>
<!-- Node4&#45;&gt;Node5 -->
<g id="edge4" class="edge">
<title>Node4&#45;&gt;Node5</title>
<path fill="none" stroke="midnightblue" d="M84.93,-183.6C83.94,-182.73 82.95,-181.86 82,-181 64.17,-164.93 44.45,-145.07 33.2,-133.54"/>
<polygon fill="midnightblue" stroke="midnightblue" points="82.76,-186.35 92.66,-190.13 87.28,-181 82.76,-186.35"/>
</g>
<!-- Node7 -->
<g id="node7" class="node">
<title>Node7</title>
<g id="a_node7"><a xlink:href="../../d7/d00/_u___service_8cpp.html#a2ef7fa664545ef1bfd08460f37d2140a" target="_top" xlink:title="Entrypoint and core of the user space service.">
<polygon fill="none" stroke="black" points="166,-152.5 166,-171.5 219,-171.5 219,-152.5 166,-152.5"/>
<text text-anchor="middle" x="192.5" y="-159.5" font-family="Helvetica,sans-Serif" font-size="10.00">SvcMain</text>
</a>
</g>
</g>
<!-- Node6&#45;&gt;Node7 -->
<g id="edge6" class="edge">
<title>Node6&#45;&gt;Node7</title>
<path fill="none" stroke="midnightblue" d="M244.8,-162C235.59,-162 226.86,-162 219.3,-162"/>
<polygon fill="midnightblue" stroke="midnightblue" points="244.96,-165.5 254.96,-162 244.96,-158.5 244.96,-165.5"/>
</g>
<!-- Node8 -->
<g id="node8" class="node">
<title>Node8</title>
<g id="a_node8"><a xlink:href="../../d7/d00/_u___service_8cpp.html#afa2e3daf278842db7a49d41ebebc8519" target="_top" xlink:title="Wrap the call to the service entrypoint.">
<polygon fill="none" stroke="black" points="82,-152.5 82,-171.5 130,-171.5 130,-152.5 82,-152.5"/>
<text text-anchor="middle" x="106" y="-159.5" font-family="Helvetica,sans-Serif" font-size="10.00">Service</text>
</a>
</g>
</g>
<!-- Node7&#45;&gt;Node8 -->
<g id="edge7" class="edge">
<title>Node7&#45;&gt;Node8</title>
<path fill="none" stroke="midnightblue" d="M155.47,-162C146.86,-162 137.91,-162 130.07,-162"/>
<polygon fill="midnightblue" stroke="midnightblue" points="155.69,-165.5 165.69,-162 155.69,-158.5 155.69,-165.5"/>
</g>
<!-- Node8&#45;&gt;Node5 -->
<g id="edge8" class="edge">
<title>Node8&#45;&gt;Node5</title>
<path fill="none" stroke="midnightblue" d="M75.47,-148.15C65.16,-143.31 53.83,-138 44.43,-133.59"/>
<polygon fill="midnightblue" stroke="midnightblue" points="74.02,-151.33 84.56,-152.41 76.99,-145 74.02,-151.33"/>
</g>
<!-- Node10 -->
<g id="node10" class="node">
<title>Node10</title>
<g id="a_node10"><a xlink:href="../../d7/d00/_u___service_8cpp.html#ab5c4ad56c0967c7aa59e84c28c445bc6" target="_top" xlink:title="Wrap the installation of the service.">
<polygon fill="none" stroke="black" points="508.5,-76.5 508.5,-95.5 550.5,-95.5 550.5,-76.5 508.5,-76.5"/>
<text text-anchor="middle" x="529.5" y="-83.5" font-family="Helvetica,sans-Serif" font-size="10.00">Install</text>
</a>
</g>
</g>
<!-- Node9&#45;&gt;Node10 -->
<g id="edge10" class="edge">
<title>Node9&#45;&gt;Node10</title>
<path fill="none" stroke="midnightblue" d="M639.71,-86C606.66,-86 571.93,-86 550.74,-86"/>
<polygon fill="midnightblue" stroke="midnightblue" points="639.9,-89.5 649.9,-86 639.9,-82.5 639.9,-89.5"/>
</g>
<!-- Node10&#45;&gt;Node5 -->
<g id="edge11" class="edge">
<title>Node10&#45;&gt;Node5</title>
<path fill="none" stroke="midnightblue" d="M498.12,-86.76C435.76,-88.52 288.83,-93.58 166,-105 123.4,-108.96 73.94,-116.18 46.07,-120.48"/>
<polygon fill="midnightblue" stroke="midnightblue" points="498.52,-90.26 508.42,-86.48 498.33,-83.26 498.52,-90.26"/>
</g>
<!-- Node11&#45;&gt;Node10 -->
<g id="edge13" class="edge">
<title>Node11&#45;&gt;Node10</title>
<path fill="none" stroke="midnightblue" d="M667.82,-59.44C628.13,-67.12 578.29,-76.76 550.89,-82.06"/>
<polygon fill="midnightblue" stroke="midnightblue" points="668.51,-62.88 677.67,-57.54 667.19,-56 668.51,-62.88"/>
</g>
<!-- Node12 -->
<g id="node12" class="node">
<title>Node12</title>
<g id="a_node12"><a xlink:href="../../d7/d00/_u___service_8cpp.html#aff39ead9760e0687df750416a070f137" target="_top" xlink:title="Wrap the query information about the service.">
<polygon fill="none" stroke="black" points="508,-38.5 508,-57.5 551,-57.5 551,-38.5 508,-38.5"/>
<text text-anchor="middle" x="529.5" y="-45.5" font-family="Helvetica,sans-Serif" font-size="10.00">Query</text>
</a>
</g>
</g>
<!-- Node11&#45;&gt;Node12 -->
<g id="edge14" class="edge">
<title>Node11&#45;&gt;Node12</title>
<path fill="none" stroke="midnightblue" d="M630.65,-48C600.62,-48 570.36,-48 551.08,-48"/>
<polygon fill="midnightblue" stroke="midnightblue" points="630.81,-51.5 640.81,-48 630.81,-44.5 630.81,-51.5"/>
</g>
<!-- Node12&#45;&gt;Node5 -->
<g id="edge15" class="edge">
<title>Node12&#45;&gt;Node5</title>
<path fill="none" stroke="midnightblue" d="M497.42,-49.68C424.19,-54.11 235.45,-68.33 82,-104 69.97,-106.8 56.93,-111.17 46.27,-115.11"/>
<polygon fill="midnightblue" stroke="midnightblue" points="497.98,-53.15 507.76,-49.07 497.57,-46.16 497.98,-53.15"/>
</g>
<!-- Node13&#45;&gt;Node7 -->
<g id="edge19" class="edge">
<title>Node13&#45;&gt;Node7</title>
<path fill="none" stroke="midnightblue" d="M282.81,-135.89C273.52,-138.15 263.95,-140.56 255,-143 243.14,-146.23 230.12,-150.19 219.12,-153.66"/>
<polygon fill="midnightblue" stroke="midnightblue" points="283.84,-139.25 292.75,-133.52 282.21,-132.44 283.84,-139.25"/>
</g>
<!-- Node14 -->
<g id="node14" class="node">
<title>Node14</title>
<g id="a_node14"><a xlink:href="../../d7/d00/_u___service_8cpp.html#a21146308d44a2de57aa21d12af7e5b65" target="_top" xlink:title="Wrap the start of the service.">
<polygon fill="none" stroke="black" points="173.5,-114.5 173.5,-133.5 211.5,-133.5 211.5,-114.5 173.5,-114.5"/>
<text text-anchor="middle" x="192.5" y="-121.5" font-family="Helvetica,sans-Serif" font-size="10.00">Start</text>
</a>
</g>
</g>
<!-- Node13&#45;&gt;Node14 -->
<g id="edge17" class="edge">
<title>Node13&#45;&gt;Node14</title>
<path fill="none" stroke="midnightblue" d="M245.06,-124C232.41,-124 220.64,-124 211.56,-124"/>
<polygon fill="midnightblue" stroke="midnightblue" points="245.37,-127.5 255.37,-124 245.37,-120.5 245.37,-127.5"/>
</g>
<!-- Node14&#45;&gt;Node5 -->
<g id="edge18" class="edge">
<title>Node14&#45;&gt;Node5</title>
<path fill="none" stroke="midnightblue" d="M162.91,-124C129.88,-124 76.23,-124 46.19,-124"/>
<polygon fill="midnightblue" stroke="midnightblue" points="163.26,-127.5 173.26,-124 163.26,-120.5 163.26,-127.5"/>
</g>
<!-- Node15&#45;&gt;Node12 -->
<g id="edge21" class="edge">
<title>Node15&#45;&gt;Node12</title>
<path fill="none" stroke="midnightblue" d="M667.85,-21.44C628.28,-29.09 578.6,-38.7 551.14,-44.01"/>
<polygon fill="midnightblue" stroke="midnightblue" points="668.51,-24.88 677.67,-19.54 667.19,-18 668.51,-24.88"/>
</g>
</g>
</svg>
        <g id="navigator" transform="translate(0 0)" fill="#404254">
                <rect fill="#f2f5e9" fill-opacity="0.5" stroke="#606060" stroke-width=".5" x="0" y="0" width="60" height="60"/>
                <use id="zoomplus" xlink:href="#zoomPlus" x="17" y="9" onmousedown="handleZoom(evt,'in')"/>
                <use id="zoomminus" xlink:href="#zoomMin" x="42" y="9" onmousedown="handleZoom(evt,'out')"/>
                <use id="reset" xlink:href="#resetDef" x="30" y="36" onmousedown="handleReset()"/>
                <g id="arrowUp" xlink:href="#dirArrow" transform="translate(30 24)" onmousedown="handlePan(0,-1)">
                  <use xlink:href="#rim" fill="#404040">
                        <set attributeName="fill" to="#808080" begin="arrowUp.mouseover" end="arrowUp.mouseout"/>
                  </use>
                  <path fill="none" stroke="white" stroke-width="1.5" d="M0,-3.0v7 M-2.5,-0.5L0,-3.0L2.5,-0.5"/>
                </g>
                <g id="arrowRight" xlink:href="#dirArrow" transform="rotate(90) translate(36 -43)" onmousedown="handlePan(1,0)">
                  <use xlink:href="#rim" fill="#404040">
                        <set attributeName="fill" to="#808080" begin="arrowRight.mouseover" end="arrowRight.mouseout"/>
                  </use>
                  <path fill="none" stroke="white" stroke-width="1.5" d="M0,-3.0v7 M-2.5,-0.5L0,-3.0L2.5,-0.5"/>
                </g>
                <g id="arrowDown" xlink:href="#dirArrow" transform="rotate(180) translate(-30 -48)" onmousedown="handlePan(0,1)">
                  <use xlink:href="#rim" fill="#404040">
                        <set attributeName="fill" to="#808080" begin="arrowDown.mouseover" end="arrowDown.mouseout"/>
                  </use>
                  <path fill="none" stroke="white" stroke-width="1.5" d="M0,-3.0v7 M-2.5,-0.5L0,-3.0L2.5,-0.5"/>
                </g>
                <g id="arrowLeft" xlink:href="#dirArrow" transform="rotate(270) translate(-36 17)" onmousedown="handlePan(-1,0)">
                  <use xlink:href="#rim" fill="#404040">
                        <set attributeName="fill" to="#808080" begin="arrowLeft.mouseover" end="arrowLeft.mouseout"/>
                  </use>
                  <path fill="none" stroke="white" stroke-width="1.5" d="M0,-3.0v7 M-2.5,-0.5L0,-3.0L2.5,-0.5"/>
                </g>
        </g>
        <svg viewBox="0 0 15 15" width="100%" height="30px" preserveAspectRatio="xMaxYMin meet">
         <g id="arrow_out" transform="scale(0.3 0.3)">
          <a xlink:href="class_u___c_o_n_t_r_o_l_l_e_r_a65733b52c6801a89b0c12d7836feef9c_icgraph_org.svg" target="_base">
           <rect id="button" ry="5" rx="5" y="6" x="6" height="38" width="38"
                fill="#f2f5e9" fill-opacity="0.5" stroke="#606060" stroke-width="1.0"/>
           <path id="arrow"
             d="M 11.500037,31.436501 C 11.940474,20.09759 22.043105,11.32322 32.158766,21.979434 L 37.068811,17.246167 C 37.068811,17.246167 37.088388,32 37.088388,32 L 22.160133,31.978069 C 22.160133,31.978069 26.997745,27.140456 26.997745,27.140456 C 18.528582,18.264221 13.291696,25.230495 11.500037,31.436501 z"
             style="fill:#404040;"/>
          </a>
         </g>
        </svg>
</svg>
