<?xml version="1.0" encoding="UTF-8" standalone="no"?>
<!DOCTYPE svg PUBLIC "-//W3C//DTD SVG 1.1//EN"
 "http://www.w3.org/Graphics/SVG/1.1/DTD/svg11.dtd">
<!-- Generated by graphviz version 5.0.0 (20220707.1540)
 -->
<!-- Title: U_CONTROLLER::InstallService Pages: 1 -->
<!--zoomable 203 -->
<svg id="main" version="1.1" xmlns="http://www.w3.org/2000/svg" xmlns:xlink="http://www.w3.org/1999/xlink" xml:space="preserve" onload="init(evt)">
<style type="text/css"><![CDATA[
.edge:hover path { stroke: red; }
.edge:hover polygon { stroke: red; fill: red; }
]]></style>
<script type="text/javascript"><![CDATA[
var edges = document.getElementsByTagName('g');
if (edges && edges.length) {
  for (var i=0;i<edges.length;i++) {
    if (edges[i].id.substr(0,4)=='edge') {
      edges[i].setAttribute('class','edge');
    }
  }
}
]]></script>
        <defs>
                <circle id="rim" cx="0" cy="0" r="7"/>
                <circle id="rim2" cx="0" cy="0" r="3.5"/>
                <g id="zoomPlus">
                        <use xlink:href="#rim" fill="#404040">
                                <set attributeName="fill" to="#808080" begin="zoomplus.mouseover" end="zoomplus.mouseout"/>
                        </use>
                        <path d="M-4,0h8M0,-4v8" fill="none" stroke="white" stroke-width="1.5" pointer-events="none"/>
                </g>
                <g id="zoomMin">
                        <use xlink:href="#rim" fill="#404040">
                                <set attributeName="fill" to="#808080" begin="zoomminus.mouseover" end="zoomminus.mouseout"/>
                        </use>
                        <path d="M-4,0h8" fill="none" stroke="white" stroke-width="1.5" pointer-events="none"/>
                </g>
                <g id="dirArrow">
                        <path fill="none" stroke="white" stroke-width="1.5" d="M0,-3.0v7 M-2.5,-0.5L0,-3.0L2.5,-0.5"/>
                </g>
               <g id="resetDef">
                       <use xlink:href="#rim2" fill="#404040">
                               <set attributeName="fill" to="#808080" begin="reset.mouseover" end="reset.mouseout"/>
                       </use>
               </g>
        </defs>

<script type="text/javascript">
var viewWidth = 548;
var viewHeight = 203;
var sectionId = 'dynsection-6';
</script>
<script xlink:href="../../svgpan.js"/>
<svg id="graph" class="graph">
<g id="viewport">
<title>U_CONTROLLER::InstallService</title>
<!-- Node1 -->
<g id="node1" class="node">
<title>Node1</title>
<g id="a_node1"><a xlink:title="Install the service &quot;szServiceName&quot;.">
<polygon fill="#bfbfbf" stroke="black" points="0,-99 0,-118 156,-118 156,-99 0,-99"/>
<text text-anchor="middle" x="78" y="-106" font-family="Helvetica,sans-Serif" font-size="10.00">U_CONTROLLER::InstallService</text>
</a>
</g>
</g>
<!-- Node2 -->
<g id="node2" class="node">
<title>Node2</title>
<g id="a_node2"><a xlink:href="../../d8/d03/class_u___c_o_n_t_r_o_l_l_e_r.html#a65733b52c6801a89b0c12d7836feef9c" target="_top" xlink:title="Get a handle to the Service Controller Database.">
<polygon fill="none" stroke="black" points="192,-175 192,-194 364,-194 364,-175 192,-175"/>
<text text-anchor="middle" x="278" y="-182" font-family="Helvetica,sans-Serif" font-size="10.00">U_CONTROLLER::_GetSCMHandle</text>
</a>
</g>
</g>
<!-- Node1&#45;&gt;Node2 -->
<g id="edge1" class="edge">
<title>Node1&#45;&gt;Node2</title>
<path fill="none" stroke="midnightblue" d="M94.91,-118.12C116.28,-130.67 155.79,-152.55 192,-165.5 199.31,-168.11 207.1,-170.44 214.89,-172.5"/>
<polygon fill="midnightblue" stroke="midnightblue" points="214.18,-175.93 224.73,-174.95 215.87,-169.13 214.18,-175.93"/>
</g>
<!-- Node3 -->
<g id="node3" class="node">
<title>Node3</title>
<g id="a_node3"><a xlink:href="../../d1/d03/class_u___r_e_g_i_s_t_r_y.html#acb3aa163feb4caa0bbd10c41579ff78a" target="_top" xlink:title="Create the registry key &quot;szSubKey&quot; located in the HIVE &quot;hKeyParent&quot;.">
<polygon fill="none" stroke="black" points="195.5,-137 195.5,-156 360.5,-156 360.5,-137 195.5,-137"/>
<text text-anchor="middle" x="278" y="-144" font-family="Helvetica,sans-Serif" font-size="10.00">U_REGISTRY::CreateRegistryKey</text>
</a>
</g>
</g>
<!-- Node1&#45;&gt;Node3 -->
<g id="edge2" class="edge">
<title>Node1&#45;&gt;Node3</title>
<path fill="none" stroke="midnightblue" d="M128.71,-118.04C155.54,-123.19 188.86,-129.58 217.11,-135.01"/>
<polygon fill="midnightblue" stroke="midnightblue" points="216.79,-138.51 227.27,-136.96 218.11,-131.63 216.79,-138.51"/>
</g>
<!-- Node4 -->
<g id="node4" class="node">
<title>Node4</title>
<g id="a_node4"><a xlink:href="../../d1/d02/class_u___h_e_l_p_e_r.html#a3aec688c6ea99512067e4919e0020d12" target="_top" xlink:title=" ">
<polygon fill="none" stroke="black" points="204,-99 204,-118 352,-118 352,-99 204,-99"/>
<text text-anchor="middle" x="278" y="-106" font-family="Helvetica,sans-Serif" font-size="10.00">U_HELPER::GetCurrentFolder</text>
</a>
</g>
</g>
<!-- Node1&#45;&gt;Node4 -->
<g id="edge3" class="edge">
<title>Node1&#45;&gt;Node4</title>
<path fill="none" stroke="midnightblue" d="M156.12,-108.5C168.42,-108.5 181.19,-108.5 193.63,-108.5"/>
<polygon fill="midnightblue" stroke="midnightblue" points="193.98,-112 203.98,-108.5 193.98,-105 193.98,-112"/>
</g>
<!-- Node5 -->
<g id="node5" class="node">
<title>Node5</title>
<g id="a_node5"><a xlink:href="../../d1/d03/class_u___r_e_g_i_s_t_r_y.html#ac826205b4627137b899c1e0066b3fb9a" target="_top" xlink:title="Write DWORD in the registry key &quot;szSubKey&quot; located in the HIVE &quot;hKeyParent&quot;.">
<polygon fill="none" stroke="black" points="207.5,-49.5 207.5,-79.5 348.5,-79.5 348.5,-49.5 207.5,-49.5"/>
<text text-anchor="start" x="215.5" y="-67.5" font-family="Helvetica,sans-Serif" font-size="10.00">U_REGISTRY::WriteDwordIn</text>
<text text-anchor="middle" x="278" y="-56.5" font-family="Helvetica,sans-Serif" font-size="10.00">Registry</text>
</a>
</g>
</g>
<!-- Node1&#45;&gt;Node5 -->
<g id="edge4" class="edge">
<title>Node1&#45;&gt;Node5</title>
<path fill="none" stroke="midnightblue" d="M121.96,-98.95C144.55,-93.93 172.95,-87.62 199.25,-81.78"/>
<polygon fill="midnightblue" stroke="midnightblue" points="200.2,-85.15 209.21,-79.57 198.68,-78.32 200.2,-85.15"/>
</g>
<!-- Node7 -->
<g id="node7" class="node">
<title>Node7</title>
<g id="a_node7"><a xlink:href="../../d1/d03/class_u___r_e_g_i_s_t_r_y.html#aa82742460b375f1fbd9534cd8f845bd0" target="_top" xlink:title="Write STRING in the registry key &quot;szSubKey&quot; located in the HIVE &quot;hKeyParent&quot;.">
<polygon fill="none" stroke="black" points="208,-0.5 208,-30.5 348,-30.5 348,-0.5 208,-0.5"/>
<text text-anchor="start" x="216" y="-18.5" font-family="Helvetica,sans-Serif" font-size="10.00">U_REGISTRY::WriteStringIn</text>
<text text-anchor="middle" x="278" y="-7.5" font-family="Helvetica,sans-Serif" font-size="10.00">Registry</text>
</a>
</g>
</g>
<!-- Node1&#45;&gt;Node7 -->
<g id="edge6" class="edge">
<title>Node1&#45;&gt;Node7</title>
<path fill="none" stroke="midnightblue" d="M92.3,-98.94C112.83,-84.56 153.85,-57.26 192,-40.5 197.32,-38.16 202.93,-35.97 208.61,-33.93"/>
<polygon fill="midnightblue" stroke="midnightblue" points="209.89,-37.19 218.22,-30.64 207.63,-30.57 209.89,-37.19"/>
</g>
<!-- Node6 -->
<g id="node6" class="node">
<title>Node6</title>
<g id="a_node6"><a xlink:href="../../d1/d03/class_u___r_e_g_i_s_t_r_y.html#aa3f355ae1e9c7c1f9db8496d25ac1f7d" target="_top" xlink:title="Write data in the registry key &quot;szSubKey&quot; located in the HIVE &quot;hKeyParent&quot;.">
<polygon fill="none" stroke="black" points="400,-24.5 400,-54.5 540,-54.5 540,-24.5 400,-24.5"/>
<text text-anchor="start" x="408" y="-42.5" font-family="Helvetica,sans-Serif" font-size="10.00">U_REGISTRY::_WriteDataIn</text>
<text text-anchor="middle" x="470" y="-31.5" font-family="Helvetica,sans-Serif" font-size="10.00">Registry</text>
</a>
</g>
</g>
<!-- Node5&#45;&gt;Node6 -->
<g id="edge5" class="edge">
<title>Node5&#45;&gt;Node6</title>
<path fill="none" stroke="midnightblue" d="M348.67,-55.33C362,-53.58 376.06,-51.73 389.67,-49.94"/>
<polygon fill="midnightblue" stroke="midnightblue" points="390.52,-53.36 399.97,-48.58 389.6,-46.42 390.52,-53.36"/>
</g>
<!-- Node7&#45;&gt;Node6 -->
<g id="edge7" class="edge">
<title>Node7&#45;&gt;Node6</title>
<path fill="none" stroke="midnightblue" d="M348.13,-24.23C361.71,-25.95 376.05,-27.76 389.92,-29.51"/>
<polygon fill="midnightblue" stroke="midnightblue" points="389.56,-32.99 399.92,-30.77 390.44,-26.05 389.56,-32.99"/>
</g>
</g>
</svg>
        <g id="navigator" transform="translate(0 0)" fill="#404254">
                <rect fill="#f2f5e9" fill-opacity="0.5" stroke="#606060" stroke-width=".5" x="0" y="0" width="60" height="60"/>
                <use id="zoomplus" xlink:href="#zoomPlus" x="17" y="9" onmousedown="handleZoom(evt,'in')"/>
                <use id="zoomminus" xlink:href="#zoomMin" x="42" y="9" onmousedown="handleZoom(evt,'out')"/>
                <use id="reset" xlink:href="#resetDef" x="30" y="36" onmousedown="handleReset()"/>
                <g id="arrowUp" xlink:href="#dirArrow" transform="translate(30 24)" onmousedown="handlePan(0,-1)">
                  <use xlink:href="#rim" fill="#404040">
                        <set attributeName="fill" to="#808080" begin="arrowUp.mouseover" end="arrowUp.mouseout"/>
                  </use>
                  <path fill="none" stroke="white" stroke-width="1.5" d="M0,-3.0v7 M-2.5,-0.5L0,-3.0L2.5,-0.5"/>
                </g>
                <g id="arrowRight" xlink:href="#dirArrow" transform="rotate(90) translate(36 -43)" onmousedown="handlePan(1,0)">
                  <use xlink:href="#rim" fill="#404040">
                        <set attributeName="fill" to="#808080" begin="arrowRight.mouseover" end="arrowRight.mouseout"/>
                  </use>
                  <path fill="none" stroke="white" stroke-width="1.5" d="M0,-3.0v7 M-2.5,-0.5L0,-3.0L2.5,-0.5"/>
                </g>
                <g id="arrowDown" xlink:href="#dirArrow" transform="rotate(180) translate(-30 -48)" onmousedown="handlePan(0,1)">
                  <use xlink:href="#rim" fill="#404040">
                        <set attributeName="fill" to="#808080" begin="arrowDown.mouseover" end="arrowDown.mouseout"/>
                  </use>
                  <path fill="none" stroke="white" stroke-width="1.5" d="M0,-3.0v7 M-2.5,-0.5L0,-3.0L2.5,-0.5"/>
                </g>
                <g id="arrowLeft" xlink:href="#dirArrow" transform="rotate(270) translate(-36 17)" onmousedown="handlePan(-1,0)">
                  <use xlink:href="#rim" fill="#404040">
                        <set attributeName="fill" to="#808080" begin="arrowLeft.mouseover" end="arrowLeft.mouseout"/>
                  </use>
                  <path fill="none" stroke="white" stroke-width="1.5" d="M0,-3.0v7 M-2.5,-0.5L0,-3.0L2.5,-0.5"/>
                </g>
        </g>
        <svg viewBox="0 0 15 15" width="100%" height="30px" preserveAspectRatio="xMaxYMin meet">
         <g id="arrow_out" transform="scale(0.3 0.3)">
          <a xlink:href="class_u___c_o_n_t_r_o_l_l_e_r_a81c82381327f2e86e44e97bd330f2796_cgraph_org.svg" target="_base">
           <rect id="button" ry="5" rx="5" y="6" x="6" height="38" width="38"
                fill="#f2f5e9" fill-opacity="0.5" stroke="#606060" stroke-width="1.0"/>
           <path id="arrow"
             d="M 11.500037,31.436501 C 11.940474,20.09759 22.043105,11.32322 32.158766,21.979434 L 37.068811,17.246167 C 37.068811,17.246167 37.088388,32 37.088388,32 L 22.160133,31.978069 C 22.160133,31.978069 26.997745,27.140456 26.997745,27.140456 C 18.528582,18.264221 13.291696,25.230495 11.500037,31.436501 z"
             style="fill:#404040;"/>
          </a>
         </g>
        </svg>
</svg>
