<?xml version="1.0" encoding="UTF-8" standalone="no"?>
<!DOCTYPE svg PUBLIC "-//W3C//DTD SVG 1.1//EN"
 "http://www.w3.org/Graphics/SVG/1.1/DTD/svg11.dtd">
<!-- Generated by graphviz version 5.0.0 (20220707.1540)
 -->
<!-- Title: U_CONTROLLER::SvcCtrlHandler Pages: 1 -->
<svg width="769pt" height="142pt"
 viewBox="0.00 0.00 769.00 142.00" xmlns="http://www.w3.org/2000/svg" xmlns:xlink="http://www.w3.org/1999/xlink">
<g id="graph0" class="graph" transform="scale(1 1) rotate(0) translate(4 138)">
<title>U_CONTROLLER::SvcCtrlHandler</title>
<!-- Node1 -->
<g id="node1" class="node">
<title>Node1</title>
<g id="a_node1"><a xlink:title="Receive signal send by the User / SC Manager, handle it, update service status.">
<polygon fill="#bfbfbf" stroke="black" points="0,-57.5 0,-76.5 163,-76.5 163,-57.5 0,-57.5"/>
<text text-anchor="middle" x="81.5" y="-64.5" font-family="Helvetica,sans-Serif" font-size="10.00">U_CONTROLLER::SvcCtrlHandler</text>
</a>
</g>
</g>
<!-- Node2 -->
<g id="node2" class="node">
<title>Node2</title>
<g id="a_node2"><a xlink:href="../../d9/d01/class_u___c_o_m_m_u_n_i_c_a_t_i_o_n.html#a24b9f6b8b2ec28d44b96e46804ee7ddb" target="_top" xlink:title="Disconnect the client.">
<polygon fill="none" stroke="black" points="202.5,-114.5 202.5,-133.5 367.5,-133.5 367.5,-114.5 202.5,-114.5"/>
<text text-anchor="middle" x="285" y="-121.5" font-family="Helvetica,sans-Serif" font-size="10.00">U_COMMUNICATION::Disconnect</text>
</a>
</g>
</g>
<!-- Node1&#45;&gt;Node2 -->
<g id="edge1" class="edge">
<title>Node1&#45;&gt;Node2</title>
<path fill="none" stroke="midnightblue" d="M109.58,-76.65C133.05,-84.81 168.02,-96.51 199,-105 208.2,-107.52 218.03,-109.96 227.61,-112.19"/>
<polygon fill="midnightblue" stroke="midnightblue" points="226.95,-115.63 237.48,-114.44 228.51,-108.8 226.95,-115.63"/>
</g>
<!-- Node3 -->
<g id="node3" class="node">
<title>Node3</title>
<g id="a_node3"><a xlink:href="../../d8/d03/class_u___c_o_n_t_r_o_l_l_e_r.html#a32bed2bf85d659bbaff8e1d3fcafa42e" target="_top" xlink:title="Stop the service &quot;szServiceName&quot;.">
<polygon fill="none" stroke="black" points="209.5,-76.5 209.5,-95.5 360.5,-95.5 360.5,-76.5 209.5,-76.5"/>
<text text-anchor="middle" x="285" y="-83.5" font-family="Helvetica,sans-Serif" font-size="10.00">U_CONTROLLER::StopService</text>
</a>
</g>
</g>
<!-- Node1&#45;&gt;Node3 -->
<g id="edge2" class="edge">
<title>Node1&#45;&gt;Node3</title>
<path fill="none" stroke="midnightblue" d="M163.01,-74.59C174.91,-75.71 187.21,-76.87 199.2,-78"/>
<polygon fill="midnightblue" stroke="midnightblue" points="198.89,-81.49 209.18,-78.94 199.55,-74.52 198.89,-81.49"/>
</g>
<!-- Node6 -->
<g id="node6" class="node">
<title>Node6</title>
<g id="a_node6"><a xlink:href="../../d8/d00/class_u___l_o_g_s.html#a0f2932b79fce103453dd1cfc60de2007" target="_top" xlink:title="Send the reported event in the Event Viewer (Application &#45;&gt; PI&#45;Defender_UM).">
<polygon fill="none" stroke="black" points="220,-38.5 220,-57.5 350,-57.5 350,-38.5 220,-38.5"/>
<text text-anchor="middle" x="285" y="-45.5" font-family="Helvetica,sans-Serif" font-size="10.00">U_LOGS::SvcReportEvent</text>
</a>
</g>
</g>
<!-- Node1&#45;&gt;Node6 -->
<g id="edge6" class="edge">
<title>Node1&#45;&gt;Node6</title>
<path fill="none" stroke="midnightblue" d="M163.01,-59.41C178.33,-57.96 194.3,-56.46 209.42,-55.03"/>
<polygon fill="midnightblue" stroke="midnightblue" points="210.11,-58.48 219.74,-54.06 209.46,-51.51 210.11,-58.48"/>
</g>
<!-- Node7 -->
<g id="node7" class="node">
<title>Node7</title>
<g id="a_node7"><a xlink:href="../../d8/d03/class_u___c_o_n_t_r_o_l_l_e_r.html#a01343cb31a17c7a8077472a59927415a" target="_top" xlink:title="Depending on the state of the service, it can receive order from the user space.">
<polygon fill="none" stroke="black" points="199,-0.5 199,-19.5 371,-19.5 371,-0.5 199,-0.5"/>
<text text-anchor="middle" x="285" y="-7.5" font-family="Helvetica,sans-Serif" font-size="10.00">U_CONTROLLER::SvcReportStatus</text>
</a>
</g>
</g>
<!-- Node1&#45;&gt;Node7 -->
<g id="edge7" class="edge">
<title>Node1&#45;&gt;Node7</title>
<path fill="none" stroke="midnightblue" d="M109.58,-57.35C133.05,-49.19 168.02,-37.49 199,-29 208.2,-26.48 218.03,-24.04 227.61,-21.81"/>
<polygon fill="midnightblue" stroke="midnightblue" points="228.51,-25.2 237.48,-19.56 226.95,-18.37 228.51,-25.2"/>
</g>
<!-- Node4 -->
<g id="node4" class="node">
<title>Node4</title>
<g id="a_node4"><a xlink:href="../../d8/d03/class_u___c_o_n_t_r_o_l_l_e_r.html#a65733b52c6801a89b0c12d7836feef9c" target="_top" xlink:title="Get a handle to the Service Controller Database.">
<polygon fill="none" stroke="black" points="589,-76.5 589,-95.5 761,-95.5 761,-76.5 589,-76.5"/>
<text text-anchor="middle" x="675" y="-83.5" font-family="Helvetica,sans-Serif" font-size="10.00">U_CONTROLLER::_GetSCMHandle</text>
</a>
</g>
</g>
<!-- Node3&#45;&gt;Node4 -->
<g id="edge3" class="edge">
<title>Node3&#45;&gt;Node4</title>
<path fill="none" stroke="midnightblue" d="M360.55,-87.43C375.91,-87.67 391.98,-87.88 407,-88 471.89,-88.54 488.11,-88.54 553,-88 561.31,-87.93 569.93,-87.84 578.58,-87.72"/>
<polygon fill="midnightblue" stroke="midnightblue" points="578.77,-91.22 588.73,-87.59 578.68,-84.22 578.77,-91.22"/>
</g>
<!-- Node5 -->
<g id="node5" class="node">
<title>Node5</title>
<g id="a_node5"><a xlink:href="../../d8/d03/class_u___c_o_n_t_r_o_l_l_e_r.html#af55beae6c2742cab857466b32140a5dd" target="_top" xlink:title="Query the service &quot;szServiceName&quot; and return its state.">
<polygon fill="none" stroke="black" points="407,-49 407,-79 553,-79 553,-49 407,-49"/>
<text text-anchor="start" x="415" y="-67" font-family="Helvetica,sans-Serif" font-size="10.00">U_CONTROLLER::GetService</text>
<text text-anchor="middle" x="480" y="-56" font-family="Helvetica,sans-Serif" font-size="10.00">State</text>
</a>
</g>
</g>
<!-- Node3&#45;&gt;Node5 -->
<g id="edge4" class="edge">
<title>Node3&#45;&gt;Node5</title>
<path fill="none" stroke="midnightblue" d="M360.62,-77.49C372.47,-76.14 384.78,-74.74 396.8,-73.37"/>
<polygon fill="midnightblue" stroke="midnightblue" points="397.26,-76.84 406.8,-72.23 396.47,-69.89 397.26,-76.84"/>
</g>
<!-- Node5&#45;&gt;Node4 -->
<g id="edge5" class="edge">
<title>Node5&#45;&gt;Node4</title>
<path fill="none" stroke="midnightblue" d="M553.14,-72.22C562.1,-73.25 571.37,-74.3 580.59,-75.35"/>
<polygon fill="midnightblue" stroke="midnightblue" points="580.24,-78.84 590.57,-76.49 581.03,-71.88 580.24,-78.84"/>
</g>
</g>
</svg>
