<?xml version="1.0" encoding="UTF-8" standalone="no"?>
<!DOCTYPE svg PUBLIC "-//W3C//DTD SVG 1.1//EN"
 "http://www.w3.org/Graphics/SVG/1.1/DTD/svg11.dtd">
<!-- Generated by graphviz version 5.0.0 (20220707.1540)
 -->
<!-- Title: U_CONTROLLER::StopService Pages: 1 -->
<svg width="549pt" height="56pt"
 viewBox="0.00 0.00 549.00 55.50" xmlns="http://www.w3.org/2000/svg" xmlns:xlink="http://www.w3.org/1999/xlink">
<g id="graph0" class="graph" transform="scale(1 1) rotate(0) translate(4 51.5)">
<title>U_CONTROLLER::StopService</title>
<!-- Node1 -->
<g id="node1" class="node">
<title>Node1</title>
<g id="a_node1"><a xlink:title="Stop the service &quot;szServiceName&quot;.">
<polygon fill="#bfbfbf" stroke="black" points="0,-28 0,-47 151,-47 151,-28 0,-28"/>
<text text-anchor="middle" x="75.5" y="-35" font-family="Helvetica,sans-Serif" font-size="10.00">U_CONTROLLER::StopService</text>
</a>
</g>
</g>
<!-- Node2 -->
<g id="node2" class="node">
<title>Node2</title>
<g id="a_node2"><a xlink:href="../../d8/d03/class_u___c_o_n_t_r_o_l_l_e_r.html#a65733b52c6801a89b0c12d7836feef9c" target="_top" xlink:title="Get a handle to the Service Controller Database.">
<polygon fill="none" stroke="black" points="369,-28 369,-47 541,-47 541,-28 369,-28"/>
<text text-anchor="middle" x="455" y="-35" font-family="Helvetica,sans-Serif" font-size="10.00">U_CONTROLLER::_GetSCMHandle</text>
</a>
</g>
</g>
<!-- Node1&#45;&gt;Node2 -->
<g id="edge1" class="edge">
<title>Node1&#45;&gt;Node2</title>
<path fill="none" stroke="midnightblue" d="M151.09,-39.8C163.1,-40.09 175.39,-40.34 187,-40.5 251.88,-41.38 268.12,-41.3 333,-40.5 341.31,-40.4 349.93,-40.25 358.58,-40.09"/>
<polygon fill="midnightblue" stroke="midnightblue" points="358.8,-43.58 368.73,-39.88 358.66,-36.58 358.8,-43.58"/>
</g>
<!-- Node3 -->
<g id="node3" class="node">
<title>Node3</title>
<g id="a_node3"><a xlink:href="../../d8/d03/class_u___c_o_n_t_r_o_l_l_e_r.html#af55beae6c2742cab857466b32140a5dd" target="_top" xlink:title="Query the service &quot;szServiceName&quot; and return its state.">
<polygon fill="none" stroke="black" points="187,-0.5 187,-30.5 333,-30.5 333,-0.5 187,-0.5"/>
<text text-anchor="start" x="195" y="-18.5" font-family="Helvetica,sans-Serif" font-size="10.00">U_CONTROLLER::GetService</text>
<text text-anchor="middle" x="260" y="-7.5" font-family="Helvetica,sans-Serif" font-size="10.00">State</text>
</a>
</g>
</g>
<!-- Node1&#45;&gt;Node3 -->
<g id="edge2" class="edge">
<title>Node1&#45;&gt;Node3</title>
<path fill="none" stroke="midnightblue" d="M151.26,-28.49C159.58,-27.48 168.1,-26.46 176.52,-25.44"/>
<polygon fill="midnightblue" stroke="midnightblue" points="177.21,-28.89 186.72,-24.21 176.37,-21.94 177.21,-28.89"/>
</g>
<!-- Node3&#45;&gt;Node2 -->
<g id="edge3" class="edge">
<title>Node3&#45;&gt;Node2</title>
<path fill="none" stroke="midnightblue" d="M333.14,-23.72C342.1,-24.75 351.37,-25.8 360.59,-26.85"/>
<polygon fill="midnightblue" stroke="midnightblue" points="360.24,-30.34 370.57,-27.99 361.03,-23.38 360.24,-30.34"/>
</g>
</g>
</svg>
