<?xml version="1.0" encoding="UTF-8" standalone="no"?>
<!DOCTYPE svg PUBLIC "-//W3C//DTD SVG 1.1//EN"
 "http://www.w3.org/Graphics/SVG/1.1/DTD/svg11.dtd">
<!-- Generated by graphviz version 5.0.0 (20220707.1540)
 -->
<!-- Title: U_CONTROLLER::IsServiceInstalled Pages: 1 -->
<svg width="343pt" height="66pt"
 viewBox="0.00 0.00 343.00 66.00" xmlns="http://www.w3.org/2000/svg" xmlns:xlink="http://www.w3.org/1999/xlink">
<g id="graph0" class="graph" transform="scale(1 1) rotate(0) translate(4 62)">
<title>U_CONTROLLER::IsServiceInstalled</title>
<!-- Node1 -->
<g id="node1" class="node">
<title>Node1</title>
<g id="a_node1"><a xlink:title="Check if the service is already installed.">
<polygon fill="#bfbfbf" stroke="black" points="161,-19.5 161,-38.5 335,-38.5 335,-19.5 161,-19.5"/>
<text text-anchor="middle" x="248" y="-26.5" font-family="Helvetica,sans-Serif" font-size="10.00">U_CONTROLLER::IsServiceInstalled</text>
</a>
</g>
</g>
<!-- Node2 -->
<g id="node2" class="node">
<title>Node2</title>
<g id="a_node2"><a xlink:href="../../d7/d00/_u___service_8cpp.html#ab5c4ad56c0967c7aa59e84c28c445bc6" target="_top" xlink:title="Wrap the installation of the service.">
<polygon fill="none" stroke="black" points="82.5,-38.5 82.5,-57.5 124.5,-57.5 124.5,-38.5 82.5,-38.5"/>
<text text-anchor="middle" x="103.5" y="-45.5" font-family="Helvetica,sans-Serif" font-size="10.00">Install</text>
</a>
</g>
</g>
<!-- Node1&#45;&gt;Node2 -->
<g id="edge1" class="edge">
<title>Node1&#45;&gt;Node2</title>
<path fill="none" stroke="midnightblue" d="M165.35,-39.89C150.26,-41.9 135.81,-43.83 124.77,-45.3"/>
<polygon fill="midnightblue" stroke="midnightblue" points="165.88,-43.35 175.33,-38.56 164.96,-36.41 165.88,-43.35"/>
</g>
<!-- Node4 -->
<g id="node4" class="node">
<title>Node4</title>
<g id="a_node4"><a xlink:href="../../d7/d00/_u___service_8cpp.html#aff39ead9760e0687df750416a070f137" target="_top" xlink:title="Wrap the query information about the service.">
<polygon fill="none" stroke="black" points="82,-0.5 82,-19.5 125,-19.5 125,-0.5 82,-0.5"/>
<text text-anchor="middle" x="103.5" y="-7.5" font-family="Helvetica,sans-Serif" font-size="10.00">Query</text>
</a>
</g>
</g>
<!-- Node1&#45;&gt;Node4 -->
<g id="edge3" class="edge">
<title>Node1&#45;&gt;Node4</title>
<path fill="none" stroke="midnightblue" d="M165,-18.07C150.17,-16.09 135.98,-14.2 125.07,-12.74"/>
<polygon fill="midnightblue" stroke="midnightblue" points="164.96,-21.59 175.33,-19.44 165.88,-14.65 164.96,-21.59"/>
</g>
<!-- Node3 -->
<g id="node3" class="node">
<title>Node3</title>
<g id="a_node3"><a xlink:href="../../d7/d00/_u___service_8cpp.html#a3e9716f0248a5a48598490cd4920cbee" target="_top" xlink:title="Entrypoint of the user space executable.">
<polygon fill="none" stroke="black" points="0,-19.5 0,-38.5 46,-38.5 46,-19.5 0,-19.5"/>
<text text-anchor="middle" x="23" y="-26.5" font-family="Helvetica,sans-Serif" font-size="10.00">_tmain</text>
</a>
</g>
</g>
<!-- Node2&#45;&gt;Node3 -->
<g id="edge2" class="edge">
<title>Node2&#45;&gt;Node3</title>
<path fill="none" stroke="midnightblue" d="M72.41,-40.72C63.65,-38.6 54.25,-36.32 46.08,-34.34"/>
<polygon fill="midnightblue" stroke="midnightblue" points="71.74,-44.16 82.28,-43.11 73.39,-37.35 71.74,-44.16"/>
</g>
<!-- Node4&#45;&gt;Node3 -->
<g id="edge4" class="edge">
<title>Node4&#45;&gt;Node3</title>
<path fill="none" stroke="midnightblue" d="M72.11,-17.36C63.45,-19.45 54.2,-21.69 46.14,-23.64"/>
<polygon fill="midnightblue" stroke="midnightblue" points="72.98,-20.75 81.88,-14.99 71.33,-13.94 72.98,-20.75"/>
</g>
</g>
</svg>
