<?xml version="1.0" encoding="UTF-8" standalone="no"?>
<!DOCTYPE svg PUBLIC "-//W3C//DTD SVG 1.1//EN"
 "http://www.w3.org/Graphics/SVG/1.1/DTD/svg11.dtd">
<!-- Generated by graphviz version 5.0.0 (20220707.1540)
 -->
<!-- Title: U_CONTROLLER::SvcReportStatus Pages: 1 -->
<svg width="634pt" height="47pt"
 viewBox="0.00 0.00 634.00 47.00" xmlns="http://www.w3.org/2000/svg" xmlns:xlink="http://www.w3.org/1999/xlink">
<g id="graph0" class="graph" transform="scale(1 1) rotate(0) translate(4 43)">
<title>U_CONTROLLER::SvcReportStatus</title>
<!-- Node1 -->
<g id="node1" class="node">
<title>Node1</title>
<g id="a_node1"><a xlink:title="Depending on the state of the service, it can receive order from the user space.">
<polygon fill="#bfbfbf" stroke="black" points="454,-0.5 454,-19.5 626,-19.5 626,-0.5 454,-0.5"/>
<text text-anchor="middle" x="540" y="-7.5" font-family="Helvetica,sans-Serif" font-size="10.00">U_CONTROLLER::SvcReportStatus</text>
</a>
</g>
</g>
<!-- Node2 -->
<g id="node2" class="node">
<title>Node2</title>
<g id="a_node2"><a xlink:href="../../d8/d03/class_u___c_o_n_t_r_o_l_l_e_r.html#a62de7b3a08b00dde2a3de3fa50ed52ea" target="_top" xlink:title="Receive signal send by the User / SC Manager, handle it, update service status.">
<polygon fill="none" stroke="black" points="255,-19.5 255,-38.5 418,-38.5 418,-19.5 255,-19.5"/>
<text text-anchor="middle" x="336.5" y="-26.5" font-family="Helvetica,sans-Serif" font-size="10.00">U_CONTROLLER::SvcCtrlHandler</text>
</a>
</g>
</g>
<!-- Node1&#45;&gt;Node2 -->
<g id="edge1" class="edge">
<title>Node1&#45;&gt;Node2</title>
<path fill="none" stroke="midnightblue" d="M443.81,-18.98C435.24,-19.78 426.62,-20.6 418.18,-21.39"/>
<polygon fill="midnightblue" stroke="midnightblue" points="444.21,-22.45 453.84,-18.03 443.55,-15.48 444.21,-22.45"/>
</g>
<!-- Node3 -->
<g id="node3" class="node">
<title>Node3</title>
<g id="a_node3"><a xlink:href="../../d7/d00/_u___service_8cpp.html#a2ef7fa664545ef1bfd08460f37d2140a" target="_top" xlink:title="Entrypoint and core of the user space service.">
<polygon fill="none" stroke="black" points="166,-0.5 166,-19.5 219,-19.5 219,-0.5 166,-0.5"/>
<text text-anchor="middle" x="192.5" y="-7.5" font-family="Helvetica,sans-Serif" font-size="10.00">SvcMain</text>
</a>
</g>
</g>
<!-- Node1&#45;&gt;Node3 -->
<g id="edge5" class="edge">
<title>Node1&#45;&gt;Node3</title>
<path fill="none" stroke="midnightblue" d="M443.51,-10C367.46,-10 266.26,-10 219.37,-10"/>
<polygon fill="midnightblue" stroke="midnightblue" points="443.6,-13.5 453.6,-10 443.6,-6.5 443.6,-13.5"/>
</g>
<!-- Node2&#45;&gt;Node3 -->
<g id="edge2" class="edge">
<title>Node2&#45;&gt;Node3</title>
<path fill="none" stroke="midnightblue" d="M253.89,-18.08C241.27,-16.39 229.1,-14.76 219.04,-13.42"/>
<polygon fill="midnightblue" stroke="midnightblue" points="253.71,-21.59 264.08,-19.44 254.64,-14.65 253.71,-21.59"/>
</g>
<!-- Node4 -->
<g id="node4" class="node">
<title>Node4</title>
<g id="a_node4"><a xlink:href="../../d7/d00/_u___service_8cpp.html#afa2e3daf278842db7a49d41ebebc8519" target="_top" xlink:title="Wrap the call to the service entrypoint.">
<polygon fill="none" stroke="black" points="82,-0.5 82,-19.5 130,-19.5 130,-0.5 82,-0.5"/>
<text text-anchor="middle" x="106" y="-7.5" font-family="Helvetica,sans-Serif" font-size="10.00">Service</text>
</a>
</g>
</g>
<!-- Node3&#45;&gt;Node4 -->
<g id="edge3" class="edge">
<title>Node3&#45;&gt;Node4</title>
<path fill="none" stroke="midnightblue" d="M155.47,-10C146.86,-10 137.91,-10 130.07,-10"/>
<polygon fill="midnightblue" stroke="midnightblue" points="155.69,-13.5 165.69,-10 155.69,-6.5 155.69,-13.5"/>
</g>
<!-- Node5 -->
<g id="node5" class="node">
<title>Node5</title>
<g id="a_node5"><a xlink:href="../../d7/d00/_u___service_8cpp.html#a3e9716f0248a5a48598490cd4920cbee" target="_top" xlink:title="Entrypoint of the user space executable.">
<polygon fill="none" stroke="black" points="0,-0.5 0,-19.5 46,-19.5 46,-0.5 0,-0.5"/>
<text text-anchor="middle" x="23" y="-7.5" font-family="Helvetica,sans-Serif" font-size="10.00">_tmain</text>
</a>
</g>
</g>
<!-- Node4&#45;&gt;Node5 -->
<g id="edge4" class="edge">
<title>Node4&#45;&gt;Node5</title>
<path fill="none" stroke="midnightblue" d="M71.51,-10C63,-10 54.06,-10 46.26,-10"/>
<polygon fill="midnightblue" stroke="midnightblue" points="71.57,-13.5 81.57,-10 71.57,-6.5 71.57,-13.5"/>
</g>
</g>
</svg>
