<?xml version="1.0" encoding="UTF-8" standalone="no"?>
<!DOCTYPE svg PUBLIC "-//W3C//DTD SVG 1.1//EN"
 "http://www.w3.org/Graphics/SVG/1.1/DTD/svg11.dtd">
<!-- Generated by graphviz version 5.0.0 (20220707.1540)
 -->
<!-- Title: K_COMMUNICATION Pages: 1 -->
<svg width="147pt" height="215pt"
 viewBox="0.00 0.00 147.00 215.00" xmlns="http://www.w3.org/2000/svg" xmlns:xlink="http://www.w3.org/1999/xlink">
<g id="graph0" class="graph" transform="scale(1 1) rotate(0) translate(4 211)">
<title>K_COMMUNICATION</title>
<!-- Node1 -->
<g id="node1" class="node">
<title>Node1</title>
<g id="a_node1"><a xlink:title=" ">
<polygon fill="#bfbfbf" stroke="black" points="0,-0.5 0,-101.5 139,-101.5 139,-0.5 0,-0.5"/>
<text text-anchor="middle" x="69.5" y="-89.5" font-family="Helvetica,sans-Serif" font-size="10.00">K_COMMUNICATION</text>
<polyline fill="none" stroke="black" points="0,-82.5 139,-82.5 "/>
<text text-anchor="middle" x="69.5" y="-70.5" font-family="Helvetica,sans-Serif" font-size="10.00"> </text>
<polyline fill="none" stroke="black" points="0,-63.5 139,-63.5 "/>
<text text-anchor="start" x="8" y="-51.5" font-family="Helvetica,sans-Serif" font-size="10.00">+ Unload()</text>
<text text-anchor="start" x="8" y="-40.5" font-family="Helvetica,sans-Serif" font-size="10.00">+ Initialize()</text>
<text text-anchor="start" x="8" y="-29.5" font-family="Helvetica,sans-Serif" font-size="10.00">+ Send()</text>
<text text-anchor="start" x="8" y="-18.5" font-family="Helvetica,sans-Serif" font-size="10.00">&#45; _NewConnectionCallback()</text>
<text text-anchor="start" x="8" y="-7.5" font-family="Helvetica,sans-Serif" font-size="10.00">&#45; _DisconnectionCallback()</text>
</a>
</g>
</g>
<!-- Node2 -->
<g id="node2" class="node">
<title>Node2</title>
<g id="a_node2"><a xlink:title=" ">
<polygon fill="none" stroke="black" points="34,-149.5 34,-206.5 105,-206.5 105,-149.5 34,-149.5"/>
<text text-anchor="middle" x="69.5" y="-194.5" font-family="Helvetica,sans-Serif" font-size="10.00">PFLT_PORT</text>
<polyline fill="none" stroke="black" points="34,-187.5 105,-187.5 "/>
<text text-anchor="middle" x="69.5" y="-175.5" font-family="Helvetica,sans-Serif" font-size="10.00"> </text>
<polyline fill="none" stroke="black" points="34,-168.5 105,-168.5 "/>
<text text-anchor="middle" x="69.5" y="-156.5" font-family="Helvetica,sans-Serif" font-size="10.00"> </text>
</a>
</g>
</g>
<!-- Node2&#45;&gt;Node1 -->
<g id="edge1" class="edge">
<title>Node2&#45;&gt;Node1</title>
<path fill="none" stroke="#404040" d="M69.5,-149.26C69.5,-138.79 69.5,-126.42 69.5,-114.07"/>
<polygon fill="none" stroke="#404040" points="69.5,-113.8 65.5,-107.8 69.5,-101.8 73.5,-107.8 69.5,-113.8"/>
<text text-anchor="middle" x="100.5" y="-123" font-family="Helvetica,sans-Serif" font-size="10.00"> &#45;_pServerPort</text>
</g>
</g>
</svg>
