<?xml version="1.0" encoding="UTF-8" standalone="no"?>
<!DOCTYPE svg PUBLIC "-//W3C//DTD SVG 1.1//EN"
 "http://www.w3.org/Graphics/SVG/1.1/DTD/svg11.dtd">
<!-- Generated by graphviz version 5.0.0 (20220707.1540)
 -->
<!-- Title: K_OB::_PreObCallback Pages: 1 -->
<!--zoomable 318 -->
<svg id="main" version="1.1" xmlns="http://www.w3.org/2000/svg" xmlns:xlink="http://www.w3.org/1999/xlink" xml:space="preserve" onload="init(evt)">
<style type="text/css"><![CDATA[
.edge:hover path { stroke: red; }
.edge:hover polygon { stroke: red; fill: red; }
]]></style>
<script type="text/javascript"><![CDATA[
var edges = document.getElementsByTagName('g');
if (edges && edges.length) {
  for (var i=0;i<edges.length;i++) {
    if (edges[i].id.substr(0,4)=='edge') {
      edges[i].setAttribute('class','edge');
    }
  }
}
]]></script>
        <defs>
                <circle id="rim" cx="0" cy="0" r="7"/>
                <circle id="rim2" cx="0" cy="0" r="3.5"/>
                <g id="zoomPlus">
                        <use xlink:href="#rim" fill="#404040">
                                <set attributeName="fill" to="#808080" begin="zoomplus.mouseover" end="zoomplus.mouseout"/>
                        </use>
                        <path d="M-4,0h8M0,-4v8" fill="none" stroke="white" stroke-width="1.5" pointer-events="none"/>
                </g>
                <g id="zoomMin">
                        <use xlink:href="#rim" fill="#404040">
                                <set attributeName="fill" to="#808080" begin="zoomminus.mouseover" end="zoomminus.mouseout"/>
                        </use>
                        <path d="M-4,0h8" fill="none" stroke="white" stroke-width="1.5" pointer-events="none"/>
                </g>
                <g id="dirArrow">
                        <path fill="none" stroke="white" stroke-width="1.5" d="M0,-3.0v7 M-2.5,-0.5L0,-3.0L2.5,-0.5"/>
                </g>
               <g id="resetDef">
                       <use xlink:href="#rim2" fill="#404040">
                               <set attributeName="fill" to="#808080" begin="reset.mouseover" end="reset.mouseout"/>
                       </use>
               </g>
        </defs>

<script type="text/javascript">
var viewWidth = 715;
var viewHeight = 318;
var sectionId = 'dynsection-2';
</script>
<script xlink:href="../../svgpan.js"/>
<svg id="graph" class="graph">
<g id="viewport">
<title>K_OB::_PreObCallback</title>
<!-- Node1 -->
<g id="node1" class="node">
<title>Node1</title>
<g id="a_node1"><a xlink:title="We get notify when a process want a handle.">
<polygon fill="#bfbfbf" stroke="black" points="0,-142.5 0,-161.5 119,-161.5 119,-142.5 0,-142.5"/>
<text text-anchor="middle" x="59.5" y="-149.5" font-family="Helvetica,sans-Serif" font-size="10.00">K_OB::_PreObCallback</text>
</a>
</g>
</g>
<!-- Node2 -->
<g id="node2" class="node">
<title>Node2</title>
<g id="a_node2"><a xlink:href="../../d6/d02/class_k___o_b.html#adbc9032c14f29ca14460dde65ee71b0d" target="_top" xlink:title="@brieF Checks if :">
<polygon fill="none" stroke="black" points="196,-290.5 196,-309.5 283,-309.5 283,-290.5 196,-290.5"/>
<text text-anchor="middle" x="239.5" y="-297.5" font-family="Helvetica,sans-Serif" font-size="10.00">K_OB::_Checks</text>
</a>
</g>
</g>
<!-- Node1&#45;&gt;Node2 -->
<g id="edge1" class="edge">
<title>Node1&#45;&gt;Node2</title>
<path fill="none" stroke="midnightblue" d="M64.59,-161.6C75.45,-185.83 107.43,-249.76 155,-281 164.23,-287.06 175.13,-291.2 185.96,-294.03"/>
<polygon fill="midnightblue" stroke="midnightblue" points="185.3,-297.47 195.83,-296.28 186.85,-290.65 185.3,-297.47"/>
</g>
<!-- Node3 -->
<g id="node3" class="node">
<title>Node3</title>
<g id="a_node3"><a xlink:href="../../d5/d03/class_k___c_o_n_f_i_g_u_r_a_t_i_o_n.html#a499a9ef09e19ef4cc0827bff8ff04130" target="_top" xlink:title=" ">
<polygon fill="none" stroke="black" points="155,-252.5 155,-271.5 324,-271.5 324,-252.5 155,-252.5"/>
<text text-anchor="middle" x="239.5" y="-259.5" font-family="Helvetica,sans-Serif" font-size="10.00">K_CONFIGURATION::AddToCache</text>
</a>
</g>
</g>
<!-- Node1&#45;&gt;Node3 -->
<g id="edge2" class="edge">
<title>Node1&#45;&gt;Node3</title>
<path fill="none" stroke="midnightblue" d="M67.6,-161.73C81.9,-180.57 116.12,-222.01 155,-243 159.27,-245.31 163.81,-247.33 168.48,-249.12"/>
<polygon fill="midnightblue" stroke="midnightblue" points="167.62,-252.52 178.21,-252.44 169.88,-245.89 167.62,-252.52"/>
</g>
<!-- Node6 -->
<g id="node6" class="node">
<title>Node6</title>
<g id="a_node6"><a xlink:href="../../d3/d03/class_k___h_e_l_p_e_r.html#af0e495aace15b35cba75c083a8d795ce" target="_top" xlink:title=" ">
<polygon fill="none" stroke="black" points="166.5,-203 166.5,-233 312.5,-233 312.5,-203 166.5,-203"/>
<text text-anchor="start" x="174.5" y="-221" font-family="Helvetica,sans-Serif" font-size="10.00">K_HELPER::ConvertNtPathTo</text>
<text text-anchor="middle" x="239.5" y="-210" font-family="Helvetica,sans-Serif" font-size="10.00">DosPath</text>
</a>
</g>
</g>
<!-- Node1&#45;&gt;Node6 -->
<g id="edge5" class="edge">
<title>Node1&#45;&gt;Node6</title>
<path fill="none" stroke="midnightblue" d="M80.5,-161.5C99.44,-170.3 128.79,-183.43 155,-193 161.4,-195.34 168.13,-197.62 174.88,-199.81"/>
<polygon fill="midnightblue" stroke="midnightblue" points="174.15,-203.25 184.74,-202.93 176.26,-196.57 174.15,-203.25"/>
</g>
<!-- Node7 -->
<g id="node7" class="node">
<title>Node7</title>
<g id="a_node7"><a xlink:href="../../d3/d03/class_k___h_e_l_p_e_r.html#a68247f779a7948cc3413076957829623" target="_top" xlink:title=" ">
<polygon fill="none" stroke="black" points="175.5,-164.5 175.5,-183.5 303.5,-183.5 303.5,-164.5 175.5,-164.5"/>
<text text-anchor="middle" x="239.5" y="-171.5" font-family="Helvetica,sans-Serif" font-size="10.00">K_HELPER::GetFileHash</text>
</a>
</g>
</g>
<!-- Node1&#45;&gt;Node7 -->
<g id="edge6" class="edge">
<title>Node1&#45;&gt;Node7</title>
<path fill="none" stroke="midnightblue" d="M119.28,-159.26C134.06,-161.09 150.11,-163.08 165.5,-164.98"/>
<polygon fill="midnightblue" stroke="midnightblue" points="165.15,-168.46 175.5,-166.21 166,-161.51 165.15,-168.46"/>
</g>
<!-- Node8 -->
<g id="node8" class="node">
<title>Node8</title>
<g id="a_node8"><a xlink:href="../../d3/d03/class_k___h_e_l_p_e_r.html#a4b0d108fc4b9b7d6780126dd07895730" target="_top" xlink:title=" ">
<polygon fill="none" stroke="black" points="161,-115 161,-145 318,-145 318,-115 161,-115"/>
<text text-anchor="start" x="169" y="-133" font-family="Helvetica,sans-Serif" font-size="10.00">K_HELPER::GetFullImageName</text>
<text text-anchor="middle" x="239.5" y="-122" font-family="Helvetica,sans-Serif" font-size="10.00">ByHandle</text>
</a>
</g>
</g>
<!-- Node1&#45;&gt;Node8 -->
<g id="edge7" class="edge">
<title>Node1&#45;&gt;Node8</title>
<path fill="none" stroke="midnightblue" d="M119.28,-144.74C129.33,-143.49 139.97,-142.18 150.58,-140.87"/>
<polygon fill="midnightblue" stroke="midnightblue" points="151.24,-144.31 160.74,-139.61 150.38,-137.36 151.24,-144.31"/>
</g>
<!-- Node9 -->
<g id="node9" class="node">
<title>Node9</title>
<g id="a_node9"><a xlink:href="../../d5/d03/class_k___c_o_n_f_i_g_u_r_a_t_i_o_n.html#afb0e428195d7ac67b5685dfb73166d94" target="_top" xlink:title=" ">
<polygon fill="none" stroke="black" points="161.5,-76.5 161.5,-95.5 317.5,-95.5 317.5,-76.5 161.5,-76.5"/>
<text text-anchor="middle" x="239.5" y="-83.5" font-family="Helvetica,sans-Serif" font-size="10.00">K_CONFIGURATION::IsInCache</text>
</a>
</g>
</g>
<!-- Node1&#45;&gt;Node9 -->
<g id="edge8" class="edge">
<title>Node1&#45;&gt;Node9</title>
<path fill="none" stroke="midnightblue" d="M77.43,-142.36C95.97,-132.13 126.83,-116.09 155,-106 163.26,-103.04 172.13,-100.39 180.9,-98.05"/>
<polygon fill="midnightblue" stroke="midnightblue" points="181.9,-101.41 190.72,-95.55 180.17,-94.63 181.9,-101.41"/>
</g>
<!-- Node11 -->
<g id="node11" class="node">
<title>Node11</title>
<g id="a_node11"><a xlink:href="../../d5/d03/class_k___c_o_n_f_i_g_u_r_a_t_i_o_n.html#aa0eade5fe406c90f04b739bf85e098f5" target="_top" xlink:title=" ">
<polygon fill="none" stroke="black" points="156,-38.5 156,-57.5 323,-57.5 323,-38.5 156,-38.5"/>
<text text-anchor="middle" x="239.5" y="-45.5" font-family="Helvetica,sans-Serif" font-size="10.00">K_CONFIGURATION::IsInWhitelist</text>
</a>
</g>
</g>
<!-- Node1&#45;&gt;Node11 -->
<g id="edge11" class="edge">
<title>Node1&#45;&gt;Node11</title>
<path fill="none" stroke="midnightblue" d="M68.21,-142.37C83.04,-124.56 117.38,-86.49 155,-67 159.58,-64.62 164.46,-62.54 169.47,-60.72"/>
<polygon fill="midnightblue" stroke="midnightblue" points="170.8,-63.97 179.21,-57.53 168.62,-57.32 170.8,-63.97"/>
</g>
<!-- Node14 -->
<g id="node14" class="node">
<title>Node14</title>
<g id="a_node14"><a xlink:href="../../d5/d00/class_k___c_o_m_m_u_n_i_c_a_t_i_o_n.html#a896b333aee4306520563c138c09f7b4e" target="_top" xlink:title="This function is used to send Data to the User&#45;Mode service.">
<polygon fill="none" stroke="black" points="170,-0.5 170,-19.5 309,-19.5 309,-0.5 170,-0.5"/>
<text text-anchor="middle" x="239.5" y="-7.5" font-family="Helvetica,sans-Serif" font-size="10.00">K_COMMUNICATION::Send</text>
</a>
</g>
</g>
<!-- Node1&#45;&gt;Node14 -->
<g id="edge14" class="edge">
<title>Node1&#45;&gt;Node14</title>
<path fill="none" stroke="midnightblue" d="M65.06,-142.16C76.52,-118.55 108.97,-58.49 155,-29 158.19,-26.96 161.58,-25.13 165.08,-23.5"/>
<polygon fill="midnightblue" stroke="midnightblue" points="166.66,-26.63 174.61,-19.62 164.02,-20.15 166.66,-26.63"/>
</g>
<!-- Node4 -->
<g id="node4" class="node">
<title>Node4</title>
<g id="a_node4"><a xlink:href="../../d7/d01/class_k___c_a_c_h_e.html#a785a988fa6c22e5a7626afe75bd447e3" target="_top" xlink:title="Add a Hash in the Cache and remember if it is signed or not.">
<polygon fill="none" stroke="black" points="388,-184.5 388,-203.5 474,-203.5 474,-184.5 388,-184.5"/>
<text text-anchor="middle" x="431" y="-191.5" font-family="Helvetica,sans-Serif" font-size="10.00">K_CACHE::Add</text>
</a>
</g>
</g>
<!-- Node3&#45;&gt;Node4 -->
<g id="edge3" class="edge">
<title>Node3&#45;&gt;Node4</title>
<path fill="none" stroke="midnightblue" d="M290.43,-252.43C301.6,-249.8 313.3,-246.64 324,-243 351.79,-233.53 382.06,-219.09 403.11,-208.34"/>
<polygon fill="midnightblue" stroke="midnightblue" points="404.82,-211.4 412.09,-203.69 401.6,-205.18 404.82,-211.4"/>
</g>
<!-- Node5 -->
<g id="node5" class="node">
<title>Node5</title>
<g id="a_node5"><a xlink:href="../../d7/d01/class_k___c_a_c_h_e.html#a2a803e7f4af2e18b582ccc4f2b9f747a" target="_top" xlink:title="Set &quot;pbIsOk&quot; to TRUE if cache contains specified Hash, FALSE otherwise.">
<polygon fill="none" stroke="black" points="549,-133.5 549,-152.5 696,-152.5 696,-133.5 549,-133.5"/>
<text text-anchor="middle" x="622.5" y="-140.5" font-family="Helvetica,sans-Serif" font-size="10.00">K_CACHE::_GetCachedValue</text>
</a>
</g>
</g>
<!-- Node4&#45;&gt;Node5 -->
<g id="edge4" class="edge">
<title>Node4&#45;&gt;Node5</title>
<path fill="none" stroke="midnightblue" d="M467.64,-184.41C498.35,-176.14 542.84,-164.17 576.09,-155.22"/>
<polygon fill="midnightblue" stroke="midnightblue" points="577.27,-158.53 586.02,-152.55 575.45,-151.77 577.27,-158.53"/>
</g>
<!-- Node10 -->
<g id="node10" class="node">
<title>Node10</title>
<g id="a_node10"><a xlink:href="../../d7/d01/class_k___c_a_c_h_e.html#a98344c274506318cf85edd7debb5de80" target="_top" xlink:title="Set bIsOk to TRUE if cache contains specified Hash, FALSE otherwise.">
<polygon fill="none" stroke="black" points="360,-79.5 360,-98.5 502,-98.5 502,-79.5 360,-79.5"/>
<text text-anchor="middle" x="431" y="-86.5" font-family="Helvetica,sans-Serif" font-size="10.00">K_CACHE::GetCachedValue</text>
</a>
</g>
</g>
<!-- Node9&#45;&gt;Node10 -->
<g id="edge9" class="edge">
<title>Node9&#45;&gt;Node10</title>
<path fill="none" stroke="midnightblue" d="M317.58,-87.22C328.14,-87.39 339,-87.56 349.62,-87.73"/>
<polygon fill="midnightblue" stroke="midnightblue" points="349.65,-91.23 359.71,-87.89 349.76,-84.23 349.65,-91.23"/>
</g>
<!-- Node10&#45;&gt;Node5 -->
<g id="edge10" class="edge">
<title>Node10&#45;&gt;Node5</title>
<path fill="none" stroke="midnightblue" d="M465.44,-98.53C496.87,-107.49 544.07,-120.94 578.33,-130.7"/>
<polygon fill="midnightblue" stroke="midnightblue" points="577.5,-134.1 588.07,-133.47 579.42,-127.37 577.5,-134.1"/>
</g>
<!-- Node12 -->
<g id="node12" class="node">
<title>Node12</title>
<g id="a_node12"><a xlink:href="../../de/d03/class_k___w_h_i_t_e_l_i_s_t.html#a0002133cb46ec30f7f0044eecc5c58a9" target="_top" xlink:title="Check if whitelist contains provided string.">
<polygon fill="none" stroke="black" points="362,-38.5 362,-57.5 500,-57.5 500,-38.5 362,-38.5"/>
<text text-anchor="middle" x="431" y="-45.5" font-family="Helvetica,sans-Serif" font-size="10.00">K_WHITELIST::IsInWhitelist</text>
</a>
</g>
</g>
<!-- Node11&#45;&gt;Node12 -->
<g id="edge12" class="edge">
<title>Node11&#45;&gt;Node12</title>
<path fill="none" stroke="midnightblue" d="M323.07,-48C332.59,-48 342.28,-48 351.74,-48"/>
<polygon fill="midnightblue" stroke="midnightblue" points="351.9,-51.5 361.9,-48 351.9,-44.5 351.9,-51.5"/>
</g>
<!-- Node13 -->
<g id="node13" class="node">
<title>Node13</title>
<g id="a_node13"><a xlink:href="../../d3/d03/class_k___h_e_l_p_e_r.html#ad3301a9648f8b5a88f758ec4cd3b531e" target="_top" xlink:title=" ">
<polygon fill="none" stroke="black" points="538,-33 538,-63 707,-63 707,-33 538,-33"/>
<text text-anchor="start" x="546" y="-51" font-family="Helvetica,sans-Serif" font-size="10.00">K_HELPER::MyNtPathCchRemove</text>
<text text-anchor="middle" x="622.5" y="-40" font-family="Helvetica,sans-Serif" font-size="10.00">FileSpec</text>
</a>
</g>
</g>
<!-- Node12&#45;&gt;Node13 -->
<g id="edge13" class="edge">
<title>Node12&#45;&gt;Node13</title>
<path fill="none" stroke="midnightblue" d="M500.15,-48C509.11,-48 518.41,-48 527.71,-48"/>
<polygon fill="midnightblue" stroke="midnightblue" points="527.77,-51.5 537.77,-48 527.77,-44.5 527.77,-51.5"/>
</g>
</g>
</svg>
        <g id="navigator" transform="translate(0 0)" fill="#404254">
                <rect fill="#f2f5e9" fill-opacity="0.5" stroke="#606060" stroke-width=".5" x="0" y="0" width="60" height="60"/>
                <use id="zoomplus" xlink:href="#zoomPlus" x="17" y="9" onmousedown="handleZoom(evt,'in')"/>
                <use id="zoomminus" xlink:href="#zoomMin" x="42" y="9" onmousedown="handleZoom(evt,'out')"/>
                <use id="reset" xlink:href="#resetDef" x="30" y="36" onmousedown="handleReset()"/>
                <g id="arrowUp" xlink:href="#dirArrow" transform="translate(30 24)" onmousedown="handlePan(0,-1)">
                  <use xlink:href="#rim" fill="#404040">
                        <set attributeName="fill" to="#808080" begin="arrowUp.mouseover" end="arrowUp.mouseout"/>
                  </use>
                  <path fill="none" stroke="white" stroke-width="1.5" d="M0,-3.0v7 M-2.5,-0.5L0,-3.0L2.5,-0.5"/>
                </g>
                <g id="arrowRight" xlink:href="#dirArrow" transform="rotate(90) translate(36 -43)" onmousedown="handlePan(1,0)">
                  <use xlink:href="#rim" fill="#404040">
                        <set attributeName="fill" to="#808080" begin="arrowRight.mouseover" end="arrowRight.mouseout"/>
                  </use>
                  <path fill="none" stroke="white" stroke-width="1.5" d="M0,-3.0v7 M-2.5,-0.5L0,-3.0L2.5,-0.5"/>
                </g>
                <g id="arrowDown" xlink:href="#dirArrow" transform="rotate(180) translate(-30 -48)" onmousedown="handlePan(0,1)">
                  <use xlink:href="#rim" fill="#404040">
                        <set attributeName="fill" to="#808080" begin="arrowDown.mouseover" end="arrowDown.mouseout"/>
                  </use>
                  <path fill="none" stroke="white" stroke-width="1.5" d="M0,-3.0v7 M-2.5,-0.5L0,-3.0L2.5,-0.5"/>
                </g>
                <g id="arrowLeft" xlink:href="#dirArrow" transform="rotate(270) translate(-36 17)" onmousedown="handlePan(-1,0)">
                  <use xlink:href="#rim" fill="#404040">
                        <set attributeName="fill" to="#808080" begin="arrowLeft.mouseover" end="arrowLeft.mouseout"/>
                  </use>
                  <path fill="none" stroke="white" stroke-width="1.5" d="M0,-3.0v7 M-2.5,-0.5L0,-3.0L2.5,-0.5"/>
                </g>
        </g>
        <svg viewBox="0 0 15 15" width="100%" height="30px" preserveAspectRatio="xMaxYMin meet">
         <g id="arrow_out" transform="scale(0.3 0.3)">
          <a xlink:href="class_k___o_b_a6b236f7c3b792f31133c3428966a2921_cgraph_org.svg" target="_base">
           <rect id="button" ry="5" rx="5" y="6" x="6" height="38" width="38"
                fill="#f2f5e9" fill-opacity="0.5" stroke="#606060" stroke-width="1.0"/>
           <path id="arrow"
             d="M 11.500037,31.436501 C 11.940474,20.09759 22.043105,11.32322 32.158766,21.979434 L 37.068811,17.246167 C 37.068811,17.246167 37.088388,32 37.088388,32 L 22.160133,31.978069 C 22.160133,31.978069 26.997745,27.140456 26.997745,27.140456 C 18.528582,18.264221 13.291696,25.230495 11.500037,31.436501 z"
             style="fill:#404040;"/>
          </a>
         </g>
        </svg>
</svg>
