<?xml version="1.0" encoding="UTF-8" standalone="no"?>
<!DOCTYPE svg PUBLIC "-//W3C//DTD SVG 1.1//EN"
 "http://www.w3.org/Graphics/SVG/1.1/DTD/svg11.dtd">
<!-- Generated by graphviz version 5.0.0 (20220707.1540)
 -->
<!-- Title: U_COMMUNICATION::_REPLY_MESSAGE Pages: 1 -->
<svg width="253pt" height="287pt"
 viewBox="0.00 0.00 253.00 287.00" xmlns="http://www.w3.org/2000/svg" xmlns:xlink="http://www.w3.org/1999/xlink">
<g id="graph0" class="graph" transform="scale(1 1) rotate(0) translate(4 283)">
<title>U_COMMUNICATION::_REPLY_MESSAGE</title>
<!-- Node1 -->
<g id="node1" class="node">
<title>Node1</title>
<g id="a_node1"><a xlink:title=" ">
<polygon fill="#bfbfbf" stroke="black" points="33,-0.5 33,-68.5 187,-68.5 187,-0.5 33,-0.5"/>
<text text-anchor="start" x="41" y="-56.5" font-family="Helvetica,sans-Serif" font-size="10.00">U_COMMUNICATION::_REPLY</text>
<text text-anchor="middle" x="110" y="-45.5" font-family="Helvetica,sans-Serif" font-size="10.00">_MESSAGE</text>
<polyline fill="none" stroke="black" points="33,-38.5 187,-38.5 "/>
<text text-anchor="middle" x="110" y="-26.5" font-family="Helvetica,sans-Serif" font-size="10.00"> </text>
<polyline fill="none" stroke="black" points="33,-19.5 187,-19.5 "/>
<text text-anchor="middle" x="110" y="-7.5" font-family="Helvetica,sans-Serif" font-size="10.00"> </text>
</a>
</g>
</g>
<!-- Node2 -->
<g id="node2" class="node">
<title>Node2</title>
<g id="a_node2"><a xlink:title=" ">
<polygon fill="none" stroke="black" points="0,-116.5 0,-173.5 132,-173.5 132,-116.5 0,-116.5"/>
<text text-anchor="middle" x="66" y="-161.5" font-family="Helvetica,sans-Serif" font-size="10.00">FILTER_REPLY_HEADER</text>
<polyline fill="none" stroke="black" points="0,-154.5 132,-154.5 "/>
<text text-anchor="middle" x="66" y="-142.5" font-family="Helvetica,sans-Serif" font-size="10.00"> </text>
<polyline fill="none" stroke="black" points="0,-135.5 132,-135.5 "/>
<text text-anchor="middle" x="66" y="-123.5" font-family="Helvetica,sans-Serif" font-size="10.00"> </text>
</a>
</g>
</g>
<!-- Node2&#45;&gt;Node1 -->
<g id="edge1" class="edge">
<title>Node2&#45;&gt;Node1</title>
<path fill="none" stroke="#404040" d="M75.12,-116.25C78.36,-106.89 82.16,-96.42 86,-87 87,-84.55 88.05,-82.05 89.13,-79.53"/>
<polygon fill="none" stroke="#404040" points="89.15,-79.5 87.93,-72.39 94.02,-68.53 95.24,-75.64 89.15,-79.5"/>
<text text-anchor="middle" x="118.5" y="-90" font-family="Helvetica,sans-Serif" font-size="10.00"> +ReplyHeader</text>
</g>
<!-- Node3 -->
<g id="node3" class="node">
<title>Node3</title>
<g id="a_node3"><a xlink:href="../../d8/d03/struct___d_a_t_a___r_e_p_l_y.html" target="_top" xlink:title=" ">
<polygon fill="none" stroke="black" points="150.5,-116.5 150.5,-173.5 235.5,-173.5 235.5,-116.5 150.5,-116.5"/>
<text text-anchor="middle" x="193" y="-161.5" font-family="Helvetica,sans-Serif" font-size="10.00">_DATA_REPLY</text>
<polyline fill="none" stroke="black" points="150.5,-154.5 235.5,-154.5 "/>
<text text-anchor="middle" x="193" y="-142.5" font-family="Helvetica,sans-Serif" font-size="10.00"> </text>
<polyline fill="none" stroke="black" points="150.5,-135.5 235.5,-135.5 "/>
<text text-anchor="middle" x="193" y="-123.5" font-family="Helvetica,sans-Serif" font-size="10.00"> </text>
</a>
</g>
</g>
<!-- Node3&#45;&gt;Node1 -->
<g id="edge2" class="edge">
<title>Node3&#45;&gt;Node1</title>
<path fill="none" stroke="#404040" d="M172.91,-116.3C166.04,-106.94 158.25,-96.47 151,-87 148.78,-84.1 146.47,-81.12 144.14,-78.13"/>
<polygon fill="none" stroke="#404040" points="144.06,-78.04 137.21,-75.79 136.65,-68.6 143.5,-70.85 144.06,-78.04"/>
<text text-anchor="middle" x="186.5" y="-90" font-family="Helvetica,sans-Serif" font-size="10.00"> +DataReply</text>
</g>
<!-- Node4 -->
<g id="node4" class="node">
<title>Node4</title>
<g id="a_node4"><a xlink:title=" ">
<polygon fill="none" stroke="black" points="161,-221.5 161,-278.5 225,-278.5 225,-221.5 161,-221.5"/>
<text text-anchor="middle" x="193" y="-266.5" font-family="Helvetica,sans-Serif" font-size="10.00">BOOLEAN</text>
<polyline fill="none" stroke="black" points="161,-259.5 225,-259.5 "/>
<text text-anchor="middle" x="193" y="-247.5" font-family="Helvetica,sans-Serif" font-size="10.00"> </text>
<polyline fill="none" stroke="black" points="161,-240.5 225,-240.5 "/>
<text text-anchor="middle" x="193" y="-228.5" font-family="Helvetica,sans-Serif" font-size="10.00"> </text>
</a>
</g>
</g>
<!-- Node4&#45;&gt;Node3 -->
<g id="edge3" class="edge">
<title>Node4&#45;&gt;Node3</title>
<path fill="none" stroke="#404040" d="M193,-221.4C193,-210.55 193,-197.87 193,-186.05"/>
<polygon fill="none" stroke="#404040" points="193,-185.68 189,-179.68 193,-173.68 197,-179.68 193,-185.68"/>
<text text-anchor="middle" x="219" y="-195" font-family="Helvetica,sans-Serif" font-size="10.00"> +bIsSigned</text>
</g>
</g>
</svg>
