<?xml version="1.0" encoding="UTF-8" standalone="no"?>
<!DOCTYPE svg PUBLIC "-//W3C//DTD SVG 1.1//EN"
 "http://www.w3.org/Graphics/SVG/1.1/DTD/svg11.dtd">
<!-- Generated by graphviz version 5.0.0 (20220707.1540)
 -->
<!-- Title: U_CONFIGURATION::PrintConfiguration Pages: 1 -->
<svg width="632pt" height="297pt"
 viewBox="0.00 0.00 632.00 296.50" xmlns="http://www.w3.org/2000/svg" xmlns:xlink="http://www.w3.org/1999/xlink">
<g id="graph0" class="graph" transform="scale(1 1) rotate(0) translate(4 292.5)">
<title>U_CONFIGURATION::PrintConfiguration</title>
<!-- Node1 -->
<g id="node1" class="node">
<title>Node1</title>
<g id="a_node1"><a xlink:title="Print and populate service structure with the configuration read from registry keys.">
<polygon fill="#bfbfbf" stroke="black" points="0,-143 0,-162 190,-162 190,-143 0,-143"/>
<text text-anchor="middle" x="95" y="-150" font-family="Helvetica,sans-Serif" font-size="10.00">U_CONFIGURATION::PrintConfiguration</text>
</a>
</g>
</g>
<!-- Node2 -->
<g id="node2" class="node">
<title>Node2</title>
<g id="a_node2"><a xlink:href="../../d6/d00/class_u___c_o_n_f_i_g_u_r_a_t_i_o_n.html#a5d693465439549ecef553ae863f04cb5" target="_top" xlink:title="Get the number of items to be kept in the cache by the filter.">
<polygon fill="none" stroke="black" points="245.5,-269 245.5,-288 421.5,-288 421.5,-269 245.5,-269"/>
<text text-anchor="middle" x="333.5" y="-276" font-family="Helvetica,sans-Serif" font-size="10.00">U_CONFIGURATION::GetCacheSize</text>
</a>
</g>
</g>
<!-- Node1&#45;&gt;Node2 -->
<g id="edge1" class="edge">
<title>Node1&#45;&gt;Node2</title>
<path fill="none" stroke="midnightblue" d="M104.32,-162.1C123.43,-183.47 172.92,-234.99 226,-259.5 231.41,-262 237.11,-264.17 242.95,-266.05"/>
<polygon fill="midnightblue" stroke="midnightblue" points="242.3,-269.51 252.88,-268.96 244.27,-262.79 242.3,-269.51"/>
</g>
<!-- Node4 -->
<g id="node4" class="node">
<title>Node4</title>
<g id="a_node4"><a xlink:href="../../d6/d00/class_u___c_o_n_f_i_g_u_r_a_t_i_o_n.html#aafcf880d7361d9f00cd4dd497c3a97fa" target="_top" xlink:title="Get the communication port used by the driver to interact with the service.">
<polygon fill="none" stroke="black" points="226,-231 226,-250 441,-250 441,-231 226,-231"/>
<text text-anchor="middle" x="333.5" y="-238" font-family="Helvetica,sans-Serif" font-size="10.00">U_CONFIGURATION::GetCommunicationPort</text>
</a>
</g>
</g>
<!-- Node1&#45;&gt;Node4 -->
<g id="edge3" class="edge">
<title>Node1&#45;&gt;Node4</title>
<path fill="none" stroke="midnightblue" d="M110.52,-162.16C133.84,-177.23 181.56,-206.17 226,-221.5 234.13,-224.3 242.75,-226.71 251.44,-228.78"/>
<polygon fill="midnightblue" stroke="midnightblue" points="250.73,-232.2 261.25,-230.97 252.25,-225.37 250.73,-232.2"/>
</g>
<!-- Node5 -->
<g id="node5" class="node">
<title>Node5</title>
<g id="a_node5"><a xlink:href="../../d6/d00/class_u___c_o_n_f_i_g_u_r_a_t_i_o_n.html#a11328249616049976aeafd9ad80429bc" target="_top" xlink:title="Get the number of threads of the service by reading the values in the Registry.">
<polygon fill="none" stroke="black" points="251.5,-181.5 251.5,-211.5 415.5,-211.5 415.5,-181.5 251.5,-181.5"/>
<text text-anchor="start" x="259.5" y="-199.5" font-family="Helvetica,sans-Serif" font-size="10.00">U_CONFIGURATION::GetListener</text>
<text text-anchor="middle" x="333.5" y="-188.5" font-family="Helvetica,sans-Serif" font-size="10.00">Threads</text>
</a>
</g>
</g>
<!-- Node1&#45;&gt;Node5 -->
<g id="edge5" class="edge">
<title>Node1&#45;&gt;Node5</title>
<path fill="none" stroke="midnightblue" d="M147.32,-162.05C174.78,-167.16 209.42,-173.6 241.29,-179.53"/>
<polygon fill="midnightblue" stroke="midnightblue" points="241.05,-183.05 251.52,-181.43 242.33,-176.16 241.05,-183.05"/>
</g>
<!-- Node6 -->
<g id="node6" class="node">
<title>Node6</title>
<g id="a_node6"><a xlink:href="../../d6/d00/class_u___c_o_n_f_i_g_u_r_a_t_i_o_n.html#a16a3374e66a338c898a4e84fc6602368" target="_top" xlink:title="Get the maximum number of clients of the service by reading the values in the REGISTRY:: &#160;[i] This va...">
<polygon fill="none" stroke="black" points="244.5,-143 244.5,-162 422.5,-162 422.5,-143 244.5,-143"/>
<text text-anchor="middle" x="333.5" y="-150" font-family="Helvetica,sans-Serif" font-size="10.00">U_CONFIGURATION::GetMaxClients</text>
</a>
</g>
</g>
<!-- Node1&#45;&gt;Node6 -->
<g id="edge7" class="edge">
<title>Node1&#45;&gt;Node6</title>
<path fill="none" stroke="midnightblue" d="M190.15,-152.5C204.7,-152.5 219.75,-152.5 234.39,-152.5"/>
<polygon fill="midnightblue" stroke="midnightblue" points="234.44,-156 244.44,-152.5 234.44,-149 234.44,-156"/>
</g>
<!-- Node7 -->
<g id="node7" class="node">
<title>Node7</title>
<g id="a_node7"><a xlink:href="../../d6/d00/class_u___c_o_n_f_i_g_u_r_a_t_i_o_n.html#a86c433a3d57e5800ad03a4411ace09d6" target="_top" xlink:title="Get the number of threads of the service by reading the values in the REGISTRY::">
<polygon fill="none" stroke="black" points="244,-93.5 244,-123.5 423,-123.5 423,-93.5 244,-93.5"/>
<text text-anchor="start" x="252" y="-111.5" font-family="Helvetica,sans-Serif" font-size="10.00">U_CONFIGURATION::GetMaxWorker</text>
<text text-anchor="middle" x="333.5" y="-100.5" font-family="Helvetica,sans-Serif" font-size="10.00">Threads</text>
</a>
</g>
</g>
<!-- Node1&#45;&gt;Node7 -->
<g id="edge9" class="edge">
<title>Node1&#45;&gt;Node7</title>
<path fill="none" stroke="midnightblue" d="M147.32,-142.95C174.78,-137.84 209.42,-131.4 241.29,-125.47"/>
<polygon fill="midnightblue" stroke="midnightblue" points="242.33,-128.84 251.52,-123.57 241.05,-121.95 242.33,-128.84"/>
</g>
<!-- Node8 -->
<g id="node8" class="node">
<title>Node8</title>
<g id="a_node8"><a xlink:href="../../d6/d00/class_u___c_o_n_f_i_g_u_r_a_t_i_o_n.html#a3979610ba0d110c0e79481925f413ea0" target="_top" xlink:title="Get the number of threads of the service by reading the values in the Registry.">
<polygon fill="none" stroke="black" points="245.5,-44.5 245.5,-74.5 421.5,-74.5 421.5,-44.5 245.5,-44.5"/>
<text text-anchor="start" x="253.5" y="-62.5" font-family="Helvetica,sans-Serif" font-size="10.00">U_CONFIGURATION::GetMinWorker</text>
<text text-anchor="middle" x="333.5" y="-51.5" font-family="Helvetica,sans-Serif" font-size="10.00">Threads</text>
</a>
</g>
</g>
<!-- Node1&#45;&gt;Node8 -->
<g id="edge11" class="edge">
<title>Node1&#45;&gt;Node8</title>
<path fill="none" stroke="midnightblue" d="M111.42,-142.79C135.18,-128.22 182.55,-100.67 226,-84.5 232.99,-81.9 240.35,-79.51 247.79,-77.32"/>
<polygon fill="midnightblue" stroke="midnightblue" points="248.91,-80.64 257.6,-74.57 247.02,-73.9 248.91,-80.64"/>
</g>
<!-- Node9 -->
<g id="node9" class="node">
<title>Node9</title>
<g id="a_node9"><a xlink:href="../../d6/d00/class_u___c_o_n_f_i_g_u_r_a_t_i_o_n.html#a3d4d97df1d0d20e20f7a1d696f9c4150" target="_top" xlink:title="Get the whitelist used to allow user&#45;specified apps.">
<polygon fill="none" stroke="black" points="250,-6 250,-25 417,-25 417,-6 250,-6"/>
<text text-anchor="middle" x="333.5" y="-13" font-family="Helvetica,sans-Serif" font-size="10.00">U_CONFIGURATION::GetWhitelist</text>
</a>
</g>
</g>
<!-- Node1&#45;&gt;Node9 -->
<g id="edge13" class="edge">
<title>Node1&#45;&gt;Node9</title>
<path fill="none" stroke="midnightblue" d="M103.27,-142.93C121.26,-120 170.47,-61.79 226,-34.5 230.95,-32.07 236.17,-29.94 241.53,-28.09"/>
<polygon fill="midnightblue" stroke="midnightblue" points="242.79,-31.36 251.29,-25.03 240.7,-24.68 242.79,-31.36"/>
</g>
<!-- Node3 -->
<g id="node3" class="node">
<title>Node3</title>
<g id="a_node3"><a xlink:href="../../d1/d03/class_u___r_e_g_i_s_t_r_y.html#ab8fcbe86de2429b471dcaa94d9025aa8" target="_top" xlink:title="Read the content (DWORD) of the registry key &quot;szSubKey&quot; located in the HIVE &quot;hKeyParent&quot;.">
<polygon fill="none" stroke="black" points="485,-165 485,-184 616,-184 616,-165 485,-165"/>
<text text-anchor="middle" x="550.5" y="-172" font-family="Helvetica,sans-Serif" font-size="10.00">U_REGISTRY::ReadValue</text>
</a>
</g>
</g>
<!-- Node2&#45;&gt;Node3 -->
<g id="edge2" class="edge">
<title>Node2&#45;&gt;Node3</title>
<path fill="none" stroke="midnightblue" d="M413.18,-268.98C422.77,-266.52 432.26,-263.41 441,-259.5 477.86,-243.01 513.27,-211.33 533.13,-191.65"/>
<polygon fill="midnightblue" stroke="midnightblue" points="535.88,-193.84 540.41,-184.26 530.9,-188.92 535.88,-193.84"/>
</g>
<!-- Node4&#45;&gt;Node3 -->
<g id="edge4" class="edge">
<title>Node4&#45;&gt;Node3</title>
<path fill="none" stroke="midnightblue" d="M401.53,-230.99C414.75,-228.43 428.41,-225.29 441,-221.5 469.46,-212.92 500.45,-199.01 521.99,-188.54"/>
<polygon fill="midnightblue" stroke="midnightblue" points="523.76,-191.57 531.18,-184.01 520.66,-185.29 523.76,-191.57"/>
</g>
<!-- Node5&#45;&gt;Node3 -->
<g id="edge6" class="edge">
<title>Node5&#45;&gt;Node3</title>
<path fill="none" stroke="midnightblue" d="M415.78,-188.18C435.14,-186.2 455.7,-184.1 474.74,-182.15"/>
<polygon fill="midnightblue" stroke="midnightblue" points="475.26,-185.62 484.85,-181.12 474.54,-178.65 475.26,-185.62"/>
</g>
<!-- Node6&#45;&gt;Node3 -->
<g id="edge8" class="edge">
<title>Node6&#45;&gt;Node3</title>
<path fill="none" stroke="midnightblue" d="M422.57,-161.51C439.86,-163.28 457.84,-165.12 474.64,-166.84"/>
<polygon fill="midnightblue" stroke="midnightblue" points="474.63,-170.36 484.93,-167.89 475.34,-163.39 474.63,-170.36"/>
</g>
<!-- Node7&#45;&gt;Node3 -->
<g id="edge10" class="edge">
<title>Node7&#45;&gt;Node3</title>
<path fill="none" stroke="midnightblue" d="M404.45,-123.54C416.71,-126.57 429.28,-129.93 441,-133.5 467.22,-141.5 496.24,-152.58 517.67,-161.21"/>
<polygon fill="midnightblue" stroke="midnightblue" points="516.36,-164.46 526.94,-164.98 518.99,-157.97 516.36,-164.46"/>
</g>
<!-- Node8&#45;&gt;Node3 -->
<g id="edge12" class="edge">
<title>Node8&#45;&gt;Node3</title>
<path fill="none" stroke="midnightblue" d="M416.13,-74.51C424.73,-77.31 433.18,-80.61 441,-84.5 478.53,-103.17 514.41,-137.14 534.04,-157.58"/>
<polygon fill="midnightblue" stroke="midnightblue" points="531.57,-160.06 540.97,-164.94 536.66,-155.26 531.57,-160.06"/>
</g>
<!-- Node10 -->
<g id="node10" class="node">
<title>Node10</title>
<g id="a_node10"><a xlink:href="../../d1/d02/class_u___h_e_l_p_e_r.html#abea5f0267dd3ed7ae7e13da331a27897" target="_top" xlink:title="Returns the number of Unicode strings found in a buffer (raw data from REG_MULTI_SZ)">
<polygon fill="none" stroke="black" points="477,-0.5 477,-30.5 624,-30.5 624,-0.5 477,-0.5"/>
<text text-anchor="start" x="485" y="-18.5" font-family="Helvetica,sans-Serif" font-size="10.00">U_HELPER::CountWStringsIn</text>
<text text-anchor="middle" x="550.5" y="-7.5" font-family="Helvetica,sans-Serif" font-size="10.00">Buffer</text>
</a>
</g>
</g>
<!-- Node9&#45;&gt;Node10 -->
<g id="edge14" class="edge">
<title>Node9&#45;&gt;Node10</title>
<path fill="none" stroke="midnightblue" d="M417.01,-15.5C433.29,-15.5 450.38,-15.5 466.67,-15.5"/>
<polygon fill="midnightblue" stroke="midnightblue" points="466.69,-19 476.69,-15.5 466.69,-12 466.69,-19"/>
</g>
</g>
</svg>
