<?xml version="1.0" encoding="UTF-8" standalone="no"?>
<!DOCTYPE svg PUBLIC "-//W3C//DTD SVG 1.1//EN"
 "http://www.w3.org/Graphics/SVG/1.1/DTD/svg11.dtd">
<!-- Generated by graphviz version 5.0.0 (20220707.1540)
 -->
<!-- Title: U_CONFIGURATION::_CreateRegistryForLogs Pages: 1 -->
<svg width="532pt" height="203pt"
 viewBox="0.00 0.00 532.00 202.50" xmlns="http://www.w3.org/2000/svg" xmlns:xlink="http://www.w3.org/1999/xlink">
<g id="graph0" class="graph" transform="scale(1 1) rotate(0) translate(4 198.5)">
<title>U_CONFIGURATION::_CreateRegistryForLogs</title>
<!-- Node1 -->
<g id="node1" class="node">
<title>Node1</title>
<g id="a_node1"><a xlink:title="Create all the registry keys needed for ETW Logs.">
<polygon fill="#bfbfbf" stroke="black" points="0,-93.5 0,-123.5 147,-123.5 147,-93.5 0,-93.5"/>
<text text-anchor="start" x="8" y="-111.5" font-family="Helvetica,sans-Serif" font-size="10.00">U_CONFIGURATION::_Create</text>
<text text-anchor="middle" x="73.5" y="-100.5" font-family="Helvetica,sans-Serif" font-size="10.00">RegistryForLogs</text>
</a>
</g>
</g>
<!-- Node2 -->
<g id="node2" class="node">
<title>Node2</title>
<g id="a_node2"><a xlink:href="../../d1/d03/class_u___r_e_g_i_s_t_r_y.html#acb3aa163feb4caa0bbd10c41579ff78a" target="_top" xlink:title="Create the registry key &quot;szSubKey&quot; located in the HIVE &quot;hKeyParent&quot;.">
<polygon fill="none" stroke="black" points="183,-175 183,-194 348,-194 348,-175 183,-175"/>
<text text-anchor="middle" x="265.5" y="-182" font-family="Helvetica,sans-Serif" font-size="10.00">U_REGISTRY::CreateRegistryKey</text>
</a>
</g>
</g>
<!-- Node1&#45;&gt;Node2 -->
<g id="edge1" class="edge">
<title>Node1&#45;&gt;Node2</title>
<path fill="none" stroke="midnightblue" d="M99.09,-123.74C120.55,-136.47 152.89,-154.29 183,-165.5 189.83,-168.04 197.12,-170.32 204.42,-172.34"/>
<polygon fill="midnightblue" stroke="midnightblue" points="203.78,-175.79 214.34,-174.93 205.55,-169.01 203.78,-175.79"/>
</g>
<!-- Node3 -->
<g id="node3" class="node">
<title>Node3</title>
<g id="a_node3"><a xlink:href="../../d1/d02/class_u___h_e_l_p_e_r.html#a4394792c27e195d195fe4108ed402bbc" target="_top" xlink:title=" ">
<polygon fill="none" stroke="black" points="197,-137 197,-156 334,-156 334,-137 197,-137"/>
<text text-anchor="middle" x="265.5" y="-144" font-family="Helvetica,sans-Serif" font-size="10.00">U_HELPER::GetDllFullPath</text>
</a>
</g>
</g>
<!-- Node1&#45;&gt;Node3 -->
<g id="edge2" class="edge">
<title>Node1&#45;&gt;Node3</title>
<path fill="none" stroke="midnightblue" d="M147.14,-123.03C166.95,-126.99 188.12,-131.22 206.96,-134.99"/>
<polygon fill="midnightblue" stroke="midnightblue" points="206.38,-138.44 216.87,-136.97 207.75,-131.58 206.38,-138.44"/>
</g>
<!-- Node4 -->
<g id="node4" class="node">
<title>Node4</title>
<g id="a_node4"><a xlink:href="../../d8/d00/class_u___l_o_g_s.html#a0f2932b79fce103453dd1cfc60de2007" target="_top" xlink:title="Send the reported event in the Event Viewer (Application &#45;&gt; PI&#45;Defender_UM).">
<polygon fill="none" stroke="black" points="200.5,-99 200.5,-118 330.5,-118 330.5,-99 200.5,-99"/>
<text text-anchor="middle" x="265.5" y="-106" font-family="Helvetica,sans-Serif" font-size="10.00">U_LOGS::SvcReportEvent</text>
</a>
</g>
</g>
<!-- Node1&#45;&gt;Node4 -->
<g id="edge3" class="edge">
<title>Node1&#45;&gt;Node4</title>
<path fill="none" stroke="midnightblue" d="M147.14,-108.5C161.22,-108.5 175.99,-108.5 190.13,-108.5"/>
<polygon fill="midnightblue" stroke="midnightblue" points="190.29,-112 200.29,-108.5 190.29,-105 190.29,-112"/>
</g>
<!-- Node5 -->
<g id="node5" class="node">
<title>Node5</title>
<g id="a_node5"><a xlink:href="../../d1/d03/class_u___r_e_g_i_s_t_r_y.html#ac826205b4627137b899c1e0066b3fb9a" target="_top" xlink:title="Write DWORD in the registry key &quot;szSubKey&quot; located in the HIVE &quot;hKeyParent&quot;.">
<polygon fill="none" stroke="black" points="195,-49.5 195,-79.5 336,-79.5 336,-49.5 195,-49.5"/>
<text text-anchor="start" x="203" y="-67.5" font-family="Helvetica,sans-Serif" font-size="10.00">U_REGISTRY::WriteDwordIn</text>
<text text-anchor="middle" x="265.5" y="-56.5" font-family="Helvetica,sans-Serif" font-size="10.00">Registry</text>
</a>
</g>
</g>
<!-- Node1&#45;&gt;Node5 -->
<g id="edge4" class="edge">
<title>Node1&#45;&gt;Node5</title>
<path fill="none" stroke="midnightblue" d="M139.36,-93.48C155.47,-89.75 172.87,-85.72 189.43,-81.88"/>
<polygon fill="midnightblue" stroke="midnightblue" points="190.66,-85.19 199.61,-79.53 189.08,-78.37 190.66,-85.19"/>
</g>
<!-- Node7 -->
<g id="node7" class="node">
<title>Node7</title>
<g id="a_node7"><a xlink:href="../../d1/d03/class_u___r_e_g_i_s_t_r_y.html#aa82742460b375f1fbd9534cd8f845bd0" target="_top" xlink:title="Write STRING in the registry key &quot;szSubKey&quot; located in the HIVE &quot;hKeyParent&quot;.">
<polygon fill="none" stroke="black" points="195.5,-0.5 195.5,-30.5 335.5,-30.5 335.5,-0.5 195.5,-0.5"/>
<text text-anchor="start" x="203.5" y="-18.5" font-family="Helvetica,sans-Serif" font-size="10.00">U_REGISTRY::WriteStringIn</text>
<text text-anchor="middle" x="265.5" y="-7.5" font-family="Helvetica,sans-Serif" font-size="10.00">Registry</text>
</a>
</g>
</g>
<!-- Node1&#45;&gt;Node7 -->
<g id="edge6" class="edge">
<title>Node1&#45;&gt;Node7</title>
<path fill="none" stroke="midnightblue" d="M95.18,-93.22C116.36,-78.15 150.65,-55.29 183,-40.5 188.05,-38.19 193.37,-36.02 198.77,-34.01"/>
<polygon fill="midnightblue" stroke="midnightblue" points="200.29,-37.18 208.53,-30.53 197.94,-30.58 200.29,-37.18"/>
</g>
<!-- Node6 -->
<g id="node6" class="node">
<title>Node6</title>
<g id="a_node6"><a xlink:href="../../d1/d03/class_u___r_e_g_i_s_t_r_y.html#aa3f355ae1e9c7c1f9db8496d25ac1f7d" target="_top" xlink:title="Write data in the registry key &quot;szSubKey&quot; located in the HIVE &quot;hKeyParent&quot;.">
<polygon fill="none" stroke="black" points="384,-24.5 384,-54.5 524,-54.5 524,-24.5 384,-24.5"/>
<text text-anchor="start" x="392" y="-42.5" font-family="Helvetica,sans-Serif" font-size="10.00">U_REGISTRY::_WriteDataIn</text>
<text text-anchor="middle" x="454" y="-31.5" font-family="Helvetica,sans-Serif" font-size="10.00">Registry</text>
</a>
</g>
</g>
<!-- Node5&#45;&gt;Node6 -->
<g id="edge5" class="edge">
<title>Node5&#45;&gt;Node6</title>
<path fill="none" stroke="midnightblue" d="M336.21,-55.16C348.54,-53.5 361.45,-51.77 374.01,-50.09"/>
<polygon fill="midnightblue" stroke="midnightblue" points="374.55,-53.55 383.99,-48.75 373.62,-46.61 374.55,-53.55"/>
</g>
<!-- Node7&#45;&gt;Node6 -->
<g id="edge7" class="edge">
<title>Node7&#45;&gt;Node6</title>
<path fill="none" stroke="midnightblue" d="M335.68,-24.4C348.11,-26 361.16,-27.68 373.85,-29.31"/>
<polygon fill="midnightblue" stroke="midnightblue" points="373.57,-32.81 383.93,-30.61 374.46,-25.86 373.57,-32.81"/>
</g>
</g>
</svg>
