<?xml version="1.0" encoding="UTF-8" standalone="no"?>
<!DOCTYPE svg PUBLIC "-//W3C//DTD SVG 1.1//EN"
 "http://www.w3.org/Graphics/SVG/1.1/DTD/svg11.dtd">
<!-- Generated by graphviz version 5.0.0 (20220707.1540)
 -->
<!-- Title: U_CONFIGURATION::SetServiceConfiguration Pages: 1 -->
<svg width="728pt" height="203pt"
 viewBox="0.00 0.00 728.00 202.50" xmlns="http://www.w3.org/2000/svg" xmlns:xlink="http://www.w3.org/1999/xlink">
<g id="graph0" class="graph" transform="scale(1 1) rotate(0) translate(4 198.5)">
<title>U_CONFIGURATION::SetServiceConfiguration</title>
<!-- Node1 -->
<g id="node1" class="node">
<title>Node1</title>
<g id="a_node1"><a xlink:title="Create registry keys needed for the service configuration.">
<polygon fill="#bfbfbf" stroke="black" points="0,-93.5 0,-123.5 160,-123.5 160,-93.5 0,-93.5"/>
<text text-anchor="start" x="8" y="-111.5" font-family="Helvetica,sans-Serif" font-size="10.00">U_CONFIGURATION::SetService</text>
<text text-anchor="middle" x="80" y="-100.5" font-family="Helvetica,sans-Serif" font-size="10.00">Configuration</text>
</a>
</g>
</g>
<!-- Node2 -->
<g id="node2" class="node">
<title>Node2</title>
<g id="a_node2"><a xlink:href="../../d6/d00/class_u___c_o_n_f_i_g_u_r_a_t_i_o_n.html#ac15b37425890a19a5de6664a2f5b2320" target="_top" xlink:title="Create all the registry keys needed for ETW Logs.">
<polygon fill="none" stroke="black" points="196,-93.5 196,-123.5 343,-123.5 343,-93.5 196,-93.5"/>
<text text-anchor="start" x="204" y="-111.5" font-family="Helvetica,sans-Serif" font-size="10.00">U_CONFIGURATION::_Create</text>
<text text-anchor="middle" x="269.5" y="-100.5" font-family="Helvetica,sans-Serif" font-size="10.00">RegistryForLogs</text>
</a>
</g>
</g>
<!-- Node1&#45;&gt;Node2 -->
<g id="edge1" class="edge">
<title>Node1&#45;&gt;Node2</title>
<path fill="none" stroke="midnightblue" d="M160.25,-108.5C168.63,-108.5 177.17,-108.5 185.6,-108.5"/>
<polygon fill="midnightblue" stroke="midnightblue" points="185.8,-112 195.8,-108.5 185.8,-105 185.8,-112"/>
</g>
<!-- Node3 -->
<g id="node3" class="node">
<title>Node3</title>
<g id="a_node3"><a xlink:href="../../d1/d03/class_u___r_e_g_i_s_t_r_y.html#acb3aa163feb4caa0bbd10c41579ff78a" target="_top" xlink:title="Create the registry key &quot;szSubKey&quot; located in the HIVE &quot;hKeyParent&quot;.">
<polygon fill="none" stroke="black" points="379,-175 379,-194 544,-194 544,-175 379,-175"/>
<text text-anchor="middle" x="461.5" y="-182" font-family="Helvetica,sans-Serif" font-size="10.00">U_REGISTRY::CreateRegistryKey</text>
</a>
</g>
</g>
<!-- Node1&#45;&gt;Node3 -->
<g id="edge9" class="edge">
<title>Node1&#45;&gt;Node3</title>
<path fill="none" stroke="midnightblue" d="M148.75,-123.51C164.26,-126.86 180.69,-130.36 196,-133.5 265.51,-147.75 345.53,-163.03 399.19,-173.1"/>
<polygon fill="midnightblue" stroke="midnightblue" points="398.75,-176.58 409.23,-174.98 400.04,-169.7 398.75,-176.58"/>
</g>
<!-- Node6 -->
<g id="node6" class="node">
<title>Node6</title>
<g id="a_node6"><a xlink:href="../../d1/d03/class_u___r_e_g_i_s_t_r_y.html#ac826205b4627137b899c1e0066b3fb9a" target="_top" xlink:title="Write DWORD in the registry key &quot;szSubKey&quot; located in the HIVE &quot;hKeyParent&quot;.">
<polygon fill="none" stroke="black" points="391,-0.5 391,-30.5 532,-30.5 532,-0.5 391,-0.5"/>
<text text-anchor="start" x="399" y="-18.5" font-family="Helvetica,sans-Serif" font-size="10.00">U_REGISTRY::WriteDwordIn</text>
<text text-anchor="middle" x="461.5" y="-7.5" font-family="Helvetica,sans-Serif" font-size="10.00">Registry</text>
</a>
</g>
</g>
<!-- Node1&#45;&gt;Node6 -->
<g id="edge10" class="edge">
<title>Node1&#45;&gt;Node6</title>
<path fill="none" stroke="midnightblue" d="M142.4,-93.45C209.91,-76.91 318.25,-50.36 389.41,-32.92"/>
<polygon fill="midnightblue" stroke="midnightblue" points="390.31,-36.3 399.19,-30.52 388.65,-29.5 390.31,-36.3"/>
</g>
<!-- Node2&#45;&gt;Node3 -->
<g id="edge2" class="edge">
<title>Node2&#45;&gt;Node3</title>
<path fill="none" stroke="midnightblue" d="M295.09,-123.74C316.55,-136.47 348.89,-154.29 379,-165.5 385.83,-168.04 393.12,-170.32 400.42,-172.34"/>
<polygon fill="midnightblue" stroke="midnightblue" points="399.78,-175.79 410.34,-174.93 401.55,-169.01 399.78,-175.79"/>
</g>
<!-- Node4 -->
<g id="node4" class="node">
<title>Node4</title>
<g id="a_node4"><a xlink:href="../../d1/d02/class_u___h_e_l_p_e_r.html#a4394792c27e195d195fe4108ed402bbc" target="_top" xlink:title=" ">
<polygon fill="none" stroke="black" points="393,-137 393,-156 530,-156 530,-137 393,-137"/>
<text text-anchor="middle" x="461.5" y="-144" font-family="Helvetica,sans-Serif" font-size="10.00">U_HELPER::GetDllFullPath</text>
</a>
</g>
</g>
<!-- Node2&#45;&gt;Node4 -->
<g id="edge3" class="edge">
<title>Node2&#45;&gt;Node4</title>
<path fill="none" stroke="midnightblue" d="M343.14,-123.03C362.95,-126.99 384.12,-131.22 402.96,-134.99"/>
<polygon fill="midnightblue" stroke="midnightblue" points="402.38,-138.44 412.87,-136.97 403.75,-131.58 402.38,-138.44"/>
</g>
<!-- Node5 -->
<g id="node5" class="node">
<title>Node5</title>
<g id="a_node5"><a xlink:href="../../d8/d00/class_u___l_o_g_s.html#a0f2932b79fce103453dd1cfc60de2007" target="_top" xlink:title="Send the reported event in the Event Viewer (Application &#45;&gt; PI&#45;Defender_UM).">
<polygon fill="none" stroke="black" points="396.5,-99 396.5,-118 526.5,-118 526.5,-99 396.5,-99"/>
<text text-anchor="middle" x="461.5" y="-106" font-family="Helvetica,sans-Serif" font-size="10.00">U_LOGS::SvcReportEvent</text>
</a>
</g>
</g>
<!-- Node2&#45;&gt;Node5 -->
<g id="edge4" class="edge">
<title>Node2&#45;&gt;Node5</title>
<path fill="none" stroke="midnightblue" d="M343.14,-108.5C357.22,-108.5 371.99,-108.5 386.13,-108.5"/>
<polygon fill="midnightblue" stroke="midnightblue" points="386.29,-112 396.29,-108.5 386.29,-105 386.29,-112"/>
</g>
<!-- Node2&#45;&gt;Node6 -->
<g id="edge5" class="edge">
<title>Node2&#45;&gt;Node6</title>
<path fill="none" stroke="midnightblue" d="M290.33,-93.47C311.37,-78.12 346.07,-54.46 379,-39.5 383.31,-37.54 387.81,-35.7 392.4,-33.97"/>
<polygon fill="midnightblue" stroke="midnightblue" points="393.65,-37.25 401.89,-30.59 391.3,-30.65 393.65,-37.25"/>
</g>
<!-- Node8 -->
<g id="node8" class="node">
<title>Node8</title>
<g id="a_node8"><a xlink:href="../../d1/d03/class_u___r_e_g_i_s_t_r_y.html#aa82742460b375f1fbd9534cd8f845bd0" target="_top" xlink:title="Write STRING in the registry key &quot;szSubKey&quot; located in the HIVE &quot;hKeyParent&quot;.">
<polygon fill="none" stroke="black" points="391.5,-49.5 391.5,-79.5 531.5,-79.5 531.5,-49.5 391.5,-49.5"/>
<text text-anchor="start" x="399.5" y="-67.5" font-family="Helvetica,sans-Serif" font-size="10.00">U_REGISTRY::WriteStringIn</text>
<text text-anchor="middle" x="461.5" y="-56.5" font-family="Helvetica,sans-Serif" font-size="10.00">Registry</text>
</a>
</g>
</g>
<!-- Node2&#45;&gt;Node8 -->
<g id="edge7" class="edge">
<title>Node2&#45;&gt;Node8</title>
<path fill="none" stroke="midnightblue" d="M335.36,-93.48C351.47,-89.75 368.87,-85.72 385.43,-81.88"/>
<polygon fill="midnightblue" stroke="midnightblue" points="386.66,-85.19 395.61,-79.53 385.08,-78.37 386.66,-85.19"/>
</g>
<!-- Node7 -->
<g id="node7" class="node">
<title>Node7</title>
<g id="a_node7"><a xlink:href="../../d1/d03/class_u___r_e_g_i_s_t_r_y.html#aa3f355ae1e9c7c1f9db8496d25ac1f7d" target="_top" xlink:title="Write data in the registry key &quot;szSubKey&quot; located in the HIVE &quot;hKeyParent&quot;.">
<polygon fill="none" stroke="black" points="580,-24.5 580,-54.5 720,-54.5 720,-24.5 580,-24.5"/>
<text text-anchor="start" x="588" y="-42.5" font-family="Helvetica,sans-Serif" font-size="10.00">U_REGISTRY::_WriteDataIn</text>
<text text-anchor="middle" x="650" y="-31.5" font-family="Helvetica,sans-Serif" font-size="10.00">Registry</text>
</a>
</g>
</g>
<!-- Node6&#45;&gt;Node7 -->
<g id="edge6" class="edge">
<title>Node6&#45;&gt;Node7</title>
<path fill="none" stroke="midnightblue" d="M532.21,-24.47C544.54,-26.06 557.45,-27.72 570.01,-29.34"/>
<polygon fill="midnightblue" stroke="midnightblue" points="569.63,-32.81 579.99,-30.62 570.52,-25.87 569.63,-32.81"/>
</g>
<!-- Node8&#45;&gt;Node7 -->
<g id="edge8" class="edge">
<title>Node8&#45;&gt;Node7</title>
<path fill="none" stroke="midnightblue" d="M531.68,-55.23C544.11,-53.56 557.16,-51.81 569.85,-50.11"/>
<polygon fill="midnightblue" stroke="midnightblue" points="570.48,-53.56 579.93,-48.76 569.55,-46.62 570.48,-53.56"/>
</g>
</g>
</svg>
