<?xml version="1.0" encoding="UTF-8" standalone="no"?>
<!DOCTYPE svg PUBLIC "-//W3C//DTD SVG 1.1//EN"
 "http://www.w3.org/Graphics/SVG/1.1/DTD/svg11.dtd">
<!-- Generated by graphviz version 5.0.0 (20220707.1540)
 -->
<!-- Title: K_CONFIGURATION::IsInCache Pages: 1 -->
<svg width="525pt" height="28pt"
 viewBox="0.00 0.00 525.00 28.00" xmlns="http://www.w3.org/2000/svg" xmlns:xlink="http://www.w3.org/1999/xlink">
<g id="graph0" class="graph" transform="scale(1 1) rotate(0) translate(4 24)">
<title>K_CONFIGURATION::IsInCache</title>
<!-- Node1 -->
<g id="node1" class="node">
<title>Node1</title>
<g id="a_node1"><a xlink:title=" ">
<polygon fill="#bfbfbf" stroke="black" points="0,-0.5 0,-19.5 156,-19.5 156,-0.5 0,-0.5"/>
<text text-anchor="middle" x="78" y="-7.5" font-family="Helvetica,sans-Serif" font-size="10.00">K_CONFIGURATION::IsInCache</text>
</a>
</g>
</g>
<!-- Node2 -->
<g id="node2" class="node">
<title>Node2</title>
<g id="a_node2"><a xlink:href="../../d7/d01/class_k___c_a_c_h_e.html#a98344c274506318cf85edd7debb5de80" target="_top" xlink:title="Set bIsOk to TRUE if cache contains specified Hash, FALSE otherwise.">
<polygon fill="none" stroke="black" points="192,-0.5 192,-19.5 334,-19.5 334,-0.5 192,-0.5"/>
<text text-anchor="middle" x="263" y="-7.5" font-family="Helvetica,sans-Serif" font-size="10.00">K_CACHE::GetCachedValue</text>
</a>
</g>
</g>
<!-- Node1&#45;&gt;Node2 -->
<g id="edge1" class="edge">
<title>Node1&#45;&gt;Node2</title>
<path fill="none" stroke="midnightblue" d="M156.08,-10C164.64,-10 173.38,-10 181.98,-10"/>
<polygon fill="midnightblue" stroke="midnightblue" points="182,-13.5 192,-10 182,-6.5 182,-13.5"/>
</g>
<!-- Node3 -->
<g id="node3" class="node">
<title>Node3</title>
<g id="a_node3"><a xlink:href="../../d7/d01/class_k___c_a_c_h_e.html#a2a803e7f4af2e18b582ccc4f2b9f747a" target="_top" xlink:title="Set &quot;pbIsOk&quot; to TRUE if cache contains specified Hash, FALSE otherwise.">
<polygon fill="none" stroke="black" points="370,-0.5 370,-19.5 517,-19.5 517,-0.5 370,-0.5"/>
<text text-anchor="middle" x="443.5" y="-7.5" font-family="Helvetica,sans-Serif" font-size="10.00">K_CACHE::_GetCachedValue</text>
</a>
</g>
</g>
<!-- Node2&#45;&gt;Node3 -->
<g id="edge2" class="edge">
<title>Node2&#45;&gt;Node3</title>
<path fill="none" stroke="midnightblue" d="M334.04,-10C342.46,-10 351.12,-10 359.71,-10"/>
<polygon fill="midnightblue" stroke="midnightblue" points="359.73,-13.5 369.73,-10 359.73,-6.5 359.73,-13.5"/>
</g>
</g>
</svg>
