<?xml version="1.0" encoding="UTF-8" standalone="no"?>
<!DOCTYPE svg PUBLIC "-//W3C//DTD SVG 1.1//EN"
 "http://www.w3.org/Graphics/SVG/1.1/DTD/svg11.dtd">
<!-- Generated by graphviz version 5.0.0 (20220707.1540)
 -->
<!-- Title: K_FILTER::Initialize Pages: 1 -->
<svg width="586pt" height="148pt"
 viewBox="0.00 0.00 586.00 148.00" xmlns="http://www.w3.org/2000/svg" xmlns:xlink="http://www.w3.org/1999/xlink">
<g id="graph0" class="graph" transform="scale(1 1) rotate(0) translate(4 144)">
<title>K_FILTER::Initialize</title>
<!-- Node1 -->
<g id="node1" class="node">
<title>Node1</title>
<g id="a_node1"><a xlink:title="Initialize the filter.">
<polygon fill="#bfbfbf" stroke="black" points="0,-63.5 0,-82.5 102,-82.5 102,-63.5 0,-63.5"/>
<text text-anchor="middle" x="51" y="-70.5" font-family="Helvetica,sans-Serif" font-size="10.00">K_FILTER::Initialize</text>
</a>
</g>
</g>
<!-- Node2 -->
<g id="node2" class="node">
<title>Node2</title>
<g id="a_node2"><a xlink:href="../../d5/dab/class_k___c_o_n_f_i_g_u_r_a_t_i_o_n.html#a834e0751914de6a38db6a4c7544062d1" target="_top" xlink:title=" ">
<polygon fill="none" stroke="black" points="138,-120.5 138,-139.5 353,-139.5 353,-120.5 138,-120.5"/>
<text text-anchor="middle" x="245.5" y="-127.5" font-family="Helvetica,sans-Serif" font-size="10.00">K_CONFIGURATION::GetCommunicationPort</text>
</a>
</g>
</g>
<!-- Node1&#45;&gt;Node2 -->
<g id="edge1" class="edge">
<title>Node1&#45;&gt;Node2</title>
<path fill="none" stroke="midnightblue" d="M70.3,-82.63C87.38,-91.24 113.8,-103.61 138,-111 147.3,-113.84 157.19,-116.3 167.05,-118.44"/>
<polygon fill="midnightblue" stroke="midnightblue" points="166.38,-121.87 176.88,-120.45 167.79,-115.01 166.38,-121.87"/>
</g>
<!-- Node3 -->
<g id="node3" class="node">
<title>Node3</title>
<g id="a_node3"><a xlink:href="../../d5/dab/class_k___c_o_n_f_i_g_u_r_a_t_i_o_n.html#af798bb1ed7052bdfb257d471afbcec59" target="_top" xlink:title=" ">
<polygon fill="none" stroke="black" points="156.5,-82.5 156.5,-101.5 334.5,-101.5 334.5,-82.5 156.5,-82.5"/>
<text text-anchor="middle" x="245.5" y="-89.5" font-family="Helvetica,sans-Serif" font-size="10.00">K_CONFIGURATION::GetMaxClients</text>
</a>
</g>
</g>
<!-- Node1&#45;&gt;Node3 -->
<g id="edge2" class="edge">
<title>Node1&#45;&gt;Node3</title>
<path fill="none" stroke="midnightblue" d="M102.07,-77.94C115.69,-79.29 130.92,-80.79 146.22,-82.3"/>
<polygon fill="midnightblue" stroke="midnightblue" points="145.98,-85.79 156.27,-83.29 146.66,-78.83 145.98,-85.79"/>
</g>
<!-- Node4 -->
<g id="node4" class="node">
<title>Node4</title>
<g id="a_node4"><a xlink:href="../../d5/d98/class_k___c_o_m_m_u_n_i_c_a_t_i_o_n.html#afa2b920efeb5d740d33f1ff7d443059f" target="_top" xlink:title="Initialize the communicaton.">
<polygon fill="none" stroke="black" points="169.5,-44.5 169.5,-63.5 321.5,-63.5 321.5,-44.5 169.5,-44.5"/>
<text text-anchor="middle" x="245.5" y="-51.5" font-family="Helvetica,sans-Serif" font-size="10.00">K_COMMUNICATION::Initialize</text>
</a>
</g>
</g>
<!-- Node1&#45;&gt;Node4 -->
<g id="edge3" class="edge">
<title>Node1&#45;&gt;Node4</title>
<path fill="none" stroke="midnightblue" d="M102.07,-68.06C119.53,-66.33 139.64,-64.35 159.15,-62.42"/>
<polygon fill="midnightblue" stroke="midnightblue" points="159.67,-65.89 169.27,-61.42 158.98,-58.92 159.67,-65.89"/>
</g>
<!-- Node7 -->
<g id="node7" class="node">
<title>Node7</title>
<g id="a_node7"><a xlink:href="../../da/dac/class_k___f_i_l_t_e_r.html#a8fdd916e469e934c6acd0a72245ca65b" target="_top" xlink:title="Unload the communication &amp; the filter.">
<polygon fill="none" stroke="black" points="197,-3.5 197,-22.5 294,-22.5 294,-3.5 197,-3.5"/>
<text text-anchor="middle" x="245.5" y="-10.5" font-family="Helvetica,sans-Serif" font-size="10.00">K_FILTER::Unload</text>
</a>
</g>
</g>
<!-- Node1&#45;&gt;Node7 -->
<g id="edge6" class="edge">
<title>Node1&#45;&gt;Node7</title>
<path fill="none" stroke="midnightblue" d="M70.68,-63.36C87.8,-54.86 114.06,-42.67 138,-35 153.49,-30.04 170.61,-25.93 186.51,-22.65"/>
<polygon fill="midnightblue" stroke="midnightblue" points="187.63,-26 196.76,-20.62 186.27,-19.13 187.63,-26"/>
</g>
<!-- Node5 -->
<g id="node5" class="node">
<title>Node5</title>
<g id="a_node5"><a xlink:href="../../d5/d98/class_k___c_o_m_m_u_n_i_c_a_t_i_o_n.html#ab17f1e4ceb87f15d2698859cc66f637f" target="_top" xlink:title="The disconnection notify callback is called when a user mode application disconnect from the server p...">
<polygon fill="none" stroke="black" points="392,-88 392,-118 575,-118 575,-88 392,-88"/>
<text text-anchor="start" x="400" y="-106" font-family="Helvetica,sans-Serif" font-size="10.00">K_COMMUNICATION::_Disconnection</text>
<text text-anchor="middle" x="483.5" y="-95" font-family="Helvetica,sans-Serif" font-size="10.00">Callback</text>
</a>
</g>
</g>
<!-- Node4&#45;&gt;Node5 -->
<g id="edge4" class="edge">
<title>Node4&#45;&gt;Node5</title>
<path fill="none" stroke="midnightblue" d="M302.98,-63.52C319.16,-66.4 336.81,-69.68 353,-73 371.69,-76.83 391.8,-81.31 410.48,-85.63"/>
<polygon fill="midnightblue" stroke="midnightblue" points="409.86,-89.08 420.39,-87.93 411.45,-82.26 409.86,-89.08"/>
</g>
<!-- Node6 -->
<g id="node6" class="node">
<title>Node6</title>
<g id="a_node6"><a xlink:href="../../d5/d98/class_k___c_o_m_m_u_n_i_c_a_t_i_o_n.html#adc988a77deb3241099ddcebf06cf3af8" target="_top" xlink:title="The connection notify callback is called when a user mode application connect to the server port.">
<polygon fill="none" stroke="black" points="389,-39 389,-69 578,-69 578,-39 389,-39"/>
<text text-anchor="start" x="397" y="-57" font-family="Helvetica,sans-Serif" font-size="10.00">K_COMMUNICATION::_NewConnection</text>
<text text-anchor="middle" x="483.5" y="-46" font-family="Helvetica,sans-Serif" font-size="10.00">Callback</text>
</a>
</g>
</g>
<!-- Node4&#45;&gt;Node6 -->
<g id="edge5" class="edge">
<title>Node4&#45;&gt;Node6</title>
<path fill="none" stroke="midnightblue" d="M321.82,-54C339.89,-54 359.5,-54 378.61,-54"/>
<polygon fill="midnightblue" stroke="midnightblue" points="378.85,-57.5 388.85,-54 378.85,-50.5 378.85,-57.5"/>
</g>
<!-- Node8 -->
<g id="node8" class="node">
<title>Node8</title>
<g id="a_node8"><a xlink:href="../../d5/d98/class_k___c_o_m_m_u_n_i_c_a_t_i_o_n.html#a53e190b73eab90e5fb6bfc07c8fe934f" target="_top" xlink:title="Unload the communication.">
<polygon fill="none" stroke="black" points="410.5,-0.5 410.5,-19.5 556.5,-19.5 556.5,-0.5 410.5,-0.5"/>
<text text-anchor="middle" x="483.5" y="-7.5" font-family="Helvetica,sans-Serif" font-size="10.00">K_COMMUNICATION::Unload</text>
</a>
</g>
</g>
<!-- Node7&#45;&gt;Node8 -->
<g id="edge7" class="edge">
<title>Node7&#45;&gt;Node8</title>
<path fill="none" stroke="midnightblue" d="M294.26,-12.39C324.54,-12.01 364.52,-11.5 399.84,-11.05"/>
<polygon fill="midnightblue" stroke="midnightblue" points="400.2,-14.55 410.15,-10.92 400.11,-7.55 400.2,-14.55"/>
</g>
</g>
</svg>
