<?xml version="1.0" encoding="UTF-8" standalone="no"?>
<!DOCTYPE svg PUBLIC "-//W3C//DTD SVG 1.1//EN"
 "http://www.w3.org/Graphics/SVG/1.1/DTD/svg11.dtd">
<!-- Generated by graphviz version 5.0.0 (20220707.1540)
 -->
<!-- Title: U_Configuration.cpp Pages: 1 -->
<svg width="918pt" height="420pt"
 viewBox="0.00 0.00 918.00 420.00" xmlns="http://www.w3.org/2000/svg" xmlns:xlink="http://www.w3.org/1999/xlink">
<g id="graph0" class="graph" transform="scale(1 1) rotate(0) translate(4 416)">
<title>U_Configuration.cpp</title>
<!-- Node1 -->
<g id="node1" class="node">
<title>Node1</title>
<g id="a_node1"><a xlink:title="Set all the needed configuration for the driver and the user&#45;mode service.">
<polygon fill="#bfbfbf" stroke="black" points="316,-392.5 316,-411.5 420,-411.5 420,-392.5 316,-392.5"/>
<text text-anchor="middle" x="368" y="-399.5" font-family="Helvetica,sans-Serif" font-size="10.00">U_Configuration.cpp</text>
</a>
</g>
</g>
<!-- Node2 -->
<g id="node2" class="node">
<title>Node2</title>
<g id="a_node2"><a xlink:href="../../d6/de0/_u___configuration_8hpp.html" target="_top" xlink:title="Header for U_Configuration.cpp.">
<polygon fill="none" stroke="black" points="316,-336.5 316,-355.5 420,-355.5 420,-336.5 316,-336.5"/>
<text text-anchor="middle" x="368" y="-343.5" font-family="Helvetica,sans-Serif" font-size="10.00">U_Configuration.hpp</text>
</a>
</g>
</g>
<!-- Node1&#45;&gt;Node2 -->
<g id="edge1" class="edge">
<title>Node1&#45;&gt;Node2</title>
<path fill="none" stroke="midnightblue" d="M368,-392.08C368,-385.01 368,-374.86 368,-365.99"/>
<polygon fill="midnightblue" stroke="midnightblue" points="371.5,-365.75 368,-355.75 364.5,-365.75 371.5,-365.75"/>
</g>
<!-- Node3 -->
<g id="node3" class="node">
<title>Node3</title>
<g id="a_node3"><a xlink:href="../../df/d9a/_u___global_header_8hpp.html" target="_top" xlink:title="Header used by several .hpp files.">
<polygon fill="none" stroke="black" points="163,-56.5 163,-75.5 269,-75.5 269,-56.5 163,-56.5"/>
<text text-anchor="middle" x="216" y="-63.5" font-family="Helvetica,sans-Serif" font-size="10.00">U_GlobalHeader.hpp</text>
</a>
</g>
</g>
<!-- Node2&#45;&gt;Node3 -->
<g id="edge2" class="edge">
<title>Node2&#45;&gt;Node3</title>
<path fill="none" stroke="midnightblue" d="M315.67,-340.35C214.07,-329.88 0,-300.1 0,-235 0,-235 0,-235 0,-177 0,-107.79 89.14,-82.11 152.89,-72.59"/>
<polygon fill="midnightblue" stroke="midnightblue" points="153.46,-76.04 162.88,-71.2 152.5,-69.11 153.46,-76.04"/>
</g>
<!-- Node9 -->
<g id="node9" class="node">
<title>Node9</title>
<g id="a_node9"><a xlink:title=" ">
<polygon fill="none" stroke="#bfbfbf" points="775,-56.5 775,-75.5 837,-75.5 837,-56.5 775,-56.5"/>
<text text-anchor="middle" x="806" y="-63.5" font-family="Helvetica,sans-Serif" font-size="10.00">PathCch.h</text>
</a>
</g>
</g>
<!-- Node2&#45;&gt;Node9 -->
<g id="edge8" class="edge">
<title>Node2&#45;&gt;Node9</title>
<path fill="none" stroke="midnightblue" d="M420.4,-342.84C536.66,-336.61 806,-313.7 806,-235 806,-235 806,-235 806,-177 806,-144.95 806,-107.64 806,-85.75"/>
<polygon fill="midnightblue" stroke="midnightblue" points="809.5,-85.56 806,-75.56 802.5,-85.56 809.5,-85.56"/>
</g>
<!-- Node10 -->
<g id="node10" class="node">
<title>Node10</title>
<g id="a_node10"><a xlink:title=" ">
<polygon fill="none" stroke="#bfbfbf" points="834,-280.5 834,-299.5 910,-299.5 910,-280.5 834,-280.5"/>
<text text-anchor="middle" x="872" y="-287.5" font-family="Helvetica,sans-Serif" font-size="10.00">Shlobj_core.h</text>
</a>
</g>
</g>
<!-- Node2&#45;&gt;Node10 -->
<g id="edge9" class="edge">
<title>Node2&#45;&gt;Node10</title>
<path fill="none" stroke="midnightblue" d="M420,-341.05C504.23,-334.38 675.64,-319.65 820,-300 821.28,-299.83 822.57,-299.64 823.87,-299.46"/>
<polygon fill="midnightblue" stroke="midnightblue" points="824.64,-302.88 833.99,-297.9 823.58,-295.96 824.64,-302.88"/>
</g>
<!-- Node11 -->
<g id="node11" class="node">
<title>Node11</title>
<g id="a_node11"><a xlink:href="../../d5/de2/_u___registry_8hpp.html" target="_top" xlink:title="Header for U_Registry.cpp.">
<polygon fill="none" stroke="black" points="66.5,-112.5 66.5,-131.5 149.5,-131.5 149.5,-112.5 66.5,-112.5"/>
<text text-anchor="middle" x="108" y="-119.5" font-family="Helvetica,sans-Serif" font-size="10.00">U_Registry.hpp</text>
</a>
</g>
</g>
<!-- Node2&#45;&gt;Node11 -->
<g id="edge10" class="edge">
<title>Node2&#45;&gt;Node11</title>
<path fill="none" stroke="midnightblue" d="M335.9,-336.38C278.75,-319.11 160.71,-274.31 111,-188 102.98,-174.08 102.95,-155.57 104.5,-141.87"/>
<polygon fill="midnightblue" stroke="midnightblue" points="108,-142.1 106.04,-131.69 101.08,-141.05 108,-142.1"/>
</g>
<!-- Node12 -->
<g id="node12" class="node">
<title>Node12</title>
<g id="a_node12"><a xlink:href="../../d2/de1/_u___service_8hpp.html" target="_top" xlink:title="Header for U_Service.cpp.">
<polygon fill="none" stroke="black" points="328.5,-280.5 328.5,-299.5 407.5,-299.5 407.5,-280.5 328.5,-280.5"/>
<text text-anchor="middle" x="368" y="-287.5" font-family="Helvetica,sans-Serif" font-size="10.00">U_Service.hpp</text>
</a>
</g>
</g>
<!-- Node2&#45;&gt;Node12 -->
<g id="edge12" class="edge">
<title>Node2&#45;&gt;Node12</title>
<path fill="none" stroke="midnightblue" d="M362.83,-336.08C361.32,-328.93 360.89,-318.64 361.54,-309.69"/>
<polygon fill="midnightblue" stroke="midnightblue" points="365.02,-310.13 362.87,-299.75 358.08,-309.2 365.02,-310.13"/>
</g>
<!-- Node14 -->
<g id="node14" class="node">
<title>Node14</title>
<g id="a_node14"><a xlink:href="../../d5/d09/_u___helper_8hpp.html" target="_top" xlink:title="Header for U_Helper.cpp.">
<polygon fill="none" stroke="black" points="630.5,-112.5 630.5,-131.5 705.5,-131.5 705.5,-112.5 630.5,-112.5"/>
<text text-anchor="middle" x="668" y="-119.5" font-family="Helvetica,sans-Serif" font-size="10.00">U_Helper.hpp</text>
</a>
</g>
</g>
<!-- Node2&#45;&gt;Node14 -->
<g id="edge48" class="edge">
<title>Node2&#45;&gt;Node14</title>
<path fill="none" stroke="midnightblue" d="M420.01,-342.72C508.32,-335.59 684.19,-306.46 748,-188 760.62,-164.57 731.57,-146.42 705.01,-135.33"/>
<polygon fill="midnightblue" stroke="midnightblue" points="706.01,-131.96 695.42,-131.57 703.45,-138.48 706.01,-131.96"/>
</g>
<!-- Node21 -->
<g id="node21" class="node">
<title>Node21</title>
<g id="a_node21"><a xlink:href="../../d3/d40/_u___logs_8hpp.html" target="_top" xlink:title="Header for U_Logs.cpp.">
<polygon fill="none" stroke="black" points="120,-168.5 120,-187.5 188,-187.5 188,-168.5 120,-168.5"/>
<text text-anchor="middle" x="154" y="-175.5" font-family="Helvetica,sans-Serif" font-size="10.00">U_Logs.hpp</text>
</a>
</g>
</g>
<!-- Node2&#45;&gt;Node21 -->
<g id="edge47" class="edge">
<title>Node2&#45;&gt;Node21</title>
<path fill="none" stroke="midnightblue" d="M356.8,-336.31C322.2,-309.47 216.77,-227.69 173.18,-193.88"/>
<polygon fill="midnightblue" stroke="midnightblue" points="175.14,-190.97 165.09,-187.61 170.85,-196.5 175.14,-190.97"/>
</g>
<!-- Node4 -->
<g id="node4" class="node">
<title>Node4</title>
<g id="a_node4"><a xlink:title=" ">
<polygon fill="none" stroke="#bfbfbf" points="120.5,-0.5 120.5,-19.5 185.5,-19.5 185.5,-0.5 120.5,-0.5"/>
<text text-anchor="middle" x="153" y="-7.5" font-family="Helvetica,sans-Serif" font-size="10.00">Windows.h</text>
</a>
</g>
</g>
<!-- Node3&#45;&gt;Node4 -->
<g id="edge3" class="edge">
<title>Node3&#45;&gt;Node4</title>
<path fill="none" stroke="midnightblue" d="M205.88,-56.32C196.47,-48.26 182.26,-36.08 170.93,-26.37"/>
<polygon fill="midnightblue" stroke="midnightblue" points="173.18,-23.68 163.31,-19.83 168.62,-29 173.18,-23.68"/>
</g>
<!-- Node5 -->
<g id="node5" class="node">
<title>Node5</title>
<g id="a_node5"><a xlink:title=" ">
<polygon fill="none" stroke="#bfbfbf" points="203.5,-0.5 203.5,-19.5 256.5,-19.5 256.5,-0.5 203.5,-0.5"/>
<text text-anchor="middle" x="230" y="-7.5" font-family="Helvetica,sans-Serif" font-size="10.00">fltUser.h</text>
</a>
</g>
</g>
<!-- Node3&#45;&gt;Node5 -->
<g id="edge4" class="edge">
<title>Node3&#45;&gt;Node5</title>
<path fill="none" stroke="midnightblue" d="M218.31,-56.08C220.17,-48.93 222.84,-38.64 225.15,-29.69"/>
<polygon fill="midnightblue" stroke="midnightblue" points="228.61,-30.31 227.73,-19.75 221.83,-28.55 228.61,-30.31"/>
</g>
<!-- Node6 -->
<g id="node6" class="node">
<title>Node6</title>
<g id="a_node6"><a xlink:title=" ">
<polygon fill="none" stroke="#bfbfbf" points="275,-0.5 275,-19.5 321,-19.5 321,-0.5 275,-0.5"/>
<text text-anchor="middle" x="298" y="-7.5" font-family="Helvetica,sans-Serif" font-size="10.00">stdio.h</text>
</a>
</g>
</g>
<!-- Node3&#45;&gt;Node6 -->
<g id="edge5" class="edge">
<title>Node3&#45;&gt;Node6</title>
<path fill="none" stroke="midnightblue" d="M229.17,-56.32C241.85,-47.98 261.23,-35.21 276.21,-25.35"/>
<polygon fill="midnightblue" stroke="midnightblue" points="278.43,-28.08 284.86,-19.65 274.58,-22.23 278.43,-28.08"/>
</g>
<!-- Node7 -->
<g id="node7" class="node">
<title>Node7</title>
<g id="a_node7"><a xlink:title=" ">
<polygon fill="none" stroke="#bfbfbf" points="55.5,-0.5 55.5,-19.5 102.5,-19.5 102.5,-0.5 55.5,-0.5"/>
<text text-anchor="middle" x="79" y="-7.5" font-family="Helvetica,sans-Serif" font-size="10.00">tchar.h</text>
</a>
</g>
</g>
<!-- Node3&#45;&gt;Node7 -->
<g id="edge6" class="edge">
<title>Node3&#45;&gt;Node7</title>
<path fill="none" stroke="midnightblue" d="M194.29,-56.44C171.65,-47.52 135.93,-33.44 110.25,-23.32"/>
<polygon fill="midnightblue" stroke="midnightblue" points="111.19,-19.93 100.61,-19.52 108.63,-26.44 111.19,-19.93"/>
</g>
<!-- Node8 -->
<g id="node8" class="node">
<title>Node8</title>
<g id="a_node8"><a xlink:title=" ">
<polygon fill="none" stroke="#bfbfbf" points="367,-0.5 367,-19.5 421,-19.5 421,-0.5 367,-0.5"/>
<text text-anchor="middle" x="394" y="-7.5" font-family="Helvetica,sans-Serif" font-size="10.00">strsafe.h</text>
</a>
</g>
</g>
<!-- Node3&#45;&gt;Node8 -->
<g id="edge7" class="edge">
<title>Node3&#45;&gt;Node8</title>
<path fill="none" stroke="midnightblue" d="M244.2,-56.44C274.68,-47.2 323.36,-32.43 356.91,-22.25"/>
<polygon fill="midnightblue" stroke="midnightblue" points="358.25,-25.5 366.8,-19.25 356.22,-18.8 358.25,-25.5"/>
</g>
<!-- Node11&#45;&gt;Node3 -->
<g id="edge11" class="edge">
<title>Node11&#45;&gt;Node3</title>
<path fill="none" stroke="midnightblue" d="M125.35,-112.32C142.67,-103.66 169.52,-90.24 189.5,-80.25"/>
<polygon fill="midnightblue" stroke="midnightblue" points="191.31,-83.26 198.69,-75.65 188.18,-77 191.31,-83.26"/>
</g>
<!-- Node12&#45;&gt;Node2 -->
<g id="edge14" class="edge">
<title>Node12&#45;&gt;Node2</title>
<path fill="none" stroke="midnightblue" d="M373.13,-299.75C374.66,-306.86 375.1,-317.14 374.47,-326.1"/>
<polygon fill="midnightblue" stroke="midnightblue" points="370.99,-325.71 373.17,-336.08 377.93,-326.62 370.99,-325.71"/>
</g>
<!-- Node12&#45;&gt;Node3 -->
<g id="edge13" class="edge">
<title>Node12&#45;&gt;Node3</title>
<path fill="none" stroke="midnightblue" d="M328.42,-284.78C254.87,-274.42 100.63,-240.11 57,-132 39.79,-89.35 101.01,-74.5 152.42,-69.43"/>
<polygon fill="midnightblue" stroke="midnightblue" points="152.89,-72.9 162.55,-68.54 152.28,-65.93 152.89,-72.9"/>
</g>
<!-- Node13 -->
<g id="node13" class="node">
<title>Node13</title>
<g id="a_node13"><a xlink:href="../../d3/de9/_u___controller_8hpp.html" target="_top" xlink:title="Header for U_Controller.cpp.">
<polygon fill="none" stroke="black" points="650.5,-168.5 650.5,-187.5 739.5,-187.5 739.5,-168.5 650.5,-168.5"/>
<text text-anchor="middle" x="695" y="-175.5" font-family="Helvetica,sans-Serif" font-size="10.00">U_Controller.hpp</text>
</a>
</g>
</g>
<!-- Node12&#45;&gt;Node13 -->
<g id="edge15" class="edge">
<title>Node12&#45;&gt;Node13</title>
<path fill="none" stroke="midnightblue" d="M407.74,-285.54C472.47,-279.37 597.34,-265.12 636,-244 656.6,-232.74 673.77,-211.5 684.18,-196.37"/>
<polygon fill="midnightblue" stroke="midnightblue" points="687.19,-198.15 689.76,-187.87 681.34,-194.31 687.19,-198.15"/>
</g>
<!-- Node12&#45;&gt;Node14 -->
<g id="edge34" class="edge">
<title>Node12&#45;&gt;Node14</title>
<path fill="none" stroke="midnightblue" d="M385.38,-280.43C422.22,-264.73 508.87,-229.16 576,-188 600.54,-172.96 626.25,-151.86 644.52,-137.83"/>
<polygon fill="midnightblue" stroke="midnightblue" points="646.96,-140.38 652.86,-131.57 642.76,-134.78 646.96,-140.38"/>
</g>
<!-- Node12&#45;&gt;Node21 -->
<g id="edge33" class="edge">
<title>Node12&#45;&gt;Node21</title>
<path fill="none" stroke="midnightblue" d="M351.21,-280.37C313.94,-261.21 224.11,-215.04 179.71,-192.22"/>
<polygon fill="midnightblue" stroke="midnightblue" points="181.21,-189.05 170.71,-187.59 178.01,-195.28 181.21,-189.05"/>
</g>
<!-- Node22 -->
<g id="node22" class="node">
<title>Node22</title>
<g id="a_node22"><a xlink:href="../../d9/dc9/_u___communication_8hpp.html" target="_top" xlink:title="Header for U_Communication.cpp.">
<polygon fill="none" stroke="black" points="310.5,-224.5 310.5,-243.5 425.5,-243.5 425.5,-224.5 310.5,-224.5"/>
<text text-anchor="middle" x="368" y="-231.5" font-family="Helvetica,sans-Serif" font-size="10.00">U_Communication.hpp</text>
</a>
</g>
</g>
<!-- Node12&#45;&gt;Node22 -->
<g id="edge35" class="edge">
<title>Node12&#45;&gt;Node22</title>
<path fill="none" stroke="midnightblue" d="M362.83,-280.08C361.32,-272.93 360.89,-262.64 361.54,-253.69"/>
<polygon fill="midnightblue" stroke="midnightblue" points="365.02,-254.13 362.87,-243.75 358.08,-253.2 365.02,-254.13"/>
</g>
<!-- Node13&#45;&gt;Node3 -->
<g id="edge16" class="edge">
<title>Node13&#45;&gt;Node3</title>
<path fill="none" stroke="midnightblue" d="M680.72,-168.28C652.94,-151.38 593.39,-115.49 583,-112 554.94,-102.58 376.75,-83.37 279.37,-73.37"/>
<polygon fill="midnightblue" stroke="midnightblue" points="279.65,-69.88 269.34,-72.34 278.94,-76.84 279.65,-69.88"/>
</g>
<!-- Node13&#45;&gt;Node9 -->
<g id="edge17" class="edge">
<title>Node13&#45;&gt;Node9</title>
<path fill="none" stroke="midnightblue" d="M703.71,-168.37C722.35,-149.89 766.35,-106.29 790.11,-82.74"/>
<polygon fill="midnightblue" stroke="midnightblue" points="792.69,-85.12 797.33,-75.59 787.76,-80.14 792.69,-85.12"/>
</g>
<!-- Node13&#45;&gt;Node14 -->
<g id="edge18" class="edge">
<title>Node13&#45;&gt;Node14</title>
<path fill="none" stroke="midnightblue" d="M690.54,-168.08C686.85,-160.69 681.48,-149.95 676.91,-140.81"/>
<polygon fill="midnightblue" stroke="midnightblue" points="679.98,-139.13 672.38,-131.75 673.72,-142.26 679.98,-139.13"/>
</g>
<!-- Node14&#45;&gt;Node3 -->
<g id="edge27" class="edge">
<title>Node14&#45;&gt;Node3</title>
<path fill="none" stroke="midnightblue" d="M630.27,-114.2C625.47,-113.41 620.63,-112.66 616,-112 497.49,-95.09 358.47,-80.66 279.46,-72.97"/>
<polygon fill="midnightblue" stroke="midnightblue" points="279.48,-69.45 269.18,-71.97 278.8,-76.42 279.48,-69.45"/>
</g>
<!-- Node14&#45;&gt;Node8 -->
<g id="edge24" class="edge">
<title>Node14&#45;&gt;Node8</title>
<path fill="none" stroke="midnightblue" d="M630.33,-114.41C563.57,-102.66 431.07,-79.05 427,-76 411.84,-64.65 403.13,-44.35 398.5,-29.45"/>
<polygon fill="midnightblue" stroke="midnightblue" points="401.86,-28.46 395.83,-19.76 395.11,-30.33 401.86,-28.46"/>
</g>
<!-- Node14&#45;&gt;Node9 -->
<g id="edge20" class="edge">
<title>Node14&#45;&gt;Node9</title>
<path fill="none" stroke="midnightblue" d="M689.87,-112.44C712.78,-103.48 748.98,-89.31 774.87,-79.18"/>
<polygon fill="midnightblue" stroke="midnightblue" points="776.2,-82.42 784.24,-75.52 773.65,-75.9 776.2,-82.42"/>
</g>
<!-- Node14&#45;&gt;Node12 -->
<g id="edge32" class="edge">
<title>Node14&#45;&gt;Node12</title>
<path fill="none" stroke="midnightblue" d="M664.09,-131.79C652.37,-145.08 622.4,-170.59 594,-188 531.46,-226.35 451.97,-259.84 405.71,-276.93"/>
<polygon fill="midnightblue" stroke="midnightblue" points="404.29,-273.73 396.08,-280.43 406.67,-280.31 404.29,-273.73"/>
</g>
<!-- Node15 -->
<g id="node15" class="node">
<title>Node15</title>
<g id="a_node15"><a xlink:title=" ">
<polygon fill="none" stroke="#bfbfbf" points="436.5,-56.5 436.5,-75.5 495.5,-75.5 495.5,-56.5 436.5,-56.5"/>
<text text-anchor="middle" x="466" y="-63.5" font-family="Helvetica,sans-Serif" font-size="10.00">Shlwapi.h</text>
</a>
</g>
</g>
<!-- Node14&#45;&gt;Node15 -->
<g id="edge19" class="edge">
<title>Node14&#45;&gt;Node15</title>
<path fill="none" stroke="midnightblue" d="M635.99,-112.44C600.56,-102.97 543.42,-87.7 505.29,-77.5"/>
<polygon fill="midnightblue" stroke="midnightblue" points="506.12,-74.1 495.56,-74.9 504.31,-80.87 506.12,-74.1"/>
</g>
<!-- Node16 -->
<g id="node16" class="node">
<title>Node16</title>
<g id="a_node16"><a xlink:title=" ">
<polygon fill="none" stroke="#bfbfbf" points="513.5,-56.5 513.5,-75.5 554.5,-75.5 554.5,-56.5 513.5,-56.5"/>
<text text-anchor="middle" x="534" y="-63.5" font-family="Helvetica,sans-Serif" font-size="10.00">string</text>
</a>
</g>
</g>
<!-- Node14&#45;&gt;Node16 -->
<g id="edge21" class="edge">
<title>Node14&#45;&gt;Node16</title>
<path fill="none" stroke="midnightblue" d="M646.77,-112.44C624.49,-103.46 589.27,-89.27 564.12,-79.14"/>
<polygon fill="midnightblue" stroke="midnightblue" points="565.28,-75.83 554.69,-75.34 562.66,-82.32 565.28,-75.83"/>
</g>
<!-- Node17 -->
<g id="node17" class="node">
<title>Node17</title>
<g id="a_node17"><a xlink:title=" ">
<polygon fill="none" stroke="#bfbfbf" points="573,-56.5 573,-75.5 627,-75.5 627,-56.5 573,-56.5"/>
<text text-anchor="middle" x="600" y="-63.5" font-family="Helvetica,sans-Serif" font-size="10.00">iostream</text>
</a>
</g>
</g>
<!-- Node14&#45;&gt;Node17 -->
<g id="edge22" class="edge">
<title>Node14&#45;&gt;Node17</title>
<path fill="none" stroke="midnightblue" d="M657.07,-112.32C646.83,-104.18 631.28,-91.84 619,-82.09"/>
<polygon fill="midnightblue" stroke="midnightblue" points="621.13,-79.31 611.12,-75.83 616.78,-84.79 621.13,-79.31"/>
</g>
<!-- Node18 -->
<g id="node18" class="node">
<title>Node18</title>
<g id="a_node18"><a xlink:title=" ">
<polygon fill="none" stroke="#bfbfbf" points="645,-56.5 645,-75.5 707,-75.5 707,-56.5 645,-56.5"/>
<text text-anchor="middle" x="676" y="-63.5" font-family="Helvetica,sans-Serif" font-size="10.00">TlHelp32.h</text>
</a>
</g>
</g>
<!-- Node14&#45;&gt;Node18 -->
<g id="edge23" class="edge">
<title>Node14&#45;&gt;Node18</title>
<path fill="none" stroke="midnightblue" d="M669.32,-112.08C670.38,-104.93 671.91,-94.64 673.23,-85.69"/>
<polygon fill="midnightblue" stroke="midnightblue" points="676.7,-86.16 674.7,-75.75 669.78,-85.13 676.7,-86.16"/>
</g>
<!-- Node19 -->
<g id="node19" class="node">
<title>Node19</title>
<g id="a_node19"><a xlink:title=" ">
<polygon fill="none" stroke="#bfbfbf" points="725,-56.5 725,-75.5 757,-75.5 757,-56.5 725,-56.5"/>
<text text-anchor="middle" x="741" y="-63.5" font-family="Helvetica,sans-Serif" font-size="10.00">io.h</text>
</a>
</g>
</g>
<!-- Node14&#45;&gt;Node19 -->
<g id="edge25" class="edge">
<title>Node14&#45;&gt;Node19</title>
<path fill="none" stroke="midnightblue" d="M679.73,-112.32C690.84,-104.11 707.74,-91.6 720.98,-81.81"/>
<polygon fill="midnightblue" stroke="midnightblue" points="723.1,-84.59 729.06,-75.83 718.94,-78.97 723.1,-84.59"/>
</g>
<!-- Node20 -->
<g id="node20" class="node">
<title>Node20</title>
<g id="a_node20"><a xlink:title=" ">
<polygon fill="none" stroke="#bfbfbf" points="336.5,-56.5 336.5,-75.5 379.5,-75.5 379.5,-56.5 336.5,-56.5"/>
<text text-anchor="middle" x="358" y="-63.5" font-family="Helvetica,sans-Serif" font-size="10.00">fcntl.h</text>
</a>
</g>
</g>
<!-- Node14&#45;&gt;Node20 -->
<g id="edge26" class="edge">
<title>Node14&#45;&gt;Node20</title>
<path fill="none" stroke="midnightblue" d="M630.23,-114.42C625.44,-113.59 620.61,-112.77 616,-112 517.42,-95.48 491.91,-96.14 394,-76 392.54,-75.7 391.05,-75.38 389.55,-75.05"/>
<polygon fill="midnightblue" stroke="midnightblue" points="390.17,-71.6 379.63,-72.72 388.57,-78.41 390.17,-71.6"/>
</g>
<!-- Node14&#45;&gt;Node21 -->
<g id="edge28" class="edge">
<title>Node14&#45;&gt;Node21</title>
<path fill="none" stroke="midnightblue" d="M630.35,-127.92C618.13,-129.25 604.54,-130.69 592,-132 437.35,-148.19 398.6,-151.41 244,-168 229.28,-169.58 213.07,-171.37 198.42,-172.94"/>
<polygon fill="midnightblue" stroke="midnightblue" points="197.66,-169.5 188.08,-174.03 198.39,-176.46 197.66,-169.5"/>
</g>
<!-- Node21&#45;&gt;Node3 -->
<g id="edge29" class="edge">
<title>Node21&#45;&gt;Node3</title>
<path fill="none" stroke="midnightblue" d="M158.87,-168.37C169.05,-150.3 192.79,-108.18 206.24,-84.31"/>
<polygon fill="midnightblue" stroke="midnightblue" points="209.3,-86.02 211.16,-75.59 203.2,-82.58 209.3,-86.02"/>
</g>
<!-- Node21&#45;&gt;Node11 -->
<g id="edge30" class="edge">
<title>Node21&#45;&gt;Node11</title>
<path fill="none" stroke="midnightblue" d="M146.4,-168.08C139.77,-160.3 129.98,-148.8 121.94,-139.37"/>
<polygon fill="midnightblue" stroke="midnightblue" points="124.6,-137.09 115.45,-131.75 119.27,-141.63 124.6,-137.09"/>
</g>
<!-- Node21&#45;&gt;Node14 -->
<g id="edge31" class="edge">
<title>Node21&#45;&gt;Node14</title>
<path fill="none" stroke="midnightblue" d="M188.24,-172.18C200.18,-170.81 213.62,-169.33 226,-168 380.6,-151.41 419.35,-148.19 574,-132 588.87,-130.44 605.2,-128.72 620.09,-127.2"/>
<polygon fill="midnightblue" stroke="midnightblue" points="620.53,-130.67 630.13,-126.18 619.83,-123.71 620.53,-130.67"/>
</g>
<!-- Node22&#45;&gt;Node3 -->
<g id="edge36" class="edge">
<title>Node22&#45;&gt;Node3</title>
<path fill="none" stroke="midnightblue" d="M310.22,-227.12C283.49,-221.37 253.61,-210.09 235,-188 210.53,-158.96 210.96,-111.56 213.45,-85.54"/>
<polygon fill="midnightblue" stroke="midnightblue" points="216.93,-85.86 214.62,-75.52 209.98,-85.05 216.93,-85.86"/>
</g>
<!-- Node22&#45;&gt;Node12 -->
<g id="edge37" class="edge">
<title>Node22&#45;&gt;Node12</title>
<path fill="none" stroke="midnightblue" d="M373.13,-243.75C374.66,-250.86 375.1,-261.14 374.47,-270.1"/>
<polygon fill="midnightblue" stroke="midnightblue" points="370.99,-269.71 373.17,-280.08 377.93,-270.62 370.99,-269.71"/>
</g>
<!-- Node22&#45;&gt;Node21 -->
<g id="edge38" class="edge">
<title>Node22&#45;&gt;Node21</title>
<path fill="none" stroke="midnightblue" d="M334.09,-224.44C297.15,-215.12 237.95,-200.18 197.58,-190"/>
<polygon fill="midnightblue" stroke="midnightblue" points="198.3,-186.57 187.75,-187.52 196.59,-193.36 198.3,-186.57"/>
</g>
<!-- Node23 -->
<g id="node23" class="node">
<title>Node23</title>
<g id="a_node23"><a xlink:href="../../d3/da7/_shared_defs_8hpp.html" target="_top" xlink:title="Header file which contains the structures, type definitions, constants, global variablesand function ...">
<polygon fill="none" stroke="black" points="428,-168.5 428,-187.5 576,-187.5 576,-168.5 428,-168.5"/>
<text text-anchor="middle" x="502" y="-175.5" font-family="Helvetica,sans-Serif" font-size="10.00">../SharedDefs/SharedDefs.hpp</text>
</a>
</g>
</g>
<!-- Node22&#45;&gt;Node23 -->
<g id="edge39" class="edge">
<title>Node22&#45;&gt;Node23</title>
<path fill="none" stroke="midnightblue" d="M389.23,-224.44C411.38,-215.52 446.32,-201.44 471.44,-191.32"/>
<polygon fill="midnightblue" stroke="midnightblue" points="472.9,-194.5 480.87,-187.52 470.28,-188.01 472.9,-194.5"/>
</g>
<!-- Node24 -->
<g id="node24" class="node">
<title>Node24</title>
<g id="a_node24"><a xlink:href="../../da/d14/_u___signature_8hpp.html" target="_top" xlink:title="Header for U_Signature.cpp.">
<polygon fill="none" stroke="black" points="244.5,-168.5 244.5,-187.5 333.5,-187.5 333.5,-168.5 244.5,-168.5"/>
<text text-anchor="middle" x="289" y="-175.5" font-family="Helvetica,sans-Serif" font-size="10.00">U_Signature.hpp</text>
</a>
</g>
</g>
<!-- Node22&#45;&gt;Node24 -->
<g id="edge40" class="edge">
<title>Node22&#45;&gt;Node24</title>
<path fill="none" stroke="midnightblue" d="M355.31,-224.32C343.1,-215.98 324.42,-203.21 310,-193.35"/>
<polygon fill="midnightblue" stroke="midnightblue" points="311.89,-190.41 301.66,-187.65 307.94,-196.19 311.89,-190.41"/>
</g>
<!-- Node29 -->
<g id="node29" class="node">
<title>Node29</title>
<g id="a_node29"><a xlink:title=" ">
<polygon fill="none" stroke="#bfbfbf" points="352,-168.5 352,-187.5 410,-187.5 410,-168.5 352,-168.5"/>
<text text-anchor="middle" x="381" y="-175.5" font-family="Helvetica,sans-Serif" font-size="10.00">winternl.h</text>
</a>
</g>
</g>
<!-- Node22&#45;&gt;Node29 -->
<g id="edge46" class="edge">
<title>Node22&#45;&gt;Node29</title>
<path fill="none" stroke="midnightblue" d="M370.15,-224.08C371.87,-216.93 374.35,-206.64 376.5,-197.69"/>
<polygon fill="midnightblue" stroke="midnightblue" points="379.96,-198.29 378.89,-187.75 373.15,-196.65 379.96,-198.29"/>
</g>
<!-- Node24&#45;&gt;Node3 -->
<g id="edge41" class="edge">
<title>Node24&#45;&gt;Node3</title>
<path fill="none" stroke="midnightblue" d="M330.82,-168.44C369.79,-158.54 418.84,-139.93 397,-112 382.41,-93.34 325.41,-81.32 279.22,-74.43"/>
<polygon fill="midnightblue" stroke="midnightblue" points="279.64,-70.96 269.25,-73 278.65,-77.89 279.64,-70.96"/>
</g>
<!-- Node25 -->
<g id="node25" class="node">
<title>Node25</title>
<g id="a_node25"><a xlink:title=" ">
<polygon fill="none" stroke="#bfbfbf" points="244.5,-112.5 244.5,-131.5 305.5,-131.5 305.5,-112.5 244.5,-112.5"/>
<text text-anchor="middle" x="275" y="-119.5" font-family="Helvetica,sans-Serif" font-size="10.00">wincrypt.h</text>
</a>
</g>
</g>
<!-- Node24&#45;&gt;Node25 -->
<g id="edge42" class="edge">
<title>Node24&#45;&gt;Node25</title>
<path fill="none" stroke="midnightblue" d="M286.69,-168.08C284.83,-160.93 282.16,-150.64 279.85,-141.69"/>
<polygon fill="midnightblue" stroke="midnightblue" points="283.17,-140.55 277.27,-131.75 276.39,-142.31 283.17,-140.55"/>
</g>
<!-- Node26 -->
<g id="node26" class="node">
<title>Node26</title>
<g id="a_node26"><a xlink:title=" ">
<polygon fill="none" stroke="#bfbfbf" points="324,-112.5 324,-131.5 388,-131.5 388,-112.5 324,-112.5"/>
<text text-anchor="middle" x="356" y="-119.5" font-family="Helvetica,sans-Serif" font-size="10.00">WinTrust.h</text>
</a>
</g>
</g>
<!-- Node24&#45;&gt;Node26 -->
<g id="edge43" class="edge">
<title>Node24&#45;&gt;Node26</title>
<path fill="none" stroke="midnightblue" d="M299.76,-168.32C309.77,-160.26 324.89,-148.08 336.93,-138.37"/>
<polygon fill="midnightblue" stroke="midnightblue" points="339.45,-140.83 345.04,-131.83 335.06,-135.38 339.45,-140.83"/>
</g>
<!-- Node27 -->
<g id="node27" class="node">
<title>Node27</title>
<g id="a_node27"><a xlink:title=" ">
<polygon fill="none" stroke="#bfbfbf" points="444.5,-112.5 444.5,-131.5 503.5,-131.5 503.5,-112.5 444.5,-112.5"/>
<text text-anchor="middle" x="474" y="-119.5" font-family="Helvetica,sans-Serif" font-size="10.00">SoftPub.h</text>
</a>
</g>
</g>
<!-- Node24&#45;&gt;Node27 -->
<g id="edge44" class="edge">
<title>Node24&#45;&gt;Node27</title>
<path fill="none" stroke="midnightblue" d="M318.31,-168.44C349.84,-159.24 400.13,-144.56 434.99,-134.39"/>
<polygon fill="midnightblue" stroke="midnightblue" points="436.2,-137.68 444.82,-131.52 434.24,-130.96 436.2,-137.68"/>
</g>
<!-- Node28 -->
<g id="node28" class="node">
<title>Node28</title>
<g id="a_node28"><a xlink:title=" ">
<polygon fill="none" stroke="#bfbfbf" points="522,-112.5 522,-131.5 574,-131.5 574,-112.5 522,-112.5"/>
<text text-anchor="middle" x="548" y="-119.5" font-family="Helvetica,sans-Serif" font-size="10.00">mscat.h</text>
</a>
</g>
</g>
<!-- Node24&#45;&gt;Node28 -->
<g id="edge45" class="edge">
<title>Node24&#45;&gt;Node28</title>
<path fill="none" stroke="midnightblue" d="M333.55,-168.63C376.55,-160.42 443.7,-147.23 511.66,-131.99"/>
<polygon fill="midnightblue" stroke="midnightblue" points="512.7,-135.34 521.69,-129.73 511.16,-128.51 512.7,-135.34"/>
</g>
</g>
</svg>
