<?xml version="1.0" encoding="UTF-8" standalone="no"?>
<!DOCTYPE svg PUBLIC "-//W3C//DTD SVG 1.1//EN"
 "http://www.w3.org/Graphics/SVG/1.1/DTD/svg11.dtd">
<!-- Generated by graphviz version 5.0.0 (20220707.1540)
 -->
<!-- Title: K_Driver.cpp Pages: 1 -->
<!--zoomable 420 -->
<svg id="main" version="1.1" xmlns="http://www.w3.org/2000/svg" xmlns:xlink="http://www.w3.org/1999/xlink" xml:space="preserve" onload="init(evt)">
<style type="text/css"><![CDATA[
.edge:hover path { stroke: red; }
.edge:hover polygon { stroke: red; fill: red; }
]]></style>
<script type="text/javascript"><![CDATA[
var edges = document.getElementsByTagName('g');
if (edges && edges.length) {
  for (var i=0;i<edges.length;i++) {
    if (edges[i].id.substr(0,4)=='edge') {
      edges[i].setAttribute('class','edge');
    }
  }
}
]]></script>
        <defs>
                <circle id="rim" cx="0" cy="0" r="7"/>
                <circle id="rim2" cx="0" cy="0" r="3.5"/>
                <g id="zoomPlus">
                        <use xlink:href="#rim" fill="#404040">
                                <set attributeName="fill" to="#808080" begin="zoomplus.mouseover" end="zoomplus.mouseout"/>
                        </use>
                        <path d="M-4,0h8M0,-4v8" fill="none" stroke="white" stroke-width="1.5" pointer-events="none"/>
                </g>
                <g id="zoomMin">
                        <use xlink:href="#rim" fill="#404040">
                                <set attributeName="fill" to="#808080" begin="zoomminus.mouseover" end="zoomminus.mouseout"/>
                        </use>
                        <path d="M-4,0h8" fill="none" stroke="white" stroke-width="1.5" pointer-events="none"/>
                </g>
                <g id="dirArrow">
                        <path fill="none" stroke="white" stroke-width="1.5" d="M0,-3.0v7 M-2.5,-0.5L0,-3.0L2.5,-0.5"/>
                </g>
               <g id="resetDef">
                       <use xlink:href="#rim2" fill="#404040">
                               <set attributeName="fill" to="#808080" begin="reset.mouseover" end="reset.mouseout"/>
                       </use>
               </g>
        </defs>

<script type="text/javascript">
var viewWidth = 591;
var viewHeight = 420;
var sectionId = 'dynsection-0';
</script>
<script xlink:href="../../svgpan.js"/>
<svg id="graph" class="graph">
<g id="viewport">
<title>K_Driver.cpp</title>
<!-- Node1 -->
<g id="node1" class="node">
<title>Node1</title>
<g id="a_node1"><a xlink:title="Entrypoint of the driver, unload routine.">
<polygon fill="#bfbfbf" stroke="black" points="287.5,-392.5 287.5,-411.5 358.5,-411.5 358.5,-392.5 287.5,-392.5"/>
<text text-anchor="middle" x="323" y="-399.5" font-family="Helvetica,sans-Serif" font-size="10.00">K_Driver.cpp</text>
</a>
</g>
</g>
<!-- Node2 -->
<g id="node2" class="node">
<title>Node2</title>
<g id="a_node2"><a xlink:href="../../d3/d02/_k___driver_8hpp.html" target="_top" xlink:title="Header for K_Driver.cpp.">
<polygon fill="none" stroke="black" points="242.5,-336.5 242.5,-355.5 313.5,-355.5 313.5,-336.5 242.5,-336.5"/>
<text text-anchor="middle" x="278" y="-343.5" font-family="Helvetica,sans-Serif" font-size="10.00">K_Driver.hpp</text>
</a>
</g>
</g>
<!-- Node1&#45;&gt;Node2 -->
<g id="edge1" class="edge">
<title>Node1&#45;&gt;Node2</title>
<path fill="none" stroke="midnightblue" d="M315.57,-392.08C309.15,-384.38 299.69,-373.03 291.88,-363.65"/>
<polygon fill="midnightblue" stroke="midnightblue" points="294.38,-361.19 285.29,-355.75 289.01,-365.67 294.38,-361.19"/>
</g>
<!-- Node18 -->
<g id="node18" class="node">
<title>Node18</title>
<g id="a_node18"><a xlink:title=" ">
<polygon fill="none" stroke="#bfbfbf" points="332,-336.5 332,-355.5 404,-355.5 404,-336.5 332,-336.5"/>
<text text-anchor="middle" x="368" y="-343.5" font-family="Helvetica,sans-Serif" font-size="10.00">K_Driver.tmh</text>
</a>
</g>
</g>
<!-- Node1&#45;&gt;Node18 -->
<g id="edge31" class="edge">
<title>Node1&#45;&gt;Node18</title>
<path fill="none" stroke="midnightblue" d="M330.43,-392.08C336.85,-384.38 346.31,-373.03 354.12,-363.65"/>
<polygon fill="midnightblue" stroke="midnightblue" points="356.99,-365.67 360.71,-355.75 351.62,-361.19 356.99,-365.67"/>
</g>
<!-- Node3 -->
<g id="node3" class="node">
<title>Node3</title>
<g id="a_node3"><a xlink:href="../../d6/d00/_k___global_header_8hpp.html" target="_top" xlink:title="Header used by several .cpp files.">
<polygon fill="none" stroke="black" points="221,-112.5 221,-131.5 327,-131.5 327,-112.5 221,-112.5"/>
<text text-anchor="middle" x="274" y="-119.5" font-family="Helvetica,sans-Serif" font-size="10.00">K_GlobalHeader.hpp</text>
</a>
</g>
</g>
<!-- Node2&#45;&gt;Node3 -->
<g id="edge2" class="edge">
<title>Node2&#45;&gt;Node3</title>
<path fill="none" stroke="midnightblue" d="M250.82,-336.39C233.86,-329.46 213.33,-317.88 203,-300 173.64,-249.2 172.4,-219.23 201,-168 209.16,-153.39 224.22,-142.94 238.55,-135.8"/>
<polygon fill="midnightblue" stroke="midnightblue" points="240.15,-138.92 247.79,-131.59 237.24,-132.56 240.15,-138.92"/>
</g>
<!-- Node12 -->
<g id="node12" class="node">
<title>Node12</title>
<g id="a_node12"><a xlink:href="../../d8/d02/_k___configuration_8hpp.html" target="_top" xlink:title="Header for K_Configuration.cpp.">
<polygon fill="none" stroke="black" points="227,-224.5 227,-243.5 331,-243.5 331,-224.5 227,-224.5"/>
<text text-anchor="middle" x="279" y="-231.5" font-family="Helvetica,sans-Serif" font-size="10.00">K_Configuration.hpp</text>
</a>
</g>
</g>
<!-- Node2&#45;&gt;Node12 -->
<g id="edge12" class="edge">
<title>Node2&#45;&gt;Node12</title>
<path fill="none" stroke="midnightblue" d="M281.34,-336.2C284.55,-327.24 289.18,-312.88 291,-300 293.24,-284.2 289.5,-266.38 285.62,-253.41"/>
<polygon fill="midnightblue" stroke="midnightblue" points="288.91,-252.2 282.46,-243.79 282.26,-254.39 288.91,-252.2"/>
</g>
<!-- Node15 -->
<g id="node15" class="node">
<title>Node15</title>
<g id="a_node15"><a xlink:href="../../db/d02/_k___filter_8hpp.html" target="_top" xlink:title="Header for K_Filter.cpp.">
<polygon fill="none" stroke="black" points="212.5,-280.5 212.5,-299.5 281.5,-299.5 281.5,-280.5 212.5,-280.5"/>
<text text-anchor="middle" x="247" y="-287.5" font-family="Helvetica,sans-Serif" font-size="10.00">K_Filter.hpp</text>
</a>
</g>
</g>
<!-- Node2&#45;&gt;Node15 -->
<g id="edge18" class="edge">
<title>Node2&#45;&gt;Node15</title>
<path fill="none" stroke="midnightblue" d="M272.88,-336.08C268.59,-328.61 262.34,-317.72 257.06,-308.52"/>
<polygon fill="midnightblue" stroke="midnightblue" points="260.04,-306.68 252.02,-299.75 253.97,-310.17 260.04,-306.68"/>
</g>
<!-- Node17 -->
<g id="node17" class="node">
<title>Node17</title>
<g id="a_node17"><a xlink:href="../../d5/d01/_k___ob_callback_8hpp.html" target="_top" xlink:title="Header for K_ObCallback.cpp.">
<polygon fill="none" stroke="black" points="412,-280.5 412,-299.5 510,-299.5 510,-280.5 412,-280.5"/>
<text text-anchor="middle" x="461" y="-287.5" font-family="Helvetica,sans-Serif" font-size="10.00">K_ObCallback.hpp</text>
</a>
</g>
</g>
<!-- Node2&#45;&gt;Node17 -->
<g id="edge26" class="edge">
<title>Node2&#45;&gt;Node17</title>
<path fill="none" stroke="midnightblue" d="M307,-336.44C338.18,-327.24 387.93,-312.56 422.41,-302.39"/>
<polygon fill="midnightblue" stroke="midnightblue" points="423.54,-305.7 432.14,-299.52 421.56,-298.99 423.54,-305.7"/>
</g>
<!-- Node4 -->
<g id="node4" class="node">
<title>Node4</title>
<g id="a_node4"><a xlink:title=" ">
<polygon fill="none" stroke="#bfbfbf" points="197.5,-56.5 197.5,-75.5 240.5,-75.5 240.5,-56.5 197.5,-56.5"/>
<text text-anchor="middle" x="219" y="-63.5" font-family="Helvetica,sans-Serif" font-size="10.00">ntifs.h</text>
</a>
</g>
</g>
<!-- Node3&#45;&gt;Node4 -->
<g id="edge3" class="edge">
<title>Node3&#45;&gt;Node4</title>
<path fill="none" stroke="midnightblue" d="M264.92,-112.08C256.83,-104.14 244.8,-92.34 235.09,-82.8"/>
<polygon fill="midnightblue" stroke="midnightblue" points="237.5,-80.26 227.91,-75.75 232.6,-85.25 237.5,-80.26"/>
</g>
<!-- Node5 -->
<g id="node5" class="node">
<title>Node5</title>
<g id="a_node5"><a xlink:title=" ">
<polygon fill="none" stroke="#bfbfbf" points="258.5,-56.5 258.5,-75.5 303.5,-75.5 303.5,-56.5 258.5,-56.5"/>
<text text-anchor="middle" x="281" y="-63.5" font-family="Helvetica,sans-Serif" font-size="10.00">wdm.h</text>
</a>
</g>
</g>
<!-- Node3&#45;&gt;Node5 -->
<g id="edge4" class="edge">
<title>Node3&#45;&gt;Node5</title>
<path fill="none" stroke="midnightblue" d="M275.16,-112.08C276.08,-104.93 277.42,-94.64 278.58,-85.69"/>
<polygon fill="midnightblue" stroke="midnightblue" points="282.05,-86.12 279.87,-75.75 275.11,-85.22 282.05,-86.12"/>
</g>
<!-- Node6 -->
<g id="node6" class="node">
<title>Node6</title>
<g id="a_node6"><a xlink:title=" ">
<polygon fill="none" stroke="#bfbfbf" points="322,-56.5 322,-75.5 382,-75.5 382,-56.5 322,-56.5"/>
<text text-anchor="middle" x="352" y="-63.5" font-family="Helvetica,sans-Serif" font-size="10.00">fltKernel.h</text>
</a>
</g>
</g>
<!-- Node3&#45;&gt;Node6 -->
<g id="edge5" class="edge">
<title>Node3&#45;&gt;Node6</title>
<path fill="none" stroke="midnightblue" d="M286.53,-112.32C298.59,-103.98 317.03,-91.21 331.27,-81.35"/>
<polygon fill="midnightblue" stroke="midnightblue" points="333.27,-84.22 339.5,-75.65 329.28,-78.47 333.27,-84.22"/>
</g>
<!-- Node7 -->
<g id="node7" class="node">
<title>Node7</title>
<g id="a_node7"><a xlink:title=" ">
<polygon fill="none" stroke="#bfbfbf" points="0,-56.5 0,-75.5 62,-75.5 62,-56.5 0,-56.5"/>
<text text-anchor="middle" x="31" y="-63.5" font-family="Helvetica,sans-Serif" font-size="10.00">ntstrsafe.h</text>
</a>
</g>
</g>
<!-- Node3&#45;&gt;Node7 -->
<g id="edge6" class="edge">
<title>Node3&#45;&gt;Node7</title>
<path fill="none" stroke="midnightblue" d="M235.45,-112.49C196.69,-103.93 134.92,-90.26 72.1,-76.24"/>
<polygon fill="midnightblue" stroke="midnightblue" points="72.53,-72.75 62.01,-73.99 71,-79.58 72.53,-72.75"/>
</g>
<!-- Node8 -->
<g id="node8" class="node">
<title>Node8</title>
<g id="a_node8"><a xlink:href="../../df/d00/_k___wpp_tracing_8hpp.html" target="_top" xlink:title="WppTracing header.">
<polygon fill="none" stroke="black" points="80.5,-56.5 80.5,-75.5 179.5,-75.5 179.5,-56.5 80.5,-56.5"/>
<text text-anchor="middle" x="130" y="-63.5" font-family="Helvetica,sans-Serif" font-size="10.00">K_WppTracing.hpp</text>
</a>
</g>
</g>
<!-- Node3&#45;&gt;Node8 -->
<g id="edge7" class="edge">
<title>Node3&#45;&gt;Node8</title>
<path fill="none" stroke="midnightblue" d="M251.18,-112.44C227.17,-103.44 189.17,-89.19 162.13,-79.05"/>
<polygon fill="midnightblue" stroke="midnightblue" points="163.3,-75.75 152.71,-75.52 160.84,-82.3 163.3,-75.75"/>
</g>
<!-- Node9 -->
<g id="node9" class="node">
<title>Node9</title>
<g id="a_node9"><a xlink:href="../../d0/d00/_k___helper_8hpp.html" target="_top" xlink:title="Header for K_Helper.cpp.">
<polygon fill="none" stroke="black" points="400.5,-56.5 400.5,-75.5 475.5,-75.5 475.5,-56.5 400.5,-56.5"/>
<text text-anchor="middle" x="438" y="-63.5" font-family="Helvetica,sans-Serif" font-size="10.00">K_Helper.hpp</text>
</a>
</g>
</g>
<!-- Node3&#45;&gt;Node9 -->
<g id="edge8" class="edge">
<title>Node3&#45;&gt;Node9</title>
<path fill="none" stroke="midnightblue" d="M294.9,-112.44C320.72,-103.28 364.85,-88.69 397.37,-78.52"/>
<polygon fill="midnightblue" stroke="midnightblue" points="398.54,-81.82 407.06,-75.52 396.47,-75.13 398.54,-81.82"/>
</g>
<!-- Node9&#45;&gt;Node3 -->
<g id="edge9" class="edge">
<title>Node9&#45;&gt;Node3</title>
<path fill="none" stroke="midnightblue" d="M417.22,-75.52C391.45,-84.66 347.33,-99.26 314.77,-109.44"/>
<polygon fill="midnightblue" stroke="midnightblue" points="313.59,-106.14 305.08,-112.44 315.66,-112.82 313.59,-106.14"/>
</g>
<!-- Node10 -->
<g id="node10" class="node">
<title>Node10</title>
<g id="a_node10"><a xlink:href="../../d3/d03/_shared_defs_8hpp.html" target="_top" xlink:title="Header file which contains the structures, type definitions, constants, global variablesand function ...">
<polygon fill="none" stroke="black" points="435,-0.5 435,-19.5 583,-19.5 583,-0.5 435,-0.5"/>
<text text-anchor="middle" x="509" y="-7.5" font-family="Helvetica,sans-Serif" font-size="10.00">../SharedDefs/SharedDefs.hpp</text>
</a>
</g>
</g>
<!-- Node9&#45;&gt;Node10 -->
<g id="edge10" class="edge">
<title>Node9&#45;&gt;Node10</title>
<path fill="none" stroke="midnightblue" d="M449.41,-56.32C460.11,-48.18 476.34,-35.84 489.16,-26.09"/>
<polygon fill="midnightblue" stroke="midnightblue" points="491.54,-28.67 497.39,-19.83 487.31,-23.1 491.54,-28.67"/>
</g>
<!-- Node11 -->
<g id="node11" class="node">
<title>Node11</title>
<g id="a_node11"><a xlink:title=" ">
<polygon fill="none" stroke="#bfbfbf" points="365,-0.5 365,-19.5 417,-19.5 417,-0.5 365,-0.5"/>
<text text-anchor="middle" x="391" y="-7.5" font-family="Helvetica,sans-Serif" font-size="10.00">bcrypt.h</text>
</a>
</g>
</g>
<!-- Node9&#45;&gt;Node11 -->
<g id="edge11" class="edge">
<title>Node9&#45;&gt;Node11</title>
<path fill="none" stroke="midnightblue" d="M430.24,-56.08C423.46,-48.3 413.46,-36.8 405.24,-27.37"/>
<polygon fill="midnightblue" stroke="midnightblue" points="407.82,-25 398.62,-19.75 402.54,-29.59 407.82,-25"/>
</g>
<!-- Node12&#45;&gt;Node3 -->
<g id="edge13" class="edge">
<title>Node12&#45;&gt;Node3</title>
<path fill="none" stroke="midnightblue" d="M258.15,-224.43C243.42,-217.13 224.8,-205.09 216,-188 205.56,-167.71 227.57,-148.76 247.42,-136.61"/>
<polygon fill="midnightblue" stroke="midnightblue" points="249.33,-139.55 256.25,-131.53 245.84,-133.48 249.33,-139.55"/>
</g>
<!-- Node13 -->
<g id="node13" class="node">
<title>Node13</title>
<g id="a_node13"><a xlink:href="../../d8/d02/_k___cache_8hpp.html" target="_top" xlink:title="Header for K_Cache.cpp.">
<polygon fill="none" stroke="black" points="225.5,-168.5 225.5,-187.5 300.5,-187.5 300.5,-168.5 225.5,-168.5"/>
<text text-anchor="middle" x="263" y="-175.5" font-family="Helvetica,sans-Serif" font-size="10.00">K_Cache.hpp</text>
</a>
</g>
</g>
<!-- Node12&#45;&gt;Node13 -->
<g id="edge14" class="edge">
<title>Node12&#45;&gt;Node13</title>
<path fill="none" stroke="midnightblue" d="M276.36,-224.08C274.21,-216.85 271.12,-206.41 268.45,-197.4"/>
<polygon fill="midnightblue" stroke="midnightblue" points="271.79,-196.34 265.59,-187.75 265.08,-198.33 271.79,-196.34"/>
</g>
<!-- Node14 -->
<g id="node14" class="node">
<title>Node14</title>
<g id="a_node14"><a xlink:href="../../d6/d03/_k___whitelist_8hpp.html" target="_top" xlink:title="Header for K_Whitelist.cpp.">
<polygon fill="none" stroke="black" points="319,-168.5 319,-187.5 405,-187.5 405,-168.5 319,-168.5"/>
<text text-anchor="middle" x="362" y="-175.5" font-family="Helvetica,sans-Serif" font-size="10.00">K_Whitelist.hpp</text>
</a>
</g>
</g>
<!-- Node12&#45;&gt;Node14 -->
<g id="edge16" class="edge">
<title>Node12&#45;&gt;Node14</title>
<path fill="none" stroke="midnightblue" d="M292.34,-224.32C305.16,-215.98 324.78,-203.21 339.94,-193.35"/>
<polygon fill="midnightblue" stroke="midnightblue" points="342.22,-196.04 348.7,-187.65 338.41,-190.17 342.22,-196.04"/>
</g>
<!-- Node13&#45;&gt;Node3 -->
<g id="edge15" class="edge">
<title>Node13&#45;&gt;Node3</title>
<path fill="none" stroke="midnightblue" d="M264.82,-168.08C266.27,-160.93 268.37,-150.64 270.19,-141.69"/>
<polygon fill="midnightblue" stroke="midnightblue" points="273.65,-142.25 272.22,-131.75 266.79,-140.85 273.65,-142.25"/>
</g>
<!-- Node14&#45;&gt;Node3 -->
<g id="edge17" class="edge">
<title>Node14&#45;&gt;Node3</title>
<path fill="none" stroke="midnightblue" d="M347.86,-168.32C334.13,-159.9 313.06,-146.97 296.94,-137.07"/>
<polygon fill="midnightblue" stroke="midnightblue" points="298.46,-133.9 288.1,-131.65 294.8,-139.87 298.46,-133.9"/>
</g>
<!-- Node15&#45;&gt;Node3 -->
<g id="edge19" class="edge">
<title>Node15&#45;&gt;Node3</title>
<path fill="none" stroke="midnightblue" d="M240.03,-280.38C224.41,-259.95 189.55,-207.38 210,-168 217.15,-154.23 230.67,-143.78 243.45,-136.44"/>
<polygon fill="midnightblue" stroke="midnightblue" points="245.32,-139.41 252.52,-131.64 242.04,-133.23 245.32,-139.41"/>
</g>
<!-- Node15&#45;&gt;Node7 -->
<g id="edge20" class="edge">
<title>Node15&#45;&gt;Node7</title>
<path fill="none" stroke="midnightblue" d="M238.53,-280.3C206.08,-246.94 89.3,-126.92 46.7,-83.13"/>
<polygon fill="midnightblue" stroke="midnightblue" points="49.13,-80.61 39.64,-75.88 44.11,-85.49 49.13,-80.61"/>
</g>
<!-- Node15&#45;&gt;Node9 -->
<g id="edge21" class="edge">
<title>Node15&#45;&gt;Node9</title>
<path fill="none" stroke="midnightblue" d="M276.13,-280.49C314.91,-267.49 382.26,-238.69 414,-188 434.01,-156.05 437.85,-110.82 438.29,-85.69"/>
<polygon fill="midnightblue" stroke="midnightblue" points="441.79,-85.68 438.31,-75.67 434.79,-85.67 441.79,-85.68"/>
</g>
<!-- Node15&#45;&gt;Node12 -->
<g id="edge22" class="edge">
<title>Node15&#45;&gt;Node12</title>
<path fill="none" stroke="midnightblue" d="M252.28,-280.08C256.71,-272.61 263.16,-261.72 268.62,-252.52"/>
<polygon fill="midnightblue" stroke="midnightblue" points="271.73,-254.14 273.81,-243.75 265.71,-250.57 271.73,-254.14"/>
</g>
<!-- Node16 -->
<g id="node16" class="node">
<title>Node16</title>
<g id="a_node16"><a xlink:href="../../d6/d03/_k___communication_8hpp.html" target="_top" xlink:title="Header for K_Communication.cpp.">
<polygon fill="none" stroke="black" points="403.5,-224.5 403.5,-243.5 518.5,-243.5 518.5,-224.5 403.5,-224.5"/>
<text text-anchor="middle" x="461" y="-231.5" font-family="Helvetica,sans-Serif" font-size="10.00">K_Communication.hpp</text>
</a>
</g>
</g>
<!-- Node15&#45;&gt;Node16 -->
<g id="edge23" class="edge">
<title>Node15&#45;&gt;Node16</title>
<path fill="none" stroke="midnightblue" d="M280.91,-280.44C317.85,-271.12 377.05,-256.18 417.42,-246"/>
<polygon fill="midnightblue" stroke="midnightblue" points="418.41,-249.36 427.25,-243.52 416.7,-242.57 418.41,-249.36"/>
</g>
<!-- Node16&#45;&gt;Node3 -->
<g id="edge24" class="edge">
<title>Node16&#45;&gt;Node3</title>
<path fill="none" stroke="midnightblue" d="M457.08,-224.49C450.27,-210.63 434.96,-183.22 414,-168 391.1,-151.38 361.78,-140.71 335.9,-133.96"/>
<polygon fill="midnightblue" stroke="midnightblue" points="336.72,-130.56 326.17,-131.56 335.04,-137.36 336.72,-130.56"/>
</g>
<!-- Node16&#45;&gt;Node10 -->
<g id="edge25" class="edge">
<title>Node16&#45;&gt;Node10</title>
<path fill="none" stroke="midnightblue" d="M462.88,-224.3C469.96,-191.56 495.08,-75.38 504.96,-29.67"/>
<polygon fill="midnightblue" stroke="midnightblue" points="508.39,-30.4 507.08,-19.88 501.54,-28.92 508.39,-30.4"/>
</g>
<!-- Node17&#45;&gt;Node3 -->
<g id="edge27" class="edge">
<title>Node17&#45;&gt;Node3</title>
<path fill="none" stroke="midnightblue" d="M482.28,-280.47C506.64,-269.33 541.54,-248.37 528,-224 490.83,-157.1 399.69,-134.41 337.33,-126.77"/>
<polygon fill="midnightblue" stroke="midnightblue" points="337.53,-123.27 327.2,-125.63 336.74,-130.23 337.53,-123.27"/>
</g>
<!-- Node17&#45;&gt;Node9 -->
<g id="edge28" class="edge">
<title>Node17&#45;&gt;Node9</title>
<path fill="none" stroke="midnightblue" d="M492.81,-280.38C510.95,-273.66 532.16,-262.31 543,-244 547.53,-236.35 545.58,-232.51 543,-224 525.38,-165.96 478.4,-109.82 453.69,-83.14"/>
<polygon fill="midnightblue" stroke="midnightblue" points="455.93,-80.42 446.52,-75.55 450.84,-85.22 455.93,-80.42"/>
</g>
<!-- Node17&#45;&gt;Node12 -->
<g id="edge30" class="edge">
<title>Node17&#45;&gt;Node12</title>
<path fill="none" stroke="midnightblue" d="M432.16,-280.44C401.14,-271.24 351.67,-256.56 317.38,-246.39"/>
<polygon fill="midnightblue" stroke="midnightblue" points="318.29,-243.01 307.7,-243.52 316.29,-249.72 318.29,-243.01"/>
</g>
<!-- Node17&#45;&gt;Node16 -->
<g id="edge29" class="edge">
<title>Node17&#45;&gt;Node16</title>
<path fill="none" stroke="midnightblue" d="M461,-280.08C461,-273.01 461,-262.86 461,-253.99"/>
<polygon fill="midnightblue" stroke="midnightblue" points="464.5,-253.75 461,-243.75 457.5,-253.75 464.5,-253.75"/>
</g>
</g>
</svg>
        <g id="navigator" transform="translate(0 0)" fill="#404254">
                <rect fill="#f2f5e9" fill-opacity="0.5" stroke="#606060" stroke-width=".5" x="0" y="0" width="60" height="60"/>
                <use id="zoomplus" xlink:href="#zoomPlus" x="17" y="9" onmousedown="handleZoom(evt,'in')"/>
                <use id="zoomminus" xlink:href="#zoomMin" x="42" y="9" onmousedown="handleZoom(evt,'out')"/>
                <use id="reset" xlink:href="#resetDef" x="30" y="36" onmousedown="handleReset()"/>
                <g id="arrowUp" xlink:href="#dirArrow" transform="translate(30 24)" onmousedown="handlePan(0,-1)">
                  <use xlink:href="#rim" fill="#404040">
                        <set attributeName="fill" to="#808080" begin="arrowUp.mouseover" end="arrowUp.mouseout"/>
                  </use>
                  <path fill="none" stroke="white" stroke-width="1.5" d="M0,-3.0v7 M-2.5,-0.5L0,-3.0L2.5,-0.5"/>
                </g>
                <g id="arrowRight" xlink:href="#dirArrow" transform="rotate(90) translate(36 -43)" onmousedown="handlePan(1,0)">
                  <use xlink:href="#rim" fill="#404040">
                        <set attributeName="fill" to="#808080" begin="arrowRight.mouseover" end="arrowRight.mouseout"/>
                  </use>
                  <path fill="none" stroke="white" stroke-width="1.5" d="M0,-3.0v7 M-2.5,-0.5L0,-3.0L2.5,-0.5"/>
                </g>
                <g id="arrowDown" xlink:href="#dirArrow" transform="rotate(180) translate(-30 -48)" onmousedown="handlePan(0,1)">
                  <use xlink:href="#rim" fill="#404040">
                        <set attributeName="fill" to="#808080" begin="arrowDown.mouseover" end="arrowDown.mouseout"/>
                  </use>
                  <path fill="none" stroke="white" stroke-width="1.5" d="M0,-3.0v7 M-2.5,-0.5L0,-3.0L2.5,-0.5"/>
                </g>
                <g id="arrowLeft" xlink:href="#dirArrow" transform="rotate(270) translate(-36 17)" onmousedown="handlePan(-1,0)">
                  <use xlink:href="#rim" fill="#404040">
                        <set attributeName="fill" to="#808080" begin="arrowLeft.mouseover" end="arrowLeft.mouseout"/>
                  </use>
                  <path fill="none" stroke="white" stroke-width="1.5" d="M0,-3.0v7 M-2.5,-0.5L0,-3.0L2.5,-0.5"/>
                </g>
        </g>
        <svg viewBox="0 0 15 15" width="100%" height="30px" preserveAspectRatio="xMaxYMin meet">
         <g id="arrow_out" transform="scale(0.3 0.3)">
          <a xlink:href="_k___driver_8cpp__incl_org.svg" target="_base">
           <rect id="button" ry="5" rx="5" y="6" x="6" height="38" width="38"
                fill="#f2f5e9" fill-opacity="0.5" stroke="#606060" stroke-width="1.0"/>
           <path id="arrow"
             d="M 11.500037,31.436501 C 11.940474,20.09759 22.043105,11.32322 32.158766,21.979434 L 37.068811,17.246167 C 37.068811,17.246167 37.088388,32 37.088388,32 L 22.160133,31.978069 C 22.160133,31.978069 26.997745,27.140456 26.997745,27.140456 C 18.528582,18.264221 13.291696,25.230495 11.500037,31.436501 z"
             style="fill:#404040;"/>
          </a>
         </g>
        </svg>
</svg>
