<?xml version="1.0" encoding="UTF-8" standalone="no"?>
<!DOCTYPE svg PUBLIC "-//W3C//DTD SVG 1.1//EN"
 "http://www.w3.org/Graphics/SVG/1.1/DTD/svg11.dtd">
<!-- Generated by graphviz version 5.0.0 (20220707.1540)
 -->
<!-- Title: U_HELPER::PrintMessage Pages: 1 -->
<!--zoomable 173 -->
<svg id="main" version="1.1" xmlns="http://www.w3.org/2000/svg" xmlns:xlink="http://www.w3.org/1999/xlink" xml:space="preserve" onload="init(evt)">
<style type="text/css"><![CDATA[
.edge:hover path { stroke: red; }
.edge:hover polygon { stroke: red; fill: red; }
]]></style>
<script type="text/javascript"><![CDATA[
var edges = document.getElementsByTagName('g');
if (edges && edges.length) {
  for (var i=0;i<edges.length;i++) {
    if (edges[i].id.substr(0,4)=='edge') {
      edges[i].setAttribute('class','edge');
    }
  }
}
]]></script>
        <defs>
                <circle id="rim" cx="0" cy="0" r="7"/>
                <circle id="rim2" cx="0" cy="0" r="3.5"/>
                <g id="zoomPlus">
                        <use xlink:href="#rim" fill="#404040">
                                <set attributeName="fill" to="#808080" begin="zoomplus.mouseover" end="zoomplus.mouseout"/>
                        </use>
                        <path d="M-4,0h8M0,-4v8" fill="none" stroke="white" stroke-width="1.5" pointer-events="none"/>
                </g>
                <g id="zoomMin">
                        <use xlink:href="#rim" fill="#404040">
                                <set attributeName="fill" to="#808080" begin="zoomminus.mouseover" end="zoomminus.mouseout"/>
                        </use>
                        <path d="M-4,0h8" fill="none" stroke="white" stroke-width="1.5" pointer-events="none"/>
                </g>
                <g id="dirArrow">
                        <path fill="none" stroke="white" stroke-width="1.5" d="M0,-3.0v7 M-2.5,-0.5L0,-3.0L2.5,-0.5"/>
                </g>
               <g id="resetDef">
                       <use xlink:href="#rim2" fill="#404040">
                               <set attributeName="fill" to="#808080" begin="reset.mouseover" end="reset.mouseout"/>
                       </use>
               </g>
        </defs>

<script type="text/javascript">
var viewWidth = 1352;
var viewHeight = 173;
var sectionId = 'dynsection-10';
</script>
<script xlink:href="../../svgpan.js"/>
<svg id="graph" class="graph">
<g id="viewport">
<title>U_HELPER::PrintMessage</title>
<!-- Node1 -->
<g id="node1" class="node">
<title>Node1</title>
<g id="a_node1"><a xlink:title="Print error message in the terminal.">
<polygon fill="#bfbfbf" stroke="black" points="1210,-73.94 1210,-92.94 1344,-92.94 1344,-73.94 1210,-73.94"/>
<text text-anchor="middle" x="1277" y="-80.94" font-family="Helvetica,sans-Serif" font-size="10.00">U_HELPER::PrintMessage</text>
</a>
</g>
</g>
<!-- Node2 -->
<g id="node2" class="node">
<title>Node2</title>
<g id="a_node2"><a xlink:href="../../d1/d02/class_u___h_e_l_p_e_r.html#a6fca38e2de32e2da0598743ef731c2f1" target="_top" xlink:title="This routine will display an error message based off of the Win32 error code that is passed in.">
<polygon fill="none" stroke="black" points="865,-73.94 865,-92.94 992,-92.94 992,-73.94 865,-73.94"/>
<text text-anchor="middle" x="928.5" y="-80.94" font-family="Helvetica,sans-Serif" font-size="10.00">U_HELPER::DisplayError</text>
</a>
</g>
</g>
<!-- Node1&#45;&gt;Node2 -->
<g id="edge1" class="edge">
<title>Node1&#45;&gt;Node2</title>
<path fill="none" stroke="midnightblue" d="M1199.44,-83.44C1137.16,-83.44 1050.37,-83.44 992.17,-83.44"/>
<polygon fill="midnightblue" stroke="midnightblue" points="1199.6,-86.95 1209.6,-83.44 1199.6,-79.95 1199.6,-86.95"/>
</g>
<!-- Node12 -->
<g id="node12" class="node">
<title>Node12</title>
<g id="a_node12"><a xlink:href="../../d1/d02/class_u___h_e_l_p_e_r.html#a74e583e738595b638363c7cdec7b3d3f" target="_top" xlink:title="Popup error message displaying the function that failed associated with the error code.">
<polygon fill="none" stroke="black" points="1028,-54.94 1028,-73.94 1174,-73.94 1174,-54.94 1028,-54.94"/>
<text text-anchor="middle" x="1101" y="-61.94" font-family="Helvetica,sans-Serif" font-size="10.00">U_HELPER::DisplayMessage</text>
</a>
</g>
</g>
<!-- Node1&#45;&gt;Node12 -->
<g id="edge15" class="edge">
<title>Node1&#45;&gt;Node12</title>
<path fill="none" stroke="midnightblue" d="M1199.53,-75.1C1191.11,-74.18 1182.55,-73.24 1174.18,-72.33"/>
<polygon fill="midnightblue" stroke="midnightblue" points="1199.4,-78.6 1209.72,-76.21 1200.16,-71.64 1199.4,-78.6"/>
</g>
<!-- Node3 -->
<g id="node3" class="node">
<title>Node3</title>
<g id="a_node3"><a xlink:href="../../d9/d01/class_u___c_o_m_m_u_n_i_c_a_t_i_o_n.html#a6f2f0c62b6e4f1270d5c95c6e6521ee3" target="_top" xlink:title="Push a new message in the queue.">
<polygon fill="none" stroke="black" points="642,-68.44 642,-98.44 829,-98.44 829,-68.44 642,-68.44"/>
<text text-anchor="start" x="650" y="-86.44" font-family="Helvetica,sans-Serif" font-size="10.00">U_COMMUNICATION::_PumpMessage</text>
<text text-anchor="middle" x="735.5" y="-75.44" font-family="Helvetica,sans-Serif" font-size="10.00">InQueue</text>
</a>
</g>
</g>
<!-- Node2&#45;&gt;Node3 -->
<g id="edge2" class="edge">
<title>Node2&#45;&gt;Node3</title>
<path fill="none" stroke="midnightblue" d="M854.89,-83.44C846.52,-83.44 837.9,-83.44 829.31,-83.44"/>
<polygon fill="midnightblue" stroke="midnightblue" points="854.96,-86.95 864.96,-83.44 854.96,-79.95 854.96,-86.95"/>
</g>
<!-- Node5 -->
<g id="node5" class="node">
<title>Node5</title>
<g id="a_node5"><a xlink:href="../../d9/d01/class_u___c_o_m_m_u_n_i_c_a_t_i_o_n.html#a1cbfbcf7e7e895608457abf405455e6a" target="_top" xlink:title="Thread listening message sends from kernel driver.">
<polygon fill="none" stroke="black" points="260.5,-87.44 260.5,-117.44 411.5,-117.44 411.5,-87.44 260.5,-87.44"/>
<text text-anchor="start" x="268.5" y="-105.44" font-family="Helvetica,sans-Serif" font-size="10.00">U_COMMUNICATION::Listener</text>
<text text-anchor="middle" x="336" y="-94.44" font-family="Helvetica,sans-Serif" font-size="10.00">Thread</text>
</a>
</g>
</g>
<!-- Node2&#45;&gt;Node5 -->
<g id="edge14" class="edge">
<title>Node2&#45;&gt;Node5</title>
<path fill="none" stroke="midnightblue" d="M886.45,-95.77C868.93,-100.42 848.14,-105.15 829,-107.44 663.08,-127.37 620.07,-111.04 453,-107.44 439.6,-107.16 425.33,-106.68 411.55,-106.13"/>
<polygon fill="midnightblue" stroke="midnightblue" points="887.64,-99.07 896.36,-93.06 885.79,-92.32 887.64,-99.07"/>
</g>
<!-- Node8 -->
<g id="node8" class="node">
<title>Node8</title>
<g id="a_node8"><a xlink:href="../../d7/d00/_u___service_8cpp.html#a3e9716f0248a5a48598490cd4920cbee" target="_top" xlink:title="Entrypoint of the user space executable.">
<polygon fill="none" stroke="black" points="0,-89.94 0,-108.94 46,-108.94 46,-89.94 0,-89.94"/>
<text text-anchor="middle" x="23" y="-96.94" font-family="Helvetica,sans-Serif" font-size="10.00">_tmain</text>
</a>
</g>
</g>
<!-- Node2&#45;&gt;Node8 -->
<g id="edge9" class="edge">
<title>Node2&#45;&gt;Node8</title>
<path fill="none" stroke="midnightblue" d="M900.43,-97.74C881.05,-107.35 854.07,-119.49 829,-126.44 700.08,-162.23 664.29,-165.44 530.5,-165.44 530.5,-165.44 530.5,-165.44 191.5,-165.44 130.86,-165.44 65.94,-127.54 38.05,-109.18"/>
<polygon fill="midnightblue" stroke="midnightblue" points="902.21,-100.76 909.55,-93.13 899.05,-94.52 902.21,-100.76"/>
</g>
<!-- Node9 -->
<g id="node9" class="node">
<title>Node9</title>
<g id="a_node9"><a xlink:href="../../d8/d01/_u___helper_8cpp.html#a7f13dfe79c6150a01e9043c2916814d9" target="_top" xlink:title="Enable the virtual terminal to be able to print text in color.">
<polygon fill="none" stroke="black" points="703,-29.94 703,-48.94 768,-48.94 768,-29.94 703,-29.94"/>
<text text-anchor="middle" x="735.5" y="-36.94" font-family="Helvetica,sans-Serif" font-size="10.00">_Success_</text>
</a>
</g>
</g>
<!-- Node2&#45;&gt;Node9 -->
<g id="edge8" class="edge">
<title>Node2&#45;&gt;Node9</title>
<path fill="none" stroke="midnightblue" d="M881.6,-71.33C865.06,-67.09 846.23,-62.4 829,-58.44 808.87,-53.82 786.14,-49.15 768.26,-45.59"/>
<polygon fill="midnightblue" stroke="midnightblue" points="881.02,-74.79 891.57,-73.9 882.77,-68.02 881.02,-74.79"/>
</g>
<!-- Node10 -->
<g id="node10" class="node">
<title>Node10</title>
<g id="a_node10"><a xlink:href="../../d8/d03/class_u___c_o_n_t_r_o_l_l_e_r.html#a031d85cad5238299ce37dcac69a91ffc" target="_top" xlink:title="Start the service &quot;szServiceName&quot;.">
<polygon fill="none" stroke="black" points="255,-48.94 255,-67.94 417,-67.94 417,-48.94 255,-48.94"/>
<text text-anchor="middle" x="336" y="-55.94" font-family="Helvetica,sans-Serif" font-size="10.00">U_CONTROLLER::LaunchService</text>
</a>
</g>
</g>
<!-- Node2&#45;&gt;Node10 -->
<g id="edge10" class="edge">
<title>Node2&#45;&gt;Node10</title>
<path fill="none" stroke="midnightblue" d="M909.33,-67.23C890.69,-51.77 860.09,-29.54 829,-20.44 659.82,29.03 444.77,-25.57 366.87,-48.91"/>
<polygon fill="midnightblue" stroke="midnightblue" points="907.14,-69.96 917.02,-73.79 911.68,-64.63 907.14,-69.96"/>
</g>
<!-- Node4 -->
<g id="node4" class="node">
<title>Node4</title>
<g id="a_node4"><a xlink:href="../../d9/d01/class_u___c_o_m_m_u_n_i_c_a_t_i_o_n.html#a87d0f531204d9141da9e181c20a18c59" target="_top" xlink:title="Worker thread used to check file signature.">
<polygon fill="none" stroke="black" points="453,-68.44 453,-98.44 606,-98.44 606,-68.44 453,-68.44"/>
<text text-anchor="start" x="461" y="-86.44" font-family="Helvetica,sans-Serif" font-size="10.00">U_COMMUNICATION::_Worker</text>
<text text-anchor="middle" x="529.5" y="-75.44" font-family="Helvetica,sans-Serif" font-size="10.00">Thread</text>
</a>
</g>
</g>
<!-- Node3&#45;&gt;Node4 -->
<g id="edge3" class="edge">
<title>Node3&#45;&gt;Node4</title>
<path fill="none" stroke="midnightblue" d="M631.69,-83.44C623.11,-83.44 614.54,-83.44 606.22,-83.44"/>
<polygon fill="midnightblue" stroke="midnightblue" points="631.75,-86.95 641.75,-83.44 631.75,-79.95 631.75,-86.95"/>
</g>
<!-- Node4&#45;&gt;Node5 -->
<g id="edge4" class="edge">
<title>Node4&#45;&gt;Node5</title>
<path fill="none" stroke="midnightblue" d="M442.86,-91.94C432.4,-92.98 421.78,-94.03 411.51,-95.05"/>
<polygon fill="midnightblue" stroke="midnightblue" points="443.21,-95.42 452.81,-90.95 442.52,-88.46 443.21,-95.42"/>
</g>
<!-- Node6 -->
<g id="node6" class="node">
<title>Node6</title>
<g id="a_node6"><a xlink:href="../../d7/d00/_u___service_8cpp.html#a2ef7fa664545ef1bfd08460f37d2140a" target="_top" xlink:title="Entrypoint and core of the user space service.">
<polygon fill="none" stroke="black" points="166,-89.94 166,-108.94 219,-108.94 219,-89.94 166,-89.94"/>
<text text-anchor="middle" x="192.5" y="-96.94" font-family="Helvetica,sans-Serif" font-size="10.00">SvcMain</text>
</a>
</g>
</g>
<!-- Node5&#45;&gt;Node6 -->
<g id="edge5" class="edge">
<title>Node5&#45;&gt;Node6</title>
<path fill="none" stroke="midnightblue" d="M249.83,-100.64C238.76,-100.4 228.18,-100.18 219.23,-99.99"/>
<polygon fill="midnightblue" stroke="midnightblue" points="250.03,-104.14 260.11,-100.86 250.18,-97.15 250.03,-104.14"/>
</g>
<!-- Node7 -->
<g id="node7" class="node">
<title>Node7</title>
<g id="a_node7"><a xlink:href="../../d7/d00/_u___service_8cpp.html#afa2e3daf278842db7a49d41ebebc8519" target="_top" xlink:title="Wrap the call to the service entrypoint.">
<polygon fill="none" stroke="black" points="82,-89.94 82,-108.94 130,-108.94 130,-89.94 82,-89.94"/>
<text text-anchor="middle" x="106" y="-96.94" font-family="Helvetica,sans-Serif" font-size="10.00">Service</text>
</a>
</g>
</g>
<!-- Node6&#45;&gt;Node7 -->
<g id="edge6" class="edge">
<title>Node6&#45;&gt;Node7</title>
<path fill="none" stroke="midnightblue" d="M155.47,-99.44C146.86,-99.44 137.91,-99.44 130.07,-99.44"/>
<polygon fill="midnightblue" stroke="midnightblue" points="155.69,-102.95 165.69,-99.44 155.69,-95.95 155.69,-102.95"/>
</g>
<!-- Node7&#45;&gt;Node8 -->
<g id="edge7" class="edge">
<title>Node7&#45;&gt;Node8</title>
<path fill="none" stroke="midnightblue" d="M71.51,-99.44C63,-99.44 54.06,-99.44 46.26,-99.44"/>
<polygon fill="midnightblue" stroke="midnightblue" points="71.57,-102.95 81.57,-99.44 71.57,-95.95 71.57,-102.95"/>
</g>
<!-- Node10&#45;&gt;Node6 -->
<g id="edge13" class="edge">
<title>Node10&#45;&gt;Node6</title>
<path fill="none" stroke="midnightblue" d="M281.01,-70.41C272.27,-72.59 263.35,-74.97 255,-77.44 242.72,-81.09 229.29,-85.8 218.13,-89.93"/>
<polygon fill="midnightblue" stroke="midnightblue" points="281.87,-73.8 290.76,-68.03 280.21,-67 281.87,-73.8"/>
</g>
<!-- Node11 -->
<g id="node11" class="node">
<title>Node11</title>
<g id="a_node11"><a xlink:href="../../d7/d00/_u___service_8cpp.html#a21146308d44a2de57aa21d12af7e5b65" target="_top" xlink:title="Wrap the start of the service.">
<polygon fill="none" stroke="black" points="87,-51.94 87,-70.94 125,-70.94 125,-51.94 87,-51.94"/>
<text text-anchor="middle" x="106" y="-58.94" font-family="Helvetica,sans-Serif" font-size="10.00">Start</text>
</a>
</g>
</g>
<!-- Node10&#45;&gt;Node11 -->
<g id="edge11" class="edge">
<title>Node10&#45;&gt;Node11</title>
<path fill="none" stroke="midnightblue" d="M244.69,-59.63C200.41,-60.22 151.14,-60.86 125.23,-61.21"/>
<polygon fill="midnightblue" stroke="midnightblue" points="244.98,-63.13 254.94,-59.5 244.89,-56.13 244.98,-63.13"/>
</g>
<!-- Node11&#45;&gt;Node8 -->
<g id="edge12" class="edge">
<title>Node11&#45;&gt;Node8</title>
<path fill="none" stroke="midnightblue" d="M77.51,-74.34C66.63,-79.45 54.35,-85.21 44.3,-89.92"/>
<polygon fill="midnightblue" stroke="midnightblue" points="79.05,-77.48 86.62,-70.07 76.08,-71.15 79.05,-77.48"/>
</g>
<!-- Node12&#45;&gt;Node2 -->
<g id="edge16" class="edge">
<title>Node12&#45;&gt;Node2</title>
<path fill="none" stroke="midnightblue" d="M1017.68,-73.62C1009.11,-74.57 1000.51,-75.53 992.21,-76.46"/>
<polygon fill="midnightblue" stroke="midnightblue" points="1018.14,-77.09 1027.69,-72.5 1017.37,-70.13 1018.14,-77.09"/>
</g>
</g>
</svg>
        <g id="navigator" transform="translate(0 0)" fill="#404254">
                <rect fill="#f2f5e9" fill-opacity="0.5" stroke="#606060" stroke-width=".5" x="0" y="0" width="60" height="60"/>
                <use id="zoomplus" xlink:href="#zoomPlus" x="17" y="9" onmousedown="handleZoom(evt,'in')"/>
                <use id="zoomminus" xlink:href="#zoomMin" x="42" y="9" onmousedown="handleZoom(evt,'out')"/>
                <use id="reset" xlink:href="#resetDef" x="30" y="36" onmousedown="handleReset()"/>
                <g id="arrowUp" xlink:href="#dirArrow" transform="translate(30 24)" onmousedown="handlePan(0,-1)">
                  <use xlink:href="#rim" fill="#404040">
                        <set attributeName="fill" to="#808080" begin="arrowUp.mouseover" end="arrowUp.mouseout"/>
                  </use>
                  <path fill="none" stroke="white" stroke-width="1.5" d="M0,-3.0v7 M-2.5,-0.5L0,-3.0L2.5,-0.5"/>
                </g>
                <g id="arrowRight" xlink:href="#dirArrow" transform="rotate(90) translate(36 -43)" onmousedown="handlePan(1,0)">
                  <use xlink:href="#rim" fill="#404040">
                        <set attributeName="fill" to="#808080" begin="arrowRight.mouseover" end="arrowRight.mouseout"/>
                  </use>
                  <path fill="none" stroke="white" stroke-width="1.5" d="M0,-3.0v7 M-2.5,-0.5L0,-3.0L2.5,-0.5"/>
                </g>
                <g id="arrowDown" xlink:href="#dirArrow" transform="rotate(180) translate(-30 -48)" onmousedown="handlePan(0,1)">
                  <use xlink:href="#rim" fill="#404040">
                        <set attributeName="fill" to="#808080" begin="arrowDown.mouseover" end="arrowDown.mouseout"/>
                  </use>
                  <path fill="none" stroke="white" stroke-width="1.5" d="M0,-3.0v7 M-2.5,-0.5L0,-3.0L2.5,-0.5"/>
                </g>
                <g id="arrowLeft" xlink:href="#dirArrow" transform="rotate(270) translate(-36 17)" onmousedown="handlePan(-1,0)">
                  <use xlink:href="#rim" fill="#404040">
                        <set attributeName="fill" to="#808080" begin="arrowLeft.mouseover" end="arrowLeft.mouseout"/>
                  </use>
                  <path fill="none" stroke="white" stroke-width="1.5" d="M0,-3.0v7 M-2.5,-0.5L0,-3.0L2.5,-0.5"/>
                </g>
        </g>
        <svg viewBox="0 0 15 15" width="100%" height="30px" preserveAspectRatio="xMaxYMin meet">
         <g id="arrow_out" transform="scale(0.3 0.3)">
          <a xlink:href="class_u___h_e_l_p_e_r_a54991307972870225fd074f0e7a21686_icgraph_org.svg" target="_base">
           <rect id="button" ry="5" rx="5" y="6" x="6" height="38" width="38"
                fill="#f2f5e9" fill-opacity="0.5" stroke="#606060" stroke-width="1.0"/>
           <path id="arrow"
             d="M 11.500037,31.436501 C 11.940474,20.09759 22.043105,11.32322 32.158766,21.979434 L 37.068811,17.246167 C 37.068811,17.246167 37.088388,32 37.088388,32 L 22.160133,31.978069 C 22.160133,31.978069 26.997745,27.140456 26.997745,27.140456 C 18.528582,18.264221 13.291696,25.230495 11.500037,31.436501 z"
             style="fill:#404040;"/>
          </a>
         </g>
        </svg>
</svg>
