<?xml version="1.0" encoding="UTF-8" standalone="no"?>
<!DOCTYPE svg PUBLIC "-//W3C//DTD SVG 1.1//EN"
 "http://www.w3.org/Graphics/SVG/1.1/DTD/svg11.dtd">
<!-- Generated by graphviz version 5.0.0 (20220707.1540)
 -->
<!-- Title: U_HELPER::GetDllFullPath Pages: 1 -->
<svg width="684pt" height="39pt"
 viewBox="0.00 0.00 684.00 39.00" xmlns="http://www.w3.org/2000/svg" xmlns:xlink="http://www.w3.org/1999/xlink">
<g id="graph0" class="graph" transform="scale(1 1) rotate(0) translate(4 35)">
<title>U_HELPER::GetDllFullPath</title>
<!-- Node1 -->
<g id="node1" class="node">
<title>Node1</title>
<g id="a_node1"><a xlink:title=" ">
<polygon fill="#bfbfbf" stroke="black" points="539,-6 539,-25 676,-25 676,-6 539,-6"/>
<text text-anchor="middle" x="607.5" y="-13" font-family="Helvetica,sans-Serif" font-size="10.00">U_HELPER::GetDllFullPath</text>
</a>
</g>
</g>
<!-- Node2 -->
<g id="node2" class="node">
<title>Node2</title>
<g id="a_node2"><a xlink:href="../../d6/d00/class_u___c_o_n_f_i_g_u_r_a_t_i_o_n.html#ac15b37425890a19a5de6664a2f5b2320" target="_top" xlink:title="Create all the registry keys needed for ETW Logs.">
<polygon fill="none" stroke="black" points="356,-0.5 356,-30.5 503,-30.5 503,-0.5 356,-0.5"/>
<text text-anchor="start" x="364" y="-18.5" font-family="Helvetica,sans-Serif" font-size="10.00">U_CONFIGURATION::_Create</text>
<text text-anchor="middle" x="429.5" y="-7.5" font-family="Helvetica,sans-Serif" font-size="10.00">RegistryForLogs</text>
</a>
</g>
</g>
<!-- Node1&#45;&gt;Node2 -->
<g id="edge1" class="edge">
<title>Node1&#45;&gt;Node2</title>
<path fill="none" stroke="midnightblue" d="M528.68,-15.5C520.18,-15.5 511.56,-15.5 503.13,-15.5"/>
<polygon fill="midnightblue" stroke="midnightblue" points="528.96,-19 538.96,-15.5 528.96,-12 528.96,-19"/>
</g>
<!-- Node3 -->
<g id="node3" class="node">
<title>Node3</title>
<g id="a_node3"><a xlink:href="../../d6/d00/class_u___c_o_n_f_i_g_u_r_a_t_i_o_n.html#adf54f299b42ec1596e92f49cb640d3ba" target="_top" xlink:title="Create registry keys needed for the service configuration.">
<polygon fill="none" stroke="black" points="160,-0.5 160,-30.5 320,-30.5 320,-0.5 160,-0.5"/>
<text text-anchor="start" x="168" y="-18.5" font-family="Helvetica,sans-Serif" font-size="10.00">U_CONFIGURATION::SetService</text>
<text text-anchor="middle" x="240" y="-7.5" font-family="Helvetica,sans-Serif" font-size="10.00">Configuration</text>
</a>
</g>
</g>
<!-- Node2&#45;&gt;Node3 -->
<g id="edge2" class="edge">
<title>Node2&#45;&gt;Node3</title>
<path fill="none" stroke="midnightblue" d="M345.56,-15.5C337.15,-15.5 328.62,-15.5 320.25,-15.5"/>
<polygon fill="midnightblue" stroke="midnightblue" points="345.74,-19 355.74,-15.5 345.74,-12 345.74,-19"/>
</g>
<!-- Node4 -->
<g id="node4" class="node">
<title>Node4</title>
<g id="a_node4"><a xlink:href="../../d7/d00/_u___service_8cpp.html#ab5c4ad56c0967c7aa59e84c28c445bc6" target="_top" xlink:title="Wrap the installation of the service.">
<polygon fill="none" stroke="black" points="82,-6 82,-25 124,-25 124,-6 82,-6"/>
<text text-anchor="middle" x="103" y="-13" font-family="Helvetica,sans-Serif" font-size="10.00">Install</text>
</a>
</g>
</g>
<!-- Node3&#45;&gt;Node4 -->
<g id="edge3" class="edge">
<title>Node3&#45;&gt;Node4</title>
<path fill="none" stroke="midnightblue" d="M149.64,-15.5C140.18,-15.5 131.37,-15.5 124.06,-15.5"/>
<polygon fill="midnightblue" stroke="midnightblue" points="149.69,-19 159.69,-15.5 149.69,-12 149.69,-19"/>
</g>
<!-- Node5 -->
<g id="node5" class="node">
<title>Node5</title>
<g id="a_node5"><a xlink:href="../../d7/d00/_u___service_8cpp.html#a3e9716f0248a5a48598490cd4920cbee" target="_top" xlink:title="Entrypoint of the user space executable.">
<polygon fill="none" stroke="black" points="0,-6 0,-25 46,-25 46,-6 0,-6"/>
<text text-anchor="middle" x="23" y="-13" font-family="Helvetica,sans-Serif" font-size="10.00">_tmain</text>
</a>
</g>
</g>
<!-- Node4&#45;&gt;Node5 -->
<g id="edge4" class="edge">
<title>Node4&#45;&gt;Node5</title>
<path fill="none" stroke="midnightblue" d="M71.9,-15.5C63.36,-15.5 54.21,-15.5 46.22,-15.5"/>
<polygon fill="midnightblue" stroke="midnightblue" points="71.91,-19 81.91,-15.5 71.91,-12 71.91,-19"/>
</g>
</g>
</svg>
