<?xml version="1.0" encoding="UTF-8" standalone="no"?>
<!DOCTYPE svg PUBLIC "-//W3C//DTD SVG 1.1//EN"
 "http://www.w3.org/Graphics/SVG/1.1/DTD/svg11.dtd">
<!-- Generated by graphviz version 5.0.0 (20220707.1540)
 -->
<!-- Title: U_HELPER::DisplayMessage Pages: 1 -->
<svg width="1182pt" height="173pt"
 viewBox="0.00 0.00 1182.00 173.44" xmlns="http://www.w3.org/2000/svg" xmlns:xlink="http://www.w3.org/1999/xlink">
<g id="graph0" class="graph" transform="scale(1 1) rotate(0) translate(4 169.44)">
<title>U_HELPER::DisplayMessage</title>
<!-- Node1 -->
<g id="node1" class="node">
<title>Node1</title>
<g id="a_node1"><a xlink:title="Popup error message displaying the function that failed associated with the error code.">
<polygon fill="#bfbfbf" stroke="black" points="1028,-73.94 1028,-92.94 1174,-92.94 1174,-73.94 1028,-73.94"/>
<text text-anchor="middle" x="1101" y="-80.94" font-family="Helvetica,sans-Serif" font-size="10.00">U_HELPER::DisplayMessage</text>
</a>
</g>
</g>
<!-- Node2 -->
<g id="node2" class="node">
<title>Node2</title>
<g id="a_node2"><a xlink:href="../../d1/d02/class_u___h_e_l_p_e_r.html#a6fca38e2de32e2da0598743ef731c2f1" target="_top" xlink:title="This routine will display an error message based off of the Win32 error code that is passed in.">
<polygon fill="none" stroke="black" points="865,-73.94 865,-92.94 992,-92.94 992,-73.94 865,-73.94"/>
<text text-anchor="middle" x="928.5" y="-80.94" font-family="Helvetica,sans-Serif" font-size="10.00">U_HELPER::DisplayError</text>
</a>
</g>
</g>
<!-- Node1&#45;&gt;Node2 -->
<g id="edge1" class="edge">
<title>Node1&#45;&gt;Node2</title>
<path fill="none" stroke="midnightblue" d="M1017.68,-83.44C1009.11,-83.44 1000.51,-83.44 992.21,-83.44"/>
<polygon fill="midnightblue" stroke="midnightblue" points="1017.69,-86.95 1027.69,-83.44 1017.69,-79.95 1017.69,-86.95"/>
</g>
<!-- Node3 -->
<g id="node3" class="node">
<title>Node3</title>
<g id="a_node3"><a xlink:href="../../d9/d01/class_u___c_o_m_m_u_n_i_c_a_t_i_o_n.html#a6f2f0c62b6e4f1270d5c95c6e6521ee3" target="_top" xlink:title="Push a new message in the queue.">
<polygon fill="none" stroke="black" points="642,-68.44 642,-98.44 829,-98.44 829,-68.44 642,-68.44"/>
<text text-anchor="start" x="650" y="-86.44" font-family="Helvetica,sans-Serif" font-size="10.00">U_COMMUNICATION::_PumpMessage</text>
<text text-anchor="middle" x="735.5" y="-75.44" font-family="Helvetica,sans-Serif" font-size="10.00">InQueue</text>
</a>
</g>
</g>
<!-- Node2&#45;&gt;Node3 -->
<g id="edge2" class="edge">
<title>Node2&#45;&gt;Node3</title>
<path fill="none" stroke="midnightblue" d="M854.89,-83.44C846.52,-83.44 837.9,-83.44 829.31,-83.44"/>
<polygon fill="midnightblue" stroke="midnightblue" points="854.96,-86.95 864.96,-83.44 854.96,-79.95 854.96,-86.95"/>
</g>
<!-- Node5 -->
<g id="node5" class="node">
<title>Node5</title>
<g id="a_node5"><a xlink:href="../../d9/d01/class_u___c_o_m_m_u_n_i_c_a_t_i_o_n.html#a1cbfbcf7e7e895608457abf405455e6a" target="_top" xlink:title="Thread listening message sends from kernel driver.">
<polygon fill="none" stroke="black" points="260.5,-87.44 260.5,-117.44 411.5,-117.44 411.5,-87.44 260.5,-87.44"/>
<text text-anchor="start" x="268.5" y="-105.44" font-family="Helvetica,sans-Serif" font-size="10.00">U_COMMUNICATION::Listener</text>
<text text-anchor="middle" x="336" y="-94.44" font-family="Helvetica,sans-Serif" font-size="10.00">Thread</text>
</a>
</g>
</g>
<!-- Node2&#45;&gt;Node5 -->
<g id="edge14" class="edge">
<title>Node2&#45;&gt;Node5</title>
<path fill="none" stroke="midnightblue" d="M887.68,-95.95C869.92,-100.9 848.61,-106 829,-108.44 663.18,-129.16 620.06,-112.76 453,-108.44 439.59,-108.1 425.33,-107.53 411.55,-106.87"/>
<polygon fill="midnightblue" stroke="midnightblue" points="889.05,-99.2 897.69,-93.07 887.12,-92.47 889.05,-99.2"/>
</g>
<!-- Node8 -->
<g id="node8" class="node">
<title>Node8</title>
<g id="a_node8"><a xlink:href="../../d7/d00/_u___service_8cpp.html#a3e9716f0248a5a48598490cd4920cbee" target="_top" xlink:title="Entrypoint of the user space executable.">
<polygon fill="none" stroke="black" points="0,-89.94 0,-108.94 46,-108.94 46,-89.94 0,-89.94"/>
<text text-anchor="middle" x="23" y="-96.94" font-family="Helvetica,sans-Serif" font-size="10.00">_tmain</text>
</a>
</g>
</g>
<!-- Node2&#45;&gt;Node8 -->
<g id="edge9" class="edge">
<title>Node2&#45;&gt;Node8</title>
<path fill="none" stroke="midnightblue" d="M901.18,-97.76C881.79,-107.66 854.46,-120.31 829,-127.44 700.23,-163.55 664.24,-165.44 530.5,-165.44 530.5,-165.44 530.5,-165.44 191.5,-165.44 130.86,-165.44 65.94,-127.54 38.05,-109.18"/>
<polygon fill="midnightblue" stroke="midnightblue" points="903.04,-100.74 910.29,-93.01 899.8,-94.53 903.04,-100.74"/>
</g>
<!-- Node9 -->
<g id="node9" class="node">
<title>Node9</title>
<g id="a_node9"><a xlink:href="../../d8/d01/_u___helper_8cpp.html#a7f13dfe79c6150a01e9043c2916814d9" target="_top" xlink:title="Enable the virtual terminal to be able to print text in color.">
<polygon fill="none" stroke="black" points="703,-29.94 703,-48.94 768,-48.94 768,-29.94 703,-29.94"/>
<text text-anchor="middle" x="735.5" y="-36.94" font-family="Helvetica,sans-Serif" font-size="10.00">_Success_</text>
</a>
</g>
</g>
<!-- Node2&#45;&gt;Node9 -->
<g id="edge8" class="edge">
<title>Node2&#45;&gt;Node9</title>
<path fill="none" stroke="midnightblue" d="M881.6,-71.33C865.06,-67.09 846.23,-62.4 829,-58.44 808.87,-53.82 786.14,-49.15 768.26,-45.59"/>
<polygon fill="midnightblue" stroke="midnightblue" points="881.02,-74.79 891.57,-73.9 882.77,-68.02 881.02,-74.79"/>
</g>
<!-- Node10 -->
<g id="node10" class="node">
<title>Node10</title>
<g id="a_node10"><a xlink:href="../../d8/d03/class_u___c_o_n_t_r_o_l_l_e_r.html#a031d85cad5238299ce37dcac69a91ffc" target="_top" xlink:title="Start the service &quot;szServiceName&quot;.">
<polygon fill="none" stroke="black" points="255,-48.94 255,-67.94 417,-67.94 417,-48.94 255,-48.94"/>
<text text-anchor="middle" x="336" y="-55.94" font-family="Helvetica,sans-Serif" font-size="10.00">U_CONTROLLER::LaunchService</text>
</a>
</g>
</g>
<!-- Node2&#45;&gt;Node10 -->
<g id="edge10" class="edge">
<title>Node2&#45;&gt;Node10</title>
<path fill="none" stroke="midnightblue" d="M909.33,-67.23C890.69,-51.77 860.09,-29.54 829,-20.44 659.82,29.03 444.77,-25.57 366.87,-48.91"/>
<polygon fill="midnightblue" stroke="midnightblue" points="907.14,-69.96 917.02,-73.79 911.68,-64.63 907.14,-69.96"/>
</g>
<!-- Node4 -->
<g id="node4" class="node">
<title>Node4</title>
<g id="a_node4"><a xlink:href="../../d9/d01/class_u___c_o_m_m_u_n_i_c_a_t_i_o_n.html#a87d0f531204d9141da9e181c20a18c59" target="_top" xlink:title="Worker thread used to check file signature.">
<polygon fill="none" stroke="black" points="453,-68.44 453,-98.44 606,-98.44 606,-68.44 453,-68.44"/>
<text text-anchor="start" x="461" y="-86.44" font-family="Helvetica,sans-Serif" font-size="10.00">U_COMMUNICATION::_Worker</text>
<text text-anchor="middle" x="529.5" y="-75.44" font-family="Helvetica,sans-Serif" font-size="10.00">Thread</text>
</a>
</g>
</g>
<!-- Node3&#45;&gt;Node4 -->
<g id="edge3" class="edge">
<title>Node3&#45;&gt;Node4</title>
<path fill="none" stroke="midnightblue" d="M631.69,-83.44C623.11,-83.44 614.54,-83.44 606.22,-83.44"/>
<polygon fill="midnightblue" stroke="midnightblue" points="631.75,-86.95 641.75,-83.44 631.75,-79.95 631.75,-86.95"/>
</g>
<!-- Node4&#45;&gt;Node5 -->
<g id="edge4" class="edge">
<title>Node4&#45;&gt;Node5</title>
<path fill="none" stroke="midnightblue" d="M442.86,-91.94C432.4,-92.98 421.78,-94.03 411.51,-95.05"/>
<polygon fill="midnightblue" stroke="midnightblue" points="443.21,-95.42 452.81,-90.95 442.52,-88.46 443.21,-95.42"/>
</g>
<!-- Node6 -->
<g id="node6" class="node">
<title>Node6</title>
<g id="a_node6"><a xlink:href="../../d7/d00/_u___service_8cpp.html#a2ef7fa664545ef1bfd08460f37d2140a" target="_top" xlink:title="Entrypoint and core of the user space service.">
<polygon fill="none" stroke="black" points="166,-89.94 166,-108.94 219,-108.94 219,-89.94 166,-89.94"/>
<text text-anchor="middle" x="192.5" y="-96.94" font-family="Helvetica,sans-Serif" font-size="10.00">SvcMain</text>
</a>
</g>
</g>
<!-- Node5&#45;&gt;Node6 -->
<g id="edge5" class="edge">
<title>Node5&#45;&gt;Node6</title>
<path fill="none" stroke="midnightblue" d="M249.83,-100.64C238.76,-100.4 228.18,-100.18 219.23,-99.99"/>
<polygon fill="midnightblue" stroke="midnightblue" points="250.03,-104.14 260.11,-100.86 250.18,-97.15 250.03,-104.14"/>
</g>
<!-- Node7 -->
<g id="node7" class="node">
<title>Node7</title>
<g id="a_node7"><a xlink:href="../../d7/d00/_u___service_8cpp.html#afa2e3daf278842db7a49d41ebebc8519" target="_top" xlink:title="Wrap the call to the service entrypoint.">
<polygon fill="none" stroke="black" points="82,-89.94 82,-108.94 130,-108.94 130,-89.94 82,-89.94"/>
<text text-anchor="middle" x="106" y="-96.94" font-family="Helvetica,sans-Serif" font-size="10.00">Service</text>
</a>
</g>
</g>
<!-- Node6&#45;&gt;Node7 -->
<g id="edge6" class="edge">
<title>Node6&#45;&gt;Node7</title>
<path fill="none" stroke="midnightblue" d="M155.47,-99.44C146.86,-99.44 137.91,-99.44 130.07,-99.44"/>
<polygon fill="midnightblue" stroke="midnightblue" points="155.69,-102.95 165.69,-99.44 155.69,-95.95 155.69,-102.95"/>
</g>
<!-- Node7&#45;&gt;Node8 -->
<g id="edge7" class="edge">
<title>Node7&#45;&gt;Node8</title>
<path fill="none" stroke="midnightblue" d="M71.51,-99.44C63,-99.44 54.06,-99.44 46.26,-99.44"/>
<polygon fill="midnightblue" stroke="midnightblue" points="71.57,-102.95 81.57,-99.44 71.57,-95.95 71.57,-102.95"/>
</g>
<!-- Node10&#45;&gt;Node6 -->
<g id="edge13" class="edge">
<title>Node10&#45;&gt;Node6</title>
<path fill="none" stroke="midnightblue" d="M281.01,-70.41C272.27,-72.59 263.35,-74.97 255,-77.44 242.72,-81.09 229.29,-85.8 218.13,-89.93"/>
<polygon fill="midnightblue" stroke="midnightblue" points="281.87,-73.8 290.76,-68.03 280.21,-67 281.87,-73.8"/>
</g>
<!-- Node11 -->
<g id="node11" class="node">
<title>Node11</title>
<g id="a_node11"><a xlink:href="../../d7/d00/_u___service_8cpp.html#a21146308d44a2de57aa21d12af7e5b65" target="_top" xlink:title="Wrap the start of the service.">
<polygon fill="none" stroke="black" points="87,-50.94 87,-69.94 125,-69.94 125,-50.94 87,-50.94"/>
<text text-anchor="middle" x="106" y="-57.94" font-family="Helvetica,sans-Serif" font-size="10.00">Start</text>
</a>
</g>
</g>
<!-- Node10&#45;&gt;Node11 -->
<g id="edge11" class="edge">
<title>Node10&#45;&gt;Node11</title>
<path fill="none" stroke="midnightblue" d="M244.69,-59.24C200.41,-59.63 151.14,-60.06 125.23,-60.29"/>
<polygon fill="midnightblue" stroke="midnightblue" points="244.97,-62.73 254.94,-59.15 244.91,-55.74 244.97,-62.73"/>
</g>
<!-- Node11&#45;&gt;Node8 -->
<g id="edge12" class="edge">
<title>Node11&#45;&gt;Node8</title>
<path fill="none" stroke="midnightblue" d="M77.44,-73.71C66.47,-79 54.09,-84.96 44.01,-89.81"/>
<polygon fill="midnightblue" stroke="midnightblue" points="79.13,-76.79 86.62,-69.29 76.09,-70.48 79.13,-76.79"/>
</g>
</g>
</svg>
