<?xml version="1.0" encoding="UTF-8" standalone="no"?>
<!DOCTYPE svg PUBLIC "-//W3C//DTD SVG 1.1//EN"
 "http://www.w3.org/Graphics/SVG/1.1/DTD/svg11.dtd">
<!-- Generated by graphviz version 5.0.0 (20220707.1540)
 -->
<!-- Title: U_LOGS::SvcReportEvent Pages: 1 -->
<svg width="986pt" height="393pt"
 viewBox="0.00 0.00 986.00 393.00" xmlns="http://www.w3.org/2000/svg" xmlns:xlink="http://www.w3.org/1999/xlink">
<g id="graph0" class="graph" transform="scale(1 1) rotate(0) translate(4 389)">
<title>U_LOGS::SvcReportEvent</title>
<!-- Node1 -->
<g id="node1" class="node">
<title>Node1</title>
<g id="a_node1"><a xlink:title="Send the reported event in the Event Viewer (Application &#45;&gt; PI&#45;Defender_UM).">
<polygon fill="#bfbfbf" stroke="black" points="848,-183 848,-202 978,-202 978,-183 848,-183"/>
<text text-anchor="middle" x="913" y="-190" font-family="Helvetica,sans-Serif" font-size="10.00">U_LOGS::SvcReportEvent</text>
</a>
</g>
</g>
<!-- Node2 -->
<g id="node2" class="node">
<title>Node2</title>
<g id="a_node2"><a xlink:href="../../d6/dd4/class_u___c_o_n_f_i_g_u_r_a_t_i_o_n.html#ac15b37425890a19a5de6664a2f5b2320" target="_top" xlink:title="Create all the registry keys needed for ETW Logs.">
<polygon fill="none" stroke="black" points="657.5,-354.5 657.5,-384.5 804.5,-384.5 804.5,-354.5 657.5,-354.5"/>
<text text-anchor="start" x="665.5" y="-372.5" font-family="Helvetica,sans-Serif" font-size="10.00">U_CONFIGURATION::_Create</text>
<text text-anchor="middle" x="731" y="-361.5" font-family="Helvetica,sans-Serif" font-size="10.00">RegistryForLogs</text>
</a>
</g>
</g>
<!-- Node1&#45;&gt;Node2 -->
<g id="edge1" class="edge">
<title>Node1&#45;&gt;Node2</title>
<path fill="none" stroke="midnightblue" d="M903.78,-211.52C889.47,-242.51 857.13,-304.03 812,-339.5 804.3,-345.55 795.26,-350.47 786.07,-354.45"/>
<polygon fill="midnightblue" stroke="midnightblue" points="907.03,-212.81 907.93,-202.26 900.65,-209.95 907.03,-212.81"/>
</g>
<!-- Node4 -->
<g id="node4" class="node">
<title>Node4</title>
<g id="a_node4"><a xlink:href="../../d7/dc4/_u___service_8cpp.html#ab5c4ad56c0967c7aa59e84c28c445bc6" target="_top" xlink:title="Wrap the installation of the service.">
<polygon fill="none" stroke="black" points="315.5,-316 315.5,-335 357.5,-335 357.5,-316 315.5,-316"/>
<text text-anchor="middle" x="336.5" y="-323" font-family="Helvetica,sans-Serif" font-size="10.00">Install</text>
</a>
</g>
</g>
<!-- Node1&#45;&gt;Node4 -->
<g id="edge16" class="edge">
<title>Node1&#45;&gt;Node4</title>
<path fill="none" stroke="midnightblue" d="M902.1,-211.28C886.83,-238.02 854.77,-286.08 812,-306.5 729.97,-345.66 437.23,-331.46 357.61,-326.76"/>
<polygon fill="midnightblue" stroke="midnightblue" points="905.36,-212.62 907.12,-202.18 899.23,-209.24 905.36,-212.62"/>
</g>
<!-- Node6 -->
<g id="node6" class="node">
<title>Node6</title>
<g id="a_node6"><a xlink:href="../../d9/da5/class_u___c_o_m_m_u_n_i_c_a_t_i_o_n.html#ac7267746e2596819493bbf7fca1d4520" target="_top" xlink:title="Reply to the kernel driver.">
<polygon fill="none" stroke="black" points="658,-278 658,-297 804,-297 804,-278 658,-278"/>
<text text-anchor="middle" x="731" y="-285" font-family="Helvetica,sans-Serif" font-size="10.00">U_COMMUNICATION::_Reply</text>
</a>
</g>
</g>
<!-- Node1&#45;&gt;Node6 -->
<g id="edge5" class="edge">
<title>Node1&#45;&gt;Node6</title>
<path fill="none" stroke="midnightblue" d="M893.37,-208.57C874.13,-224.47 842.66,-248.52 812,-263.5 799.88,-269.42 786.01,-274.21 773.26,-277.9"/>
<polygon fill="midnightblue" stroke="midnightblue" points="895.66,-211.22 901.07,-202.11 891.16,-205.86 895.66,-211.22"/>
</g>
<!-- Node7 -->
<g id="node7" class="node">
<title>Node7</title>
<g id="a_node7"><a xlink:href="../../d9/da5/class_u___c_o_m_m_u_n_i_c_a_t_i_o_n.html#a87d0f531204d9141da9e181c20a18c59" target="_top" xlink:title="Worker thread used to check file signature.">
<polygon fill="none" stroke="black" points="457.5,-240.5 457.5,-270.5 610.5,-270.5 610.5,-240.5 457.5,-240.5"/>
<text text-anchor="start" x="465.5" y="-258.5" font-family="Helvetica,sans-Serif" font-size="10.00">U_COMMUNICATION::_Worker</text>
<text text-anchor="middle" x="534" y="-247.5" font-family="Helvetica,sans-Serif" font-size="10.00">Thread</text>
</a>
</g>
</g>
<!-- Node1&#45;&gt;Node7 -->
<g id="edge12" class="edge">
<title>Node1&#45;&gt;Node7</title>
<path fill="none" stroke="midnightblue" d="M878.26,-205.61C859.1,-212.55 834.52,-220.62 812,-225.5 744.75,-240.07 666.71,-247.71 610.64,-251.62"/>
<polygon fill="midnightblue" stroke="midnightblue" points="879.58,-208.85 887.74,-202.11 877.15,-202.29 879.58,-208.85"/>
</g>
<!-- Node8 -->
<g id="node8" class="node">
<title>Node8</title>
<g id="a_node8"><a xlink:href="../../d9/da5/class_u___c_o_m_m_u_n_i_c_a_t_i_o_n.html#a1cbfbcf7e7e895608457abf405455e6a" target="_top" xlink:title="Thread listening message sends from kernel driver.">
<polygon fill="none" stroke="black" points="261,-202.5 261,-232.5 412,-232.5 412,-202.5 261,-202.5"/>
<text text-anchor="start" x="269" y="-220.5" font-family="Helvetica,sans-Serif" font-size="10.00">U_COMMUNICATION::Listener</text>
<text text-anchor="middle" x="336.5" y="-209.5" font-family="Helvetica,sans-Serif" font-size="10.00">Thread</text>
</a>
</g>
</g>
<!-- Node1&#45;&gt;Node8 -->
<g id="edge17" class="edge">
<title>Node1&#45;&gt;Node8</title>
<path fill="none" stroke="midnightblue" d="M837.75,-195.73C727.7,-200.52 522.46,-209.45 412.17,-214.25"/>
<polygon fill="midnightblue" stroke="midnightblue" points="837.93,-199.23 847.77,-195.3 837.63,-192.23 837.93,-199.23"/>
</g>
<!-- Node9 -->
<g id="node9" class="node">
<title>Node9</title>
<g id="a_node9"><a xlink:href="../../d7/dc4/_u___service_8cpp.html#a2ef7fa664545ef1bfd08460f37d2140a" target="_top" xlink:title="Entrypoint and core of the user space service.">
<polygon fill="none" stroke="black" points="166,-145 166,-164 219,-164 219,-145 166,-145"/>
<text text-anchor="middle" x="192.5" y="-152" font-family="Helvetica,sans-Serif" font-size="10.00">SvcMain</text>
</a>
</g>
</g>
<!-- Node1&#45;&gt;Node9 -->
<g id="edge21" class="edge">
<title>Node1&#45;&gt;Node9</title>
<path fill="none" stroke="midnightblue" d="M837.84,-188.58C680.22,-180.24 318.17,-161.09 219.01,-155.85"/>
<polygon fill="midnightblue" stroke="midnightblue" points="837.75,-192.08 847.92,-189.11 838.12,-185.09 837.75,-192.08"/>
</g>
<!-- Node10 -->
<g id="node10" class="node">
<title>Node10</title>
<g id="a_node10"><a xlink:href="../../d7/dc4/_u___service_8cpp.html#afa2e3daf278842db7a49d41ebebc8519" target="_top" xlink:title="Wrap the call to the service entrypoint.">
<polygon fill="none" stroke="black" points="82,-135 82,-154 130,-154 130,-135 82,-135"/>
<text text-anchor="middle" x="106" y="-142" font-family="Helvetica,sans-Serif" font-size="10.00">Service</text>
</a>
</g>
</g>
<!-- Node1&#45;&gt;Node10 -->
<g id="edge18" class="edge">
<title>Node1&#45;&gt;Node10</title>
<path fill="none" stroke="midnightblue" d="M902.02,-173.88C886.66,-147.34 854.47,-99.52 812,-78.5 701.41,-23.76 658.4,-59.5 535,-59.5 535,-59.5 535,-59.5 335.5,-59.5 249.79,-59.5 156.7,-112.68 121.54,-134.91"/>
<polygon fill="midnightblue" stroke="midnightblue" points="899.14,-175.89 907.08,-182.91 905.25,-172.48 899.14,-175.89"/>
</g>
<!-- Node11 -->
<g id="node11" class="node">
<title>Node11</title>
<g id="a_node11"><a xlink:href="../../d6/da6/_u___communication_8cpp.html#a180a9a7bb4cabf242a7d6d55fc0661b7" target="_top" xlink:title="Connection to the driver.">
<polygon fill="none" stroke="black" points="698.5,-88 698.5,-107 763.5,-107 763.5,-88 698.5,-88"/>
<text text-anchor="middle" x="731" y="-95" font-family="Helvetica,sans-Serif" font-size="10.00">_Success_</text>
</a>
</g>
</g>
<!-- Node1&#45;&gt;Node11 -->
<g id="edge11" class="edge">
<title>Node1&#45;&gt;Node11</title>
<path fill="none" stroke="midnightblue" d="M893.37,-176.43C874.13,-160.53 842.66,-136.48 812,-121.5 796.76,-114.05 778.74,-108.4 763.66,-104.46"/>
<polygon fill="midnightblue" stroke="midnightblue" points="891.16,-179.14 901.07,-182.89 895.66,-173.78 891.16,-179.14"/>
</g>
<!-- Node12 -->
<g id="node12" class="node">
<title>Node12</title>
<g id="a_node12"><a xlink:href="../../d6/dd4/class_u___c_o_n_f_i_g_u_r_a_t_i_o_n.html#a0dc19a661a499390a39c084c0526c11d" target="_top" xlink:title="Delete all the registry keys needed for ETW Logs.">
<polygon fill="none" stroke="black" points="650,-0.5 650,-30.5 812,-30.5 812,-0.5 650,-0.5"/>
<text text-anchor="start" x="658" y="-18.5" font-family="Helvetica,sans-Serif" font-size="10.00">U_CONFIGURATION::DeleteLogs</text>
<text text-anchor="middle" x="731" y="-7.5" font-family="Helvetica,sans-Serif" font-size="10.00">Registry</text>
</a>
</g>
</g>
<!-- Node1&#45;&gt;Node12 -->
<g id="edge13" class="edge">
<title>Node1&#45;&gt;Node12</title>
<path fill="none" stroke="midnightblue" d="M903.78,-173.48C889.47,-142.49 857.13,-80.97 812,-45.5 804.3,-39.45 795.26,-34.53 786.07,-30.55"/>
<polygon fill="midnightblue" stroke="midnightblue" points="900.65,-175.05 907.93,-182.74 907.03,-172.19 900.65,-175.05"/>
</g>
<!-- Node14 -->
<g id="node14" class="node">
<title>Node14</title>
<g id="a_node14"><a xlink:href="../../d8/dfb/class_u___c_o_n_t_r_o_l_l_e_r.html#a62de7b3a08b00dde2a3de3fa50ed52ea" target="_top" xlink:title="Receive signal send by the User / SC Manager, handle it, update service status.">
<polygon fill="none" stroke="black" points="255,-126 255,-145 418,-145 418,-126 255,-126"/>
<text text-anchor="middle" x="336.5" y="-133" font-family="Helvetica,sans-Serif" font-size="10.00">U_CONTROLLER::SvcCtrlHandler</text>
</a>
</g>
</g>
<!-- Node1&#45;&gt;Node14 -->
<g id="edge19" class="edge">
<title>Node1&#45;&gt;Node14</title>
<path fill="none" stroke="midnightblue" d="M879.52,-179.32C860.23,-172.12 835.11,-163.82 812,-159.5 675.38,-133.98 513.04,-131.66 418.02,-133.05"/>
<polygon fill="midnightblue" stroke="midnightblue" points="878.44,-182.65 889.03,-182.96 880.94,-176.12 878.44,-182.65"/>
</g>
<!-- Node3 -->
<g id="node3" class="node">
<title>Node3</title>
<g id="a_node3"><a xlink:href="../../d6/dd4/class_u___c_o_n_f_i_g_u_r_a_t_i_o_n.html#adf54f299b42ec1596e92f49cb640d3ba" target="_top" xlink:title="Create registry keys needed for the service configuration.">
<polygon fill="none" stroke="black" points="454,-354.5 454,-384.5 614,-384.5 614,-354.5 454,-354.5"/>
<text text-anchor="start" x="462" y="-372.5" font-family="Helvetica,sans-Serif" font-size="10.00">U_CONFIGURATION::SetService</text>
<text text-anchor="middle" x="534" y="-361.5" font-family="Helvetica,sans-Serif" font-size="10.00">Configuration</text>
</a>
</g>
</g>
<!-- Node2&#45;&gt;Node3 -->
<g id="edge2" class="edge">
<title>Node2&#45;&gt;Node3</title>
<path fill="none" stroke="midnightblue" d="M647.39,-369.5C636.4,-369.5 625.15,-369.5 614.22,-369.5"/>
<polygon fill="midnightblue" stroke="midnightblue" points="647.39,-373 657.39,-369.5 647.39,-366 647.39,-373"/>
</g>
<!-- Node3&#45;&gt;Node4 -->
<g id="edge3" class="edge">
<title>Node3&#45;&gt;Node4</title>
<path fill="none" stroke="midnightblue" d="M456.32,-352.24C420.62,-344.21 380.98,-335.29 357.7,-330.05"/>
<polygon fill="midnightblue" stroke="midnightblue" points="455.74,-355.7 466.27,-354.48 457.28,-348.87 455.74,-355.7"/>
</g>
<!-- Node5 -->
<g id="node5" class="node">
<title>Node5</title>
<g id="a_node5"><a xlink:href="../../d7/dc4/_u___service_8cpp.html#a3e9716f0248a5a48598490cd4920cbee" target="_top" xlink:title="Entrypoint of the user space executable.">
<polygon fill="none" stroke="black" points="0,-135 0,-154 46,-154 46,-135 0,-135"/>
<text text-anchor="middle" x="23" y="-142" font-family="Helvetica,sans-Serif" font-size="10.00">_tmain</text>
</a>
</g>
</g>
<!-- Node4&#45;&gt;Node5 -->
<g id="edge4" class="edge">
<title>Node4&#45;&gt;Node5</title>
<path fill="none" stroke="midnightblue" d="M310.01,-310.69C248.19,-274.77 91.62,-183.79 40.45,-154.06"/>
<polygon fill="midnightblue" stroke="midnightblue" points="308.35,-313.77 318.75,-315.77 311.86,-307.72 308.35,-313.77"/>
</g>
<!-- Node6&#45;&gt;Node7 -->
<g id="edge6" class="edge">
<title>Node6&#45;&gt;Node7</title>
<path fill="none" stroke="midnightblue" d="M661.92,-276.33C645.42,-273.62 627.67,-270.71 610.83,-267.94"/>
<polygon fill="midnightblue" stroke="midnightblue" points="661.59,-279.82 672.02,-277.99 662.72,-272.91 661.59,-279.82"/>
</g>
<!-- Node7&#45;&gt;Node8 -->
<g id="edge7" class="edge">
<title>Node7&#45;&gt;Node8</title>
<path fill="none" stroke="midnightblue" d="M447.6,-238.9C435.82,-236.61 423.8,-234.28 412.24,-232.03"/>
<polygon fill="midnightblue" stroke="midnightblue" points="446.93,-242.34 457.41,-240.81 448.27,-235.46 446.93,-242.34"/>
</g>
<!-- Node8&#45;&gt;Node9 -->
<g id="edge8" class="edge">
<title>Node8&#45;&gt;Node9</title>
<path fill="none" stroke="midnightblue" d="M282.18,-198.79C273.03,-195.25 263.67,-191.42 255,-187.5 239.32,-180.41 222.11,-171.03 209.9,-164.09"/>
<polygon fill="midnightblue" stroke="midnightblue" points="281.02,-202.1 291.61,-202.37 283.5,-195.55 281.02,-202.1"/>
</g>
<!-- Node9&#45;&gt;Node10 -->
<g id="edge9" class="edge">
<title>Node9&#45;&gt;Node10</title>
<path fill="none" stroke="midnightblue" d="M155.75,-150.27C147.06,-149.24 138,-148.17 130.07,-147.23"/>
<polygon fill="midnightblue" stroke="midnightblue" points="155.35,-153.75 165.69,-151.45 156.17,-146.79 155.35,-153.75"/>
</g>
<!-- Node10&#45;&gt;Node5 -->
<g id="edge10" class="edge">
<title>Node10&#45;&gt;Node5</title>
<path fill="none" stroke="midnightblue" d="M71.51,-144.5C63,-144.5 54.06,-144.5 46.26,-144.5"/>
<polygon fill="midnightblue" stroke="midnightblue" points="71.57,-148 81.57,-144.5 71.57,-141 71.57,-148"/>
</g>
<!-- Node13 -->
<g id="node13" class="node">
<title>Node13</title>
<g id="a_node13"><a xlink:href="../../d7/dc4/_u___service_8cpp.html#a1d7c8f0ec682b654c05c04ba5fcb6e12" target="_top" xlink:title="Wrap the deletion of the driver and the service.">
<polygon fill="none" stroke="black" points="170.5,-11 170.5,-30 214.5,-30 214.5,-11 170.5,-11"/>
<text text-anchor="middle" x="192.5" y="-18" font-family="Helvetica,sans-Serif" font-size="10.00">Delete</text>
</a>
</g>
</g>
<!-- Node12&#45;&gt;Node13 -->
<g id="edge14" class="edge">
<title>Node12&#45;&gt;Node13</title>
<path fill="none" stroke="midnightblue" d="M639.78,-16.34C511.67,-17.53 284.77,-19.65 214.71,-20.3"/>
<polygon fill="midnightblue" stroke="midnightblue" points="640,-19.84 649.97,-16.25 639.94,-12.84 640,-19.84"/>
</g>
<!-- Node13&#45;&gt;Node5 -->
<g id="edge15" class="edge">
<title>Node13&#45;&gt;Node5</title>
<path fill="none" stroke="midnightblue" d="M170.51,-36.04C135.48,-61.97 66.07,-113.36 37.14,-134.77"/>
<polygon fill="midnightblue" stroke="midnightblue" points="172.68,-38.79 178.63,-30.02 168.51,-33.16 172.68,-38.79"/>
</g>
<!-- Node14&#45;&gt;Node9 -->
<g id="edge20" class="edge">
<title>Node14&#45;&gt;Node9</title>
<path fill="none" stroke="midnightblue" d="M253.89,-146.42C241.27,-148.11 229.1,-149.74 219.04,-151.08"/>
<polygon fill="midnightblue" stroke="midnightblue" points="254.64,-149.85 264.08,-145.06 253.71,-142.91 254.64,-149.85"/>
</g>
</g>
</svg>
