<?xml version="1.0" encoding="UTF-8" standalone="no"?>
<!DOCTYPE svg PUBLIC "-//W3C//DTD SVG 1.1//EN"
 "http://www.w3.org/Graphics/SVG/1.1/DTD/svg11.dtd">
<!-- Generated by graphviz version 5.0.0 (20220707.1540)
 -->
<!-- Title: U_CONFIGURATION::GetListenerThreads Pages: 1 -->
<svg width="564pt" height="104pt"
 viewBox="0.00 0.00 564.00 104.00" xmlns="http://www.w3.org/2000/svg" xmlns:xlink="http://www.w3.org/1999/xlink">
<g id="graph0" class="graph" transform="scale(1 1) rotate(0) translate(4 100)">
<title>U_CONFIGURATION::GetListenerThreads</title>
<!-- Node1 -->
<g id="node1" class="node">
<title>Node1</title>
<g id="a_node1"><a xlink:title="Get the number of threads of the service by reading the values in the Registry.">
<polygon fill="#bfbfbf" stroke="black" points="392,-14 392,-44 556,-44 556,-14 392,-14"/>
<text text-anchor="start" x="400" y="-32" font-family="Helvetica,sans-Serif" font-size="10.00">U_CONFIGURATION::GetListener</text>
<text text-anchor="middle" x="474" y="-21" font-family="Helvetica,sans-Serif" font-size="10.00">Threads</text>
</a>
</g>
</g>
<!-- Node2 -->
<g id="node2" class="node">
<title>Node2</title>
<g id="a_node2"><a xlink:href="../../d6/dd4/class_u___c_o_n_f_i_g_u_r_a_t_i_o_n.html#aad2db6e150e4eac643ee28b874af54fa" target="_top" xlink:title="Print and populate service structure with the configuration read from registry keys.">
<polygon fill="none" stroke="black" points="166,-38.5 166,-57.5 356,-57.5 356,-38.5 166,-38.5"/>
<text text-anchor="middle" x="261" y="-45.5" font-family="Helvetica,sans-Serif" font-size="10.00">U_CONFIGURATION::PrintConfiguration</text>
</a>
</g>
</g>
<!-- Node1&#45;&gt;Node2 -->
<g id="edge1" class="edge">
<title>Node1&#45;&gt;Node2</title>
<path fill="none" stroke="midnightblue" d="M381.57,-37.23C373.18,-37.99 364.67,-38.75 356.26,-39.51"/>
<polygon fill="midnightblue" stroke="midnightblue" points="382.08,-40.7 391.72,-36.32 381.45,-33.73 382.08,-40.7"/>
</g>
<!-- Node6 -->
<g id="node6" class="node">
<title>Node6</title>
<g id="a_node6"><a xlink:href="../../d7/dc4/_u___service_8cpp.html#a2ef7fa664545ef1bfd08460f37d2140a" target="_top" xlink:title="Entrypoint and core of the user space service.">
<polygon fill="none" stroke="black" points="234.5,-0.5 234.5,-19.5 287.5,-19.5 287.5,-0.5 234.5,-0.5"/>
<text text-anchor="middle" x="261" y="-7.5" font-family="Helvetica,sans-Serif" font-size="10.00">SvcMain</text>
</a>
</g>
</g>
<!-- Node1&#45;&gt;Node6 -->
<g id="edge6" class="edge">
<title>Node1&#45;&gt;Node6</title>
<path fill="none" stroke="midnightblue" d="M381.69,-20.78C347.54,-17.7 311.38,-14.45 287.86,-12.33"/>
<polygon fill="midnightblue" stroke="midnightblue" points="381.45,-24.27 391.72,-21.68 382.08,-17.3 381.45,-24.27"/>
</g>
<!-- Node3 -->
<g id="node3" class="node">
<title>Node3</title>
<g id="a_node3"><a xlink:href="../../d7/dc4/_u___service_8cpp.html#aff39ead9760e0687df750416a070f137" target="_top" xlink:title="Wrap the query information about the service.">
<polygon fill="none" stroke="black" points="84.5,-76.5 84.5,-95.5 127.5,-95.5 127.5,-76.5 84.5,-76.5"/>
<text text-anchor="middle" x="106" y="-83.5" font-family="Helvetica,sans-Serif" font-size="10.00">Query</text>
</a>
</g>
</g>
<!-- Node2&#45;&gt;Node3 -->
<g id="edge2" class="edge">
<title>Node2&#45;&gt;Node3</title>
<path fill="none" stroke="midnightblue" d="M211.67,-60C183.39,-67.03 149.15,-75.53 127.71,-80.86"/>
<polygon fill="midnightblue" stroke="midnightblue" points="212.53,-63.4 221.39,-57.59 210.84,-56.6 212.53,-63.4"/>
</g>
<!-- Node5 -->
<g id="node5" class="node">
<title>Node5</title>
<g id="a_node5"><a xlink:href="../../d7/dc4/_u___service_8cpp.html#a21146308d44a2de57aa21d12af7e5b65" target="_top" xlink:title="Wrap the start of the service.">
<polygon fill="none" stroke="black" points="87,-38.5 87,-57.5 125,-57.5 125,-38.5 87,-38.5"/>
<text text-anchor="middle" x="106" y="-45.5" font-family="Helvetica,sans-Serif" font-size="10.00">Start</text>
</a>
</g>
</g>
<!-- Node2&#45;&gt;Node5 -->
<g id="edge4" class="edge">
<title>Node2&#45;&gt;Node5</title>
<path fill="none" stroke="midnightblue" d="M155.37,-48C143.86,-48 133.33,-48 125.06,-48"/>
<polygon fill="midnightblue" stroke="midnightblue" points="155.72,-51.5 165.72,-48 155.72,-44.5 155.72,-51.5"/>
</g>
<!-- Node4 -->
<g id="node4" class="node">
<title>Node4</title>
<g id="a_node4"><a xlink:href="../../d7/dc4/_u___service_8cpp.html#a3e9716f0248a5a48598490cd4920cbee" target="_top" xlink:title="Entrypoint of the user space executable.">
<polygon fill="none" stroke="black" points="0,-38.5 0,-57.5 46,-57.5 46,-38.5 0,-38.5"/>
<text text-anchor="middle" x="23" y="-45.5" font-family="Helvetica,sans-Serif" font-size="10.00">_tmain</text>
</a>
</g>
</g>
<!-- Node3&#45;&gt;Node4 -->
<g id="edge3" class="edge">
<title>Node3&#45;&gt;Node4</title>
<path fill="none" stroke="midnightblue" d="M75.47,-72.15C65.16,-67.31 53.83,-62 44.43,-57.59"/>
<polygon fill="midnightblue" stroke="midnightblue" points="74.02,-75.33 84.56,-76.41 76.99,-69 74.02,-75.33"/>
</g>
<!-- Node5&#45;&gt;Node4 -->
<g id="edge5" class="edge">
<title>Node5&#45;&gt;Node4</title>
<path fill="none" stroke="midnightblue" d="M76.36,-48C66.4,-48 55.39,-48 46.05,-48"/>
<polygon fill="midnightblue" stroke="midnightblue" points="76.62,-51.5 86.62,-48 76.62,-44.5 76.62,-51.5"/>
</g>
<!-- Node7 -->
<g id="node7" class="node">
<title>Node7</title>
<g id="a_node7"><a xlink:href="../../d7/dc4/_u___service_8cpp.html#afa2e3daf278842db7a49d41ebebc8519" target="_top" xlink:title="Wrap the call to the service entrypoint.">
<polygon fill="none" stroke="black" points="82,-0.5 82,-19.5 130,-19.5 130,-0.5 82,-0.5"/>
<text text-anchor="middle" x="106" y="-7.5" font-family="Helvetica,sans-Serif" font-size="10.00">Service</text>
</a>
</g>
</g>
<!-- Node6&#45;&gt;Node7 -->
<g id="edge7" class="edge">
<title>Node6&#45;&gt;Node7</title>
<path fill="none" stroke="midnightblue" d="M224.25,-10C195.23,-10 155.16,-10 130.18,-10"/>
<polygon fill="midnightblue" stroke="midnightblue" points="224.39,-13.5 234.39,-10 224.39,-6.5 224.39,-13.5"/>
</g>
<!-- Node7&#45;&gt;Node4 -->
<g id="edge8" class="edge">
<title>Node7&#45;&gt;Node4</title>
<path fill="none" stroke="midnightblue" d="M75.47,-23.85C65.16,-28.69 53.83,-34 44.43,-38.41"/>
<polygon fill="midnightblue" stroke="midnightblue" points="76.99,-27 84.56,-19.59 74.02,-20.67 76.99,-27"/>
</g>
</g>
</svg>
