<?xml version="1.0" encoding="UTF-8" standalone="no"?>
<!DOCTYPE svg PUBLIC "-//W3C//DTD SVG 1.1//EN"
 "http://www.w3.org/Graphics/SVG/1.1/DTD/svg11.dtd">
<!-- Generated by graphviz version 5.0.0 (20220707.1540)
 -->
<!-- Title: U_CONFIGURATION::DeleteLogsRegistry Pages: 1 -->
<svg width="332pt" height="39pt"
 viewBox="0.00 0.00 332.00 39.00" xmlns="http://www.w3.org/2000/svg" xmlns:xlink="http://www.w3.org/1999/xlink">
<g id="graph0" class="graph" transform="scale(1 1) rotate(0) translate(4 35)">
<title>U_CONFIGURATION::DeleteLogsRegistry</title>
<!-- Node1 -->
<g id="node1" class="node">
<title>Node1</title>
<g id="a_node1"><a xlink:title="Delete all the registry keys needed for ETW Logs.">
<polygon fill="#bfbfbf" stroke="black" points="162,-0.5 162,-30.5 324,-30.5 324,-0.5 162,-0.5"/>
<text text-anchor="start" x="170" y="-18.5" font-family="Helvetica,sans-Serif" font-size="10.00">U_CONFIGURATION::DeleteLogs</text>
<text text-anchor="middle" x="243" y="-7.5" font-family="Helvetica,sans-Serif" font-size="10.00">Registry</text>
</a>
</g>
</g>
<!-- Node2 -->
<g id="node2" class="node">
<title>Node2</title>
<g id="a_node2"><a xlink:href="../../d7/dc4/_u___service_8cpp.html#a1d7c8f0ec682b654c05c04ba5fcb6e12" target="_top" xlink:title="Wrap the deletion of the driver and the service.">
<polygon fill="none" stroke="black" points="82,-6 82,-25 126,-25 126,-6 82,-6"/>
<text text-anchor="middle" x="104" y="-13" font-family="Helvetica,sans-Serif" font-size="10.00">Delete</text>
</a>
</g>
</g>
<!-- Node1&#45;&gt;Node2 -->
<g id="edge1" class="edge">
<title>Node1&#45;&gt;Node2</title>
<path fill="none" stroke="midnightblue" d="M151.83,-15.5C142.34,-15.5 133.46,-15.5 126.05,-15.5"/>
<polygon fill="midnightblue" stroke="midnightblue" points="151.91,-19 161.91,-15.5 151.91,-12 151.91,-19"/>
</g>
<!-- Node3 -->
<g id="node3" class="node">
<title>Node3</title>
<g id="a_node3"><a xlink:href="../../d7/dc4/_u___service_8cpp.html#a3e9716f0248a5a48598490cd4920cbee" target="_top" xlink:title="Entrypoint of the user space executable.">
<polygon fill="none" stroke="black" points="0,-6 0,-25 46,-25 46,-6 0,-6"/>
<text text-anchor="middle" x="23" y="-13" font-family="Helvetica,sans-Serif" font-size="10.00">_tmain</text>
</a>
</g>
</g>
<!-- Node2&#45;&gt;Node3 -->
<g id="edge2" class="edge">
<title>Node2&#45;&gt;Node3</title>
<path fill="none" stroke="midnightblue" d="M71.74,-15.5C63.15,-15.5 54.01,-15.5 46.06,-15.5"/>
<polygon fill="midnightblue" stroke="midnightblue" points="71.83,-19 81.83,-15.5 71.83,-12 71.83,-19"/>
</g>
</g>
</svg>
