<?xml version="1.0" encoding="UTF-8" standalone="no"?>
<!DOCTYPE svg PUBLIC "-//W3C//DTD SVG 1.1//EN"
 "http://www.w3.org/Graphics/SVG/1.1/DTD/svg11.dtd">
<!-- Generated by graphviz version 5.0.0 (20220707.1540)
 -->
<!-- Title: DriverEntry Pages: 1 -->
<!--zoomable 689 -->
<svg id="main" version="1.1" xmlns="http://www.w3.org/2000/svg" xmlns:xlink="http://www.w3.org/1999/xlink" xml:space="preserve" onload="init(evt)">
<style type="text/css"><![CDATA[
.edge:hover path { stroke: red; }
.edge:hover polygon { stroke: red; fill: red; }
]]></style>
<script type="text/javascript"><![CDATA[
var edges = document.getElementsByTagName('g');
if (edges && edges.length) {
  for (var i=0;i<edges.length;i++) {
    if (edges[i].id.substr(0,4)=='edge') {
      edges[i].setAttribute('class','edge');
    }
  }
}
]]></script>
        <defs>
                <circle id="rim" cx="0" cy="0" r="7"/>
                <circle id="rim2" cx="0" cy="0" r="3.5"/>
                <g id="zoomPlus">
                        <use xlink:href="#rim" fill="#404040">
                                <set attributeName="fill" to="#808080" begin="zoomplus.mouseover" end="zoomplus.mouseout"/>
                        </use>
                        <path d="M-4,0h8M0,-4v8" fill="none" stroke="white" stroke-width="1.5" pointer-events="none"/>
                </g>
                <g id="zoomMin">
                        <use xlink:href="#rim" fill="#404040">
                                <set attributeName="fill" to="#808080" begin="zoomminus.mouseover" end="zoomminus.mouseout"/>
                        </use>
                        <path d="M-4,0h8" fill="none" stroke="white" stroke-width="1.5" pointer-events="none"/>
                </g>
                <g id="dirArrow">
                        <path fill="none" stroke="white" stroke-width="1.5" d="M0,-3.0v7 M-2.5,-0.5L0,-3.0L2.5,-0.5"/>
                </g>
               <g id="resetDef">
                       <use xlink:href="#rim2" fill="#404040">
                               <set attributeName="fill" to="#808080" begin="reset.mouseover" end="reset.mouseout"/>
                       </use>
               </g>
        </defs>

<script type="text/javascript">
var viewWidth = 1116;
var viewHeight = 689;
var sectionId = 'dynsection-1';
</script>
<script xlink:href="../../svgpan.js"/>
<svg id="graph" class="graph">
<g id="viewport">
<title>DriverEntry</title>
<!-- Node1 -->
<g id="node1" class="node">
<title>Node1</title>
<g id="a_node1"><a xlink:title="Main Driver Entry Routine.">
<polygon fill="#bfbfbf" stroke="black" points="0,-297.5 0,-316.5 64,-316.5 64,-297.5 0,-297.5"/>
<text text-anchor="middle" x="32" y="-304.5" font-family="Helvetica,sans-Serif" font-size="10.00">DriverEntry</text>
</a>
</g>
</g>
<!-- Node2 -->
<g id="node2" class="node">
<title>Node2</title>
<g id="a_node2"><a xlink:href="../../d3/d9c/_k___driver_8cpp.html#a551262cb86f3d855ff91a51b2448945f" target="_top" xlink:title="Driver Unloading Routine.">
<polygon fill="none" stroke="black" points="139,-517.5 139,-536.5 210,-536.5 210,-517.5 139,-517.5"/>
<text text-anchor="middle" x="174.5" y="-524.5" font-family="Helvetica,sans-Serif" font-size="10.00">DriverUnload</text>
</a>
</g>
</g>
<!-- Node1&#45;&gt;Node2 -->
<g id="edge1" class="edge">
<title>Node1&#45;&gt;Node2</title>
<path fill="none" stroke="midnightblue" d="M35.97,-316.64C43.83,-341.22 66.86,-407.62 100,-455 115.17,-476.69 137.4,-497.39 153.44,-510.98"/>
<polygon fill="midnightblue" stroke="midnightblue" points="151.26,-513.72 161.19,-517.41 155.73,-508.33 151.26,-513.72"/>
</g>
<!-- Node6 -->
<g id="node6" class="node">
<title>Node6</title>
<g id="a_node6"><a xlink:href="../../d6/daa/class_k___o_b.html#a21fe4100571040a8d156fa0f045168ea" target="_top" xlink:title="Register the ObCallback routine.">
<polygon fill="none" stroke="black" points="132.5,-426.5 132.5,-445.5 216.5,-445.5 216.5,-426.5 132.5,-426.5"/>
<text text-anchor="middle" x="174.5" y="-433.5" font-family="Helvetica,sans-Serif" font-size="10.00">K_OB::Initialize</text>
</a>
</g>
</g>
<!-- Node1&#45;&gt;Node6 -->
<g id="edge5" class="edge">
<title>Node1&#45;&gt;Node6</title>
<path fill="none" stroke="midnightblue" d="M43.56,-316.7C67.36,-338.55 125.43,-391.86 155.22,-419.21"/>
<polygon fill="midnightblue" stroke="midnightblue" points="153.08,-422.01 162.82,-426.19 157.82,-416.85 153.08,-422.01"/>
</g>
<!-- Node21 -->
<g id="node21" class="node">
<title>Node21</title>
<g id="a_node21"><a xlink:href="../../da/dac/class_k___f_i_l_t_e_r.html#a67527d5cd60280cd85245421ee9f657d" target="_top" xlink:title="Initialize the filter.">
<polygon fill="none" stroke="black" points="123.5,-297.5 123.5,-316.5 225.5,-316.5 225.5,-297.5 123.5,-297.5"/>
<text text-anchor="middle" x="174.5" y="-304.5" font-family="Helvetica,sans-Serif" font-size="10.00">K_FILTER::Initialize</text>
</a>
</g>
</g>
<!-- Node1&#45;&gt;Node21 -->
<g id="edge21" class="edge">
<title>Node1&#45;&gt;Node21</title>
<path fill="none" stroke="midnightblue" d="M64.18,-307C78.58,-307 96.18,-307 113.02,-307"/>
<polygon fill="midnightblue" stroke="midnightblue" points="113.37,-310.5 123.37,-307 113.37,-303.5 113.37,-310.5"/>
</g>
<!-- Node27 -->
<g id="node27" class="node">
<title>Node27</title>
<g id="a_node27"><a xlink:href="../../da/dac/class_k___f_i_l_t_e_r.html#a8fdd916e469e934c6acd0a72245ca65b" target="_top" xlink:title="Unload the communication &amp; the filter.">
<polygon fill="none" stroke="black" points="344,-240.5 344,-259.5 441,-259.5 441,-240.5 344,-240.5"/>
<text text-anchor="middle" x="392.5" y="-247.5" font-family="Helvetica,sans-Serif" font-size="10.00">K_FILTER::Unload</text>
</a>
</g>
</g>
<!-- Node1&#45;&gt;Node27 -->
<g id="edge38" class="edge">
<title>Node1&#45;&gt;Node27</title>
<path fill="none" stroke="midnightblue" d="M63.12,-297.44C74.57,-294.08 87.8,-290.51 100,-288 180.28,-271.48 274.57,-260.73 333.68,-255.01"/>
<polygon fill="midnightblue" stroke="midnightblue" points="334.31,-258.47 343.94,-254.04 333.65,-251.5 334.31,-258.47"/>
</g>
<!-- Node29 -->
<g id="node29" class="node">
<title>Node29</title>
<g id="a_node29"><a xlink:href="../../d5/dab/class_k___c_o_n_f_i_g_u_r_a_t_i_o_n.html#aef0897b9b976104c3162254f84211b12" target="_top" xlink:title="Initialize configuration from Registry.">
<polygon fill="none" stroke="black" points="100,-114.5 100,-133.5 249,-133.5 249,-114.5 100,-114.5"/>
<text text-anchor="middle" x="174.5" y="-121.5" font-family="Helvetica,sans-Serif" font-size="10.00">K_CONFIGURATION::Initialize</text>
</a>
</g>
</g>
<!-- Node1&#45;&gt;Node29 -->
<g id="edge29" class="edge">
<title>Node1&#45;&gt;Node29</title>
<path fill="none" stroke="midnightblue" d="M40.36,-297.42C62.73,-268.28 130.21,-180.38 159.59,-142.12"/>
<polygon fill="midnightblue" stroke="midnightblue" points="162.56,-143.99 165.88,-133.93 157.01,-139.73 162.56,-143.99"/>
</g>
<!-- Node3 -->
<g id="node3" class="node">
<title>Node3</title>
<g id="a_node3"><a xlink:href="../../d5/dab/class_k___c_o_n_f_i_g_u_r_a_t_i_o_n.html#aea522a70a76fab44d00ff8600c7559ef" target="_top" xlink:title="Free previously allocated memory.">
<polygon fill="none" stroke="black" points="321,-608.5 321,-627.5 464,-627.5 464,-608.5 321,-608.5"/>
<text text-anchor="middle" x="392.5" y="-615.5" font-family="Helvetica,sans-Serif" font-size="10.00">K_CONFIGURATION::Unload</text>
</a>
</g>
</g>
<!-- Node2&#45;&gt;Node3 -->
<g id="edge2" class="edge">
<title>Node2&#45;&gt;Node3</title>
<path fill="none" stroke="midnightblue" d="M198.21,-536.57C236.78,-552.82 315.19,-585.85 359.37,-604.46"/>
<polygon fill="midnightblue" stroke="midnightblue" points="358.2,-607.77 368.77,-608.43 360.92,-601.32 358.2,-607.77"/>
</g>
<!-- Node5 -->
<g id="node5" class="node">
<title>Node5</title>
<g id="a_node5"><a xlink:href="../../d6/daa/class_k___o_b.html#ad3d6ebe0d6cdc7160350668c394db38a" target="_top" xlink:title="Routine used to unload ObCallback.">
<polygon fill="none" stroke="black" points="353,-517.5 353,-536.5 432,-536.5 432,-517.5 353,-517.5"/>
<text text-anchor="middle" x="392.5" y="-524.5" font-family="Helvetica,sans-Serif" font-size="10.00">K_OB::Unload</text>
</a>
</g>
</g>
<!-- Node2&#45;&gt;Node5 -->
<g id="edge4" class="edge">
<title>Node2&#45;&gt;Node5</title>
<path fill="none" stroke="midnightblue" d="M210.2,-527C246.08,-527 302.38,-527 342.72,-527"/>
<polygon fill="midnightblue" stroke="midnightblue" points="342.87,-530.5 352.87,-527 342.87,-523.5 342.87,-530.5"/>
</g>
<!-- Node4 -->
<g id="node4" class="node">
<title>Node4</title>
<g id="a_node4"><a xlink:href="../../de/dab/class_k___w_h_i_t_e_l_i_s_t.html#a3d3c671480433a117099facd90d4d498" target="_top" xlink:title="Free previously allocated memory.">
<polygon fill="none" stroke="black" points="573,-661.5 573,-680.5 688,-680.5 688,-661.5 573,-661.5"/>
<text text-anchor="middle" x="630.5" y="-668.5" font-family="Helvetica,sans-Serif" font-size="10.00">K_WHITELIST::Unload</text>
</a>
</g>
</g>
<!-- Node3&#45;&gt;Node4 -->
<g id="edge3" class="edge">
<title>Node3&#45;&gt;Node4</title>
<path fill="none" stroke="midnightblue" d="M431.82,-627.51C460.46,-634.53 500.61,-644.18 536,-652 547.26,-654.49 559.31,-657.03 570.89,-659.4"/>
<polygon fill="midnightblue" stroke="midnightblue" points="570.41,-662.88 580.91,-661.45 571.81,-656.02 570.41,-662.88"/>
</g>
<!-- Node7 -->
<g id="node7" class="node">
<title>Node7</title>
<g id="a_node7"><a xlink:href="../../d6/daa/class_k___o_b.html#a6b236f7c3b792f31133c3428966a2921" target="_top" xlink:title="We get notify when a process want a handle.">
<polygon fill="none" stroke="black" points="333,-453.5 333,-472.5 452,-472.5 452,-453.5 333,-453.5"/>
<text text-anchor="middle" x="392.5" y="-460.5" font-family="Helvetica,sans-Serif" font-size="10.00">K_OB::_PreObCallback</text>
</a>
</g>
</g>
<!-- Node6&#45;&gt;Node7 -->
<g id="edge6" class="edge">
<title>Node6&#45;&gt;Node7</title>
<path fill="none" stroke="midnightblue" d="M216.64,-441.14C246.6,-444.89 287.9,-450.05 322.83,-454.42"/>
<polygon fill="midnightblue" stroke="midnightblue" points="322.62,-457.92 332.97,-455.68 323.48,-450.97 322.62,-457.92"/>
</g>
<!-- Node8 -->
<g id="node8" class="node">
<title>Node8</title>
<g id="a_node8"><a xlink:href="../../d6/daa/class_k___o_b.html#adbc9032c14f29ca14460dde65ee71b0d" target="_top" xlink:title="@brieF Checks if :">
<polygon fill="none" stroke="black" points="587,-623.5 587,-642.5 674,-642.5 674,-623.5 587,-623.5"/>
<text text-anchor="middle" x="630.5" y="-630.5" font-family="Helvetica,sans-Serif" font-size="10.00">K_OB::_Checks</text>
</a>
</g>
</g>
<!-- Node7&#45;&gt;Node8 -->
<g id="edge7" class="edge">
<title>Node7&#45;&gt;Node8</title>
<path fill="none" stroke="midnightblue" d="M437.31,-472.51C458.76,-479.19 483.46,-490.22 500,-508 533.89,-544.43 498.66,-581.12 536,-614 547.21,-623.87 562.13,-629.15 576.75,-631.84"/>
<polygon fill="midnightblue" stroke="midnightblue" points="576.37,-635.32 586.77,-633.31 577.39,-628.39 576.37,-635.32"/>
</g>
<!-- Node9 -->
<g id="node9" class="node">
<title>Node9</title>
<g id="a_node9"><a xlink:href="../../d5/dab/class_k___c_o_n_f_i_g_u_r_a_t_i_o_n.html#a499a9ef09e19ef4cc0827bff8ff04130" target="_top" xlink:title=" ">
<polygon fill="none" stroke="black" points="546,-585.5 546,-604.5 715,-604.5 715,-585.5 546,-585.5"/>
<text text-anchor="middle" x="630.5" y="-592.5" font-family="Helvetica,sans-Serif" font-size="10.00">K_CONFIGURATION::AddToCache</text>
</a>
</g>
</g>
<!-- Node7&#45;&gt;Node9 -->
<g id="edge8" class="edge">
<title>Node7&#45;&gt;Node9</title>
<path fill="none" stroke="midnightblue" d="M432.8,-472.56C454.64,-479.48 481.13,-490.71 500,-508 525.21,-531.1 508.62,-555.52 536,-576 538.36,-577.77 540.85,-579.38 543.43,-580.85"/>
<polygon fill="midnightblue" stroke="midnightblue" points="542.02,-584.06 552.53,-585.33 545.11,-577.78 542.02,-584.06"/>
</g>
<!-- Node12 -->
<g id="node12" class="node">
<title>Node12</title>
<g id="a_node12"><a xlink:href="../../d3/dab/class_k___h_e_l_p_e_r.html#af0e495aace15b35cba75c083a8d795ce" target="_top" xlink:title=" ">
<polygon fill="none" stroke="black" points="557.5,-536 557.5,-566 703.5,-566 703.5,-536 557.5,-536"/>
<text text-anchor="start" x="565.5" y="-554" font-family="Helvetica,sans-Serif" font-size="10.00">K_HELPER::ConvertNtPathTo</text>
<text text-anchor="middle" x="630.5" y="-543" font-family="Helvetica,sans-Serif" font-size="10.00">DosPath</text>
</a>
</g>
</g>
<!-- Node7&#45;&gt;Node12 -->
<g id="edge11" class="edge">
<title>Node7&#45;&gt;Node12</title>
<path fill="none" stroke="midnightblue" d="M417.38,-472.58C439.09,-481.41 471.92,-495.07 500,-508 516.25,-515.49 519.27,-519.66 536,-526 542.44,-528.44 549.21,-530.74 556.05,-532.88"/>
<polygon fill="midnightblue" stroke="midnightblue" points="555.49,-536.37 566.08,-535.91 557.51,-529.67 555.49,-536.37"/>
</g>
<!-- Node13 -->
<g id="node13" class="node">
<title>Node13</title>
<g id="a_node13"><a xlink:href="../../d3/dab/class_k___h_e_l_p_e_r.html#a68247f779a7948cc3413076957829623" target="_top" xlink:title=" ">
<polygon fill="none" stroke="black" points="566.5,-497.5 566.5,-516.5 694.5,-516.5 694.5,-497.5 566.5,-497.5"/>
<text text-anchor="middle" x="630.5" y="-504.5" font-family="Helvetica,sans-Serif" font-size="10.00">K_HELPER::GetFileHash</text>
</a>
</g>
</g>
<!-- Node7&#45;&gt;Node13 -->
<g id="edge12" class="edge">
<title>Node7&#45;&gt;Node13</title>
<path fill="none" stroke="midnightblue" d="M444.71,-472.55C481.05,-479.32 529.98,-488.45 568.37,-495.6"/>
<polygon fill="midnightblue" stroke="midnightblue" points="567.92,-499.08 578.39,-497.47 569.2,-492.2 567.92,-499.08"/>
</g>
<!-- Node14 -->
<g id="node14" class="node">
<title>Node14</title>
<g id="a_node14"><a xlink:href="../../d3/dab/class_k___h_e_l_p_e_r.html#a4b0d108fc4b9b7d6780126dd07895730" target="_top" xlink:title=" ">
<polygon fill="none" stroke="black" points="552,-448 552,-478 709,-478 709,-448 552,-448"/>
<text text-anchor="start" x="560" y="-466" font-family="Helvetica,sans-Serif" font-size="10.00">K_HELPER::GetFullImageName</text>
<text text-anchor="middle" x="630.5" y="-455" font-family="Helvetica,sans-Serif" font-size="10.00">ByHandle</text>
</a>
</g>
</g>
<!-- Node7&#45;&gt;Node14 -->
<g id="edge13" class="edge">
<title>Node7&#45;&gt;Node14</title>
<path fill="none" stroke="midnightblue" d="M452.14,-463C479.25,-463 512,-463 541.95,-463"/>
<polygon fill="midnightblue" stroke="midnightblue" points="541.98,-466.5 551.98,-463 541.98,-459.5 541.98,-466.5"/>
</g>
<!-- Node15 -->
<g id="node15" class="node">
<title>Node15</title>
<g id="a_node15"><a xlink:href="../../d5/dab/class_k___c_o_n_f_i_g_u_r_a_t_i_o_n.html#afb0e428195d7ac67b5685dfb73166d94" target="_top" xlink:title=" ">
<polygon fill="none" stroke="black" points="552.5,-409.5 552.5,-428.5 708.5,-428.5 708.5,-409.5 552.5,-409.5"/>
<text text-anchor="middle" x="630.5" y="-416.5" font-family="Helvetica,sans-Serif" font-size="10.00">K_CONFIGURATION::IsInCache</text>
</a>
</g>
</g>
<!-- Node7&#45;&gt;Node15 -->
<g id="edge14" class="edge">
<title>Node7&#45;&gt;Node15</title>
<path fill="none" stroke="midnightblue" d="M444.71,-453.45C481.05,-446.68 529.98,-437.55 568.37,-430.4"/>
<polygon fill="midnightblue" stroke="midnightblue" points="569.2,-433.8 578.39,-428.53 567.92,-426.92 569.2,-433.8"/>
</g>
<!-- Node17 -->
<g id="node17" class="node">
<title>Node17</title>
<g id="a_node17"><a xlink:href="../../d5/dab/class_k___c_o_n_f_i_g_u_r_a_t_i_o_n.html#aa0eade5fe406c90f04b739bf85e098f5" target="_top" xlink:title=" ">
<polygon fill="none" stroke="black" points="547,-371.5 547,-390.5 714,-390.5 714,-371.5 547,-371.5"/>
<text text-anchor="middle" x="630.5" y="-378.5" font-family="Helvetica,sans-Serif" font-size="10.00">K_CONFIGURATION::IsInWhitelist</text>
</a>
</g>
</g>
<!-- Node7&#45;&gt;Node17 -->
<g id="edge17" class="edge">
<title>Node7&#45;&gt;Node17</title>
<path fill="none" stroke="midnightblue" d="M411.9,-453.32C438.58,-439.64 489.87,-414.7 536,-400 544.58,-397.27 553.73,-394.84 562.82,-392.71"/>
<polygon fill="midnightblue" stroke="midnightblue" points="563.64,-396.11 572.63,-390.51 562.11,-389.28 563.64,-396.11"/>
</g>
<!-- Node20 -->
<g id="node20" class="node">
<title>Node20</title>
<g id="a_node20"><a xlink:href="../../d5/d98/class_k___c_o_m_m_u_n_i_c_a_t_i_o_n.html#a896b333aee4306520563c138c09f7b4e" target="_top" xlink:title="This function is used to send Data to the User&#45;Mode service.">
<polygon fill="none" stroke="black" points="561,-333.5 561,-352.5 700,-352.5 700,-333.5 561,-333.5"/>
<text text-anchor="middle" x="630.5" y="-340.5" font-family="Helvetica,sans-Serif" font-size="10.00">K_COMMUNICATION::Send</text>
</a>
</g>
</g>
<!-- Node7&#45;&gt;Node20 -->
<g id="edge20" class="edge">
<title>Node7&#45;&gt;Node20</title>
<path fill="none" stroke="midnightblue" d="M405.66,-453.38C434.7,-430.57 507.75,-374.23 536,-362 541.89,-359.45 548.13,-357.24 554.49,-355.32"/>
<polygon fill="midnightblue" stroke="midnightblue" points="555.84,-358.58 564.54,-352.54 553.97,-351.83 555.84,-358.58"/>
</g>
<!-- Node10 -->
<g id="node10" class="node">
<title>Node10</title>
<g id="a_node10"><a xlink:href="../../d7/d35/class_k___c_a_c_h_e.html#a785a988fa6c22e5a7626afe75bd447e3" target="_top" xlink:title="Add a Hash in the Cache and remember if it is signed or not.">
<polygon fill="none" stroke="black" points="789,-517.5 789,-536.5 875,-536.5 875,-517.5 789,-517.5"/>
<text text-anchor="middle" x="832" y="-524.5" font-family="Helvetica,sans-Serif" font-size="10.00">K_CACHE::Add</text>
</a>
</g>
</g>
<!-- Node9&#45;&gt;Node10 -->
<g id="edge9" class="edge">
<title>Node9&#45;&gt;Node10</title>
<path fill="none" stroke="midnightblue" d="M689.41,-585.42C701.31,-582.84 713.67,-579.71 725,-576 753.07,-566.8 783.52,-552.2 804.55,-541.33"/>
<polygon fill="midnightblue" stroke="midnightblue" points="806.28,-544.37 813.51,-536.63 803.03,-538.18 806.28,-544.37"/>
</g>
<!-- Node11 -->
<g id="node11" class="node">
<title>Node11</title>
<g id="a_node11"><a xlink:href="../../d7/d35/class_k___c_a_c_h_e.html#a2a803e7f4af2e18b582ccc4f2b9f747a" target="_top" xlink:title="Set &quot;pbIsOk&quot; to TRUE if cache contains specified Hash, FALSE otherwise.">
<polygon fill="none" stroke="black" points="950,-466.5 950,-485.5 1097,-485.5 1097,-466.5 950,-466.5"/>
<text text-anchor="middle" x="1023.5" y="-473.5" font-family="Helvetica,sans-Serif" font-size="10.00">K_CACHE::_GetCachedValue</text>
</a>
</g>
</g>
<!-- Node10&#45;&gt;Node11 -->
<g id="edge10" class="edge">
<title>Node10&#45;&gt;Node11</title>
<path fill="none" stroke="midnightblue" d="M868.64,-517.41C899.35,-509.14 943.84,-497.17 977.09,-488.22"/>
<polygon fill="midnightblue" stroke="midnightblue" points="978.27,-491.53 987.02,-485.55 976.45,-484.77 978.27,-491.53"/>
</g>
<!-- Node16 -->
<g id="node16" class="node">
<title>Node16</title>
<g id="a_node16"><a xlink:href="../../d7/d35/class_k___c_a_c_h_e.html#a98344c274506318cf85edd7debb5de80" target="_top" xlink:title="Set bIsOk to TRUE if cache contains specified Hash, FALSE otherwise.">
<polygon fill="none" stroke="black" points="761,-412.5 761,-431.5 903,-431.5 903,-412.5 761,-412.5"/>
<text text-anchor="middle" x="832" y="-419.5" font-family="Helvetica,sans-Serif" font-size="10.00">K_CACHE::GetCachedValue</text>
</a>
</g>
</g>
<!-- Node15&#45;&gt;Node16 -->
<g id="edge15" class="edge">
<title>Node15&#45;&gt;Node16</title>
<path fill="none" stroke="midnightblue" d="M708.63,-420.16C722.48,-420.37 736.95,-420.59 750.89,-420.8"/>
<polygon fill="midnightblue" stroke="midnightblue" points="750.87,-424.3 760.92,-420.95 750.98,-417.3 750.87,-424.3"/>
</g>
<!-- Node16&#45;&gt;Node11 -->
<g id="edge16" class="edge">
<title>Node16&#45;&gt;Node11</title>
<path fill="none" stroke="midnightblue" d="M866.44,-431.53C897.87,-440.49 945.07,-453.94 979.33,-463.7"/>
<polygon fill="midnightblue" stroke="midnightblue" points="978.5,-467.1 989.07,-466.47 980.42,-460.37 978.5,-467.1"/>
</g>
<!-- Node18 -->
<g id="node18" class="node">
<title>Node18</title>
<g id="a_node18"><a xlink:href="../../de/dab/class_k___w_h_i_t_e_l_i_s_t.html#a0002133cb46ec30f7f0044eecc5c58a9" target="_top" xlink:title="Check if whitelist contains provided string.">
<polygon fill="none" stroke="black" points="763,-371.5 763,-390.5 901,-390.5 901,-371.5 763,-371.5"/>
<text text-anchor="middle" x="832" y="-378.5" font-family="Helvetica,sans-Serif" font-size="10.00">K_WHITELIST::IsInWhitelist</text>
</a>
</g>
</g>
<!-- Node17&#45;&gt;Node18 -->
<g id="edge18" class="edge">
<title>Node17&#45;&gt;Node18</title>
<path fill="none" stroke="midnightblue" d="M714.08,-381C726.86,-381 740.02,-381 752.69,-381"/>
<polygon fill="midnightblue" stroke="midnightblue" points="752.73,-384.5 762.73,-381 752.73,-377.5 752.73,-384.5"/>
</g>
<!-- Node19 -->
<g id="node19" class="node">
<title>Node19</title>
<g id="a_node19"><a xlink:href="../../d3/dab/class_k___h_e_l_p_e_r.html#ad3301a9648f8b5a88f758ec4cd3b531e" target="_top" xlink:title=" ">
<polygon fill="none" stroke="black" points="939,-366 939,-396 1108,-396 1108,-366 939,-366"/>
<text text-anchor="start" x="947" y="-384" font-family="Helvetica,sans-Serif" font-size="10.00">K_HELPER::MyNtPathCchRemove</text>
<text text-anchor="middle" x="1023.5" y="-373" font-family="Helvetica,sans-Serif" font-size="10.00">FileSpec</text>
</a>
</g>
</g>
<!-- Node18&#45;&gt;Node19 -->
<g id="edge19" class="edge">
<title>Node18&#45;&gt;Node19</title>
<path fill="none" stroke="midnightblue" d="M901.15,-381C910.11,-381 919.41,-381 928.71,-381"/>
<polygon fill="midnightblue" stroke="midnightblue" points="928.77,-384.5 938.77,-381 928.77,-377.5 928.77,-384.5"/>
</g>
<!-- Node22 -->
<g id="node22" class="node">
<title>Node22</title>
<g id="a_node22"><a xlink:href="../../d5/dab/class_k___c_o_n_f_i_g_u_r_a_t_i_o_n.html#a834e0751914de6a38db6a4c7544062d1" target="_top" xlink:title=" ">
<polygon fill="none" stroke="black" points="285,-354.5 285,-373.5 500,-373.5 500,-354.5 285,-354.5"/>
<text text-anchor="middle" x="392.5" y="-361.5" font-family="Helvetica,sans-Serif" font-size="10.00">K_CONFIGURATION::GetCommunicationPort</text>
</a>
</g>
</g>
<!-- Node21&#45;&gt;Node22 -->
<g id="edge22" class="edge">
<title>Node21&#45;&gt;Node22</title>
<path fill="none" stroke="midnightblue" d="M199.52,-316.56C221.48,-325.01 255.02,-337.17 285,-345 295.82,-347.82 307.37,-350.36 318.73,-352.6"/>
<polygon fill="midnightblue" stroke="midnightblue" points="318.16,-356.05 328.63,-354.48 319.46,-349.17 318.16,-356.05"/>
</g>
<!-- Node23 -->
<g id="node23" class="node">
<title>Node23</title>
<g id="a_node23"><a xlink:href="../../d5/dab/class_k___c_o_n_f_i_g_u_r_a_t_i_o_n.html#af798bb1ed7052bdfb257d471afbcec59" target="_top" xlink:title=" ">
<polygon fill="none" stroke="black" points="303.5,-316.5 303.5,-335.5 481.5,-335.5 481.5,-316.5 303.5,-316.5"/>
<text text-anchor="middle" x="392.5" y="-323.5" font-family="Helvetica,sans-Serif" font-size="10.00">K_CONFIGURATION::GetMaxClients</text>
</a>
</g>
</g>
<!-- Node21&#45;&gt;Node23 -->
<g id="edge23" class="edge">
<title>Node21&#45;&gt;Node23</title>
<path fill="none" stroke="midnightblue" d="M225.6,-311.41C245.77,-313.18 269.77,-315.29 293.16,-317.35"/>
<polygon fill="midnightblue" stroke="midnightblue" points="292.87,-320.84 303.14,-318.23 293.48,-313.86 292.87,-320.84"/>
</g>
<!-- Node24 -->
<g id="node24" class="node">
<title>Node24</title>
<g id="a_node24"><a xlink:href="../../d5/d98/class_k___c_o_m_m_u_n_i_c_a_t_i_o_n.html#afa2b920efeb5d740d33f1ff7d443059f" target="_top" xlink:title="Initialize the communicaton.">
<polygon fill="none" stroke="black" points="316.5,-278.5 316.5,-297.5 468.5,-297.5 468.5,-278.5 316.5,-278.5"/>
<text text-anchor="middle" x="392.5" y="-285.5" font-family="Helvetica,sans-Serif" font-size="10.00">K_COMMUNICATION::Initialize</text>
</a>
</g>
</g>
<!-- Node21&#45;&gt;Node24 -->
<g id="edge24" class="edge">
<title>Node21&#45;&gt;Node24</title>
<path fill="none" stroke="midnightblue" d="M225.6,-302.59C249.57,-300.48 278.95,-297.9 306.29,-295.5"/>
<polygon fill="midnightblue" stroke="midnightblue" points="306.6,-298.98 316.26,-294.62 305.99,-292.01 306.6,-298.98"/>
</g>
<!-- Node21&#45;&gt;Node27 -->
<g id="edge27" class="edge">
<title>Node21&#45;&gt;Node27</title>
<path fill="none" stroke="midnightblue" d="M199.52,-297.44C221.48,-288.99 255.02,-276.83 285,-269 300.65,-264.91 317.83,-261.43 333.73,-258.6"/>
<polygon fill="midnightblue" stroke="midnightblue" points="334.71,-261.98 343.97,-256.84 333.52,-255.08 334.71,-261.98"/>
</g>
<!-- Node25 -->
<g id="node25" class="node">
<title>Node25</title>
<g id="a_node25"><a xlink:href="../../d5/d98/class_k___c_o_m_m_u_n_i_c_a_t_i_o_n.html#ab17f1e4ceb87f15d2698859cc66f637f" target="_top" xlink:title="The disconnection notify callback is called when a user mode application disconnect from the server p...">
<polygon fill="none" stroke="black" points="539,-284 539,-314 722,-314 722,-284 539,-284"/>
<text text-anchor="start" x="547" y="-302" font-family="Helvetica,sans-Serif" font-size="10.00">K_COMMUNICATION::_Disconnection</text>
<text text-anchor="middle" x="630.5" y="-291" font-family="Helvetica,sans-Serif" font-size="10.00">Callback</text>
</a>
</g>
</g>
<!-- Node24&#45;&gt;Node25 -->
<g id="edge25" class="edge">
<title>Node24&#45;&gt;Node25</title>
<path fill="none" stroke="midnightblue" d="M468.82,-291.51C487.86,-292.4 508.62,-293.37 528.69,-294.3"/>
<polygon fill="midnightblue" stroke="midnightblue" points="528.65,-297.8 538.8,-294.77 528.97,-290.81 528.65,-297.8"/>
</g>
<!-- Node26 -->
<g id="node26" class="node">
<title>Node26</title>
<g id="a_node26"><a xlink:href="../../d5/d98/class_k___c_o_m_m_u_n_i_c_a_t_i_o_n.html#adc988a77deb3241099ddcebf06cf3af8" target="_top" xlink:title="The connection notify callback is called when a user mode application connect to the server port.">
<polygon fill="none" stroke="black" points="536,-235 536,-265 725,-265 725,-235 536,-235"/>
<text text-anchor="start" x="544" y="-253" font-family="Helvetica,sans-Serif" font-size="10.00">K_COMMUNICATION::_NewConnection</text>
<text text-anchor="middle" x="630.5" y="-242" font-family="Helvetica,sans-Serif" font-size="10.00">Callback</text>
</a>
</g>
</g>
<!-- Node24&#45;&gt;Node26 -->
<g id="edge26" class="edge">
<title>Node24&#45;&gt;Node26</title>
<path fill="none" stroke="midnightblue" d="M452.75,-278.46C475.05,-274.87 501.11,-270.67 526.25,-266.62"/>
<polygon fill="midnightblue" stroke="midnightblue" points="526.89,-270.07 536.21,-265.02 525.78,-263.16 526.89,-270.07"/>
</g>
<!-- Node28 -->
<g id="node28" class="node">
<title>Node28</title>
<g id="a_node28"><a xlink:href="../../d5/d98/class_k___c_o_m_m_u_n_i_c_a_t_i_o_n.html#a53e190b73eab90e5fb6bfc07c8fe934f" target="_top" xlink:title="Unload the communication.">
<polygon fill="none" stroke="black" points="557.5,-196.5 557.5,-215.5 703.5,-215.5 703.5,-196.5 557.5,-196.5"/>
<text text-anchor="middle" x="630.5" y="-203.5" font-family="Helvetica,sans-Serif" font-size="10.00">K_COMMUNICATION::Unload</text>
</a>
</g>
</g>
<!-- Node27&#45;&gt;Node28 -->
<g id="edge28" class="edge">
<title>Node27&#45;&gt;Node28</title>
<path fill="none" stroke="midnightblue" d="M441.26,-241.1C477.81,-234.28 528.5,-224.83 568.07,-217.45"/>
<polygon fill="midnightblue" stroke="midnightblue" points="568.94,-220.85 578.13,-215.58 567.66,-213.97 568.94,-220.85"/>
</g>
<!-- Node30 -->
<g id="node30" class="node">
<title>Node30</title>
<g id="a_node30"><a xlink:href="../../d7/d35/class_k___c_a_c_h_e.html#a85480c0051eb20e2188f5ff40d3debee" target="_top" xlink:title="Set maximum size of Cache and initialize mutex.">
<polygon fill="none" stroke="black" points="340.5,-190.5 340.5,-209.5 444.5,-209.5 444.5,-190.5 340.5,-190.5"/>
<text text-anchor="middle" x="392.5" y="-197.5" font-family="Helvetica,sans-Serif" font-size="10.00">K_CACHE::Initialize</text>
</a>
</g>
</g>
<!-- Node29&#45;&gt;Node30 -->
<g id="edge30" class="edge">
<title>Node29&#45;&gt;Node30</title>
<path fill="none" stroke="midnightblue" d="M190.44,-133.66C210.93,-146.46 249.29,-168.84 285,-181 299.3,-185.87 315.13,-189.56 330.11,-192.32"/>
<polygon fill="midnightblue" stroke="midnightblue" points="329.87,-195.83 340.32,-194.09 331.07,-188.93 329.87,-195.83"/>
</g>
<!-- Node31 -->
<g id="node31" class="node">
<title>Node31</title>
<g id="a_node31"><a xlink:href="../../de/dab/class_k___w_h_i_t_e_l_i_s_t.html#a1932a532f12efb5c5ce142933536d0ad" target="_top" xlink:title="Set maximum size of Cache and initialize mutex.">
<polygon fill="none" stroke="black" points="332.5,-152.5 332.5,-171.5 452.5,-171.5 452.5,-152.5 332.5,-152.5"/>
<text text-anchor="middle" x="392.5" y="-159.5" font-family="Helvetica,sans-Serif" font-size="10.00">K_WHITELIST::Initialize</text>
</a>
</g>
</g>
<!-- Node29&#45;&gt;Node31 -->
<g id="edge31" class="edge">
<title>Node29&#45;&gt;Node31</title>
<path fill="none" stroke="midnightblue" d="M229.73,-133.54C259.38,-138.76 296.3,-145.25 327.38,-150.72"/>
<polygon fill="midnightblue" stroke="midnightblue" points="326.8,-154.17 337.25,-152.46 328.01,-147.28 326.8,-154.17"/>
</g>
<!-- Node34 -->
<g id="node34" class="node">
<title>Node34</title>
<g id="a_node34"><a xlink:href="../../d3/dab/class_k___h_e_l_p_e_r.html#ad3cc3cc83a534646b185a241bd12a53c" target="_top" xlink:title="Returns TRUE if the passed _KEY_VALUE_PARTIAL_INFORMATION structure extracted from the Registry conta...">
<polygon fill="none" stroke="black" points="328.5,-114.5 328.5,-133.5 456.5,-133.5 456.5,-114.5 328.5,-114.5"/>
<text text-anchor="middle" x="392.5" y="-121.5" font-family="Helvetica,sans-Serif" font-size="10.00">K_HELPER::IsValidString</text>
</a>
</g>
</g>
<!-- Node29&#45;&gt;Node34 -->
<g id="edge34" class="edge">
<title>Node29&#45;&gt;Node34</title>
<path fill="none" stroke="midnightblue" d="M249.23,-124C271.49,-124 295.91,-124 318.14,-124"/>
<polygon fill="midnightblue" stroke="midnightblue" points="318.19,-127.5 328.19,-124 318.19,-120.5 318.19,-127.5"/>
</g>
<!-- Node35 -->
<g id="node35" class="node">
<title>Node35</title>
<g id="a_node35"><a xlink:href="../../d3/dab/class_k___h_e_l_p_e_r.html#a588df73e2bee03d09a622fb064d8ad95" target="_top" xlink:title="Returns TRUE if the passed _KEY_VALUE_PARTIAL_INFORMATION structure extracted from the Registry conta...">
<polygon fill="none" stroke="black" points="316.5,-76.5 316.5,-95.5 468.5,-95.5 468.5,-76.5 316.5,-76.5"/>
<text text-anchor="middle" x="392.5" y="-83.5" font-family="Helvetica,sans-Serif" font-size="10.00">K_HELPER::IsValidStringArray</text>
</a>
</g>
</g>
<!-- Node29&#45;&gt;Node35 -->
<g id="edge35" class="edge">
<title>Node29&#45;&gt;Node35</title>
<path fill="none" stroke="midnightblue" d="M229.73,-114.46C259.38,-109.24 296.3,-102.75 327.38,-97.28"/>
<polygon fill="midnightblue" stroke="midnightblue" points="328.01,-100.72 337.25,-95.54 326.8,-93.83 328.01,-100.72"/>
</g>
<!-- Node36 -->
<g id="node36" class="node">
<title>Node36</title>
<g id="a_node36"><a xlink:href="../../d3/dab/class_k___h_e_l_p_e_r.html#a3ab02ccffaaec9ecde6aa8d323f87279" target="_top" xlink:title=" ">
<polygon fill="none" stroke="black" points="322.5,-38.5 322.5,-57.5 462.5,-57.5 462.5,-38.5 322.5,-38.5"/>
<text text-anchor="middle" x="392.5" y="-45.5" font-family="Helvetica,sans-Serif" font-size="10.00">K_HELPER::MyZwOpenKey</text>
</a>
</g>
</g>
<!-- Node29&#45;&gt;Node36 -->
<g id="edge36" class="edge">
<title>Node29&#45;&gt;Node36</title>
<path fill="none" stroke="midnightblue" d="M190.44,-114.34C210.93,-101.54 249.29,-79.16 285,-67 293.68,-64.04 302.93,-61.52 312.21,-59.38"/>
<polygon fill="midnightblue" stroke="midnightblue" points="313.23,-62.74 322.26,-57.2 311.75,-55.9 313.23,-62.74"/>
</g>
<!-- Node37 -->
<g id="node37" class="node">
<title>Node37</title>
<g id="a_node37"><a xlink:href="../../d3/dab/class_k___h_e_l_p_e_r.html#a3047a01b1ecb04618056eea485a04e1f" target="_top" xlink:title=" ">
<polygon fill="none" stroke="black" points="309,-0.5 309,-19.5 476,-19.5 476,-0.5 309,-0.5"/>
<text text-anchor="middle" x="392.5" y="-7.5" font-family="Helvetica,sans-Serif" font-size="10.00">K_HELPER::MyZwQueryValueKey</text>
</a>
</g>
</g>
<!-- Node29&#45;&gt;Node37 -->
<g id="edge37" class="edge">
<title>Node29&#45;&gt;Node37</title>
<path fill="none" stroke="midnightblue" d="M183.39,-114.29C199.95,-94.65 240.49,-50.26 285,-29 290.21,-26.51 295.71,-24.35 301.34,-22.46"/>
<polygon fill="midnightblue" stroke="midnightblue" points="302.39,-25.8 310.94,-19.55 300.35,-19.11 302.39,-25.8"/>
</g>
<!-- Node32 -->
<g id="node32" class="node">
<title>Node32</title>
<g id="a_node32"><a xlink:href="../../d3/dab/class_k___h_e_l_p_e_r.html#a55e39ba2e33bf68c7bf9bf81f1fe5b8e" target="_top" xlink:title="Returns the number of Unicode strings found in a buffer (raw data from REG_MULTI_SZ).">
<polygon fill="none" stroke="black" points="557,-147 557,-177 704,-177 704,-147 557,-147"/>
<text text-anchor="start" x="565" y="-165" font-family="Helvetica,sans-Serif" font-size="10.00">K_HELPER::CountWStringsIn</text>
<text text-anchor="middle" x="630.5" y="-154" font-family="Helvetica,sans-Serif" font-size="10.00">Buffer</text>
</a>
</g>
</g>
<!-- Node31&#45;&gt;Node32 -->
<g id="edge32" class="edge">
<title>Node31&#45;&gt;Node32</title>
<path fill="none" stroke="midnightblue" d="M452.75,-162C481.09,-162 515.49,-162 546.39,-162"/>
<polygon fill="midnightblue" stroke="midnightblue" points="546.72,-165.5 556.72,-162 546.72,-158.5 546.72,-165.5"/>
</g>
<!-- Node33 -->
<g id="node33" class="node">
<title>Node33</title>
<g id="a_node33"><a xlink:href="../../d3/dab/class_k___h_e_l_p_e_r.html#af1e60e3b4d1f195ee8986b2411a949fa" target="_top" xlink:title=" ">
<polygon fill="none" stroke="black" points="556,-108.5 556,-127.5 705,-127.5 705,-108.5 556,-108.5"/>
<text text-anchor="middle" x="630.5" y="-115.5" font-family="Helvetica,sans-Serif" font-size="10.00">K_HELPER::DosPathtoNtPath</text>
</a>
</g>
</g>
<!-- Node31&#45;&gt;Node33 -->
<g id="edge33" class="edge">
<title>Node31&#45;&gt;Node33</title>
<path fill="none" stroke="midnightblue" d="M447.71,-152.48C464.48,-149.5 483.01,-146.16 500,-143 523.23,-138.69 548.78,-133.79 571,-129.48"/>
<polygon fill="midnightblue" stroke="midnightblue" points="571.8,-132.89 580.95,-127.54 570.47,-126.01 571.8,-132.89"/>
</g>
</g>
</svg>
        <g id="navigator" transform="translate(0 0)" fill="#404254">
                <rect fill="#f2f5e9" fill-opacity="0.5" stroke="#606060" stroke-width=".5" x="0" y="0" width="60" height="60"/>
                <use id="zoomplus" xlink:href="#zoomPlus" x="17" y="9" onmousedown="handleZoom(evt,'in')"/>
                <use id="zoomminus" xlink:href="#zoomMin" x="42" y="9" onmousedown="handleZoom(evt,'out')"/>
                <use id="reset" xlink:href="#resetDef" x="30" y="36" onmousedown="handleReset()"/>
                <g id="arrowUp" xlink:href="#dirArrow" transform="translate(30 24)" onmousedown="handlePan(0,-1)">
                  <use xlink:href="#rim" fill="#404040">
                        <set attributeName="fill" to="#808080" begin="arrowUp.mouseover" end="arrowUp.mouseout"/>
                  </use>
                  <path fill="none" stroke="white" stroke-width="1.5" d="M0,-3.0v7 M-2.5,-0.5L0,-3.0L2.5,-0.5"/>
                </g>
                <g id="arrowRight" xlink:href="#dirArrow" transform="rotate(90) translate(36 -43)" onmousedown="handlePan(1,0)">
                  <use xlink:href="#rim" fill="#404040">
                        <set attributeName="fill" to="#808080" begin="arrowRight.mouseover" end="arrowRight.mouseout"/>
                  </use>
                  <path fill="none" stroke="white" stroke-width="1.5" d="M0,-3.0v7 M-2.5,-0.5L0,-3.0L2.5,-0.5"/>
                </g>
                <g id="arrowDown" xlink:href="#dirArrow" transform="rotate(180) translate(-30 -48)" onmousedown="handlePan(0,1)">
                  <use xlink:href="#rim" fill="#404040">
                        <set attributeName="fill" to="#808080" begin="arrowDown.mouseover" end="arrowDown.mouseout"/>
                  </use>
                  <path fill="none" stroke="white" stroke-width="1.5" d="M0,-3.0v7 M-2.5,-0.5L0,-3.0L2.5,-0.5"/>
                </g>
                <g id="arrowLeft" xlink:href="#dirArrow" transform="rotate(270) translate(-36 17)" onmousedown="handlePan(-1,0)">
                  <use xlink:href="#rim" fill="#404040">
                        <set attributeName="fill" to="#808080" begin="arrowLeft.mouseover" end="arrowLeft.mouseout"/>
                  </use>
                  <path fill="none" stroke="white" stroke-width="1.5" d="M0,-3.0v7 M-2.5,-0.5L0,-3.0L2.5,-0.5"/>
                </g>
        </g>
        <svg viewBox="0 0 15 15" width="100%" height="30px" preserveAspectRatio="xMaxYMin meet">
         <g id="arrow_out" transform="scale(0.3 0.3)">
          <a xlink:href="_k___driver_8cpp_abd482ac5174a4365b1fa1c26e463c60d_cgraph_org.svg" target="_base">
           <rect id="button" ry="5" rx="5" y="6" x="6" height="38" width="38"
                fill="#f2f5e9" fill-opacity="0.5" stroke="#606060" stroke-width="1.0"/>
           <path id="arrow"
             d="M 11.500037,31.436501 C 11.940474,20.09759 22.043105,11.32322 32.158766,21.979434 L 37.068811,17.246167 C 37.068811,17.246167 37.088388,32 37.088388,32 L 22.160133,31.978069 C 22.160133,31.978069 26.997745,27.140456 26.997745,27.140456 C 18.528582,18.264221 13.291696,25.230495 11.500037,31.436501 z"
             style="fill:#404040;"/>
          </a>
         </g>
        </svg>
</svg>
