<?xml version="1.0" encoding="UTF-8" standalone="no"?>
<!DOCTYPE svg PUBLIC "-//W3C//DTD SVG 1.1//EN"
 "http://www.w3.org/Graphics/SVG/1.1/DTD/svg11.dtd">
<!-- Generated by graphviz version 5.0.0 (20220707.1540)
 -->
<!-- Title: DriverUnload Pages: 1 -->
<svg width="409pt" height="66pt"
 viewBox="0.00 0.00 409.00 66.00" xmlns="http://www.w3.org/2000/svg" xmlns:xlink="http://www.w3.org/1999/xlink">
<g id="graph0" class="graph" transform="scale(1 1) rotate(0) translate(4 62)">
<title>DriverUnload</title>
<!-- Node1 -->
<g id="node1" class="node">
<title>Node1</title>
<g id="a_node1"><a xlink:title="Driver Unloading Routine.">
<polygon fill="#bfbfbf" stroke="black" points="0,-19.5 0,-38.5 71,-38.5 71,-19.5 0,-19.5"/>
<text text-anchor="middle" x="35.5" y="-26.5" font-family="Helvetica,sans-Serif" font-size="10.00">DriverUnload</text>
</a>
</g>
</g>
<!-- Node2 -->
<g id="node2" class="node">
<title>Node2</title>
<g id="a_node2"><a xlink:href="../../d5/dab/class_k___c_o_n_f_i_g_u_r_a_t_i_o_n.html#aea522a70a76fab44d00ff8600c7559ef" target="_top" xlink:title="Free previously allocated memory.">
<polygon fill="none" stroke="black" points="107,-38.5 107,-57.5 250,-57.5 250,-38.5 107,-38.5"/>
<text text-anchor="middle" x="178.5" y="-45.5" font-family="Helvetica,sans-Serif" font-size="10.00">K_CONFIGURATION::Unload</text>
</a>
</g>
</g>
<!-- Node1&#45;&gt;Node2 -->
<g id="edge1" class="edge">
<title>Node1&#45;&gt;Node2</title>
<path fill="none" stroke="midnightblue" d="M71.35,-33.7C79.23,-34.76 87.92,-35.93 96.83,-37.13"/>
<polygon fill="midnightblue" stroke="midnightblue" points="96.57,-40.63 106.95,-38.49 97.51,-33.69 96.57,-40.63"/>
</g>
<!-- Node4 -->
<g id="node4" class="node">
<title>Node4</title>
<g id="a_node4"><a xlink:href="../../d6/daa/class_k___o_b.html#ad3d6ebe0d6cdc7160350668c394db38a" target="_top" xlink:title="Routine used to unload ObCallback.">
<polygon fill="none" stroke="black" points="139,-0.5 139,-19.5 218,-19.5 218,-0.5 139,-0.5"/>
<text text-anchor="middle" x="178.5" y="-7.5" font-family="Helvetica,sans-Serif" font-size="10.00">K_OB::Unload</text>
</a>
</g>
</g>
<!-- Node1&#45;&gt;Node4 -->
<g id="edge3" class="edge">
<title>Node1&#45;&gt;Node4</title>
<path fill="none" stroke="midnightblue" d="M71.35,-24.3C88.7,-21.97 109.96,-19.1 128.89,-16.55"/>
<polygon fill="midnightblue" stroke="midnightblue" points="129.39,-20.02 138.83,-15.21 128.45,-13.08 129.39,-20.02"/>
</g>
<!-- Node3 -->
<g id="node3" class="node">
<title>Node3</title>
<g id="a_node3"><a xlink:href="../../de/dab/class_k___w_h_i_t_e_l_i_s_t.html#a3d3c671480433a117099facd90d4d498" target="_top" xlink:title="Free previously allocated memory.">
<polygon fill="none" stroke="black" points="286,-38.5 286,-57.5 401,-57.5 401,-38.5 286,-38.5"/>
<text text-anchor="middle" x="343.5" y="-45.5" font-family="Helvetica,sans-Serif" font-size="10.00">K_WHITELIST::Unload</text>
</a>
</g>
</g>
<!-- Node2&#45;&gt;Node3 -->
<g id="edge2" class="edge">
<title>Node2&#45;&gt;Node3</title>
<path fill="none" stroke="midnightblue" d="M250.05,-48C258.49,-48 267.09,-48 275.48,-48"/>
<polygon fill="midnightblue" stroke="midnightblue" points="275.58,-51.5 285.58,-48 275.58,-44.5 275.58,-51.5"/>
</g>
</g>
</svg>
