<?xml version="1.0" encoding="UTF-8" standalone="no"?>
<!DOCTYPE svg PUBLIC "-//W3C//DTD SVG 1.1//EN"
 "http://www.w3.org/Graphics/SVG/1.1/DTD/svg11.dtd">
<!-- Generated by graphviz version 5.0.0 (20220707.1540)
 -->
<!-- Title: U_COMMUNICATION::_MESSAGE Pages: 1 -->
<svg width="377pt" height="276pt"
 viewBox="0.00 0.00 377.00 276.00" xmlns="http://www.w3.org/2000/svg" xmlns:xlink="http://www.w3.org/1999/xlink">
<g id="graph0" class="graph" transform="scale(1 1) rotate(0) translate(4 272)">
<title>U_COMMUNICATION::_MESSAGE</title>
<!-- Node1 -->
<g id="node1" class="node">
<title>Node1</title>
<g id="a_node1"><a xlink:title=" ">
<polygon fill="#bfbfbf" stroke="black" points="132,-0.5 132,-57.5 303,-57.5 303,-0.5 132,-0.5"/>
<text text-anchor="middle" x="217.5" y="-45.5" font-family="Helvetica,sans-Serif" font-size="10.00">U_COMMUNICATION::_MESSAGE</text>
<polyline fill="none" stroke="black" points="132,-38.5 303,-38.5 "/>
<text text-anchor="middle" x="217.5" y="-26.5" font-family="Helvetica,sans-Serif" font-size="10.00"> </text>
<polyline fill="none" stroke="black" points="132,-19.5 303,-19.5 "/>
<text text-anchor="middle" x="217.5" y="-7.5" font-family="Helvetica,sans-Serif" font-size="10.00"> </text>
</a>
</g>
</g>
<!-- Node2 -->
<g id="node2" class="node">
<title>Node2</title>
<g id="a_node2"><a xlink:title=" ">
<polygon fill="none" stroke="black" points="0,-105.5 0,-162.5 149,-162.5 149,-105.5 0,-105.5"/>
<text text-anchor="middle" x="74.5" y="-150.5" font-family="Helvetica,sans-Serif" font-size="10.00">FILTER_MESSAGE_HEADER</text>
<polyline fill="none" stroke="black" points="0,-143.5 149,-143.5 "/>
<text text-anchor="middle" x="74.5" y="-131.5" font-family="Helvetica,sans-Serif" font-size="10.00"> </text>
<polyline fill="none" stroke="black" points="0,-124.5 149,-124.5 "/>
<text text-anchor="middle" x="74.5" y="-112.5" font-family="Helvetica,sans-Serif" font-size="10.00"> </text>
</a>
</g>
</g>
<!-- Node2&#45;&gt;Node1 -->
<g id="edge1" class="edge">
<title>Node2&#45;&gt;Node1</title>
<path fill="none" stroke="#404040" d="M100.16,-105.29C110.06,-95.41 121.8,-84.61 133.5,-76 139.16,-71.83 145.24,-67.79 151.45,-63.94"/>
<polygon fill="none" stroke="#404040" points="151.67,-63.81 154.77,-57.3 161.97,-57.65 158.87,-64.16 151.67,-63.81"/>
<text text-anchor="middle" x="173.5" y="-79" font-family="Helvetica,sans-Serif" font-size="10.00"> +messageHeader</text>
</g>
<!-- Node3 -->
<g id="node3" class="node">
<title>Node3</title>
<g id="a_node3"><a xlink:href="../../d4/d02/struct___d_a_t_a___t_r_a_n_s_m_i_t.html" target="_top" xlink:title=" ">
<polygon fill="none" stroke="black" points="167,-105.5 167,-162.5 268,-162.5 268,-105.5 167,-105.5"/>
<text text-anchor="middle" x="217.5" y="-150.5" font-family="Helvetica,sans-Serif" font-size="10.00">_DATA_TRANSMIT</text>
<polyline fill="none" stroke="black" points="167,-143.5 268,-143.5 "/>
<text text-anchor="middle" x="217.5" y="-131.5" font-family="Helvetica,sans-Serif" font-size="10.00"> </text>
<polyline fill="none" stroke="black" points="167,-124.5 268,-124.5 "/>
<text text-anchor="middle" x="217.5" y="-112.5" font-family="Helvetica,sans-Serif" font-size="10.00"> </text>
</a>
</g>
</g>
<!-- Node3&#45;&gt;Node1 -->
<g id="edge2" class="edge">
<title>Node3&#45;&gt;Node1</title>
<path fill="none" stroke="#404040" d="M217.5,-105.4C217.5,-94.55 217.5,-81.87 217.5,-70.05"/>
<polygon fill="none" stroke="#404040" points="217.5,-69.68 213.5,-63.68 217.5,-57.68 221.5,-63.68 217.5,-69.68"/>
<text text-anchor="middle" x="232.5" y="-79" font-family="Helvetica,sans-Serif" font-size="10.00"> +Data</text>
</g>
<!-- Node4 -->
<g id="node4" class="node">
<title>Node4</title>
<g id="a_node4"><a xlink:title=" ">
<polygon fill="none" stroke="black" points="191,-210.5 191,-267.5 244,-267.5 244,-210.5 191,-210.5"/>
<text text-anchor="middle" x="217.5" y="-255.5" font-family="Helvetica,sans-Serif" font-size="10.00">WCHAR</text>
<polyline fill="none" stroke="black" points="191,-248.5 244,-248.5 "/>
<text text-anchor="middle" x="217.5" y="-236.5" font-family="Helvetica,sans-Serif" font-size="10.00"> </text>
<polyline fill="none" stroke="black" points="191,-229.5 244,-229.5 "/>
<text text-anchor="middle" x="217.5" y="-217.5" font-family="Helvetica,sans-Serif" font-size="10.00"> </text>
</a>
</g>
</g>
<!-- Node4&#45;&gt;Node3 -->
<g id="edge3" class="edge">
<title>Node4&#45;&gt;Node3</title>
<path fill="none" stroke="#404040" d="M217.5,-210.4C217.5,-199.55 217.5,-186.87 217.5,-175.05"/>
<polygon fill="none" stroke="#404040" points="217.5,-174.68 213.5,-168.68 217.5,-162.68 221.5,-168.68 217.5,-174.68"/>
<text text-anchor="middle" x="246.5" y="-184" font-family="Helvetica,sans-Serif" font-size="10.00"> +wFileName</text>
</g>
<!-- Node5 -->
<g id="node5" class="node">
<title>Node5</title>
<g id="a_node5"><a xlink:title=" ">
<polygon fill="none" stroke="black" points="286,-105.5 286,-162.5 369,-162.5 369,-105.5 286,-105.5"/>
<text text-anchor="middle" x="327.5" y="-150.5" font-family="Helvetica,sans-Serif" font-size="10.00">OVERLAPPED</text>
<polyline fill="none" stroke="black" points="286,-143.5 369,-143.5 "/>
<text text-anchor="middle" x="327.5" y="-131.5" font-family="Helvetica,sans-Serif" font-size="10.00"> </text>
<polyline fill="none" stroke="black" points="286,-124.5 369,-124.5 "/>
<text text-anchor="middle" x="327.5" y="-112.5" font-family="Helvetica,sans-Serif" font-size="10.00"> </text>
</a>
</g>
</g>
<!-- Node5&#45;&gt;Node1 -->
<g id="edge4" class="edge">
<title>Node5&#45;&gt;Node1</title>
<path fill="none" stroke="#404040" d="M298.02,-105.4C285.08,-93.28 269.7,-78.88 255.88,-65.94"/>
<polygon fill="none" stroke="#404040" points="255.82,-65.88 248.71,-64.7 247.06,-57.68 254.17,-58.86 255.82,-65.88"/>
<text text-anchor="middle" x="290.5" y="-79" font-family="Helvetica,sans-Serif" font-size="10.00"> +Ovlp</text>
</g>
</g>
</svg>
