<?xml version="1.0" encoding="UTF-8" standalone="no"?>
<!DOCTYPE svg PUBLIC "-//W3C//DTD SVG 1.1//EN"
 "http://www.w3.org/Graphics/SVG/1.1/DTD/svg11.dtd">
<!-- Generated by graphviz version 5.0.0 (20220707.1540)
 -->
<!-- Title: K_CONFIGURATION::Initialize Pages: 1 -->
<svg width="545pt" height="218pt"
 viewBox="0.00 0.00 545.00 218.00" xmlns="http://www.w3.org/2000/svg" xmlns:xlink="http://www.w3.org/1999/xlink">
<g id="graph0" class="graph" transform="scale(1 1) rotate(0) translate(4 214)">
<title>K_CONFIGURATION::Initialize</title>
<!-- Node1 -->
<g id="node1" class="node">
<title>Node1</title>
<g id="a_node1"><a xlink:title="Initialize configuration from Registry.">
<polygon fill="#bfbfbf" stroke="black" points="0,-95.5 0,-114.5 149,-114.5 149,-95.5 0,-95.5"/>
<text text-anchor="middle" x="74.5" y="-102.5" font-family="Helvetica,sans-Serif" font-size="10.00">K_CONFIGURATION::Initialize</text>
</a>
</g>
</g>
<!-- Node2 -->
<g id="node2" class="node">
<title>Node2</title>
<g id="a_node2"><a xlink:href="../../d7/d35/class_k___c_a_c_h_e.html#a85480c0051eb20e2188f5ff40d3debee" target="_top" xlink:title="Set maximum size of Cache and initialize mutex.">
<polygon fill="none" stroke="black" points="216.5,-190.5 216.5,-209.5 320.5,-209.5 320.5,-190.5 216.5,-190.5"/>
<text text-anchor="middle" x="268.5" y="-197.5" font-family="Helvetica,sans-Serif" font-size="10.00">K_CACHE::Initialize</text>
</a>
</g>
</g>
<!-- Node1&#45;&gt;Node2 -->
<g id="edge1" class="edge">
<title>Node1&#45;&gt;Node2</title>
<path fill="none" stroke="midnightblue" d="M86.15,-114.51C104.81,-130.66 145.22,-163.4 185,-181 191.82,-184.02 199.18,-186.59 206.6,-188.77"/>
<polygon fill="midnightblue" stroke="midnightblue" points="205.77,-192.17 216.34,-191.41 207.61,-185.41 205.77,-192.17"/>
</g>
<!-- Node3 -->
<g id="node3" class="node">
<title>Node3</title>
<g id="a_node3"><a xlink:href="../../de/dab/class_k___w_h_i_t_e_l_i_s_t.html#a1932a532f12efb5c5ce142933536d0ad" target="_top" xlink:title="Set maximum size of Cache and initialize mutex.">
<polygon fill="none" stroke="black" points="208.5,-152.5 208.5,-171.5 328.5,-171.5 328.5,-152.5 208.5,-152.5"/>
<text text-anchor="middle" x="268.5" y="-159.5" font-family="Helvetica,sans-Serif" font-size="10.00">K_WHITELIST::Initialize</text>
</a>
</g>
</g>
<!-- Node1&#45;&gt;Node3 -->
<g id="edge2" class="edge">
<title>Node1&#45;&gt;Node3</title>
<path fill="none" stroke="midnightblue" d="M100.48,-114.53C122.51,-122.73 155.61,-134.54 185,-143 193.71,-145.51 203.02,-147.91 212.12,-150.11"/>
<polygon fill="midnightblue" stroke="midnightblue" points="211.35,-153.53 221.89,-152.42 212.96,-146.71 211.35,-153.53"/>
</g>
<!-- Node6 -->
<g id="node6" class="node">
<title>Node6</title>
<g id="a_node6"><a xlink:href="../../d3/dab/class_k___h_e_l_p_e_r.html#ad3cc3cc83a534646b185a241bd12a53c" target="_top" xlink:title="Returns TRUE if the passed _KEY_VALUE_PARTIAL_INFORMATION structure extracted from the Registry conta...">
<polygon fill="none" stroke="black" points="204.5,-114.5 204.5,-133.5 332.5,-133.5 332.5,-114.5 204.5,-114.5"/>
<text text-anchor="middle" x="268.5" y="-121.5" font-family="Helvetica,sans-Serif" font-size="10.00">K_HELPER::IsValidString</text>
</a>
</g>
</g>
<!-- Node1&#45;&gt;Node6 -->
<g id="edge5" class="edge">
<title>Node1&#45;&gt;Node6</title>
<path fill="none" stroke="midnightblue" d="M149.18,-112.29C163.96,-113.75 179.49,-115.29 194.25,-116.75"/>
<polygon fill="midnightblue" stroke="midnightblue" points="194.04,-120.25 204.33,-117.75 194.73,-113.28 194.04,-120.25"/>
</g>
<!-- Node7 -->
<g id="node7" class="node">
<title>Node7</title>
<g id="a_node7"><a xlink:href="../../d3/dab/class_k___h_e_l_p_e_r.html#a588df73e2bee03d09a622fb064d8ad95" target="_top" xlink:title="Returns TRUE if the passed _KEY_VALUE_PARTIAL_INFORMATION structure extracted from the Registry conta...">
<polygon fill="none" stroke="black" points="192.5,-76.5 192.5,-95.5 344.5,-95.5 344.5,-76.5 192.5,-76.5"/>
<text text-anchor="middle" x="268.5" y="-83.5" font-family="Helvetica,sans-Serif" font-size="10.00">K_HELPER::IsValidStringArray</text>
</a>
</g>
</g>
<!-- Node1&#45;&gt;Node7 -->
<g id="edge6" class="edge">
<title>Node1&#45;&gt;Node7</title>
<path fill="none" stroke="midnightblue" d="M149.18,-97.71C160.03,-96.63 171.28,-95.52 182.34,-94.43"/>
<polygon fill="midnightblue" stroke="midnightblue" points="182.82,-97.9 192.43,-93.43 182.13,-90.93 182.82,-97.9"/>
</g>
<!-- Node8 -->
<g id="node8" class="node">
<title>Node8</title>
<g id="a_node8"><a xlink:href="../../d3/dab/class_k___h_e_l_p_e_r.html#a3ab02ccffaaec9ecde6aa8d323f87279" target="_top" xlink:title=" ">
<polygon fill="none" stroke="black" points="198.5,-38.5 198.5,-57.5 338.5,-57.5 338.5,-38.5 198.5,-38.5"/>
<text text-anchor="middle" x="268.5" y="-45.5" font-family="Helvetica,sans-Serif" font-size="10.00">K_HELPER::MyZwOpenKey</text>
</a>
</g>
</g>
<!-- Node1&#45;&gt;Node8 -->
<g id="edge7" class="edge">
<title>Node1&#45;&gt;Node8</title>
<path fill="none" stroke="midnightblue" d="M100.48,-95.47C122.51,-87.27 155.61,-75.46 185,-67 193.71,-64.49 203.02,-62.09 212.12,-59.89"/>
<polygon fill="midnightblue" stroke="midnightblue" points="212.96,-63.29 221.89,-57.58 211.35,-56.47 212.96,-63.29"/>
</g>
<!-- Node9 -->
<g id="node9" class="node">
<title>Node9</title>
<g id="a_node9"><a xlink:href="../../d3/dab/class_k___h_e_l_p_e_r.html#a3047a01b1ecb04618056eea485a04e1f" target="_top" xlink:title=" ">
<polygon fill="none" stroke="black" points="185,-0.5 185,-19.5 352,-19.5 352,-0.5 185,-0.5"/>
<text text-anchor="middle" x="268.5" y="-7.5" font-family="Helvetica,sans-Serif" font-size="10.00">K_HELPER::MyZwQueryValueKey</text>
</a>
</g>
</g>
<!-- Node1&#45;&gt;Node9 -->
<g id="edge8" class="edge">
<title>Node1&#45;&gt;Node9</title>
<path fill="none" stroke="midnightblue" d="M86.15,-95.49C104.81,-79.34 145.22,-46.6 185,-29 190.65,-26.5 196.66,-24.31 202.77,-22.4"/>
<polygon fill="midnightblue" stroke="midnightblue" points="203.77,-25.75 212.41,-19.61 201.83,-19.03 203.77,-25.75"/>
</g>
<!-- Node4 -->
<g id="node4" class="node">
<title>Node4</title>
<g id="a_node4"><a xlink:href="../../d3/dab/class_k___h_e_l_p_e_r.html#a55e39ba2e33bf68c7bf9bf81f1fe5b8e" target="_top" xlink:title="Returns the number of Unicode strings found in a buffer (raw data from REG_MULTI_SZ).">
<polygon fill="none" stroke="black" points="389,-169 389,-199 536,-199 536,-169 389,-169"/>
<text text-anchor="start" x="397" y="-187" font-family="Helvetica,sans-Serif" font-size="10.00">K_HELPER::CountWStringsIn</text>
<text text-anchor="middle" x="462.5" y="-176" font-family="Helvetica,sans-Serif" font-size="10.00">Buffer</text>
</a>
</g>
</g>
<!-- Node3&#45;&gt;Node4 -->
<g id="edge3" class="edge">
<title>Node3&#45;&gt;Node4</title>
<path fill="none" stroke="midnightblue" d="M328.67,-168.78C344.46,-170.59 361.81,-172.58 378.61,-174.5"/>
<polygon fill="midnightblue" stroke="midnightblue" points="378.66,-178.03 388.99,-175.69 379.45,-171.08 378.66,-178.03"/>
</g>
<!-- Node5 -->
<g id="node5" class="node">
<title>Node5</title>
<g id="a_node5"><a xlink:href="../../d3/dab/class_k___h_e_l_p_e_r.html#af1e60e3b4d1f195ee8986b2411a949fa" target="_top" xlink:title=" ">
<polygon fill="none" stroke="black" points="388,-130.5 388,-149.5 537,-149.5 537,-130.5 388,-130.5"/>
<text text-anchor="middle" x="462.5" y="-137.5" font-family="Helvetica,sans-Serif" font-size="10.00">K_HELPER::DosPathtoNtPath</text>
</a>
</g>
</g>
<!-- Node3&#45;&gt;Node5 -->
<g id="edge4" class="edge">
<title>Node3&#45;&gt;Node5</title>
<path fill="none" stroke="midnightblue" d="M328.67,-155.22C344.18,-153.44 361.21,-151.49 377.74,-149.6"/>
<polygon fill="midnightblue" stroke="midnightblue" points="378.42,-153.04 387.95,-148.43 377.62,-146.09 378.42,-153.04"/>
</g>
</g>
</svg>
