<?xml version="1.0" encoding="UTF-8" standalone="no"?>
<!DOCTYPE svg PUBLIC "-//W3C//DTD SVG 1.1//EN"
 "http://www.w3.org/Graphics/SVG/1.1/DTD/svg11.dtd">
<!-- Generated by graphviz version 5.0.0 (20220707.1540)
 -->
<!-- Title: U_Service.hpp Pages: 1 -->
<svg width="465pt" height="252pt"
 viewBox="0.00 0.00 465.00 252.00" xmlns="http://www.w3.org/2000/svg" xmlns:xlink="http://www.w3.org/1999/xlink">
<g id="graph0" class="graph" transform="scale(1 1) rotate(0) translate(4 248)">
<title>U_Service.hpp</title>
<!-- Node1 -->
<g id="node1" class="node">
<title>Node1</title>
<g id="a_node1"><a xlink:title="Header for U_Service.cpp.">
<polygon fill="#bfbfbf" stroke="black" points="121,-224.5 121,-243.5 200,-243.5 200,-224.5 121,-224.5"/>
<text text-anchor="middle" x="160.5" y="-231.5" font-family="Helvetica,sans-Serif" font-size="10.00">U_Service.hpp</text>
</a>
</g>
</g>
<!-- Node2 -->
<g id="node2" class="node">
<title>Node2</title>
<g id="a_node2"><a xlink:href="../../d9/dc9/_u___communication_8hpp.html" target="_top" xlink:title="Header for U_Communication.cpp.">
<polygon fill="none" stroke="black" points="0,-56.5 0,-75.5 115,-75.5 115,-56.5 0,-56.5"/>
<text text-anchor="middle" x="57.5" y="-63.5" font-family="Helvetica,sans-Serif" font-size="10.00">U_Communication.hpp</text>
</a>
</g>
</g>
<!-- Node1&#45;&gt;Node2 -->
<g id="edge1" class="edge">
<title>Node1&#45;&gt;Node2</title>
<path fill="none" stroke="midnightblue" d="M145.49,-215.76C120.08,-180.59 71.49,-101.68 59.61,-75.57"/>
<polygon fill="midnightblue" stroke="midnightblue" points="142.91,-218.16 151.7,-224.08 148.52,-213.97 142.91,-218.16"/>
</g>
<!-- Node4 -->
<g id="node4" class="node">
<title>Node4</title>
<g id="a_node4"><a xlink:href="../../d6/de0/_u___configuration_8hpp.html" target="_top" xlink:title="Header for U_Configuration.cpp.">
<polygon fill="none" stroke="black" points="133.5,-56.5 133.5,-75.5 237.5,-75.5 237.5,-56.5 133.5,-56.5"/>
<text text-anchor="middle" x="185.5" y="-63.5" font-family="Helvetica,sans-Serif" font-size="10.00">U_Configuration.hpp</text>
</a>
</g>
</g>
<!-- Node1&#45;&gt;Node4 -->
<g id="edge4" class="edge">
<title>Node1&#45;&gt;Node4</title>
<path fill="none" stroke="midnightblue" d="M146.23,-215.72C132.9,-191.63 118.25,-146.96 132.5,-112 138.77,-96.62 153.11,-83.64 165.6,-75.63"/>
<polygon fill="midnightblue" stroke="midnightblue" points="143.36,-217.74 151.58,-224.43 149.32,-214.08 143.36,-217.74"/>
</g>
<!-- Node6 -->
<g id="node6" class="node">
<title>Node6</title>
<g id="a_node6"><a xlink:href="../../d5/d09/_u___helper_8hpp.html" target="_top" xlink:title="Header for U_Helper.cpp.">
<polygon fill="none" stroke="black" points="189,-168.5 189,-187.5 264,-187.5 264,-168.5 189,-168.5"/>
<text text-anchor="middle" x="226.5" y="-175.5" font-family="Helvetica,sans-Serif" font-size="10.00">U_Helper.hpp</text>
</a>
</g>
</g>
<!-- Node1&#45;&gt;Node6 -->
<g id="edge7" class="edge">
<title>Node1&#45;&gt;Node6</title>
<path fill="none" stroke="midnightblue" d="M173.56,-217.24C184.39,-207.56 199.47,-195.53 210.93,-187.57"/>
<polygon fill="midnightblue" stroke="midnightblue" points="171.15,-214.7 166.23,-224.08 175.93,-219.82 171.15,-214.7"/>
</g>
<!-- Node12 -->
<g id="node12" class="node">
<title>Node12</title>
<g id="a_node12"><a xlink:href="../../d7/dc4/_u___service_8cpp.html" target="_top" xlink:title="Entrypoint of the process &amp; the service.">
<polygon fill="none" stroke="black" points="321,-168.5 321,-187.5 400,-187.5 400,-168.5 321,-168.5"/>
<text text-anchor="middle" x="360.5" y="-175.5" font-family="Helvetica,sans-Serif" font-size="10.00">U_Service.cpp</text>
</a>
</g>
</g>
<!-- Node1&#45;&gt;Node12 -->
<g id="edge20" class="edge">
<title>Node1&#45;&gt;Node12</title>
<path fill="none" stroke="midnightblue" d="M201.87,-221.83C239.64,-211.63 294.64,-196.78 328.96,-187.52"/>
<polygon fill="midnightblue" stroke="midnightblue" points="200.93,-218.46 192.19,-224.44 202.76,-225.22 200.93,-218.46"/>
</g>
<!-- Node2&#45;&gt;Node1 -->
<g id="edge3" class="edge">
<title>Node2&#45;&gt;Node1</title>
<path fill="none" stroke="midnightblue" d="M72.17,-83.76C97.36,-118.54 146.02,-197.49 158.23,-224.08"/>
<polygon fill="midnightblue" stroke="midnightblue" points="74.82,-81.47 66.02,-75.57 69.22,-85.67 74.82,-81.47"/>
</g>
<!-- Node3 -->
<g id="node3" class="node">
<title>Node3</title>
<g id="a_node3"><a xlink:href="../../d6/da6/_u___communication_8cpp.html" target="_top" xlink:title="Manage the communication with the driver (Connect|Reply|ListenerThread|WorkerThread)">
<polygon fill="none" stroke="black" points="0,-0.5 0,-19.5 115,-19.5 115,-0.5 0,-0.5"/>
<text text-anchor="middle" x="57.5" y="-7.5" font-family="Helvetica,sans-Serif" font-size="10.00">U_Communication.cpp</text>
</a>
</g>
</g>
<!-- Node2&#45;&gt;Node3 -->
<g id="edge2" class="edge">
<title>Node2&#45;&gt;Node3</title>
<path fill="none" stroke="midnightblue" d="M57.5,-45.8C57.5,-36.91 57.5,-26.78 57.5,-19.75"/>
<polygon fill="midnightblue" stroke="midnightblue" points="54,-46.08 57.5,-56.08 61,-46.08 54,-46.08"/>
</g>
<!-- Node4&#45;&gt;Node1 -->
<g id="edge6" class="edge">
<title>Node4&#45;&gt;Node1</title>
<path fill="none" stroke="midnightblue" d="M172.45,-82.53C164.44,-90.28 155.2,-100.47 150.5,-112 134.29,-151.78 155.49,-204.12 160.73,-224.43"/>
<polygon fill="midnightblue" stroke="midnightblue" points="174.92,-85.02 179.84,-75.63 170.14,-79.9 174.92,-85.02"/>
</g>
<!-- Node5 -->
<g id="node5" class="node">
<title>Node5</title>
<g id="a_node5"><a xlink:href="../../dd/da0/_u___configuration_8cpp.html" target="_top" xlink:title="Set all the needed configuration for the driver and the user&#45;mode service.">
<polygon fill="none" stroke="black" points="133.5,-0.5 133.5,-19.5 237.5,-19.5 237.5,-0.5 133.5,-0.5"/>
<text text-anchor="middle" x="185.5" y="-7.5" font-family="Helvetica,sans-Serif" font-size="10.00">U_Configuration.cpp</text>
</a>
</g>
</g>
<!-- Node4&#45;&gt;Node5 -->
<g id="edge5" class="edge">
<title>Node4&#45;&gt;Node5</title>
<path fill="none" stroke="midnightblue" d="M185.5,-45.8C185.5,-36.91 185.5,-26.78 185.5,-19.75"/>
<polygon fill="midnightblue" stroke="midnightblue" points="182,-46.08 185.5,-56.08 189,-46.08 182,-46.08"/>
</g>
<!-- Node6&#45;&gt;Node1 -->
<g id="edge19" class="edge">
<title>Node6&#45;&gt;Node1</title>
<path fill="none" stroke="midnightblue" d="M213.24,-194.94C202.47,-204.55 187.59,-216.42 176.22,-224.32"/>
<polygon fill="midnightblue" stroke="midnightblue" points="215.93,-197.22 220.85,-187.83 211.15,-192.1 215.93,-197.22"/>
</g>
<!-- Node6&#45;&gt;Node4 -->
<g id="edge8" class="edge">
<title>Node6&#45;&gt;Node4</title>
<path fill="none" stroke="midnightblue" d="M230.47,-158.29C232.44,-144.92 233.32,-126.77 227.5,-112 221.54,-96.89 207.85,-83.86 197.71,-75.76"/>
<polygon fill="midnightblue" stroke="midnightblue" points="227.01,-157.75 228.68,-168.21 233.9,-158.99 227.01,-157.75"/>
</g>
<!-- Node7 -->
<g id="node7" class="node">
<title>Node7</title>
<g id="a_node7"><a xlink:href="../../d3/de9/_u___controller_8hpp.html" target="_top" xlink:title="Header for U_Controller.cpp.">
<polygon fill="none" stroke="black" points="368,-112.5 368,-131.5 457,-131.5 457,-112.5 368,-112.5"/>
<text text-anchor="middle" x="412.5" y="-119.5" font-family="Helvetica,sans-Serif" font-size="10.00">U_Controller.hpp</text>
</a>
</g>
</g>
<!-- Node6&#45;&gt;Node7 -->
<g id="edge9" class="edge">
<title>Node6&#45;&gt;Node7</title>
<path fill="none" stroke="midnightblue" d="M265.88,-165.57C300.97,-155.38 351.52,-140.7 383.17,-131.52"/>
<polygon fill="midnightblue" stroke="midnightblue" points="264.6,-162.29 255.97,-168.44 266.55,-169.02 264.6,-162.29"/>
</g>
<!-- Node9 -->
<g id="node9" class="node">
<title>Node9</title>
<g id="a_node9"><a xlink:href="../../d8/d69/_u___helper_8cpp.html" target="_top" xlink:title="Help function used by several .cpp files.">
<polygon fill="none" stroke="black" points="275,-112.5 275,-131.5 350,-131.5 350,-112.5 275,-112.5"/>
<text text-anchor="middle" x="312.5" y="-119.5" font-family="Helvetica,sans-Serif" font-size="10.00">U_Helper.cpp</text>
</a>
</g>
</g>
<!-- Node6&#45;&gt;Node9 -->
<g id="edge12" class="edge">
<title>Node6&#45;&gt;Node9</title>
<path fill="none" stroke="midnightblue" d="M248.95,-162.9C264.72,-153 285.31,-140.07 298.72,-131.65"/>
<polygon fill="midnightblue" stroke="midnightblue" points="246.93,-160.04 240.32,-168.32 250.65,-165.97 246.93,-160.04"/>
</g>
<!-- Node10 -->
<g id="node10" class="node">
<title>Node10</title>
<g id="a_node10"><a xlink:href="../../d3/d40/_u___logs_8hpp.html" target="_top" xlink:title="Header for U_Logs.cpp.">
<polygon fill="none" stroke="black" points="150.5,-112.5 150.5,-131.5 218.5,-131.5 218.5,-112.5 150.5,-112.5"/>
<text text-anchor="middle" x="184.5" y="-119.5" font-family="Helvetica,sans-Serif" font-size="10.00">U_Logs.hpp</text>
</a>
</g>
</g>
<!-- Node6&#45;&gt;Node10 -->
<g id="edge13" class="edge">
<title>Node6&#45;&gt;Node10</title>
<path fill="none" stroke="midnightblue" d="M207.58,-160.72C199.25,-151.2 190.57,-139.56 186.18,-131.75"/>
<polygon fill="midnightblue" stroke="midnightblue" points="205.04,-163.12 214.4,-168.08 210.18,-158.37 205.04,-163.12"/>
</g>
<!-- Node7&#45;&gt;Node1 -->
<g id="edge11" class="edge">
<title>Node7&#45;&gt;Node1</title>
<path fill="none" stroke="midnightblue" d="M383.63,-135.62C363.58,-144.47 336.3,-156.7 312.5,-168 294.54,-176.52 290.63,-179.84 272.5,-188 242.12,-201.67 206.27,-215.72 183.47,-224.4"/>
<polygon fill="midnightblue" stroke="midnightblue" points="385.1,-138.79 392.85,-131.56 382.28,-132.39 385.1,-138.79"/>
</g>
<!-- Node8 -->
<g id="node8" class="node">
<title>Node8</title>
<g id="a_node8"><a xlink:href="../../d8/d62/_u___controller_8cpp.html" target="_top" xlink:title="Controll the service/driver (Install|Start|Stop|Delete|Query)">
<polygon fill="none" stroke="black" points="368,-56.5 368,-75.5 457,-75.5 457,-56.5 368,-56.5"/>
<text text-anchor="middle" x="412.5" y="-63.5" font-family="Helvetica,sans-Serif" font-size="10.00">U_Controller.cpp</text>
</a>
</g>
</g>
<!-- Node7&#45;&gt;Node8 -->
<g id="edge10" class="edge">
<title>Node7&#45;&gt;Node8</title>
<path fill="none" stroke="midnightblue" d="M412.5,-101.8C412.5,-92.91 412.5,-82.78 412.5,-75.75"/>
<polygon fill="midnightblue" stroke="midnightblue" points="409,-102.08 412.5,-112.08 416,-102.08 409,-102.08"/>
</g>
<!-- Node10&#45;&gt;Node1 -->
<g id="edge18" class="edge">
<title>Node10&#45;&gt;Node1</title>
<path fill="none" stroke="midnightblue" d="M180.44,-141.6C175.19,-165.67 166.26,-206.62 162.38,-224.37"/>
<polygon fill="midnightblue" stroke="midnightblue" points="183.91,-142.11 182.63,-131.59 177.07,-140.62 183.91,-142.11"/>
</g>
<!-- Node10&#45;&gt;Node2 -->
<g id="edge14" class="edge">
<title>Node10&#45;&gt;Node2</title>
<path fill="none" stroke="midnightblue" d="M155.11,-108.5C131.3,-98.38 98.39,-84.39 77.53,-75.52"/>
<polygon fill="midnightblue" stroke="midnightblue" points="153.8,-111.75 164.38,-112.44 156.54,-105.31 153.8,-111.75"/>
</g>
<!-- Node10&#45;&gt;Node4 -->
<g id="edge15" class="edge">
<title>Node10&#45;&gt;Node4</title>
<path fill="none" stroke="midnightblue" d="M184.86,-101.8C185.02,-92.91 185.21,-82.78 185.34,-75.75"/>
<polygon fill="midnightblue" stroke="midnightblue" points="181.35,-102.02 184.67,-112.08 188.35,-102.15 181.35,-102.02"/>
</g>
<!-- Node10&#45;&gt;Node6 -->
<g id="edge16" class="edge">
<title>Node10&#45;&gt;Node6</title>
<path fill="none" stroke="midnightblue" d="M203.24,-139.08C211.57,-148.57 220.27,-160.22 224.73,-168.08"/>
<polygon fill="midnightblue" stroke="midnightblue" points="205.81,-136.7 196.44,-131.75 200.68,-141.46 205.81,-136.7"/>
</g>
<!-- Node11 -->
<g id="node11" class="node">
<title>Node11</title>
<g id="a_node11"><a xlink:href="../../da/d56/_u___logs_8cpp.html" target="_top" xlink:title="Report Event to ETW.">
<polygon fill="none" stroke="black" points="255.5,-56.5 255.5,-75.5 323.5,-75.5 323.5,-56.5 255.5,-56.5"/>
<text text-anchor="middle" x="289.5" y="-63.5" font-family="Helvetica,sans-Serif" font-size="10.00">U_Logs.cpp</text>
</a>
</g>
</g>
<!-- Node10&#45;&gt;Node11 -->
<g id="edge17" class="edge">
<title>Node10&#45;&gt;Node11</title>
<path fill="none" stroke="midnightblue" d="M210.31,-107.73C229.75,-97.73 255.85,-84.31 272.67,-75.65"/>
<polygon fill="midnightblue" stroke="midnightblue" points="208.66,-104.64 201.37,-112.32 211.86,-110.86 208.66,-104.64"/>
</g>
</g>
</svg>
