<?xml version="1.0" encoding="UTF-8" standalone="no"?>
<!DOCTYPE svg PUBLIC "-//W3C//DTD SVG 1.1//EN"
 "http://www.w3.org/Graphics/SVG/1.1/DTD/svg11.dtd">
<!-- Generated by graphviz version 5.0.0 (20220707.1540)
 -->
<!-- Title: U_Helper.hpp Pages: 1 -->
<svg width="428pt" height="308pt"
 viewBox="0.00 0.00 427.91 308.00" xmlns="http://www.w3.org/2000/svg" xmlns:xlink="http://www.w3.org/1999/xlink">
<g id="graph0" class="graph" transform="scale(1 1) rotate(0) translate(4 304)">
<title>U_Helper.hpp</title>
<!-- Node1 -->
<g id="node1" class="node">
<title>Node1</title>
<g id="a_node1"><a xlink:title="Header for U_Helper.cpp.">
<polygon fill="#bfbfbf" stroke="black" points="149.64,-280.5 149.64,-299.5 224.64,-299.5 224.64,-280.5 149.64,-280.5"/>
<text text-anchor="middle" x="187.14" y="-287.5" font-family="Helvetica,sans-Serif" font-size="10.00">U_Helper.hpp</text>
</a>
</g>
</g>
<!-- Node2 -->
<g id="node2" class="node">
<title>Node2</title>
<g id="a_node2"><a xlink:href="../../d6/de0/_u___configuration_8hpp.html" target="_top" xlink:title="Header for U_Configuration.cpp.">
<polygon fill="none" stroke="black" points="291.14,-168.5 291.14,-187.5 395.14,-187.5 395.14,-168.5 291.14,-168.5"/>
<text text-anchor="middle" x="343.14" y="-175.5" font-family="Helvetica,sans-Serif" font-size="10.00">U_Configuration.hpp</text>
</a>
</g>
</g>
<!-- Node1&#45;&gt;Node2 -->
<g id="edge1" class="edge">
<title>Node1&#45;&gt;Node2</title>
<path fill="none" stroke="midnightblue" d="M234.82,-284.53C264.28,-279.34 300.79,-268.14 324.14,-244 339.19,-228.45 342.42,-201.68 343.05,-187.84"/>
<polygon fill="midnightblue" stroke="midnightblue" points="234.06,-281.11 224.73,-286.12 235.15,-288.02 234.06,-281.11"/>
</g>
<!-- Node4 -->
<g id="node4" class="node">
<title>Node4</title>
<g id="a_node4"><a xlink:href="../../d2/de1/_u___service_8hpp.html" target="_top" xlink:title="Header for U_Service.cpp.">
<polygon fill="none" stroke="black" points="137.64,-112.5 137.64,-131.5 216.64,-131.5 216.64,-112.5 137.64,-112.5"/>
<text text-anchor="middle" x="177.14" y="-119.5" font-family="Helvetica,sans-Serif" font-size="10.00">U_Service.hpp</text>
</a>
</g>
</g>
<!-- Node1&#45;&gt;Node4 -->
<g id="edge20" class="edge">
<title>Node1&#45;&gt;Node4</title>
<path fill="none" stroke="midnightblue" d="M139.29,-286.26C104.18,-282.01 57.72,-271.24 27.14,-244 6.93,-225.99 8.59,-214.53 3.14,-188 1.36,-179.29 -2.25,-175.06 3.14,-168 19,-147.24 91.05,-133.75 137.45,-127.35"/>
<polygon fill="midnightblue" stroke="midnightblue" points="139.01,-289.75 149.33,-287.34 139.76,-282.79 139.01,-289.75"/>
</g>
<!-- Node8 -->
<g id="node8" class="node">
<title>Node8</title>
<g id="a_node8"><a xlink:href="../../d3/de9/_u___controller_8hpp.html" target="_top" xlink:title="Header for U_Controller.cpp.">
<polygon fill="none" stroke="black" points="45.64,-224.5 45.64,-243.5 134.64,-243.5 134.64,-224.5 45.64,-224.5"/>
<text text-anchor="middle" x="90.14" y="-231.5" font-family="Helvetica,sans-Serif" font-size="10.00">U_Controller.hpp</text>
</a>
</g>
</g>
<!-- Node1&#45;&gt;Node8 -->
<g id="edge10" class="edge">
<title>Node1&#45;&gt;Node8</title>
<path fill="none" stroke="midnightblue" d="M162.81,-275.45C144.9,-265.48 121.09,-252.23 105.69,-243.65"/>
<polygon fill="midnightblue" stroke="midnightblue" points="161.12,-278.52 171.56,-280.32 164.52,-272.4 161.12,-278.52"/>
</g>
<!-- Node10 -->
<g id="node10" class="node">
<title>Node10</title>
<g id="a_node10"><a xlink:href="../../d8/d69/_u___helper_8cpp.html" target="_top" xlink:title="Help function used by several .cpp files.">
<polygon fill="none" stroke="black" points="239.64,-224.5 239.64,-243.5 314.64,-243.5 314.64,-224.5 239.64,-224.5"/>
<text text-anchor="middle" x="277.14" y="-231.5" font-family="Helvetica,sans-Serif" font-size="10.00">U_Helper.cpp</text>
</a>
</g>
</g>
<!-- Node1&#45;&gt;Node10 -->
<g id="edge13" class="edge">
<title>Node1&#45;&gt;Node10</title>
<path fill="none" stroke="midnightblue" d="M210.18,-275.18C226.74,-265.24 248.56,-252.15 262.72,-243.65"/>
<polygon fill="midnightblue" stroke="midnightblue" points="208.38,-272.18 201.6,-280.32 211.98,-278.18 208.38,-272.18"/>
</g>
<!-- Node11 -->
<g id="node11" class="node">
<title>Node11</title>
<g id="a_node11"><a xlink:href="../../d3/d40/_u___logs_8hpp.html" target="_top" xlink:title="Header for U_Logs.cpp.">
<polygon fill="none" stroke="black" points="153.14,-224.5 153.14,-243.5 221.14,-243.5 221.14,-224.5 153.14,-224.5"/>
<text text-anchor="middle" x="187.14" y="-231.5" font-family="Helvetica,sans-Serif" font-size="10.00">U_Logs.hpp</text>
</a>
</g>
</g>
<!-- Node1&#45;&gt;Node11 -->
<g id="edge14" class="edge">
<title>Node1&#45;&gt;Node11</title>
<path fill="none" stroke="midnightblue" d="M180.67,-270.1C180.04,-261.14 180.49,-250.86 182.01,-243.75"/>
<polygon fill="midnightblue" stroke="midnightblue" points="177.21,-270.62 181.98,-280.08 184.15,-269.71 177.21,-270.62"/>
</g>
<!-- Node3 -->
<g id="node3" class="node">
<title>Node3</title>
<g id="a_node3"><a xlink:href="../../dd/da0/_u___configuration_8cpp.html" target="_top" xlink:title="Set all the needed configuration for the driver and the user&#45;mode service.">
<polygon fill="none" stroke="black" points="291.14,-112.5 291.14,-131.5 395.14,-131.5 395.14,-112.5 291.14,-112.5"/>
<text text-anchor="middle" x="343.14" y="-119.5" font-family="Helvetica,sans-Serif" font-size="10.00">U_Configuration.cpp</text>
</a>
</g>
</g>
<!-- Node2&#45;&gt;Node3 -->
<g id="edge2" class="edge">
<title>Node2&#45;&gt;Node3</title>
<path fill="none" stroke="midnightblue" d="M343.14,-157.8C343.14,-148.91 343.14,-138.78 343.14,-131.75"/>
<polygon fill="midnightblue" stroke="midnightblue" points="339.64,-158.08 343.14,-168.08 346.64,-158.08 339.64,-158.08"/>
</g>
<!-- Node2&#45;&gt;Node4 -->
<g id="edge3" class="edge">
<title>Node2&#45;&gt;Node4</title>
<path fill="none" stroke="midnightblue" d="M301.94,-165.44C269.01,-155.26 224.35,-140.66 198.24,-131.52"/>
<polygon fill="midnightblue" stroke="midnightblue" points="301.17,-168.86 311.75,-168.44 303.22,-162.17 301.17,-168.86"/>
</g>
<!-- Node4&#45;&gt;Node1 -->
<g id="edge8" class="edge">
<title>Node4&#45;&gt;Node1</title>
<path fill="none" stroke="midnightblue" d="M127.41,-131.09C86.86,-138.39 34.39,-150.65 21.14,-168 15.75,-175.06 19.36,-179.29 21.14,-188 26.59,-214.53 24.93,-225.99 45.14,-244 74.35,-270.02 118.05,-281.01 149.36,-285.65"/>
<polygon fill="midnightblue" stroke="midnightblue" points="128.18,-134.51 137.43,-129.34 126.98,-127.61 128.18,-134.51"/>
</g>
<!-- Node4&#45;&gt;Node2 -->
<g id="edge7" class="edge">
<title>Node4&#45;&gt;Node2</title>
<path fill="none" stroke="midnightblue" d="M218.2,-134.52C251.1,-144.69 295.77,-159.28 321.93,-168.44"/>
<polygon fill="midnightblue" stroke="midnightblue" points="218.99,-131.1 208.4,-131.52 216.94,-137.79 218.99,-131.1"/>
</g>
<!-- Node5 -->
<g id="node5" class="node">
<title>Node5</title>
<g id="a_node5"><a xlink:href="../../d9/dc9/_u___communication_8hpp.html" target="_top" xlink:title="Header for U_Communication.cpp.">
<polygon fill="none" stroke="black" points="177.64,-56.5 177.64,-75.5 292.64,-75.5 292.64,-56.5 177.64,-56.5"/>
<text text-anchor="middle" x="235.14" y="-63.5" font-family="Helvetica,sans-Serif" font-size="10.00">U_Communication.hpp</text>
</a>
</g>
</g>
<!-- Node4&#45;&gt;Node5 -->
<g id="edge4" class="edge">
<title>Node4&#45;&gt;Node5</title>
<path fill="none" stroke="midnightblue" d="M188.38,-104.72C197.67,-95.2 210.55,-83.56 220.61,-75.75"/>
<polygon fill="midnightblue" stroke="midnightblue" points="185.78,-102.37 181.56,-112.08 190.92,-107.13 185.78,-102.37"/>
</g>
<!-- Node7 -->
<g id="node7" class="node">
<title>Node7</title>
<g id="a_node7"><a xlink:href="../../d7/dc4/_u___service_8cpp.html" target="_top" xlink:title="Entrypoint of the process &amp; the service.">
<polygon fill="none" stroke="black" points="80.64,-56.5 80.64,-75.5 159.64,-75.5 159.64,-56.5 80.64,-56.5"/>
<text text-anchor="middle" x="120.14" y="-63.5" font-family="Helvetica,sans-Serif" font-size="10.00">U_Service.cpp</text>
</a>
</g>
</g>
<!-- Node4&#45;&gt;Node7 -->
<g id="edge9" class="edge">
<title>Node4&#45;&gt;Node7</title>
<path fill="none" stroke="midnightblue" d="M160.52,-105.25C150.41,-95.67 137.87,-83.79 129.47,-75.83"/>
<polygon fill="midnightblue" stroke="midnightblue" points="158.32,-107.99 167.99,-112.32 163.13,-102.91 158.32,-107.99"/>
</g>
<!-- Node5&#45;&gt;Node4 -->
<g id="edge6" class="edge">
<title>Node5&#45;&gt;Node4</title>
<path fill="none" stroke="midnightblue" d="M223.97,-83.22C214.64,-92.78 201.68,-104.5 191.58,-112.32"/>
<polygon fill="midnightblue" stroke="midnightblue" points="226.58,-85.55 230.81,-75.83 221.44,-80.8 226.58,-85.55"/>
</g>
<!-- Node6 -->
<g id="node6" class="node">
<title>Node6</title>
<g id="a_node6"><a xlink:href="../../d6/da6/_u___communication_8cpp.html" target="_top" xlink:title="Manage the communication with the driver (Connect|Reply|ListenerThread|WorkerThread)">
<polygon fill="none" stroke="black" points="177.64,-0.5 177.64,-19.5 292.64,-19.5 292.64,-0.5 177.64,-0.5"/>
<text text-anchor="middle" x="235.14" y="-7.5" font-family="Helvetica,sans-Serif" font-size="10.00">U_Communication.cpp</text>
</a>
</g>
</g>
<!-- Node5&#45;&gt;Node6 -->
<g id="edge5" class="edge">
<title>Node5&#45;&gt;Node6</title>
<path fill="none" stroke="midnightblue" d="M235.14,-45.8C235.14,-36.91 235.14,-26.78 235.14,-19.75"/>
<polygon fill="midnightblue" stroke="midnightblue" points="231.64,-46.08 235.14,-56.08 238.64,-46.08 231.64,-46.08"/>
</g>
<!-- Node8&#45;&gt;Node4 -->
<g id="edge12" class="edge">
<title>Node8&#45;&gt;Node4</title>
<path fill="none" stroke="midnightblue" d="M103.37,-216.27C122.18,-192.49 155.96,-149.79 170.35,-131.59"/>
<polygon fill="midnightblue" stroke="midnightblue" points="100.43,-214.35 96.97,-224.37 105.92,-218.7 100.43,-214.35"/>
</g>
<!-- Node9 -->
<g id="node9" class="node">
<title>Node9</title>
<g id="a_node9"><a xlink:href="../../d8/d62/_u___controller_8cpp.html" target="_top" xlink:title="Controll the service/driver (Install|Start|Stop|Delete|Query)">
<polygon fill="none" stroke="black" points="21.64,-168.5 21.64,-187.5 110.64,-187.5 110.64,-168.5 21.64,-168.5"/>
<text text-anchor="middle" x="66.14" y="-175.5" font-family="Helvetica,sans-Serif" font-size="10.00">U_Controller.cpp</text>
</a>
</g>
</g>
<!-- Node8&#45;&gt;Node9 -->
<g id="edge11" class="edge">
<title>Node8&#45;&gt;Node9</title>
<path fill="none" stroke="midnightblue" d="M82.01,-214.69C77.96,-205.59 73.26,-195.01 70.03,-187.75"/>
<polygon fill="midnightblue" stroke="midnightblue" points="78.92,-216.37 86.18,-224.08 85.32,-213.52 78.92,-216.37"/>
</g>
<!-- Node11&#45;&gt;Node1 -->
<g id="edge17" class="edge">
<title>Node11&#45;&gt;Node1</title>
<path fill="none" stroke="midnightblue" d="M193.6,-253.69C194.25,-262.64 193.82,-272.93 192.31,-280.08"/>
<polygon fill="midnightblue" stroke="midnightblue" points="197.07,-253.2 192.28,-243.75 190.13,-254.13 197.07,-253.2"/>
</g>
<!-- Node11&#45;&gt;Node2 -->
<g id="edge16" class="edge">
<title>Node11&#45;&gt;Node2</title>
<path fill="none" stroke="midnightblue" d="M221.31,-221.17C250.69,-211 292.34,-196.59 318.54,-187.52"/>
<polygon fill="midnightblue" stroke="midnightblue" points="220.17,-217.86 211.86,-224.44 222.46,-224.48 220.17,-217.86"/>
</g>
<!-- Node11&#45;&gt;Node4 -->
<g id="edge19" class="edge">
<title>Node11&#45;&gt;Node4</title>
<path fill="none" stroke="midnightblue" d="M185.45,-214.35C183.26,-190.25 179.54,-149.31 177.93,-131.59"/>
<polygon fill="midnightblue" stroke="midnightblue" points="181.97,-214.73 186.36,-224.37 188.94,-214.09 181.97,-214.73"/>
</g>
<!-- Node11&#45;&gt;Node5 -->
<g id="edge15" class="edge">
<title>Node11&#45;&gt;Node5</title>
<path fill="none" stroke="midnightblue" d="M231.6,-223.87C294.99,-210.84 403.8,-188.42 404.14,-188 425.47,-161.8 424.73,-138.78 404.14,-112 390.45,-94.19 336.11,-81.93 292.69,-74.76"/>
<polygon fill="midnightblue" stroke="midnightblue" points="230.55,-220.51 221.46,-225.95 231.96,-227.37 230.55,-220.51"/>
</g>
<!-- Node12 -->
<g id="node12" class="node">
<title>Node12</title>
<g id="a_node12"><a xlink:href="../../da/d56/_u___logs_8cpp.html" target="_top" xlink:title="Report Event to ETW.">
<polygon fill="none" stroke="black" points="205.14,-168.5 205.14,-187.5 273.14,-187.5 273.14,-168.5 205.14,-168.5"/>
<text text-anchor="middle" x="239.14" y="-175.5" font-family="Helvetica,sans-Serif" font-size="10.00">U_Logs.cpp</text>
</a>
</g>
</g>
<!-- Node11&#45;&gt;Node12 -->
<g id="edge18" class="edge">
<title>Node11&#45;&gt;Node12</title>
<path fill="none" stroke="midnightblue" d="M202.82,-216.72C211.99,-207.2 223.2,-195.56 230.72,-187.75"/>
<polygon fill="midnightblue" stroke="midnightblue" points="200.15,-214.45 195.73,-224.08 205.19,-219.31 200.15,-214.45"/>
</g>
</g>
</svg>
