<?xml version="1.0" encoding="UTF-8" standalone="no"?>
<!DOCTYPE svg PUBLIC "-//W3C//DTD SVG 1.1//EN"
 "http://www.w3.org/Graphics/SVG/1.1/DTD/svg11.dtd">
<!-- Generated by graphviz version 5.0.0 (20220707.1540)
 -->
<!-- Title: K_Whitelist.hpp Pages: 1 -->
<svg width="380pt" height="252pt"
 viewBox="0.00 0.00 380.00 252.00" xmlns="http://www.w3.org/2000/svg" xmlns:xlink="http://www.w3.org/1999/xlink">
<g id="graph0" class="graph" transform="scale(1 1) rotate(0) translate(4 248)">
<title>K_Whitelist.hpp</title>
<!-- Node1 -->
<g id="node1" class="node">
<title>Node1</title>
<g id="a_node1"><a xlink:title="Header for K_Whitelist.cpp.">
<polygon fill="#bfbfbf" stroke="black" points="201,-224.5 201,-243.5 287,-243.5 287,-224.5 201,-224.5"/>
<text text-anchor="middle" x="244" y="-231.5" font-family="Helvetica,sans-Serif" font-size="10.00">K_Whitelist.hpp</text>
</a>
</g>
</g>
<!-- Node2 -->
<g id="node2" class="node">
<title>Node2</title>
<g id="a_node2"><a xlink:href="../../d8/d22/_k___configuration_8hpp.html" target="_top" xlink:title="Header for K_Configuration.cpp.">
<polygon fill="none" stroke="black" points="136,-168.5 136,-187.5 240,-187.5 240,-168.5 136,-168.5"/>
<text text-anchor="middle" x="188" y="-175.5" font-family="Helvetica,sans-Serif" font-size="10.00">K_Configuration.hpp</text>
</a>
</g>
</g>
<!-- Node1&#45;&gt;Node2 -->
<g id="edge1" class="edge">
<title>Node1&#45;&gt;Node2</title>
<path fill="none" stroke="midnightblue" d="M227.67,-217.25C217.74,-207.67 205.41,-195.79 197.16,-187.83"/>
<polygon fill="midnightblue" stroke="midnightblue" points="225.37,-219.9 235,-224.32 230.23,-214.86 225.37,-219.9"/>
</g>
<!-- Node10 -->
<g id="node10" class="node">
<title>Node10</title>
<g id="a_node10"><a xlink:href="../../d2/de6/_k___whitelist_8cpp.html" target="_top" xlink:title="Store paths of autorized files and folders.">
<polygon fill="none" stroke="black" points="258,-168.5 258,-187.5 344,-187.5 344,-168.5 258,-168.5"/>
<text text-anchor="middle" x="301" y="-175.5" font-family="Helvetica,sans-Serif" font-size="10.00">K_Whitelist.cpp</text>
</a>
</g>
</g>
<!-- Node1&#45;&gt;Node10 -->
<g id="edge11" class="edge">
<title>Node1&#45;&gt;Node10</title>
<path fill="none" stroke="midnightblue" d="M260.62,-217.25C270.73,-207.67 283.28,-195.79 291.68,-187.83"/>
<polygon fill="midnightblue" stroke="midnightblue" points="258.01,-214.91 253.16,-224.32 262.82,-219.99 258.01,-214.91"/>
</g>
<!-- Node3 -->
<g id="node3" class="node">
<title>Node3</title>
<g id="a_node3"><a xlink:href="../../dc/da7/_k___configuration_8cpp.html" target="_top" xlink:title="Load the configuration of the driver.">
<polygon fill="none" stroke="black" points="0,-112.5 0,-131.5 104,-131.5 104,-112.5 0,-112.5"/>
<text text-anchor="middle" x="52" y="-119.5" font-family="Helvetica,sans-Serif" font-size="10.00">K_Configuration.cpp</text>
</a>
</g>
</g>
<!-- Node2&#45;&gt;Node3 -->
<g id="edge2" class="edge">
<title>Node2&#45;&gt;Node3</title>
<path fill="none" stroke="midnightblue" d="M156.87,-164.64C131.34,-154.5 95.89,-140.43 73.45,-131.52"/>
<polygon fill="midnightblue" stroke="midnightblue" points="155.86,-168.01 166.45,-168.44 158.45,-161.5 155.86,-168.01"/>
</g>
<!-- Node4 -->
<g id="node4" class="node">
<title>Node4</title>
<g id="a_node4"><a xlink:href="../../d3/dde/_k___driver_8hpp.html" target="_top" xlink:title="Header for K_Driver.cpp.">
<polygon fill="none" stroke="black" points="184.5,-56.5 184.5,-75.5 255.5,-75.5 255.5,-56.5 184.5,-56.5"/>
<text text-anchor="middle" x="220" y="-63.5" font-family="Helvetica,sans-Serif" font-size="10.00">K_Driver.hpp</text>
</a>
</g>
</g>
<!-- Node2&#45;&gt;Node4 -->
<g id="edge3" class="edge">
<title>Node2&#45;&gt;Node4</title>
<path fill="none" stroke="midnightblue" d="M193.33,-158.67C200.33,-134.62 212.32,-93.39 217.5,-75.59"/>
<polygon fill="midnightblue" stroke="midnightblue" points="189.94,-157.79 190.51,-168.37 196.67,-159.74 189.94,-157.79"/>
</g>
<!-- Node6 -->
<g id="node6" class="node">
<title>Node6</title>
<g id="a_node6"><a xlink:href="../../db/d96/_k___filter_8hpp.html" target="_top" xlink:title="Header for K_Filter.cpp.">
<polygon fill="none" stroke="black" points="122.5,-112.5 122.5,-131.5 191.5,-131.5 191.5,-112.5 122.5,-112.5"/>
<text text-anchor="middle" x="157" y="-119.5" font-family="Helvetica,sans-Serif" font-size="10.00">K_Filter.hpp</text>
</a>
</g>
</g>
<!-- Node2&#45;&gt;Node6 -->
<g id="edge5" class="edge">
<title>Node2&#45;&gt;Node6</title>
<path fill="none" stroke="midnightblue" d="M177.82,-159.27C172.53,-150.05 166.28,-139.17 162.02,-131.75"/>
<polygon fill="midnightblue" stroke="midnightblue" points="174.87,-161.15 182.88,-168.08 180.94,-157.67 174.87,-161.15"/>
</g>
<!-- Node8 -->
<g id="node8" class="node">
<title>Node8</title>
<g id="a_node8"><a xlink:href="../../d5/d8d/_k___ob_callback_8hpp.html" target="_top" xlink:title="Header for K_ObCallback.cpp.">
<polygon fill="none" stroke="black" points="248,-112.5 248,-131.5 346,-131.5 346,-112.5 248,-112.5"/>
<text text-anchor="middle" x="297" y="-119.5" font-family="Helvetica,sans-Serif" font-size="10.00">K_ObCallback.hpp</text>
</a>
</g>
</g>
<!-- Node2&#45;&gt;Node8 -->
<g id="edge8" class="edge">
<title>Node2&#45;&gt;Node8</title>
<path fill="none" stroke="midnightblue" d="M214.52,-163.86C234.73,-153.85 261.99,-140.35 279.53,-131.65"/>
<polygon fill="midnightblue" stroke="midnightblue" points="212.92,-160.75 205.51,-168.32 216.03,-167.02 212.92,-160.75"/>
</g>
<!-- Node5 -->
<g id="node5" class="node">
<title>Node5</title>
<g id="a_node5"><a xlink:href="../../d3/d9c/_k___driver_8cpp.html" target="_top" xlink:title="Entrypoint of the driver, unload routine.">
<polygon fill="none" stroke="black" points="184.5,-0.5 184.5,-19.5 255.5,-19.5 255.5,-0.5 184.5,-0.5"/>
<text text-anchor="middle" x="220" y="-7.5" font-family="Helvetica,sans-Serif" font-size="10.00">K_Driver.cpp</text>
</a>
</g>
</g>
<!-- Node4&#45;&gt;Node5 -->
<g id="edge4" class="edge">
<title>Node4&#45;&gt;Node5</title>
<path fill="none" stroke="midnightblue" d="M220,-45.8C220,-36.91 220,-26.78 220,-19.75"/>
<polygon fill="midnightblue" stroke="midnightblue" points="216.5,-46.08 220,-56.08 223.5,-46.08 216.5,-46.08"/>
</g>
<!-- Node6&#45;&gt;Node4 -->
<g id="edge6" class="edge">
<title>Node6&#45;&gt;Node4</title>
<path fill="none" stroke="midnightblue" d="M175.04,-105.54C186.27,-95.91 200.32,-83.87 209.69,-75.83"/>
<polygon fill="midnightblue" stroke="midnightblue" points="172.44,-103.16 167.12,-112.32 176.99,-108.47 172.44,-103.16"/>
</g>
<!-- Node7 -->
<g id="node7" class="node">
<title>Node7</title>
<g id="a_node7"><a xlink:href="../../d2/d94/_k___filter_8cpp.html" target="_top" xlink:title="Initialize filter object used by the communication.">
<polygon fill="none" stroke="black" points="97.5,-56.5 97.5,-75.5 166.5,-75.5 166.5,-56.5 97.5,-56.5"/>
<text text-anchor="middle" x="132" y="-63.5" font-family="Helvetica,sans-Serif" font-size="10.00">K_Filter.cpp</text>
</a>
</g>
</g>
<!-- Node6&#45;&gt;Node7 -->
<g id="edge7" class="edge">
<title>Node6&#45;&gt;Node7</title>
<path fill="none" stroke="midnightblue" d="M148.66,-102.98C144.42,-93.82 139.45,-83.09 136.05,-75.75"/>
<polygon fill="midnightblue" stroke="midnightblue" points="145.49,-104.48 152.87,-112.08 151.85,-101.54 145.49,-104.48"/>
</g>
<!-- Node8&#45;&gt;Node4 -->
<g id="edge9" class="edge">
<title>Node8&#45;&gt;Node4</title>
<path fill="none" stroke="midnightblue" d="M276.1,-106.34C262.09,-96.52 244.12,-83.91 232.34,-75.65"/>
<polygon fill="midnightblue" stroke="midnightblue" points="274.43,-109.45 284.63,-112.32 278.45,-103.72 274.43,-109.45"/>
</g>
<!-- Node9 -->
<g id="node9" class="node">
<title>Node9</title>
<g id="a_node9"><a xlink:href="../../da/d12/_k___ob_callback_8cpp.html" target="_top" xlink:title="Handle request callback.">
<polygon fill="none" stroke="black" points="274,-56.5 274,-75.5 372,-75.5 372,-56.5 274,-56.5"/>
<text text-anchor="middle" x="323" y="-63.5" font-family="Helvetica,sans-Serif" font-size="10.00">K_ObCallback.cpp</text>
</a>
</g>
</g>
<!-- Node8&#45;&gt;Node9 -->
<g id="edge10" class="edge">
<title>Node8&#45;&gt;Node9</title>
<path fill="none" stroke="midnightblue" d="M305.67,-102.98C310.09,-93.82 315.25,-83.09 318.79,-75.75"/>
<polygon fill="midnightblue" stroke="midnightblue" points="302.48,-101.55 301.29,-112.08 308.79,-104.59 302.48,-101.55"/>
</g>
</g>
</svg>
