<?xml version="1.0" encoding="UTF-8" standalone="no"?>
<!DOCTYPE svg PUBLIC "-//W3C//DTD SVG 1.1//EN"
 "http://www.w3.org/Graphics/SVG/1.1/DTD/svg11.dtd">
<!-- Generated by graphviz version 5.0.0 (20220707.1540)
 -->
<!-- Title: K_HELPER::IsValidStringArray Pages: 1 -->
<svg width="445pt" height="28pt"
 viewBox="0.00 0.00 445.00 28.00" xmlns="http://www.w3.org/2000/svg" xmlns:xlink="http://www.w3.org/1999/xlink">
<g id="graph0" class="graph" transform="scale(1 1) rotate(0) translate(4 24)">
<title>K_HELPER::IsValidStringArray</title>
<!-- Node1 -->
<g id="node1" class="node">
<title>Node1</title>
<g id="a_node1"><a xlink:title="Returns TRUE if the passed _KEY_VALUE_PARTIAL_INFORMATION structure extracted from the Registry conta...">
<polygon fill="#bfbfbf" stroke="black" points="285,-0.5 285,-19.5 437,-19.5 437,-0.5 285,-0.5"/>
<text text-anchor="middle" x="361" y="-7.5" font-family="Helvetica,sans-Serif" font-size="10.00">K_HELPER::IsValidStringArray</text>
</a>
</g>
</g>
<!-- Node2 -->
<g id="node2" class="node">
<title>Node2</title>
<g id="a_node2"><a xlink:href="../../d5/d03/class_k___c_o_n_f_i_g_u_r_a_t_i_o_n.html#aef0897b9b976104c3162254f84211b12" target="_top" xlink:title="Initialize configuration from Registry.">
<polygon fill="none" stroke="black" points="100,-0.5 100,-19.5 249,-19.5 249,-0.5 100,-0.5"/>
<text text-anchor="middle" x="174.5" y="-7.5" font-family="Helvetica,sans-Serif" font-size="10.00">K_CONFIGURATION::Initialize</text>
</a>
</g>
</g>
<!-- Node1&#45;&gt;Node2 -->
<g id="edge1" class="edge">
<title>Node1&#45;&gt;Node2</title>
<path fill="none" stroke="midnightblue" d="M274.95,-10C266.38,-10 257.72,-10 249.28,-10"/>
<polygon fill="midnightblue" stroke="midnightblue" points="274.96,-13.5 284.96,-10 274.96,-6.5 274.96,-13.5"/>
</g>
<!-- Node3 -->
<g id="node3" class="node">
<title>Node3</title>
<g id="a_node3"><a xlink:href="../../d3/d00/_k___driver_8cpp.html#abd482ac5174a4365b1fa1c26e463c60d" target="_top" xlink:title="Main Driver Entry Routine.">
<polygon fill="none" stroke="black" points="0,-0.5 0,-19.5 64,-19.5 64,-0.5 0,-0.5"/>
<text text-anchor="middle" x="32" y="-7.5" font-family="Helvetica,sans-Serif" font-size="10.00">DriverEntry</text>
</a>
</g>
</g>
<!-- Node2&#45;&gt;Node3 -->
<g id="edge2" class="edge">
<title>Node2&#45;&gt;Node3</title>
<path fill="none" stroke="midnightblue" d="M89.68,-10C80.65,-10 71.94,-10 64.17,-10"/>
<polygon fill="midnightblue" stroke="midnightblue" points="89.96,-13.5 99.96,-10 89.96,-6.5 89.96,-13.5"/>
</g>
</g>
</svg>
