<?xml version="1.0" encoding="UTF-8" standalone="no"?>
<!DOCTYPE svg PUBLIC "-//W3C//DTD SVG 1.1//EN"
 "http://www.w3.org/Graphics/SVG/1.1/DTD/svg11.dtd">
<!-- Generated by graphviz version 5.0.0 (20220707.1540)
 -->
<!-- Title: K_HELPER::MyNtPathCchRemoveFileSpec Pages: 1 -->
<svg width="929pt" height="39pt"
 viewBox="0.00 0.00 929.00 39.00" xmlns="http://www.w3.org/2000/svg" xmlns:xlink="http://www.w3.org/1999/xlink">
<g id="graph0" class="graph" transform="scale(1 1) rotate(0) translate(4 35)">
<title>K_HELPER::MyNtPathCchRemoveFileSpec</title>
<!-- Node1 -->
<g id="node1" class="node">
<title>Node1</title>
<g id="a_node1"><a xlink:title=" ">
<polygon fill="#bfbfbf" stroke="black" points="752,-0.5 752,-30.5 921,-30.5 921,-0.5 752,-0.5"/>
<text text-anchor="start" x="760" y="-18.5" font-family="Helvetica,sans-Serif" font-size="10.00">K_HELPER::MyNtPathCchRemove</text>
<text text-anchor="middle" x="836.5" y="-7.5" font-family="Helvetica,sans-Serif" font-size="10.00">FileSpec</text>
</a>
</g>
</g>
<!-- Node2 -->
<g id="node2" class="node">
<title>Node2</title>
<g id="a_node2"><a xlink:href="../../de/d03/class_k___w_h_i_t_e_l_i_s_t.html#a0002133cb46ec30f7f0044eecc5c58a9" target="_top" xlink:title="Check if whitelist contains provided string.">
<polygon fill="none" stroke="black" points="578,-6 578,-25 716,-25 716,-6 578,-6"/>
<text text-anchor="middle" x="647" y="-13" font-family="Helvetica,sans-Serif" font-size="10.00">K_WHITELIST::IsInWhitelist</text>
</a>
</g>
</g>
<!-- Node1&#45;&gt;Node2 -->
<g id="edge1" class="edge">
<title>Node1&#45;&gt;Node2</title>
<path fill="none" stroke="midnightblue" d="M741.81,-15.5C733.2,-15.5 724.59,-15.5 716.27,-15.5"/>
<polygon fill="midnightblue" stroke="midnightblue" points="741.89,-19 751.89,-15.5 741.89,-12 741.89,-19"/>
</g>
<!-- Node3 -->
<g id="node3" class="node">
<title>Node3</title>
<g id="a_node3"><a xlink:href="../../d5/d03/class_k___c_o_n_f_i_g_u_r_a_t_i_o_n.html#aa0eade5fe406c90f04b739bf85e098f5" target="_top" xlink:title=" ">
<polygon fill="none" stroke="black" points="375,-6 375,-25 542,-25 542,-6 375,-6"/>
<text text-anchor="middle" x="458.5" y="-13" font-family="Helvetica,sans-Serif" font-size="10.00">K_CONFIGURATION::IsInWhitelist</text>
</a>
</g>
</g>
<!-- Node2&#45;&gt;Node3 -->
<g id="edge2" class="edge">
<title>Node2&#45;&gt;Node3</title>
<path fill="none" stroke="midnightblue" d="M567.65,-15.5C559.18,-15.5 550.54,-15.5 542.02,-15.5"/>
<polygon fill="midnightblue" stroke="midnightblue" points="567.88,-19 577.88,-15.5 567.88,-12 567.88,-19"/>
</g>
<!-- Node4 -->
<g id="node4" class="node">
<title>Node4</title>
<g id="a_node4"><a xlink:href="../../d6/d02/class_k___o_b.html#a6b236f7c3b792f31133c3428966a2921" target="_top" xlink:title="We get notify when a process want a handle.">
<polygon fill="none" stroke="black" points="220,-6 220,-25 339,-25 339,-6 220,-6"/>
<text text-anchor="middle" x="279.5" y="-13" font-family="Helvetica,sans-Serif" font-size="10.00">K_OB::_PreObCallback</text>
</a>
</g>
</g>
<!-- Node3&#45;&gt;Node4 -->
<g id="edge3" class="edge">
<title>Node3&#45;&gt;Node4</title>
<path fill="none" stroke="midnightblue" d="M364.75,-15.5C356.07,-15.5 347.43,-15.5 339.19,-15.5"/>
<polygon fill="midnightblue" stroke="midnightblue" points="364.96,-19 374.96,-15.5 364.96,-12 364.96,-19"/>
</g>
<!-- Node5 -->
<g id="node5" class="node">
<title>Node5</title>
<g id="a_node5"><a xlink:href="../../d6/d02/class_k___o_b.html#a21fe4100571040a8d156fa0f045168ea" target="_top" xlink:title="Register the ObCallback routine.">
<polygon fill="none" stroke="black" points="100,-6 100,-25 184,-25 184,-6 100,-6"/>
<text text-anchor="middle" x="142" y="-13" font-family="Helvetica,sans-Serif" font-size="10.00">K_OB::Initialize</text>
</a>
</g>
</g>
<!-- Node4&#45;&gt;Node5 -->
<g id="edge4" class="edge">
<title>Node4&#45;&gt;Node5</title>
<path fill="none" stroke="midnightblue" d="M209.66,-15.5C200.95,-15.5 192.27,-15.5 184.19,-15.5"/>
<polygon fill="midnightblue" stroke="midnightblue" points="209.86,-19 219.86,-15.5 209.86,-12 209.86,-19"/>
</g>
<!-- Node6 -->
<g id="node6" class="node">
<title>Node6</title>
<g id="a_node6"><a xlink:href="../../d3/d00/_k___driver_8cpp.html#abd482ac5174a4365b1fa1c26e463c60d" target="_top" xlink:title="Main Driver Entry Routine.">
<polygon fill="none" stroke="black" points="0,-6 0,-25 64,-25 64,-6 0,-6"/>
<text text-anchor="middle" x="32" y="-13" font-family="Helvetica,sans-Serif" font-size="10.00">DriverEntry</text>
</a>
</g>
</g>
<!-- Node5&#45;&gt;Node6 -->
<g id="edge5" class="edge">
<title>Node5&#45;&gt;Node6</title>
<path fill="none" stroke="midnightblue" d="M89.75,-15.5C81.05,-15.5 72.26,-15.5 64.28,-15.5"/>
<polygon fill="midnightblue" stroke="midnightblue" points="89.86,-19 99.86,-15.5 89.86,-12 89.86,-19"/>
</g>
</g>
</svg>
