<?xml version="1.0" encoding="UTF-8" standalone="no"?>
<!DOCTYPE svg PUBLIC "-//W3C//DTD SVG 1.1//EN"
 "http://www.w3.org/Graphics/SVG/1.1/DTD/svg11.dtd">
<!-- Generated by graphviz version 5.0.0 (20220707.1540)
 -->
<!-- Title: Delete Pages: 1 -->
<svg width="416pt" height="78pt"
 viewBox="0.00 0.00 416.00 77.50" xmlns="http://www.w3.org/2000/svg" xmlns:xlink="http://www.w3.org/1999/xlink">
<g id="graph0" class="graph" transform="scale(1 1) rotate(0) translate(4 73.5)">
<title>Delete</title>
<!-- Node1 -->
<g id="node1" class="node">
<title>Node1</title>
<g id="a_node1"><a xlink:title="Wrap the deletion of the driver and the service.">
<polygon fill="#bfbfbf" stroke="black" points="0,-22.5 0,-41.5 44,-41.5 44,-22.5 0,-22.5"/>
<text text-anchor="middle" x="22" y="-29.5" font-family="Helvetica,sans-Serif" font-size="10.00">Delete</text>
</a>
</g>
</g>
<!-- Node2 -->
<g id="node2" class="node">
<title>Node2</title>
<g id="a_node2"><a xlink:href="../../d6/d00/class_u___c_o_n_f_i_g_u_r_a_t_i_o_n.html#a0dc19a661a499390a39c084c0526c11d" target="_top" xlink:title="Delete all the registry keys needed for ETW Logs.">
<polygon fill="none" stroke="black" points="80,-39 80,-69 242,-69 242,-39 80,-39"/>
<text text-anchor="start" x="88" y="-57" font-family="Helvetica,sans-Serif" font-size="10.00">U_CONFIGURATION::DeleteLogs</text>
<text text-anchor="middle" x="161" y="-46" font-family="Helvetica,sans-Serif" font-size="10.00">Registry</text>
</a>
</g>
</g>
<!-- Node1&#45;&gt;Node2 -->
<g id="edge1" class="edge">
<title>Node1&#45;&gt;Node2</title>
<path fill="none" stroke="midnightblue" d="M44.11,-35.39C51.52,-36.58 60.37,-38 69.85,-39.52"/>
<polygon fill="midnightblue" stroke="midnightblue" points="69.49,-43.01 79.91,-41.14 70.6,-36.1 69.49,-43.01"/>
</g>
<!-- Node4 -->
<g id="node4" class="node">
<title>Node4</title>
<g id="a_node4"><a xlink:href="../../d8/d03/class_u___c_o_n_t_r_o_l_l_e_r.html#ad53dc3b8165b221277bea05456ca974f" target="_top" xlink:title="Delete the service &quot;szServiceName&quot;.">
<polygon fill="none" stroke="black" points="88.5,-0.5 88.5,-19.5 233.5,-19.5 233.5,-0.5 88.5,-0.5"/>
<text text-anchor="middle" x="161" y="-7.5" font-family="Helvetica,sans-Serif" font-size="10.00">U_CONTROLLER::DelService</text>
</a>
</g>
</g>
<!-- Node1&#45;&gt;Node4 -->
<g id="edge3" class="edge">
<title>Node1&#45;&gt;Node4</title>
<path fill="none" stroke="midnightblue" d="M44.11,-28.61C56.78,-26.58 73.7,-23.86 90.69,-21.13"/>
<polygon fill="midnightblue" stroke="midnightblue" points="91.35,-24.57 100.66,-19.53 90.24,-17.66 91.35,-24.57"/>
</g>
<!-- Node3 -->
<g id="node3" class="node">
<title>Node3</title>
<g id="a_node3"><a xlink:href="../../d8/d00/class_u___l_o_g_s.html#a0f2932b79fce103453dd1cfc60de2007" target="_top" xlink:title="Send the reported event in the Event Viewer (Application &#45;&gt; PI&#45;Defender_UM).">
<polygon fill="none" stroke="black" points="278,-44.5 278,-63.5 408,-63.5 408,-44.5 278,-44.5"/>
<text text-anchor="middle" x="343" y="-51.5" font-family="Helvetica,sans-Serif" font-size="10.00">U_LOGS::SvcReportEvent</text>
</a>
</g>
</g>
<!-- Node2&#45;&gt;Node3 -->
<g id="edge2" class="edge">
<title>Node2&#45;&gt;Node3</title>
<path fill="none" stroke="midnightblue" d="M242.26,-54C250.73,-54 259.31,-54 267.7,-54"/>
<polygon fill="midnightblue" stroke="midnightblue" points="267.82,-57.5 277.82,-54 267.82,-50.5 267.82,-57.5"/>
</g>
</g>
</svg>
