<?xml version="1.0" encoding="UTF-8" standalone="no"?>
<!DOCTYPE svg PUBLIC "-//W3C//DTD SVG 1.1//EN"
 "http://www.w3.org/Graphics/SVG/1.1/DTD/svg11.dtd">
<!-- Generated by graphviz version 5.0.0 (20220707.1540)
 -->
<!-- Title: U_Controller.hpp Pages: 1 -->
<svg width="398pt" height="308pt"
 viewBox="0.00 0.00 397.50 308.00" xmlns="http://www.w3.org/2000/svg" xmlns:xlink="http://www.w3.org/1999/xlink">
<g id="graph0" class="graph" transform="scale(1 1) rotate(0) translate(4 304)">
<title>U_Controller.hpp</title>
<!-- Node1 -->
<g id="node1" class="node">
<title>Node1</title>
<g id="a_node1"><a xlink:title="Header for U_Controller.cpp.">
<polygon fill="#bfbfbf" stroke="black" points="74.5,-280.5 74.5,-299.5 163.5,-299.5 163.5,-280.5 74.5,-280.5"/>
<text text-anchor="middle" x="119" y="-287.5" font-family="Helvetica,sans-Serif" font-size="10.00">U_Controller.hpp</text>
</a>
</g>
</g>
<!-- Node2 -->
<g id="node2" class="node">
<title>Node2</title>
<g id="a_node2"><a xlink:href="../../d8/d62/_u___controller_8cpp.html" target="_top" xlink:title="Controll the service/driver (Install|Start|Stop|Delete|Query)">
<polygon fill="none" stroke="black" points="1.5,-224.5 1.5,-243.5 90.5,-243.5 90.5,-224.5 1.5,-224.5"/>
<text text-anchor="middle" x="46" y="-231.5" font-family="Helvetica,sans-Serif" font-size="10.00">U_Controller.cpp</text>
</a>
</g>
</g>
<!-- Node1&#45;&gt;Node2 -->
<g id="edge1" class="edge">
<title>Node1&#45;&gt;Node2</title>
<path fill="none" stroke="midnightblue" d="M98.86,-274.1C85.72,-264.38 69.02,-252.03 57.94,-243.83"/>
<polygon fill="midnightblue" stroke="midnightblue" points="97.15,-277.19 107.27,-280.32 101.31,-271.56 97.15,-277.19"/>
</g>
<!-- Node3 -->
<g id="node3" class="node">
<title>Node3</title>
<g id="a_node3"><a xlink:href="../../d2/de1/_u___service_8hpp.html" target="_top" xlink:title="Header for U_Service.cpp.">
<polygon fill="none" stroke="black" points="147.5,-224.5 147.5,-243.5 226.5,-243.5 226.5,-224.5 147.5,-224.5"/>
<text text-anchor="middle" x="187" y="-231.5" font-family="Helvetica,sans-Serif" font-size="10.00">U_Service.hpp</text>
</a>
</g>
</g>
<!-- Node1&#45;&gt;Node3 -->
<g id="edge2" class="edge">
<title>Node1&#45;&gt;Node3</title>
<path fill="none" stroke="midnightblue" d="M137.76,-274.1C150,-264.38 165.56,-252.03 175.88,-243.83"/>
<polygon fill="midnightblue" stroke="midnightblue" points="135.58,-271.36 129.93,-280.32 139.93,-276.85 135.58,-271.36"/>
</g>
<!-- Node4 -->
<g id="node4" class="node">
<title>Node4</title>
<g id="a_node4"><a xlink:href="../../d9/dc9/_u___communication_8hpp.html" target="_top" xlink:title="Header for U_Communication.cpp.">
<polygon fill="none" stroke="black" points="274.5,-56.5 274.5,-75.5 389.5,-75.5 389.5,-56.5 274.5,-56.5"/>
<text text-anchor="middle" x="332" y="-63.5" font-family="Helvetica,sans-Serif" font-size="10.00">U_Communication.hpp</text>
</a>
</g>
</g>
<!-- Node3&#45;&gt;Node4 -->
<g id="edge3" class="edge">
<title>Node3&#45;&gt;Node4</title>
<path fill="none" stroke="midnightblue" d="M236.38,-222.72C257.13,-216.16 279.84,-205.44 295,-188 324,-154.64 324.51,-97.12 328.18,-75.52"/>
<polygon fill="midnightblue" stroke="midnightblue" points="235.33,-219.38 226.7,-225.54 237.28,-226.1 235.33,-219.38"/>
</g>
<!-- Node6 -->
<g id="node6" class="node">
<title>Node6</title>
<g id="a_node6"><a xlink:href="../../d6/de0/_u___configuration_8hpp.html" target="_top" xlink:title="Header for U_Configuration.cpp.">
<polygon fill="none" stroke="black" points="0,-56.5 0,-75.5 104,-75.5 104,-56.5 0,-56.5"/>
<text text-anchor="middle" x="52" y="-63.5" font-family="Helvetica,sans-Serif" font-size="10.00">U_Configuration.hpp</text>
</a>
</g>
</g>
<!-- Node3&#45;&gt;Node6 -->
<g id="edge6" class="edge">
<title>Node3&#45;&gt;Node6</title>
<path fill="none" stroke="midnightblue" d="M137.68,-221.99C114.29,-214.72 87.06,-203.62 66,-188 40.35,-168.98 31.6,-162.12 21,-132 13.96,-112 27.35,-88.39 39.18,-75.85"/>
<polygon fill="midnightblue" stroke="midnightblue" points="136.86,-225.39 147.44,-224.87 138.84,-218.68 136.86,-225.39"/>
</g>
<!-- Node8 -->
<g id="node8" class="node">
<title>Node8</title>
<g id="a_node8"><a xlink:href="../../d5/d09/_u___helper_8hpp.html" target="_top" xlink:title="Header for U_Helper.cpp.">
<polygon fill="none" stroke="black" points="83.5,-168.5 83.5,-187.5 158.5,-187.5 158.5,-168.5 83.5,-168.5"/>
<text text-anchor="middle" x="121" y="-175.5" font-family="Helvetica,sans-Serif" font-size="10.00">U_Helper.hpp</text>
</a>
</g>
</g>
<!-- Node3&#45;&gt;Node8 -->
<g id="edge9" class="edge">
<title>Node3&#45;&gt;Node8</title>
<path fill="none" stroke="midnightblue" d="M163.06,-218.38C149.98,-208.62 135,-196.11 126.65,-187.83"/>
<polygon fill="midnightblue" stroke="midnightblue" points="161.13,-221.3 171.28,-224.32 165.23,-215.63 161.13,-221.3"/>
</g>
<!-- Node12 -->
<g id="node12" class="node">
<title>Node12</title>
<g id="a_node12"><a xlink:href="../../d7/dc4/_u___service_8cpp.html" target="_top" xlink:title="Entrypoint of the process &amp; the service.">
<polygon fill="none" stroke="black" points="215.5,-168.5 215.5,-187.5 294.5,-187.5 294.5,-168.5 215.5,-168.5"/>
<text text-anchor="middle" x="255" y="-175.5" font-family="Helvetica,sans-Serif" font-size="10.00">U_Service.cpp</text>
</a>
</g>
</g>
<!-- Node3&#45;&gt;Node12 -->
<g id="edge20" class="edge">
<title>Node3&#45;&gt;Node12</title>
<path fill="none" stroke="midnightblue" d="M205.76,-218.1C218,-208.38 233.56,-196.03 243.88,-187.83"/>
<polygon fill="midnightblue" stroke="midnightblue" points="203.58,-215.36 197.93,-224.32 207.93,-220.85 203.58,-215.36"/>
</g>
<!-- Node4&#45;&gt;Node3 -->
<g id="edge5" class="edge">
<title>Node4&#45;&gt;Node3</title>
<path fill="none" stroke="midnightblue" d="M338.74,-85.53C341.9,-111.54 338.26,-158.94 313,-188 291.58,-212.64 255.1,-223.85 226.74,-228.92"/>
<polygon fill="midnightblue" stroke="midnightblue" points="342.16,-84.74 336.94,-75.52 335.27,-85.98 342.16,-84.74"/>
</g>
<!-- Node5 -->
<g id="node5" class="node">
<title>Node5</title>
<g id="a_node5"><a xlink:href="../../d6/da6/_u___communication_8cpp.html" target="_top" xlink:title="Manage the communication with the driver (Connect|Reply|ListenerThread|WorkerThread)">
<polygon fill="none" stroke="black" points="274.5,-0.5 274.5,-19.5 389.5,-19.5 389.5,-0.5 274.5,-0.5"/>
<text text-anchor="middle" x="332" y="-7.5" font-family="Helvetica,sans-Serif" font-size="10.00">U_Communication.cpp</text>
</a>
</g>
</g>
<!-- Node4&#45;&gt;Node5 -->
<g id="edge4" class="edge">
<title>Node4&#45;&gt;Node5</title>
<path fill="none" stroke="midnightblue" d="M332,-45.8C332,-36.91 332,-26.78 332,-19.75"/>
<polygon fill="midnightblue" stroke="midnightblue" points="328.5,-46.08 332,-56.08 335.5,-46.08 328.5,-46.08"/>
</g>
<!-- Node6&#45;&gt;Node3 -->
<g id="edge8" class="edge">
<title>Node6&#45;&gt;Node3</title>
<path fill="none" stroke="midnightblue" d="M46.72,-85.13C40.61,-98.19 33.44,-116.22 39,-132 49.6,-162.12 58.35,-168.98 84,-188 107.57,-205.47 138.85,-217.29 160.9,-224.42"/>
<polygon fill="midnightblue" stroke="midnightblue" points="49.99,-86.39 51.13,-75.85 43.67,-83.38 49.99,-86.39"/>
</g>
<!-- Node7 -->
<g id="node7" class="node">
<title>Node7</title>
<g id="a_node7"><a xlink:href="../../dd/da0/_u___configuration_8cpp.html" target="_top" xlink:title="Set all the needed configuration for the driver and the user&#45;mode service.">
<polygon fill="none" stroke="black" points="0,-0.5 0,-19.5 104,-19.5 104,-0.5 0,-0.5"/>
<text text-anchor="middle" x="52" y="-7.5" font-family="Helvetica,sans-Serif" font-size="10.00">U_Configuration.cpp</text>
</a>
</g>
</g>
<!-- Node6&#45;&gt;Node7 -->
<g id="edge7" class="edge">
<title>Node6&#45;&gt;Node7</title>
<path fill="none" stroke="midnightblue" d="M52,-45.8C52,-36.91 52,-26.78 52,-19.75"/>
<polygon fill="midnightblue" stroke="midnightblue" points="48.5,-46.08 52,-56.08 55.5,-46.08 48.5,-46.08"/>
</g>
<!-- Node8&#45;&gt;Node1 -->
<g id="edge11" class="edge">
<title>Node8&#45;&gt;Node1</title>
<path fill="none" stroke="midnightblue" d="M120.66,-197.6C120.22,-221.67 119.48,-262.62 119.16,-280.37"/>
<polygon fill="midnightblue" stroke="midnightblue" points="124.16,-197.65 120.84,-187.59 117.16,-197.53 124.16,-197.65"/>
</g>
<!-- Node8&#45;&gt;Node3 -->
<g id="edge19" class="edge">
<title>Node8&#45;&gt;Node3</title>
<path fill="none" stroke="midnightblue" d="M144.79,-193.5C157.85,-203.25 172.87,-215.78 181.27,-224.08"/>
<polygon fill="midnightblue" stroke="midnightblue" points="146.73,-190.59 136.57,-187.57 142.63,-196.26 146.73,-190.59"/>
</g>
<!-- Node8&#45;&gt;Node6 -->
<g id="edge10" class="edge">
<title>Node8&#45;&gt;Node6</title>
<path fill="none" stroke="midnightblue" d="M126.77,-158.62C129.96,-144.91 131.86,-126.19 124,-112 114.14,-94.21 93.99,-82.52 77.5,-75.53"/>
<polygon fill="midnightblue" stroke="midnightblue" points="123.37,-157.78 124.11,-168.35 130.13,-159.64 123.37,-157.78"/>
</g>
<!-- Node9 -->
<g id="node9" class="node">
<title>Node9</title>
<g id="a_node9"><a xlink:href="../../d8/d69/_u___helper_8cpp.html" target="_top" xlink:title="Help function used by several .cpp files.">
<polygon fill="none" stroke="black" points="39.5,-112.5 39.5,-131.5 114.5,-131.5 114.5,-112.5 39.5,-112.5"/>
<text text-anchor="middle" x="77" y="-119.5" font-family="Helvetica,sans-Serif" font-size="10.00">U_Helper.cpp</text>
</a>
</g>
</g>
<!-- Node8&#45;&gt;Node9 -->
<g id="edge12" class="edge">
<title>Node8&#45;&gt;Node9</title>
<path fill="none" stroke="midnightblue" d="M107.27,-160.14C99.6,-150.74 90.37,-139.4 84.13,-131.75"/>
<polygon fill="midnightblue" stroke="midnightblue" points="104.7,-162.54 113.73,-168.08 110.13,-158.12 104.7,-162.54"/>
</g>
<!-- Node10 -->
<g id="node10" class="node">
<title>Node10</title>
<g id="a_node10"><a xlink:href="../../d3/d40/_u___logs_8hpp.html" target="_top" xlink:title="Header for U_Logs.cpp.">
<polygon fill="none" stroke="black" points="171,-112.5 171,-131.5 239,-131.5 239,-112.5 171,-112.5"/>
<text text-anchor="middle" x="205" y="-119.5" font-family="Helvetica,sans-Serif" font-size="10.00">U_Logs.hpp</text>
</a>
</g>
</g>
<!-- Node8&#45;&gt;Node10 -->
<g id="edge13" class="edge">
<title>Node8&#45;&gt;Node10</title>
<path fill="none" stroke="midnightblue" d="M137.72,-162.34C151.86,-152.52 171.79,-139.91 186.43,-131.65"/>
<polygon fill="midnightblue" stroke="midnightblue" points="135.47,-159.65 129.38,-168.32 139.55,-165.34 135.47,-159.65"/>
</g>
<!-- Node10&#45;&gt;Node3 -->
<g id="edge18" class="edge">
<title>Node10&#45;&gt;Node3</title>
<path fill="none" stroke="midnightblue" d="M201.96,-141.6C198.02,-165.67 191.32,-206.62 188.41,-224.37"/>
<polygon fill="midnightblue" stroke="midnightblue" points="205.43,-142.03 203.59,-131.59 198.53,-140.89 205.43,-142.03"/>
</g>
<!-- Node10&#45;&gt;Node4 -->
<g id="edge14" class="edge">
<title>Node10&#45;&gt;Node4</title>
<path fill="none" stroke="midnightblue" d="M234.39,-108.5C258.2,-98.38 291.11,-84.39 311.97,-75.52"/>
<polygon fill="midnightblue" stroke="midnightblue" points="232.96,-105.31 225.12,-112.44 235.7,-111.75 232.96,-105.31"/>
</g>
<!-- Node10&#45;&gt;Node6 -->
<g id="edge15" class="edge">
<title>Node10&#45;&gt;Node6</title>
<path fill="none" stroke="midnightblue" d="M171.11,-109.04C142.32,-98.88 101.71,-84.55 76.13,-75.52"/>
<polygon fill="midnightblue" stroke="midnightblue" points="170.16,-112.42 180.76,-112.44 172.49,-105.81 170.16,-112.42"/>
</g>
<!-- Node10&#45;&gt;Node8 -->
<g id="edge16" class="edge">
<title>Node10&#45;&gt;Node8</title>
<path fill="none" stroke="midnightblue" d="M188.06,-137.81C173.95,-147.6 154.17,-160.11 139.61,-168.32"/>
<polygon fill="midnightblue" stroke="midnightblue" points="190.31,-140.5 196.41,-131.83 186.24,-134.81 190.31,-140.5"/>
</g>
<!-- Node11 -->
<g id="node11" class="node">
<title>Node11</title>
<g id="a_node11"><a xlink:href="../../da/d56/_u___logs_8cpp.html" target="_top" xlink:title="Report Event to ETW.">
<polygon fill="none" stroke="black" points="171,-56.5 171,-75.5 239,-75.5 239,-56.5 171,-56.5"/>
<text text-anchor="middle" x="205" y="-63.5" font-family="Helvetica,sans-Serif" font-size="10.00">U_Logs.cpp</text>
</a>
</g>
</g>
<!-- Node10&#45;&gt;Node11 -->
<g id="edge17" class="edge">
<title>Node10&#45;&gt;Node11</title>
<path fill="none" stroke="midnightblue" d="M205,-101.8C205,-92.91 205,-82.78 205,-75.75"/>
<polygon fill="midnightblue" stroke="midnightblue" points="201.5,-102.08 205,-112.08 208.5,-102.08 201.5,-102.08"/>
</g>
</g>
</svg>
