<?xml version="1.0" encoding="UTF-8" standalone="no"?>
<!DOCTYPE svg PUBLIC "-//W3C//DTD SVG 1.1//EN"
 "http://www.w3.org/Graphics/SVG/1.1/DTD/svg11.dtd">
<!-- Generated by graphviz version 5.0.0 (20220707.1540)
 -->
<!-- Title: U_Configuration.hpp Pages: 1 -->
<svg width="431pt" height="308pt"
 viewBox="0.00 0.00 430.50 308.00" xmlns="http://www.w3.org/2000/svg" xmlns:xlink="http://www.w3.org/1999/xlink">
<g id="graph0" class="graph" transform="scale(1 1) rotate(0) translate(4 304)">
<title>U_Configuration.hpp</title>
<!-- Node1 -->
<g id="node1" class="node">
<title>Node1</title>
<g id="a_node1"><a xlink:title="Header for U_Configuration.cpp.">
<polygon fill="#bfbfbf" stroke="black" points="150.5,-280.5 150.5,-299.5 254.5,-299.5 254.5,-280.5 150.5,-280.5"/>
<text text-anchor="middle" x="202.5" y="-287.5" font-family="Helvetica,sans-Serif" font-size="10.00">U_Configuration.hpp</text>
</a>
</g>
</g>
<!-- Node2 -->
<g id="node2" class="node">
<title>Node2</title>
<g id="a_node2"><a xlink:href="../../dd/d00/_u___configuration_8cpp.html" target="_top" xlink:title="Set all the needed configuration for the driver and the user&#45;mode service.">
<polygon fill="none" stroke="black" points="40.5,-224.5 40.5,-243.5 144.5,-243.5 144.5,-224.5 40.5,-224.5"/>
<text text-anchor="middle" x="92.5" y="-231.5" font-family="Helvetica,sans-Serif" font-size="10.00">U_Configuration.cpp</text>
</a>
</g>
</g>
<!-- Node1&#45;&gt;Node2 -->
<g id="edge1" class="edge">
<title>Node1&#45;&gt;Node2</title>
<path fill="none" stroke="midnightblue" d="M175.74,-275.86C155.34,-265.85 127.83,-252.35 110.13,-243.65"/>
<polygon fill="midnightblue" stroke="midnightblue" points="174.31,-279.06 184.83,-280.32 177.39,-272.78 174.31,-279.06"/>
</g>
<!-- Node3 -->
<g id="node3" class="node">
<title>Node3</title>
<g id="a_node3"><a xlink:href="../../d2/d01/_u___service_8hpp.html" target="_top" xlink:title="Header for U_Service.cpp.">
<polygon fill="none" stroke="black" points="163,-224.5 163,-243.5 242,-243.5 242,-224.5 163,-224.5"/>
<text text-anchor="middle" x="202.5" y="-231.5" font-family="Helvetica,sans-Serif" font-size="10.00">U_Service.hpp</text>
</a>
</g>
</g>
<!-- Node1&#45;&gt;Node3 -->
<g id="edge2" class="edge">
<title>Node1&#45;&gt;Node3</title>
<path fill="none" stroke="midnightblue" d="M196.03,-270.1C195.4,-261.14 195.84,-250.86 197.37,-243.75"/>
<polygon fill="midnightblue" stroke="midnightblue" points="192.57,-270.62 197.33,-280.08 199.51,-269.71 192.57,-270.62"/>
</g>
<!-- Node3&#45;&gt;Node1 -->
<g id="edge6" class="edge">
<title>Node3&#45;&gt;Node1</title>
<path fill="none" stroke="midnightblue" d="M208.96,-253.69C209.61,-262.64 209.18,-272.93 207.67,-280.08"/>
<polygon fill="midnightblue" stroke="midnightblue" points="212.42,-253.2 207.63,-243.75 205.48,-254.13 212.42,-253.2"/>
</g>
<!-- Node4 -->
<g id="node4" class="node">
<title>Node4</title>
<g id="a_node4"><a xlink:href="../../d9/d01/_u___communication_8hpp.html" target="_top" xlink:title="Header for U_Communication.cpp.">
<polygon fill="none" stroke="black" points="59,-56.5 59,-75.5 174,-75.5 174,-56.5 59,-56.5"/>
<text text-anchor="middle" x="116.5" y="-63.5" font-family="Helvetica,sans-Serif" font-size="10.00">U_Communication.hpp</text>
</a>
</g>
</g>
<!-- Node3&#45;&gt;Node4 -->
<g id="edge3" class="edge">
<title>Node3&#45;&gt;Node4</title>
<path fill="none" stroke="midnightblue" d="M185.65,-216.25C170.99,-196.48 150.72,-162.42 135.5,-132 125.6,-112.22 115.78,-88.12 113.95,-75.56"/>
<polygon fill="midnightblue" stroke="midnightblue" points="183.02,-218.57 191.95,-224.27 188.52,-214.25 183.02,-218.57"/>
</g>
<!-- Node6 -->
<g id="node6" class="node">
<title>Node6</title>
<g id="a_node6"><a xlink:href="../../d5/d01/_u___helper_8hpp.html" target="_top" xlink:title="Header for U_Helper.cpp.">
<polygon fill="none" stroke="black" points="233,-168.5 233,-187.5 308,-187.5 308,-168.5 233,-168.5"/>
<text text-anchor="middle" x="270.5" y="-175.5" font-family="Helvetica,sans-Serif" font-size="10.00">U_Helper.hpp</text>
</a>
</g>
</g>
<!-- Node3&#45;&gt;Node6 -->
<g id="edge7" class="edge">
<title>Node3&#45;&gt;Node6</title>
<path fill="none" stroke="midnightblue" d="M215.85,-217.49C227.03,-207.8 242.65,-195.68 254.49,-187.65"/>
<polygon fill="midnightblue" stroke="midnightblue" points="213.37,-215.02 208.31,-224.32 218.07,-220.21 213.37,-215.02"/>
</g>
<!-- Node12 -->
<g id="node12" class="node">
<title>Node12</title>
<g id="a_node12"><a xlink:href="../../d7/d00/_u___service_8cpp.html" target="_top" xlink:title="Entrypoint of the process &amp; the service.">
<polygon fill="none" stroke="black" points="0,-168.5 0,-187.5 79,-187.5 79,-168.5 0,-168.5"/>
<text text-anchor="middle" x="39.5" y="-175.5" font-family="Helvetica,sans-Serif" font-size="10.00">U_Service.cpp</text>
</a>
</g>
</g>
<!-- Node3&#45;&gt;Node12 -->
<g id="edge20" class="edge">
<title>Node3&#45;&gt;Node12</title>
<path fill="none" stroke="midnightblue" d="M166.8,-221.17C136.1,-211 92.58,-196.59 65.21,-187.52"/>
<polygon fill="midnightblue" stroke="midnightblue" points="166.08,-224.62 176.67,-224.44 168.28,-217.98 166.08,-224.62"/>
</g>
<!-- Node4&#45;&gt;Node3 -->
<g id="edge5" class="edge">
<title>Node4&#45;&gt;Node3</title>
<path fill="none" stroke="midnightblue" d="M130.82,-84.51C137.77,-97.73 145.61,-116.24 153.5,-132 171.06,-167.08 195.31,-206.99 202.11,-224.27"/>
<polygon fill="midnightblue" stroke="midnightblue" points="133.7,-82.49 125.69,-75.56 127.63,-85.97 133.7,-82.49"/>
</g>
<!-- Node5 -->
<g id="node5" class="node">
<title>Node5</title>
<g id="a_node5"><a xlink:href="../../d6/d02/_u___communication_8cpp.html" target="_top" xlink:title="Manage the communication with the driver (Connect|Reply|ListenerThread|WorkerThread)">
<polygon fill="none" stroke="black" points="59,-0.5 59,-19.5 174,-19.5 174,-0.5 59,-0.5"/>
<text text-anchor="middle" x="116.5" y="-7.5" font-family="Helvetica,sans-Serif" font-size="10.00">U_Communication.cpp</text>
</a>
</g>
</g>
<!-- Node4&#45;&gt;Node5 -->
<g id="edge4" class="edge">
<title>Node4&#45;&gt;Node5</title>
<path fill="none" stroke="midnightblue" d="M116.5,-45.8C116.5,-36.91 116.5,-26.78 116.5,-19.75"/>
<polygon fill="midnightblue" stroke="midnightblue" points="113,-46.08 116.5,-56.08 120,-46.08 113,-46.08"/>
</g>
<!-- Node6&#45;&gt;Node1 -->
<g id="edge8" class="edge">
<title>Node6&#45;&gt;Node1</title>
<path fill="none" stroke="midnightblue" d="M267.81,-197.7C265.21,-211.32 260.33,-229.8 251.5,-244 242.11,-259.11 226.29,-272.32 215.17,-280.46"/>
<polygon fill="midnightblue" stroke="midnightblue" points="271.3,-198.04 269.49,-187.6 264.39,-196.89 271.3,-198.04"/>
</g>
<!-- Node6&#45;&gt;Node3 -->
<g id="edge19" class="edge">
<title>Node6&#45;&gt;Node3</title>
<path fill="none" stroke="midnightblue" d="M256.98,-194.65C245.83,-204.31 230.32,-216.34 218.54,-224.32"/>
<polygon fill="midnightblue" stroke="midnightblue" points="259.45,-197.14 264.52,-187.83 254.76,-191.94 259.45,-197.14"/>
</g>
<!-- Node7 -->
<g id="node7" class="node">
<title>Node7</title>
<g id="a_node7"><a xlink:href="../../d3/d01/_u___controller_8hpp.html" target="_top" xlink:title="Header for U_Controller.cpp.">
<polygon fill="none" stroke="black" points="154,-112.5 154,-131.5 243,-131.5 243,-112.5 154,-112.5"/>
<text text-anchor="middle" x="198.5" y="-119.5" font-family="Helvetica,sans-Serif" font-size="10.00">U_Controller.hpp</text>
</a>
</g>
</g>
<!-- Node6&#45;&gt;Node7 -->
<g id="edge9" class="edge">
<title>Node6&#45;&gt;Node7</title>
<path fill="none" stroke="midnightblue" d="M250.63,-162.1C237.68,-152.38 221.2,-140.03 210.28,-131.83"/>
<polygon fill="midnightblue" stroke="midnightblue" points="248.83,-165.12 258.93,-168.32 253.03,-159.52 248.83,-165.12"/>
</g>
<!-- Node9 -->
<g id="node9" class="node">
<title>Node9</title>
<g id="a_node9"><a xlink:href="../../d8/d01/_u___helper_8cpp.html" target="_top" xlink:title="Help function used by several .cpp files.">
<polygon fill="none" stroke="black" points="261,-112.5 261,-131.5 336,-131.5 336,-112.5 261,-112.5"/>
<text text-anchor="middle" x="298.5" y="-119.5" font-family="Helvetica,sans-Serif" font-size="10.00">U_Helper.cpp</text>
</a>
</g>
</g>
<!-- Node6&#45;&gt;Node9 -->
<g id="edge12" class="edge">
<title>Node6&#45;&gt;Node9</title>
<path fill="none" stroke="midnightblue" d="M279.84,-158.98C284.59,-149.82 290.16,-139.09 293.96,-131.75"/>
<polygon fill="midnightblue" stroke="midnightblue" points="276.62,-157.59 275.12,-168.08 282.83,-160.82 276.62,-157.59"/>
</g>
<!-- Node10 -->
<g id="node10" class="node">
<title>Node10</title>
<g id="a_node10"><a xlink:href="../../d3/d00/_u___logs_8hpp.html" target="_top" xlink:title="Header for U_Logs.cpp.">
<polygon fill="none" stroke="black" points="354.5,-112.5 354.5,-131.5 422.5,-131.5 422.5,-112.5 354.5,-112.5"/>
<text text-anchor="middle" x="388.5" y="-119.5" font-family="Helvetica,sans-Serif" font-size="10.00">U_Logs.hpp</text>
</a>
</g>
</g>
<!-- Node6&#45;&gt;Node10 -->
<g id="edge13" class="edge">
<title>Node6&#45;&gt;Node10</title>
<path fill="none" stroke="midnightblue" d="M293.32,-163.86C313.83,-153.85 343.6,-140.35 364.48,-131.65"/>
<polygon fill="midnightblue" stroke="midnightblue" points="291.74,-160.74 284.34,-168.32 294.86,-167.01 291.74,-160.74"/>
</g>
<!-- Node7&#45;&gt;Node3 -->
<g id="edge11" class="edge">
<title>Node7&#45;&gt;Node3</title>
<path fill="none" stroke="midnightblue" d="M199.18,-141.6C200.05,-165.67 201.54,-206.62 202.19,-224.37"/>
<polygon fill="midnightblue" stroke="midnightblue" points="202.67,-141.46 198.81,-131.59 195.68,-141.71 202.67,-141.46"/>
</g>
<!-- Node8 -->
<g id="node8" class="node">
<title>Node8</title>
<g id="a_node8"><a xlink:href="../../d8/d02/_u___controller_8cpp.html" target="_top" xlink:title="Controll the service/driver (Install|Start|Stop|Delete|Query)">
<polygon fill="none" stroke="black" points="192,-56.5 192,-75.5 281,-75.5 281,-56.5 192,-56.5"/>
<text text-anchor="middle" x="236.5" y="-63.5" font-family="Helvetica,sans-Serif" font-size="10.00">U_Controller.cpp</text>
</a>
</g>
</g>
<!-- Node7&#45;&gt;Node8 -->
<g id="edge10" class="edge">
<title>Node7&#45;&gt;Node8</title>
<path fill="none" stroke="midnightblue" d="M210.56,-103.86C217.14,-94.5 225.01,-83.33 230.34,-75.75"/>
<polygon fill="midnightblue" stroke="midnightblue" points="207.67,-101.89 204.77,-112.08 213.39,-105.92 207.67,-101.89"/>
</g>
<!-- Node10&#45;&gt;Node1 -->
<g id="edge15" class="edge">
<title>Node10&#45;&gt;Node1</title>
<path fill="none" stroke="midnightblue" d="M378.47,-140.55C370.13,-154.31 357.41,-173.49 343.5,-188 304.12,-229.08 246.03,-264.56 218.33,-280.31"/>
<polygon fill="midnightblue" stroke="midnightblue" points="381.67,-142.03 383.73,-131.63 375.63,-138.47 381.67,-142.03"/>
</g>
<!-- Node10&#45;&gt;Node3 -->
<g id="edge18" class="edge">
<title>Node10&#45;&gt;Node3</title>
<path fill="none" stroke="midnightblue" d="M374.02,-139.31C360.55,-153.68 339.32,-174.41 317.5,-188 290.93,-204.55 257.26,-216.86 233.24,-224.38"/>
<polygon fill="midnightblue" stroke="midnightblue" points="376.84,-141.41 381,-131.67 371.67,-136.69 376.84,-141.41"/>
</g>
<!-- Node10&#45;&gt;Node4 -->
<g id="edge14" class="edge">
<title>Node10&#45;&gt;Node4</title>
<path fill="none" stroke="midnightblue" d="M344.41,-111.8C274.75,-97.7 204.94,-84.08 160.86,-75.55"/>
<polygon fill="midnightblue" stroke="midnightblue" points="343.74,-115.23 354.24,-113.79 345.14,-108.37 343.74,-115.23"/>
</g>
<!-- Node10&#45;&gt;Node6 -->
<g id="edge16" class="edge">
<title>Node10&#45;&gt;Node6</title>
<path fill="none" stroke="midnightblue" d="M365.97,-135.99C345.37,-146.06 315.28,-159.71 294.29,-168.44"/>
<polygon fill="midnightblue" stroke="midnightblue" points="367.58,-139.11 374.97,-131.52 364.46,-132.84 367.58,-139.11"/>
</g>
<!-- Node11 -->
<g id="node11" class="node">
<title>Node11</title>
<g id="a_node11"><a xlink:href="../../da/d02/_u___logs_8cpp.html" target="_top" xlink:title="Report Event to ETW.">
<polygon fill="none" stroke="black" points="354.5,-56.5 354.5,-75.5 422.5,-75.5 422.5,-56.5 354.5,-56.5"/>
<text text-anchor="middle" x="388.5" y="-63.5" font-family="Helvetica,sans-Serif" font-size="10.00">U_Logs.cpp</text>
</a>
</g>
</g>
<!-- Node10&#45;&gt;Node11 -->
<g id="edge17" class="edge">
<title>Node10&#45;&gt;Node11</title>
<path fill="none" stroke="midnightblue" d="M388.5,-101.8C388.5,-92.91 388.5,-82.78 388.5,-75.75"/>
<polygon fill="midnightblue" stroke="midnightblue" points="385,-102.08 388.5,-112.08 392,-102.08 385,-102.08"/>
</g>
</g>
</svg>
