<?xml version="1.0" encoding="UTF-8" standalone="no"?>
<!DOCTYPE svg PUBLIC "-//W3C//DTD SVG 1.1//EN"
 "http://www.w3.org/Graphics/SVG/1.1/DTD/svg11.dtd">
<!-- Generated by graphviz version 5.0.0 (20220707.1540)
 -->
<!-- Title: Service Pages: 1 -->
<!--zoomable 657 -->
<svg id="main" version="1.1" xmlns="http://www.w3.org/2000/svg" xmlns:xlink="http://www.w3.org/1999/xlink" xml:space="preserve" onload="init(evt)">
<style type="text/css"><![CDATA[
.edge:hover path { stroke: red; }
.edge:hover polygon { stroke: red; fill: red; }
]]></style>
<script type="text/javascript"><![CDATA[
var edges = document.getElementsByTagName('g');
if (edges && edges.length) {
  for (var i=0;i<edges.length;i++) {
    if (edges[i].id.substr(0,4)=='edge') {
      edges[i].setAttribute('class','edge');
    }
  }
}
]]></script>
        <defs>
                <circle id="rim" cx="0" cy="0" r="7"/>
                <circle id="rim2" cx="0" cy="0" r="3.5"/>
                <g id="zoomPlus">
                        <use xlink:href="#rim" fill="#404040">
                                <set attributeName="fill" to="#808080" begin="zoomplus.mouseover" end="zoomplus.mouseout"/>
                        </use>
                        <path d="M-4,0h8M0,-4v8" fill="none" stroke="white" stroke-width="1.5" pointer-events="none"/>
                </g>
                <g id="zoomMin">
                        <use xlink:href="#rim" fill="#404040">
                                <set attributeName="fill" to="#808080" begin="zoomminus.mouseover" end="zoomminus.mouseout"/>
                        </use>
                        <path d="M-4,0h8" fill="none" stroke="white" stroke-width="1.5" pointer-events="none"/>
                </g>
                <g id="dirArrow">
                        <path fill="none" stroke="white" stroke-width="1.5" d="M0,-3.0v7 M-2.5,-0.5L0,-3.0L2.5,-0.5"/>
                </g>
               <g id="resetDef">
                       <use xlink:href="#rim2" fill="#404040">
                               <set attributeName="fill" to="#808080" begin="reset.mouseover" end="reset.mouseout"/>
                       </use>
               </g>
        </defs>

<script type="text/javascript">
var viewWidth = 1387;
var viewHeight = 657;
var sectionId = 'dynsection-8';
</script>
<script xlink:href="../../svgpan.js"/>
<svg id="graph" class="graph">
<g id="viewport">
<title>Service</title>
<!-- Node1 -->
<g id="node1" class="node">
<title>Node1</title>
<g id="a_node1"><a xlink:title="Wrap the call to the service entrypoint.">
<polygon fill="#bfbfbf" stroke="black" points="0,-197.5 0,-216.5 48,-216.5 48,-197.5 0,-197.5"/>
<text text-anchor="middle" x="24" y="-204.5" font-family="Helvetica,sans-Serif" font-size="10.00">Service</text>
</a>
</g>
</g>
<!-- Node2 -->
<g id="node2" class="node">
<title>Node2</title>
<g id="a_node2"><a xlink:href="../../d7/d00/_u___service_8cpp.html#a2ef7fa664545ef1bfd08460f37d2140a" target="_top" xlink:title="Entrypoint and core of the user space service.">
<polygon fill="none" stroke="black" points="84,-423.5 84,-442.5 137,-442.5 137,-423.5 84,-423.5"/>
<text text-anchor="middle" x="110.5" y="-430.5" font-family="Helvetica,sans-Serif" font-size="10.00">SvcMain</text>
</a>
</g>
</g>
<!-- Node1&#45;&gt;Node2 -->
<g id="edge1" class="edge">
<title>Node1&#45;&gt;Node2</title>
<path fill="none" stroke="midnightblue" d="M28.63,-216.71C41.5,-251.12 85.06,-367.65 102.35,-413.87"/>
<polygon fill="midnightblue" stroke="midnightblue" points="99.1,-415.18 105.88,-423.33 105.66,-412.73 99.1,-415.18"/>
</g>
<!-- Node18 -->
<g id="node18" class="node">
<title>Node18</title>
<g id="a_node18"><a xlink:href="../../d8/d00/class_u___l_o_g_s.html#a0f2932b79fce103453dd1cfc60de2007" target="_top" xlink:title="Send the reported event in the Event Viewer (Application &#45;&gt; PI&#45;Defender_UM).">
<polygon fill="none" stroke="black" points="876,-85.5 876,-104.5 1006,-104.5 1006,-85.5 876,-85.5"/>
<text text-anchor="middle" x="941" y="-92.5" font-family="Helvetica,sans-Serif" font-size="10.00">U_LOGS::SvcReportEvent</text>
</a>
</g>
</g>
<!-- Node1&#45;&gt;Node18 -->
<g id="edge39" class="edge">
<title>Node1&#45;&gt;Node18</title>
<path fill="none" stroke="midnightblue" d="M30.42,-197.29C54.08,-156.37 152.78,0 279.5,0 279.5,0 279.5,0 511,0 660.72,0 833.03,-55.84 905.29,-81.9"/>
<polygon fill="midnightblue" stroke="midnightblue" points="904.21,-85.23 914.8,-85.37 906.61,-78.65 904.21,-85.23"/>
</g>
<!-- Node3 -->
<g id="node3" class="node">
<title>Node3</title>
<g id="a_node3"><a xlink:href="../../d6/d00/class_u___c_o_n_f_i_g_u_r_a_t_i_o_n.html#aafcf880d7361d9f00cd4dd497c3a97fa" target="_top" xlink:title="Get the communication port used by the driver to interact with the service.">
<polygon fill="none" stroke="black" points="173,-530.5 173,-549.5 388,-549.5 388,-530.5 173,-530.5"/>
<text text-anchor="middle" x="280.5" y="-537.5" font-family="Helvetica,sans-Serif" font-size="10.00">U_CONFIGURATION::GetCommunicationPort</text>
</a>
</g>
</g>
<!-- Node2&#45;&gt;Node3 -->
<g id="edge2" class="edge">
<title>Node2&#45;&gt;Node3</title>
<path fill="none" stroke="midnightblue" d="M115.21,-442.56C122.92,-461.03 142.53,-501.53 173,-521 176.19,-523.04 179.55,-524.88 183.01,-526.53"/>
<polygon fill="midnightblue" stroke="midnightblue" points="181.85,-529.84 192.43,-530.49 184.57,-523.39 181.85,-529.84"/>
</g>
<!-- Node5 -->
<g id="node5" class="node">
<title>Node5</title>
<g id="a_node5"><a xlink:href="../../d6/d00/class_u___c_o_n_f_i_g_u_r_a_t_i_o_n.html#a11328249616049976aeafd9ad80429bc" target="_top" xlink:title="Get the number of threads of the service by reading the values in the Registry.">
<polygon fill="none" stroke="black" points="198.5,-481 198.5,-511 362.5,-511 362.5,-481 198.5,-481"/>
<text text-anchor="start" x="206.5" y="-499" font-family="Helvetica,sans-Serif" font-size="10.00">U_CONFIGURATION::GetListener</text>
<text text-anchor="middle" x="280.5" y="-488" font-family="Helvetica,sans-Serif" font-size="10.00">Threads</text>
</a>
</g>
</g>
<!-- Node2&#45;&gt;Node5 -->
<g id="edge4" class="edge">
<title>Node2&#45;&gt;Node5</title>
<path fill="none" stroke="midnightblue" d="M127.22,-442.67C139.38,-449.85 156.82,-459.47 173,-466 183.99,-470.44 195.88,-474.48 207.58,-478.06"/>
<polygon fill="midnightblue" stroke="midnightblue" points="206.77,-481.46 217.35,-480.95 208.76,-474.75 206.77,-481.46"/>
</g>
<!-- Node6 -->
<g id="node6" class="node">
<title>Node6</title>
<g id="a_node6"><a xlink:href="../../d6/d00/class_u___c_o_n_f_i_g_u_r_a_t_i_o_n.html#a86c433a3d57e5800ad03a4411ace09d6" target="_top" xlink:title="Get the number of threads of the service by reading the values in the REGISTRY::">
<polygon fill="none" stroke="black" points="191,-618 191,-648 370,-648 370,-618 191,-618"/>
<text text-anchor="start" x="199" y="-636" font-family="Helvetica,sans-Serif" font-size="10.00">U_CONFIGURATION::GetMaxWorker</text>
<text text-anchor="middle" x="280.5" y="-625" font-family="Helvetica,sans-Serif" font-size="10.00">Threads</text>
</a>
</g>
</g>
<!-- Node2&#45;&gt;Node6 -->
<g id="edge6" class="edge">
<title>Node2&#45;&gt;Node6</title>
<path fill="none" stroke="midnightblue" d="M111.79,-442.76C113.22,-472.6 121.78,-563.34 173,-609 175.82,-611.51 178.84,-613.78 182.02,-615.82"/>
<polygon fill="midnightblue" stroke="midnightblue" points="180.35,-618.9 190.78,-620.73 183.77,-612.79 180.35,-618.9"/>
</g>
<!-- Node7 -->
<g id="node7" class="node">
<title>Node7</title>
<g id="a_node7"><a xlink:href="../../d6/d00/class_u___c_o_n_f_i_g_u_r_a_t_i_o_n.html#a3979610ba0d110c0e79481925f413ea0" target="_top" xlink:title="Get the number of threads of the service by reading the values in the Registry.">
<polygon fill="none" stroke="black" points="192.5,-569 192.5,-599 368.5,-599 368.5,-569 192.5,-569"/>
<text text-anchor="start" x="200.5" y="-587" font-family="Helvetica,sans-Serif" font-size="10.00">U_CONFIGURATION::GetMinWorker</text>
<text text-anchor="middle" x="280.5" y="-576" font-family="Helvetica,sans-Serif" font-size="10.00">Threads</text>
</a>
</g>
</g>
<!-- Node2&#45;&gt;Node7 -->
<g id="edge8" class="edge">
<title>Node2&#45;&gt;Node7</title>
<path fill="none" stroke="midnightblue" d="M113.28,-442.65C118.18,-466.4 134.19,-528.02 173,-559 176.21,-561.56 179.63,-563.86 183.21,-565.94"/>
<polygon fill="midnightblue" stroke="midnightblue" points="181.91,-569.21 192.4,-570.64 185.1,-562.97 181.91,-569.21"/>
</g>
<!-- Node8 -->
<g id="node8" class="node">
<title>Node8</title>
<g id="a_node8"><a xlink:href="../../d8/d03/class_u___c_o_n_t_r_o_l_l_e_r.html#a031d85cad5238299ce37dcac69a91ffc" target="_top" xlink:title="Start the service &quot;szServiceName&quot;.">
<polygon fill="none" stroke="black" points="644.5,-442.5 644.5,-461.5 806.5,-461.5 806.5,-442.5 644.5,-442.5"/>
<text text-anchor="middle" x="725.5" y="-449.5" font-family="Helvetica,sans-Serif" font-size="10.00">U_CONTROLLER::LaunchService</text>
</a>
</g>
</g>
<!-- Node2&#45;&gt;Node8 -->
<g id="edge10" class="edge">
<title>Node2&#45;&gt;Node8</title>
<path fill="none" stroke="midnightblue" d="M122.81,-423.29C134.49,-413.96 153.68,-400.49 173,-395 361.79,-341.38 599.69,-409.33 688.72,-439.21"/>
<polygon fill="midnightblue" stroke="midnightblue" points="687.74,-442.58 698.34,-442.49 690,-435.95 687.74,-442.58"/>
</g>
<!-- Node14 -->
<g id="node14" class="node">
<title>Node14</title>
<g id="a_node14"><a xlink:href="../../d9/d01/class_u___c_o_m_m_u_n_i_c_a_t_i_o_n.html#a1cbfbcf7e7e895608457abf405455e6a" target="_top" xlink:title="Thread listening message sends from kernel driver.">
<polygon fill="none" stroke="black" points="205,-268 205,-298 356,-298 356,-268 205,-268"/>
<text text-anchor="start" x="213" y="-286" font-family="Helvetica,sans-Serif" font-size="10.00">U_COMMUNICATION::Listener</text>
<text text-anchor="middle" x="280.5" y="-275" font-family="Helvetica,sans-Serif" font-size="10.00">Thread</text>
</a>
</g>
</g>
<!-- Node2&#45;&gt;Node14 -->
<g id="edge17" class="edge">
<title>Node2&#45;&gt;Node14</title>
<path fill="none" stroke="midnightblue" d="M118.85,-423.22C129.81,-408.95 151.47,-381.96 173,-362 196.4,-340.31 225.68,-318.95 247.61,-303.92"/>
<polygon fill="midnightblue" stroke="midnightblue" points="249.61,-306.79 255.93,-298.28 245.69,-300.99 249.61,-306.79"/>
</g>
<!-- Node2&#45;&gt;Node18 -->
<g id="edge37" class="edge">
<title>Node2&#45;&gt;Node18</title>
<path fill="none" stroke="midnightblue" d="M112.7,-423.27C116.6,-395.04 131.21,-311.73 173,-259 255.31,-155.13 299.28,-142.82 424,-98 589.54,-38.51 643.8,-57.2 819,-73 841.95,-75.07 867.05,-79.3 888.41,-83.51"/>
<polygon fill="midnightblue" stroke="midnightblue" points="887.76,-86.95 898.25,-85.5 889.15,-80.09 887.76,-86.95"/>
</g>
<!-- Node22 -->
<g id="node22" class="node">
<title>Node22</title>
<g id="a_node22"><a xlink:href="../../d8/d03/class_u___c_o_n_t_r_o_l_l_e_r.html#a62de7b3a08b00dde2a3de3fa50ed52ea" target="_top" xlink:title="Receive signal send by the User / SC Manager, handle it, update service status.">
<polygon fill="none" stroke="black" points="199,-404.5 199,-423.5 362,-423.5 362,-404.5 199,-404.5"/>
<text text-anchor="middle" x="280.5" y="-411.5" font-family="Helvetica,sans-Serif" font-size="10.00">U_CONTROLLER::SvcCtrlHandler</text>
</a>
</g>
</g>
<!-- Node2&#45;&gt;Node22 -->
<g id="edge29" class="edge">
<title>Node2&#45;&gt;Node22</title>
<path fill="none" stroke="midnightblue" d="M137.02,-430.11C151.16,-428.51 169.71,-426.42 188.72,-424.27"/>
<polygon fill="midnightblue" stroke="midnightblue" points="189.13,-427.74 198.68,-423.14 188.35,-420.79 189.13,-427.74"/>
</g>
<!-- Node26 -->
<g id="node26" class="node">
<title>Node26</title>
<g id="a_node26"><a xlink:href="../../d8/d03/class_u___c_o_n_t_r_o_l_l_e_r.html#a01343cb31a17c7a8077472a59927415a" target="_top" xlink:title="Depending on the state of the service, it can receive order from the user space.">
<polygon fill="none" stroke="black" points="424,-518.5 424,-537.5 596,-537.5 596,-518.5 424,-518.5"/>
<text text-anchor="middle" x="510" y="-525.5" font-family="Helvetica,sans-Serif" font-size="10.00">U_CONTROLLER::SvcReportStatus</text>
</a>
</g>
</g>
<!-- Node2&#45;&gt;Node26 -->
<g id="edge38" class="edge">
<title>Node2&#45;&gt;Node26</title>
<path fill="none" stroke="midnightblue" d="M137.39,-434.52C197.43,-438.37 344.34,-449.84 388,-472 408.46,-482.38 403.97,-497.81 424,-509 428.15,-511.32 432.57,-513.36 437.12,-515.15"/>
<polygon fill="midnightblue" stroke="midnightblue" points="436.02,-518.47 446.62,-518.48 438.34,-511.87 436.02,-518.47"/>
</g>
<!-- Node4 -->
<g id="node4" class="node">
<title>Node4</title>
<g id="a_node4"><a xlink:href="../../d1/d03/class_u___r_e_g_i_s_t_r_y.html#ab8fcbe86de2429b471dcaa94d9025aa8" target="_top" xlink:title="Read the content (DWORD) of the registry key &quot;szSubKey&quot; located in the HIVE &quot;hKeyParent&quot;.">
<polygon fill="none" stroke="black" points="444.5,-565.5 444.5,-584.5 575.5,-584.5 575.5,-565.5 444.5,-565.5"/>
<text text-anchor="middle" x="510" y="-572.5" font-family="Helvetica,sans-Serif" font-size="10.00">U_REGISTRY::ReadValue</text>
</a>
</g>
</g>
<!-- Node3&#45;&gt;Node4 -->
<g id="edge3" class="edge">
<title>Node3&#45;&gt;Node4</title>
<path fill="none" stroke="midnightblue" d="M343.36,-549.52C372.33,-553.97 407,-559.31 437.12,-563.94"/>
<polygon fill="midnightblue" stroke="midnightblue" points="436.73,-567.42 447.15,-565.48 437.8,-560.5 436.73,-567.42"/>
</g>
<!-- Node5&#45;&gt;Node4 -->
<g id="edge5" class="edge">
<title>Node5&#45;&gt;Node4</title>
<path fill="none" stroke="midnightblue" d="M361.18,-511.03C370.41,-513.84 379.53,-517.14 388,-521 405.96,-529.19 406.42,-538.03 424,-547 435.79,-553.02 449.15,-558.13 461.73,-562.28"/>
<polygon fill="midnightblue" stroke="midnightblue" points="461.02,-565.72 471.61,-565.39 463.12,-559.05 461.02,-565.72"/>
</g>
<!-- Node6&#45;&gt;Node4 -->
<g id="edge7" class="edge">
<title>Node6&#45;&gt;Node4</title>
<path fill="none" stroke="midnightblue" d="M350.66,-617.97C363.12,-615.1 375.96,-612.04 388,-609 414.35,-602.33 443.71,-594.1 466.9,-587.41"/>
<polygon fill="midnightblue" stroke="midnightblue" points="468.14,-590.7 476.77,-584.55 466.19,-583.98 468.14,-590.7"/>
</g>
<!-- Node7&#45;&gt;Node4 -->
<g id="edge9" class="edge">
<title>Node7&#45;&gt;Node4</title>
<path fill="none" stroke="midnightblue" d="M368.81,-580.55C390.34,-579.69 413.22,-578.79 434.11,-577.96"/>
<polygon fill="midnightblue" stroke="midnightblue" points="434.33,-581.46 444.19,-577.56 434.06,-574.46 434.33,-581.46"/>
</g>
<!-- Node9 -->
<g id="node9" class="node">
<title>Node9</title>
<g id="a_node9"><a xlink:href="../../d8/d03/class_u___c_o_n_t_r_o_l_l_e_r.html#a65733b52c6801a89b0c12d7836feef9c" target="_top" xlink:title="Get a handle to the Service Controller Database.">
<polygon fill="none" stroke="black" points="855,-483.5 855,-502.5 1027,-502.5 1027,-483.5 855,-483.5"/>
<text text-anchor="middle" x="941" y="-490.5" font-family="Helvetica,sans-Serif" font-size="10.00">U_CONTROLLER::_GetSCMHandle</text>
</a>
</g>
</g>
<!-- Node8&#45;&gt;Node9 -->
<g id="edge11" class="edge">
<title>Node8&#45;&gt;Node9</title>
<path fill="none" stroke="midnightblue" d="M776.02,-461.51C807.16,-467.49 847.54,-475.24 880.43,-481.56"/>
<polygon fill="midnightblue" stroke="midnightblue" points="879.9,-485.02 890.38,-483.47 881.22,-478.15 879.9,-485.02"/>
</g>
<!-- Node10 -->
<g id="node10" class="node">
<title>Node10</title>
<g id="a_node10"><a xlink:href="../../d8/d03/class_u___c_o_n_t_r_o_l_l_e_r.html#a6cbf07b4ef4a8f7f1e148e7b6d5bcb5d" target="_top" xlink:title="Get a handle to the service.">
<polygon fill="none" stroke="black" points="865,-434 865,-464 1017,-464 1017,-434 865,-434"/>
<text text-anchor="start" x="873" y="-452" font-family="Helvetica,sans-Serif" font-size="10.00">U_CONTROLLER::_GetService</text>
<text text-anchor="middle" x="941" y="-441" font-family="Helvetica,sans-Serif" font-size="10.00">Handle</text>
</a>
</g>
</g>
<!-- Node8&#45;&gt;Node10 -->
<g id="edge12" class="edge">
<title>Node8&#45;&gt;Node10</title>
<path fill="none" stroke="midnightblue" d="M806.61,-450.87C822.23,-450.65 838.67,-450.42 854.47,-450.2"/>
<polygon fill="midnightblue" stroke="midnightblue" points="854.79,-453.7 864.74,-450.06 854.69,-446.7 854.79,-453.7"/>
</g>
<!-- Node11 -->
<g id="node11" class="node">
<title>Node11</title>
<g id="a_node11"><a xlink:href="../../d1/d02/class_u___h_e_l_p_e_r.html#a6fca38e2de32e2da0598743ef731c2f1" target="_top" xlink:title="This routine will display an error message based off of the Win32 error code that is passed in.">
<polygon fill="none" stroke="black" points="877.5,-366.5 877.5,-385.5 1004.5,-385.5 1004.5,-366.5 877.5,-366.5"/>
<text text-anchor="middle" x="941" y="-373.5" font-family="Helvetica,sans-Serif" font-size="10.00">U_HELPER::DisplayError</text>
</a>
</g>
</g>
<!-- Node8&#45;&gt;Node11 -->
<g id="edge13" class="edge">
<title>Node8&#45;&gt;Node11</title>
<path fill="none" stroke="midnightblue" d="M768.8,-442.46C784.7,-438.5 802.83,-433.54 819,-428 851.13,-417 886.71,-401.26 910.92,-389.98"/>
<polygon fill="midnightblue" stroke="midnightblue" points="912.68,-393.02 920.24,-385.6 909.7,-386.69 912.68,-393.02"/>
</g>
<!-- Node12 -->
<g id="node12" class="node">
<title>Node12</title>
<g id="a_node12"><a xlink:href="../../d1/d02/class_u___h_e_l_p_e_r.html#a74e583e738595b638363c7cdec7b3d3f" target="_top" xlink:title="Popup error message displaying the function that failed associated with the error code.">
<polygon fill="none" stroke="black" points="1063,-347.5 1063,-366.5 1209,-366.5 1209,-347.5 1063,-347.5"/>
<text text-anchor="middle" x="1136" y="-354.5" font-family="Helvetica,sans-Serif" font-size="10.00">U_HELPER::DisplayMessage</text>
</a>
</g>
</g>
<!-- Node11&#45;&gt;Node12 -->
<g id="edge14" class="edge">
<title>Node11&#45;&gt;Node12</title>
<path fill="none" stroke="midnightblue" d="M1004.66,-369.83C1020.07,-368.31 1036.79,-366.67 1052.96,-365.08"/>
<polygon fill="midnightblue" stroke="midnightblue" points="1053.32,-368.56 1062.93,-364.09 1052.64,-361.59 1053.32,-368.56"/>
</g>
<!-- Node13 -->
<g id="node13" class="node">
<title>Node13</title>
<g id="a_node13"><a xlink:href="../../d1/d02/class_u___h_e_l_p_e_r.html#a54991307972870225fd074f0e7a21686" target="_top" xlink:title="Print error message in the terminal.">
<polygon fill="none" stroke="black" points="1245,-366.5 1245,-385.5 1379,-385.5 1379,-366.5 1245,-366.5"/>
<text text-anchor="middle" x="1312" y="-373.5" font-family="Helvetica,sans-Serif" font-size="10.00">U_HELPER::PrintMessage</text>
</a>
</g>
</g>
<!-- Node11&#45;&gt;Node13 -->
<g id="edge16" class="edge">
<title>Node11&#45;&gt;Node13</title>
<path fill="none" stroke="midnightblue" d="M1004.6,-376C1068.16,-376 1166.66,-376 1234.74,-376"/>
<polygon fill="midnightblue" stroke="midnightblue" points="1234.98,-379.5 1244.98,-376 1234.98,-372.5 1234.98,-379.5"/>
</g>
<!-- Node12&#45;&gt;Node13 -->
<g id="edge15" class="edge">
<title>Node12&#45;&gt;Node13</title>
<path fill="none" stroke="midnightblue" d="M1209.03,-364.87C1217.56,-365.8 1226.29,-366.75 1234.88,-367.69"/>
<polygon fill="midnightblue" stroke="midnightblue" points="1234.56,-371.17 1244.88,-368.78 1235.32,-364.22 1234.56,-371.17"/>
</g>
<!-- Node14&#45;&gt;Node11 -->
<g id="edge27" class="edge">
<title>Node14&#45;&gt;Node11</title>
<path fill="none" stroke="midnightblue" d="M339.65,-298.01C408.81,-315.23 528,-342.89 632,-357 711.96,-367.85 804.44,-372.51 867.04,-374.51"/>
<polygon fill="midnightblue" stroke="midnightblue" points="867.11,-378.01 877.21,-374.82 867.32,-371.01 867.11,-378.01"/>
</g>
<!-- Node15 -->
<g id="node15" class="node">
<title>Node15</title>
<g id="a_node15"><a xlink:href="../../d9/d01/class_u___c_o_m_m_u_n_i_c_a_t_i_o_n.html#a87d0f531204d9141da9e181c20a18c59" target="_top" xlink:title="Worker thread used to check file signature.">
<polygon fill="none" stroke="black" points="433.5,-219 433.5,-249 586.5,-249 586.5,-219 433.5,-219"/>
<text text-anchor="start" x="441.5" y="-237" font-family="Helvetica,sans-Serif" font-size="10.00">U_COMMUNICATION::_Worker</text>
<text text-anchor="middle" x="510" y="-226" font-family="Helvetica,sans-Serif" font-size="10.00">Thread</text>
</a>
</g>
</g>
<!-- Node14&#45;&gt;Node15 -->
<g id="edge18" class="edge">
<title>Node14&#45;&gt;Node15</title>
<path fill="none" stroke="midnightblue" d="M351.3,-267.97C375.98,-262.65 403.92,-256.63 429.35,-251.16"/>
<polygon fill="midnightblue" stroke="midnightblue" points="430.29,-254.53 439.33,-249.01 428.82,-247.69 430.29,-254.53"/>
</g>
<!-- Node14&#45;&gt;Node18 -->
<g id="edge28" class="edge">
<title>Node14&#45;&gt;Node18</title>
<path fill="none" stroke="midnightblue" d="M300.54,-267.94C350.96,-229.17 493.54,-126.44 632,-91 712.73,-70.34 809.29,-76.31 872.51,-84.15"/>
<polygon fill="midnightblue" stroke="midnightblue" points="872.38,-87.66 882.75,-85.47 873.28,-80.72 872.38,-87.66"/>
</g>
<!-- Node16 -->
<g id="node16" class="node">
<title>Node16</title>
<g id="a_node16"><a xlink:href="../../d9/d01/class_u___c_o_m_m_u_n_i_c_a_t_i_o_n.html#a6f2f0c62b6e4f1270d5c95c6e6521ee3" target="_top" xlink:title="Push a new message in the queue.">
<polygon fill="none" stroke="black" points="632,-317 632,-347 819,-347 819,-317 632,-317"/>
<text text-anchor="start" x="640" y="-335" font-family="Helvetica,sans-Serif" font-size="10.00">U_COMMUNICATION::_PumpMessage</text>
<text text-anchor="middle" x="725.5" y="-324" font-family="Helvetica,sans-Serif" font-size="10.00">InQueue</text>
</a>
</g>
</g>
<!-- Node15&#45;&gt;Node16 -->
<g id="edge19" class="edge">
<title>Node15&#45;&gt;Node16</title>
<path fill="none" stroke="midnightblue" d="M531.4,-249.09C554.67,-265.66 594.37,-292.03 632,-308 636.96,-310.11 642.16,-312.07 647.44,-313.88"/>
<polygon fill="midnightblue" stroke="midnightblue" points="646.44,-317.23 657.03,-316.99 648.6,-310.57 646.44,-317.23"/>
</g>
<!-- Node17 -->
<g id="node17" class="node">
<title>Node17</title>
<g id="a_node17"><a xlink:href="../../d9/d01/class_u___c_o_m_m_u_n_i_c_a_t_i_o_n.html#ac7267746e2596819493bbf7fca1d4520" target="_top" xlink:title="Reply to the kernel driver.">
<polygon fill="none" stroke="black" points="652.5,-180.5 652.5,-199.5 798.5,-199.5 798.5,-180.5 652.5,-180.5"/>
<text text-anchor="middle" x="725.5" y="-187.5" font-family="Helvetica,sans-Serif" font-size="10.00">U_COMMUNICATION::_Reply</text>
</a>
</g>
</g>
<!-- Node15&#45;&gt;Node17 -->
<g id="edge21" class="edge">
<title>Node15&#45;&gt;Node17</title>
<path fill="none" stroke="midnightblue" d="M583.62,-218.98C599.56,-215.69 616.35,-212.22 632,-209 643.67,-206.6 656.16,-204.03 668.08,-201.58"/>
<polygon fill="midnightblue" stroke="midnightblue" points="668.82,-205 677.92,-199.56 667.42,-198.14 668.82,-205"/>
</g>
<!-- Node15&#45;&gt;Node18 -->
<g id="edge24" class="edge">
<title>Node15&#45;&gt;Node18</title>
<path fill="none" stroke="midnightblue" d="M523.7,-218.91C543.97,-195.97 586.06,-152.92 632,-133 707.07,-100.45 801.47,-93.14 865.85,-92.59"/>
<polygon fill="midnightblue" stroke="midnightblue" points="865.92,-96.09 875.91,-92.56 865.9,-89.09 865.92,-96.09"/>
</g>
<!-- Node19 -->
<g id="node19" class="node">
<title>Node19</title>
<g id="a_node19"><a xlink:href="../../d1/d02/class_u___h_e_l_p_e_r.html#a0532d2f45a1a8977c99caf1c6d27e7c1" target="_top" xlink:title=" ">
<polygon fill="none" stroke="black" points="634,-142.5 634,-161.5 817,-161.5 817,-142.5 634,-142.5"/>
<text text-anchor="middle" x="725.5" y="-149.5" font-family="Helvetica,sans-Serif" font-size="10.00">U_HELPER::GetHandleFromFileName</text>
</a>
</g>
</g>
<!-- Node15&#45;&gt;Node19 -->
<g id="edge23" class="edge">
<title>Node15&#45;&gt;Node19</title>
<path fill="none" stroke="midnightblue" d="M535.12,-218.88C558.91,-204.59 596.74,-183.53 632,-171 639.58,-168.31 647.65,-165.95 655.74,-163.9"/>
<polygon fill="midnightblue" stroke="midnightblue" points="656.69,-167.27 665.6,-161.54 655.06,-160.46 656.69,-167.27"/>
</g>
<!-- Node20 -->
<g id="node20" class="node">
<title>Node20</title>
<g id="a_node20"><a xlink:href="../../dd/d00/class_u___s_i_g_n_a_t_u_r_e.html#a4a2b43ca305cb41a3eab3b76d60cb6db" target="_top" xlink:title="Verify the signature of &#39;szFile&#39; by looking at catalogs files.">
<polygon fill="none" stroke="black" points="651.5,-268 651.5,-298 799.5,-298 799.5,-268 651.5,-268"/>
<text text-anchor="start" x="659.5" y="-286" font-family="Helvetica,sans-Serif" font-size="10.00">U_SIGNATURE::VerifyCatalog</text>
<text text-anchor="middle" x="725.5" y="-275" font-family="Helvetica,sans-Serif" font-size="10.00">Signature</text>
</a>
</g>
</g>
<!-- Node15&#45;&gt;Node20 -->
<g id="edge25" class="edge">
<title>Node15&#45;&gt;Node20</title>
<path fill="none" stroke="midnightblue" d="M576.51,-249.03C599.46,-254.3 625.42,-260.26 649.11,-265.7"/>
<polygon fill="midnightblue" stroke="midnightblue" points="648.59,-269.17 659.12,-267.99 650.15,-262.35 648.59,-269.17"/>
</g>
<!-- Node21 -->
<g id="node21" class="node">
<title>Node21</title>
<g id="a_node21"><a xlink:href="../../dd/d00/class_u___s_i_g_n_a_t_u_r_e.html#a08a76b9f115ae35af11c805c8a58ebb0" target="_top" xlink:title="Check if the file &quot;szFile&quot; is signed by a trusted authority.">
<polygon fill="none" stroke="black" points="645,-219 645,-249 806,-249 806,-219 645,-219"/>
<text text-anchor="start" x="653" y="-237" font-family="Helvetica,sans-Serif" font-size="10.00">U_SIGNATURE::VerifyEmbedded</text>
<text text-anchor="middle" x="725.5" y="-226" font-family="Helvetica,sans-Serif" font-size="10.00">Signature</text>
</a>
</g>
</g>
<!-- Node15&#45;&gt;Node21 -->
<g id="edge26" class="edge">
<title>Node15&#45;&gt;Node21</title>
<path fill="none" stroke="midnightblue" d="M586.57,-234C602.02,-234 618.43,-234 634.33,-234"/>
<polygon fill="midnightblue" stroke="midnightblue" points="634.69,-237.5 644.69,-234 634.69,-230.5 634.69,-237.5"/>
</g>
<!-- Node16&#45;&gt;Node11 -->
<g id="edge20" class="edge">
<title>Node16&#45;&gt;Node11</title>
<path fill="none" stroke="midnightblue" d="M799.38,-347.02C827,-352.71 857.99,-359.1 883.84,-364.43"/>
<polygon fill="midnightblue" stroke="midnightblue" points="883.34,-367.9 893.84,-366.49 884.76,-361.04 883.34,-367.9"/>
</g>
<!-- Node17&#45;&gt;Node18 -->
<g id="edge22" class="edge">
<title>Node17&#45;&gt;Node18</title>
<path fill="none" stroke="midnightblue" d="M788.61,-180.45C798.95,-177.95 809.41,-174.85 819,-171 857.38,-155.6 897.08,-128.03 920.11,-110.67"/>
<polygon fill="midnightblue" stroke="midnightblue" points="922.27,-113.42 928.08,-104.56 918.02,-107.86 922.27,-113.42"/>
</g>
<!-- Node22&#45;&gt;Node18 -->
<g id="edge35" class="edge">
<title>Node22&#45;&gt;Node18</title>
<path fill="none" stroke="midnightblue" d="M362.05,-414.95C493.76,-414.97 747.69,-408.12 819,-357 902.49,-297.15 929.86,-165.11 937.45,-114.91"/>
<polygon fill="midnightblue" stroke="midnightblue" points="940.95,-115.13 938.88,-104.74 934.02,-114.15 940.95,-115.13"/>
</g>
<!-- Node23 -->
<g id="node23" class="node">
<title>Node23</title>
<g id="a_node23"><a xlink:href="../../d9/d01/class_u___c_o_m_m_u_n_i_c_a_t_i_o_n.html#a24b9f6b8b2ec28d44b96e46804ee7ddb" target="_top" xlink:title="Disconnect the client.">
<polygon fill="none" stroke="black" points="427.5,-442.5 427.5,-461.5 592.5,-461.5 592.5,-442.5 427.5,-442.5"/>
<text text-anchor="middle" x="510" y="-449.5" font-family="Helvetica,sans-Serif" font-size="10.00">U_COMMUNICATION::Disconnect</text>
</a>
</g>
</g>
<!-- Node22&#45;&gt;Node23 -->
<g id="edge30" class="edge">
<title>Node22&#45;&gt;Node23</title>
<path fill="none" stroke="midnightblue" d="M338.61,-423.54C369.99,-428.78 409.07,-435.31 441.89,-440.79"/>
<polygon fill="midnightblue" stroke="midnightblue" points="441.42,-444.26 451.86,-442.46 442.58,-437.36 441.42,-444.26"/>
</g>
<!-- Node24 -->
<g id="node24" class="node">
<title>Node24</title>
<g id="a_node24"><a xlink:href="../../d8/d03/class_u___c_o_n_t_r_o_l_l_e_r.html#a32bed2bf85d659bbaff8e1d3fcafa42e" target="_top" xlink:title="Stop the service &quot;szServiceName&quot;.">
<polygon fill="none" stroke="black" points="434.5,-480.5 434.5,-499.5 585.5,-499.5 585.5,-480.5 434.5,-480.5"/>
<text text-anchor="middle" x="510" y="-487.5" font-family="Helvetica,sans-Serif" font-size="10.00">U_CONTROLLER::StopService</text>
</a>
</g>
</g>
<!-- Node22&#45;&gt;Node24 -->
<g id="edge31" class="edge">
<title>Node22&#45;&gt;Node24</title>
<path fill="none" stroke="midnightblue" d="M348.44,-423.5C362,-426.95 375.82,-431.63 388,-438 407.23,-448.06 404.76,-460.96 424,-471 428.49,-473.34 433.27,-475.4 438.17,-477.2"/>
<polygon fill="midnightblue" stroke="midnightblue" points="437.13,-480.55 447.72,-480.37 439.33,-473.9 437.13,-480.55"/>
</g>
<!-- Node22&#45;&gt;Node26 -->
<g id="edge36" class="edge">
<title>Node22&#45;&gt;Node26</title>
<path fill="none" stroke="midnightblue" d="M360.7,-423.5C370.52,-427.01 379.92,-431.71 388,-438 415.92,-459.74 396.07,-487.29 424,-509 426.29,-510.78 428.72,-512.41 431.25,-513.88"/>
<polygon fill="midnightblue" stroke="midnightblue" points="429.69,-517.01 440.2,-518.36 432.82,-510.75 429.69,-517.01"/>
</g>
<!-- Node24&#45;&gt;Node9 -->
<g id="edge32" class="edge">
<title>Node24&#45;&gt;Node9</title>
<path fill="none" stroke="midnightblue" d="M585.73,-490.52C657.52,-491.02 766.32,-491.79 844.4,-492.33"/>
<polygon fill="midnightblue" stroke="midnightblue" points="844.7,-495.83 854.72,-492.4 844.75,-488.83 844.7,-495.83"/>
</g>
<!-- Node25 -->
<g id="node25" class="node">
<title>Node25</title>
<g id="a_node25"><a xlink:href="../../d8/d03/class_u___c_o_n_t_r_o_l_l_e_r.html#af55beae6c2742cab857466b32140a5dd" target="_top" xlink:title="Query the service &quot;szServiceName&quot; and return its state.">
<polygon fill="none" stroke="black" points="652.5,-519 652.5,-549 798.5,-549 798.5,-519 652.5,-519"/>
<text text-anchor="start" x="660.5" y="-537" font-family="Helvetica,sans-Serif" font-size="10.00">U_CONTROLLER::GetService</text>
<text text-anchor="middle" x="725.5" y="-526" font-family="Helvetica,sans-Serif" font-size="10.00">State</text>
</a>
</g>
</g>
<!-- Node24&#45;&gt;Node25 -->
<g id="edge33" class="edge">
<title>Node24&#45;&gt;Node25</title>
<path fill="none" stroke="midnightblue" d="M557.33,-499.55C582.12,-504.66 613.4,-511.1 642.17,-517.03"/>
<polygon fill="midnightblue" stroke="midnightblue" points="641.73,-520.52 652.23,-519.11 643.14,-513.66 641.73,-520.52"/>
</g>
<!-- Node25&#45;&gt;Node9 -->
<g id="edge34" class="edge">
<title>Node25&#45;&gt;Node9</title>
<path fill="none" stroke="midnightblue" d="M798.78,-520.12C825.37,-515.01 855.16,-509.29 880.5,-504.43"/>
<polygon fill="midnightblue" stroke="midnightblue" points="881.18,-507.86 890.34,-502.54 879.86,-500.99 881.18,-507.86"/>
</g>
</g>
</svg>
        <g id="navigator" transform="translate(0 0)" fill="#404254">
                <rect fill="#f2f5e9" fill-opacity="0.5" stroke="#606060" stroke-width=".5" x="0" y="0" width="60" height="60"/>
                <use id="zoomplus" xlink:href="#zoomPlus" x="17" y="9" onmousedown="handleZoom(evt,'in')"/>
                <use id="zoomminus" xlink:href="#zoomMin" x="42" y="9" onmousedown="handleZoom(evt,'out')"/>
                <use id="reset" xlink:href="#resetDef" x="30" y="36" onmousedown="handleReset()"/>
                <g id="arrowUp" xlink:href="#dirArrow" transform="translate(30 24)" onmousedown="handlePan(0,-1)">
                  <use xlink:href="#rim" fill="#404040">
                        <set attributeName="fill" to="#808080" begin="arrowUp.mouseover" end="arrowUp.mouseout"/>
                  </use>
                  <path fill="none" stroke="white" stroke-width="1.5" d="M0,-3.0v7 M-2.5,-0.5L0,-3.0L2.5,-0.5"/>
                </g>
                <g id="arrowRight" xlink:href="#dirArrow" transform="rotate(90) translate(36 -43)" onmousedown="handlePan(1,0)">
                  <use xlink:href="#rim" fill="#404040">
                        <set attributeName="fill" to="#808080" begin="arrowRight.mouseover" end="arrowRight.mouseout"/>
                  </use>
                  <path fill="none" stroke="white" stroke-width="1.5" d="M0,-3.0v7 M-2.5,-0.5L0,-3.0L2.5,-0.5"/>
                </g>
                <g id="arrowDown" xlink:href="#dirArrow" transform="rotate(180) translate(-30 -48)" onmousedown="handlePan(0,1)">
                  <use xlink:href="#rim" fill="#404040">
                        <set attributeName="fill" to="#808080" begin="arrowDown.mouseover" end="arrowDown.mouseout"/>
                  </use>
                  <path fill="none" stroke="white" stroke-width="1.5" d="M0,-3.0v7 M-2.5,-0.5L0,-3.0L2.5,-0.5"/>
                </g>
                <g id="arrowLeft" xlink:href="#dirArrow" transform="rotate(270) translate(-36 17)" onmousedown="handlePan(-1,0)">
                  <use xlink:href="#rim" fill="#404040">
                        <set attributeName="fill" to="#808080" begin="arrowLeft.mouseover" end="arrowLeft.mouseout"/>
                  </use>
                  <path fill="none" stroke="white" stroke-width="1.5" d="M0,-3.0v7 M-2.5,-0.5L0,-3.0L2.5,-0.5"/>
                </g>
        </g>
        <svg viewBox="0 0 15 15" width="100%" height="30px" preserveAspectRatio="xMaxYMin meet">
         <g id="arrow_out" transform="scale(0.3 0.3)">
          <a xlink:href="_u___service_8hpp_afa2e3daf278842db7a49d41ebebc8519_cgraph_org.svg" target="_base">
           <rect id="button" ry="5" rx="5" y="6" x="6" height="38" width="38"
                fill="#f2f5e9" fill-opacity="0.5" stroke="#606060" stroke-width="1.0"/>
           <path id="arrow"
             d="M 11.500037,31.436501 C 11.940474,20.09759 22.043105,11.32322 32.158766,21.979434 L 37.068811,17.246167 C 37.068811,17.246167 37.088388,32 37.088388,32 L 22.160133,31.978069 C 22.160133,31.978069 26.997745,27.140456 26.997745,27.140456 C 18.528582,18.264221 13.291696,25.230495 11.500037,31.436501 z"
             style="fill:#404040;"/>
          </a>
         </g>
        </svg>
</svg>
