<?xml version="1.0" encoding="UTF-8" standalone="no"?>
<!DOCTYPE svg PUBLIC "-//W3C//DTD SVG 1.1//EN"
 "http://www.w3.org/Graphics/SVG/1.1/DTD/svg11.dtd">
<!-- Generated by graphviz version 5.0.0 (20220707.1540)
 -->
<!-- Title: U_Controller.cpp Pages: 1 -->
<svg width="840pt" height="476pt"
 viewBox="0.00 0.00 840.42 476.00" xmlns="http://www.w3.org/2000/svg" xmlns:xlink="http://www.w3.org/1999/xlink">
<g id="graph0" class="graph" transform="scale(1 1) rotate(0) translate(4 472)">
<title>U_Controller.cpp</title>
<!-- Node1 -->
<g id="node1" class="node">
<title>Node1</title>
<g id="a_node1"><a xlink:title="Controll the service/driver (Install|Start|Stop|Delete|Query)">
<polygon fill="#bfbfbf" stroke="black" points="595.92,-448.5 595.92,-467.5 684.92,-467.5 684.92,-448.5 595.92,-448.5"/>
<text text-anchor="middle" x="640.42" y="-455.5" font-family="Helvetica,sans-Serif" font-size="10.00">U_Controller.cpp</text>
</a>
</g>
</g>
<!-- Node2 -->
<g id="node2" class="node">
<title>Node2</title>
<g id="a_node2"><a xlink:href="../../d3/de9/_u___controller_8hpp.html" target="_top" xlink:title="Header for U_Controller.cpp.">
<polygon fill="none" stroke="black" points="595.92,-392.5 595.92,-411.5 684.92,-411.5 684.92,-392.5 595.92,-392.5"/>
<text text-anchor="middle" x="640.42" y="-399.5" font-family="Helvetica,sans-Serif" font-size="10.00">U_Controller.hpp</text>
</a>
</g>
</g>
<!-- Node1&#45;&gt;Node2 -->
<g id="edge1" class="edge">
<title>Node1&#45;&gt;Node2</title>
<path fill="none" stroke="midnightblue" d="M640.42,-448.08C640.42,-441.01 640.42,-430.86 640.42,-421.99"/>
<polygon fill="midnightblue" stroke="midnightblue" points="643.92,-421.75 640.42,-411.75 636.92,-421.75 643.92,-421.75"/>
</g>
<!-- Node3 -->
<g id="node3" class="node">
<title>Node3</title>
<g id="a_node3"><a xlink:href="../../df/d9a/_u___global_header_8hpp.html" target="_top" xlink:title="Header used by several .hpp files.">
<polygon fill="none" stroke="black" points="457.42,-56.5 457.42,-75.5 563.42,-75.5 563.42,-56.5 457.42,-56.5"/>
<text text-anchor="middle" x="510.42" y="-63.5" font-family="Helvetica,sans-Serif" font-size="10.00">U_GlobalHeader.hpp</text>
</a>
</g>
</g>
<!-- Node2&#45;&gt;Node3 -->
<g id="edge2" class="edge">
<title>Node2&#45;&gt;Node3</title>
<path fill="none" stroke="midnightblue" d="M684.96,-395.3C741.67,-385.25 832.42,-358.61 832.42,-291 832.42,-291 832.42,-291 832.42,-177 832.42,-122.85 667.31,-89.85 573.55,-75.47"/>
<polygon fill="midnightblue" stroke="midnightblue" points="574.01,-72 563.6,-73.97 572.96,-78.92 574.01,-72"/>
</g>
<!-- Node9 -->
<g id="node9" class="node">
<title>Node9</title>
<g id="a_node9"><a xlink:title=" ">
<polygon fill="none" stroke="#bfbfbf" points="704.42,-168.5 704.42,-187.5 766.42,-187.5 766.42,-168.5 704.42,-168.5"/>
<text text-anchor="middle" x="735.42" y="-175.5" font-family="Helvetica,sans-Serif" font-size="10.00">PathCch.h</text>
</a>
</g>
</g>
<!-- Node2&#45;&gt;Node9 -->
<g id="edge8" class="edge">
<title>Node2&#45;&gt;Node9</title>
<path fill="none" stroke="midnightblue" d="M648.8,-392.44C669.74,-370.26 723.75,-308.21 738.42,-244 741.93,-228.67 740.73,-210.79 738.91,-197.67"/>
<polygon fill="midnightblue" stroke="midnightblue" points="742.33,-196.85 737.26,-187.54 735.42,-197.98 742.33,-196.85"/>
</g>
<!-- Node10 -->
<g id="node10" class="node">
<title>Node10</title>
<g id="a_node10"><a xlink:href="../../d5/d09/_u___helper_8hpp.html" target="_top" xlink:title="Header for U_Helper.cpp.">
<polygon fill="none" stroke="black" points="491.92,-336.5 491.92,-355.5 566.92,-355.5 566.92,-336.5 491.92,-336.5"/>
<text text-anchor="middle" x="529.42" y="-343.5" font-family="Helvetica,sans-Serif" font-size="10.00">U_Helper.hpp</text>
</a>
</g>
</g>
<!-- Node2&#45;&gt;Node10 -->
<g id="edge9" class="edge">
<title>Node2&#45;&gt;Node10</title>
<path fill="none" stroke="midnightblue" d="M622.59,-392.32C604.71,-383.62 576.95,-370.12 556.38,-360.11"/>
<polygon fill="midnightblue" stroke="midnightblue" points="557.74,-356.88 547.21,-355.65 554.68,-363.18 557.74,-356.88"/>
</g>
<!-- Node4 -->
<g id="node4" class="node">
<title>Node4</title>
<g id="a_node4"><a xlink:title=" ">
<polygon fill="none" stroke="#bfbfbf" points="514.92,-0.5 514.92,-19.5 579.92,-19.5 579.92,-0.5 514.92,-0.5"/>
<text text-anchor="middle" x="547.42" y="-7.5" font-family="Helvetica,sans-Serif" font-size="10.00">Windows.h</text>
</a>
</g>
</g>
<!-- Node3&#45;&gt;Node4 -->
<g id="edge3" class="edge">
<title>Node3&#45;&gt;Node4</title>
<path fill="none" stroke="midnightblue" d="M516.53,-56.08C521.71,-48.53 529.27,-37.49 535.62,-28.23"/>
<polygon fill="midnightblue" stroke="midnightblue" points="538.66,-29.98 541.43,-19.75 532.89,-26.02 538.66,-29.98"/>
</g>
<!-- Node5 -->
<g id="node5" class="node">
<title>Node5</title>
<g id="a_node5"><a xlink:title=" ">
<polygon fill="none" stroke="#bfbfbf" points="597.92,-0.5 597.92,-19.5 650.92,-19.5 650.92,-0.5 597.92,-0.5"/>
<text text-anchor="middle" x="624.42" y="-7.5" font-family="Helvetica,sans-Serif" font-size="10.00">fltUser.h</text>
</a>
</g>
</g>
<!-- Node3&#45;&gt;Node5 -->
<g id="edge4" class="edge">
<title>Node3&#45;&gt;Node5</title>
<path fill="none" stroke="midnightblue" d="M528.49,-56.44C547,-47.68 576.01,-33.94 597.28,-23.86"/>
<polygon fill="midnightblue" stroke="midnightblue" points="598.91,-26.96 606.45,-19.52 595.91,-20.63 598.91,-26.96"/>
</g>
<!-- Node6 -->
<g id="node6" class="node">
<title>Node6</title>
<g id="a_node6"><a xlink:title=" ">
<polygon fill="none" stroke="#bfbfbf" points="385.42,-0.5 385.42,-19.5 431.42,-19.5 431.42,-0.5 385.42,-0.5"/>
<text text-anchor="middle" x="408.42" y="-7.5" font-family="Helvetica,sans-Serif" font-size="10.00">stdio.h</text>
</a>
</g>
</g>
<!-- Node3&#45;&gt;Node6 -->
<g id="edge5" class="edge">
<title>Node3&#45;&gt;Node6</title>
<path fill="none" stroke="midnightblue" d="M494.04,-56.32C477.75,-47.7 452.56,-34.36 433.71,-24.39"/>
<polygon fill="midnightblue" stroke="midnightblue" points="435.25,-21.24 424.77,-19.65 431.97,-27.43 435.25,-21.24"/>
</g>
<!-- Node7 -->
<g id="node7" class="node">
<title>Node7</title>
<g id="a_node7"><a xlink:title=" ">
<polygon fill="none" stroke="#bfbfbf" points="449.92,-0.5 449.92,-19.5 496.92,-19.5 496.92,-0.5 449.92,-0.5"/>
<text text-anchor="middle" x="473.42" y="-7.5" font-family="Helvetica,sans-Serif" font-size="10.00">tchar.h</text>
</a>
</g>
</g>
<!-- Node3&#45;&gt;Node7 -->
<g id="edge6" class="edge">
<title>Node3&#45;&gt;Node7</title>
<path fill="none" stroke="midnightblue" d="M504.31,-56.08C499.14,-48.53 491.58,-37.49 485.23,-28.23"/>
<polygon fill="midnightblue" stroke="midnightblue" points="487.96,-26.02 479.42,-19.75 482.19,-29.98 487.96,-26.02"/>
</g>
<!-- Node8 -->
<g id="node8" class="node">
<title>Node8</title>
<g id="a_node8"><a xlink:title=" ">
<polygon fill="none" stroke="#bfbfbf" points="701.42,-0.5 701.42,-19.5 755.42,-19.5 755.42,-0.5 701.42,-0.5"/>
<text text-anchor="middle" x="728.42" y="-7.5" font-family="Helvetica,sans-Serif" font-size="10.00">strsafe.h</text>
</a>
</g>
</g>
<!-- Node3&#45;&gt;Node8 -->
<g id="edge7" class="edge">
<title>Node3&#45;&gt;Node8</title>
<path fill="none" stroke="midnightblue" d="M544.97,-56.44C584.92,-46.55 650.45,-30.32 691.42,-20.17"/>
<polygon fill="midnightblue" stroke="midnightblue" points="692.41,-23.53 701.28,-17.73 690.73,-16.73 692.41,-23.53"/>
</g>
<!-- Node10&#45;&gt;Node3 -->
<g id="edge18" class="edge">
<title>Node10&#45;&gt;Node3</title>
<path fill="none" stroke="midnightblue" d="M562.05,-336.39C605.36,-322.75 676.42,-291.74 676.42,-235 676.42,-235 676.42,-235 676.42,-177 676.42,-121.37 610.84,-92.21 562.12,-78.23"/>
<polygon fill="midnightblue" stroke="midnightblue" points="562.88,-74.81 552.31,-75.55 561.04,-81.56 562.88,-74.81"/>
</g>
<!-- Node10&#45;&gt;Node8 -->
<g id="edge15" class="edge">
<title>Node10&#45;&gt;Node8</title>
<path fill="none" stroke="midnightblue" d="M567.11,-345.79C640.27,-345.15 794.42,-332.26 794.42,-235 794.42,-235 794.42,-235 794.42,-121 794.42,-82.86 764.88,-46.52 745.33,-26.64"/>
<polygon fill="midnightblue" stroke="midnightblue" points="747.76,-24.12 738.16,-19.63 742.86,-29.12 747.76,-24.12"/>
</g>
<!-- Node10&#45;&gt;Node9 -->
<g id="edge11" class="edge">
<title>Node10&#45;&gt;Node9</title>
<path fill="none" stroke="midnightblue" d="M566.96,-343.94C602.92,-340.97 656.57,-331.14 690.42,-300 719.88,-272.91 730.14,-224.73 733.65,-198.07"/>
<polygon fill="midnightblue" stroke="midnightblue" points="737.17,-198.12 734.8,-187.79 730.21,-197.34 737.17,-198.12"/>
</g>
<!-- Node11 -->
<g id="node11" class="node">
<title>Node11</title>
<g id="a_node11"><a xlink:title=" ">
<polygon fill="none" stroke="#bfbfbf" points="171.92,-280.5 171.92,-299.5 230.92,-299.5 230.92,-280.5 171.92,-280.5"/>
<text text-anchor="middle" x="201.42" y="-287.5" font-family="Helvetica,sans-Serif" font-size="10.00">Shlwapi.h</text>
</a>
</g>
</g>
<!-- Node10&#45;&gt;Node11 -->
<g id="edge10" class="edge">
<title>Node10&#45;&gt;Node11</title>
<path fill="none" stroke="midnightblue" d="M491.72,-340.11C438.13,-332.96 336.67,-318.64 241.34,-300.26"/>
<polygon fill="midnightblue" stroke="midnightblue" points="241.73,-296.77 231.25,-298.3 240.39,-303.64 241.73,-296.77"/>
</g>
<!-- Node12 -->
<g id="node12" class="node">
<title>Node12</title>
<g id="a_node12"><a xlink:title=" ">
<polygon fill="none" stroke="#bfbfbf" points="248.92,-280.5 248.92,-299.5 289.92,-299.5 289.92,-280.5 248.92,-280.5"/>
<text text-anchor="middle" x="269.42" y="-287.5" font-family="Helvetica,sans-Serif" font-size="10.00">string</text>
</a>
</g>
</g>
<!-- Node10&#45;&gt;Node12 -->
<g id="edge12" class="edge">
<title>Node10&#45;&gt;Node12</title>
<path fill="none" stroke="midnightblue" d="M491.73,-338.8C447.93,-331.33 373.33,-317.82 299.89,-299.91"/>
<polygon fill="midnightblue" stroke="midnightblue" points="300.56,-296.46 290.01,-297.47 298.88,-303.26 300.56,-296.46"/>
</g>
<!-- Node13 -->
<g id="node13" class="node">
<title>Node13</title>
<g id="a_node13"><a xlink:title=" ">
<polygon fill="none" stroke="#bfbfbf" points="308.42,-280.5 308.42,-299.5 362.42,-299.5 362.42,-280.5 308.42,-280.5"/>
<text text-anchor="middle" x="335.42" y="-287.5" font-family="Helvetica,sans-Serif" font-size="10.00">iostream</text>
</a>
</g>
</g>
<!-- Node10&#45;&gt;Node13 -->
<g id="edge13" class="edge">
<title>Node10&#45;&gt;Node13</title>
<path fill="none" stroke="midnightblue" d="M498.68,-336.44C464.41,-326.9 408.98,-311.47 372.37,-301.28"/>
<polygon fill="midnightblue" stroke="midnightblue" points="373.15,-297.87 362.58,-298.56 371.27,-304.61 373.15,-297.87"/>
</g>
<!-- Node14 -->
<g id="node14" class="node">
<title>Node14</title>
<g id="a_node14"><a xlink:title=" ">
<polygon fill="none" stroke="#bfbfbf" points="380.42,-280.5 380.42,-299.5 442.42,-299.5 442.42,-280.5 380.42,-280.5"/>
<text text-anchor="middle" x="411.42" y="-287.5" font-family="Helvetica,sans-Serif" font-size="10.00">TlHelp32.h</text>
</a>
</g>
</g>
<!-- Node10&#45;&gt;Node14 -->
<g id="edge14" class="edge">
<title>Node10&#45;&gt;Node14</title>
<path fill="none" stroke="midnightblue" d="M510.73,-336.44C491.48,-327.64 461.27,-313.81 439.22,-303.72"/>
<polygon fill="midnightblue" stroke="midnightblue" points="440.58,-300.5 430.03,-299.52 437.67,-306.86 440.58,-300.5"/>
</g>
<!-- Node15 -->
<g id="node15" class="node">
<title>Node15</title>
<g id="a_node15"><a xlink:title=" ">
<polygon fill="none" stroke="#bfbfbf" points="460.42,-280.5 460.42,-299.5 492.42,-299.5 492.42,-280.5 460.42,-280.5"/>
<text text-anchor="middle" x="476.42" y="-287.5" font-family="Helvetica,sans-Serif" font-size="10.00">io.h</text>
</a>
</g>
</g>
<!-- Node10&#45;&gt;Node15 -->
<g id="edge16" class="edge">
<title>Node10&#45;&gt;Node15</title>
<path fill="none" stroke="midnightblue" d="M520.67,-336.08C512.95,-328.22 501.52,-316.57 492.21,-307.08"/>
<polygon fill="midnightblue" stroke="midnightblue" points="494.52,-304.44 485.01,-299.75 489.52,-309.34 494.52,-304.44"/>
</g>
<!-- Node16 -->
<g id="node16" class="node">
<title>Node16</title>
<g id="a_node16"><a xlink:title=" ">
<polygon fill="none" stroke="#bfbfbf" points="566.92,-280.5 566.92,-299.5 609.92,-299.5 609.92,-280.5 566.92,-280.5"/>
<text text-anchor="middle" x="588.42" y="-287.5" font-family="Helvetica,sans-Serif" font-size="10.00">fcntl.h</text>
</a>
</g>
</g>
<!-- Node10&#45;&gt;Node16 -->
<g id="edge17" class="edge">
<title>Node10&#45;&gt;Node16</title>
<path fill="none" stroke="midnightblue" d="M538.9,-336.32C547.63,-328.34 560.77,-316.31 571.32,-306.65"/>
<polygon fill="midnightblue" stroke="midnightblue" points="573.76,-309.17 578.77,-299.83 569.03,-304 573.76,-309.17"/>
</g>
<!-- Node17 -->
<g id="node17" class="node">
<title>Node17</title>
<g id="a_node17"><a xlink:href="../../d3/d40/_u___logs_8hpp.html" target="_top" xlink:title="Header for U_Logs.cpp.">
<polygon fill="none" stroke="black" points="410.42,-168.5 410.42,-187.5 478.42,-187.5 478.42,-168.5 410.42,-168.5"/>
<text text-anchor="middle" x="444.42" y="-175.5" font-family="Helvetica,sans-Serif" font-size="10.00">U_Logs.hpp</text>
</a>
</g>
</g>
<!-- Node10&#45;&gt;Node17 -->
<g id="edge19" class="edge">
<title>Node10&#45;&gt;Node17</title>
<path fill="none" stroke="midnightblue" d="M520.21,-336.45C512.1,-323.9 502.25,-299.82 492.42,-280 477.72,-250.34 458.38,-217.11 448.82,-197.13"/>
<polygon fill="midnightblue" stroke="midnightblue" points="451.93,-195.49 444.7,-187.74 445.52,-198.31 451.93,-195.49"/>
</g>
<!-- Node19 -->
<g id="node19" class="node">
<title>Node19</title>
<g id="a_node19"><a xlink:href="../../d2/de1/_u___service_8hpp.html" target="_top" xlink:title="Header for U_Service.cpp.">
<polygon fill="none" stroke="black" points="74.92,-280.5 74.92,-299.5 153.92,-299.5 153.92,-280.5 74.92,-280.5"/>
<text text-anchor="middle" x="114.42" y="-287.5" font-family="Helvetica,sans-Serif" font-size="10.00">U_Service.hpp</text>
</a>
</g>
</g>
<!-- Node10&#45;&gt;Node19 -->
<g id="edge24" class="edge">
<title>Node10&#45;&gt;Node19</title>
<path fill="none" stroke="midnightblue" d="M491.84,-341.71C425.59,-335.25 284.2,-319.9 160.4,-301.06"/>
<polygon fill="midnightblue" stroke="midnightblue" points="160.79,-297.58 150.38,-299.52 159.73,-304.5 160.79,-297.58"/>
</g>
<!-- Node17&#45;&gt;Node3 -->
<g id="edge20" class="edge">
<title>Node17&#45;&gt;Node3</title>
<path fill="none" stroke="midnightblue" d="M444.94,-168.39C446.05,-155.34 449.56,-130.15 460.42,-112 467.55,-100.1 478.82,-89.56 488.86,-81.68"/>
<polygon fill="midnightblue" stroke="midnightblue" points="490.95,-84.48 496.89,-75.71 486.78,-78.87 490.95,-84.48"/>
</g>
<!-- Node17&#45;&gt;Node10 -->
<g id="edge23" class="edge">
<title>Node17&#45;&gt;Node10</title>
<path fill="none" stroke="midnightblue" d="M454.87,-187.74C469.29,-205.05 493.07,-245 510.42,-280 518.02,-295.33 525.64,-313.21 529.56,-326.33"/>
<polygon fill="midnightblue" stroke="midnightblue" points="526.24,-327.53 531.96,-336.45 533.06,-325.92 526.24,-327.53"/>
</g>
<!-- Node18 -->
<g id="node18" class="node">
<title>Node18</title>
<g id="a_node18"><a xlink:href="../../d5/de2/_u___registry_8hpp.html" target="_top" xlink:title="Header for U_Registry.cpp.">
<polygon fill="none" stroke="black" points="468.92,-112.5 468.92,-131.5 551.92,-131.5 551.92,-112.5 468.92,-112.5"/>
<text text-anchor="middle" x="510.42" y="-119.5" font-family="Helvetica,sans-Serif" font-size="10.00">U_Registry.hpp</text>
</a>
</g>
</g>
<!-- Node17&#45;&gt;Node18 -->
<g id="edge21" class="edge">
<title>Node17&#45;&gt;Node18</title>
<path fill="none" stroke="midnightblue" d="M455.03,-168.32C464.88,-160.26 479.78,-148.08 491.64,-138.37"/>
<polygon fill="midnightblue" stroke="midnightblue" points="494.1,-140.88 499.63,-131.83 489.67,-135.46 494.1,-140.88"/>
</g>
<!-- Node18&#45;&gt;Node3 -->
<g id="edge22" class="edge">
<title>Node18&#45;&gt;Node3</title>
<path fill="none" stroke="midnightblue" d="M510.42,-112.08C510.42,-105.01 510.42,-94.86 510.42,-85.99"/>
<polygon fill="midnightblue" stroke="midnightblue" points="513.92,-85.75 510.42,-75.75 506.92,-85.75 513.92,-85.75"/>
</g>
<!-- Node19&#45;&gt;Node2 -->
<g id="edge34" class="edge">
<title>Node19&#45;&gt;Node2</title>
<path fill="none" stroke="midnightblue" d="M154.16,-299.31C248.36,-319.01 485.18,-368.53 589.61,-390.37"/>
<polygon fill="midnightblue" stroke="midnightblue" points="589.08,-393.84 599.59,-392.46 590.52,-386.99 589.08,-393.84"/>
</g>
<!-- Node19&#45;&gt;Node3 -->
<g id="edge25" class="edge">
<title>Node19&#45;&gt;Node3</title>
<path fill="none" stroke="midnightblue" d="M102.58,-280.36C66.45,-253.03 -36.77,-167.05 14.42,-112 43.31,-80.94 319.35,-71.05 446.67,-68.13"/>
<polygon fill="midnightblue" stroke="midnightblue" points="447.12,-71.62 457.04,-67.9 446.97,-64.63 447.12,-71.62"/>
</g>
<!-- Node19&#45;&gt;Node10 -->
<g id="edge36" class="edge">
<title>Node19&#45;&gt;Node10</title>
<path fill="none" stroke="midnightblue" d="M153.94,-297.05C159.85,-298.1 165.81,-299.13 171.42,-300 282.3,-317.17 412.84,-331.87 481.65,-339.47"/>
<polygon fill="midnightblue" stroke="midnightblue" points="481.43,-342.97 491.75,-340.58 482.2,-336.01 481.43,-342.97"/>
</g>
<!-- Node19&#45;&gt;Node17 -->
<g id="edge35" class="edge">
<title>Node19&#45;&gt;Node17</title>
<path fill="none" stroke="midnightblue" d="M140.04,-280.46C198.53,-260.97 341.95,-213.16 408.91,-190.84"/>
<polygon fill="midnightblue" stroke="midnightblue" points="410.21,-194.09 418.59,-187.61 408,-187.45 410.21,-194.09"/>
</g>
<!-- Node20 -->
<g id="node20" class="node">
<title>Node20</title>
<g id="a_node20"><a xlink:href="../../d6/de0/_u___configuration_8hpp.html" target="_top" xlink:title="Header for U_Configuration.cpp.">
<polygon fill="none" stroke="black" points="544.42,-224.5 544.42,-243.5 648.42,-243.5 648.42,-224.5 544.42,-224.5"/>
<text text-anchor="middle" x="596.42" y="-231.5" font-family="Helvetica,sans-Serif" font-size="10.00">U_Configuration.hpp</text>
</a>
</g>
</g>
<!-- Node19&#45;&gt;Node20 -->
<g id="edge26" class="edge">
<title>Node19&#45;&gt;Node20</title>
<path fill="none" stroke="midnightblue" d="M150.12,-280.5C151.23,-280.32 152.33,-280.16 153.42,-280 288.31,-260.4 447.99,-246.12 534.1,-239.37"/>
<polygon fill="midnightblue" stroke="midnightblue" points="534.53,-242.84 544.23,-238.58 533.99,-235.86 534.53,-242.84"/>
</g>
<!-- Node22 -->
<g id="node22" class="node">
<title>Node22</title>
<g id="a_node22"><a xlink:href="../../d9/dc9/_u___communication_8hpp.html" target="_top" xlink:title="Header for U_Communication.cpp.">
<polygon fill="none" stroke="black" points="85.92,-224.5 85.92,-243.5 200.92,-243.5 200.92,-224.5 85.92,-224.5"/>
<text text-anchor="middle" x="143.42" y="-231.5" font-family="Helvetica,sans-Serif" font-size="10.00">U_Communication.hpp</text>
</a>
</g>
</g>
<!-- Node19&#45;&gt;Node22 -->
<g id="edge37" class="edge">
<title>Node19&#45;&gt;Node22</title>
<path fill="none" stroke="midnightblue" d="M114.05,-280.08C116.51,-272.53 122.05,-261.49 127.83,-252.23"/>
<polygon fill="midnightblue" stroke="midnightblue" points="130.87,-253.99 133.59,-243.75 125.08,-250.05 130.87,-253.99"/>
</g>
<!-- Node20&#45;&gt;Node3 -->
<g id="edge27" class="edge">
<title>Node20&#45;&gt;Node3</title>
<path fill="none" stroke="midnightblue" d="M603.53,-224.46C613.05,-211.91 627.84,-187.83 619.42,-168 602.65,-128.49 561.64,-97.67 534.98,-80.94"/>
<polygon fill="midnightblue" stroke="midnightblue" points="536.58,-77.81 526.21,-75.62 532.94,-83.8 536.58,-77.81"/>
</g>
<!-- Node20&#45;&gt;Node9 -->
<g id="edge28" class="edge">
<title>Node20&#45;&gt;Node9</title>
<path fill="none" stroke="midnightblue" d="M618.45,-224.44C641.53,-215.48 677.99,-201.31 704.07,-191.18"/>
<polygon fill="midnightblue" stroke="midnightblue" points="705.45,-194.4 713.5,-187.52 702.91,-187.88 705.45,-194.4"/>
</g>
<!-- Node20&#45;&gt;Node10 -->
<g id="edge33" class="edge">
<title>Node20&#45;&gt;Node10</title>
<path fill="none" stroke="midnightblue" d="M603.95,-243.51C614.42,-256.43 630.88,-281.47 619.42,-300 609.75,-315.65 592.8,-326.04 576.2,-332.85"/>
<polygon fill="midnightblue" stroke="midnightblue" points="574.67,-329.68 566.53,-336.46 577.12,-336.24 574.67,-329.68"/>
</g>
<!-- Node20&#45;&gt;Node17 -->
<g id="edge32" class="edge">
<title>Node20&#45;&gt;Node17</title>
<path fill="none" stroke="midnightblue" d="M572.34,-224.44C546.88,-215.4 506.53,-201.06 477.97,-190.92"/>
<polygon fill="midnightblue" stroke="midnightblue" points="478.99,-187.57 468.4,-187.52 476.65,-194.16 478.99,-187.57"/>
</g>
<!-- Node20&#45;&gt;Node18 -->
<g id="edge30" class="edge">
<title>Node20&#45;&gt;Node18</title>
<path fill="none" stroke="midnightblue" d="M574.19,-224.39C558.23,-217.07 537.49,-205.03 525.42,-188 515.91,-174.56 512.33,-156 511.04,-142.15"/>
<polygon fill="midnightblue" stroke="midnightblue" points="514.51,-141.61 510.41,-131.84 507.52,-142.04 514.51,-141.61"/>
</g>
<!-- Node20&#45;&gt;Node19 -->
<g id="edge31" class="edge">
<title>Node20&#45;&gt;Node19</title>
<path fill="none" stroke="midnightblue" d="M544.26,-239.5C463.89,-246.31 305.42,-260.52 171.42,-280 168.96,-280.36 166.44,-280.75 163.88,-281.17"/>
<polygon fill="midnightblue" stroke="midnightblue" points="163.2,-277.73 153.93,-282.86 164.37,-284.63 163.2,-277.73"/>
</g>
<!-- Node21 -->
<g id="node21" class="node">
<title>Node21</title>
<g id="a_node21"><a xlink:title=" ">
<polygon fill="none" stroke="#bfbfbf" points="534.42,-168.5 534.42,-187.5 610.42,-187.5 610.42,-168.5 534.42,-168.5"/>
<text text-anchor="middle" x="572.42" y="-175.5" font-family="Helvetica,sans-Serif" font-size="10.00">Shlobj_core.h</text>
</a>
</g>
</g>
<!-- Node20&#45;&gt;Node21 -->
<g id="edge29" class="edge">
<title>Node20&#45;&gt;Node21</title>
<path fill="none" stroke="midnightblue" d="M592.46,-224.08C589.21,-216.77 584.5,-206.18 580.47,-197.1"/>
<polygon fill="midnightblue" stroke="midnightblue" points="583.57,-195.47 576.31,-187.75 577.18,-198.31 583.57,-195.47"/>
</g>
<!-- Node22&#45;&gt;Node3 -->
<g id="edge38" class="edge">
<title>Node22&#45;&gt;Node3</title>
<path fill="none" stroke="midnightblue" d="M201.3,-229.55C247.34,-224.88 312.29,-213.88 363.42,-188 408.34,-165.26 408.21,-143.57 447.42,-112 460.9,-101.15 476.76,-89.83 489.19,-81.26"/>
<polygon fill="midnightblue" stroke="midnightblue" points="491.27,-84.08 497.56,-75.55 487.33,-78.3 491.27,-84.08"/>
</g>
<!-- Node22&#45;&gt;Node17 -->
<g id="edge40" class="edge">
<title>Node22&#45;&gt;Node17</title>
<path fill="none" stroke="midnightblue" d="M192.42,-224.42C243.41,-215.47 325.55,-200.95 396.42,-188 397.69,-187.77 398.98,-187.53 400.27,-187.29"/>
<polygon fill="midnightblue" stroke="midnightblue" points="401.15,-190.69 410.34,-185.43 399.87,-183.81 401.15,-190.69"/>
</g>
<!-- Node22&#45;&gt;Node19 -->
<g id="edge39" class="edge">
<title>Node22&#45;&gt;Node19</title>
<path fill="none" stroke="midnightblue" d="M143.86,-243.75C141.44,-251.25 135.93,-262.27 130.15,-271.57"/>
<polygon fill="midnightblue" stroke="midnightblue" points="127.09,-269.84 124.38,-280.08 132.88,-273.76 127.09,-269.84"/>
</g>
<!-- Node23 -->
<g id="node23" class="node">
<title>Node23</title>
<g id="a_node23"><a xlink:href="../../d3/da7/_shared_defs_8hpp.html" target="_top" xlink:title="Header file which contains the structures, type definitions, constants, global variablesand function ...">
<polygon fill="none" stroke="black" points="206.42,-168.5 206.42,-187.5 354.42,-187.5 354.42,-168.5 206.42,-168.5"/>
<text text-anchor="middle" x="280.42" y="-175.5" font-family="Helvetica,sans-Serif" font-size="10.00">../SharedDefs/SharedDefs.hpp</text>
</a>
</g>
</g>
<!-- Node22&#45;&gt;Node23 -->
<g id="edge41" class="edge">
<title>Node22&#45;&gt;Node23</title>
<path fill="none" stroke="midnightblue" d="M165.13,-224.44C187.78,-215.52 223.5,-201.44 249.18,-191.32"/>
<polygon fill="midnightblue" stroke="midnightblue" points="250.8,-194.44 258.82,-187.52 248.23,-187.93 250.8,-194.44"/>
</g>
<!-- Node24 -->
<g id="node24" class="node">
<title>Node24</title>
<g id="a_node24"><a xlink:href="../../da/d14/_u___signature_8hpp.html" target="_top" xlink:title="Header for U_Signature.cpp.">
<polygon fill="none" stroke="black" points="98.92,-168.5 98.92,-187.5 187.92,-187.5 187.92,-168.5 98.92,-168.5"/>
<text text-anchor="middle" x="143.42" y="-175.5" font-family="Helvetica,sans-Serif" font-size="10.00">U_Signature.hpp</text>
</a>
</g>
</g>
<!-- Node22&#45;&gt;Node24 -->
<g id="edge42" class="edge">
<title>Node22&#45;&gt;Node24</title>
<path fill="none" stroke="midnightblue" d="M143.42,-224.08C143.42,-217.01 143.42,-206.86 143.42,-197.99"/>
<polygon fill="midnightblue" stroke="midnightblue" points="146.92,-197.75 143.42,-187.75 139.92,-197.75 146.92,-197.75"/>
</g>
<!-- Node29 -->
<g id="node29" class="node">
<title>Node29</title>
<g id="a_node29"><a xlink:title=" ">
<polygon fill="none" stroke="#bfbfbf" points="22.42,-168.5 22.42,-187.5 80.42,-187.5 80.42,-168.5 22.42,-168.5"/>
<text text-anchor="middle" x="51.42" y="-175.5" font-family="Helvetica,sans-Serif" font-size="10.00">winternl.h</text>
</a>
</g>
</g>
<!-- Node22&#45;&gt;Node29 -->
<g id="edge48" class="edge">
<title>Node22&#45;&gt;Node29</title>
<path fill="none" stroke="midnightblue" d="M128.64,-224.32C114.16,-215.82 91.85,-202.73 74.93,-192.8"/>
<polygon fill="midnightblue" stroke="midnightblue" points="76.56,-189.7 66.17,-187.65 73.02,-195.74 76.56,-189.7"/>
</g>
<!-- Node24&#45;&gt;Node3 -->
<g id="edge43" class="edge">
<title>Node24&#45;&gt;Node3</title>
<path fill="none" stroke="midnightblue" d="M187.23,-168.46C224.3,-160.68 278.56,-147.98 324.42,-132 344.71,-124.93 348.37,-119.7 368.42,-112 402.22,-99.02 441.52,-86.78 470.19,-78.35"/>
<polygon fill="midnightblue" stroke="midnightblue" points="471.24,-81.69 479.87,-75.53 469.29,-74.97 471.24,-81.69"/>
</g>
<!-- Node25 -->
<g id="node25" class="node">
<title>Node25</title>
<g id="a_node25"><a xlink:title=" ">
<polygon fill="none" stroke="#bfbfbf" points="23.92,-112.5 23.92,-131.5 84.92,-131.5 84.92,-112.5 23.92,-112.5"/>
<text text-anchor="middle" x="54.42" y="-119.5" font-family="Helvetica,sans-Serif" font-size="10.00">wincrypt.h</text>
</a>
</g>
</g>
<!-- Node24&#45;&gt;Node25 -->
<g id="edge44" class="edge">
<title>Node24&#45;&gt;Node25</title>
<path fill="none" stroke="midnightblue" d="M129.12,-168.32C115.24,-159.9 93.93,-146.97 77.62,-137.07"/>
<polygon fill="midnightblue" stroke="midnightblue" points="79.05,-133.85 68.69,-131.65 75.42,-139.83 79.05,-133.85"/>
</g>
<!-- Node26 -->
<g id="node26" class="node">
<title>Node26</title>
<g id="a_node26"><a xlink:title=" ">
<polygon fill="none" stroke="#bfbfbf" points="103.42,-112.5 103.42,-131.5 167.42,-131.5 167.42,-112.5 103.42,-112.5"/>
<text text-anchor="middle" x="135.42" y="-119.5" font-family="Helvetica,sans-Serif" font-size="10.00">WinTrust.h</text>
</a>
</g>
</g>
<!-- Node24&#45;&gt;Node26 -->
<g id="edge45" class="edge">
<title>Node24&#45;&gt;Node26</title>
<path fill="none" stroke="midnightblue" d="M142.1,-168.08C141.04,-160.93 139.52,-150.64 138.19,-141.69"/>
<polygon fill="midnightblue" stroke="midnightblue" points="141.65,-141.13 136.72,-131.75 134.72,-142.16 141.65,-141.13"/>
</g>
<!-- Node27 -->
<g id="node27" class="node">
<title>Node27</title>
<g id="a_node27"><a xlink:title=" ">
<polygon fill="none" stroke="#bfbfbf" points="185.92,-112.5 185.92,-131.5 244.92,-131.5 244.92,-112.5 185.92,-112.5"/>
<text text-anchor="middle" x="215.42" y="-119.5" font-family="Helvetica,sans-Serif" font-size="10.00">SoftPub.h</text>
</a>
</g>
</g>
<!-- Node24&#45;&gt;Node27 -->
<g id="edge46" class="edge">
<title>Node24&#45;&gt;Node27</title>
<path fill="none" stroke="midnightblue" d="M154.99,-168.32C165.84,-160.18 182.31,-147.84 195.31,-138.09"/>
<polygon fill="midnightblue" stroke="midnightblue" points="197.75,-140.63 203.65,-131.83 193.55,-135.03 197.75,-140.63"/>
</g>
<!-- Node28 -->
<g id="node28" class="node">
<title>Node28</title>
<g id="a_node28"><a xlink:title=" ">
<polygon fill="none" stroke="#bfbfbf" points="263.42,-112.5 263.42,-131.5 315.42,-131.5 315.42,-112.5 263.42,-112.5"/>
<text text-anchor="middle" x="289.42" y="-119.5" font-family="Helvetica,sans-Serif" font-size="10.00">mscat.h</text>
</a>
</g>
</g>
<!-- Node24&#45;&gt;Node28 -->
<g id="edge47" class="edge">
<title>Node24&#45;&gt;Node28</title>
<path fill="none" stroke="midnightblue" d="M166.56,-168.44C190.91,-159.44 229.43,-145.19 256.85,-135.05"/>
<polygon fill="midnightblue" stroke="midnightblue" points="258.23,-138.27 266.4,-131.52 255.81,-131.7 258.23,-138.27"/>
</g>
</g>
</svg>
