<?xml version="1.0" encoding="UTF-8" standalone="no"?>
<!DOCTYPE svg PUBLIC "-//W3C//DTD SVG 1.1//EN"
 "http://www.w3.org/Graphics/SVG/1.1/DTD/svg11.dtd">
<!-- Generated by graphviz version 5.0.0 (20220707.1540)
 -->
<!-- Title: K_CACHE::_CACHELIST Pages: 1 -->
<svg width="237pt" height="287pt"
 viewBox="0.00 0.00 237.00 287.00" xmlns="http://www.w3.org/2000/svg" xmlns:xlink="http://www.w3.org/1999/xlink">
<g id="graph0" class="graph" transform="scale(1 1) rotate(0) translate(4 283)">
<title>K_CACHE::_CACHELIST</title>
<!-- Node1 -->
<g id="node1" class="node">
<title>Node1</title>
<g id="a_node1"><a xlink:title=" ">
<polygon fill="#bfbfbf" stroke="black" points="8.5,-0.5 8.5,-57.5 135.5,-57.5 135.5,-0.5 8.5,-0.5"/>
<text text-anchor="middle" x="72" y="-45.5" font-family="Helvetica,sans-Serif" font-size="10.00">K_CACHE::_CACHELIST</text>
<polyline fill="none" stroke="black" points="8.5,-38.5 135.5,-38.5 "/>
<text text-anchor="middle" x="72" y="-26.5" font-family="Helvetica,sans-Serif" font-size="10.00"> </text>
<polyline fill="none" stroke="black" points="8.5,-19.5 135.5,-19.5 "/>
<text text-anchor="middle" x="72" y="-7.5" font-family="Helvetica,sans-Serif" font-size="10.00"> </text>
</a>
</g>
</g>
<!-- Node2 -->
<g id="node2" class="node">
<title>Node2</title>
<g id="a_node2"><a xlink:title=" ">
<polygon fill="none" stroke="black" points="0,-116.5 0,-173.5 54,-173.5 54,-116.5 0,-116.5"/>
<text text-anchor="middle" x="27" y="-161.5" font-family="Helvetica,sans-Serif" font-size="10.00">DWORD</text>
<polyline fill="none" stroke="black" points="0,-154.5 54,-154.5 "/>
<text text-anchor="middle" x="27" y="-142.5" font-family="Helvetica,sans-Serif" font-size="10.00"> </text>
<polyline fill="none" stroke="black" points="0,-135.5 54,-135.5 "/>
<text text-anchor="middle" x="27" y="-123.5" font-family="Helvetica,sans-Serif" font-size="10.00"> </text>
</a>
</g>
</g>
<!-- Node2&#45;&gt;Node1 -->
<g id="edge1" class="edge">
<title>Node2&#45;&gt;Node1</title>
<path fill="none" stroke="#404040" d="M24.56,-116.27C24.45,-103.56 25.79,-88.56 31,-76 32.18,-73.15 33.62,-70.35 35.24,-67.64"/>
<polygon fill="none" stroke="#404040" points="35.37,-67.46 35.53,-60.25 42.24,-57.63 42.08,-64.84 35.37,-67.46"/>
<text text-anchor="middle" x="64.5" y="-90" font-family="Helvetica,sans-Serif" font-size="10.00"> +dwLength</text>
<text text-anchor="middle" x="64.5" y="-79" font-family="Helvetica,sans-Serif" font-size="10.00">+dwMaxLength</text>
</g>
<!-- Node3 -->
<g id="node3" class="node">
<title>Node3</title>
<g id="a_node3"><a xlink:href="../../d3/da5/struct_k___c_a_c_h_e_1_1___h_a_s_h.html" target="_top" xlink:title=" ">
<polygon fill="none" stroke="black" points="72.5,-116.5 72.5,-173.5 173.5,-173.5 173.5,-116.5 72.5,-116.5"/>
<text text-anchor="middle" x="123" y="-161.5" font-family="Helvetica,sans-Serif" font-size="10.00">K_CACHE::_HASH</text>
<polyline fill="none" stroke="black" points="72.5,-154.5 173.5,-154.5 "/>
<text text-anchor="middle" x="123" y="-142.5" font-family="Helvetica,sans-Serif" font-size="10.00"> </text>
<polyline fill="none" stroke="black" points="72.5,-135.5 173.5,-135.5 "/>
<text text-anchor="middle" x="123" y="-123.5" font-family="Helvetica,sans-Serif" font-size="10.00"> </text>
</a>
</g>
</g>
<!-- Node3&#45;&gt;Node1 -->
<g id="edge2" class="edge">
<title>Node3&#45;&gt;Node1</title>
<path fill="none" stroke="#404040" d="M114.02,-116.46C109.64,-103.92 104.02,-89.01 98,-76 96.87,-73.56 95.66,-71.09 94.41,-68.6"/>
<polygon fill="none" stroke="#404040" points="94.32,-68.44 87.97,-65.02 88.69,-57.84 95.04,-61.26 94.32,-68.44"/>
<text text-anchor="middle" x="126" y="-84.5" font-family="Helvetica,sans-Serif" font-size="10.00"> +pBuffer</text>
</g>
<!-- Node4 -->
<g id="node4" class="node">
<title>Node4</title>
<g id="a_node4"><a xlink:title=" ">
<polygon fill="none" stroke="black" points="31,-221.5 31,-278.5 81,-278.5 81,-221.5 31,-221.5"/>
<text text-anchor="middle" x="56" y="-266.5" font-family="Helvetica,sans-Serif" font-size="10.00">ULONG</text>
<polyline fill="none" stroke="black" points="31,-259.5 81,-259.5 "/>
<text text-anchor="middle" x="56" y="-247.5" font-family="Helvetica,sans-Serif" font-size="10.00"> </text>
<polyline fill="none" stroke="black" points="31,-240.5 81,-240.5 "/>
<text text-anchor="middle" x="56" y="-228.5" font-family="Helvetica,sans-Serif" font-size="10.00"> </text>
</a>
</g>
</g>
<!-- Node4&#45;&gt;Node3 -->
<g id="edge3" class="edge">
<title>Node4&#45;&gt;Node3</title>
<path fill="none" stroke="#404040" d="M64.76,-221.28C68.44,-211.62 73.21,-200.96 79,-192 81,-188.9 83.23,-185.82 85.6,-182.82"/>
<polygon fill="none" stroke="#404040" points="85.72,-182.67 86.56,-175.51 93.49,-173.52 92.65,-180.68 85.72,-182.67"/>
<text text-anchor="middle" x="99" y="-195" font-family="Helvetica,sans-Serif" font-size="10.00"> +ulHash</text>
</g>
<!-- Node5 -->
<g id="node5" class="node">
<title>Node5</title>
<g id="a_node5"><a xlink:title=" ">
<polygon fill="none" stroke="black" points="99.5,-221.5 99.5,-278.5 146.5,-278.5 146.5,-221.5 99.5,-221.5"/>
<text text-anchor="middle" x="123" y="-266.5" font-family="Helvetica,sans-Serif" font-size="10.00">PVOID</text>
<polyline fill="none" stroke="black" points="99.5,-259.5 146.5,-259.5 "/>
<text text-anchor="middle" x="123" y="-247.5" font-family="Helvetica,sans-Serif" font-size="10.00"> </text>
<polyline fill="none" stroke="black" points="99.5,-240.5 146.5,-240.5 "/>
<text text-anchor="middle" x="123" y="-228.5" font-family="Helvetica,sans-Serif" font-size="10.00"> </text>
</a>
</g>
</g>
<!-- Node5&#45;&gt;Node3 -->
<g id="edge4" class="edge">
<title>Node5&#45;&gt;Node3</title>
<path fill="none" stroke="#404040" d="M123,-221.4C123,-210.55 123,-197.87 123,-186.05"/>
<polygon fill="none" stroke="#404040" points="123,-185.68 119,-179.68 123,-173.68 127,-179.68 123,-185.68"/>
<text text-anchor="middle" x="141.5" y="-195" font-family="Helvetica,sans-Serif" font-size="10.00"> +pHash</text>
</g>
<!-- Node6 -->
<g id="node6" class="node">
<title>Node6</title>
<g id="a_node6"><a xlink:title=" ">
<polygon fill="none" stroke="black" points="165,-221.5 165,-278.5 229,-278.5 229,-221.5 165,-221.5"/>
<text text-anchor="middle" x="197" y="-266.5" font-family="Helvetica,sans-Serif" font-size="10.00">BOOLEAN</text>
<polyline fill="none" stroke="black" points="165,-259.5 229,-259.5 "/>
<text text-anchor="middle" x="197" y="-247.5" font-family="Helvetica,sans-Serif" font-size="10.00"> </text>
<polyline fill="none" stroke="black" points="165,-240.5 229,-240.5 "/>
<text text-anchor="middle" x="197" y="-228.5" font-family="Helvetica,sans-Serif" font-size="10.00"> </text>
</a>
</g>
</g>
<!-- Node6&#45;&gt;Node3 -->
<g id="edge5" class="edge">
<title>Node6&#45;&gt;Node3</title>
<path fill="none" stroke="#404040" d="M182.48,-221.33C177.07,-211.77 170.64,-201.17 164,-192 161.87,-189.06 159.59,-186.09 157.23,-183.16"/>
<polygon fill="none" stroke="#404040" points="157.23,-183.16 150.31,-181.12 149.53,-173.96 156.45,-175.99 157.23,-183.16"/>
<text text-anchor="middle" x="188.5" y="-195" font-family="Helvetica,sans-Serif" font-size="10.00"> +bIsOk</text>
</g>
</g>
</svg>
