<?xml version="1.0" encoding="UTF-8" standalone="no"?>
<!DOCTYPE svg PUBLIC "-//W3C//DTD SVG 1.1//EN"
 "http://www.w3.org/Graphics/SVG/1.1/DTD/svg11.dtd">
<!-- Generated by graphviz version 5.0.0 (20220707.1540)
 -->
<!-- Title: U_GlobalHeader.hpp Pages: 1 -->
<!--zoomable 420 -->
<svg id="main" version="1.1" xmlns="http://www.w3.org/2000/svg" xmlns:xlink="http://www.w3.org/1999/xlink" xml:space="preserve" onload="init(evt)">
<style type="text/css"><![CDATA[
.edge:hover path { stroke: red; }
.edge:hover polygon { stroke: red; fill: red; }
]]></style>
<script type="text/javascript"><![CDATA[
var edges = document.getElementsByTagName('g');
if (edges && edges.length) {
  for (var i=0;i<edges.length;i++) {
    if (edges[i].id.substr(0,4)=='edge') {
      edges[i].setAttribute('class','edge');
    }
  }
}
]]></script>
        <defs>
                <circle id="rim" cx="0" cy="0" r="7"/>
                <circle id="rim2" cx="0" cy="0" r="3.5"/>
                <g id="zoomPlus">
                        <use xlink:href="#rim" fill="#404040">
                                <set attributeName="fill" to="#808080" begin="zoomplus.mouseover" end="zoomplus.mouseout"/>
                        </use>
                        <path d="M-4,0h8M0,-4v8" fill="none" stroke="white" stroke-width="1.5" pointer-events="none"/>
                </g>
                <g id="zoomMin">
                        <use xlink:href="#rim" fill="#404040">
                                <set attributeName="fill" to="#808080" begin="zoomminus.mouseover" end="zoomminus.mouseout"/>
                        </use>
                        <path d="M-4,0h8" fill="none" stroke="white" stroke-width="1.5" pointer-events="none"/>
                </g>
                <g id="dirArrow">
                        <path fill="none" stroke="white" stroke-width="1.5" d="M0,-3.0v7 M-2.5,-0.5L0,-3.0L2.5,-0.5"/>
                </g>
               <g id="resetDef">
                       <use xlink:href="#rim2" fill="#404040">
                               <set attributeName="fill" to="#808080" begin="reset.mouseover" end="reset.mouseout"/>
                       </use>
               </g>
        </defs>

<script type="text/javascript">
var viewWidth = 640;
var viewHeight = 420;
var sectionId = 'dynsection-1';
</script>
<script xlink:href="../../svgpan.js"/>
<svg id="graph" class="graph">
<g id="viewport">
<title>U_GlobalHeader.hpp</title>
<!-- Node1 -->
<g id="node1" class="node">
<title>Node1</title>
<g id="a_node1"><a xlink:title="Header used by several .hpp files.">
<polygon fill="#bfbfbf" stroke="black" points="334.5,-392.5 334.5,-411.5 440.5,-411.5 440.5,-392.5 334.5,-392.5"/>
<text text-anchor="middle" x="387.5" y="-399.5" font-family="Helvetica,sans-Serif" font-size="10.00">U_GlobalHeader.hpp</text>
</a>
</g>
</g>
<!-- Node2 -->
<g id="node2" class="node">
<title>Node2</title>
<g id="a_node2"><a xlink:href="../../d9/dc9/_u___communication_8hpp.html" target="_top" xlink:title="Header for U_Communication.cpp.">
<polygon fill="none" stroke="black" points="263,-280.5 263,-299.5 378,-299.5 378,-280.5 263,-280.5"/>
<text text-anchor="middle" x="320.5" y="-287.5" font-family="Helvetica,sans-Serif" font-size="10.00">U_Communication.hpp</text>
</a>
</g>
</g>
<!-- Node1&#45;&gt;Node2 -->
<g id="edge1" class="edge">
<title>Node1&#45;&gt;Node2</title>
<path fill="none" stroke="midnightblue" d="M377.36,-383.18C369.82,-370.05 359.2,-351.8 349.5,-336 341.62,-323.17 332.1,-308.56 326.17,-299.56"/>
<polygon fill="midnightblue" stroke="midnightblue" points="374.46,-385.15 382.46,-392.1 380.53,-381.68 374.46,-385.15"/>
</g>
<!-- Node4 -->
<g id="node4" class="node">
<title>Node4</title>
<g id="a_node4"><a xlink:href="../../d2/de1/_u___service_8hpp.html" target="_top" xlink:title="Header for U_Service.cpp.">
<polygon fill="none" stroke="black" points="128,-224.5 128,-243.5 207,-243.5 207,-224.5 128,-224.5"/>
<text text-anchor="middle" x="167.5" y="-231.5" font-family="Helvetica,sans-Serif" font-size="10.00">U_Service.hpp</text>
</a>
</g>
</g>
<!-- Node1&#45;&gt;Node4 -->
<g id="edge30" class="edge">
<title>Node1&#45;&gt;Node4</title>
<path fill="none" stroke="midnightblue" d="M324.4,-395.27C265.74,-386.09 182.22,-362.2 146.5,-300 135.87,-281.49 150.57,-256.87 160.24,-243.89"/>
<polygon fill="midnightblue" stroke="midnightblue" points="323.91,-398.74 334.31,-396.72 324.93,-391.81 323.91,-398.74"/>
</g>
<!-- Node5 -->
<g id="node5" class="node">
<title>Node5</title>
<g id="a_node5"><a xlink:href="../../d6/de0/_u___configuration_8hpp.html" target="_top" xlink:title="Header for U_Configuration.cpp.">
<polygon fill="none" stroke="black" points="278.5,-56.5 278.5,-75.5 382.5,-75.5 382.5,-56.5 278.5,-56.5"/>
<text text-anchor="middle" x="330.5" y="-63.5" font-family="Helvetica,sans-Serif" font-size="10.00">U_Configuration.hpp</text>
</a>
</g>
</g>
<!-- Node1&#45;&gt;Node5 -->
<g id="edge22" class="edge">
<title>Node1&#45;&gt;Node5</title>
<path fill="none" stroke="midnightblue" d="M398.18,-383.45C425.83,-335.55 493.66,-200.2 435.5,-112 422.89,-92.88 400.29,-81.85 379.27,-75.5"/>
<polygon fill="midnightblue" stroke="midnightblue" points="395.03,-381.91 392.95,-392.3 401.05,-385.47 395.03,-381.91"/>
</g>
<!-- Node7 -->
<g id="node7" class="node">
<title>Node7</title>
<g id="a_node7"><a xlink:href="../../d5/d09/_u___helper_8hpp.html" target="_top" xlink:title="Header for U_Helper.cpp.">
<polygon fill="none" stroke="black" points="227,-168.5 227,-187.5 302,-187.5 302,-168.5 227,-168.5"/>
<text text-anchor="middle" x="264.5" y="-175.5" font-family="Helvetica,sans-Serif" font-size="10.00">U_Helper.hpp</text>
</a>
</g>
</g>
<!-- Node1&#45;&gt;Node7 -->
<g id="edge24" class="edge">
<title>Node1&#45;&gt;Node7</title>
<path fill="none" stroke="midnightblue" d="M390.83,-382.26C394.4,-358.04 398.21,-314.84 387.5,-280 378.67,-251.25 371.9,-244.07 349.5,-224 331.22,-207.62 305.91,-195.21 287.67,-187.62"/>
<polygon fill="midnightblue" stroke="midnightblue" points="387.36,-381.8 389.22,-392.23 394.27,-382.92 387.36,-381.8"/>
</g>
<!-- Node8 -->
<g id="node8" class="node">
<title>Node8</title>
<g id="a_node8"><a xlink:href="../../d3/de9/_u___controller_8hpp.html" target="_top" xlink:title="Header for U_Controller.cpp.">
<polygon fill="none" stroke="black" points="0,-112.5 0,-131.5 89,-131.5 89,-112.5 0,-112.5"/>
<text text-anchor="middle" x="44.5" y="-119.5" font-family="Helvetica,sans-Serif" font-size="10.00">U_Controller.hpp</text>
</a>
</g>
</g>
<!-- Node1&#45;&gt;Node8 -->
<g id="edge23" class="edge">
<title>Node1&#45;&gt;Node8</title>
<path fill="none" stroke="midnightblue" d="M323.96,-395.82C215.56,-385.21 6.5,-356.28 6.5,-291 6.5,-291 6.5,-291 6.5,-233 6.5,-193.4 28.77,-149.96 39.22,-131.77"/>
<polygon fill="midnightblue" stroke="midnightblue" points="323.84,-399.32 334.12,-396.79 324.5,-392.35 323.84,-399.32"/>
</g>
<!-- Node11 -->
<g id="node11" class="node">
<title>Node11</title>
<g id="a_node11"><a xlink:href="../../d3/d40/_u___logs_8hpp.html" target="_top" xlink:title="Header for U_Logs.cpp.">
<polygon fill="none" stroke="black" points="358.5,-112.5 358.5,-131.5 426.5,-131.5 426.5,-112.5 358.5,-112.5"/>
<text text-anchor="middle" x="392.5" y="-119.5" font-family="Helvetica,sans-Serif" font-size="10.00">U_Logs.hpp</text>
</a>
</g>
</g>
<!-- Node1&#45;&gt;Node11 -->
<g id="edge25" class="edge">
<title>Node1&#45;&gt;Node11</title>
<path fill="none" stroke="midnightblue" d="M397.43,-383.3C401.4,-375.24 405.5,-365.41 407.5,-356 409.35,-347.3 407.81,-344.88 407.5,-336 404.7,-256.35 396.02,-160.25 393.32,-131.51"/>
<polygon fill="midnightblue" stroke="midnightblue" points="394.19,-381.93 392.63,-392.41 400.39,-385.19 394.19,-381.93"/>
</g>
<!-- Node14 -->
<g id="node14" class="node">
<title>Node14</title>
<g id="a_node14"><a xlink:href="../../d5/de2/_u___registry_8hpp.html" target="_top" xlink:title="Header for U_Registry.cpp.">
<polygon fill="none" stroke="black" points="511,-168.5 511,-187.5 594,-187.5 594,-168.5 511,-168.5"/>
<text text-anchor="middle" x="552.5" y="-175.5" font-family="Helvetica,sans-Serif" font-size="10.00">U_Registry.hpp</text>
</a>
</g>
</g>
<!-- Node1&#45;&gt;Node14 -->
<g id="edge26" class="edge">
<title>Node1&#45;&gt;Node14</title>
<path fill="none" stroke="midnightblue" d="M440.24,-389.41C460.21,-382.64 481.68,-372.13 496.5,-356 543.15,-305.2 550.94,-215.64 552.24,-187.63"/>
<polygon fill="midnightblue" stroke="midnightblue" points="439.08,-386.1 430.59,-392.44 441.18,-392.78 439.08,-386.1"/>
</g>
<!-- Node16 -->
<g id="node16" class="node">
<title>Node16</title>
<g id="a_node16"><a xlink:href="../../da/d14/_u___signature_8hpp.html" target="_top" xlink:title="Header for U_Signature.cpp.">
<polygon fill="none" stroke="black" points="251,-336.5 251,-355.5 340,-355.5 340,-336.5 251,-336.5"/>
<text text-anchor="middle" x="295.5" y="-343.5" font-family="Helvetica,sans-Serif" font-size="10.00">U_Signature.hpp</text>
</a>
</g>
</g>
<!-- Node1&#45;&gt;Node16 -->
<g id="edge31" class="edge">
<title>Node1&#45;&gt;Node16</title>
<path fill="none" stroke="midnightblue" d="M363.95,-387.18C347.02,-377.24 324.72,-364.15 310.24,-355.65"/>
<polygon fill="midnightblue" stroke="midnightblue" points="362.32,-390.28 372.72,-392.32 365.87,-384.24 362.32,-390.28"/>
</g>
<!-- Node3 -->
<g id="node3" class="node">
<title>Node3</title>
<g id="a_node3"><a xlink:href="../../d6/da6/_u___communication_8cpp.html" target="_top" xlink:title="Manage the communication with the driver (Connect|Reply|ListenerThread|WorkerThread)">
<polygon fill="none" stroke="black" points="225,-224.5 225,-243.5 340,-243.5 340,-224.5 225,-224.5"/>
<text text-anchor="middle" x="282.5" y="-231.5" font-family="Helvetica,sans-Serif" font-size="10.00">U_Communication.cpp</text>
</a>
</g>
</g>
<!-- Node2&#45;&gt;Node3 -->
<g id="edge2" class="edge">
<title>Node2&#45;&gt;Node3</title>
<path fill="none" stroke="midnightblue" d="M308.44,-271.86C301.86,-262.5 293.99,-251.33 288.66,-243.75"/>
<polygon fill="midnightblue" stroke="midnightblue" points="305.61,-273.92 314.23,-280.08 311.33,-269.89 305.61,-273.92"/>
</g>
<!-- Node2&#45;&gt;Node4 -->
<g id="edge3" class="edge">
<title>Node2&#45;&gt;Node4</title>
<path fill="none" stroke="midnightblue" d="M281.29,-277.17C250.89,-267 210.25,-252.59 186.55,-243.52"/>
<polygon fill="midnightblue" stroke="midnightblue" points="280.57,-280.62 291.17,-280.44 282.78,-273.98 280.57,-280.62"/>
</g>
<!-- Node4&#45;&gt;Node2 -->
<g id="edge4" class="edge">
<title>Node4&#45;&gt;Node2</title>
<path fill="none" stroke="midnightblue" d="M206.57,-246.78C236.94,-256.94 277.6,-271.36 301.35,-280.44"/>
<polygon fill="midnightblue" stroke="midnightblue" points="207.3,-243.34 196.71,-243.52 205.1,-249.98 207.3,-243.34"/>
</g>
<!-- Node4&#45;&gt;Node5 -->
<g id="edge5" class="edge">
<title>Node4&#45;&gt;Node5</title>
<path fill="none" stroke="midnightblue" d="M164.76,-214.32C167.13,-188.14 180.47,-140.54 209.5,-112 228.48,-93.34 256.19,-82.12 280.4,-75.55"/>
<polygon fill="midnightblue" stroke="midnightblue" points="161.26,-214.29 164.42,-224.41 168.26,-214.53 161.26,-214.29"/>
</g>
<!-- Node4&#45;&gt;Node7 -->
<g id="edge8" class="edge">
<title>Node4&#45;&gt;Node7</title>
<path fill="none" stroke="midnightblue" d="M186.81,-218.9C203.38,-209 226.9,-196.07 243.84,-187.65"/>
<polygon fill="midnightblue" stroke="midnightblue" points="184.67,-216.11 177.97,-224.32 188.32,-222.08 184.67,-216.11"/>
</g>
<!-- Node13 -->
<g id="node13" class="node">
<title>Node13</title>
<g id="a_node13"><a xlink:href="../../d7/dc4/_u___service_8cpp.html" target="_top" xlink:title="Entrypoint of the process &amp; the service.">
<polygon fill="none" stroke="black" points="73,-168.5 73,-187.5 152,-187.5 152,-168.5 73,-168.5"/>
<text text-anchor="middle" x="112.5" y="-175.5" font-family="Helvetica,sans-Serif" font-size="10.00">U_Service.cpp</text>
</a>
</g>
</g>
<!-- Node4&#45;&gt;Node13 -->
<g id="edge21" class="edge">
<title>Node4&#45;&gt;Node13</title>
<path fill="none" stroke="midnightblue" d="M151.21,-217C141.46,-207.43 129.45,-195.64 121.41,-187.75"/>
<polygon fill="midnightblue" stroke="midnightblue" points="148.83,-219.57 158.42,-224.08 153.73,-214.58 148.83,-219.57"/>
</g>
<!-- Node5&#45;&gt;Node4 -->
<g id="edge7" class="edge">
<title>Node5&#45;&gt;Node4</title>
<path fill="none" stroke="midnightblue" d="M286.62,-78.61C266.57,-85.42 243.81,-95.96 227.5,-112 194.18,-144.77 181.52,-202.65 173.18,-224.41"/>
<polygon fill="midnightblue" stroke="midnightblue" points="287.74,-81.92 296.2,-75.55 285.61,-75.25 287.74,-81.92"/>
</g>
<!-- Node6 -->
<g id="node6" class="node">
<title>Node6</title>
<g id="a_node6"><a xlink:href="../../dd/da0/_u___configuration_8cpp.html" target="_top" xlink:title="Set all the needed configuration for the driver and the user&#45;mode service.">
<polygon fill="none" stroke="black" points="278.5,-0.5 278.5,-19.5 382.5,-19.5 382.5,-0.5 278.5,-0.5"/>
<text text-anchor="middle" x="330.5" y="-7.5" font-family="Helvetica,sans-Serif" font-size="10.00">U_Configuration.cpp</text>
</a>
</g>
</g>
<!-- Node5&#45;&gt;Node6 -->
<g id="edge6" class="edge">
<title>Node5&#45;&gt;Node6</title>
<path fill="none" stroke="midnightblue" d="M330.5,-45.8C330.5,-36.91 330.5,-26.78 330.5,-19.75"/>
<polygon fill="midnightblue" stroke="midnightblue" points="327,-46.08 330.5,-56.08 334,-46.08 327,-46.08"/>
</g>
<!-- Node7&#45;&gt;Node4 -->
<g id="edge20" class="edge">
<title>Node7&#45;&gt;Node4</title>
<path fill="none" stroke="midnightblue" d="M245.23,-193.07C228.68,-202.97 205.15,-215.9 188.2,-224.32"/>
<polygon fill="midnightblue" stroke="midnightblue" points="247.37,-195.87 254.06,-187.65 243.71,-189.9 247.37,-195.87"/>
</g>
<!-- Node7&#45;&gt;Node5 -->
<g id="edge9" class="edge">
<title>Node7&#45;&gt;Node5</title>
<path fill="none" stroke="midnightblue" d="M284.45,-162.03C293.86,-154.04 304.52,-143.5 311.5,-132 322.61,-113.71 327.52,-88.57 329.44,-75.57"/>
<polygon fill="midnightblue" stroke="midnightblue" points="282.21,-159.33 276.64,-168.34 286.61,-164.78 282.21,-159.33"/>
</g>
<!-- Node7&#45;&gt;Node8 -->
<g id="edge10" class="edge">
<title>Node7&#45;&gt;Node8</title>
<path fill="none" stroke="midnightblue" d="M219.78,-166.02C178.22,-155.82 117.19,-140.84 79.2,-131.52"/>
<polygon fill="midnightblue" stroke="midnightblue" points="219.09,-169.46 229.64,-168.44 220.76,-162.66 219.09,-169.46"/>
</g>
<!-- Node10 -->
<g id="node10" class="node">
<title>Node10</title>
<g id="a_node10"><a xlink:href="../../d8/d69/_u___helper_8cpp.html" target="_top" xlink:title="Help function used by several .cpp files.">
<polygon fill="none" stroke="black" points="227,-112.5 227,-131.5 302,-131.5 302,-112.5 227,-112.5"/>
<text text-anchor="middle" x="264.5" y="-119.5" font-family="Helvetica,sans-Serif" font-size="10.00">U_Helper.cpp</text>
</a>
</g>
</g>
<!-- Node7&#45;&gt;Node10 -->
<g id="edge13" class="edge">
<title>Node7&#45;&gt;Node10</title>
<path fill="none" stroke="midnightblue" d="M264.5,-157.8C264.5,-148.91 264.5,-138.78 264.5,-131.75"/>
<polygon fill="midnightblue" stroke="midnightblue" points="261,-158.08 264.5,-168.08 268,-158.08 261,-158.08"/>
</g>
<!-- Node7&#45;&gt;Node11 -->
<g id="edge14" class="edge">
<title>Node7&#45;&gt;Node11</title>
<path fill="none" stroke="midnightblue" d="M288.93,-164.23C311.44,-154.13 344.45,-140.31 367.23,-131.52"/>
<polygon fill="midnightblue" stroke="midnightblue" points="287.34,-161.11 279.69,-168.44 290.24,-167.48 287.34,-161.11"/>
</g>
<!-- Node8&#45;&gt;Node4 -->
<g id="edge12" class="edge">
<title>Node8&#45;&gt;Node4</title>
<path fill="none" stroke="midnightblue" d="M45.75,-141.8C47.61,-156.02 52.2,-175.21 63.5,-188 80.1,-206.8 105.97,-218.04 127.75,-224.58"/>
<polygon fill="midnightblue" stroke="midnightblue" points="49.21,-141.3 44.77,-131.68 42.25,-141.98 49.21,-141.3"/>
</g>
<!-- Node9 -->
<g id="node9" class="node">
<title>Node9</title>
<g id="a_node9"><a xlink:href="../../d8/d62/_u___controller_8cpp.html" target="_top" xlink:title="Controll the service/driver (Install|Start|Stop|Delete|Query)">
<polygon fill="none" stroke="black" points="0,-56.5 0,-75.5 89,-75.5 89,-56.5 0,-56.5"/>
<text text-anchor="middle" x="44.5" y="-63.5" font-family="Helvetica,sans-Serif" font-size="10.00">U_Controller.cpp</text>
</a>
</g>
</g>
<!-- Node8&#45;&gt;Node9 -->
<g id="edge11" class="edge">
<title>Node8&#45;&gt;Node9</title>
<path fill="none" stroke="midnightblue" d="M44.5,-101.8C44.5,-92.91 44.5,-82.78 44.5,-75.75"/>
<polygon fill="midnightblue" stroke="midnightblue" points="41,-102.08 44.5,-112.08 48,-102.08 41,-102.08"/>
</g>
<!-- Node11&#45;&gt;Node2 -->
<g id="edge15" class="edge">
<title>Node11&#45;&gt;Node2</title>
<path fill="none" stroke="midnightblue" d="M387.4,-141.45C380.38,-165.65 366.65,-209.13 349.5,-244 342.94,-257.35 333.25,-271.59 326.91,-280.39"/>
<polygon fill="midnightblue" stroke="midnightblue" points="390.77,-142.36 390.14,-131.79 384.04,-140.45 390.77,-142.36"/>
</g>
<!-- Node11&#45;&gt;Node4 -->
<g id="edge19" class="edge">
<title>Node11&#45;&gt;Node4</title>
<path fill="none" stroke="midnightblue" d="M376.22,-139.16C360.73,-153.73 336.2,-174.84 311.5,-188 278.33,-205.67 237.1,-217.67 207.27,-224.81"/>
<polygon fill="midnightblue" stroke="midnightblue" points="379.05,-141.29 383.83,-131.83 374.2,-136.25 379.05,-141.29"/>
</g>
<!-- Node11&#45;&gt;Node5 -->
<g id="edge16" class="edge">
<title>Node11&#45;&gt;Node5</title>
<path fill="none" stroke="midnightblue" d="M374.75,-105.54C363.69,-95.91 349.87,-83.87 340.64,-75.83"/>
<polygon fill="midnightblue" stroke="midnightblue" points="372.7,-108.4 382.54,-112.32 377.3,-103.12 372.7,-108.4"/>
</g>
<!-- Node11&#45;&gt;Node7 -->
<g id="edge17" class="edge">
<title>Node11&#45;&gt;Node7</title>
<path fill="none" stroke="midnightblue" d="M368.17,-135.72C345.7,-145.81 312.68,-159.64 289.87,-168.44"/>
<polygon fill="midnightblue" stroke="midnightblue" points="369.75,-138.85 377.39,-131.52 366.84,-132.48 369.75,-138.85"/>
</g>
<!-- Node12 -->
<g id="node12" class="node">
<title>Node12</title>
<g id="a_node12"><a xlink:href="../../da/d56/_u___logs_8cpp.html" target="_top" xlink:title="Report Event to ETW.">
<polygon fill="none" stroke="black" points="400.5,-56.5 400.5,-75.5 468.5,-75.5 468.5,-56.5 400.5,-56.5"/>
<text text-anchor="middle" x="434.5" y="-63.5" font-family="Helvetica,sans-Serif" font-size="10.00">U_Logs.cpp</text>
</a>
</g>
</g>
<!-- Node11&#45;&gt;Node12 -->
<g id="edge18" class="edge">
<title>Node11&#45;&gt;Node12</title>
<path fill="none" stroke="midnightblue" d="M405.61,-104.14C412.93,-94.74 421.74,-83.4 427.69,-75.75"/>
<polygon fill="midnightblue" stroke="midnightblue" points="402.81,-102.04 399.44,-112.08 408.34,-106.34 402.81,-102.04"/>
</g>
<!-- Node14&#45;&gt;Node5 -->
<g id="edge27" class="edge">
<title>Node14&#45;&gt;Node5</title>
<path fill="none" stroke="midnightblue" d="M541.88,-159.68C531.93,-144.88 515.73,-124.11 496.5,-112 476.04,-99.11 415,-84.51 372.93,-75.53"/>
<polygon fill="midnightblue" stroke="midnightblue" points="539.13,-161.87 547.49,-168.39 545.02,-158.09 539.13,-161.87"/>
</g>
<!-- Node14&#45;&gt;Node11 -->
<g id="edge28" class="edge">
<title>Node14&#45;&gt;Node11</title>
<path fill="none" stroke="midnightblue" d="M517.45,-165.17C487.33,-155 444.6,-140.59 417.73,-131.52"/>
<polygon fill="midnightblue" stroke="midnightblue" points="516.55,-168.56 527.15,-168.44 518.79,-161.93 516.55,-168.56"/>
</g>
<!-- Node15 -->
<g id="node15" class="node">
<title>Node15</title>
<g id="a_node15"><a xlink:href="../../d2/d4d/_u___registry_8cpp.html" target="_top" xlink:title="Create / Write / Delete registry key.">
<polygon fill="none" stroke="black" points="549,-112.5 549,-131.5 632,-131.5 632,-112.5 549,-112.5"/>
<text text-anchor="middle" x="590.5" y="-119.5" font-family="Helvetica,sans-Serif" font-size="10.00">U_Registry.cpp</text>
</a>
</g>
</g>
<!-- Node14&#45;&gt;Node15 -->
<g id="edge29" class="edge">
<title>Node14&#45;&gt;Node15</title>
<path fill="none" stroke="midnightblue" d="M564.56,-159.86C571.14,-150.5 579.01,-139.33 584.34,-131.75"/>
<polygon fill="midnightblue" stroke="midnightblue" points="561.67,-157.89 558.77,-168.08 567.39,-161.92 561.67,-157.89"/>
</g>
<!-- Node16&#45;&gt;Node2 -->
<g id="edge32" class="edge">
<title>Node16&#45;&gt;Node2</title>
<path fill="none" stroke="midnightblue" d="M303.84,-326.98C308.08,-317.82 313.05,-307.09 316.45,-299.75"/>
<polygon fill="midnightblue" stroke="midnightblue" points="300.65,-325.54 299.63,-336.08 307.01,-328.48 300.65,-325.54"/>
</g>
<!-- Node17 -->
<g id="node17" class="node">
<title>Node17</title>
<g id="a_node17"><a xlink:href="../../d0/dd3/_u___signature_8cpp.html" target="_top" xlink:title="Verify embedded signature and catalog signature of an executable.">
<polygon fill="none" stroke="black" points="156,-280.5 156,-299.5 245,-299.5 245,-280.5 156,-280.5"/>
<text text-anchor="middle" x="200.5" y="-287.5" font-family="Helvetica,sans-Serif" font-size="10.00">U_Signature.cpp</text>
</a>
</g>
</g>
<!-- Node16&#45;&gt;Node17 -->
<g id="edge33" class="edge">
<title>Node16&#45;&gt;Node17</title>
<path fill="none" stroke="midnightblue" d="M271.18,-331.18C253.7,-321.24 230.67,-308.15 215.73,-299.65"/>
<polygon fill="midnightblue" stroke="midnightblue" points="269.81,-334.43 280.24,-336.32 273.27,-328.34 269.81,-334.43"/>
</g>
</g>
</svg>
        <g id="navigator" transform="translate(0 0)" fill="#404254">
                <rect fill="#f2f5e9" fill-opacity="0.5" stroke="#606060" stroke-width=".5" x="0" y="0" width="60" height="60"/>
                <use id="zoomplus" xlink:href="#zoomPlus" x="17" y="9" onmousedown="handleZoom(evt,'in')"/>
                <use id="zoomminus" xlink:href="#zoomMin" x="42" y="9" onmousedown="handleZoom(evt,'out')"/>
                <use id="reset" xlink:href="#resetDef" x="30" y="36" onmousedown="handleReset()"/>
                <g id="arrowUp" xlink:href="#dirArrow" transform="translate(30 24)" onmousedown="handlePan(0,-1)">
                  <use xlink:href="#rim" fill="#404040">
                        <set attributeName="fill" to="#808080" begin="arrowUp.mouseover" end="arrowUp.mouseout"/>
                  </use>
                  <path fill="none" stroke="white" stroke-width="1.5" d="M0,-3.0v7 M-2.5,-0.5L0,-3.0L2.5,-0.5"/>
                </g>
                <g id="arrowRight" xlink:href="#dirArrow" transform="rotate(90) translate(36 -43)" onmousedown="handlePan(1,0)">
                  <use xlink:href="#rim" fill="#404040">
                        <set attributeName="fill" to="#808080" begin="arrowRight.mouseover" end="arrowRight.mouseout"/>
                  </use>
                  <path fill="none" stroke="white" stroke-width="1.5" d="M0,-3.0v7 M-2.5,-0.5L0,-3.0L2.5,-0.5"/>
                </g>
                <g id="arrowDown" xlink:href="#dirArrow" transform="rotate(180) translate(-30 -48)" onmousedown="handlePan(0,1)">
                  <use xlink:href="#rim" fill="#404040">
                        <set attributeName="fill" to="#808080" begin="arrowDown.mouseover" end="arrowDown.mouseout"/>
                  </use>
                  <path fill="none" stroke="white" stroke-width="1.5" d="M0,-3.0v7 M-2.5,-0.5L0,-3.0L2.5,-0.5"/>
                </g>
                <g id="arrowLeft" xlink:href="#dirArrow" transform="rotate(270) translate(-36 17)" onmousedown="handlePan(-1,0)">
                  <use xlink:href="#rim" fill="#404040">
                        <set attributeName="fill" to="#808080" begin="arrowLeft.mouseover" end="arrowLeft.mouseout"/>
                  </use>
                  <path fill="none" stroke="white" stroke-width="1.5" d="M0,-3.0v7 M-2.5,-0.5L0,-3.0L2.5,-0.5"/>
                </g>
        </g>
        <svg viewBox="0 0 15 15" width="100%" height="30px" preserveAspectRatio="xMaxYMin meet">
         <g id="arrow_out" transform="scale(0.3 0.3)">
          <a xlink:href="_u___global_header_8hpp__dep__incl_org.svg" target="_base">
           <rect id="button" ry="5" rx="5" y="6" x="6" height="38" width="38"
                fill="#f2f5e9" fill-opacity="0.5" stroke="#606060" stroke-width="1.0"/>
           <path id="arrow"
             d="M 11.500037,31.436501 C 11.940474,20.09759 22.043105,11.32322 32.158766,21.979434 L 37.068811,17.246167 C 37.068811,17.246167 37.088388,32 37.088388,32 L 22.160133,31.978069 C 22.160133,31.978069 26.997745,27.140456 26.997745,27.140456 C 18.528582,18.264221 13.291696,25.230495 11.500037,31.436501 z"
             style="fill:#404040;"/>
          </a>
         </g>
        </svg>
</svg>
