<?xml version="1.0" encoding="UTF-8" standalone="no"?>
<!DOCTYPE svg PUBLIC "-//W3C//DTD SVG 1.1//EN"
 "http://www.w3.org/Graphics/SVG/1.1/DTD/svg11.dtd">
<!-- Generated by graphviz version 5.0.0 (20220707.1540)
 -->
<!-- Title: Install Pages: 1 -->
<!--zoomable 329 -->
<svg id="main" version="1.1" xmlns="http://www.w3.org/2000/svg" xmlns:xlink="http://www.w3.org/1999/xlink" xml:space="preserve" onload="init(evt)">
<style type="text/css"><![CDATA[
.edge:hover path { stroke: red; }
.edge:hover polygon { stroke: red; fill: red; }
]]></style>
<script type="text/javascript"><![CDATA[
var edges = document.getElementsByTagName('g');
if (edges && edges.length) {
  for (var i=0;i<edges.length;i++) {
    if (edges[i].id.substr(0,4)=='edge') {
      edges[i].setAttribute('class','edge');
    }
  }
}
]]></script>
        <defs>
                <circle id="rim" cx="0" cy="0" r="7"/>
                <circle id="rim2" cx="0" cy="0" r="3.5"/>
                <g id="zoomPlus">
                        <use xlink:href="#rim" fill="#404040">
                                <set attributeName="fill" to="#808080" begin="zoomplus.mouseover" end="zoomplus.mouseout"/>
                        </use>
                        <path d="M-4,0h8M0,-4v8" fill="none" stroke="white" stroke-width="1.5" pointer-events="none"/>
                </g>
                <g id="zoomMin">
                        <use xlink:href="#rim" fill="#404040">
                                <set attributeName="fill" to="#808080" begin="zoomminus.mouseover" end="zoomminus.mouseout"/>
                        </use>
                        <path d="M-4,0h8" fill="none" stroke="white" stroke-width="1.5" pointer-events="none"/>
                </g>
                <g id="dirArrow">
                        <path fill="none" stroke="white" stroke-width="1.5" d="M0,-3.0v7 M-2.5,-0.5L0,-3.0L2.5,-0.5"/>
                </g>
               <g id="resetDef">
                       <use xlink:href="#rim2" fill="#404040">
                               <set attributeName="fill" to="#808080" begin="reset.mouseover" end="reset.mouseout"/>
                       </use>
               </g>
        </defs>

<script type="text/javascript">
var viewWidth = 836;
var viewHeight = 329;
var sectionId = 'dynsection-4';
</script>
<script xlink:href="../../svgpan.js"/>
<svg id="graph" class="graph">
<g id="viewport">
<title>Install</title>
<!-- Node1 -->
<g id="node1" class="node">
<title>Node1</title>
<g id="a_node1"><a xlink:title="Wrap the installation of the service.">
<polygon fill="#bfbfbf" stroke="black" points="0,-168.58 0,-187.58 42,-187.58 42,-168.58 0,-168.58"/>
<text text-anchor="middle" x="21" y="-175.58" font-family="Helvetica,sans-Serif" font-size="10.00">Install</text>
</a>
</g>
</g>
<!-- Node2 -->
<g id="node2" class="node">
<title>Node2</title>
<g id="a_node2"><a xlink:href="../../d8/dfb/class_u___c_o_n_t_r_o_l_l_e_r.html#a81c82381327f2e86e44e97bd330f2796" target="_top" xlink:title="Install the service &quot;szServiceName&quot;.">
<polygon fill="none" stroke="black" points="288,-212.58 288,-231.58 444,-231.58 444,-212.58 288,-212.58"/>
<text text-anchor="middle" x="366" y="-219.58" font-family="Helvetica,sans-Serif" font-size="10.00">U_CONTROLLER::InstallService</text>
</a>
</g>
</g>
<!-- Node1&#45;&gt;Node2 -->
<g id="edge1" class="edge">
<title>Node1&#45;&gt;Node2</title>
<path fill="none" stroke="midnightblue" d="M42.07,-183.83C52.68,-186.68 65.96,-189.96 78,-192.08 144.56,-203.82 220.66,-211.52 277.77,-216.17"/>
<polygon fill="midnightblue" stroke="midnightblue" points="277.6,-219.67 287.85,-216.98 278.16,-212.69 277.6,-219.67"/>
</g>
<!-- Node9 -->
<g id="node9" class="node">
<title>Node9</title>
<g id="a_node9"><a xlink:href="../../d8/dfb/class_u___c_o_n_t_r_o_l_l_e_r.html#ab1f13df84b5c2eaa78de41718b01029a" target="_top" xlink:title="Check if the service is already installed.">
<polygon fill="none" stroke="black" points="78,-248.58 78,-267.58 252,-267.58 252,-248.58 78,-248.58"/>
<text text-anchor="middle" x="165" y="-255.58" font-family="Helvetica,sans-Serif" font-size="10.00">U_CONTROLLER::IsServiceInstalled</text>
</a>
</g>
</g>
<!-- Node1&#45;&gt;Node9 -->
<g id="edge9" class="edge">
<title>Node1&#45;&gt;Node9</title>
<path fill="none" stroke="midnightblue" d="M29.26,-187.71C39.02,-200 57.54,-221.1 78,-233.08 86.55,-238.09 96.18,-242.15 105.82,-245.43"/>
<polygon fill="midnightblue" stroke="midnightblue" points="104.82,-248.79 115.41,-248.46 106.93,-242.11 104.82,-248.79"/>
</g>
<!-- Node10 -->
<g id="node10" class="node">
<title>Node10</title>
<g id="a_node10"><a xlink:href="../../d6/dd4/class_u___c_o_n_f_i_g_u_r_a_t_i_o_n.html#a17aa0c6d783b391a5b324d26c562ac15" target="_top" xlink:title="Create registry keys needed for the driver configuration.">
<polygon fill="none" stroke="black" points="290,-163.08 290,-193.08 442,-193.08 442,-163.08 290,-163.08"/>
<text text-anchor="start" x="298" y="-181.08" font-family="Helvetica,sans-Serif" font-size="10.00">U_CONFIGURATION::SetDriver</text>
<text text-anchor="middle" x="366" y="-170.08" font-family="Helvetica,sans-Serif" font-size="10.00">Configuration</text>
</a>
</g>
</g>
<!-- Node1&#45;&gt;Node10 -->
<g id="edge11" class="edge">
<title>Node1&#45;&gt;Node10</title>
<path fill="none" stroke="midnightblue" d="M42.43,-178.08C87.98,-178.08 200.07,-178.08 279.28,-178.08"/>
<polygon fill="midnightblue" stroke="midnightblue" points="279.74,-181.58 289.74,-178.08 279.74,-174.58 279.74,-181.58"/>
</g>
<!-- Node12 -->
<g id="node12" class="node">
<title>Node12</title>
<g id="a_node12"><a xlink:href="../../d6/dd4/class_u___c_o_n_f_i_g_u_r_a_t_i_o_n.html#adf54f299b42ec1596e92f49cb640d3ba" target="_top" xlink:title="Create registry keys needed for the service configuration.">
<polygon fill="none" stroke="black" points="85,-100.08 85,-130.08 245,-130.08 245,-100.08 85,-100.08"/>
<text text-anchor="start" x="93" y="-118.08" font-family="Helvetica,sans-Serif" font-size="10.00">U_CONFIGURATION::SetService</text>
<text text-anchor="middle" x="165" y="-107.08" font-family="Helvetica,sans-Serif" font-size="10.00">Configuration</text>
</a>
</g>
</g>
<!-- Node1&#45;&gt;Node12 -->
<g id="edge17" class="edge">
<title>Node1&#45;&gt;Node12</title>
<path fill="none" stroke="midnightblue" d="M42.04,-169.19C62.4,-160.16 94.57,-145.88 120.76,-134.26"/>
<polygon fill="midnightblue" stroke="midnightblue" points="122.39,-137.37 130.11,-130.12 119.55,-130.97 122.39,-137.37"/>
</g>
<!-- Node15 -->
<g id="node15" class="node">
<title>Node15</title>
<g id="a_node15"><a xlink:href="../../d8/db0/class_u___l_o_g_s.html#a0f2932b79fce103453dd1cfc60de2007" target="_top" xlink:title="Send the reported event in the Event Viewer (Application &#45;&gt; PI&#45;Defender_UM).">
<polygon fill="none" stroke="black" points="501,-1.58 501,-20.58 631,-20.58 631,-1.58 501,-1.58"/>
<text text-anchor="middle" x="566" y="-8.58" font-family="Helvetica,sans-Serif" font-size="10.00">U_LOGS::SvcReportEvent</text>
</a>
</g>
</g>
<!-- Node1&#45;&gt;Node15 -->
<g id="edge26" class="edge">
<title>Node1&#45;&gt;Node15</title>
<path fill="none" stroke="midnightblue" d="M25.44,-168.55C32.45,-150.48 50.13,-111.17 78,-90.08 199.63,1.95 387.68,4.18 490.9,-3"/>
<polygon fill="midnightblue" stroke="midnightblue" points="490.69,-6.49 500.93,-3.75 491.21,0.49 490.69,-6.49"/>
</g>
<!-- Node3 -->
<g id="node3" class="node">
<title>Node3</title>
<g id="a_node3"><a xlink:href="../../d8/dfb/class_u___c_o_n_t_r_o_l_l_e_r.html#a65733b52c6801a89b0c12d7836feef9c" target="_top" xlink:title="Get a handle to the Service Controller Database.">
<polygon fill="none" stroke="black" points="480,-301.58 480,-320.58 652,-320.58 652,-301.58 480,-301.58"/>
<text text-anchor="middle" x="566" y="-308.58" font-family="Helvetica,sans-Serif" font-size="10.00">U_CONTROLLER::_GetSCMHandle</text>
</a>
</g>
</g>
<!-- Node2&#45;&gt;Node3 -->
<g id="edge2" class="edge">
<title>Node2&#45;&gt;Node3</title>
<path fill="none" stroke="midnightblue" d="M382.28,-231.64C412.53,-250.55 477.38,-291.01 480,-292.08 486.3,-294.65 493.02,-296.91 499.8,-298.87"/>
<polygon fill="midnightblue" stroke="midnightblue" points="499.19,-302.33 509.76,-301.56 501.02,-295.58 499.19,-302.33"/>
</g>
<!-- Node4 -->
<g id="node4" class="node">
<title>Node4</title>
<g id="a_node4"><a xlink:href="../../d1/da3/class_u___r_e_g_i_s_t_r_y.html#acb3aa163feb4caa0bbd10c41579ff78a" target="_top" xlink:title="Create the registry key &quot;szSubKey&quot; located in the HIVE &quot;hKeyParent&quot;.">
<polygon fill="none" stroke="black" points="483.5,-77.58 483.5,-96.58 648.5,-96.58 648.5,-77.58 483.5,-77.58"/>
<text text-anchor="middle" x="566" y="-84.58" font-family="Helvetica,sans-Serif" font-size="10.00">U_REGISTRY::CreateRegistryKey</text>
</a>
</g>
</g>
<!-- Node2&#45;&gt;Node4 -->
<g id="edge3" class="edge">
<title>Node2&#45;&gt;Node4</title>
<path fill="none" stroke="midnightblue" d="M427.52,-212.54C433.53,-209.85 439.18,-206.42 444,-202.08 477.86,-171.59 445.62,-135.99 480,-106.08 481.76,-104.55 483.62,-103.13 485.56,-101.82"/>
<polygon fill="midnightblue" stroke="midnightblue" points="487.53,-104.73 494.49,-96.74 484.07,-98.64 487.53,-104.73"/>
</g>
<!-- Node5 -->
<g id="node5" class="node">
<title>Node5</title>
<g id="a_node5"><a xlink:href="../../d1/dca/class_u___h_e_l_p_e_r.html#a3aec688c6ea99512067e4919e0020d12" target="_top" xlink:title=" ">
<polygon fill="none" stroke="black" points="492,-263.58 492,-282.58 640,-282.58 640,-263.58 492,-263.58"/>
<text text-anchor="middle" x="566" y="-270.58" font-family="Helvetica,sans-Serif" font-size="10.00">U_HELPER::GetCurrentFolder</text>
</a>
</g>
</g>
<!-- Node2&#45;&gt;Node5 -->
<g id="edge4" class="edge">
<title>Node2&#45;&gt;Node5</title>
<path fill="none" stroke="midnightblue" d="M399.02,-231.67C421.57,-238.29 452.53,-247.13 480,-254.08 489.67,-256.53 500.01,-258.98 510.02,-261.27"/>
<polygon fill="midnightblue" stroke="midnightblue" points="509.37,-264.71 519.89,-263.49 510.91,-257.88 509.37,-264.71"/>
</g>
<!-- Node6 -->
<g id="node6" class="node">
<title>Node6</title>
<g id="a_node6"><a xlink:href="../../d1/da3/class_u___r_e_g_i_s_t_r_y.html#ac826205b4627137b899c1e0066b3fb9a" target="_top" xlink:title="Write DWORD in the registry key &quot;szSubKey&quot; located in the HIVE &quot;hKeyParent&quot;.">
<polygon fill="none" stroke="black" points="495.5,-116.08 495.5,-146.08 636.5,-146.08 636.5,-116.08 495.5,-116.08"/>
<text text-anchor="start" x="503.5" y="-134.08" font-family="Helvetica,sans-Serif" font-size="10.00">U_REGISTRY::WriteDwordIn</text>
<text text-anchor="middle" x="566" y="-123.08" font-family="Helvetica,sans-Serif" font-size="10.00">Registry</text>
</a>
</g>
</g>
<!-- Node2&#45;&gt;Node6 -->
<g id="edge5" class="edge">
<title>Node2&#45;&gt;Node6</title>
<path fill="none" stroke="midnightblue" d="M422.35,-212.5C429.98,-209.84 437.44,-206.43 444,-202.08 465.93,-187.54 458.23,-169.85 480,-155.08 482.38,-153.47 484.87,-151.96 487.43,-150.55"/>
<polygon fill="midnightblue" stroke="midnightblue" points="488.98,-153.69 496.42,-146.15 485.9,-147.41 488.98,-153.69"/>
</g>
<!-- Node8 -->
<g id="node8" class="node">
<title>Node8</title>
<g id="a_node8"><a xlink:href="../../d1/da3/class_u___r_e_g_i_s_t_r_y.html#aa82742460b375f1fbd9534cd8f845bd0" target="_top" xlink:title="Write STRING in the registry key &quot;szSubKey&quot; located in the HIVE &quot;hKeyParent&quot;.">
<polygon fill="none" stroke="black" points="496,-165.08 496,-195.08 636,-195.08 636,-165.08 496,-165.08"/>
<text text-anchor="start" x="504" y="-183.08" font-family="Helvetica,sans-Serif" font-size="10.00">U_REGISTRY::WriteStringIn</text>
<text text-anchor="middle" x="566" y="-172.08" font-family="Helvetica,sans-Serif" font-size="10.00">Registry</text>
</a>
</g>
</g>
<!-- Node2&#45;&gt;Node8 -->
<g id="edge7" class="edge">
<title>Node2&#45;&gt;Node8</title>
<path fill="none" stroke="midnightblue" d="M411.93,-212.55C433.79,-207.91 460.72,-202.2 485.86,-196.87"/>
<polygon fill="midnightblue" stroke="midnightblue" points="486.71,-200.27 495.77,-194.77 485.26,-193.42 486.71,-200.27"/>
</g>
<!-- Node7 -->
<g id="node7" class="node">
<title>Node7</title>
<g id="a_node7"><a xlink:href="../../d1/da3/class_u___r_e_g_i_s_t_r_y.html#aa3f355ae1e9c7c1f9db8496d25ac1f7d" target="_top" xlink:title="Write data in the registry key &quot;szSubKey&quot; located in the HIVE &quot;hKeyParent&quot;.">
<polygon fill="none" stroke="black" points="688,-165.08 688,-195.08 828,-195.08 828,-165.08 688,-165.08"/>
<text text-anchor="start" x="696" y="-183.08" font-family="Helvetica,sans-Serif" font-size="10.00">U_REGISTRY::_WriteDataIn</text>
<text text-anchor="middle" x="758" y="-172.08" font-family="Helvetica,sans-Serif" font-size="10.00">Registry</text>
</a>
</g>
</g>
<!-- Node6&#45;&gt;Node7 -->
<g id="edge6" class="edge">
<title>Node6&#45;&gt;Node7</title>
<path fill="none" stroke="midnightblue" d="M625.3,-146.12C645.45,-151.31 668.21,-157.18 689.06,-162.56"/>
<polygon fill="midnightblue" stroke="midnightblue" points="688.26,-165.97 698.81,-165.07 690,-159.19 688.26,-165.97"/>
</g>
<!-- Node8&#45;&gt;Node7 -->
<g id="edge8" class="edge">
<title>Node8&#45;&gt;Node7</title>
<path fill="none" stroke="midnightblue" d="M636.13,-180.08C649.71,-180.08 664.05,-180.08 677.92,-180.08"/>
<polygon fill="midnightblue" stroke="midnightblue" points="677.92,-183.58 687.92,-180.08 677.92,-176.58 677.92,-183.58"/>
</g>
<!-- Node9&#45;&gt;Node3 -->
<g id="edge10" class="edge">
<title>Node9&#45;&gt;Node3</title>
<path fill="none" stroke="midnightblue" d="M237.79,-267.62C306.9,-276.8 411.28,-290.66 483.48,-300.25"/>
<polygon fill="midnightblue" stroke="midnightblue" points="483.07,-303.73 493.45,-301.58 483.99,-296.79 483.07,-303.73"/>
</g>
<!-- Node10&#45;&gt;Node4 -->
<g id="edge12" class="edge">
<title>Node10&#45;&gt;Node4</title>
<path fill="none" stroke="midnightblue" d="M386.25,-162.84C407.86,-146.46 444.55,-120.8 480,-106.08 486.19,-103.51 492.79,-101.26 499.47,-99.29"/>
<polygon fill="midnightblue" stroke="midnightblue" points="500.54,-102.63 509.27,-96.62 498.7,-95.88 500.54,-102.63"/>
</g>
<!-- Node10&#45;&gt;Node6 -->
<g id="edge13" class="edge">
<title>Node10&#45;&gt;Node6</title>
<path fill="none" stroke="midnightblue" d="M430.19,-163.08C449.84,-158.42 471.66,-153.24 491.92,-148.43"/>
<polygon fill="midnightblue" stroke="midnightblue" points="492.81,-151.81 501.73,-146.1 491.19,-145 492.81,-151.81"/>
</g>
<!-- Node10&#45;&gt;Node8 -->
<g id="edge16" class="edge">
<title>Node10&#45;&gt;Node8</title>
<path fill="none" stroke="midnightblue" d="M442.14,-178.84C456.31,-178.98 471.18,-179.13 485.48,-179.28"/>
<polygon fill="midnightblue" stroke="midnightblue" points="485.74,-182.78 495.78,-179.38 485.81,-175.78 485.74,-182.78"/>
</g>
<!-- Node11 -->
<g id="node11" class="node">
<title>Node11</title>
<g id="a_node11"><a xlink:href="../../d1/da3/class_u___r_e_g_i_s_t_r_y.html#a46f7e87b2a43abab3f86a367c4ca4c8c" target="_top" xlink:title="Write MULTI_SZ STRING in the registry key &quot;szSubKey&quot; located in the HIVE &quot;hKeyParent&quot;.">
<polygon fill="none" stroke="black" points="489.5,-214.08 489.5,-244.08 642.5,-244.08 642.5,-214.08 489.5,-214.08"/>
<text text-anchor="start" x="497.5" y="-232.08" font-family="Helvetica,sans-Serif" font-size="10.00">U_REGISTRY::WriteMultiString</text>
<text text-anchor="middle" x="566" y="-221.08" font-family="Helvetica,sans-Serif" font-size="10.00">InRegistry</text>
</a>
</g>
</g>
<!-- Node10&#45;&gt;Node11 -->
<g id="edge14" class="edge">
<title>Node10&#45;&gt;Node11</title>
<path fill="none" stroke="midnightblue" d="M425.34,-193.11C447.79,-198.89 473.63,-205.55 496.93,-211.55"/>
<polygon fill="midnightblue" stroke="midnightblue" points="496.18,-214.97 506.74,-214.07 497.93,-208.19 496.18,-214.97"/>
</g>
<!-- Node11&#45;&gt;Node7 -->
<g id="edge15" class="edge">
<title>Node11&#45;&gt;Node7</title>
<path fill="none" stroke="midnightblue" d="M625.3,-214.05C645.45,-208.85 668.21,-202.98 689.06,-197.6"/>
<polygon fill="midnightblue" stroke="midnightblue" points="690,-200.97 698.81,-195.09 688.26,-194.2 690,-200.97"/>
</g>
<!-- Node12&#45;&gt;Node4 -->
<g id="edge24" class="edge">
<title>Node12&#45;&gt;Node4</title>
<path fill="none" stroke="midnightblue" d="M245.31,-109.52C311.05,-104.9 404.55,-98.34 473.46,-93.5"/>
<polygon fill="midnightblue" stroke="midnightblue" points="473.72,-97 483.45,-92.8 473.23,-90.01 473.72,-97"/>
</g>
<!-- Node12&#45;&gt;Node6 -->
<g id="edge25" class="edge">
<title>Node12&#45;&gt;Node6</title>
<path fill="none" stroke="midnightblue" d="M245.31,-118.26C314.84,-121.05 415.43,-125.08 485.13,-127.88"/>
<polygon fill="midnightblue" stroke="midnightblue" points="485.05,-131.38 495.18,-128.28 485.33,-124.38 485.05,-131.38"/>
</g>
<!-- Node13 -->
<g id="node13" class="node">
<title>Node13</title>
<g id="a_node13"><a xlink:href="../../d6/dd4/class_u___c_o_n_f_i_g_u_r_a_t_i_o_n.html#ac15b37425890a19a5de6664a2f5b2320" target="_top" xlink:title="Create all the registry keys needed for ETW Logs.">
<polygon fill="none" stroke="black" points="292.5,-37.08 292.5,-67.08 439.5,-67.08 439.5,-37.08 292.5,-37.08"/>
<text text-anchor="start" x="300.5" y="-55.08" font-family="Helvetica,sans-Serif" font-size="10.00">U_CONFIGURATION::_Create</text>
<text text-anchor="middle" x="366" y="-44.08" font-family="Helvetica,sans-Serif" font-size="10.00">RegistryForLogs</text>
</a>
</g>
</g>
<!-- Node12&#45;&gt;Node13 -->
<g id="edge18" class="edge">
<title>Node12&#45;&gt;Node13</title>
<path fill="none" stroke="midnightblue" d="M213.41,-100.07C241.71,-91.11 277.84,-79.67 307.73,-70.21"/>
<polygon fill="midnightblue" stroke="midnightblue" points="309.13,-73.44 317.61,-67.08 307.02,-66.77 309.13,-73.44"/>
</g>
<!-- Node13&#45;&gt;Node4 -->
<g id="edge19" class="edge">
<title>Node13&#45;&gt;Node4</title>
<path fill="none" stroke="midnightblue" d="M439.6,-64.91C459.72,-68.47 481.4,-72.3 500.98,-75.76"/>
<polygon fill="midnightblue" stroke="midnightblue" points="500.56,-79.24 511.01,-77.54 501.78,-72.35 500.56,-79.24"/>
</g>
<!-- Node13&#45;&gt;Node6 -->
<g id="edge22" class="edge">
<title>Node13&#45;&gt;Node6</title>
<path fill="none" stroke="midnightblue" d="M395.24,-67.13C417.77,-78.76 450.36,-94.72 480,-106.08 486.27,-108.48 492.88,-110.8 499.52,-112.98"/>
<polygon fill="midnightblue" stroke="midnightblue" points="498.66,-116.37 509.25,-116.07 500.78,-109.7 498.66,-116.37"/>
</g>
<!-- Node13&#45;&gt;Node8 -->
<g id="edge23" class="edge">
<title>Node13&#45;&gt;Node8</title>
<path fill="none" stroke="midnightblue" d="M379.63,-67.35C398.98,-89.78 438.13,-131.52 480,-155.08 483.95,-157.31 488.12,-159.35 492.41,-161.22"/>
<polygon fill="midnightblue" stroke="midnightblue" points="491.34,-164.57 501.93,-165.06 493.96,-158.08 491.34,-164.57"/>
</g>
<!-- Node14 -->
<g id="node14" class="node">
<title>Node14</title>
<g id="a_node14"><a xlink:href="../../d1/dca/class_u___h_e_l_p_e_r.html#a4394792c27e195d195fe4108ed402bbc" target="_top" xlink:title=" ">
<polygon fill="none" stroke="black" points="497.5,-39.58 497.5,-58.58 634.5,-58.58 634.5,-39.58 497.5,-39.58"/>
<text text-anchor="middle" x="566" y="-46.58" font-family="Helvetica,sans-Serif" font-size="10.00">U_HELPER::GetDllFullPath</text>
</a>
</g>
</g>
<!-- Node13&#45;&gt;Node14 -->
<g id="edge20" class="edge">
<title>Node13&#45;&gt;Node14</title>
<path fill="none" stroke="midnightblue" d="M439.6,-50.98C455.09,-50.75 471.5,-50.5 487.17,-50.26"/>
<polygon fill="midnightblue" stroke="midnightblue" points="487.39,-53.76 497.34,-50.11 487.29,-46.76 487.39,-53.76"/>
</g>
<!-- Node13&#45;&gt;Node15 -->
<g id="edge21" class="edge">
<title>Node13&#45;&gt;Node15</title>
<path fill="none" stroke="midnightblue" d="M439.6,-37.05C462.47,-32.31 487.36,-27.16 508.9,-22.7"/>
<polygon fill="midnightblue" stroke="midnightblue" points="509.78,-26.09 518.86,-20.64 508.36,-19.24 509.78,-26.09"/>
</g>
</g>
</svg>
        <g id="navigator" transform="translate(0 0)" fill="#404254">
                <rect fill="#f2f5e9" fill-opacity="0.5" stroke="#606060" stroke-width=".5" x="0" y="0" width="60" height="60"/>
                <use id="zoomplus" xlink:href="#zoomPlus" x="17" y="9" onmousedown="handleZoom(evt,'in')"/>
                <use id="zoomminus" xlink:href="#zoomMin" x="42" y="9" onmousedown="handleZoom(evt,'out')"/>
                <use id="reset" xlink:href="#resetDef" x="30" y="36" onmousedown="handleReset()"/>
                <g id="arrowUp" xlink:href="#dirArrow" transform="translate(30 24)" onmousedown="handlePan(0,-1)">
                  <use xlink:href="#rim" fill="#404040">
                        <set attributeName="fill" to="#808080" begin="arrowUp.mouseover" end="arrowUp.mouseout"/>
                  </use>
                  <path fill="none" stroke="white" stroke-width="1.5" d="M0,-3.0v7 M-2.5,-0.5L0,-3.0L2.5,-0.5"/>
                </g>
                <g id="arrowRight" xlink:href="#dirArrow" transform="rotate(90) translate(36 -43)" onmousedown="handlePan(1,0)">
                  <use xlink:href="#rim" fill="#404040">
                        <set attributeName="fill" to="#808080" begin="arrowRight.mouseover" end="arrowRight.mouseout"/>
                  </use>
                  <path fill="none" stroke="white" stroke-width="1.5" d="M0,-3.0v7 M-2.5,-0.5L0,-3.0L2.5,-0.5"/>
                </g>
                <g id="arrowDown" xlink:href="#dirArrow" transform="rotate(180) translate(-30 -48)" onmousedown="handlePan(0,1)">
                  <use xlink:href="#rim" fill="#404040">
                        <set attributeName="fill" to="#808080" begin="arrowDown.mouseover" end="arrowDown.mouseout"/>
                  </use>
                  <path fill="none" stroke="white" stroke-width="1.5" d="M0,-3.0v7 M-2.5,-0.5L0,-3.0L2.5,-0.5"/>
                </g>
                <g id="arrowLeft" xlink:href="#dirArrow" transform="rotate(270) translate(-36 17)" onmousedown="handlePan(-1,0)">
                  <use xlink:href="#rim" fill="#404040">
                        <set attributeName="fill" to="#808080" begin="arrowLeft.mouseover" end="arrowLeft.mouseout"/>
                  </use>
                  <path fill="none" stroke="white" stroke-width="1.5" d="M0,-3.0v7 M-2.5,-0.5L0,-3.0L2.5,-0.5"/>
                </g>
        </g>
        <svg viewBox="0 0 15 15" width="100%" height="30px" preserveAspectRatio="xMaxYMin meet">
         <g id="arrow_out" transform="scale(0.3 0.3)">
          <a xlink:href="_u___service_8hpp_ab5c4ad56c0967c7aa59e84c28c445bc6_cgraph_org.svg" target="_base">
           <rect id="button" ry="5" rx="5" y="6" x="6" height="38" width="38"
                fill="#f2f5e9" fill-opacity="0.5" stroke="#606060" stroke-width="1.0"/>
           <path id="arrow"
             d="M 11.500037,31.436501 C 11.940474,20.09759 22.043105,11.32322 32.158766,21.979434 L 37.068811,17.246167 C 37.068811,17.246167 37.088388,32 37.088388,32 L 22.160133,31.978069 C 22.160133,31.978069 26.997745,27.140456 26.997745,27.140456 C 18.528582,18.264221 13.291696,25.230495 11.500037,31.436501 z"
             style="fill:#404040;"/>
          </a>
         </g>
        </svg>
</svg>
