<?xml version="1.0" encoding="UTF-8" standalone="no"?>
<!DOCTYPE svg PUBLIC "-//W3C//DTD SVG 1.1//EN"
 "http://www.w3.org/Graphics/SVG/1.1/DTD/svg11.dtd">
<!-- Generated by graphviz version 4.0.0 (20220529.0937)
 -->
<!-- Title: C:/Users/admin&#45;cyb/Desktop/PI&#45;Defender/Sources/PI&#45;Defender/K_ObCallback.cpp Pages: 1 -->
<!--zoomable 397 -->
<svg id="main" version="1.1" xmlns="http://www.w3.org/2000/svg" xmlns:xlink="http://www.w3.org/1999/xlink" xml:space="preserve" onload="init(evt)">
<style type="text/css"><![CDATA[
.edge:hover path { stroke: red; }
.edge:hover polygon { stroke: red; fill: red; }
]]></style>
<script type="text/javascript"><![CDATA[
var edges = document.getElementsByTagName('g');
if (edges && edges.length) {
  for (var i=0;i<edges.length;i++) {
    if (edges[i].id.substr(0,4)=='edge') {
      edges[i].setAttribute('class','edge');
    }
  }
}
]]></script>
        <defs>
                <circle id="rim" cx="0" cy="0" r="7"/>
                <circle id="rim2" cx="0" cy="0" r="3.5"/>
                <g id="zoomPlus">
                        <use xlink:href="#rim" fill="#404040">
                                <set attributeName="fill" to="#808080" begin="zoomplus.mouseover" end="zoomplus.mouseout"/>
                        </use>
                        <path d="M-4,0h8M0,-4v8" fill="none" stroke="white" stroke-width="1.5" pointer-events="none"/>
                </g>
                <g id="zoomMin">
                        <use xlink:href="#rim" fill="#404040">
                                <set attributeName="fill" to="#808080" begin="zoomminus.mouseover" end="zoomminus.mouseout"/>
                        </use>
                        <path d="M-4,0h8" fill="none" stroke="white" stroke-width="1.5" pointer-events="none"/>
                </g>
                <g id="dirArrow">
                        <path fill="none" stroke="white" stroke-width="1.5" d="M0,-3.0v7 M-2.5,-0.5L0,-3.0L2.5,-0.5"/>
                </g>
               <g id="resetDef">
                       <use xlink:href="#rim2" fill="#404040">
                               <set attributeName="fill" to="#808080" begin="reset.mouseover" end="reset.mouseout"/>
                       </use>
               </g>
        </defs>

<script type="text/javascript">
var viewWidth = 552;
var viewHeight = 397;
var sectionId = 'dynsection-0';
</script>
<script xlink:href="svgpan.js"/>
<svg id="graph" class="graph">
<g id="viewport">
<title>C:/Users/admin&#45;cyb/Desktop/PI&#45;Defender/Sources/PI&#45;Defender/K_ObCallback.cpp</title>
<!-- Node1 -->
<g id="node1" class="node">
<title>Node1</title>
<g id="a_node1"><a xlink:title="Handle request callback.">
<polygon fill="#bfbfbf" stroke="black" points="382.69,-336.5 382.69,-388.5 491.69,-388.5 491.69,-336.5 382.69,-336.5"/>
<text text-anchor="start" x="390.69" y="-376.5" font-family="Helvetica,sans-Serif" font-size="10.00">C:/Users/admin&#45;cyb</text>
<text text-anchor="start" x="390.69" y="-365.5" font-family="Helvetica,sans-Serif" font-size="10.00">/Desktop/PI&#45;Defender</text>
<text text-anchor="start" x="390.69" y="-354.5" font-family="Helvetica,sans-Serif" font-size="10.00">/Sources/PI&#45;Defender</text>
<text text-anchor="middle" x="437.19" y="-343.5" font-family="Helvetica,sans-Serif" font-size="10.00">/K_ObCallback.cpp</text>
</a>
</g>
</g>
<!-- Node2 -->
<g id="node2" class="node">
<title>Node2</title>
<g id="a_node2"><a xlink:href="_k___ob_callback_8hpp.html" target="_top" xlink:title="Header for K_ObCallback.cpp.">
<polygon fill="none" stroke="black" points="330.19,-280.5 330.19,-299.5 428.19,-299.5 428.19,-280.5 330.19,-280.5"/>
<text text-anchor="middle" x="379.19" y="-287.5" font-family="Helvetica,sans-Serif" font-size="10.00">K_ObCallback.hpp</text>
</a>
</g>
</g>
<!-- Node1&#45;&gt;Node2 -->
<g id="edge1" class="edge">
<title>Node1&#45;&gt;Node2</title>
<path fill="none" stroke="midnightblue" d="M416.58,-336.45C408.66,-326.83 399.84,-316.1 392.75,-307.49"/>
<polygon fill="midnightblue" stroke="midnightblue" points="395.4,-305.19 386.34,-299.7 389.99,-309.64 395.4,-305.19"/>
</g>
<!-- Node16 -->
<g id="node16" class="node">
<title>Node16</title>
<g id="a_node16"><a xlink:title=" ">
<polygon fill="none" stroke="#bfbfbf" points="446.19,-280.5 446.19,-299.5 544.19,-299.5 544.19,-280.5 446.19,-280.5"/>
<text text-anchor="middle" x="495.19" y="-287.5" font-family="Helvetica,sans-Serif" font-size="10.00">K_ObCallback.tmh</text>
</a>
</g>
</g>
<!-- Node1&#45;&gt;Node16 -->
<g id="edge22" class="edge">
<title>Node1&#45;&gt;Node16</title>
<path fill="none" stroke="midnightblue" d="M457.8,-336.45C465.71,-326.83 474.54,-316.1 481.62,-307.49"/>
<polygon fill="midnightblue" stroke="midnightblue" points="484.38,-309.64 488.04,-299.7 478.98,-305.19 484.38,-309.64"/>
</g>
<!-- Node3 -->
<g id="node3" class="node">
<title>Node3</title>
<g id="a_node3"><a xlink:href="_k___global_header_8hpp.html" target="_top" xlink:title="Header used by several .cpp files.">
<polygon fill="none" stroke="black" points="259.19,-112.5 259.19,-131.5 365.19,-131.5 365.19,-112.5 259.19,-112.5"/>
<text text-anchor="middle" x="312.19" y="-119.5" font-family="Helvetica,sans-Serif" font-size="10.00">K_GlobalHeader.hpp</text>
</a>
</g>
</g>
<!-- Node2&#45;&gt;Node3 -->
<g id="edge2" class="edge">
<title>Node2&#45;&gt;Node3</title>
<path fill="none" stroke="midnightblue" d="M381.98,-280.24C388.15,-259.07 400.74,-204.2 378.19,-168 369.61,-154.23 355.09,-143.64 341.84,-136.21"/>
<polygon fill="midnightblue" stroke="midnightblue" points="343.45,-133.1 332.97,-131.57 340.21,-139.31 343.45,-133.1"/>
</g>
<!-- Node9 -->
<g id="node9" class="node">
<title>Node9</title>
<g id="a_node9"><a xlink:href="_k___utilitaire_8hpp.html" target="_top" xlink:title="Header for K_Utilitaire.cpp.">
<polygon fill="none" stroke="black" points="416.69,-56.5 416.69,-75.5 499.69,-75.5 499.69,-56.5 416.69,-56.5"/>
<text text-anchor="middle" x="458.19" y="-63.5" font-family="Helvetica,sans-Serif" font-size="10.00">K_Utilitaire.hpp</text>
</a>
</g>
</g>
<!-- Node2&#45;&gt;Node9 -->
<g id="edge12" class="edge">
<title>Node2&#45;&gt;Node9</title>
<path fill="none" stroke="midnightblue" d="M384.74,-280.31C390.23,-271.45 398.6,-257.16 404.19,-244 427.89,-188.19 446,-118.46 453.87,-85.67"/>
<polygon fill="midnightblue" stroke="midnightblue" points="457.34,-86.24 456.23,-75.7 450.52,-84.63 457.34,-86.24"/>
</g>
<!-- Node12 -->
<g id="node12" class="node">
<title>Node12</title>
<g id="a_node12"><a xlink:href="_k___communication_8hpp.html" target="_top" xlink:title="Header for K_Communication.cpp.">
<polygon fill="none" stroke="black" points="41.69,-168.5 41.69,-187.5 156.69,-187.5 156.69,-168.5 41.69,-168.5"/>
<text text-anchor="middle" x="99.19" y="-175.5" font-family="Helvetica,sans-Serif" font-size="10.00">K_Communication.hpp</text>
</a>
</g>
</g>
<!-- Node2&#45;&gt;Node12 -->
<g id="edge13" class="edge">
<title>Node2&#45;&gt;Node12</title>
<path fill="none" stroke="midnightblue" d="M357.14,-280.39C333.98,-271.34 296.52,-256.69 264.19,-244 217.57,-225.7 163.57,-204.41 130.4,-191.32"/>
<polygon fill="midnightblue" stroke="midnightblue" points="131.39,-187.95 120.8,-187.53 128.82,-194.46 131.39,-187.95"/>
</g>
<!-- Node13 -->
<g id="node13" class="node">
<title>Node13</title>
<g id="a_node13"><a xlink:href="_k___configuration_8hpp.html" target="_top" xlink:title="Header for K_Configuration.cpp.">
<polygon fill="none" stroke="black" points="273.19,-224.5 273.19,-243.5 377.19,-243.5 377.19,-224.5 273.19,-224.5"/>
<text text-anchor="middle" x="325.19" y="-231.5" font-family="Helvetica,sans-Serif" font-size="10.00">K_Configuration.hpp</text>
</a>
</g>
</g>
<!-- Node2&#45;&gt;Node13 -->
<g id="edge16" class="edge">
<title>Node2&#45;&gt;Node13</title>
<path fill="none" stroke="midnightblue" d="M370.27,-280.08C362.41,-272.22 350.76,-260.57 341.27,-251.08"/>
<polygon fill="midnightblue" stroke="midnightblue" points="343.49,-248.35 333.94,-243.75 338.54,-253.3 343.49,-248.35"/>
</g>
<!-- Node4 -->
<g id="node4" class="node">
<title>Node4</title>
<g id="a_node4"><a xlink:title=" ">
<polygon fill="none" stroke="#bfbfbf" points="292.69,-56.5 292.69,-75.5 335.69,-75.5 335.69,-56.5 292.69,-56.5"/>
<text text-anchor="middle" x="314.19" y="-63.5" font-family="Helvetica,sans-Serif" font-size="10.00">ntifs.h</text>
</a>
</g>
</g>
<!-- Node3&#45;&gt;Node4 -->
<g id="edge3" class="edge">
<title>Node3&#45;&gt;Node4</title>
<path fill="none" stroke="midnightblue" d="M312.52,-112.08C312.78,-105.01 313.16,-94.86 313.49,-85.99"/>
<polygon fill="midnightblue" stroke="midnightblue" points="316.99,-85.87 313.86,-75.75 310,-85.61 316.99,-85.87"/>
</g>
<!-- Node5 -->
<g id="node5" class="node">
<title>Node5</title>
<g id="a_node5"><a xlink:title=" ">
<polygon fill="none" stroke="#bfbfbf" points="353.69,-56.5 353.69,-75.5 398.69,-75.5 398.69,-56.5 353.69,-56.5"/>
<text text-anchor="middle" x="376.19" y="-63.5" font-family="Helvetica,sans-Serif" font-size="10.00">wdm.h</text>
</a>
</g>
</g>
<!-- Node3&#45;&gt;Node5 -->
<g id="edge4" class="edge">
<title>Node3&#45;&gt;Node5</title>
<path fill="none" stroke="midnightblue" d="M322.47,-112.32C332.03,-104.26 346.47,-92.08 357.97,-82.37"/>
<polygon fill="midnightblue" stroke="midnightblue" points="360.33,-84.96 365.72,-75.83 355.82,-79.61 360.33,-84.96"/>
</g>
<!-- Node6 -->
<g id="node6" class="node">
<title>Node6</title>
<g id="a_node6"><a xlink:title=" ">
<polygon fill="none" stroke="#bfbfbf" points="17.19,-56.5 17.19,-75.5 77.19,-75.5 77.19,-56.5 17.19,-56.5"/>
<text text-anchor="middle" x="47.19" y="-63.5" font-family="Helvetica,sans-Serif" font-size="10.00">fltKernel.h</text>
</a>
</g>
</g>
<!-- Node3&#45;&gt;Node6 -->
<g id="edge5" class="edge">
<title>Node3&#45;&gt;Node6</title>
<path fill="none" stroke="midnightblue" d="M267.08,-112.44C223.55,-104.08 155.52,-90.77 87.44,-76.22"/>
<polygon fill="midnightblue" stroke="midnightblue" points="87.91,-72.74 77.4,-74.07 86.45,-79.59 87.91,-72.74"/>
</g>
<!-- Node7 -->
<g id="node7" class="node">
<title>Node7</title>
<g id="a_node7"><a xlink:title=" ">
<polygon fill="none" stroke="#bfbfbf" points="95.19,-56.5 95.19,-75.5 157.19,-75.5 157.19,-56.5 95.19,-56.5"/>
<text text-anchor="middle" x="126.19" y="-63.5" font-family="Helvetica,sans-Serif" font-size="10.00">ntstrsafe.h</text>
</a>
</g>
</g>
<!-- Node3&#45;&gt;Node7 -->
<g id="edge6" class="edge">
<title>Node3&#45;&gt;Node7</title>
<path fill="none" stroke="midnightblue" d="M282.72,-112.44C251.02,-103.24 200.46,-88.56 165.41,-78.39"/>
<polygon fill="midnightblue" stroke="midnightblue" points="166.1,-74.94 155.52,-75.52 164.15,-81.67 166.1,-74.94"/>
</g>
<!-- Node8 -->
<g id="node8" class="node">
<title>Node8</title>
<g id="a_node8"><a xlink:href="_k___wpp_tracing_8hpp.html" target="_top" xlink:title="WppTracing header.">
<polygon fill="none" stroke="black" points="175.69,-56.5 175.69,-75.5 274.69,-75.5 274.69,-56.5 175.69,-56.5"/>
<text text-anchor="middle" x="225.19" y="-63.5" font-family="Helvetica,sans-Serif" font-size="10.00">K_WppTracing.hpp</text>
</a>
</g>
</g>
<!-- Node3&#45;&gt;Node8 -->
<g id="edge7" class="edge">
<title>Node3&#45;&gt;Node8</title>
<path fill="none" stroke="midnightblue" d="M298.21,-112.32C284.64,-103.9 263.81,-90.97 247.86,-81.07"/>
<polygon fill="midnightblue" stroke="midnightblue" points="249.47,-77.95 239.13,-75.65 245.78,-83.9 249.47,-77.95"/>
</g>
<!-- Node3&#45;&gt;Node9 -->
<g id="edge8" class="edge">
<title>Node3&#45;&gt;Node9</title>
<path fill="none" stroke="midnightblue" d="M330.23,-112.44C352.71,-103.4 391.25,-89.06 420.26,-78.92"/>
<polygon fill="midnightblue" stroke="midnightblue" points="421.78,-82.1 430.08,-75.52 419.49,-75.48 421.78,-82.1"/>
</g>
<!-- Node9&#45;&gt;Node3 -->
<g id="edge9" class="edge">
<title>Node9&#45;&gt;Node3</title>
<path fill="none" stroke="midnightblue" d="M440.24,-75.52C417.72,-84.59 378.94,-99 349.86,-109.17"/>
<polygon fill="midnightblue" stroke="midnightblue" points="348.72,-105.87 340.41,-112.44 351.01,-112.48 348.72,-105.87"/>
</g>
<!-- Node10 -->
<g id="node10" class="node">
<title>Node10</title>
<g id="a_node10"><a xlink:href="_shared_defs_8hpp.html" target="_top" xlink:title="Header file which contains the structures, type definitions, constants, global variablesand function ...">
<polygon fill="none" stroke="black" points="91.19,-0.5 91.19,-19.5 239.19,-19.5 239.19,-0.5 91.19,-0.5"/>
<text text-anchor="middle" x="165.19" y="-7.5" font-family="Helvetica,sans-Serif" font-size="10.00">../SharedDefs/SharedDefs.hpp</text>
</a>
</g>
</g>
<!-- Node9&#45;&gt;Node10 -->
<g id="edge10" class="edge">
<title>Node9&#45;&gt;Node10</title>
<path fill="none" stroke="midnightblue" d="M416.52,-57.32C365.4,-47.9 278.51,-31.89 221.48,-21.38"/>
<polygon fill="midnightblue" stroke="midnightblue" points="222.02,-17.91 211.55,-19.54 220.75,-24.8 222.02,-17.91"/>
</g>
<!-- Node11 -->
<g id="node11" class="node">
<title>Node11</title>
<g id="a_node11"><a xlink:title=" ">
<polygon fill="none" stroke="#bfbfbf" points="432.19,-0.5 432.19,-19.5 484.19,-19.5 484.19,-0.5 432.19,-0.5"/>
<text text-anchor="middle" x="458.19" y="-7.5" font-family="Helvetica,sans-Serif" font-size="10.00">bcrypt.h</text>
</a>
</g>
</g>
<!-- Node9&#45;&gt;Node11 -->
<g id="edge11" class="edge">
<title>Node9&#45;&gt;Node11</title>
<path fill="none" stroke="midnightblue" d="M458.19,-56.08C458.19,-49.01 458.19,-38.86 458.19,-29.99"/>
<polygon fill="midnightblue" stroke="midnightblue" points="461.69,-29.75 458.19,-19.75 454.69,-29.75 461.69,-29.75"/>
</g>
<!-- Node12&#45;&gt;Node3 -->
<g id="edge14" class="edge">
<title>Node12&#45;&gt;Node3</title>
<path fill="none" stroke="midnightblue" d="M132.94,-168.44C169.71,-159.12 228.63,-144.18 268.81,-134"/>
<polygon fill="midnightblue" stroke="midnightblue" points="269.76,-137.37 278.6,-131.52 268.04,-130.58 269.76,-137.37"/>
</g>
<!-- Node12&#45;&gt;Node10 -->
<g id="edge15" class="edge">
<title>Node12&#45;&gt;Node10</title>
<path fill="none" stroke="midnightblue" d="M83.99,-168.49C50.62,-148.72 -23.61,-98.19 8.19,-56 19.66,-40.77 62.41,-29.13 100.4,-21.5"/>
<polygon fill="midnightblue" stroke="midnightblue" points="101.3,-24.89 110.45,-19.55 99.97,-18.02 101.3,-24.89"/>
</g>
<!-- Node13&#45;&gt;Node3 -->
<g id="edge17" class="edge">
<title>Node13&#45;&gt;Node3</title>
<path fill="none" stroke="midnightblue" d="M336.29,-224.48C350.65,-212.35 372.76,-189.21 363.19,-168 357.57,-155.56 346.63,-145.17 336.31,-137.53"/>
<polygon fill="midnightblue" stroke="midnightblue" points="338.15,-134.54 327.92,-131.76 334.18,-140.31 338.15,-134.54"/>
</g>
<!-- Node14 -->
<g id="node14" class="node">
<title>Node14</title>
<g id="a_node14"><a xlink:href="_k___cache_8hpp.html" target="_top" xlink:title="Header for K_Cache.cpp.">
<polygon fill="none" stroke="black" points="174.69,-168.5 174.69,-187.5 249.69,-187.5 249.69,-168.5 174.69,-168.5"/>
<text text-anchor="middle" x="212.19" y="-175.5" font-family="Helvetica,sans-Serif" font-size="10.00">K_Cache.hpp</text>
</a>
</g>
</g>
<!-- Node13&#45;&gt;Node14 -->
<g id="edge18" class="edge">
<title>Node13&#45;&gt;Node14</title>
<path fill="none" stroke="midnightblue" d="M307.28,-224.44C288.93,-215.68 260.18,-201.94 239.1,-191.86"/>
<polygon fill="midnightblue" stroke="midnightblue" points="240.54,-188.67 230.01,-187.52 237.52,-194.99 240.54,-188.67"/>
</g>
<!-- Node15 -->
<g id="node15" class="node">
<title>Node15</title>
<g id="a_node15"><a xlink:href="_k___whitelist_8hpp.html" target="_top" xlink:title="Header for K_Whitelist.cpp.">
<polygon fill="none" stroke="black" points="268.19,-168.5 268.19,-187.5 354.19,-187.5 354.19,-168.5 268.19,-168.5"/>
<text text-anchor="middle" x="311.19" y="-175.5" font-family="Helvetica,sans-Serif" font-size="10.00">K_Whitelist.hpp</text>
</a>
</g>
</g>
<!-- Node13&#45;&gt;Node15 -->
<g id="edge20" class="edge">
<title>Node13&#45;&gt;Node15</title>
<path fill="none" stroke="midnightblue" d="M322.88,-224.08C321.02,-216.93 318.35,-206.64 316.03,-197.69"/>
<polygon fill="midnightblue" stroke="midnightblue" points="319.36,-196.55 313.46,-187.75 312.58,-198.31 319.36,-196.55"/>
</g>
<!-- Node14&#45;&gt;Node3 -->
<g id="edge19" class="edge">
<title>Node14&#45;&gt;Node3</title>
<path fill="none" stroke="midnightblue" d="M228.26,-168.32C244.15,-159.74 268.7,-146.49 287.15,-136.52"/>
<polygon fill="midnightblue" stroke="midnightblue" points="289.03,-139.49 296.16,-131.65 285.7,-133.33 289.03,-139.49"/>
</g>
<!-- Node15&#45;&gt;Node3 -->
<g id="edge21" class="edge">
<title>Node15&#45;&gt;Node3</title>
<path fill="none" stroke="midnightblue" d="M311.35,-168.08C311.49,-161.01 311.67,-150.86 311.84,-141.99"/>
<polygon fill="midnightblue" stroke="midnightblue" points="315.34,-141.81 312.03,-131.75 308.34,-141.68 315.34,-141.81"/>
</g>
</g>
</svg>
        <g id="navigator" transform="translate(0 0)" fill="#404254">
                <rect fill="#f2f5e9" fill-opacity="0.5" stroke="#606060" stroke-width=".5" x="0" y="0" width="60" height="60"/>
                <use id="zoomplus" xlink:href="#zoomPlus" x="17" y="9" onmousedown="handleZoom(evt,'in')"/>
                <use id="zoomminus" xlink:href="#zoomMin" x="42" y="9" onmousedown="handleZoom(evt,'out')"/>
                <use id="reset" xlink:href="#resetDef" x="30" y="36" onmousedown="handleReset()"/>
                <g id="arrowUp" xlink:href="#dirArrow" transform="translate(30 24)" onmousedown="handlePan(0,-1)">
                  <use xlink:href="#rim" fill="#404040">
                        <set attributeName="fill" to="#808080" begin="arrowUp.mouseover" end="arrowUp.mouseout"/>
                  </use>
                  <path fill="none" stroke="white" stroke-width="1.5" d="M0,-3.0v7 M-2.5,-0.5L0,-3.0L2.5,-0.5"/>
                </g>
                <g id="arrowRight" xlink:href="#dirArrow" transform="rotate(90) translate(36 -43)" onmousedown="handlePan(1,0)">
                  <use xlink:href="#rim" fill="#404040">
                        <set attributeName="fill" to="#808080" begin="arrowRight.mouseover" end="arrowRight.mouseout"/>
                  </use>
                  <path fill="none" stroke="white" stroke-width="1.5" d="M0,-3.0v7 M-2.5,-0.5L0,-3.0L2.5,-0.5"/>
                </g>
                <g id="arrowDown" xlink:href="#dirArrow" transform="rotate(180) translate(-30 -48)" onmousedown="handlePan(0,1)">
                  <use xlink:href="#rim" fill="#404040">
                        <set attributeName="fill" to="#808080" begin="arrowDown.mouseover" end="arrowDown.mouseout"/>
                  </use>
                  <path fill="none" stroke="white" stroke-width="1.5" d="M0,-3.0v7 M-2.5,-0.5L0,-3.0L2.5,-0.5"/>
                </g>
                <g id="arrowLeft" xlink:href="#dirArrow" transform="rotate(270) translate(-36 17)" onmousedown="handlePan(-1,0)">
                  <use xlink:href="#rim" fill="#404040">
                        <set attributeName="fill" to="#808080" begin="arrowLeft.mouseover" end="arrowLeft.mouseout"/>
                  </use>
                  <path fill="none" stroke="white" stroke-width="1.5" d="M0,-3.0v7 M-2.5,-0.5L0,-3.0L2.5,-0.5"/>
                </g>
        </g>
        <svg viewBox="0 0 15 15" width="100%" height="30px" preserveAspectRatio="xMaxYMin meet">
         <g id="arrow_out" transform="scale(0.3 0.3)">
          <a xlink:href="_k___ob_callback_8cpp__incl_org.svg" target="_base">
           <rect id="button" ry="5" rx="5" y="6" x="6" height="38" width="38"
                fill="#f2f5e9" fill-opacity="0.5" stroke="#606060" stroke-width="1.0"/>
           <path id="arrow"
             d="M 11.500037,31.436501 C 11.940474,20.09759 22.043105,11.32322 32.158766,21.979434 L 37.068811,17.246167 C 37.068811,17.246167 37.088388,32 37.088388,32 L 22.160133,31.978069 C 22.160133,31.978069 26.997745,27.140456 26.997745,27.140456 C 18.528582,18.264221 13.291696,25.230495 11.500037,31.436501 z"
             style="fill:#404040;"/>
          </a>
         </g>
        </svg>
</svg>
