<?xml version="1.0" encoding="UTF-8" standalone="no"?>
<!DOCTYPE svg PUBLIC "-//W3C//DTD SVG 1.1//EN"
 "http://www.w3.org/Graphics/SVG/1.1/DTD/svg11.dtd">
<!-- Generated by graphviz version 4.0.0 (20220529.0937)
 -->
<!-- Title: DriverEntry Pages: 1 -->
<svg width="1094pt" height="701pt"
 viewBox="0.00 0.00 1094.00 701.00" xmlns="http://www.w3.org/2000/svg" xmlns:xlink="http://www.w3.org/1999/xlink">
<g id="graph0" class="graph" transform="scale(1 1) rotate(0) translate(4 697)">
<title>DriverEntry</title>
<!-- Node1 -->
<g id="node1" class="node">
<title>Node1</title>
<g id="a_node1"><a xlink:title="Main Driver Entry Routine.">
<polygon fill="#bfbfbf" stroke="black" points="0,-309.5 0,-328.5 64,-328.5 64,-309.5 0,-309.5"/>
<text text-anchor="middle" x="32" y="-316.5" font-family="Helvetica,sans-Serif" font-size="10.00">DriverEntry</text>
</a>
</g>
</g>
<!-- Node2 -->
<g id="node2" class="node">
<title>Node2</title>
<g id="a_node2"><a xlink:href="_k___driver_8cpp.html#a551262cb86f3d855ff91a51b2448945f" target="_top" xlink:title="Driver Unloading Routine.">
<polygon fill="none" stroke="black" points="139,-529.5 139,-548.5 210,-548.5 210,-529.5 139,-529.5"/>
<text text-anchor="middle" x="174.5" y="-536.5" font-family="Helvetica,sans-Serif" font-size="10.00">DriverUnload</text>
</a>
</g>
</g>
<!-- Node1&#45;&gt;Node2 -->
<g id="edge1" class="edge">
<title>Node1&#45;&gt;Node2</title>
<path fill="none" stroke="midnightblue" d="M35.97,-328.64C43.83,-353.22 66.86,-419.62 100,-467 115.17,-488.69 137.4,-509.39 153.44,-522.98"/>
<polygon fill="midnightblue" stroke="midnightblue" points="151.26,-525.72 161.19,-529.41 155.73,-520.33 151.26,-525.72"/>
</g>
<!-- Node6 -->
<g id="node6" class="node">
<title>Node6</title>
<g id="a_node6"><a xlink:href="class_k___o_b.html#a21fe4100571040a8d156fa0f045168ea" target="_top" xlink:title="Register the ObCallback routine.">
<polygon fill="none" stroke="black" points="132.5,-438.5 132.5,-457.5 216.5,-457.5 216.5,-438.5 132.5,-438.5"/>
<text text-anchor="middle" x="174.5" y="-445.5" font-family="Helvetica,sans-Serif" font-size="10.00">K_OB::Initialize</text>
</a>
</g>
</g>
<!-- Node1&#45;&gt;Node6 -->
<g id="edge5" class="edge">
<title>Node1&#45;&gt;Node6</title>
<path fill="none" stroke="midnightblue" d="M43.56,-328.7C67.36,-350.55 125.43,-403.86 155.22,-431.21"/>
<polygon fill="midnightblue" stroke="midnightblue" points="153.08,-434.01 162.82,-438.19 157.82,-428.85 153.08,-434.01"/>
</g>
<!-- Node21 -->
<g id="node21" class="node">
<title>Node21</title>
<g id="a_node21"><a xlink:href="class_k___f_i_l_t_e_r.html#a67527d5cd60280cd85245421ee9f657d" target="_top" xlink:title="Initialize the filter.">
<polygon fill="none" stroke="black" points="123.5,-309.5 123.5,-328.5 225.5,-328.5 225.5,-309.5 123.5,-309.5"/>
<text text-anchor="middle" x="174.5" y="-316.5" font-family="Helvetica,sans-Serif" font-size="10.00">K_FILTER::Initialize</text>
</a>
</g>
</g>
<!-- Node1&#45;&gt;Node21 -->
<g id="edge21" class="edge">
<title>Node1&#45;&gt;Node21</title>
<path fill="none" stroke="midnightblue" d="M64.18,-319C78.58,-319 96.18,-319 113.02,-319"/>
<polygon fill="midnightblue" stroke="midnightblue" points="113.37,-322.5 123.37,-319 113.37,-315.5 113.37,-322.5"/>
</g>
<!-- Node27 -->
<g id="node27" class="node">
<title>Node27</title>
<g id="a_node27"><a xlink:href="class_k___f_i_l_t_e_r.html#a8fdd916e469e934c6acd0a72245ca65b" target="_top" xlink:title="Unload the communication &amp; the filter.">
<polygon fill="none" stroke="black" points="344,-252.5 344,-271.5 441,-271.5 441,-252.5 344,-252.5"/>
<text text-anchor="middle" x="392.5" y="-259.5" font-family="Helvetica,sans-Serif" font-size="10.00">K_FILTER::Unload</text>
</a>
</g>
</g>
<!-- Node1&#45;&gt;Node27 -->
<g id="edge38" class="edge">
<title>Node1&#45;&gt;Node27</title>
<path fill="none" stroke="midnightblue" d="M63.12,-309.44C74.57,-306.08 87.8,-302.51 100,-300 180.28,-283.48 274.57,-272.73 333.68,-267.01"/>
<polygon fill="midnightblue" stroke="midnightblue" points="334.31,-270.47 343.94,-266.04 333.65,-263.5 334.31,-270.47"/>
</g>
<!-- Node29 -->
<g id="node29" class="node">
<title>Node29</title>
<g id="a_node29"><a xlink:href="class_k___c_o_n_f_i_g_u_r_a_t_i_o_n.html#aef0897b9b976104c3162254f84211b12" target="_top" xlink:title="Initialize configuration from Registry.">
<polygon fill="none" stroke="black" points="100,-126.5 100,-145.5 249,-145.5 249,-126.5 100,-126.5"/>
<text text-anchor="middle" x="174.5" y="-133.5" font-family="Helvetica,sans-Serif" font-size="10.00">K_CONFIGURATION::Initialize</text>
</a>
</g>
</g>
<!-- Node1&#45;&gt;Node29 -->
<g id="edge29" class="edge">
<title>Node1&#45;&gt;Node29</title>
<path fill="none" stroke="midnightblue" d="M40.36,-309.42C62.73,-280.28 130.21,-192.38 159.59,-154.12"/>
<polygon fill="midnightblue" stroke="midnightblue" points="162.56,-155.99 165.88,-145.93 157.01,-151.73 162.56,-155.99"/>
</g>
<!-- Node3 -->
<g id="node3" class="node">
<title>Node3</title>
<g id="a_node3"><a xlink:href="class_k___c_o_n_f_i_g_u_r_a_t_i_o_n.html#aea522a70a76fab44d00ff8600c7559ef" target="_top" xlink:title="Free previously allocated memory.">
<polygon fill="none" stroke="black" points="321,-620.5 321,-639.5 464,-639.5 464,-620.5 321,-620.5"/>
<text text-anchor="middle" x="392.5" y="-627.5" font-family="Helvetica,sans-Serif" font-size="10.00">K_CONFIGURATION::Unload</text>
</a>
</g>
</g>
<!-- Node2&#45;&gt;Node3 -->
<g id="edge2" class="edge">
<title>Node2&#45;&gt;Node3</title>
<path fill="none" stroke="midnightblue" d="M198.21,-548.57C236.78,-564.82 315.19,-597.85 359.37,-616.46"/>
<polygon fill="midnightblue" stroke="midnightblue" points="358.2,-619.77 368.77,-620.43 360.92,-613.32 358.2,-619.77"/>
</g>
<!-- Node5 -->
<g id="node5" class="node">
<title>Node5</title>
<g id="a_node5"><a xlink:href="class_k___o_b.html#ad3d6ebe0d6cdc7160350668c394db38a" target="_top" xlink:title="Routine used to unload ObCallback.">
<polygon fill="none" stroke="black" points="353,-529.5 353,-548.5 432,-548.5 432,-529.5 353,-529.5"/>
<text text-anchor="middle" x="392.5" y="-536.5" font-family="Helvetica,sans-Serif" font-size="10.00">K_OB::Unload</text>
</a>
</g>
</g>
<!-- Node2&#45;&gt;Node5 -->
<g id="edge4" class="edge">
<title>Node2&#45;&gt;Node5</title>
<path fill="none" stroke="midnightblue" d="M210.2,-539C246.08,-539 302.38,-539 342.72,-539"/>
<polygon fill="midnightblue" stroke="midnightblue" points="342.87,-542.5 352.87,-539 342.87,-535.5 342.87,-542.5"/>
</g>
<!-- Node4 -->
<g id="node4" class="node">
<title>Node4</title>
<g id="a_node4"><a xlink:href="class_k___w_h_i_t_e_l_i_s_t.html#a3d3c671480433a117099facd90d4d498" target="_top" xlink:title="Free previously allocated memory.">
<polygon fill="none" stroke="black" points="573,-673.5 573,-692.5 688,-692.5 688,-673.5 573,-673.5"/>
<text text-anchor="middle" x="630.5" y="-680.5" font-family="Helvetica,sans-Serif" font-size="10.00">K_WHITELIST::Unload</text>
</a>
</g>
</g>
<!-- Node3&#45;&gt;Node4 -->
<g id="edge3" class="edge">
<title>Node3&#45;&gt;Node4</title>
<path fill="none" stroke="midnightblue" d="M431.82,-639.51C460.46,-646.53 500.61,-656.18 536,-664 547.26,-666.49 559.31,-669.03 570.89,-671.4"/>
<polygon fill="midnightblue" stroke="midnightblue" points="570.41,-674.88 580.91,-673.45 571.81,-668.02 570.41,-674.88"/>
</g>
<!-- Node7 -->
<g id="node7" class="node">
<title>Node7</title>
<g id="a_node7"><a xlink:href="class_k___o_b.html#a6b236f7c3b792f31133c3428966a2921" target="_top" xlink:title="We get notify when a process want a handle.">
<polygon fill="none" stroke="black" points="333,-465.5 333,-484.5 452,-484.5 452,-465.5 333,-465.5"/>
<text text-anchor="middle" x="392.5" y="-472.5" font-family="Helvetica,sans-Serif" font-size="10.00">K_OB::_PreObCallback</text>
</a>
</g>
</g>
<!-- Node6&#45;&gt;Node7 -->
<g id="edge6" class="edge">
<title>Node6&#45;&gt;Node7</title>
<path fill="none" stroke="midnightblue" d="M216.64,-453.14C246.6,-456.89 287.9,-462.05 322.83,-466.42"/>
<polygon fill="midnightblue" stroke="midnightblue" points="322.62,-469.92 332.97,-467.68 323.48,-462.97 322.62,-469.92"/>
</g>
<!-- Node8 -->
<g id="node8" class="node">
<title>Node8</title>
<g id="a_node8"><a xlink:href="class_k___o_b.html#adbc9032c14f29ca14460dde65ee71b0d" target="_top" xlink:title="Checks if : .">
<polygon fill="none" stroke="black" points="587,-635.5 587,-654.5 674,-654.5 674,-635.5 587,-635.5"/>
<text text-anchor="middle" x="630.5" y="-642.5" font-family="Helvetica,sans-Serif" font-size="10.00">K_OB::_Checks</text>
</a>
</g>
</g>
<!-- Node7&#45;&gt;Node8 -->
<g id="edge7" class="edge">
<title>Node7&#45;&gt;Node8</title>
<path fill="none" stroke="midnightblue" d="M437.31,-484.51C458.76,-491.19 483.46,-502.22 500,-520 533.89,-556.43 498.66,-593.12 536,-626 547.21,-635.87 562.13,-641.15 576.75,-643.84"/>
<polygon fill="midnightblue" stroke="midnightblue" points="576.37,-647.32 586.77,-645.31 577.39,-640.39 576.37,-647.32"/>
</g>
<!-- Node9 -->
<g id="node9" class="node">
<title>Node9</title>
<g id="a_node9"><a xlink:href="class_k___c_o_n_f_i_g_u_r_a_t_i_o_n.html#a499a9ef09e19ef4cc0827bff8ff04130" target="_top" xlink:title=" ">
<polygon fill="none" stroke="black" points="546,-597.5 546,-616.5 715,-616.5 715,-597.5 546,-597.5"/>
<text text-anchor="middle" x="630.5" y="-604.5" font-family="Helvetica,sans-Serif" font-size="10.00">K_CONFIGURATION::AddToCache</text>
</a>
</g>
</g>
<!-- Node7&#45;&gt;Node9 -->
<g id="edge8" class="edge">
<title>Node7&#45;&gt;Node9</title>
<path fill="none" stroke="midnightblue" d="M432.8,-484.56C454.64,-491.48 481.13,-502.71 500,-520 525.21,-543.1 508.62,-567.52 536,-588 538.36,-589.77 540.85,-591.38 543.43,-592.85"/>
<polygon fill="midnightblue" stroke="midnightblue" points="542.02,-596.06 552.53,-597.33 545.11,-589.78 542.02,-596.06"/>
</g>
<!-- Node12 -->
<g id="node12" class="node">
<title>Node12</title>
<g id="a_node12"><a xlink:href="class_k___u_t_i_l_i_t_a_i_r_e.html#a04500e749540f2f0f34735f5a5542a29" target="_top" xlink:title="Convert NT Path to DOS Path (letter)">
<polygon fill="none" stroke="black" points="557.5,-548 557.5,-578 703.5,-578 703.5,-548 557.5,-548"/>
<text text-anchor="start" x="565.5" y="-566" font-family="Helvetica,sans-Serif" font-size="10.00">K_UTILITAIRE::ConvertNtPath</text>
<text text-anchor="middle" x="630.5" y="-555" font-family="Helvetica,sans-Serif" font-size="10.00">ToDosPath</text>
</a>
</g>
</g>
<!-- Node7&#45;&gt;Node12 -->
<g id="edge11" class="edge">
<title>Node7&#45;&gt;Node12</title>
<path fill="none" stroke="midnightblue" d="M417.38,-484.58C439.09,-493.41 471.92,-507.07 500,-520 516.25,-527.49 519.27,-531.66 536,-538 542.44,-540.44 549.21,-542.74 556.05,-544.88"/>
<polygon fill="midnightblue" stroke="midnightblue" points="555.49,-548.37 566.08,-547.91 557.51,-541.67 555.49,-548.37"/>
</g>
<!-- Node13 -->
<g id="node13" class="node">
<title>Node13</title>
<g id="a_node13"><a xlink:href="class_k___u_t_i_l_i_t_a_i_r_e.html#a256b9ffb749d08ded50470033c7038cc" target="_top" xlink:title="Retrieve the file hash of &quot;FileName&quot;.">
<polygon fill="none" stroke="black" points="561.5,-509.5 561.5,-528.5 699.5,-528.5 699.5,-509.5 561.5,-509.5"/>
<text text-anchor="middle" x="630.5" y="-516.5" font-family="Helvetica,sans-Serif" font-size="10.00">K_UTILITAIRE::GetFileHash</text>
</a>
</g>
</g>
<!-- Node7&#45;&gt;Node13 -->
<g id="edge12" class="edge">
<title>Node7&#45;&gt;Node13</title>
<path fill="none" stroke="midnightblue" d="M444.71,-484.55C481.05,-491.32 529.98,-500.45 568.37,-507.6"/>
<polygon fill="midnightblue" stroke="midnightblue" points="567.92,-511.08 578.39,-509.47 569.2,-504.2 567.92,-511.08"/>
</g>
<!-- Node14 -->
<g id="node14" class="node">
<title>Node14</title>
<g id="a_node14"><a xlink:href="class_k___u_t_i_l_i_t_a_i_r_e.html#add7e1153991b68995c3c05d631c48ed6" target="_top" xlink:title="Get the full image name by providing a handle to a process.">
<polygon fill="none" stroke="black" points="559.5,-460 559.5,-490 701.5,-490 701.5,-460 559.5,-460"/>
<text text-anchor="start" x="567.5" y="-478" font-family="Helvetica,sans-Serif" font-size="10.00">K_UTILITAIRE::GetFullImage</text>
<text text-anchor="middle" x="630.5" y="-467" font-family="Helvetica,sans-Serif" font-size="10.00">NameByHandle</text>
</a>
</g>
</g>
<!-- Node7&#45;&gt;Node14 -->
<g id="edge13" class="edge">
<title>Node7&#45;&gt;Node14</title>
<path fill="none" stroke="midnightblue" d="M452.14,-475C481.46,-475 517.38,-475 549.22,-475"/>
<polygon fill="midnightblue" stroke="midnightblue" points="549.4,-478.5 559.4,-475 549.4,-471.5 549.4,-478.5"/>
</g>
<!-- Node15 -->
<g id="node15" class="node">
<title>Node15</title>
<g id="a_node15"><a xlink:href="class_k___c_o_n_f_i_g_u_r_a_t_i_o_n.html#afb0e428195d7ac67b5685dfb73166d94" target="_top" xlink:title=" ">
<polygon fill="none" stroke="black" points="552.5,-421.5 552.5,-440.5 708.5,-440.5 708.5,-421.5 552.5,-421.5"/>
<text text-anchor="middle" x="630.5" y="-428.5" font-family="Helvetica,sans-Serif" font-size="10.00">K_CONFIGURATION::IsInCache</text>
</a>
</g>
</g>
<!-- Node7&#45;&gt;Node15 -->
<g id="edge14" class="edge">
<title>Node7&#45;&gt;Node15</title>
<path fill="none" stroke="midnightblue" d="M444.71,-465.45C481.05,-458.68 529.98,-449.55 568.37,-442.4"/>
<polygon fill="midnightblue" stroke="midnightblue" points="569.2,-445.8 578.39,-440.53 567.92,-438.92 569.2,-445.8"/>
</g>
<!-- Node17 -->
<g id="node17" class="node">
<title>Node17</title>
<g id="a_node17"><a xlink:href="class_k___c_o_n_f_i_g_u_r_a_t_i_o_n.html#aa0eade5fe406c90f04b739bf85e098f5" target="_top" xlink:title=" ">
<polygon fill="none" stroke="black" points="547,-383.5 547,-402.5 714,-402.5 714,-383.5 547,-383.5"/>
<text text-anchor="middle" x="630.5" y="-390.5" font-family="Helvetica,sans-Serif" font-size="10.00">K_CONFIGURATION::IsInWhitelist</text>
</a>
</g>
</g>
<!-- Node7&#45;&gt;Node17 -->
<g id="edge17" class="edge">
<title>Node7&#45;&gt;Node17</title>
<path fill="none" stroke="midnightblue" d="M411.9,-465.32C438.58,-451.64 489.87,-426.7 536,-412 544.58,-409.27 553.73,-406.84 562.82,-404.71"/>
<polygon fill="midnightblue" stroke="midnightblue" points="563.64,-408.11 572.63,-402.51 562.11,-401.28 563.64,-408.11"/>
</g>
<!-- Node20 -->
<g id="node20" class="node">
<title>Node20</title>
<g id="a_node20"><a xlink:href="class_k___c_o_m_m_u_n_i_c_a_t_i_o_n.html#a896b333aee4306520563c138c09f7b4e" target="_top" xlink:title="This function is used to send Data to the User&#45;Mode service.">
<polygon fill="none" stroke="black" points="561,-345.5 561,-364.5 700,-364.5 700,-345.5 561,-345.5"/>
<text text-anchor="middle" x="630.5" y="-352.5" font-family="Helvetica,sans-Serif" font-size="10.00">K_COMMUNICATION::Send</text>
</a>
</g>
</g>
<!-- Node7&#45;&gt;Node20 -->
<g id="edge20" class="edge">
<title>Node7&#45;&gt;Node20</title>
<path fill="none" stroke="midnightblue" d="M405.66,-465.38C434.7,-442.57 507.75,-386.23 536,-374 541.89,-371.45 548.13,-369.24 554.49,-367.32"/>
<polygon fill="midnightblue" stroke="midnightblue" points="555.84,-370.58 564.54,-364.54 553.97,-363.83 555.84,-370.58"/>
</g>
<!-- Node10 -->
<g id="node10" class="node">
<title>Node10</title>
<g id="a_node10"><a xlink:href="class_k___c_a_c_h_e.html#a785a988fa6c22e5a7626afe75bd447e3" target="_top" xlink:title="Add a Hash in the Cache and remember if it is signed or not.">
<polygon fill="none" stroke="black" points="789,-529.5 789,-548.5 875,-548.5 875,-529.5 789,-529.5"/>
<text text-anchor="middle" x="832" y="-536.5" font-family="Helvetica,sans-Serif" font-size="10.00">K_CACHE::Add</text>
</a>
</g>
</g>
<!-- Node9&#45;&gt;Node10 -->
<g id="edge9" class="edge">
<title>Node9&#45;&gt;Node10</title>
<path fill="none" stroke="midnightblue" d="M689.41,-597.42C701.31,-594.84 713.67,-591.71 725,-588 753.07,-578.8 783.52,-564.2 804.55,-553.33"/>
<polygon fill="midnightblue" stroke="midnightblue" points="806.28,-556.37 813.51,-548.63 803.03,-550.18 806.28,-556.37"/>
</g>
<!-- Node11 -->
<g id="node11" class="node">
<title>Node11</title>
<g id="a_node11"><a xlink:href="class_k___c_a_c_h_e.html#a2a803e7f4af2e18b582ccc4f2b9f747a" target="_top" xlink:title="Set &quot;pbIsOk&quot; to TRUE if cache contains specified Hash, FALSE otherwise.">
<polygon fill="none" stroke="black" points="939,-478.5 939,-497.5 1086,-497.5 1086,-478.5 939,-478.5"/>
<text text-anchor="middle" x="1012.5" y="-485.5" font-family="Helvetica,sans-Serif" font-size="10.00">K_CACHE::_GetCachedValue</text>
</a>
</g>
</g>
<!-- Node10&#45;&gt;Node11 -->
<g id="edge10" class="edge">
<title>Node10&#45;&gt;Node11</title>
<path fill="none" stroke="midnightblue" d="M866.57,-529.41C895.37,-521.18 937.04,-509.27 968.32,-500.34"/>
<polygon fill="midnightblue" stroke="midnightblue" points="969.42,-503.66 978.08,-497.55 967.5,-496.93 969.42,-503.66"/>
</g>
<!-- Node16 -->
<g id="node16" class="node">
<title>Node16</title>
<g id="a_node16"><a xlink:href="class_k___c_a_c_h_e.html#a98344c274506318cf85edd7debb5de80" target="_top" xlink:title="Set bIsOk to TRUE if cache contains specified Hash, FALSE otherwise.">
<polygon fill="none" stroke="black" points="761,-424.5 761,-443.5 903,-443.5 903,-424.5 761,-424.5"/>
<text text-anchor="middle" x="832" y="-431.5" font-family="Helvetica,sans-Serif" font-size="10.00">K_CACHE::GetCachedValue</text>
</a>
</g>
</g>
<!-- Node15&#45;&gt;Node16 -->
<g id="edge15" class="edge">
<title>Node15&#45;&gt;Node16</title>
<path fill="none" stroke="midnightblue" d="M708.63,-432.16C722.48,-432.37 736.95,-432.59 750.89,-432.8"/>
<polygon fill="midnightblue" stroke="midnightblue" points="750.87,-436.3 760.92,-432.95 750.98,-429.3 750.87,-436.3"/>
</g>
<!-- Node16&#45;&gt;Node11 -->
<g id="edge16" class="edge">
<title>Node16&#45;&gt;Node11</title>
<path fill="none" stroke="midnightblue" d="M864.5,-443.53C893.98,-452.45 938.19,-465.82 970.42,-475.57"/>
<polygon fill="midnightblue" stroke="midnightblue" points="969.43,-478.93 980.01,-478.47 971.46,-472.23 969.43,-478.93"/>
</g>
<!-- Node18 -->
<g id="node18" class="node">
<title>Node18</title>
<g id="a_node18"><a xlink:href="class_k___w_h_i_t_e_l_i_s_t.html#a0002133cb46ec30f7f0044eecc5c58a9" target="_top" xlink:title="Check if whitelist contains provided string.">
<polygon fill="none" stroke="black" points="763,-383.5 763,-402.5 901,-402.5 901,-383.5 763,-383.5"/>
<text text-anchor="middle" x="832" y="-390.5" font-family="Helvetica,sans-Serif" font-size="10.00">K_WHITELIST::IsInWhitelist</text>
</a>
</g>
</g>
<!-- Node17&#45;&gt;Node18 -->
<g id="edge18" class="edge">
<title>Node17&#45;&gt;Node18</title>
<path fill="none" stroke="midnightblue" d="M714.08,-393C726.86,-393 740.02,-393 752.69,-393"/>
<polygon fill="midnightblue" stroke="midnightblue" points="752.73,-396.5 762.73,-393 752.73,-389.5 752.73,-396.5"/>
</g>
<!-- Node19 -->
<g id="node19" class="node">
<title>Node19</title>
<g id="a_node19"><a xlink:href="class_k___u_t_i_l_i_t_a_i_r_e.html#aadb9afab0bf42478750a9332ff264f77" target="_top" xlink:title="Remake of PathCchRemoveFileSpec available in kernel&#45;mode.">
<polygon fill="none" stroke="black" points="940,-378 940,-408 1085,-408 1085,-378 940,-378"/>
<text text-anchor="start" x="948" y="-396" font-family="Helvetica,sans-Serif" font-size="10.00">K_UTILITAIRE::MyNtPathCch</text>
<text text-anchor="middle" x="1012.5" y="-385" font-family="Helvetica,sans-Serif" font-size="10.00">RemoveFileSpec</text>
</a>
</g>
</g>
<!-- Node18&#45;&gt;Node19 -->
<g id="edge19" class="edge">
<title>Node18&#45;&gt;Node19</title>
<path fill="none" stroke="midnightblue" d="M901.25,-393C910.5,-393 920.07,-393 929.53,-393"/>
<polygon fill="midnightblue" stroke="midnightblue" points="929.73,-396.5 939.73,-393 929.73,-389.5 929.73,-396.5"/>
</g>
<!-- Node22 -->
<g id="node22" class="node">
<title>Node22</title>
<g id="a_node22"><a xlink:href="class_k___c_o_n_f_i_g_u_r_a_t_i_o_n.html#a834e0751914de6a38db6a4c7544062d1" target="_top" xlink:title=" ">
<polygon fill="none" stroke="black" points="285,-366.5 285,-385.5 500,-385.5 500,-366.5 285,-366.5"/>
<text text-anchor="middle" x="392.5" y="-373.5" font-family="Helvetica,sans-Serif" font-size="10.00">K_CONFIGURATION::GetCommunicationPort</text>
</a>
</g>
</g>
<!-- Node21&#45;&gt;Node22 -->
<g id="edge22" class="edge">
<title>Node21&#45;&gt;Node22</title>
<path fill="none" stroke="midnightblue" d="M199.52,-328.56C221.48,-337.01 255.02,-349.17 285,-357 295.82,-359.82 307.37,-362.36 318.73,-364.6"/>
<polygon fill="midnightblue" stroke="midnightblue" points="318.16,-368.05 328.63,-366.48 319.46,-361.17 318.16,-368.05"/>
</g>
<!-- Node23 -->
<g id="node23" class="node">
<title>Node23</title>
<g id="a_node23"><a xlink:href="class_k___c_o_n_f_i_g_u_r_a_t_i_o_n.html#af798bb1ed7052bdfb257d471afbcec59" target="_top" xlink:title=" ">
<polygon fill="none" stroke="black" points="303.5,-328.5 303.5,-347.5 481.5,-347.5 481.5,-328.5 303.5,-328.5"/>
<text text-anchor="middle" x="392.5" y="-335.5" font-family="Helvetica,sans-Serif" font-size="10.00">K_CONFIGURATION::GetMaxClients</text>
</a>
</g>
</g>
<!-- Node21&#45;&gt;Node23 -->
<g id="edge23" class="edge">
<title>Node21&#45;&gt;Node23</title>
<path fill="none" stroke="midnightblue" d="M225.6,-323.41C245.77,-325.18 269.77,-327.29 293.16,-329.35"/>
<polygon fill="midnightblue" stroke="midnightblue" points="292.87,-332.84 303.14,-330.23 293.48,-325.86 292.87,-332.84"/>
</g>
<!-- Node24 -->
<g id="node24" class="node">
<title>Node24</title>
<g id="a_node24"><a xlink:href="class_k___c_o_m_m_u_n_i_c_a_t_i_o_n.html#afa2b920efeb5d740d33f1ff7d443059f" target="_top" xlink:title="Initialize the communicaton.">
<polygon fill="none" stroke="black" points="316.5,-290.5 316.5,-309.5 468.5,-309.5 468.5,-290.5 316.5,-290.5"/>
<text text-anchor="middle" x="392.5" y="-297.5" font-family="Helvetica,sans-Serif" font-size="10.00">K_COMMUNICATION::Initialize</text>
</a>
</g>
</g>
<!-- Node21&#45;&gt;Node24 -->
<g id="edge24" class="edge">
<title>Node21&#45;&gt;Node24</title>
<path fill="none" stroke="midnightblue" d="M225.6,-314.59C249.57,-312.48 278.95,-309.9 306.29,-307.5"/>
<polygon fill="midnightblue" stroke="midnightblue" points="306.6,-310.98 316.26,-306.62 305.99,-304.01 306.6,-310.98"/>
</g>
<!-- Node21&#45;&gt;Node27 -->
<g id="edge27" class="edge">
<title>Node21&#45;&gt;Node27</title>
<path fill="none" stroke="midnightblue" d="M199.52,-309.44C221.48,-300.99 255.02,-288.83 285,-281 300.65,-276.91 317.83,-273.43 333.73,-270.6"/>
<polygon fill="midnightblue" stroke="midnightblue" points="334.71,-273.98 343.97,-268.84 333.52,-267.08 334.71,-273.98"/>
</g>
<!-- Node25 -->
<g id="node25" class="node">
<title>Node25</title>
<g id="a_node25"><a xlink:href="class_k___c_o_m_m_u_n_i_c_a_t_i_o_n.html#ab17f1e4ceb87f15d2698859cc66f637f" target="_top" xlink:title="The disconnection notify callback is called when a user mode application disconnect from the server p...">
<polygon fill="none" stroke="black" points="539,-296 539,-326 722,-326 722,-296 539,-296"/>
<text text-anchor="start" x="547" y="-314" font-family="Helvetica,sans-Serif" font-size="10.00">K_COMMUNICATION::_Disconnection</text>
<text text-anchor="middle" x="630.5" y="-303" font-family="Helvetica,sans-Serif" font-size="10.00">Callback</text>
</a>
</g>
</g>
<!-- Node24&#45;&gt;Node25 -->
<g id="edge25" class="edge">
<title>Node24&#45;&gt;Node25</title>
<path fill="none" stroke="midnightblue" d="M468.82,-303.51C487.86,-304.4 508.62,-305.37 528.69,-306.3"/>
<polygon fill="midnightblue" stroke="midnightblue" points="528.65,-309.8 538.8,-306.77 528.97,-302.81 528.65,-309.8"/>
</g>
<!-- Node26 -->
<g id="node26" class="node">
<title>Node26</title>
<g id="a_node26"><a xlink:href="class_k___c_o_m_m_u_n_i_c_a_t_i_o_n.html#adc988a77deb3241099ddcebf06cf3af8" target="_top" xlink:title="The connection notify callback is called when a user mode application connect to the server port.">
<polygon fill="none" stroke="black" points="536,-247 536,-277 725,-277 725,-247 536,-247"/>
<text text-anchor="start" x="544" y="-265" font-family="Helvetica,sans-Serif" font-size="10.00">K_COMMUNICATION::_NewConnection</text>
<text text-anchor="middle" x="630.5" y="-254" font-family="Helvetica,sans-Serif" font-size="10.00">Callback</text>
</a>
</g>
</g>
<!-- Node24&#45;&gt;Node26 -->
<g id="edge26" class="edge">
<title>Node24&#45;&gt;Node26</title>
<path fill="none" stroke="midnightblue" d="M452.75,-290.46C475.05,-286.87 501.11,-282.67 526.25,-278.62"/>
<polygon fill="midnightblue" stroke="midnightblue" points="526.89,-282.07 536.21,-277.02 525.78,-275.16 526.89,-282.07"/>
</g>
<!-- Node28 -->
<g id="node28" class="node">
<title>Node28</title>
<g id="a_node28"><a xlink:href="class_k___c_o_m_m_u_n_i_c_a_t_i_o_n.html#a53e190b73eab90e5fb6bfc07c8fe934f" target="_top" xlink:title="Unload the communication.">
<polygon fill="none" stroke="black" points="557.5,-208.5 557.5,-227.5 703.5,-227.5 703.5,-208.5 557.5,-208.5"/>
<text text-anchor="middle" x="630.5" y="-215.5" font-family="Helvetica,sans-Serif" font-size="10.00">K_COMMUNICATION::Unload</text>
</a>
</g>
</g>
<!-- Node27&#45;&gt;Node28 -->
<g id="edge28" class="edge">
<title>Node27&#45;&gt;Node28</title>
<path fill="none" stroke="midnightblue" d="M441.26,-253.1C477.81,-246.28 528.5,-236.83 568.07,-229.45"/>
<polygon fill="midnightblue" stroke="midnightblue" points="568.94,-232.85 578.13,-227.58 567.66,-225.97 568.94,-232.85"/>
</g>
<!-- Node30 -->
<g id="node30" class="node">
<title>Node30</title>
<g id="a_node30"><a xlink:href="class_k___c_a_c_h_e.html#a85480c0051eb20e2188f5ff40d3debee" target="_top" xlink:title="Set maximum size of Cache and initialize mutex.">
<polygon fill="none" stroke="black" points="340.5,-202.5 340.5,-221.5 444.5,-221.5 444.5,-202.5 340.5,-202.5"/>
<text text-anchor="middle" x="392.5" y="-209.5" font-family="Helvetica,sans-Serif" font-size="10.00">K_CACHE::Initialize</text>
</a>
</g>
</g>
<!-- Node29&#45;&gt;Node30 -->
<g id="edge30" class="edge">
<title>Node29&#45;&gt;Node30</title>
<path fill="none" stroke="midnightblue" d="M190.44,-145.66C210.93,-158.46 249.29,-180.84 285,-193 299.3,-197.87 315.13,-201.56 330.11,-204.32"/>
<polygon fill="midnightblue" stroke="midnightblue" points="329.87,-207.83 340.32,-206.09 331.07,-200.93 329.87,-207.83"/>
</g>
<!-- Node31 -->
<g id="node31" class="node">
<title>Node31</title>
<g id="a_node31"><a xlink:href="class_k___w_h_i_t_e_l_i_s_t.html#a1932a532f12efb5c5ce142933536d0ad" target="_top" xlink:title="Set maximum size of Cache and initialize mutex.">
<polygon fill="none" stroke="black" points="332.5,-164.5 332.5,-183.5 452.5,-183.5 452.5,-164.5 332.5,-164.5"/>
<text text-anchor="middle" x="392.5" y="-171.5" font-family="Helvetica,sans-Serif" font-size="10.00">K_WHITELIST::Initialize</text>
</a>
</g>
</g>
<!-- Node29&#45;&gt;Node31 -->
<g id="edge31" class="edge">
<title>Node29&#45;&gt;Node31</title>
<path fill="none" stroke="midnightblue" d="M229.73,-145.54C259.38,-150.76 296.3,-157.25 327.38,-162.72"/>
<polygon fill="midnightblue" stroke="midnightblue" points="326.8,-166.17 337.25,-164.46 328.01,-159.28 326.8,-166.17"/>
</g>
<!-- Node34 -->
<g id="node34" class="node">
<title>Node34</title>
<g id="a_node34"><a xlink:href="class_k___u_t_i_l_i_t_a_i_r_e.html#a2bb4656fb57aaaf242dce4841cfcf3a5" target="_top" xlink:title="Returns TRUE if the passed _KEY_VALUE_PARTIAL_INFORMATION structure extracted from the Registry conta...">
<polygon fill="none" stroke="black" points="323,-126.5 323,-145.5 462,-145.5 462,-126.5 323,-126.5"/>
<text text-anchor="middle" x="392.5" y="-133.5" font-family="Helvetica,sans-Serif" font-size="10.00">K_UTILITAIRE::IsValidString</text>
</a>
</g>
</g>
<!-- Node29&#45;&gt;Node34 -->
<g id="edge34" class="edge">
<title>Node29&#45;&gt;Node34</title>
<path fill="none" stroke="midnightblue" d="M249.23,-136C269.71,-136 292.03,-136 312.78,-136"/>
<polygon fill="midnightblue" stroke="midnightblue" points="312.83,-139.5 322.83,-136 312.83,-132.5 312.83,-139.5"/>
</g>
<!-- Node35 -->
<g id="node35" class="node">
<title>Node35</title>
<g id="a_node35"><a xlink:href="class_k___u_t_i_l_i_t_a_i_r_e.html#a74a9a8166861c8b2f8cd1ce816030e59" target="_top" xlink:title="Returns TRUE if the passed _KEY_VALUE_PARTIAL_INFORMATION structure extracted from the Registry conta...">
<polygon fill="none" stroke="black" points="323,-77 323,-107 462,-107 462,-77 323,-77"/>
<text text-anchor="start" x="331" y="-95" font-family="Helvetica,sans-Serif" font-size="10.00">K_UTILITAIRE::IsValidString</text>
<text text-anchor="middle" x="392.5" y="-84" font-family="Helvetica,sans-Serif" font-size="10.00">Array</text>
</a>
</g>
</g>
<!-- Node29&#45;&gt;Node35 -->
<g id="edge35" class="edge">
<title>Node29&#45;&gt;Node35</title>
<path fill="none" stroke="midnightblue" d="M222.37,-126.45C248.79,-121.07 282.49,-114.21 312.84,-108.02"/>
<polygon fill="midnightblue" stroke="midnightblue" points="313.89,-111.38 322.99,-105.96 312.49,-104.52 313.89,-111.38"/>
</g>
<!-- Node36 -->
<g id="node36" class="node">
<title>Node36</title>
<g id="a_node36"><a xlink:href="class_k___u_t_i_l_i_t_a_i_r_e.html#ac0ef6d450ccad1191414cd7551723e5d" target="_top" xlink:title="Wrapper for ZwOpenKey .">
<polygon fill="none" stroke="black" points="317.5,-38.5 317.5,-57.5 467.5,-57.5 467.5,-38.5 317.5,-38.5"/>
<text text-anchor="middle" x="392.5" y="-45.5" font-family="Helvetica,sans-Serif" font-size="10.00">K_UTILITAIRE::MyZwOpenKey</text>
</a>
</g>
</g>
<!-- Node29&#45;&gt;Node36 -->
<g id="edge36" class="edge">
<title>Node29&#45;&gt;Node36</title>
<path fill="none" stroke="midnightblue" d="M187.15,-126.49C206.31,-111.36 246.24,-82.01 285,-67 292.2,-64.21 299.84,-61.83 307.59,-59.79"/>
<polygon fill="midnightblue" stroke="midnightblue" points="308.55,-63.16 317.44,-57.39 306.89,-56.36 308.55,-63.16"/>
</g>
<!-- Node37 -->
<g id="node37" class="node">
<title>Node37</title>
<g id="a_node37"><a xlink:href="class_k___u_t_i_l_i_t_a_i_r_e.html#a1e6236708e8f0490c13b4ebd7752cacd" target="_top" xlink:title="Wrapper for ZwQueryValueKey.">
<polygon fill="none" stroke="black" points="303.5,-0.5 303.5,-19.5 481.5,-19.5 481.5,-0.5 303.5,-0.5"/>
<text text-anchor="middle" x="392.5" y="-7.5" font-family="Helvetica,sans-Serif" font-size="10.00">K_UTILITAIRE::MyZwQueryValueKey</text>
</a>
</g>
</g>
<!-- Node29&#45;&gt;Node37 -->
<g id="edge37" class="edge">
<title>Node29&#45;&gt;Node37</title>
<path fill="none" stroke="midnightblue" d="M182.14,-126.37C197.49,-104.95 237.73,-53.32 285,-29 289.58,-26.64 294.4,-24.57 299.36,-22.76"/>
<polygon fill="midnightblue" stroke="midnightblue" points="300.63,-26.02 309.03,-19.56 298.44,-19.37 300.63,-26.02"/>
</g>
<!-- Node32 -->
<g id="node32" class="node">
<title>Node32</title>
<g id="a_node32"><a xlink:href="class_k___u_t_i_l_i_t_a_i_r_e.html#a98e7806ad180b50600ded0f2cfbe7721" target="_top" xlink:title="Returns the number of Unicode strings found in a buffer (raw data from REG_MULTI_SZ).">
<polygon fill="none" stroke="black" points="555.5,-159 555.5,-189 705.5,-189 705.5,-159 555.5,-159"/>
<text text-anchor="start" x="563.5" y="-177" font-family="Helvetica,sans-Serif" font-size="10.00">K_UTILITAIRE::CountWStrings</text>
<text text-anchor="middle" x="630.5" y="-166" font-family="Helvetica,sans-Serif" font-size="10.00">InBuffer</text>
</a>
</g>
</g>
<!-- Node31&#45;&gt;Node32 -->
<g id="edge32" class="edge">
<title>Node31&#45;&gt;Node32</title>
<path fill="none" stroke="midnightblue" d="M452.75,-174C480.72,-174 514.6,-174 545.18,-174"/>
<polygon fill="midnightblue" stroke="midnightblue" points="545.42,-177.5 555.42,-174 545.42,-170.5 545.42,-177.5"/>
</g>
<!-- Node33 -->
<g id="node33" class="node">
<title>Node33</title>
<g id="a_node33"><a xlink:href="class_k___u_t_i_l_i_t_a_i_r_e.html#a23d61cfecbdbc066af919da96cd175cd" target="_top" xlink:title="Translate a DOS path into a NT path.">
<polygon fill="none" stroke="black" points="550.5,-120.5 550.5,-139.5 710.5,-139.5 710.5,-120.5 550.5,-120.5"/>
<text text-anchor="middle" x="630.5" y="-127.5" font-family="Helvetica,sans-Serif" font-size="10.00">K_UTILITAIRE::DosPathtoNtPath</text>
</a>
</g>
</g>
<!-- Node31&#45;&gt;Node33 -->
<g id="edge33" class="edge">
<title>Node31&#45;&gt;Node33</title>
<path fill="none" stroke="midnightblue" d="M447.71,-164.48C464.48,-161.5 483.01,-158.16 500,-155 523.23,-150.69 548.78,-145.79 571,-141.48"/>
<polygon fill="midnightblue" stroke="midnightblue" points="571.8,-144.89 580.95,-139.54 570.47,-138.01 571.8,-144.89"/>
</g>
</g>
</svg>
