<?xml version="1.0" encoding="UTF-8" standalone="no"?>
<!DOCTYPE svg PUBLIC "-//W3C//DTD SVG 1.1//EN"
 "http://www.w3.org/Graphics/SVG/1.1/DTD/svg11.dtd">
<!-- Generated by graphviz version 4.0.0 (20220529.0937)
 -->
<!-- Title: C:/Users/admin&#45;cyb/Desktop/PI&#45;Defender/Sources/PI&#45;Defender/K_Communication.hpp Pages: 1 -->
<svg width="594pt" height="229pt"
 viewBox="0.00 0.00 593.50 229.00" xmlns="http://www.w3.org/2000/svg" xmlns:xlink="http://www.w3.org/1999/xlink">
<g id="graph0" class="graph" transform="scale(1 1) rotate(0) translate(4 225)">
<title>C:/Users/admin&#45;cyb/Desktop/PI&#45;Defender/Sources/PI&#45;Defender/K_Communication.hpp</title>
<!-- Node1 -->
<g id="node1" class="node">
<title>Node1</title>
<g id="a_node1"><a xlink:title="Header for K_Communication.cpp.">
<polygon fill="#bfbfbf" stroke="black" points="313.5,-168.5 313.5,-220.5 431.5,-220.5 431.5,-168.5 313.5,-168.5"/>
<text text-anchor="start" x="321.5" y="-208.5" font-family="Helvetica,sans-Serif" font-size="10.00">C:/Users/admin&#45;cyb</text>
<text text-anchor="start" x="321.5" y="-197.5" font-family="Helvetica,sans-Serif" font-size="10.00">/Desktop/PI&#45;Defender</text>
<text text-anchor="start" x="321.5" y="-186.5" font-family="Helvetica,sans-Serif" font-size="10.00">/Sources/PI&#45;Defender</text>
<text text-anchor="middle" x="372.5" y="-175.5" font-family="Helvetica,sans-Serif" font-size="10.00">/K_Communication.hpp</text>
</a>
</g>
</g>
<!-- Node2 -->
<g id="node2" class="node">
<title>Node2</title>
<g id="a_node2"><a xlink:href="_k___global_header_8hpp.html" target="_top" xlink:title="Header used by several .cpp files.">
<polygon fill="none" stroke="black" points="230.5,-112.5 230.5,-131.5 336.5,-131.5 336.5,-112.5 230.5,-112.5"/>
<text text-anchor="middle" x="283.5" y="-119.5" font-family="Helvetica,sans-Serif" font-size="10.00">K_GlobalHeader.hpp</text>
</a>
</g>
</g>
<!-- Node1&#45;&gt;Node2 -->
<g id="edge1" class="edge">
<title>Node1&#45;&gt;Node2</title>
<path fill="none" stroke="midnightblue" d="M340.87,-168.45C328.1,-158.33 313.78,-146.98 302.64,-138.16"/>
<polygon fill="midnightblue" stroke="midnightblue" points="304.49,-135.16 294.48,-131.7 300.14,-140.65 304.49,-135.16"/>
</g>
<!-- Node9 -->
<g id="node9" class="node">
<title>Node9</title>
<g id="a_node9"><a xlink:href="_shared_defs_8hpp.html" target="_top" xlink:title="Header file which contains the structures, type definitions, constants, global variablesand function ...">
<polygon fill="none" stroke="black" points="437.5,-0.5 437.5,-19.5 585.5,-19.5 585.5,-0.5 437.5,-0.5"/>
<text text-anchor="middle" x="511.5" y="-7.5" font-family="Helvetica,sans-Serif" font-size="10.00">../SharedDefs/SharedDefs.hpp</text>
</a>
</g>
</g>
<!-- Node1&#45;&gt;Node9 -->
<g id="edge11" class="edge">
<title>Node1&#45;&gt;Node9</title>
<path fill="none" stroke="midnightblue" d="M405.73,-168.46C432.44,-146.73 469.07,-112.99 491.5,-76 500.2,-61.65 505.41,-43.18 508.32,-29.61"/>
<polygon fill="midnightblue" stroke="midnightblue" points="511.8,-30.03 510.25,-19.55 504.93,-28.71 511.8,-30.03"/>
</g>
<!-- Node3 -->
<g id="node3" class="node">
<title>Node3</title>
<g id="a_node3"><a xlink:title=" ">
<polygon fill="none" stroke="#bfbfbf" points="0,-56.5 0,-75.5 43,-75.5 43,-56.5 0,-56.5"/>
<text text-anchor="middle" x="21.5" y="-63.5" font-family="Helvetica,sans-Serif" font-size="10.00">ntifs.h</text>
</a>
</g>
</g>
<!-- Node2&#45;&gt;Node3 -->
<g id="edge2" class="edge">
<title>Node2&#45;&gt;Node3</title>
<path fill="none" stroke="midnightblue" d="M231.58,-112.46C186.56,-104.71 119.5,-92.34 52.88,-76.16"/>
<polygon fill="midnightblue" stroke="midnightblue" points="53.61,-72.74 43.06,-73.75 51.93,-79.53 53.61,-72.74"/>
</g>
<!-- Node4 -->
<g id="node4" class="node">
<title>Node4</title>
<g id="a_node4"><a xlink:title=" ">
<polygon fill="none" stroke="#bfbfbf" points="61,-56.5 61,-75.5 106,-75.5 106,-56.5 61,-56.5"/>
<text text-anchor="middle" x="83.5" y="-63.5" font-family="Helvetica,sans-Serif" font-size="10.00">wdm.h</text>
</a>
</g>
</g>
<!-- Node2&#45;&gt;Node4 -->
<g id="edge3" class="edge">
<title>Node2&#45;&gt;Node4</title>
<path fill="none" stroke="midnightblue" d="M251.26,-112.49C219.4,-104.06 169.01,-90.64 116.12,-76.14"/>
<polygon fill="midnightblue" stroke="midnightblue" points="116.79,-72.7 106.22,-73.43 114.93,-79.45 116.79,-72.7"/>
</g>
<!-- Node5 -->
<g id="node5" class="node">
<title>Node5</title>
<g id="a_node5"><a xlink:title=" ">
<polygon fill="none" stroke="#bfbfbf" points="124.5,-56.5 124.5,-75.5 184.5,-75.5 184.5,-56.5 124.5,-56.5"/>
<text text-anchor="middle" x="154.5" y="-63.5" font-family="Helvetica,sans-Serif" font-size="10.00">fltKernel.h</text>
</a>
</g>
</g>
<!-- Node2&#45;&gt;Node5 -->
<g id="edge4" class="edge">
<title>Node2&#45;&gt;Node5</title>
<path fill="none" stroke="midnightblue" d="M263.06,-112.44C241.83,-103.56 208.4,-89.56 184.25,-79.45"/>
<polygon fill="midnightblue" stroke="midnightblue" points="185.42,-76.15 174.84,-75.52 182.72,-82.61 185.42,-76.15"/>
</g>
<!-- Node6 -->
<g id="node6" class="node">
<title>Node6</title>
<g id="a_node6"><a xlink:title=" ">
<polygon fill="none" stroke="#bfbfbf" points="202.5,-56.5 202.5,-75.5 264.5,-75.5 264.5,-56.5 202.5,-56.5"/>
<text text-anchor="middle" x="233.5" y="-63.5" font-family="Helvetica,sans-Serif" font-size="10.00">ntstrsafe.h</text>
</a>
</g>
</g>
<!-- Node2&#45;&gt;Node6 -->
<g id="edge5" class="edge">
<title>Node2&#45;&gt;Node6</title>
<path fill="none" stroke="midnightblue" d="M275.24,-112.08C268.04,-104.3 257.39,-92.8 248.65,-83.37"/>
<polygon fill="midnightblue" stroke="midnightblue" points="250.97,-80.71 241.6,-75.75 245.83,-85.47 250.97,-80.71"/>
</g>
<!-- Node7 -->
<g id="node7" class="node">
<title>Node7</title>
<g id="a_node7"><a xlink:href="_k___wpp_tracing_8hpp.html" target="_top" xlink:title="WppTracing header.">
<polygon fill="none" stroke="black" points="283,-56.5 283,-75.5 382,-75.5 382,-56.5 283,-56.5"/>
<text text-anchor="middle" x="332.5" y="-63.5" font-family="Helvetica,sans-Serif" font-size="10.00">K_WppTracing.hpp</text>
</a>
</g>
</g>
<!-- Node2&#45;&gt;Node7 -->
<g id="edge6" class="edge">
<title>Node2&#45;&gt;Node7</title>
<path fill="none" stroke="midnightblue" d="M291.59,-112.08C298.66,-104.3 309.09,-92.8 317.65,-83.37"/>
<polygon fill="midnightblue" stroke="midnightblue" points="320.43,-85.51 324.56,-75.75 315.25,-80.8 320.43,-85.51"/>
</g>
<!-- Node8 -->
<g id="node8" class="node">
<title>Node8</title>
<g id="a_node8"><a xlink:href="_k___utilitaire_8hpp.html" target="_top" xlink:title="Header for K_Utilitaire.cpp.">
<polygon fill="none" stroke="black" points="400,-56.5 400,-75.5 483,-75.5 483,-56.5 400,-56.5"/>
<text text-anchor="middle" x="441.5" y="-63.5" font-family="Helvetica,sans-Serif" font-size="10.00">K_Utilitaire.hpp</text>
</a>
</g>
</g>
<!-- Node2&#45;&gt;Node8 -->
<g id="edge7" class="edge">
<title>Node2&#45;&gt;Node8</title>
<path fill="none" stroke="midnightblue" d="M303.45,-112.44C328.14,-103.32 370.39,-88.81 401.74,-78.65"/>
<polygon fill="midnightblue" stroke="midnightblue" points="403.05,-81.91 411.5,-75.52 400.91,-75.24 403.05,-81.91"/>
</g>
<!-- Node8&#45;&gt;Node2 -->
<g id="edge8" class="edge">
<title>Node8&#45;&gt;Node2</title>
<path fill="none" stroke="midnightblue" d="M421.66,-75.52C397.02,-84.62 354.78,-99.13 323.4,-109.3"/>
<polygon fill="midnightblue" stroke="midnightblue" points="322.07,-106.05 313.62,-112.44 324.22,-112.72 322.07,-106.05"/>
</g>
<!-- Node8&#45;&gt;Node9 -->
<g id="edge9" class="edge">
<title>Node8&#45;&gt;Node9</title>
<path fill="none" stroke="midnightblue" d="M452.75,-56.32C463.3,-48.18 479.3,-35.84 491.94,-26.09"/>
<polygon fill="midnightblue" stroke="midnightblue" points="494.27,-28.71 500.05,-19.83 489.99,-23.17 494.27,-28.71"/>
</g>
<!-- Node10 -->
<g id="node10" class="node">
<title>Node10</title>
<g id="a_node10"><a xlink:title=" ">
<polygon fill="none" stroke="#bfbfbf" points="367.5,-0.5 367.5,-19.5 419.5,-19.5 419.5,-0.5 367.5,-0.5"/>
<text text-anchor="middle" x="393.5" y="-7.5" font-family="Helvetica,sans-Serif" font-size="10.00">bcrypt.h</text>
</a>
</g>
</g>
<!-- Node8&#45;&gt;Node10 -->
<g id="edge10" class="edge">
<title>Node8&#45;&gt;Node10</title>
<path fill="none" stroke="midnightblue" d="M433.57,-56.08C426.65,-48.3 416.43,-36.8 408.05,-27.37"/>
<polygon fill="midnightblue" stroke="midnightblue" points="410.54,-24.9 401.28,-19.75 405.31,-29.55 410.54,-24.9"/>
</g>
</g>
</svg>
