<?xml version="1.0" encoding="UTF-8" standalone="no"?>
<!DOCTYPE svg PUBLIC "-//W3C//DTD SVG 1.1//EN"
 "http://www.w3.org/Graphics/SVG/1.1/DTD/svg11.dtd">
<!-- Generated by graphviz version 4.0.0 (20220529.0937)
 -->
<!-- Title: C:/Users/admin&#45;cyb/Desktop/PI&#45;Defender/Sources/PI&#45;Defender/K_Driver.cpp Pages: 1 -->
<svg width="597pt" height="453pt"
 viewBox="0.00 0.00 597.00 453.00" xmlns="http://www.w3.org/2000/svg" xmlns:xlink="http://www.w3.org/1999/xlink">
<g id="graph0" class="graph" transform="scale(1 1) rotate(0) translate(4 449)">
<title>C:/Users/admin&#45;cyb/Desktop/PI&#45;Defender/Sources/PI&#45;Defender/K_Driver.cpp</title>
<!-- Node1 -->
<g id="node1" class="node">
<title>Node1</title>
<g id="a_node1"><a xlink:title="Entrypoint of the driver, unload routine.">
<polygon fill="#bfbfbf" stroke="black" points="274.5,-392.5 274.5,-444.5 383.5,-444.5 383.5,-392.5 274.5,-392.5"/>
<text text-anchor="start" x="282.5" y="-432.5" font-family="Helvetica,sans-Serif" font-size="10.00">C:/Users/admin&#45;cyb</text>
<text text-anchor="start" x="282.5" y="-421.5" font-family="Helvetica,sans-Serif" font-size="10.00">/Desktop/PI&#45;Defender</text>
<text text-anchor="start" x="282.5" y="-410.5" font-family="Helvetica,sans-Serif" font-size="10.00">/Sources/PI&#45;Defender</text>
<text text-anchor="middle" x="329" y="-399.5" font-family="Helvetica,sans-Serif" font-size="10.00">/K_Driver.cpp</text>
</a>
</g>
</g>
<!-- Node2 -->
<g id="node2" class="node">
<title>Node2</title>
<g id="a_node2"><a xlink:href="_k___driver_8hpp.html" target="_top" xlink:title="Header for K_Driver.cpp.">
<polygon fill="none" stroke="black" points="248.5,-336.5 248.5,-355.5 319.5,-355.5 319.5,-336.5 248.5,-336.5"/>
<text text-anchor="middle" x="284" y="-343.5" font-family="Helvetica,sans-Serif" font-size="10.00">K_Driver.hpp</text>
</a>
</g>
</g>
<!-- Node1&#45;&gt;Node2 -->
<g id="edge1" class="edge">
<title>Node1&#45;&gt;Node2</title>
<path fill="none" stroke="midnightblue" d="M313.01,-392.45C307.06,-383.13 300.45,-372.77 295.04,-364.3"/>
<polygon fill="midnightblue" stroke="midnightblue" points="297.88,-362.24 289.55,-355.7 291.98,-366.01 297.88,-362.24"/>
</g>
<!-- Node18 -->
<g id="node18" class="node">
<title>Node18</title>
<g id="a_node18"><a xlink:title=" ">
<polygon fill="none" stroke="#bfbfbf" points="338,-336.5 338,-355.5 410,-355.5 410,-336.5 338,-336.5"/>
<text text-anchor="middle" x="374" y="-343.5" font-family="Helvetica,sans-Serif" font-size="10.00">K_Driver.tmh</text>
</a>
</g>
</g>
<!-- Node1&#45;&gt;Node18 -->
<g id="edge31" class="edge">
<title>Node1&#45;&gt;Node18</title>
<path fill="none" stroke="midnightblue" d="M344.99,-392.45C350.94,-383.13 357.55,-372.77 362.96,-364.3"/>
<polygon fill="midnightblue" stroke="midnightblue" points="366.02,-366.01 368.45,-355.7 360.12,-362.24 366.02,-366.01"/>
</g>
<!-- Node3 -->
<g id="node3" class="node">
<title>Node3</title>
<g id="a_node3"><a xlink:href="_k___global_header_8hpp.html" target="_top" xlink:title="Header used by several .cpp files.">
<polygon fill="none" stroke="black" points="223,-112.5 223,-131.5 329,-131.5 329,-112.5 223,-112.5"/>
<text text-anchor="middle" x="276" y="-119.5" font-family="Helvetica,sans-Serif" font-size="10.00">K_GlobalHeader.hpp</text>
</a>
</g>
</g>
<!-- Node2&#45;&gt;Node3 -->
<g id="edge2" class="edge">
<title>Node2&#45;&gt;Node3</title>
<path fill="none" stroke="midnightblue" d="M256.82,-336.39C239.86,-329.46 219.33,-317.88 209,-300 179.64,-249.2 179.05,-219.59 207,-168 214.75,-153.7 229.23,-143.22 242.94,-135.99"/>
<polygon fill="midnightblue" stroke="midnightblue" points="244.74,-139.01 252.21,-131.5 241.69,-132.71 244.74,-139.01"/>
</g>
<!-- Node12 -->
<g id="node12" class="node">
<title>Node12</title>
<g id="a_node12"><a xlink:href="_k___configuration_8hpp.html" target="_top" xlink:title="Header for K_Configuration.cpp.">
<polygon fill="none" stroke="black" points="233,-224.5 233,-243.5 337,-243.5 337,-224.5 233,-224.5"/>
<text text-anchor="middle" x="285" y="-231.5" font-family="Helvetica,sans-Serif" font-size="10.00">K_Configuration.hpp</text>
</a>
</g>
</g>
<!-- Node2&#45;&gt;Node12 -->
<g id="edge12" class="edge">
<title>Node2&#45;&gt;Node12</title>
<path fill="none" stroke="midnightblue" d="M287.34,-336.2C290.55,-327.24 295.18,-312.88 297,-300 299.24,-284.2 295.5,-266.38 291.62,-253.41"/>
<polygon fill="midnightblue" stroke="midnightblue" points="294.91,-252.2 288.46,-243.79 288.26,-254.39 294.91,-252.2"/>
</g>
<!-- Node15 -->
<g id="node15" class="node">
<title>Node15</title>
<g id="a_node15"><a xlink:href="_k___filter_8hpp.html" target="_top" xlink:title="Header for K_Filter.cpp.">
<polygon fill="none" stroke="black" points="218.5,-280.5 218.5,-299.5 287.5,-299.5 287.5,-280.5 218.5,-280.5"/>
<text text-anchor="middle" x="253" y="-287.5" font-family="Helvetica,sans-Serif" font-size="10.00">K_Filter.hpp</text>
</a>
</g>
</g>
<!-- Node2&#45;&gt;Node15 -->
<g id="edge18" class="edge">
<title>Node2&#45;&gt;Node15</title>
<path fill="none" stroke="midnightblue" d="M278.88,-336.08C274.59,-328.61 268.34,-317.72 263.06,-308.52"/>
<polygon fill="midnightblue" stroke="midnightblue" points="266.04,-306.68 258.02,-299.75 259.97,-310.17 266.04,-306.68"/>
</g>
<!-- Node17 -->
<g id="node17" class="node">
<title>Node17</title>
<g id="a_node17"><a xlink:href="_k___ob_callback_8hpp.html" target="_top" xlink:title="Header for K_ObCallback.cpp.">
<polygon fill="none" stroke="black" points="418,-280.5 418,-299.5 516,-299.5 516,-280.5 418,-280.5"/>
<text text-anchor="middle" x="467" y="-287.5" font-family="Helvetica,sans-Serif" font-size="10.00">K_ObCallback.hpp</text>
</a>
</g>
</g>
<!-- Node2&#45;&gt;Node17 -->
<g id="edge26" class="edge">
<title>Node2&#45;&gt;Node17</title>
<path fill="none" stroke="midnightblue" d="M313,-336.44C344.18,-327.24 393.93,-312.56 428.41,-302.39"/>
<polygon fill="midnightblue" stroke="midnightblue" points="429.54,-305.7 438.14,-299.52 427.56,-298.99 429.54,-305.7"/>
</g>
<!-- Node4 -->
<g id="node4" class="node">
<title>Node4</title>
<g id="a_node4"><a xlink:title=" ">
<polygon fill="none" stroke="#bfbfbf" points="197.5,-56.5 197.5,-75.5 240.5,-75.5 240.5,-56.5 197.5,-56.5"/>
<text text-anchor="middle" x="219" y="-63.5" font-family="Helvetica,sans-Serif" font-size="10.00">ntifs.h</text>
</a>
</g>
</g>
<!-- Node3&#45;&gt;Node4 -->
<g id="edge3" class="edge">
<title>Node3&#45;&gt;Node4</title>
<path fill="none" stroke="midnightblue" d="M266.84,-112.32C258.5,-104.42 245.97,-92.55 235.82,-82.94"/>
<polygon fill="midnightblue" stroke="midnightblue" points="237.99,-80.17 228.32,-75.83 233.18,-85.25 237.99,-80.17"/>
</g>
<!-- Node5 -->
<g id="node5" class="node">
<title>Node5</title>
<g id="a_node5"><a xlink:title=" ">
<polygon fill="none" stroke="#bfbfbf" points="258.5,-56.5 258.5,-75.5 303.5,-75.5 303.5,-56.5 258.5,-56.5"/>
<text text-anchor="middle" x="281" y="-63.5" font-family="Helvetica,sans-Serif" font-size="10.00">wdm.h</text>
</a>
</g>
</g>
<!-- Node3&#45;&gt;Node5 -->
<g id="edge4" class="edge">
<title>Node3&#45;&gt;Node5</title>
<path fill="none" stroke="midnightblue" d="M276.83,-112.08C277.48,-105.01 278.42,-94.86 279.24,-85.99"/>
<polygon fill="midnightblue" stroke="midnightblue" points="282.75,-86.03 280.19,-75.75 275.78,-85.39 282.75,-86.03"/>
</g>
<!-- Node6 -->
<g id="node6" class="node">
<title>Node6</title>
<g id="a_node6"><a xlink:title=" ">
<polygon fill="none" stroke="#bfbfbf" points="322,-56.5 322,-75.5 382,-75.5 382,-56.5 322,-56.5"/>
<text text-anchor="middle" x="352" y="-63.5" font-family="Helvetica,sans-Serif" font-size="10.00">fltKernel.h</text>
</a>
</g>
</g>
<!-- Node3&#45;&gt;Node6 -->
<g id="edge5" class="edge">
<title>Node3&#45;&gt;Node6</title>
<path fill="none" stroke="midnightblue" d="M288.21,-112.32C299.78,-104.11 317.38,-91.6 331.16,-81.81"/>
<polygon fill="midnightblue" stroke="midnightblue" points="333.44,-84.48 339.57,-75.83 329.39,-78.77 333.44,-84.48"/>
</g>
<!-- Node7 -->
<g id="node7" class="node">
<title>Node7</title>
<g id="a_node7"><a xlink:title=" ">
<polygon fill="none" stroke="#bfbfbf" points="0,-56.5 0,-75.5 62,-75.5 62,-56.5 0,-56.5"/>
<text text-anchor="middle" x="31" y="-63.5" font-family="Helvetica,sans-Serif" font-size="10.00">ntstrsafe.h</text>
</a>
</g>
</g>
<!-- Node3&#45;&gt;Node7 -->
<g id="edge6" class="edge">
<title>Node3&#45;&gt;Node7</title>
<path fill="none" stroke="midnightblue" d="M236.69,-112.43C197.51,-103.88 135.34,-90.28 72.15,-76.25"/>
<polygon fill="midnightblue" stroke="midnightblue" points="72.53,-72.75 62.01,-73.99 71.01,-79.58 72.53,-72.75"/>
</g>
<!-- Node8 -->
<g id="node8" class="node">
<title>Node8</title>
<g id="a_node8"><a xlink:href="_k___wpp_tracing_8hpp.html" target="_top" xlink:title="WppTracing header.">
<polygon fill="none" stroke="black" points="80.5,-56.5 80.5,-75.5 179.5,-75.5 179.5,-56.5 80.5,-56.5"/>
<text text-anchor="middle" x="130" y="-63.5" font-family="Helvetica,sans-Serif" font-size="10.00">K_WppTracing.hpp</text>
</a>
</g>
</g>
<!-- Node3&#45;&gt;Node8 -->
<g id="edge7" class="edge">
<title>Node3&#45;&gt;Node8</title>
<path fill="none" stroke="midnightblue" d="M252.87,-112.44C228.52,-103.44 189.99,-89.19 162.58,-79.05"/>
<polygon fill="midnightblue" stroke="midnightblue" points="163.62,-75.7 153.03,-75.52 161.19,-82.27 163.62,-75.7"/>
</g>
<!-- Node9 -->
<g id="node9" class="node">
<title>Node9</title>
<g id="a_node9"><a xlink:href="_k___utilitaire_8hpp.html" target="_top" xlink:title="Header for K_Utilitaire.cpp.">
<polygon fill="none" stroke="black" points="400.5,-56.5 400.5,-75.5 483.5,-75.5 483.5,-56.5 400.5,-56.5"/>
<text text-anchor="middle" x="442" y="-63.5" font-family="Helvetica,sans-Serif" font-size="10.00">K_Utilitaire.hpp</text>
</a>
</g>
</g>
<!-- Node3&#45;&gt;Node9 -->
<g id="edge8" class="edge">
<title>Node3&#45;&gt;Node9</title>
<path fill="none" stroke="midnightblue" d="M297.21,-112.44C323.37,-103.28 368.05,-88.69 400.94,-78.52"/>
<polygon fill="midnightblue" stroke="midnightblue" points="402.2,-81.79 410.74,-75.52 400.15,-75.1 402.2,-81.79"/>
</g>
<!-- Node9&#45;&gt;Node3 -->
<g id="edge9" class="edge">
<title>Node9&#45;&gt;Node3</title>
<path fill="none" stroke="midnightblue" d="M420.9,-75.52C394.79,-84.66 350.13,-99.26 317.2,-109.44"/>
<polygon fill="midnightblue" stroke="midnightblue" points="315.93,-106.17 307.39,-112.44 317.98,-112.86 315.93,-106.17"/>
</g>
<!-- Node10 -->
<g id="node10" class="node">
<title>Node10</title>
<g id="a_node10"><a xlink:href="_shared_defs_8hpp.html" target="_top" xlink:title="Header file which contains the structures, type definitions, constants, global variablesand function ...">
<polygon fill="none" stroke="black" points="441,-0.5 441,-19.5 589,-19.5 589,-0.5 441,-0.5"/>
<text text-anchor="middle" x="515" y="-7.5" font-family="Helvetica,sans-Serif" font-size="10.00">../SharedDefs/SharedDefs.hpp</text>
</a>
</g>
</g>
<!-- Node9&#45;&gt;Node10 -->
<g id="edge10" class="edge">
<title>Node9&#45;&gt;Node10</title>
<path fill="none" stroke="midnightblue" d="M453.73,-56.32C464.84,-48.11 481.74,-35.6 494.98,-25.81"/>
<polygon fill="midnightblue" stroke="midnightblue" points="497.1,-28.59 503.06,-19.83 492.94,-22.97 497.1,-28.59"/>
</g>
<!-- Node11 -->
<g id="node11" class="node">
<title>Node11</title>
<g id="a_node11"><a xlink:title=" ">
<polygon fill="none" stroke="#bfbfbf" points="371,-0.5 371,-19.5 423,-19.5 423,-0.5 371,-0.5"/>
<text text-anchor="middle" x="397" y="-7.5" font-family="Helvetica,sans-Serif" font-size="10.00">bcrypt.h</text>
</a>
</g>
</g>
<!-- Node9&#45;&gt;Node11 -->
<g id="edge11" class="edge">
<title>Node9&#45;&gt;Node11</title>
<path fill="none" stroke="midnightblue" d="M434.57,-56.08C428.15,-48.38 418.69,-37.03 410.88,-27.65"/>
<polygon fill="midnightblue" stroke="midnightblue" points="413.38,-25.19 404.29,-19.75 408.01,-29.67 413.38,-25.19"/>
</g>
<!-- Node12&#45;&gt;Node3 -->
<g id="edge13" class="edge">
<title>Node12&#45;&gt;Node3</title>
<path fill="none" stroke="midnightblue" d="M264.15,-224.43C249.42,-217.13 230.8,-205.09 222,-188 211.86,-168.29 232.49,-149.21 251.11,-136.88"/>
<polygon fill="midnightblue" stroke="midnightblue" points="253.03,-139.8 259.67,-131.55 249.33,-133.86 253.03,-139.8"/>
</g>
<!-- Node13 -->
<g id="node13" class="node">
<title>Node13</title>
<g id="a_node13"><a xlink:href="_k___cache_8hpp.html" target="_top" xlink:title="Header for K_Cache.cpp.">
<polygon fill="none" stroke="black" points="231.5,-168.5 231.5,-187.5 306.5,-187.5 306.5,-168.5 231.5,-168.5"/>
<text text-anchor="middle" x="269" y="-175.5" font-family="Helvetica,sans-Serif" font-size="10.00">K_Cache.hpp</text>
</a>
</g>
</g>
<!-- Node12&#45;&gt;Node13 -->
<g id="edge14" class="edge">
<title>Node12&#45;&gt;Node13</title>
<path fill="none" stroke="midnightblue" d="M282.36,-224.08C280.21,-216.85 277.12,-206.41 274.45,-197.4"/>
<polygon fill="midnightblue" stroke="midnightblue" points="277.79,-196.34 271.59,-187.75 271.08,-198.33 277.79,-196.34"/>
</g>
<!-- Node14 -->
<g id="node14" class="node">
<title>Node14</title>
<g id="a_node14"><a xlink:href="_k___whitelist_8hpp.html" target="_top" xlink:title="Header for K_Whitelist.cpp.">
<polygon fill="none" stroke="black" points="325,-168.5 325,-187.5 411,-187.5 411,-168.5 325,-168.5"/>
<text text-anchor="middle" x="368" y="-175.5" font-family="Helvetica,sans-Serif" font-size="10.00">K_Whitelist.hpp</text>
</a>
</g>
</g>
<!-- Node12&#45;&gt;Node14 -->
<g id="edge16" class="edge">
<title>Node12&#45;&gt;Node14</title>
<path fill="none" stroke="midnightblue" d="M298.34,-224.32C311.16,-215.98 330.78,-203.21 345.94,-193.35"/>
<polygon fill="midnightblue" stroke="midnightblue" points="348.22,-196.04 354.7,-187.65 344.41,-190.17 348.22,-196.04"/>
</g>
<!-- Node13&#45;&gt;Node3 -->
<g id="edge15" class="edge">
<title>Node13&#45;&gt;Node3</title>
<path fill="none" stroke="midnightblue" d="M270.16,-168.08C271.08,-160.93 272.42,-150.64 273.58,-141.69"/>
<polygon fill="midnightblue" stroke="midnightblue" points="277.05,-142.12 274.87,-131.75 270.11,-141.22 277.05,-142.12"/>
</g>
<!-- Node14&#45;&gt;Node3 -->
<g id="edge17" class="edge">
<title>Node14&#45;&gt;Node3</title>
<path fill="none" stroke="midnightblue" d="M353.22,-168.32C338.73,-159.82 316.43,-146.73 299.51,-136.8"/>
<polygon fill="midnightblue" stroke="midnightblue" points="301.14,-133.7 290.74,-131.65 297.6,-139.74 301.14,-133.7"/>
</g>
<!-- Node15&#45;&gt;Node3 -->
<g id="edge19" class="edge">
<title>Node15&#45;&gt;Node3</title>
<path fill="none" stroke="midnightblue" d="M246.11,-280.42C230.67,-260.08 196.16,-207.69 216,-168 222.73,-154.54 235.61,-144.07 247.71,-136.62"/>
<polygon fill="midnightblue" stroke="midnightblue" points="249.73,-139.5 256.7,-131.52 246.28,-133.41 249.73,-139.5"/>
</g>
<!-- Node15&#45;&gt;Node7 -->
<g id="edge20" class="edge">
<title>Node15&#45;&gt;Node7</title>
<path fill="none" stroke="midnightblue" d="M244.3,-280.3C210.94,-246.94 90.92,-126.92 47.13,-83.13"/>
<polygon fill="midnightblue" stroke="midnightblue" points="49.43,-80.48 39.88,-75.88 44.48,-85.43 49.43,-80.48"/>
</g>
<!-- Node15&#45;&gt;Node9 -->
<g id="edge21" class="edge">
<title>Node15&#45;&gt;Node9</title>
<path fill="none" stroke="midnightblue" d="M282.58,-280.46C321.54,-267.49 388.76,-238.8 420,-188 439.69,-155.98 442.7,-110.78 442.67,-85.67"/>
<polygon fill="midnightblue" stroke="midnightblue" points="446.16,-85.6 442.48,-75.66 439.17,-85.73 446.16,-85.6"/>
</g>
<!-- Node15&#45;&gt;Node12 -->
<g id="edge22" class="edge">
<title>Node15&#45;&gt;Node12</title>
<path fill="none" stroke="midnightblue" d="M258.28,-280.08C262.71,-272.61 269.16,-261.72 274.62,-252.52"/>
<polygon fill="midnightblue" stroke="midnightblue" points="277.73,-254.14 279.81,-243.75 271.71,-250.57 277.73,-254.14"/>
</g>
<!-- Node16 -->
<g id="node16" class="node">
<title>Node16</title>
<g id="a_node16"><a xlink:href="_k___communication_8hpp.html" target="_top" xlink:title="Header for K_Communication.cpp.">
<polygon fill="none" stroke="black" points="409.5,-224.5 409.5,-243.5 524.5,-243.5 524.5,-224.5 409.5,-224.5"/>
<text text-anchor="middle" x="467" y="-231.5" font-family="Helvetica,sans-Serif" font-size="10.00">K_Communication.hpp</text>
</a>
</g>
</g>
<!-- Node15&#45;&gt;Node16 -->
<g id="edge23" class="edge">
<title>Node15&#45;&gt;Node16</title>
<path fill="none" stroke="midnightblue" d="M286.91,-280.44C323.85,-271.12 383.05,-256.18 423.42,-246"/>
<polygon fill="midnightblue" stroke="midnightblue" points="424.41,-249.36 433.25,-243.52 422.7,-242.57 424.41,-249.36"/>
</g>
<!-- Node16&#45;&gt;Node3 -->
<g id="edge24" class="edge">
<title>Node16&#45;&gt;Node3</title>
<path fill="none" stroke="midnightblue" d="M463.1,-224.47C456.31,-210.59 441.02,-183.13 420,-168 396.34,-150.97 366.04,-140.25 339.34,-133.56"/>
<polygon fill="midnightblue" stroke="midnightblue" points="339.85,-130.08 329.31,-131.19 338.24,-136.89 339.85,-130.08"/>
</g>
<!-- Node16&#45;&gt;Node10 -->
<g id="edge25" class="edge">
<title>Node16&#45;&gt;Node10</title>
<path fill="none" stroke="midnightblue" d="M468.88,-224.3C475.96,-191.56 501.08,-75.38 510.96,-29.67"/>
<polygon fill="midnightblue" stroke="midnightblue" points="514.39,-30.4 513.08,-19.88 507.54,-28.92 514.39,-30.4"/>
</g>
<!-- Node17&#45;&gt;Node3 -->
<g id="edge27" class="edge">
<title>Node17&#45;&gt;Node3</title>
<path fill="none" stroke="midnightblue" d="M488.28,-280.47C512.64,-269.33 547.54,-248.37 534,-224 496.16,-155.89 402.91,-133.53 339.52,-126.3"/>
<polygon fill="midnightblue" stroke="midnightblue" points="339.54,-122.78 329.23,-125.23 338.81,-129.75 339.54,-122.78"/>
</g>
<!-- Node17&#45;&gt;Node9 -->
<g id="edge28" class="edge">
<title>Node17&#45;&gt;Node9</title>
<path fill="none" stroke="midnightblue" d="M498.81,-280.38C516.95,-273.66 538.16,-262.31 549,-244 553.53,-236.35 551.62,-232.49 549,-224 530.94,-165.44 482.74,-109.19 457.66,-82.74"/>
<polygon fill="midnightblue" stroke="midnightblue" points="460.14,-80.27 450.68,-75.52 455.11,-85.14 460.14,-80.27"/>
</g>
<!-- Node17&#45;&gt;Node12 -->
<g id="edge30" class="edge">
<title>Node17&#45;&gt;Node12</title>
<path fill="none" stroke="midnightblue" d="M438.16,-280.44C407.14,-271.24 357.67,-256.56 323.38,-246.39"/>
<polygon fill="midnightblue" stroke="midnightblue" points="324.29,-243.01 313.7,-243.52 322.29,-249.72 324.29,-243.01"/>
</g>
<!-- Node17&#45;&gt;Node16 -->
<g id="edge29" class="edge">
<title>Node17&#45;&gt;Node16</title>
<path fill="none" stroke="midnightblue" d="M467,-280.08C467,-273.01 467,-262.86 467,-253.99"/>
<polygon fill="midnightblue" stroke="midnightblue" points="470.5,-253.75 467,-243.75 463.5,-253.75 470.5,-253.75"/>
</g>
</g>
</svg>
