<?xml version="1.0" encoding="UTF-8" standalone="no"?>
<!DOCTYPE svg PUBLIC "-//W3C//DTD SVG 1.1//EN"
 "http://www.w3.org/Graphics/SVG/1.1/DTD/svg11.dtd">
<!-- Generated by graphviz version 4.0.0 (20220529.0937)
 -->
<!-- Title: C:/Users/admin&#45;cyb/Desktop/PI&#45;Defender/Sources/PI&#45;Defender/K_Communication.hpp Pages: 1 -->
<svg width="444pt" height="328pt"
 viewBox="0.00 0.00 443.50 328.00" xmlns="http://www.w3.org/2000/svg" xmlns:xlink="http://www.w3.org/1999/xlink">
<g id="graph0" class="graph" transform="scale(1 1) rotate(0) translate(4 324)">
<title>C:/Users/admin&#45;cyb/Desktop/PI&#45;Defender/Sources/PI&#45;Defender/K_Communication.hpp</title>
<!-- Node1 -->
<g id="node1" class="node">
<title>Node1</title>
<g id="a_node1"><a xlink:title="Header for K_Communication.cpp.">
<polygon fill="#bfbfbf" stroke="black" points="132,-267.5 132,-319.5 250,-319.5 250,-267.5 132,-267.5"/>
<text text-anchor="start" x="140" y="-307.5" font-family="Helvetica,sans-Serif" font-size="10.00">C:/Users/admin&#45;cyb</text>
<text text-anchor="start" x="140" y="-296.5" font-family="Helvetica,sans-Serif" font-size="10.00">/Desktop/PI&#45;Defender</text>
<text text-anchor="start" x="140" y="-285.5" font-family="Helvetica,sans-Serif" font-size="10.00">/Sources/PI&#45;Defender</text>
<text text-anchor="middle" x="191" y="-274.5" font-family="Helvetica,sans-Serif" font-size="10.00">/K_Communication.hpp</text>
</a>
</g>
</g>
<!-- Node2 -->
<g id="node2" class="node">
<title>Node2</title>
<g id="a_node2"><a xlink:href="_k___communication_8cpp.html" target="_top" xlink:title="Create the communication server, send data to the user&#45;mode service once a client is connected.">
<polygon fill="none" stroke="black" points="0,-178.5 0,-230.5 118,-230.5 118,-178.5 0,-178.5"/>
<text text-anchor="start" x="8" y="-218.5" font-family="Helvetica,sans-Serif" font-size="10.00">C:/Users/admin&#45;cyb</text>
<text text-anchor="start" x="8" y="-207.5" font-family="Helvetica,sans-Serif" font-size="10.00">/Desktop/PI&#45;Defender</text>
<text text-anchor="start" x="8" y="-196.5" font-family="Helvetica,sans-Serif" font-size="10.00">/Sources/PI&#45;Defender</text>
<text text-anchor="middle" x="59" y="-185.5" font-family="Helvetica,sans-Serif" font-size="10.00">/K_Communication.cpp</text>
</a>
</g>
</g>
<!-- Node1&#45;&gt;Node2 -->
<g id="edge1" class="edge">
<title>Node1&#45;&gt;Node2</title>
<path fill="none" stroke="midnightblue" d="M144.4,-261.79C128.91,-251.58 111.86,-240.34 97.09,-230.61"/>
<polygon fill="midnightblue" stroke="midnightblue" points="142.54,-264.76 152.82,-267.34 146.4,-258.91 142.54,-264.76"/>
</g>
<!-- Node3 -->
<g id="node3" class="node">
<title>Node3</title>
<g id="a_node3"><a xlink:href="_k___filter_8hpp.html" target="_top" xlink:title="Header for K_Filter.cpp.">
<polygon fill="none" stroke="black" points="136.5,-178.5 136.5,-230.5 245.5,-230.5 245.5,-178.5 136.5,-178.5"/>
<text text-anchor="start" x="144.5" y="-218.5" font-family="Helvetica,sans-Serif" font-size="10.00">C:/Users/admin&#45;cyb</text>
<text text-anchor="start" x="144.5" y="-207.5" font-family="Helvetica,sans-Serif" font-size="10.00">/Desktop/PI&#45;Defender</text>
<text text-anchor="start" x="144.5" y="-196.5" font-family="Helvetica,sans-Serif" font-size="10.00">/Sources/PI&#45;Defender</text>
<text text-anchor="middle" x="191" y="-185.5" font-family="Helvetica,sans-Serif" font-size="10.00">/K_Filter.hpp</text>
</a>
</g>
</g>
<!-- Node1&#45;&gt;Node3 -->
<g id="edge2" class="edge">
<title>Node1&#45;&gt;Node3</title>
<path fill="none" stroke="midnightblue" d="M191,-257.19C191,-248.28 191,-238.9 191,-230.61"/>
<polygon fill="midnightblue" stroke="midnightblue" points="187.5,-257.34 191,-267.34 194.5,-257.34 187.5,-257.34"/>
</g>
<!-- Node7 -->
<g id="node7" class="node">
<title>Node7</title>
<g id="a_node7"><a xlink:href="_k___ob_callback_8hpp.html" target="_top" xlink:title="Header for K_ObCallback.cpp.">
<polygon fill="none" stroke="black" points="263.5,-178.5 263.5,-230.5 372.5,-230.5 372.5,-178.5 263.5,-178.5"/>
<text text-anchor="start" x="271.5" y="-218.5" font-family="Helvetica,sans-Serif" font-size="10.00">C:/Users/admin&#45;cyb</text>
<text text-anchor="start" x="271.5" y="-207.5" font-family="Helvetica,sans-Serif" font-size="10.00">/Desktop/PI&#45;Defender</text>
<text text-anchor="start" x="271.5" y="-196.5" font-family="Helvetica,sans-Serif" font-size="10.00">/Sources/PI&#45;Defender</text>
<text text-anchor="middle" x="318" y="-185.5" font-family="Helvetica,sans-Serif" font-size="10.00">/K_ObCallback.hpp</text>
</a>
</g>
</g>
<!-- Node1&#45;&gt;Node7 -->
<g id="edge6" class="edge">
<title>Node1&#45;&gt;Node7</title>
<path fill="none" stroke="midnightblue" d="M236.25,-261.5C251.04,-251.37 267.27,-240.25 281.35,-230.61"/>
<polygon fill="midnightblue" stroke="midnightblue" points="234.01,-258.8 227.73,-267.34 237.96,-264.57 234.01,-258.8"/>
</g>
<!-- Node4 -->
<g id="node4" class="node">
<title>Node4</title>
<g id="a_node4"><a xlink:href="_k___driver_8hpp.html" target="_top" xlink:title="Header for K_Driver.cpp.">
<polygon fill="none" stroke="black" points="199.5,-89.5 199.5,-141.5 308.5,-141.5 308.5,-89.5 199.5,-89.5"/>
<text text-anchor="start" x="207.5" y="-129.5" font-family="Helvetica,sans-Serif" font-size="10.00">C:/Users/admin&#45;cyb</text>
<text text-anchor="start" x="207.5" y="-118.5" font-family="Helvetica,sans-Serif" font-size="10.00">/Desktop/PI&#45;Defender</text>
<text text-anchor="start" x="207.5" y="-107.5" font-family="Helvetica,sans-Serif" font-size="10.00">/Sources/PI&#45;Defender</text>
<text text-anchor="middle" x="254" y="-96.5" font-family="Helvetica,sans-Serif" font-size="10.00">/K_Driver.hpp</text>
</a>
</g>
</g>
<!-- Node3&#45;&gt;Node4 -->
<g id="edge3" class="edge">
<title>Node3&#45;&gt;Node4</title>
<path fill="none" stroke="midnightblue" d="M215.1,-170.22C221.98,-160.72 229.36,-150.53 235.82,-141.61"/>
<polygon fill="midnightblue" stroke="midnightblue" points="212.25,-168.18 209.22,-178.34 217.92,-172.29 212.25,-168.18"/>
</g>
<!-- Node6 -->
<g id="node6" class="node">
<title>Node6</title>
<g id="a_node6"><a xlink:href="_k___filter_8cpp.html" target="_top" xlink:title="Initialize filter object used by the communication.">
<polygon fill="none" stroke="black" points="72.5,-89.5 72.5,-141.5 181.5,-141.5 181.5,-89.5 72.5,-89.5"/>
<text text-anchor="start" x="80.5" y="-129.5" font-family="Helvetica,sans-Serif" font-size="10.00">C:/Users/admin&#45;cyb</text>
<text text-anchor="start" x="80.5" y="-118.5" font-family="Helvetica,sans-Serif" font-size="10.00">/Desktop/PI&#45;Defender</text>
<text text-anchor="start" x="80.5" y="-107.5" font-family="Helvetica,sans-Serif" font-size="10.00">/Sources/PI&#45;Defender</text>
<text text-anchor="middle" x="127" y="-96.5" font-family="Helvetica,sans-Serif" font-size="10.00">/K_Filter.cpp</text>
</a>
</g>
</g>
<!-- Node3&#45;&gt;Node6 -->
<g id="edge5" class="edge">
<title>Node3&#45;&gt;Node6</title>
<path fill="none" stroke="midnightblue" d="M166.51,-170.22C159.53,-160.72 152.03,-150.53 145.47,-141.61"/>
<polygon fill="midnightblue" stroke="midnightblue" points="163.74,-172.35 172.49,-178.34 169.38,-168.21 163.74,-172.35"/>
</g>
<!-- Node5 -->
<g id="node5" class="node">
<title>Node5</title>
<g id="a_node5"><a xlink:href="_k___driver_8cpp.html" target="_top" xlink:title="Entrypoint of the driver, unload routine.">
<polygon fill="none" stroke="black" points="199.5,-0.5 199.5,-52.5 308.5,-52.5 308.5,-0.5 199.5,-0.5"/>
<text text-anchor="start" x="207.5" y="-40.5" font-family="Helvetica,sans-Serif" font-size="10.00">C:/Users/admin&#45;cyb</text>
<text text-anchor="start" x="207.5" y="-29.5" font-family="Helvetica,sans-Serif" font-size="10.00">/Desktop/PI&#45;Defender</text>
<text text-anchor="start" x="207.5" y="-18.5" font-family="Helvetica,sans-Serif" font-size="10.00">/Sources/PI&#45;Defender</text>
<text text-anchor="middle" x="254" y="-7.5" font-family="Helvetica,sans-Serif" font-size="10.00">/K_Driver.cpp</text>
</a>
</g>
</g>
<!-- Node4&#45;&gt;Node5 -->
<g id="edge4" class="edge">
<title>Node4&#45;&gt;Node5</title>
<path fill="none" stroke="midnightblue" d="M254,-79.19C254,-70.28 254,-60.9 254,-52.61"/>
<polygon fill="midnightblue" stroke="midnightblue" points="250.5,-79.34 254,-89.34 257.5,-79.34 250.5,-79.34"/>
</g>
<!-- Node7&#45;&gt;Node4 -->
<g id="edge7" class="edge">
<title>Node7&#45;&gt;Node4</title>
<path fill="none" stroke="midnightblue" d="M293.51,-170.22C286.53,-160.72 279.03,-150.53 272.47,-141.61"/>
<polygon fill="midnightblue" stroke="midnightblue" points="290.74,-172.35 299.49,-178.34 296.38,-168.21 290.74,-172.35"/>
</g>
<!-- Node8 -->
<g id="node8" class="node">
<title>Node8</title>
<g id="a_node8"><a xlink:href="_k___ob_callback_8cpp.html" target="_top" xlink:title="Handle request callback.">
<polygon fill="none" stroke="black" points="326.5,-89.5 326.5,-141.5 435.5,-141.5 435.5,-89.5 326.5,-89.5"/>
<text text-anchor="start" x="334.5" y="-129.5" font-family="Helvetica,sans-Serif" font-size="10.00">C:/Users/admin&#45;cyb</text>
<text text-anchor="start" x="334.5" y="-118.5" font-family="Helvetica,sans-Serif" font-size="10.00">/Desktop/PI&#45;Defender</text>
<text text-anchor="start" x="334.5" y="-107.5" font-family="Helvetica,sans-Serif" font-size="10.00">/Sources/PI&#45;Defender</text>
<text text-anchor="middle" x="381" y="-96.5" font-family="Helvetica,sans-Serif" font-size="10.00">/K_ObCallback.cpp</text>
</a>
</g>
</g>
<!-- Node7&#45;&gt;Node8 -->
<g id="edge8" class="edge">
<title>Node7&#45;&gt;Node8</title>
<path fill="none" stroke="midnightblue" d="M342.1,-170.22C348.98,-160.72 356.36,-150.53 362.82,-141.61"/>
<polygon fill="midnightblue" stroke="midnightblue" points="339.25,-168.18 336.22,-178.34 344.92,-172.29 339.25,-168.18"/>
</g>
</g>
</svg>
