<?xml version="1.0" encoding="UTF-8" standalone="no"?>
<!DOCTYPE svg PUBLIC "-//W3C//DTD SVG 1.1//EN"
 "http://www.w3.org/Graphics/SVG/1.1/DTD/svg11.dtd">
<!-- Generated by graphviz version 4.0.0 (20220529.0937)
 -->
<!-- Title: C:/Users/admin&#45;cyb/Desktop/PI&#45;Defender/Sources/PI&#45;Defender/K_Utilitaire.hpp Pages: 1 -->
<!--zoomable 595 -->
<svg id="main" version="1.1" xmlns="http://www.w3.org/2000/svg" xmlns:xlink="http://www.w3.org/1999/xlink" xml:space="preserve" onload="init(evt)">
<style type="text/css"><![CDATA[
.edge:hover path { stroke: red; }
.edge:hover polygon { stroke: red; fill: red; }
]]></style>
<script type="text/javascript"><![CDATA[
var edges = document.getElementsByTagName('g');
if (edges && edges.length) {
  for (var i=0;i<edges.length;i++) {
    if (edges[i].id.substr(0,4)=='edge') {
      edges[i].setAttribute('class','edge');
    }
  }
}
]]></script>
        <defs>
                <circle id="rim" cx="0" cy="0" r="7"/>
                <circle id="rim2" cx="0" cy="0" r="3.5"/>
                <g id="zoomPlus">
                        <use xlink:href="#rim" fill="#404040">
                                <set attributeName="fill" to="#808080" begin="zoomplus.mouseover" end="zoomplus.mouseout"/>
                        </use>
                        <path d="M-4,0h8M0,-4v8" fill="none" stroke="white" stroke-width="1.5" pointer-events="none"/>
                </g>
                <g id="zoomMin">
                        <use xlink:href="#rim" fill="#404040">
                                <set attributeName="fill" to="#808080" begin="zoomminus.mouseover" end="zoomminus.mouseout"/>
                        </use>
                        <path d="M-4,0h8" fill="none" stroke="white" stroke-width="1.5" pointer-events="none"/>
                </g>
                <g id="dirArrow">
                        <path fill="none" stroke="white" stroke-width="1.5" d="M0,-3.0v7 M-2.5,-0.5L0,-3.0L2.5,-0.5"/>
                </g>
               <g id="resetDef">
                       <use xlink:href="#rim2" fill="#404040">
                               <set attributeName="fill" to="#808080" begin="reset.mouseover" end="reset.mouseout"/>
                       </use>
               </g>
        </defs>

<script type="text/javascript">
var viewWidth = 785;
var viewHeight = 595;
var sectionId = 'dynsection-1';
</script>
<script xlink:href="svgpan.js"/>
<svg id="graph" class="graph">
<g id="viewport">
<title>C:/Users/admin&#45;cyb/Desktop/PI&#45;Defender/Sources/PI&#45;Defender/K_Utilitaire.hpp</title>
<!-- Node1 -->
<g id="node1" class="node">
<title>Node1</title>
<g id="a_node1"><a xlink:title="Header for K_Utilitaire.cpp.">
<polygon fill="#bfbfbf" stroke="black" points="350.22,-534.5 350.22,-586.5 459.22,-586.5 459.22,-534.5 350.22,-534.5"/>
<text text-anchor="start" x="358.22" y="-574.5" font-family="Helvetica,sans-Serif" font-size="10.00">C:/Users/admin&#45;cyb</text>
<text text-anchor="start" x="358.22" y="-563.5" font-family="Helvetica,sans-Serif" font-size="10.00">/Desktop/PI&#45;Defender</text>
<text text-anchor="start" x="358.22" y="-552.5" font-family="Helvetica,sans-Serif" font-size="10.00">/Sources/PI&#45;Defender</text>
<text text-anchor="middle" x="404.72" y="-541.5" font-family="Helvetica,sans-Serif" font-size="10.00">/K_Utilitaire.hpp</text>
</a>
</g>
</g>
<!-- Node2 -->
<g id="node2" class="node">
<title>Node2</title>
<g id="a_node2"><a xlink:href="_k___filter_8hpp.html" target="_top" xlink:title="Header for K_Filter.cpp.">
<polygon fill="none" stroke="black" points="56.22,-178.5 56.22,-230.5 165.22,-230.5 165.22,-178.5 56.22,-178.5"/>
<text text-anchor="start" x="64.22" y="-218.5" font-family="Helvetica,sans-Serif" font-size="10.00">C:/Users/admin&#45;cyb</text>
<text text-anchor="start" x="64.22" y="-207.5" font-family="Helvetica,sans-Serif" font-size="10.00">/Desktop/PI&#45;Defender</text>
<text text-anchor="start" x="64.22" y="-196.5" font-family="Helvetica,sans-Serif" font-size="10.00">/Sources/PI&#45;Defender</text>
<text text-anchor="middle" x="110.72" y="-185.5" font-family="Helvetica,sans-Serif" font-size="10.00">/K_Filter.hpp</text>
</a>
</g>
</g>
<!-- Node1&#45;&gt;Node2 -->
<g id="edge1" class="edge">
<title>Node1&#45;&gt;Node2</title>
<path fill="none" stroke="midnightblue" d="M340.21,-548.87C260.64,-532.48 126.17,-493.6 46.72,-409 2.5,-361.91 -15.15,-323.75 15.72,-267 24.64,-250.6 40.02,-237.91 55.84,-228.42"/>
<polygon fill="midnightblue" stroke="midnightblue" points="339.62,-552.32 350.11,-550.85 340.99,-545.45 339.62,-552.32"/>
</g>
<!-- Node6 -->
<g id="node6" class="node">
<title>Node6</title>
<g id="a_node6"><a xlink:href="_k___global_header_8hpp.html" target="_top" xlink:title="Header used by several .cpp files.">
<polygon fill="none" stroke="black" points="350.22,-445.5 350.22,-497.5 459.22,-497.5 459.22,-445.5 350.22,-445.5"/>
<text text-anchor="start" x="358.22" y="-485.5" font-family="Helvetica,sans-Serif" font-size="10.00">C:/Users/admin&#45;cyb</text>
<text text-anchor="start" x="358.22" y="-474.5" font-family="Helvetica,sans-Serif" font-size="10.00">/Desktop/PI&#45;Defender</text>
<text text-anchor="start" x="358.22" y="-463.5" font-family="Helvetica,sans-Serif" font-size="10.00">/Sources/PI&#45;Defender</text>
<text text-anchor="middle" x="404.72" y="-452.5" font-family="Helvetica,sans-Serif" font-size="10.00">/K_GlobalHeader.hpp</text>
</a>
</g>
</g>
<!-- Node1&#45;&gt;Node6 -->
<g id="edge5" class="edge">
<title>Node1&#45;&gt;Node6</title>
<path fill="none" stroke="midnightblue" d="M398.08,-524.19C397.84,-515.28 397.99,-505.9 398.54,-497.61"/>
<polygon fill="midnightblue" stroke="midnightblue" points="394.59,-524.5 398.53,-534.34 401.58,-524.19 394.59,-524.5"/>
</g>
<!-- Node11 -->
<g id="node11" class="node">
<title>Node11</title>
<g id="a_node11"><a xlink:href="_k___ob_callback_8hpp.html" target="_top" xlink:title="Header for K_ObCallback.cpp.">
<polygon fill="none" stroke="black" points="585.22,-178.5 585.22,-230.5 694.22,-230.5 694.22,-178.5 585.22,-178.5"/>
<text text-anchor="start" x="593.22" y="-218.5" font-family="Helvetica,sans-Serif" font-size="10.00">C:/Users/admin&#45;cyb</text>
<text text-anchor="start" x="593.22" y="-207.5" font-family="Helvetica,sans-Serif" font-size="10.00">/Desktop/PI&#45;Defender</text>
<text text-anchor="start" x="593.22" y="-196.5" font-family="Helvetica,sans-Serif" font-size="10.00">/Sources/PI&#45;Defender</text>
<text text-anchor="middle" x="639.72" y="-185.5" font-family="Helvetica,sans-Serif" font-size="10.00">/K_ObCallback.hpp</text>
</a>
</g>
</g>
<!-- Node1&#45;&gt;Node11 -->
<g id="edge27" class="edge">
<title>Node1&#45;&gt;Node11</title>
<path fill="none" stroke="midnightblue" d="M462.53,-529.31C506.97,-503.21 566.54,-461.44 601.72,-409 638.86,-353.64 642.13,-271.66 641.11,-230.7"/>
<polygon fill="midnightblue" stroke="midnightblue" points="460.77,-526.29 453.86,-534.32 464.27,-532.35 460.77,-526.29"/>
</g>
<!-- Node17 -->
<g id="node17" class="node">
<title>Node17</title>
<g id="a_node17"><a xlink:href="_k___utilitaire_8cpp.html" target="_top" xlink:title="Help functions used by several .cpp files.">
<polygon fill="none" stroke="black" points="668.22,-445.5 668.22,-497.5 777.22,-497.5 777.22,-445.5 668.22,-445.5"/>
<text text-anchor="start" x="676.22" y="-485.5" font-family="Helvetica,sans-Serif" font-size="10.00">C:/Users/admin&#45;cyb</text>
<text text-anchor="start" x="676.22" y="-474.5" font-family="Helvetica,sans-Serif" font-size="10.00">/Desktop/PI&#45;Defender</text>
<text text-anchor="start" x="676.22" y="-463.5" font-family="Helvetica,sans-Serif" font-size="10.00">/Sources/PI&#45;Defender</text>
<text text-anchor="middle" x="722.72" y="-452.5" font-family="Helvetica,sans-Serif" font-size="10.00">/K_Utilitaire.cpp</text>
</a>
</g>
</g>
<!-- Node1&#45;&gt;Node17 -->
<g id="edge28" class="edge">
<title>Node1&#45;&gt;Node17</title>
<path fill="none" stroke="midnightblue" d="M469.42,-545.61C520,-534.25 591.87,-517 653.72,-498 658.36,-496.57 663.14,-495.01 667.92,-493.38"/>
<polygon fill="midnightblue" stroke="midnightblue" points="468.6,-542.21 459.6,-547.8 470.12,-549.04 468.6,-542.21"/>
</g>
<!-- Node3 -->
<g id="node3" class="node">
<title>Node3</title>
<g id="a_node3"><a xlink:href="_k___driver_8hpp.html" target="_top" xlink:title="Header for K_Driver.cpp.">
<polygon fill="none" stroke="black" points="372.22,-89.5 372.22,-141.5 481.22,-141.5 481.22,-89.5 372.22,-89.5"/>
<text text-anchor="start" x="380.22" y="-129.5" font-family="Helvetica,sans-Serif" font-size="10.00">C:/Users/admin&#45;cyb</text>
<text text-anchor="start" x="380.22" y="-118.5" font-family="Helvetica,sans-Serif" font-size="10.00">/Desktop/PI&#45;Defender</text>
<text text-anchor="start" x="380.22" y="-107.5" font-family="Helvetica,sans-Serif" font-size="10.00">/Sources/PI&#45;Defender</text>
<text text-anchor="middle" x="426.72" y="-96.5" font-family="Helvetica,sans-Serif" font-size="10.00">/K_Driver.hpp</text>
</a>
</g>
</g>
<!-- Node2&#45;&gt;Node3 -->
<g id="edge2" class="edge">
<title>Node2&#45;&gt;Node3</title>
<path fill="none" stroke="midnightblue" d="M175.25,-177.66C247.6,-154.84 322.33,-137.81 371.79,-127.43"/>
<polygon fill="midnightblue" stroke="midnightblue" points="173.98,-174.39 165.52,-180.77 176.11,-181.06 173.98,-174.39"/>
</g>
<!-- Node5 -->
<g id="node5" class="node">
<title>Node5</title>
<g id="a_node5"><a xlink:href="_k___filter_8cpp.html" target="_top" xlink:title="Initialize filter object used by the communication.">
<polygon fill="none" stroke="black" points="56.22,-89.5 56.22,-141.5 165.22,-141.5 165.22,-89.5 56.22,-89.5"/>
<text text-anchor="start" x="64.22" y="-129.5" font-family="Helvetica,sans-Serif" font-size="10.00">C:/Users/admin&#45;cyb</text>
<text text-anchor="start" x="64.22" y="-118.5" font-family="Helvetica,sans-Serif" font-size="10.00">/Desktop/PI&#45;Defender</text>
<text text-anchor="start" x="64.22" y="-107.5" font-family="Helvetica,sans-Serif" font-size="10.00">/Sources/PI&#45;Defender</text>
<text text-anchor="middle" x="110.72" y="-96.5" font-family="Helvetica,sans-Serif" font-size="10.00">/K_Filter.cpp</text>
</a>
</g>
</g>
<!-- Node2&#45;&gt;Node5 -->
<g id="edge4" class="edge">
<title>Node2&#45;&gt;Node5</title>
<path fill="none" stroke="midnightblue" d="M110.72,-168.19C110.72,-159.28 110.72,-149.9 110.72,-141.61"/>
<polygon fill="midnightblue" stroke="midnightblue" points="107.22,-168.34 110.72,-178.34 114.22,-168.34 107.22,-168.34"/>
</g>
<!-- Node4 -->
<g id="node4" class="node">
<title>Node4</title>
<g id="a_node4"><a xlink:href="_k___driver_8cpp.html" target="_top" xlink:title="Entrypoint of the driver, unload routine.">
<polygon fill="none" stroke="black" points="372.22,-0.5 372.22,-52.5 481.22,-52.5 481.22,-0.5 372.22,-0.5"/>
<text text-anchor="start" x="380.22" y="-40.5" font-family="Helvetica,sans-Serif" font-size="10.00">C:/Users/admin&#45;cyb</text>
<text text-anchor="start" x="380.22" y="-29.5" font-family="Helvetica,sans-Serif" font-size="10.00">/Desktop/PI&#45;Defender</text>
<text text-anchor="start" x="380.22" y="-18.5" font-family="Helvetica,sans-Serif" font-size="10.00">/Sources/PI&#45;Defender</text>
<text text-anchor="middle" x="426.72" y="-7.5" font-family="Helvetica,sans-Serif" font-size="10.00">/K_Driver.cpp</text>
</a>
</g>
</g>
<!-- Node3&#45;&gt;Node4 -->
<g id="edge3" class="edge">
<title>Node3&#45;&gt;Node4</title>
<path fill="none" stroke="midnightblue" d="M426.72,-79.19C426.72,-70.28 426.72,-60.9 426.72,-52.61"/>
<polygon fill="midnightblue" stroke="midnightblue" points="423.22,-79.34 426.72,-89.34 430.22,-79.34 423.22,-79.34"/>
</g>
<!-- Node6&#45;&gt;Node1 -->
<g id="edge23" class="edge">
<title>Node6&#45;&gt;Node1</title>
<path fill="none" stroke="midnightblue" d="M411.36,-507.75C411.6,-516.65 411.45,-526.04 410.9,-534.34"/>
<polygon fill="midnightblue" stroke="midnightblue" points="414.85,-507.44 410.9,-497.61 407.86,-507.76 414.85,-507.44"/>
</g>
<!-- Node6&#45;&gt;Node2 -->
<g id="edge21" class="edge">
<title>Node6&#45;&gt;Node2</title>
<path fill="none" stroke="midnightblue" d="M339.82,-469.35C246.28,-463.57 79.05,-436.62 26.72,-320 17.08,-298.51 16.06,-288.01 26.72,-267 34.24,-252.17 47.2,-240.06 60.73,-230.62"/>
<polygon fill="midnightblue" stroke="midnightblue" points="339.84,-472.85 350.02,-469.91 340.23,-465.87 339.84,-472.85"/>
</g>
<!-- Node6&#45;&gt;Node3 -->
<g id="edge20" class="edge">
<title>Node6&#45;&gt;Node3</title>
<path fill="none" stroke="midnightblue" d="M448.04,-439.06C481.55,-411.84 525.38,-369.19 544.72,-320 553.57,-297.49 541.45,-183.8 537.72,-178 524.67,-157.71 502.47,-143.53 481.34,-133.94"/>
<polygon fill="midnightblue" stroke="midnightblue" points="445.84,-436.33 440.2,-445.3 450.2,-441.81 445.84,-436.33"/>
</g>
<!-- Node7 -->
<g id="node7" class="node">
<title>Node7</title>
<g id="a_node7"><a xlink:href="_k___cache_8hpp.html" target="_top" xlink:title="Header for K_Cache.cpp.">
<polygon fill="none" stroke="black" points="136.22,-356.5 136.22,-408.5 245.22,-408.5 245.22,-356.5 136.22,-356.5"/>
<text text-anchor="start" x="144.22" y="-396.5" font-family="Helvetica,sans-Serif" font-size="10.00">C:/Users/admin&#45;cyb</text>
<text text-anchor="start" x="144.22" y="-385.5" font-family="Helvetica,sans-Serif" font-size="10.00">/Desktop/PI&#45;Defender</text>
<text text-anchor="start" x="144.22" y="-374.5" font-family="Helvetica,sans-Serif" font-size="10.00">/Sources/PI&#45;Defender</text>
<text text-anchor="middle" x="190.72" y="-363.5" font-family="Helvetica,sans-Serif" font-size="10.00">/K_Cache.hpp</text>
</a>
</g>
</g>
<!-- Node6&#45;&gt;Node7 -->
<g id="edge6" class="edge">
<title>Node6&#45;&gt;Node7</title>
<path fill="none" stroke="midnightblue" d="M340.54,-444.41C310.27,-432.1 274.53,-417.57 245.55,-405.79"/>
<polygon fill="midnightblue" stroke="midnightblue" points="339.58,-447.8 350.16,-448.32 342.22,-441.31 339.58,-447.8"/>
</g>
<!-- Node9 -->
<g id="node9" class="node">
<title>Node9</title>
<g id="a_node9"><a xlink:href="_k___configuration_8hpp.html" target="_top" xlink:title="Header for K_Configuration.cpp.">
<polygon fill="none" stroke="black" points="163.22,-267.5 163.22,-319.5 272.22,-319.5 272.22,-267.5 163.22,-267.5"/>
<text text-anchor="start" x="171.22" y="-307.5" font-family="Helvetica,sans-Serif" font-size="10.00">C:/Users/admin&#45;cyb</text>
<text text-anchor="start" x="171.22" y="-296.5" font-family="Helvetica,sans-Serif" font-size="10.00">/Desktop/PI&#45;Defender</text>
<text text-anchor="start" x="171.22" y="-285.5" font-family="Helvetica,sans-Serif" font-size="10.00">/Sources/PI&#45;Defender</text>
<text text-anchor="middle" x="217.72" y="-274.5" font-family="Helvetica,sans-Serif" font-size="10.00">/K_Configuration.hpp</text>
</a>
</g>
</g>
<!-- Node6&#45;&gt;Node9 -->
<g id="edge19" class="edge">
<title>Node6&#45;&gt;Node9</title>
<path fill="none" stroke="midnightblue" d="M340.95,-442.45C324.15,-433.27 306.8,-422.03 292.72,-409 277.85,-395.24 249.52,-349.02 232.25,-319.68"/>
<polygon fill="midnightblue" stroke="midnightblue" points="339.73,-445.76 350.21,-447.34 343,-439.57 339.73,-445.76"/>
</g>
<!-- Node6&#45;&gt;Node11 -->
<g id="edge22" class="edge">
<title>Node6&#45;&gt;Node11</title>
<path fill="none" stroke="midnightblue" d="M469.33,-462.04C505.69,-454.09 549.34,-438.71 577.72,-409 590.28,-395.85 620.22,-282.43 633.36,-230.85"/>
<polygon fill="midnightblue" stroke="midnightblue" points="468.39,-458.66 459.29,-464.09 469.79,-465.52 468.39,-458.66"/>
</g>
<!-- Node13 -->
<g id="node13" class="node">
<title>Node13</title>
<g id="a_node13"><a xlink:href="_k___communication_8hpp.html" target="_top" xlink:title="Header for K_Communication.cpp.">
<polygon fill="none" stroke="black" points="417.72,-267.5 417.72,-319.5 535.72,-319.5 535.72,-267.5 417.72,-267.5"/>
<text text-anchor="start" x="425.72" y="-307.5" font-family="Helvetica,sans-Serif" font-size="10.00">C:/Users/admin&#45;cyb</text>
<text text-anchor="start" x="425.72" y="-296.5" font-family="Helvetica,sans-Serif" font-size="10.00">/Desktop/PI&#45;Defender</text>
<text text-anchor="start" x="425.72" y="-285.5" font-family="Helvetica,sans-Serif" font-size="10.00">/Sources/PI&#45;Defender</text>
<text text-anchor="middle" x="476.72" y="-274.5" font-family="Helvetica,sans-Serif" font-size="10.00">/K_Communication.hpp</text>
</a>
</g>
</g>
<!-- Node6&#45;&gt;Node13 -->
<g id="edge15" class="edge">
<title>Node6&#45;&gt;Node13</title>
<path fill="none" stroke="midnightblue" d="M418.96,-435.69C432.95,-401.48 453.97,-350.1 466.42,-319.67"/>
<polygon fill="midnightblue" stroke="midnightblue" points="415.58,-434.7 415.03,-445.28 422.06,-437.35 415.58,-434.7"/>
</g>
<!-- Node15 -->
<g id="node15" class="node">
<title>Node15</title>
<g id="a_node15"><a xlink:href="_k___whitelist_8hpp.html" target="_top" xlink:title="Header for K_Whitelist.cpp.">
<polygon fill="none" stroke="black" points="302.22,-356.5 302.22,-408.5 411.22,-408.5 411.22,-356.5 302.22,-356.5"/>
<text text-anchor="start" x="310.22" y="-396.5" font-family="Helvetica,sans-Serif" font-size="10.00">C:/Users/admin&#45;cyb</text>
<text text-anchor="start" x="310.22" y="-385.5" font-family="Helvetica,sans-Serif" font-size="10.00">/Desktop/PI&#45;Defender</text>
<text text-anchor="start" x="310.22" y="-374.5" font-family="Helvetica,sans-Serif" font-size="10.00">/Sources/PI&#45;Defender</text>
<text text-anchor="middle" x="356.72" y="-363.5" font-family="Helvetica,sans-Serif" font-size="10.00">/K_Whitelist.hpp</text>
</a>
</g>
</g>
<!-- Node6&#45;&gt;Node15 -->
<g id="edge24" class="edge">
<title>Node6&#45;&gt;Node15</title>
<path fill="none" stroke="midnightblue" d="M385.88,-436.35C380.77,-427.1 375.34,-417.26 370.57,-408.61"/>
<polygon fill="midnightblue" stroke="midnightblue" points="382.94,-438.27 390.84,-445.34 389.07,-434.89 382.94,-438.27"/>
</g>
<!-- Node8 -->
<g id="node8" class="node">
<title>Node8</title>
<g id="a_node8"><a xlink:href="_k___cache_8cpp.html" target="_top" xlink:title="Store hash of signed and unsigned executable previously scanned.">
<polygon fill="none" stroke="black" points="36.22,-267.5 36.22,-319.5 145.22,-319.5 145.22,-267.5 36.22,-267.5"/>
<text text-anchor="start" x="44.22" y="-307.5" font-family="Helvetica,sans-Serif" font-size="10.00">C:/Users/admin&#45;cyb</text>
<text text-anchor="start" x="44.22" y="-296.5" font-family="Helvetica,sans-Serif" font-size="10.00">/Desktop/PI&#45;Defender</text>
<text text-anchor="start" x="44.22" y="-285.5" font-family="Helvetica,sans-Serif" font-size="10.00">/Sources/PI&#45;Defender</text>
<text text-anchor="middle" x="90.72" y="-274.5" font-family="Helvetica,sans-Serif" font-size="10.00">/K_Cache.cpp</text>
</a>
</g>
</g>
<!-- Node7&#45;&gt;Node8 -->
<g id="edge7" class="edge">
<title>Node7&#45;&gt;Node8</title>
<path fill="none" stroke="midnightblue" d="M154.11,-349.65C142.73,-339.75 130.35,-328.98 119.58,-319.61"/>
<polygon fill="midnightblue" stroke="midnightblue" points="151.95,-352.41 161.79,-356.34 156.55,-347.13 151.95,-352.41"/>
</g>
<!-- Node7&#45;&gt;Node9 -->
<g id="edge8" class="edge">
<title>Node7&#45;&gt;Node9</title>
<path fill="none" stroke="midnightblue" d="M201.5,-346.77C204.31,-337.69 207.3,-328.08 209.93,-319.61"/>
<polygon fill="midnightblue" stroke="midnightblue" points="198.15,-345.75 198.53,-356.34 204.83,-347.82 198.15,-345.75"/>
</g>
<!-- Node9&#45;&gt;Node2 -->
<g id="edge11" class="edge">
<title>Node9&#45;&gt;Node2</title>
<path fill="none" stroke="midnightblue" d="M178.9,-260.93C166.62,-250.96 153.24,-240.07 141.6,-230.61"/>
<polygon fill="midnightblue" stroke="midnightblue" points="176.8,-263.74 186.77,-267.34 181.22,-258.31 176.8,-263.74"/>
</g>
<!-- Node9&#45;&gt;Node3 -->
<g id="edge10" class="edge">
<title>Node9&#45;&gt;Node3</title>
<path fill="none" stroke="midnightblue" d="M261.67,-261.2C274.47,-251.75 288.33,-241.18 300.72,-231 336.35,-201.73 375.34,-165.62 400.37,-141.87"/>
<polygon fill="midnightblue" stroke="midnightblue" points="259.44,-258.49 253.45,-267.23 263.58,-264.14 259.44,-258.49"/>
</g>
<!-- Node10 -->
<g id="node10" class="node">
<title>Node10</title>
<g id="a_node10"><a xlink:href="_k___configuration_8cpp.html" target="_top" xlink:title="Load the configuration of the driver.">
<polygon fill="none" stroke="black" points="183.22,-178.5 183.22,-230.5 292.22,-230.5 292.22,-178.5 183.22,-178.5"/>
<text text-anchor="start" x="191.22" y="-218.5" font-family="Helvetica,sans-Serif" font-size="10.00">C:/Users/admin&#45;cyb</text>
<text text-anchor="start" x="191.22" y="-207.5" font-family="Helvetica,sans-Serif" font-size="10.00">/Desktop/PI&#45;Defender</text>
<text text-anchor="start" x="191.22" y="-196.5" font-family="Helvetica,sans-Serif" font-size="10.00">/Sources/PI&#45;Defender</text>
<text text-anchor="middle" x="237.72" y="-185.5" font-family="Helvetica,sans-Serif" font-size="10.00">/K_Configuration.cpp</text>
</a>
</g>
</g>
<!-- Node9&#45;&gt;Node10 -->
<g id="edge9" class="edge">
<title>Node9&#45;&gt;Node10</title>
<path fill="none" stroke="midnightblue" d="M225.77,-257.48C227.84,-248.49 230.02,-238.99 231.95,-230.61"/>
<polygon fill="midnightblue" stroke="midnightblue" points="222.33,-256.81 223.5,-267.34 229.15,-258.37 222.33,-256.81"/>
</g>
<!-- Node9&#45;&gt;Node11 -->
<g id="edge12" class="edge">
<title>Node9&#45;&gt;Node11</title>
<path fill="none" stroke="midnightblue" d="M282.39,-266.81C394.02,-238.01 427.71,-252.39 537.72,-231 553.22,-227.99 569.89,-224.1 585.17,-220.27"/>
<polygon fill="midnightblue" stroke="midnightblue" points="281.2,-263.5 272.42,-269.44 282.98,-270.27 281.2,-263.5"/>
</g>
<!-- Node11&#45;&gt;Node3 -->
<g id="edge13" class="edge">
<title>Node11&#45;&gt;Node3</title>
<path fill="none" stroke="midnightblue" d="M575.61,-177.31C545.61,-165.06 510.25,-150.62 481.52,-138.88"/>
<polygon fill="midnightblue" stroke="midnightblue" points="574.56,-180.67 585.14,-181.21 577.21,-174.19 574.56,-180.67"/>
</g>
<!-- Node12 -->
<g id="node12" class="node">
<title>Node12</title>
<g id="a_node12"><a xlink:href="_k___ob_callback_8cpp.html" target="_top" xlink:title="Handle request callback.">
<polygon fill="none" stroke="black" points="585.22,-89.5 585.22,-141.5 694.22,-141.5 694.22,-89.5 585.22,-89.5"/>
<text text-anchor="start" x="593.22" y="-129.5" font-family="Helvetica,sans-Serif" font-size="10.00">C:/Users/admin&#45;cyb</text>
<text text-anchor="start" x="593.22" y="-118.5" font-family="Helvetica,sans-Serif" font-size="10.00">/Desktop/PI&#45;Defender</text>
<text text-anchor="start" x="593.22" y="-107.5" font-family="Helvetica,sans-Serif" font-size="10.00">/Sources/PI&#45;Defender</text>
<text text-anchor="middle" x="639.72" y="-96.5" font-family="Helvetica,sans-Serif" font-size="10.00">/K_ObCallback.cpp</text>
</a>
</g>
</g>
<!-- Node11&#45;&gt;Node12 -->
<g id="edge14" class="edge">
<title>Node11&#45;&gt;Node12</title>
<path fill="none" stroke="midnightblue" d="M639.72,-168.19C639.72,-159.28 639.72,-149.9 639.72,-141.61"/>
<polygon fill="midnightblue" stroke="midnightblue" points="636.22,-168.34 639.72,-178.34 643.22,-168.34 636.22,-168.34"/>
</g>
<!-- Node13&#45;&gt;Node2 -->
<g id="edge17" class="edge">
<title>Node13&#45;&gt;Node2</title>
<path fill="none" stroke="midnightblue" d="M407.74,-266.99C304.55,-241.4 272.52,-258.16 173.72,-231 170.99,-230.25 168.22,-229.42 165.43,-228.52"/>
<polygon fill="midnightblue" stroke="midnightblue" points="407.06,-270.43 417.61,-269.51 408.79,-263.65 407.06,-270.43"/>
</g>
<!-- Node13&#45;&gt;Node11 -->
<g id="edge18" class="edge">
<title>Node13&#45;&gt;Node11</title>
<path fill="none" stroke="midnightblue" d="M532.94,-262.49C552.41,-252.1 574.02,-240.57 592.68,-230.61"/>
<polygon fill="midnightblue" stroke="midnightblue" points="531.04,-259.54 523.86,-267.34 534.34,-265.71 531.04,-259.54"/>
</g>
<!-- Node14 -->
<g id="node14" class="node">
<title>Node14</title>
<g id="a_node14"><a xlink:href="_k___communication_8cpp.html" target="_top" xlink:title="Create the communication server, send data to the user&#45;mode service once a client is connected.">
<polygon fill="none" stroke="black" points="410.72,-178.5 410.72,-230.5 528.72,-230.5 528.72,-178.5 410.72,-178.5"/>
<text text-anchor="start" x="418.72" y="-218.5" font-family="Helvetica,sans-Serif" font-size="10.00">C:/Users/admin&#45;cyb</text>
<text text-anchor="start" x="418.72" y="-207.5" font-family="Helvetica,sans-Serif" font-size="10.00">/Desktop/PI&#45;Defender</text>
<text text-anchor="start" x="418.72" y="-196.5" font-family="Helvetica,sans-Serif" font-size="10.00">/Sources/PI&#45;Defender</text>
<text text-anchor="middle" x="469.72" y="-185.5" font-family="Helvetica,sans-Serif" font-size="10.00">/K_Communication.cpp</text>
</a>
</g>
</g>
<!-- Node13&#45;&gt;Node14 -->
<g id="edge16" class="edge">
<title>Node13&#45;&gt;Node14</title>
<path fill="none" stroke="midnightblue" d="M473.88,-257.19C473.16,-248.28 472.41,-238.9 471.74,-230.61"/>
<polygon fill="midnightblue" stroke="midnightblue" points="470.4,-257.65 474.69,-267.34 477.38,-257.09 470.4,-257.65"/>
</g>
<!-- Node15&#45;&gt;Node9 -->
<g id="edge25" class="edge">
<title>Node15&#45;&gt;Node9</title>
<path fill="none" stroke="midnightblue" d="M307.65,-350.79C291.34,-340.58 273.38,-329.34 257.83,-319.61"/>
<polygon fill="midnightblue" stroke="midnightblue" points="306.18,-354 316.51,-356.34 309.89,-348.06 306.18,-354"/>
</g>
<!-- Node16 -->
<g id="node16" class="node">
<title>Node16</title>
<g id="a_node16"><a xlink:href="_k___whitelist_8cpp.html" target="_top" xlink:title=" ">
<polygon fill="none" stroke="black" points="290.22,-267.5 290.22,-319.5 399.22,-319.5 399.22,-267.5 290.22,-267.5"/>
<text text-anchor="start" x="298.22" y="-307.5" font-family="Helvetica,sans-Serif" font-size="10.00">C:/Users/admin&#45;cyb</text>
<text text-anchor="start" x="298.22" y="-296.5" font-family="Helvetica,sans-Serif" font-size="10.00">/Desktop/PI&#45;Defender</text>
<text text-anchor="start" x="298.22" y="-285.5" font-family="Helvetica,sans-Serif" font-size="10.00">/Sources/PI&#45;Defender</text>
<text text-anchor="middle" x="344.72" y="-274.5" font-family="Helvetica,sans-Serif" font-size="10.00">/K_Whitelist.cpp</text>
</a>
</g>
</g>
<!-- Node15&#45;&gt;Node16 -->
<g id="edge26" class="edge">
<title>Node15&#45;&gt;Node16</title>
<path fill="none" stroke="midnightblue" d="M351.85,-346.19C350.62,-337.28 349.33,-327.9 348.18,-319.61"/>
<polygon fill="midnightblue" stroke="midnightblue" points="348.41,-346.91 353.25,-356.34 355.35,-345.95 348.41,-346.91"/>
</g>
</g>
</svg>
        <g id="navigator" transform="translate(0 0)" fill="#404254">
                <rect fill="#f2f5e9" fill-opacity="0.5" stroke="#606060" stroke-width=".5" x="0" y="0" width="60" height="60"/>
                <use id="zoomplus" xlink:href="#zoomPlus" x="17" y="9" onmousedown="handleZoom(evt,'in')"/>
                <use id="zoomminus" xlink:href="#zoomMin" x="42" y="9" onmousedown="handleZoom(evt,'out')"/>
                <use id="reset" xlink:href="#resetDef" x="30" y="36" onmousedown="handleReset()"/>
                <g id="arrowUp" xlink:href="#dirArrow" transform="translate(30 24)" onmousedown="handlePan(0,-1)">
                  <use xlink:href="#rim" fill="#404040">
                        <set attributeName="fill" to="#808080" begin="arrowUp.mouseover" end="arrowUp.mouseout"/>
                  </use>
                  <path fill="none" stroke="white" stroke-width="1.5" d="M0,-3.0v7 M-2.5,-0.5L0,-3.0L2.5,-0.5"/>
                </g>
                <g id="arrowRight" xlink:href="#dirArrow" transform="rotate(90) translate(36 -43)" onmousedown="handlePan(1,0)">
                  <use xlink:href="#rim" fill="#404040">
                        <set attributeName="fill" to="#808080" begin="arrowRight.mouseover" end="arrowRight.mouseout"/>
                  </use>
                  <path fill="none" stroke="white" stroke-width="1.5" d="M0,-3.0v7 M-2.5,-0.5L0,-3.0L2.5,-0.5"/>
                </g>
                <g id="arrowDown" xlink:href="#dirArrow" transform="rotate(180) translate(-30 -48)" onmousedown="handlePan(0,1)">
                  <use xlink:href="#rim" fill="#404040">
                        <set attributeName="fill" to="#808080" begin="arrowDown.mouseover" end="arrowDown.mouseout"/>
                  </use>
                  <path fill="none" stroke="white" stroke-width="1.5" d="M0,-3.0v7 M-2.5,-0.5L0,-3.0L2.5,-0.5"/>
                </g>
                <g id="arrowLeft" xlink:href="#dirArrow" transform="rotate(270) translate(-36 17)" onmousedown="handlePan(-1,0)">
                  <use xlink:href="#rim" fill="#404040">
                        <set attributeName="fill" to="#808080" begin="arrowLeft.mouseover" end="arrowLeft.mouseout"/>
                  </use>
                  <path fill="none" stroke="white" stroke-width="1.5" d="M0,-3.0v7 M-2.5,-0.5L0,-3.0L2.5,-0.5"/>
                </g>
        </g>
        <svg viewBox="0 0 15 15" width="100%" height="30px" preserveAspectRatio="xMaxYMin meet">
         <g id="arrow_out" transform="scale(0.3 0.3)">
          <a xlink:href="_k___utilitaire_8hpp__dep__incl_org.svg" target="_base">
           <rect id="button" ry="5" rx="5" y="6" x="6" height="38" width="38"
                fill="#f2f5e9" fill-opacity="0.5" stroke="#606060" stroke-width="1.0"/>
           <path id="arrow"
             d="M 11.500037,31.436501 C 11.940474,20.09759 22.043105,11.32322 32.158766,21.979434 L 37.068811,17.246167 C 37.068811,17.246167 37.088388,32 37.088388,32 L 22.160133,31.978069 C 22.160133,31.978069 26.997745,27.140456 26.997745,27.140456 C 18.528582,18.264221 13.291696,25.230495 11.500037,31.436501 z"
             style="fill:#404040;"/>
          </a>
         </g>
        </svg>
</svg>
