<?xml version="1.0" encoding="UTF-8" standalone="no"?>
<!DOCTYPE svg PUBLIC "-//W3C//DTD SVG 1.1//EN"
 "http://www.w3.org/Graphics/SVG/1.1/DTD/svg11.dtd">
<!-- Generated by graphviz version 4.0.0 (20220529.0937)
 -->
<!-- Title: C:/Users/admin&#45;cyb/Desktop/pi&#45;defender/Sources/PI&#45;Defender/K_GlobalHeader.hpp Pages: 1 -->
<!--zoomable 506 -->
<svg id="main" version="1.1" xmlns="http://www.w3.org/2000/svg" xmlns:xlink="http://www.w3.org/1999/xlink" xml:space="preserve" onload="init(evt)">
<style type="text/css"><![CDATA[
.edge:hover path { stroke: red; }
.edge:hover polygon { stroke: red; fill: red; }
]]></style>
<script type="text/javascript"><![CDATA[
var edges = document.getElementsByTagName('g');
if (edges && edges.length) {
  for (var i=0;i<edges.length;i++) {
    if (edges[i].id.substr(0,4)=='edge') {
      edges[i].setAttribute('class','edge');
    }
  }
}
]]></script>
        <defs>
                <circle id="rim" cx="0" cy="0" r="7"/>
                <circle id="rim2" cx="0" cy="0" r="3.5"/>
                <g id="zoomPlus">
                        <use xlink:href="#rim" fill="#404040">
                                <set attributeName="fill" to="#808080" begin="zoomplus.mouseover" end="zoomplus.mouseout"/>
                        </use>
                        <path d="M-4,0h8M0,-4v8" fill="none" stroke="white" stroke-width="1.5" pointer-events="none"/>
                </g>
                <g id="zoomMin">
                        <use xlink:href="#rim" fill="#404040">
                                <set attributeName="fill" to="#808080" begin="zoomminus.mouseover" end="zoomminus.mouseout"/>
                        </use>
                        <path d="M-4,0h8" fill="none" stroke="white" stroke-width="1.5" pointer-events="none"/>
                </g>
                <g id="dirArrow">
                        <path fill="none" stroke="white" stroke-width="1.5" d="M0,-3.0v7 M-2.5,-0.5L0,-3.0L2.5,-0.5"/>
                </g>
               <g id="resetDef">
                       <use xlink:href="#rim2" fill="#404040">
                               <set attributeName="fill" to="#808080" begin="reset.mouseover" end="reset.mouseout"/>
                       </use>
               </g>
        </defs>

<script type="text/javascript">
var viewWidth = 833;
var viewHeight = 506;
var sectionId = 'dynsection-1';
</script>
<script xlink:href="svgpan.js"/>
<svg id="graph" class="graph">
<g id="viewport">
<title>C:/Users/admin&#45;cyb/Desktop/pi&#45;defender/Sources/PI&#45;Defender/K_GlobalHeader.hpp</title>
<!-- Node1 -->
<g id="node1" class="node">
<title>Node1</title>
<g id="a_node1"><a xlink:title="Header used by several .cpp files.">
<polygon fill="#bfbfbf" stroke="black" points="375,-445.5 375,-497.5 484,-497.5 484,-445.5 375,-445.5"/>
<text text-anchor="start" x="383" y="-485.5" font-family="Helvetica,sans-Serif" font-size="10.00">C:/Users/admin&#45;cyb</text>
<text text-anchor="start" x="383" y="-474.5" font-family="Helvetica,sans-Serif" font-size="10.00">/Desktop/pi&#45;defender</text>
<text text-anchor="start" x="383" y="-463.5" font-family="Helvetica,sans-Serif" font-size="10.00">/Sources/PI&#45;Defender</text>
<text text-anchor="middle" x="429.5" y="-452.5" font-family="Helvetica,sans-Serif" font-size="10.00">/K_GlobalHeader.hpp</text>
</a>
</g>
</g>
<!-- Node2 -->
<g id="node2" class="node">
<title>Node2</title>
<g id="a_node2"><a xlink:href="_k___cache_8hpp.html" target="_top" xlink:title="Header for K_Cache.cpp.">
<polygon fill="none" stroke="black" points="88,-356.5 88,-408.5 197,-408.5 197,-356.5 88,-356.5"/>
<text text-anchor="start" x="96" y="-396.5" font-family="Helvetica,sans-Serif" font-size="10.00">C:/Users/admin&#45;cyb</text>
<text text-anchor="start" x="96" y="-385.5" font-family="Helvetica,sans-Serif" font-size="10.00">/Desktop/pi&#45;defender</text>
<text text-anchor="start" x="96" y="-374.5" font-family="Helvetica,sans-Serif" font-size="10.00">/Sources/PI&#45;Defender</text>
<text text-anchor="middle" x="142.5" y="-363.5" font-family="Helvetica,sans-Serif" font-size="10.00">/K_Cache.hpp</text>
</a>
</g>
</g>
<!-- Node1&#45;&gt;Node2 -->
<g id="edge1" class="edge">
<title>Node1&#45;&gt;Node2</title>
<path fill="none" stroke="midnightblue" d="M365.04,-453.75C321.43,-442.07 262.67,-425.65 211.5,-409 206.89,-407.5 202.12,-405.88 197.35,-404.22"/>
<polygon fill="midnightblue" stroke="midnightblue" points="364.38,-457.2 374.94,-456.39 366.18,-450.43 364.38,-457.2"/>
</g>
<!-- Node4 -->
<g id="node4" class="node">
<title>Node4</title>
<g id="a_node4"><a xlink:href="_k___configuration_8hpp.html" target="_top" xlink:title="Header for K_Configuration.cpp.">
<polygon fill="none" stroke="black" points="127,-267.5 127,-319.5 236,-319.5 236,-267.5 127,-267.5"/>
<text text-anchor="start" x="135" y="-307.5" font-family="Helvetica,sans-Serif" font-size="10.00">C:/Users/admin&#45;cyb</text>
<text text-anchor="start" x="135" y="-296.5" font-family="Helvetica,sans-Serif" font-size="10.00">/Desktop/pi&#45;defender</text>
<text text-anchor="start" x="135" y="-285.5" font-family="Helvetica,sans-Serif" font-size="10.00">/Sources/PI&#45;Defender</text>
<text text-anchor="middle" x="181.5" y="-274.5" font-family="Helvetica,sans-Serif" font-size="10.00">/K_Configuration.hpp</text>
</a>
</g>
</g>
<!-- Node1&#45;&gt;Node4 -->
<g id="edge17" class="edge">
<title>Node1&#45;&gt;Node4</title>
<path fill="none" stroke="midnightblue" d="M364.86,-461.18C326.41,-452.87 278.64,-437.43 244.5,-409 229.55,-396.55 206.36,-349.39 192.67,-319.62"/>
<polygon fill="midnightblue" stroke="midnightblue" points="364.43,-464.66 374.93,-463.23 365.83,-457.8 364.43,-464.66"/>
</g>
<!-- Node6 -->
<g id="node6" class="node">
<title>Node6</title>
<g id="a_node6"><a xlink:href="_k___driver_8hpp.html" target="_top" xlink:title="Header for K_Driver.cpp.">
<polygon fill="none" stroke="black" points="331,-89.5 331,-141.5 440,-141.5 440,-89.5 331,-89.5"/>
<text text-anchor="start" x="339" y="-129.5" font-family="Helvetica,sans-Serif" font-size="10.00">C:/Users/admin&#45;cyb</text>
<text text-anchor="start" x="339" y="-118.5" font-family="Helvetica,sans-Serif" font-size="10.00">/Desktop/pi&#45;defender</text>
<text text-anchor="start" x="339" y="-107.5" font-family="Helvetica,sans-Serif" font-size="10.00">/Sources/PI&#45;Defender</text>
<text text-anchor="middle" x="385.5" y="-96.5" font-family="Helvetica,sans-Serif" font-size="10.00">/K_Driver.hpp</text>
</a>
</g>
</g>
<!-- Node1&#45;&gt;Node6 -->
<g id="edge18" class="edge">
<title>Node1&#45;&gt;Node6</title>
<path fill="none" stroke="midnightblue" d="M425.09,-435.04C416.21,-363.58 396.35,-203.8 388.64,-141.78"/>
<polygon fill="midnightblue" stroke="midnightblue" points="421.66,-435.83 426.37,-445.32 428.61,-434.97 421.66,-435.83"/>
</g>
<!-- Node8 -->
<g id="node8" class="node">
<title>Node8</title>
<g id="a_node8"><a xlink:href="_k___filter_8hpp.html" target="_top" xlink:title="Header for K_Filter.cpp.">
<polygon fill="none" stroke="black" points="420,-178.5 420,-230.5 529,-230.5 529,-178.5 420,-178.5"/>
<text text-anchor="start" x="428" y="-218.5" font-family="Helvetica,sans-Serif" font-size="10.00">C:/Users/admin&#45;cyb</text>
<text text-anchor="start" x="428" y="-207.5" font-family="Helvetica,sans-Serif" font-size="10.00">/Desktop/pi&#45;defender</text>
<text text-anchor="start" x="428" y="-196.5" font-family="Helvetica,sans-Serif" font-size="10.00">/Sources/PI&#45;Defender</text>
<text text-anchor="middle" x="474.5" y="-185.5" font-family="Helvetica,sans-Serif" font-size="10.00">/K_Filter.hpp</text>
</a>
</g>
</g>
<!-- Node1&#45;&gt;Node8 -->
<g id="edge19" class="edge">
<title>Node1&#45;&gt;Node8</title>
<path fill="none" stroke="midnightblue" d="M435.55,-434.89C444.77,-380.56 462.14,-278.26 470.2,-230.83"/>
<polygon fill="midnightblue" stroke="midnightblue" points="432.04,-434.65 433.81,-445.09 438.94,-435.82 432.04,-434.65"/>
</g>
<!-- Node10 -->
<g id="node10" class="node">
<title>Node10</title>
<g id="a_node10"><a xlink:href="_k___ob_callback_8hpp.html" target="_top" xlink:title="Header for K_ObCallback.cpp.">
<polygon fill="none" stroke="black" points="579,-178.5 579,-230.5 688,-230.5 688,-178.5 579,-178.5"/>
<text text-anchor="start" x="587" y="-218.5" font-family="Helvetica,sans-Serif" font-size="10.00">C:/Users/admin&#45;cyb</text>
<text text-anchor="start" x="587" y="-207.5" font-family="Helvetica,sans-Serif" font-size="10.00">/Desktop/pi&#45;defender</text>
<text text-anchor="start" x="587" y="-196.5" font-family="Helvetica,sans-Serif" font-size="10.00">/Sources/PI&#45;Defender</text>
<text text-anchor="middle" x="633.5" y="-185.5" font-family="Helvetica,sans-Serif" font-size="10.00">/K_ObCallback.hpp</text>
</a>
</g>
</g>
<!-- Node1&#45;&gt;Node10 -->
<g id="edge25" class="edge">
<title>Node1&#45;&gt;Node10</title>
<path fill="none" stroke="midnightblue" d="M494.19,-465.69C580.01,-455.33 727.74,-422.7 788.5,-320 800.49,-299.73 801.74,-286.48 788.5,-267 764.05,-231.03 737.92,-247.05 697.5,-231 694.5,-229.81 691.42,-228.58 688.31,-227.35"/>
<polygon fill="midnightblue" stroke="midnightblue" points="493.58,-462.23 484.04,-466.84 494.37,-469.19 493.58,-462.23"/>
</g>
<!-- Node12 -->
<g id="node12" class="node">
<title>Node12</title>
<g id="a_node12"><a xlink:href="_k___communication_8hpp.html" target="_top" xlink:title="Header for K_Communication.cpp.">
<polygon fill="none" stroke="black" points="661.5,-267.5 661.5,-319.5 779.5,-319.5 779.5,-267.5 661.5,-267.5"/>
<text text-anchor="start" x="669.5" y="-307.5" font-family="Helvetica,sans-Serif" font-size="10.00">C:/Users/admin&#45;cyb</text>
<text text-anchor="start" x="669.5" y="-296.5" font-family="Helvetica,sans-Serif" font-size="10.00">/Desktop/pi&#45;defender</text>
<text text-anchor="start" x="669.5" y="-285.5" font-family="Helvetica,sans-Serif" font-size="10.00">/Sources/PI&#45;Defender</text>
<text text-anchor="middle" x="720.5" y="-274.5" font-family="Helvetica,sans-Serif" font-size="10.00">/K_Communication.hpp</text>
</a>
</g>
</g>
<!-- Node1&#45;&gt;Node12 -->
<g id="edge13" class="edge">
<title>Node1&#45;&gt;Node12</title>
<path fill="none" stroke="midnightblue" d="M493.82,-448.04C520.23,-437.69 550.63,-424.3 576.5,-409 620.63,-382.91 666.02,-344.53 693.75,-319.52"/>
<polygon fill="midnightblue" stroke="midnightblue" points="492.36,-444.85 484.28,-451.71 494.87,-451.38 492.36,-444.85"/>
</g>
<!-- Node14 -->
<g id="node14" class="node">
<title>Node14</title>
<g id="a_node14"><a xlink:href="_k___helper_8hpp.html" target="_top" xlink:title="Header for K_Helper.cpp.">
<polygon fill="none" stroke="black" points="458,-356.5 458,-408.5 567,-408.5 567,-356.5 458,-356.5"/>
<text text-anchor="start" x="466" y="-396.5" font-family="Helvetica,sans-Serif" font-size="10.00">C:/Users/admin&#45;cyb</text>
<text text-anchor="start" x="466" y="-385.5" font-family="Helvetica,sans-Serif" font-size="10.00">/Desktop/pi&#45;defender</text>
<text text-anchor="start" x="466" y="-374.5" font-family="Helvetica,sans-Serif" font-size="10.00">/Sources/PI&#45;Defender</text>
<text text-anchor="middle" x="512.5" y="-363.5" font-family="Helvetica,sans-Serif" font-size="10.00">/K_Helper.hpp</text>
</a>
</g>
</g>
<!-- Node1&#45;&gt;Node14 -->
<g id="edge20" class="edge">
<title>Node1&#45;&gt;Node14</title>
<path fill="none" stroke="midnightblue" d="M454.14,-437.79C463.02,-428.13 473.08,-417.71 482.36,-408.61"/>
<polygon fill="midnightblue" stroke="midnightblue" points="451.43,-435.57 447.32,-445.34 456.62,-440.27 451.43,-435.57"/>
</g>
<!-- Node16 -->
<g id="node16" class="node">
<title>Node16</title>
<g id="a_node16"><a xlink:href="_k___whitelist_8hpp.html" target="_top" xlink:title="Header for K_Whitelist.cpp.">
<polygon fill="none" stroke="black" points="254,-356.5 254,-408.5 363,-408.5 363,-356.5 254,-356.5"/>
<text text-anchor="start" x="262" y="-396.5" font-family="Helvetica,sans-Serif" font-size="10.00">C:/Users/admin&#45;cyb</text>
<text text-anchor="start" x="262" y="-385.5" font-family="Helvetica,sans-Serif" font-size="10.00">/Desktop/pi&#45;defender</text>
<text text-anchor="start" x="262" y="-374.5" font-family="Helvetica,sans-Serif" font-size="10.00">/Sources/PI&#45;Defender</text>
<text text-anchor="middle" x="308.5" y="-363.5" font-family="Helvetica,sans-Serif" font-size="10.00">/K_Whitelist.hpp</text>
</a>
</g>
</g>
<!-- Node1&#45;&gt;Node16 -->
<g id="edge26" class="edge">
<title>Node1&#45;&gt;Node16</title>
<path fill="none" stroke="midnightblue" d="M385.99,-439.22C372.01,-429.16 356.71,-418.16 343.42,-408.61"/>
<polygon fill="midnightblue" stroke="midnightblue" points="384.34,-442.34 394.5,-445.34 388.43,-436.66 384.34,-442.34"/>
</g>
<!-- Node3 -->
<g id="node3" class="node">
<title>Node3</title>
<g id="a_node3"><a xlink:href="_k___cache_8cpp.html" target="_top" xlink:title="Store hash of signed and unsigned executable previously scanned.">
<polygon fill="none" stroke="black" points="0,-267.5 0,-319.5 109,-319.5 109,-267.5 0,-267.5"/>
<text text-anchor="start" x="8" y="-307.5" font-family="Helvetica,sans-Serif" font-size="10.00">C:/Users/admin&#45;cyb</text>
<text text-anchor="start" x="8" y="-296.5" font-family="Helvetica,sans-Serif" font-size="10.00">/Desktop/pi&#45;defender</text>
<text text-anchor="start" x="8" y="-285.5" font-family="Helvetica,sans-Serif" font-size="10.00">/Sources/PI&#45;Defender</text>
<text text-anchor="middle" x="54.5" y="-274.5" font-family="Helvetica,sans-Serif" font-size="10.00">/K_Cache.cpp</text>
</a>
</g>
</g>
<!-- Node2&#45;&gt;Node3 -->
<g id="edge2" class="edge">
<title>Node2&#45;&gt;Node3</title>
<path fill="none" stroke="midnightblue" d="M109.7,-349.08C99.85,-339.34 89.19,-328.8 79.9,-319.61"/>
<polygon fill="midnightblue" stroke="midnightblue" points="107.47,-351.79 117.05,-356.34 112.4,-346.82 107.47,-351.79"/>
</g>
<!-- Node2&#45;&gt;Node4 -->
<g id="edge3" class="edge">
<title>Node2&#45;&gt;Node4</title>
<path fill="none" stroke="midnightblue" d="M157.94,-347.06C162.05,-337.9 166.41,-328.17 170.24,-319.61"/>
<polygon fill="midnightblue" stroke="midnightblue" points="154.68,-345.78 153.78,-356.34 161.06,-348.64 154.68,-345.78"/>
</g>
<!-- Node5 -->
<g id="node5" class="node">
<title>Node5</title>
<g id="a_node5"><a xlink:href="_k___configuration_8cpp.html" target="_top" xlink:title="Load the configuration of the driver.">
<polygon fill="none" stroke="black" points="127,-178.5 127,-230.5 236,-230.5 236,-178.5 127,-178.5"/>
<text text-anchor="start" x="135" y="-218.5" font-family="Helvetica,sans-Serif" font-size="10.00">C:/Users/admin&#45;cyb</text>
<text text-anchor="start" x="135" y="-207.5" font-family="Helvetica,sans-Serif" font-size="10.00">/Desktop/pi&#45;defender</text>
<text text-anchor="start" x="135" y="-196.5" font-family="Helvetica,sans-Serif" font-size="10.00">/Sources/PI&#45;Defender</text>
<text text-anchor="middle" x="181.5" y="-185.5" font-family="Helvetica,sans-Serif" font-size="10.00">/K_Configuration.cpp</text>
</a>
</g>
</g>
<!-- Node4&#45;&gt;Node5 -->
<g id="edge4" class="edge">
<title>Node4&#45;&gt;Node5</title>
<path fill="none" stroke="midnightblue" d="M181.5,-257.19C181.5,-248.28 181.5,-238.9 181.5,-230.61"/>
<polygon fill="midnightblue" stroke="midnightblue" points="178,-257.34 181.5,-267.34 185,-257.34 178,-257.34"/>
</g>
<!-- Node4&#45;&gt;Node6 -->
<g id="edge5" class="edge">
<title>Node4&#45;&gt;Node6</title>
<path fill="none" stroke="midnightblue" d="M218.33,-260.73C257.9,-226.58 319.99,-173.01 356.33,-141.67"/>
<polygon fill="midnightblue" stroke="midnightblue" points="216.01,-258.1 210.73,-267.28 220.59,-263.4 216.01,-258.1"/>
</g>
<!-- Node4&#45;&gt;Node8 -->
<g id="edge7" class="edge">
<title>Node4&#45;&gt;Node8</title>
<path fill="none" stroke="midnightblue" d="M246.18,-266.57C310.19,-245.54 374.91,-228.92 419.57,-218.17"/>
<polygon fill="midnightblue" stroke="midnightblue" points="244.71,-263.37 236.33,-269.84 246.92,-270.01 244.71,-263.37"/>
</g>
<!-- Node4&#45;&gt;Node10 -->
<g id="edge10" class="edge">
<title>Node4&#45;&gt;Node10</title>
<path fill="none" stroke="midnightblue" d="M245.96,-266.89C373.82,-235.07 412.43,-255.51 538.5,-231 551.66,-228.44 565.68,-225.05 578.8,-221.59"/>
<polygon fill="midnightblue" stroke="midnightblue" points="245.01,-263.52 236.19,-269.38 246.74,-270.3 245.01,-263.52"/>
</g>
<!-- Node7 -->
<g id="node7" class="node">
<title>Node7</title>
<g id="a_node7"><a xlink:href="_k___driver_8cpp.html" target="_top" xlink:title="Entrypoint of the driver, unload routine.">
<polygon fill="none" stroke="black" points="331,-0.5 331,-52.5 440,-52.5 440,-0.5 331,-0.5"/>
<text text-anchor="start" x="339" y="-40.5" font-family="Helvetica,sans-Serif" font-size="10.00">C:/Users/admin&#45;cyb</text>
<text text-anchor="start" x="339" y="-29.5" font-family="Helvetica,sans-Serif" font-size="10.00">/Desktop/pi&#45;defender</text>
<text text-anchor="start" x="339" y="-18.5" font-family="Helvetica,sans-Serif" font-size="10.00">/Sources/PI&#45;Defender</text>
<text text-anchor="middle" x="385.5" y="-7.5" font-family="Helvetica,sans-Serif" font-size="10.00">/K_Driver.cpp</text>
</a>
</g>
</g>
<!-- Node6&#45;&gt;Node7 -->
<g id="edge6" class="edge">
<title>Node6&#45;&gt;Node7</title>
<path fill="none" stroke="midnightblue" d="M385.5,-79.19C385.5,-70.28 385.5,-60.9 385.5,-52.61"/>
<polygon fill="midnightblue" stroke="midnightblue" points="382,-79.34 385.5,-89.34 389,-79.34 382,-79.34"/>
</g>
<!-- Node8&#45;&gt;Node6 -->
<g id="edge8" class="edge">
<title>Node8&#45;&gt;Node6</title>
<path fill="none" stroke="midnightblue" d="M441.33,-171.08C431.37,-161.34 420.59,-150.8 411.18,-141.61"/>
<polygon fill="midnightblue" stroke="midnightblue" points="439.16,-173.85 448.76,-178.34 444.05,-168.84 439.16,-173.85"/>
</g>
<!-- Node9 -->
<g id="node9" class="node">
<title>Node9</title>
<g id="a_node9"><a xlink:href="_k___filter_8cpp.html" target="_top" xlink:title="Initialize filter object used by the communication.">
<polygon fill="none" stroke="black" points="458,-89.5 458,-141.5 567,-141.5 567,-89.5 458,-89.5"/>
<text text-anchor="start" x="466" y="-129.5" font-family="Helvetica,sans-Serif" font-size="10.00">C:/Users/admin&#45;cyb</text>
<text text-anchor="start" x="466" y="-118.5" font-family="Helvetica,sans-Serif" font-size="10.00">/Desktop/pi&#45;defender</text>
<text text-anchor="start" x="466" y="-107.5" font-family="Helvetica,sans-Serif" font-size="10.00">/Sources/PI&#45;Defender</text>
<text text-anchor="middle" x="512.5" y="-96.5" font-family="Helvetica,sans-Serif" font-size="10.00">/K_Filter.cpp</text>
</a>
</g>
</g>
<!-- Node8&#45;&gt;Node9 -->
<g id="edge9" class="edge">
<title>Node8&#45;&gt;Node9</title>
<path fill="none" stroke="midnightblue" d="M489.54,-169.06C493.55,-159.9 497.79,-150.17 501.53,-141.61"/>
<polygon fill="midnightblue" stroke="midnightblue" points="486.29,-167.77 485.49,-178.34 492.7,-170.57 486.29,-167.77"/>
</g>
<!-- Node10&#45;&gt;Node6 -->
<g id="edge11" class="edge">
<title>Node10&#45;&gt;Node6</title>
<path fill="none" stroke="midnightblue" d="M569.13,-182.97C533.67,-171.42 488.96,-156.44 449.5,-142 446.47,-140.89 443.36,-139.73 440.23,-138.54"/>
<polygon fill="midnightblue" stroke="midnightblue" points="568.28,-186.38 578.87,-186.14 570.44,-179.72 568.28,-186.38"/>
</g>
<!-- Node11 -->
<g id="node11" class="node">
<title>Node11</title>
<g id="a_node11"><a xlink:href="_k___ob_callback_8cpp.html" target="_top" xlink:title="Handle request callback.">
<polygon fill="none" stroke="black" points="585,-89.5 585,-141.5 694,-141.5 694,-89.5 585,-89.5"/>
<text text-anchor="start" x="593" y="-129.5" font-family="Helvetica,sans-Serif" font-size="10.00">C:/Users/admin&#45;cyb</text>
<text text-anchor="start" x="593" y="-118.5" font-family="Helvetica,sans-Serif" font-size="10.00">/Desktop/pi&#45;defender</text>
<text text-anchor="start" x="593" y="-107.5" font-family="Helvetica,sans-Serif" font-size="10.00">/Sources/PI&#45;Defender</text>
<text text-anchor="middle" x="639.5" y="-96.5" font-family="Helvetica,sans-Serif" font-size="10.00">/K_ObCallback.cpp</text>
</a>
</g>
</g>
<!-- Node10&#45;&gt;Node11 -->
<g id="edge12" class="edge">
<title>Node10&#45;&gt;Node11</title>
<path fill="none" stroke="midnightblue" d="M635.94,-168.19C636.55,-159.28 637.2,-149.9 637.77,-141.61"/>
<polygon fill="midnightblue" stroke="midnightblue" points="632.43,-168.12 635.24,-178.34 639.42,-168.6 632.43,-168.12"/>
</g>
<!-- Node12&#45;&gt;Node8 -->
<g id="edge15" class="edge">
<title>Node12&#45;&gt;Node8</title>
<path fill="none" stroke="midnightblue" d="M651.62,-268.14C612.86,-254.43 565.15,-237.56 529.02,-224.78"/>
<polygon fill="midnightblue" stroke="midnightblue" points="650.67,-271.52 661.26,-271.55 653,-264.92 650.67,-271.52"/>
</g>
<!-- Node12&#45;&gt;Node10 -->
<g id="edge16" class="edge">
<title>Node12&#45;&gt;Node10</title>
<path fill="none" stroke="midnightblue" d="M688.08,-260.08C678.34,-250.34 667.8,-239.8 658.61,-230.61"/>
<polygon fill="midnightblue" stroke="midnightblue" points="685.79,-262.74 695.34,-267.34 690.74,-257.79 685.79,-262.74"/>
</g>
<!-- Node13 -->
<g id="node13" class="node">
<title>Node13</title>
<g id="a_node13"><a xlink:href="_k___communication_8cpp.html" target="_top" xlink:title="Create the communication server, send data to the user&#45;mode service once a client is connected.">
<polygon fill="none" stroke="black" points="706.5,-178.5 706.5,-230.5 824.5,-230.5 824.5,-178.5 706.5,-178.5"/>
<text text-anchor="start" x="714.5" y="-218.5" font-family="Helvetica,sans-Serif" font-size="10.00">C:/Users/admin&#45;cyb</text>
<text text-anchor="start" x="714.5" y="-207.5" font-family="Helvetica,sans-Serif" font-size="10.00">/Desktop/pi&#45;defender</text>
<text text-anchor="start" x="714.5" y="-196.5" font-family="Helvetica,sans-Serif" font-size="10.00">/Sources/PI&#45;Defender</text>
<text text-anchor="middle" x="765.5" y="-185.5" font-family="Helvetica,sans-Serif" font-size="10.00">/K_Communication.cpp</text>
</a>
</g>
</g>
<!-- Node12&#45;&gt;Node13 -->
<g id="edge14" class="edge">
<title>Node12&#45;&gt;Node13</title>
<path fill="none" stroke="midnightblue" d="M738.16,-258.35C742.95,-249.1 748.04,-239.26 752.51,-230.61"/>
<polygon fill="midnightblue" stroke="midnightblue" points="735,-256.85 733.52,-267.34 741.22,-260.06 735,-256.85"/>
</g>
<!-- Node14&#45;&gt;Node1 -->
<g id="edge22" class="edge">
<title>Node14&#45;&gt;Node1</title>
<path fill="none" stroke="midnightblue" d="M487.91,-416.15C479.04,-425.81 468.98,-436.23 459.69,-445.34"/>
<polygon fill="midnightblue" stroke="midnightblue" points="490.62,-418.37 494.73,-408.61 485.43,-413.68 490.62,-418.37"/>
</g>
<!-- Node14&#45;&gt;Node8 -->
<g id="edge21" class="edge">
<title>Node14&#45;&gt;Node8</title>
<path fill="none" stroke="midnightblue" d="M496.52,-346.91C493.07,-338.27 489.78,-328.93 487.5,-320 479.84,-289.95 476.69,-254.31 475.4,-230.87"/>
<polygon fill="midnightblue" stroke="midnightblue" points="493.35,-348.41 500.44,-356.29 499.81,-345.72 493.35,-348.41"/>
</g>
<!-- Node14&#45;&gt;Node10 -->
<g id="edge24" class="edge">
<title>Node14&#45;&gt;Node10</title>
<path fill="none" stroke="midnightblue" d="M575.77,-354.85C590.55,-345.82 604.79,-334.3 614.5,-320 632.49,-293.49 635.46,-255.74 635.13,-230.94"/>
<polygon fill="midnightblue" stroke="midnightblue" points="573.95,-351.86 567.03,-359.88 577.44,-357.92 573.95,-351.86"/>
</g>
<!-- Node15 -->
<g id="node15" class="node">
<title>Node15</title>
<g id="a_node15"><a xlink:href="_k___helper_8cpp.html" target="_top" xlink:title="Help functions used by several .cpp files.">
<polygon fill="none" stroke="black" points="496,-267.5 496,-319.5 605,-319.5 605,-267.5 496,-267.5"/>
<text text-anchor="start" x="504" y="-307.5" font-family="Helvetica,sans-Serif" font-size="10.00">C:/Users/admin&#45;cyb</text>
<text text-anchor="start" x="504" y="-296.5" font-family="Helvetica,sans-Serif" font-size="10.00">/Desktop/pi&#45;defender</text>
<text text-anchor="start" x="504" y="-285.5" font-family="Helvetica,sans-Serif" font-size="10.00">/Sources/PI&#45;Defender</text>
<text text-anchor="middle" x="550.5" y="-274.5" font-family="Helvetica,sans-Serif" font-size="10.00">/K_Helper.cpp</text>
</a>
</g>
</g>
<!-- Node14&#45;&gt;Node15 -->
<g id="edge23" class="edge">
<title>Node14&#45;&gt;Node15</title>
<path fill="none" stroke="midnightblue" d="M527.54,-347.06C531.55,-337.9 535.79,-328.17 539.53,-319.61"/>
<polygon fill="midnightblue" stroke="midnightblue" points="524.29,-345.77 523.49,-356.34 530.7,-348.57 524.29,-345.77"/>
</g>
<!-- Node16&#45;&gt;Node4 -->
<g id="edge27" class="edge">
<title>Node16&#45;&gt;Node4</title>
<path fill="none" stroke="midnightblue" d="M263.25,-350.5C248.46,-340.37 232.23,-329.25 218.15,-319.61"/>
<polygon fill="midnightblue" stroke="midnightblue" points="261.54,-353.57 271.77,-356.34 265.49,-347.8 261.54,-353.57"/>
</g>
<!-- Node17 -->
<g id="node17" class="node">
<title>Node17</title>
<g id="a_node17"><a xlink:href="_k___whitelist_8cpp.html" target="_top" xlink:title="Store paths of autorized files and folders.">
<polygon fill="none" stroke="black" points="254,-267.5 254,-319.5 363,-319.5 363,-267.5 254,-267.5"/>
<text text-anchor="start" x="262" y="-307.5" font-family="Helvetica,sans-Serif" font-size="10.00">C:/Users/admin&#45;cyb</text>
<text text-anchor="start" x="262" y="-296.5" font-family="Helvetica,sans-Serif" font-size="10.00">/Desktop/pi&#45;defender</text>
<text text-anchor="start" x="262" y="-285.5" font-family="Helvetica,sans-Serif" font-size="10.00">/Sources/PI&#45;Defender</text>
<text text-anchor="middle" x="308.5" y="-274.5" font-family="Helvetica,sans-Serif" font-size="10.00">/K_Whitelist.cpp</text>
</a>
</g>
</g>
<!-- Node16&#45;&gt;Node17 -->
<g id="edge28" class="edge">
<title>Node16&#45;&gt;Node17</title>
<path fill="none" stroke="midnightblue" d="M308.5,-346.19C308.5,-337.28 308.5,-327.9 308.5,-319.61"/>
<polygon fill="midnightblue" stroke="midnightblue" points="305,-346.34 308.5,-356.34 312,-346.34 305,-346.34"/>
</g>
</g>
</svg>
        <g id="navigator" transform="translate(0 0)" fill="#404254">
                <rect fill="#f2f5e9" fill-opacity="0.5" stroke="#606060" stroke-width=".5" x="0" y="0" width="60" height="60"/>
                <use id="zoomplus" xlink:href="#zoomPlus" x="17" y="9" onmousedown="handleZoom(evt,'in')"/>
                <use id="zoomminus" xlink:href="#zoomMin" x="42" y="9" onmousedown="handleZoom(evt,'out')"/>
                <use id="reset" xlink:href="#resetDef" x="30" y="36" onmousedown="handleReset()"/>
                <g id="arrowUp" xlink:href="#dirArrow" transform="translate(30 24)" onmousedown="handlePan(0,-1)">
                  <use xlink:href="#rim" fill="#404040">
                        <set attributeName="fill" to="#808080" begin="arrowUp.mouseover" end="arrowUp.mouseout"/>
                  </use>
                  <path fill="none" stroke="white" stroke-width="1.5" d="M0,-3.0v7 M-2.5,-0.5L0,-3.0L2.5,-0.5"/>
                </g>
                <g id="arrowRight" xlink:href="#dirArrow" transform="rotate(90) translate(36 -43)" onmousedown="handlePan(1,0)">
                  <use xlink:href="#rim" fill="#404040">
                        <set attributeName="fill" to="#808080" begin="arrowRight.mouseover" end="arrowRight.mouseout"/>
                  </use>
                  <path fill="none" stroke="white" stroke-width="1.5" d="M0,-3.0v7 M-2.5,-0.5L0,-3.0L2.5,-0.5"/>
                </g>
                <g id="arrowDown" xlink:href="#dirArrow" transform="rotate(180) translate(-30 -48)" onmousedown="handlePan(0,1)">
                  <use xlink:href="#rim" fill="#404040">
                        <set attributeName="fill" to="#808080" begin="arrowDown.mouseover" end="arrowDown.mouseout"/>
                  </use>
                  <path fill="none" stroke="white" stroke-width="1.5" d="M0,-3.0v7 M-2.5,-0.5L0,-3.0L2.5,-0.5"/>
                </g>
                <g id="arrowLeft" xlink:href="#dirArrow" transform="rotate(270) translate(-36 17)" onmousedown="handlePan(-1,0)">
                  <use xlink:href="#rim" fill="#404040">
                        <set attributeName="fill" to="#808080" begin="arrowLeft.mouseover" end="arrowLeft.mouseout"/>
                  </use>
                  <path fill="none" stroke="white" stroke-width="1.5" d="M0,-3.0v7 M-2.5,-0.5L0,-3.0L2.5,-0.5"/>
                </g>
        </g>
        <svg viewBox="0 0 15 15" width="100%" height="30px" preserveAspectRatio="xMaxYMin meet">
         <g id="arrow_out" transform="scale(0.3 0.3)">
          <a xlink:href="_k___global_header_8hpp__dep__incl_org.svg" target="_base">
           <rect id="button" ry="5" rx="5" y="6" x="6" height="38" width="38"
                fill="#f2f5e9" fill-opacity="0.5" stroke="#606060" stroke-width="1.0"/>
           <path id="arrow"
             d="M 11.500037,31.436501 C 11.940474,20.09759 22.043105,11.32322 32.158766,21.979434 L 37.068811,17.246167 C 37.068811,17.246167 37.088388,32 37.088388,32 L 22.160133,31.978069 C 22.160133,31.978069 26.997745,27.140456 26.997745,27.140456 C 18.528582,18.264221 13.291696,25.230495 11.500037,31.436501 z"
             style="fill:#404040;"/>
          </a>
         </g>
        </svg>
</svg>
