<?xml version="1.0" encoding="UTF-8" standalone="no"?>
<!DOCTYPE svg PUBLIC "-//W3C//DTD SVG 1.1//EN"
 "http://www.w3.org/Graphics/SVG/1.1/DTD/svg11.dtd">
<!-- Generated by graphviz version 4.0.0 (20220529.0937)
 -->
<!-- Title: C:/Users/admin&#45;cyb/Desktop/PI&#45;Defender/Sources/PI&#45;Defender/K_Whitelist.hpp Pages: 1 -->
<svg width="454pt" height="417pt"
 viewBox="0.00 0.00 454.00 417.00" xmlns="http://www.w3.org/2000/svg" xmlns:xlink="http://www.w3.org/1999/xlink">
<g id="graph0" class="graph" transform="scale(1 1) rotate(0) translate(4 413)">
<title>C:/Users/admin&#45;cyb/Desktop/PI&#45;Defender/Sources/PI&#45;Defender/K_Whitelist.hpp</title>
<!-- Node1 -->
<g id="node1" class="node">
<title>Node1</title>
<g id="a_node1"><a xlink:title="Header for K_Whitelist.cpp.">
<polygon fill="#bfbfbf" stroke="black" points="231,-356.5 231,-408.5 340,-408.5 340,-356.5 231,-356.5"/>
<text text-anchor="start" x="239" y="-396.5" font-family="Helvetica,sans-Serif" font-size="10.00">C:/Users/admin&#45;cyb</text>
<text text-anchor="start" x="239" y="-385.5" font-family="Helvetica,sans-Serif" font-size="10.00">/Desktop/PI&#45;Defender</text>
<text text-anchor="start" x="239" y="-374.5" font-family="Helvetica,sans-Serif" font-size="10.00">/Sources/PI&#45;Defender</text>
<text text-anchor="middle" x="285.5" y="-363.5" font-family="Helvetica,sans-Serif" font-size="10.00">/K_Whitelist.hpp</text>
</a>
</g>
</g>
<!-- Node2 -->
<g id="node2" class="node">
<title>Node2</title>
<g id="a_node2"><a xlink:href="_k___configuration_8hpp.html" target="_top" xlink:title="Header for K_Configuration.cpp.">
<polygon fill="none" stroke="black" points="168,-267.5 168,-319.5 277,-319.5 277,-267.5 168,-267.5"/>
<text text-anchor="start" x="176" y="-307.5" font-family="Helvetica,sans-Serif" font-size="10.00">C:/Users/admin&#45;cyb</text>
<text text-anchor="start" x="176" y="-296.5" font-family="Helvetica,sans-Serif" font-size="10.00">/Desktop/PI&#45;Defender</text>
<text text-anchor="start" x="176" y="-285.5" font-family="Helvetica,sans-Serif" font-size="10.00">/Sources/PI&#45;Defender</text>
<text text-anchor="middle" x="222.5" y="-274.5" font-family="Helvetica,sans-Serif" font-size="10.00">/K_Configuration.hpp</text>
</a>
</g>
</g>
<!-- Node1&#45;&gt;Node2 -->
<g id="edge1" class="edge">
<title>Node1&#45;&gt;Node2</title>
<path fill="none" stroke="midnightblue" d="M261.4,-348.22C254.52,-338.72 247.14,-328.53 240.68,-319.61"/>
<polygon fill="midnightblue" stroke="midnightblue" points="258.58,-350.29 267.28,-356.34 264.25,-346.18 258.58,-350.29"/>
</g>
<!-- Node10 -->
<g id="node10" class="node">
<title>Node10</title>
<g id="a_node10"><a xlink:href="_k___whitelist_8cpp.html" target="_top" xlink:title=" ">
<polygon fill="none" stroke="black" points="295,-267.5 295,-319.5 404,-319.5 404,-267.5 295,-267.5"/>
<text text-anchor="start" x="303" y="-307.5" font-family="Helvetica,sans-Serif" font-size="10.00">C:/Users/admin&#45;cyb</text>
<text text-anchor="start" x="303" y="-296.5" font-family="Helvetica,sans-Serif" font-size="10.00">/Desktop/PI&#45;Defender</text>
<text text-anchor="start" x="303" y="-285.5" font-family="Helvetica,sans-Serif" font-size="10.00">/Sources/PI&#45;Defender</text>
<text text-anchor="middle" x="349.5" y="-274.5" font-family="Helvetica,sans-Serif" font-size="10.00">/K_Whitelist.cpp</text>
</a>
</g>
</g>
<!-- Node1&#45;&gt;Node10 -->
<g id="edge11" class="edge">
<title>Node1&#45;&gt;Node10</title>
<path fill="none" stroke="midnightblue" d="M309.99,-348.22C316.97,-338.72 324.47,-328.53 331.03,-319.61"/>
<polygon fill="midnightblue" stroke="midnightblue" points="307.12,-346.21 304.01,-356.34 312.76,-350.35 307.12,-346.21"/>
</g>
<!-- Node3 -->
<g id="node3" class="node">
<title>Node3</title>
<g id="a_node3"><a xlink:href="_k___configuration_8cpp.html" target="_top" xlink:title="Load the configuration of the driver.">
<polygon fill="none" stroke="black" points="0,-178.5 0,-230.5 109,-230.5 109,-178.5 0,-178.5"/>
<text text-anchor="start" x="8" y="-218.5" font-family="Helvetica,sans-Serif" font-size="10.00">C:/Users/admin&#45;cyb</text>
<text text-anchor="start" x="8" y="-207.5" font-family="Helvetica,sans-Serif" font-size="10.00">/Desktop/PI&#45;Defender</text>
<text text-anchor="start" x="8" y="-196.5" font-family="Helvetica,sans-Serif" font-size="10.00">/Sources/PI&#45;Defender</text>
<text text-anchor="middle" x="54.5" y="-185.5" font-family="Helvetica,sans-Serif" font-size="10.00">/K_Configuration.cpp</text>
</a>
</g>
</g>
<!-- Node2&#45;&gt;Node3 -->
<g id="edge2" class="edge">
<title>Node2&#45;&gt;Node3</title>
<path fill="none" stroke="midnightblue" d="M164.83,-262.64C144.69,-252.2 122.3,-240.61 102.98,-230.61"/>
<polygon fill="midnightblue" stroke="midnightblue" points="163.42,-265.85 173.91,-267.34 166.64,-259.63 163.42,-265.85"/>
</g>
<!-- Node4 -->
<g id="node4" class="node">
<title>Node4</title>
<g id="a_node4"><a xlink:href="_k___driver_8hpp.html" target="_top" xlink:title="Header for K_Driver.cpp.">
<polygon fill="none" stroke="black" points="210,-89.5 210,-141.5 319,-141.5 319,-89.5 210,-89.5"/>
<text text-anchor="start" x="218" y="-129.5" font-family="Helvetica,sans-Serif" font-size="10.00">C:/Users/admin&#45;cyb</text>
<text text-anchor="start" x="218" y="-118.5" font-family="Helvetica,sans-Serif" font-size="10.00">/Desktop/PI&#45;Defender</text>
<text text-anchor="start" x="218" y="-107.5" font-family="Helvetica,sans-Serif" font-size="10.00">/Sources/PI&#45;Defender</text>
<text text-anchor="middle" x="264.5" y="-96.5" font-family="Helvetica,sans-Serif" font-size="10.00">/K_Driver.hpp</text>
</a>
</g>
</g>
<!-- Node2&#45;&gt;Node4 -->
<g id="edge3" class="edge">
<title>Node2&#45;&gt;Node4</title>
<path fill="none" stroke="midnightblue" d="M236.75,-257.97C239.97,-249.27 243.13,-239.88 245.5,-231 253.56,-200.83 258.83,-165.22 261.73,-141.81"/>
<polygon fill="midnightblue" stroke="midnightblue" points="233.43,-256.83 233.13,-267.43 239.97,-259.33 233.43,-256.83"/>
</g>
<!-- Node6 -->
<g id="node6" class="node">
<title>Node6</title>
<g id="a_node6"><a xlink:href="_k___filter_8hpp.html" target="_top" xlink:title="Header for K_Filter.cpp.">
<polygon fill="none" stroke="black" points="127,-178.5 127,-230.5 236,-230.5 236,-178.5 127,-178.5"/>
<text text-anchor="start" x="135" y="-218.5" font-family="Helvetica,sans-Serif" font-size="10.00">C:/Users/admin&#45;cyb</text>
<text text-anchor="start" x="135" y="-207.5" font-family="Helvetica,sans-Serif" font-size="10.00">/Desktop/PI&#45;Defender</text>
<text text-anchor="start" x="135" y="-196.5" font-family="Helvetica,sans-Serif" font-size="10.00">/Sources/PI&#45;Defender</text>
<text text-anchor="middle" x="181.5" y="-185.5" font-family="Helvetica,sans-Serif" font-size="10.00">/K_Filter.hpp</text>
</a>
</g>
</g>
<!-- Node2&#45;&gt;Node6 -->
<g id="edge5" class="edge">
<title>Node2&#45;&gt;Node6</title>
<path fill="none" stroke="midnightblue" d="M206.27,-258.06C201.95,-248.9 197.37,-239.17 193.33,-230.61"/>
<polygon fill="midnightblue" stroke="midnightblue" points="203.21,-259.78 210.64,-267.34 209.54,-256.8 203.21,-259.78"/>
</g>
<!-- Node8 -->
<g id="node8" class="node">
<title>Node8</title>
<g id="a_node8"><a xlink:href="_k___ob_callback_8hpp.html" target="_top" xlink:title="Header for K_ObCallback.cpp.">
<polygon fill="none" stroke="black" points="293,-178.5 293,-230.5 402,-230.5 402,-178.5 293,-178.5"/>
<text text-anchor="start" x="301" y="-218.5" font-family="Helvetica,sans-Serif" font-size="10.00">C:/Users/admin&#45;cyb</text>
<text text-anchor="start" x="301" y="-207.5" font-family="Helvetica,sans-Serif" font-size="10.00">/Desktop/PI&#45;Defender</text>
<text text-anchor="start" x="301" y="-196.5" font-family="Helvetica,sans-Serif" font-size="10.00">/Sources/PI&#45;Defender</text>
<text text-anchor="middle" x="347.5" y="-185.5" font-family="Helvetica,sans-Serif" font-size="10.00">/K_ObCallback.hpp</text>
</a>
</g>
</g>
<!-- Node2&#45;&gt;Node8 -->
<g id="edge8" class="edge">
<title>Node2&#45;&gt;Node8</title>
<path fill="none" stroke="midnightblue" d="M267.04,-261.5C281.59,-251.37 297.57,-240.25 311.43,-230.61"/>
<polygon fill="midnightblue" stroke="midnightblue" points="264.86,-258.75 258.66,-267.34 268.86,-264.5 264.86,-258.75"/>
</g>
<!-- Node5 -->
<g id="node5" class="node">
<title>Node5</title>
<g id="a_node5"><a xlink:href="_k___driver_8cpp.html" target="_top" xlink:title="Entrypoint of the driver, unload routine.">
<polygon fill="none" stroke="black" points="210,-0.5 210,-52.5 319,-52.5 319,-0.5 210,-0.5"/>
<text text-anchor="start" x="218" y="-40.5" font-family="Helvetica,sans-Serif" font-size="10.00">C:/Users/admin&#45;cyb</text>
<text text-anchor="start" x="218" y="-29.5" font-family="Helvetica,sans-Serif" font-size="10.00">/Desktop/PI&#45;Defender</text>
<text text-anchor="start" x="218" y="-18.5" font-family="Helvetica,sans-Serif" font-size="10.00">/Sources/PI&#45;Defender</text>
<text text-anchor="middle" x="264.5" y="-7.5" font-family="Helvetica,sans-Serif" font-size="10.00">/K_Driver.cpp</text>
</a>
</g>
</g>
<!-- Node4&#45;&gt;Node5 -->
<g id="edge4" class="edge">
<title>Node4&#45;&gt;Node5</title>
<path fill="none" stroke="midnightblue" d="M264.5,-79.19C264.5,-70.28 264.5,-60.9 264.5,-52.61"/>
<polygon fill="midnightblue" stroke="midnightblue" points="261,-79.34 264.5,-89.34 268,-79.34 261,-79.34"/>
</g>
<!-- Node6&#45;&gt;Node4 -->
<g id="edge6" class="edge">
<title>Node6&#45;&gt;Node4</title>
<path fill="none" stroke="midnightblue" d="M212.43,-171.08C221.73,-161.34 231.78,-150.8 240.55,-141.61"/>
<polygon fill="midnightblue" stroke="midnightblue" points="209.88,-168.68 205.51,-178.34 214.94,-173.52 209.88,-168.68"/>
</g>
<!-- Node7 -->
<g id="node7" class="node">
<title>Node7</title>
<g id="a_node7"><a xlink:href="_k___filter_8cpp.html" target="_top" xlink:title="Initialize filter object used by the communication.">
<polygon fill="none" stroke="black" points="83,-89.5 83,-141.5 192,-141.5 192,-89.5 83,-89.5"/>
<text text-anchor="start" x="91" y="-129.5" font-family="Helvetica,sans-Serif" font-size="10.00">C:/Users/admin&#45;cyb</text>
<text text-anchor="start" x="91" y="-118.5" font-family="Helvetica,sans-Serif" font-size="10.00">/Desktop/PI&#45;Defender</text>
<text text-anchor="start" x="91" y="-107.5" font-family="Helvetica,sans-Serif" font-size="10.00">/Sources/PI&#45;Defender</text>
<text text-anchor="middle" x="137.5" y="-96.5" font-family="Helvetica,sans-Serif" font-size="10.00">/K_Filter.cpp</text>
</a>
</g>
</g>
<!-- Node6&#45;&gt;Node7 -->
<g id="edge7" class="edge">
<title>Node6&#45;&gt;Node7</title>
<path fill="none" stroke="midnightblue" d="M164.23,-169.35C159.55,-160.1 154.57,-150.26 150.2,-141.61"/>
<polygon fill="midnightblue" stroke="midnightblue" points="161.14,-170.99 168.77,-178.34 167.38,-167.83 161.14,-170.99"/>
</g>
<!-- Node8&#45;&gt;Node4 -->
<g id="edge9" class="edge">
<title>Node8&#45;&gt;Node4</title>
<path fill="none" stroke="midnightblue" d="M316.57,-171.08C307.27,-161.34 297.22,-150.8 288.45,-141.61"/>
<polygon fill="midnightblue" stroke="midnightblue" points="314.06,-173.52 323.49,-178.34 319.12,-168.68 314.06,-173.52"/>
</g>
<!-- Node9 -->
<g id="node9" class="node">
<title>Node9</title>
<g id="a_node9"><a xlink:href="_k___ob_callback_8cpp.html" target="_top" xlink:title="Handle request callback.">
<polygon fill="none" stroke="black" points="337,-89.5 337,-141.5 446,-141.5 446,-89.5 337,-89.5"/>
<text text-anchor="start" x="345" y="-129.5" font-family="Helvetica,sans-Serif" font-size="10.00">C:/Users/admin&#45;cyb</text>
<text text-anchor="start" x="345" y="-118.5" font-family="Helvetica,sans-Serif" font-size="10.00">/Desktop/PI&#45;Defender</text>
<text text-anchor="start" x="345" y="-107.5" font-family="Helvetica,sans-Serif" font-size="10.00">/Sources/PI&#45;Defender</text>
<text text-anchor="middle" x="391.5" y="-96.5" font-family="Helvetica,sans-Serif" font-size="10.00">/K_ObCallback.cpp</text>
</a>
</g>
</g>
<!-- Node8&#45;&gt;Node9 -->
<g id="edge10" class="edge">
<title>Node8&#45;&gt;Node9</title>
<path fill="none" stroke="midnightblue" d="M364.77,-169.35C369.45,-160.1 374.43,-150.26 378.8,-141.61"/>
<polygon fill="midnightblue" stroke="midnightblue" points="361.62,-167.83 360.23,-178.34 367.86,-170.99 361.62,-167.83"/>
</g>
</g>
</svg>
