<?xml version="1.0" encoding="UTF-8" standalone="no"?>
<!DOCTYPE svg PUBLIC "-//W3C//DTD SVG 1.1//EN"
 "http://www.w3.org/Graphics/SVG/1.1/DTD/svg11.dtd">
<!-- Generated by graphviz version 5.0.0 (20220707.1540)
 -->
<!-- Title: C:/Users/Gshoo/Desktop/pi&#45;defender&#45;tmp/Sources/PI&#45;Defender/K_WppTracing.hpp Pages: 1 -->
<svg width="1036pt" height="518pt"
 viewBox="0.00 0.00 1036.00 518.00" xmlns="http://www.w3.org/2000/svg" xmlns:xlink="http://www.w3.org/1999/xlink">
<g id="graph0" class="graph" transform="scale(1 1) rotate(0) translate(4 514)">
<title>C:/Users/Gshoo/Desktop/pi&#45;defender&#45;tmp/Sources/PI&#45;Defender/K_WppTracing.hpp</title>
<!-- Node1 -->
<g id="node1" class="node">
<title>Node1</title>
<g id="a_node1"><a xlink:title="WppTracing header.">
<polygon fill="#bfbfbf" stroke="black" points="458,-468.5 458,-509.5 613,-509.5 613,-468.5 458,-468.5"/>
<text text-anchor="start" x="466" y="-497.5" font-family="Helvetica,sans-Serif" font-size="10.00">C:/Users/Gshoo/Desktop</text>
<text text-anchor="start" x="466" y="-486.5" font-family="Helvetica,sans-Serif" font-size="10.00">/pi&#45;defender&#45;tmp/Sources</text>
<text text-anchor="middle" x="535.5" y="-475.5" font-family="Helvetica,sans-Serif" font-size="10.00">/PI&#45;Defender/K_WppTracing.hpp</text>
</a>
</g>
</g>
<!-- Node2 -->
<g id="node2" class="node">
<title>Node2</title>
<g id="a_node2"><a xlink:href="_k___global_header_8hpp.html" target="_top" xlink:title="Header used by several .cpp files.">
<polygon fill="none" stroke="black" points="454.5,-390.5 454.5,-431.5 616.5,-431.5 616.5,-390.5 454.5,-390.5"/>
<text text-anchor="start" x="462.5" y="-419.5" font-family="Helvetica,sans-Serif" font-size="10.00">C:/Users/Gshoo/Desktop</text>
<text text-anchor="start" x="462.5" y="-408.5" font-family="Helvetica,sans-Serif" font-size="10.00">/pi&#45;defender&#45;tmp/Sources</text>
<text text-anchor="middle" x="535.5" y="-397.5" font-family="Helvetica,sans-Serif" font-size="10.00">/PI&#45;Defender/K_GlobalHeader.hpp</text>
</a>
</g>
</g>
<!-- Node1&#45;&gt;Node2 -->
<g id="edge1" class="edge">
<title>Node1&#45;&gt;Node2</title>
<path fill="none" stroke="midnightblue" d="M535.5,-458.3C535.5,-449.3 535.5,-439.65 535.5,-431.51"/>
<polygon fill="midnightblue" stroke="midnightblue" points="532,-458.43 535.5,-468.43 539,-458.43 532,-458.43"/>
</g>
<!-- Node3 -->
<g id="node3" class="node">
<title>Node3</title>
<g id="a_node3"><a xlink:href="_k___cache_8hpp.html" target="_top" xlink:title="Header for K_Cache.cpp.">
<polygon fill="none" stroke="black" points="140,-312.5 140,-353.5 271,-353.5 271,-312.5 140,-312.5"/>
<text text-anchor="start" x="148" y="-341.5" font-family="Helvetica,sans-Serif" font-size="10.00">C:/Users/Gshoo/Desktop</text>
<text text-anchor="start" x="148" y="-330.5" font-family="Helvetica,sans-Serif" font-size="10.00">/pi&#45;defender&#45;tmp/Sources</text>
<text text-anchor="middle" x="205.5" y="-319.5" font-family="Helvetica,sans-Serif" font-size="10.00">/PI&#45;Defender/K_Cache.hpp</text>
</a>
</g>
</g>
<!-- Node2&#45;&gt;Node3 -->
<g id="edge2" class="edge">
<title>Node2&#45;&gt;Node3</title>
<path fill="none" stroke="midnightblue" d="M444.38,-390.15C396.94,-379.68 338.03,-366.45 285.5,-354 280.9,-352.91 276.16,-351.77 271.39,-350.61"/>
<polygon fill="midnightblue" stroke="midnightblue" points="443.8,-393.61 454.32,-392.35 445.31,-386.77 443.8,-393.61"/>
</g>
<!-- Node5 -->
<g id="node5" class="node">
<title>Node5</title>
<g id="a_node5"><a xlink:href="_k___configuration_8hpp.html" target="_top" xlink:title="Header for K_Configuration.cpp.">
<polygon fill="none" stroke="black" points="149.5,-234.5 149.5,-275.5 309.5,-275.5 309.5,-234.5 149.5,-234.5"/>
<text text-anchor="start" x="157.5" y="-263.5" font-family="Helvetica,sans-Serif" font-size="10.00">C:/Users/Gshoo/Desktop</text>
<text text-anchor="start" x="157.5" y="-252.5" font-family="Helvetica,sans-Serif" font-size="10.00">/pi&#45;defender&#45;tmp/Sources</text>
<text text-anchor="middle" x="229.5" y="-241.5" font-family="Helvetica,sans-Serif" font-size="10.00">/PI&#45;Defender/K_Configuration.hpp</text>
</a>
</g>
</g>
<!-- Node2&#45;&gt;Node5 -->
<g id="edge18" class="edge">
<title>Node2&#45;&gt;Node5</title>
<path fill="none" stroke="midnightblue" d="M444.42,-398.6C403.74,-390.55 356.51,-376.94 318.5,-354 316.27,-352.66 272.71,-304.22 247.37,-275.96"/>
<polygon fill="midnightblue" stroke="midnightblue" points="443.87,-402.06 454.34,-400.48 445.17,-395.18 443.87,-402.06"/>
</g>
<!-- Node7 -->
<g id="node7" class="node">
<title>Node7</title>
<g id="a_node7"><a xlink:href="_k___driver_8hpp.html" target="_top" xlink:title="Header for K_Driver.cpp.">
<polygon fill="none" stroke="black" points="413.5,-78.5 413.5,-119.5 541.5,-119.5 541.5,-78.5 413.5,-78.5"/>
<text text-anchor="start" x="421.5" y="-107.5" font-family="Helvetica,sans-Serif" font-size="10.00">C:/Users/Gshoo/Desktop</text>
<text text-anchor="start" x="421.5" y="-96.5" font-family="Helvetica,sans-Serif" font-size="10.00">/pi&#45;defender&#45;tmp/Sources</text>
<text text-anchor="middle" x="477.5" y="-85.5" font-family="Helvetica,sans-Serif" font-size="10.00">/PI&#45;Defender/K_Driver.hpp</text>
</a>
</g>
</g>
<!-- Node2&#45;&gt;Node7 -->
<g id="edge19" class="edge">
<title>Node2&#45;&gt;Node7</title>
<path fill="none" stroke="midnightblue" d="M529.9,-380.06C518.12,-317.1 491.05,-172.44 481.19,-119.7"/>
<polygon fill="midnightblue" stroke="midnightblue" points="526.5,-380.95 531.78,-390.14 533.38,-379.66 526.5,-380.95"/>
</g>
<!-- Node9 -->
<g id="node9" class="node">
<title>Node9</title>
<g id="a_node9"><a xlink:href="_k___filter_8hpp.html" target="_top" xlink:title="Header for K_Filter.cpp.">
<polygon fill="none" stroke="black" points="526,-156.5 526,-197.5 651,-197.5 651,-156.5 526,-156.5"/>
<text text-anchor="start" x="534" y="-185.5" font-family="Helvetica,sans-Serif" font-size="10.00">C:/Users/Gshoo/Desktop</text>
<text text-anchor="start" x="534" y="-174.5" font-family="Helvetica,sans-Serif" font-size="10.00">/pi&#45;defender&#45;tmp/Sources</text>
<text text-anchor="middle" x="588.5" y="-163.5" font-family="Helvetica,sans-Serif" font-size="10.00">/PI&#45;Defender/K_Filter.hpp</text>
</a>
</g>
</g>
<!-- Node2&#45;&gt;Node9 -->
<g id="edge20" class="edge">
<title>Node2&#45;&gt;Node9</title>
<path fill="none" stroke="midnightblue" d="M541.18,-380.61C545.02,-361.11 550.33,-334.98 555.5,-312 564.65,-271.33 576.61,-224.04 583.33,-197.92"/>
<polygon fill="midnightblue" stroke="midnightblue" points="537.74,-379.94 539.25,-390.43 544.61,-381.29 537.74,-379.94"/>
</g>
<!-- Node11 -->
<g id="node11" class="node">
<title>Node11</title>
<g id="a_node11"><a xlink:href="_k___ob_callback_8hpp.html" target="_top" xlink:title="Header for K_ObCallback.cpp.">
<polygon fill="none" stroke="black" points="684.5,-156.5 684.5,-197.5 838.5,-197.5 838.5,-156.5 684.5,-156.5"/>
<text text-anchor="start" x="692.5" y="-185.5" font-family="Helvetica,sans-Serif" font-size="10.00">C:/Users/Gshoo/Desktop</text>
<text text-anchor="start" x="692.5" y="-174.5" font-family="Helvetica,sans-Serif" font-size="10.00">/pi&#45;defender&#45;tmp/Sources</text>
<text text-anchor="middle" x="761.5" y="-163.5" font-family="Helvetica,sans-Serif" font-size="10.00">/PI&#45;Defender/K_ObCallback.hpp</text>
</a>
</g>
</g>
<!-- Node2&#45;&gt;Node11 -->
<g id="edge26" class="edge">
<title>Node2&#45;&gt;Node11</title>
<path fill="none" stroke="midnightblue" d="M626.87,-395.22C742.35,-374.42 930.88,-332.62 970.5,-276 981.2,-260.71 981.86,-248.81 970.5,-234 966.25,-228.46 896.37,-210.45 838.57,-196.33"/>
<polygon fill="midnightblue" stroke="midnightblue" points="626.2,-391.79 616.97,-396.99 627.43,-398.68 626.2,-391.79"/>
</g>
<!-- Node13 -->
<g id="node13" class="node">
<title>Node13</title>
<g id="a_node13"><a xlink:href="_k___communication_8hpp.html" target="_top" xlink:title="Header for K_Communication.cpp.">
<polygon fill="none" stroke="black" points="790,-234.5 790,-275.5 961,-275.5 961,-234.5 790,-234.5"/>
<text text-anchor="start" x="798" y="-263.5" font-family="Helvetica,sans-Serif" font-size="10.00">C:/Users/Gshoo/Desktop</text>
<text text-anchor="start" x="798" y="-252.5" font-family="Helvetica,sans-Serif" font-size="10.00">/pi&#45;defender&#45;tmp/Sources</text>
<text text-anchor="middle" x="875.5" y="-241.5" font-family="Helvetica,sans-Serif" font-size="10.00">/PI&#45;Defender/K_Communication.hpp</text>
</a>
</g>
</g>
<!-- Node2&#45;&gt;Node13 -->
<g id="edge14" class="edge">
<title>Node2&#45;&gt;Node13</title>
<path fill="none" stroke="midnightblue" d="M614.55,-387.42C643.34,-378.26 675.85,-366.8 704.5,-354 756.05,-330.97 812.18,-296.91 845.58,-275.62"/>
<polygon fill="midnightblue" stroke="midnightblue" points="613.43,-384.1 604.93,-390.44 615.52,-390.78 613.43,-384.1"/>
</g>
<!-- Node15 -->
<g id="node15" class="node">
<title>Node15</title>
<g id="a_node15"><a xlink:href="_k___helper_8hpp.html" target="_top" xlink:title="Header for K_Helper.cpp.">
<polygon fill="none" stroke="black" points="564,-312.5 564,-353.5 695,-353.5 695,-312.5 564,-312.5"/>
<text text-anchor="start" x="572" y="-341.5" font-family="Helvetica,sans-Serif" font-size="10.00">C:/Users/Gshoo/Desktop</text>
<text text-anchor="start" x="572" y="-330.5" font-family="Helvetica,sans-Serif" font-size="10.00">/pi&#45;defender&#45;tmp/Sources</text>
<text text-anchor="middle" x="629.5" y="-319.5" font-family="Helvetica,sans-Serif" font-size="10.00">/PI&#45;Defender/K_Helper.hpp</text>
</a>
</g>
</g>
<!-- Node2&#45;&gt;Node15 -->
<g id="edge21" class="edge">
<title>Node2&#45;&gt;Node15</title>
<path fill="none" stroke="midnightblue" d="M561.48,-383.78C573.25,-373.84 587.17,-362.72 599.39,-353.51"/>
<polygon fill="midnightblue" stroke="midnightblue" points="559.03,-381.26 553.72,-390.43 563.59,-386.58 559.03,-381.26"/>
</g>
<!-- Node17 -->
<g id="node17" class="node">
<title>Node17</title>
<g id="a_node17"><a xlink:href="_k___whitelist_8hpp.html" target="_top" xlink:title="Header for K_Whitelist.cpp.">
<polygon fill="none" stroke="black" points="327.5,-312.5 327.5,-353.5 469.5,-353.5 469.5,-312.5 327.5,-312.5"/>
<text text-anchor="start" x="335.5" y="-341.5" font-family="Helvetica,sans-Serif" font-size="10.00">C:/Users/Gshoo/Desktop</text>
<text text-anchor="start" x="335.5" y="-330.5" font-family="Helvetica,sans-Serif" font-size="10.00">/pi&#45;defender&#45;tmp/Sources</text>
<text text-anchor="middle" x="398.5" y="-319.5" font-family="Helvetica,sans-Serif" font-size="10.00">/PI&#45;Defender/K_Whitelist.hpp</text>
</a>
</g>
</g>
<!-- Node2&#45;&gt;Node17 -->
<g id="edge27" class="edge">
<title>Node2&#45;&gt;Node17</title>
<path fill="none" stroke="midnightblue" d="M491.31,-385.49C472.65,-375.13 451.22,-363.25 433.66,-353.51"/>
<polygon fill="midnightblue" stroke="midnightblue" points="489.78,-388.64 500.22,-390.43 493.17,-382.52 489.78,-388.64"/>
</g>
<!-- Node4 -->
<g id="node4" class="node">
<title>Node4</title>
<g id="a_node4"><a xlink:href="_k___cache_8cpp.html" target="_top" xlink:title="Store hash of signed and unsigned executable previously scanned.">
<polygon fill="none" stroke="black" points="0,-234.5 0,-275.5 131,-275.5 131,-234.5 0,-234.5"/>
<text text-anchor="start" x="8" y="-263.5" font-family="Helvetica,sans-Serif" font-size="10.00">C:/Users/Gshoo/Desktop</text>
<text text-anchor="start" x="8" y="-252.5" font-family="Helvetica,sans-Serif" font-size="10.00">/pi&#45;defender&#45;tmp/Sources</text>
<text text-anchor="middle" x="65.5" y="-241.5" font-family="Helvetica,sans-Serif" font-size="10.00">/PI&#45;Defender/K_Cache.cpp</text>
</a>
</g>
</g>
<!-- Node3&#45;&gt;Node4 -->
<g id="edge3" class="edge">
<title>Node3&#45;&gt;Node4</title>
<path fill="none" stroke="midnightblue" d="M160.6,-307.63C141.47,-297.24 119.46,-285.29 101.43,-275.51"/>
<polygon fill="midnightblue" stroke="midnightblue" points="158.99,-310.73 169.45,-312.43 162.33,-304.58 158.99,-310.73"/>
</g>
<!-- Node3&#45;&gt;Node5 -->
<g id="edge4" class="edge">
<title>Node3&#45;&gt;Node5</title>
<path fill="none" stroke="midnightblue" d="M214.7,-302.88C217.59,-293.72 220.71,-283.83 223.34,-275.51"/>
<polygon fill="midnightblue" stroke="midnightblue" points="211.35,-301.84 211.68,-312.43 218.03,-303.95 211.35,-301.84"/>
</g>
<!-- Node6 -->
<g id="node6" class="node">
<title>Node6</title>
<g id="a_node6"><a xlink:href="_k___configuration_8cpp.html" target="_top" xlink:title="Load the configuration of the driver.">
<polygon fill="none" stroke="black" points="149.5,-156.5 149.5,-197.5 309.5,-197.5 309.5,-156.5 149.5,-156.5"/>
<text text-anchor="start" x="157.5" y="-185.5" font-family="Helvetica,sans-Serif" font-size="10.00">C:/Users/Gshoo/Desktop</text>
<text text-anchor="start" x="157.5" y="-174.5" font-family="Helvetica,sans-Serif" font-size="10.00">/pi&#45;defender&#45;tmp/Sources</text>
<text text-anchor="middle" x="229.5" y="-163.5" font-family="Helvetica,sans-Serif" font-size="10.00">/PI&#45;Defender/K_Configuration.cpp</text>
</a>
</g>
</g>
<!-- Node5&#45;&gt;Node6 -->
<g id="edge5" class="edge">
<title>Node5&#45;&gt;Node6</title>
<path fill="none" stroke="midnightblue" d="M229.5,-224.3C229.5,-215.3 229.5,-205.65 229.5,-197.51"/>
<polygon fill="midnightblue" stroke="midnightblue" points="226,-224.43 229.5,-234.43 233,-224.43 226,-224.43"/>
</g>
<!-- Node5&#45;&gt;Node7 -->
<g id="edge6" class="edge">
<title>Node5&#45;&gt;Node7</title>
<path fill="none" stroke="midnightblue" d="M269.69,-229.04C318.86,-198.51 401.09,-147.45 445.95,-119.59"/>
<polygon fill="midnightblue" stroke="midnightblue" points="267.56,-226.25 260.91,-234.5 271.25,-232.19 267.56,-226.25"/>
</g>
<!-- Node5&#45;&gt;Node9 -->
<g id="edge8" class="edge">
<title>Node5&#45;&gt;Node9</title>
<path fill="none" stroke="midnightblue" d="M319.39,-233.82C396.16,-217.29 473.45,-201.37 525.97,-190.66"/>
<polygon fill="midnightblue" stroke="midnightblue" points="318.58,-230.42 309.54,-235.95 320.05,-237.26 318.58,-230.42"/>
</g>
<!-- Node5&#45;&gt;Node11 -->
<g id="edge11" class="edge">
<title>Node5&#45;&gt;Node11</title>
<path fill="none" stroke="midnightblue" d="M320.06,-233.84C471.09,-209.69 512.63,-220.38 660.5,-198 668.28,-196.82 676.36,-195.46 684.42,-194.01"/>
<polygon fill="midnightblue" stroke="midnightblue" points="319.26,-230.42 309.95,-235.48 320.38,-237.33 319.26,-230.42"/>
</g>
<!-- Node8 -->
<g id="node8" class="node">
<title>Node8</title>
<g id="a_node8"><a xlink:href="_k___driver_8cpp.html" target="_top" xlink:title="Entrypoint of the driver, unload routine.">
<polygon fill="none" stroke="black" points="413.5,-0.5 413.5,-41.5 541.5,-41.5 541.5,-0.5 413.5,-0.5"/>
<text text-anchor="start" x="421.5" y="-29.5" font-family="Helvetica,sans-Serif" font-size="10.00">C:/Users/Gshoo/Desktop</text>
<text text-anchor="start" x="421.5" y="-18.5" font-family="Helvetica,sans-Serif" font-size="10.00">/pi&#45;defender&#45;tmp/Sources</text>
<text text-anchor="middle" x="477.5" y="-7.5" font-family="Helvetica,sans-Serif" font-size="10.00">/PI&#45;Defender/K_Driver.cpp</text>
</a>
</g>
</g>
<!-- Node7&#45;&gt;Node8 -->
<g id="edge7" class="edge">
<title>Node7&#45;&gt;Node8</title>
<path fill="none" stroke="midnightblue" d="M477.5,-68.3C477.5,-59.3 477.5,-49.65 477.5,-41.51"/>
<polygon fill="midnightblue" stroke="midnightblue" points="474,-68.43 477.5,-78.43 481,-68.43 474,-68.43"/>
</g>
<!-- Node9&#45;&gt;Node7 -->
<g id="edge9" class="edge">
<title>Node9&#45;&gt;Node7</title>
<path fill="none" stroke="midnightblue" d="M551.45,-150.64C536.63,-140.49 519.83,-128.98 505.99,-119.51"/>
<polygon fill="midnightblue" stroke="midnightblue" points="549.69,-153.67 559.91,-156.43 553.64,-147.89 549.69,-153.67"/>
</g>
<!-- Node10 -->
<g id="node10" class="node">
<title>Node10</title>
<g id="a_node10"><a xlink:href="_k___filter_8cpp.html" target="_top" xlink:title="Initialize filter object used by the communication.">
<polygon fill="none" stroke="black" points="560,-78.5 560,-119.5 685,-119.5 685,-78.5 560,-78.5"/>
<text text-anchor="start" x="568" y="-107.5" font-family="Helvetica,sans-Serif" font-size="10.00">C:/Users/Gshoo/Desktop</text>
<text text-anchor="start" x="568" y="-96.5" font-family="Helvetica,sans-Serif" font-size="10.00">/pi&#45;defender&#45;tmp/Sources</text>
<text text-anchor="middle" x="622.5" y="-85.5" font-family="Helvetica,sans-Serif" font-size="10.00">/PI&#45;Defender/K_Filter.cpp</text>
</a>
</g>
</g>
<!-- Node9&#45;&gt;Node10 -->
<g id="edge10" class="edge">
<title>Node9&#45;&gt;Node10</title>
<path fill="none" stroke="midnightblue" d="M601.4,-147.17C605.53,-137.93 610.01,-127.92 613.77,-119.51"/>
<polygon fill="midnightblue" stroke="midnightblue" points="598.14,-145.87 597.26,-156.43 604.53,-148.73 598.14,-145.87"/>
</g>
<!-- Node11&#45;&gt;Node7 -->
<g id="edge12" class="edge">
<title>Node11&#45;&gt;Node7</title>
<path fill="none" stroke="midnightblue" d="M677.98,-153.8C639.46,-143.54 593.15,-131.18 551.5,-120 548.29,-119.14 545,-118.25 541.67,-117.36"/>
<polygon fill="midnightblue" stroke="midnightblue" points="677.54,-157.3 688.11,-156.49 679.35,-150.54 677.54,-157.3"/>
</g>
<!-- Node12 -->
<g id="node12" class="node">
<title>Node12</title>
<g id="a_node12"><a xlink:href="_k___ob_callback_8cpp.html" target="_top" xlink:title="Handle request callback.">
<polygon fill="none" stroke="black" points="703.5,-78.5 703.5,-119.5 857.5,-119.5 857.5,-78.5 703.5,-78.5"/>
<text text-anchor="start" x="711.5" y="-107.5" font-family="Helvetica,sans-Serif" font-size="10.00">C:/Users/Gshoo/Desktop</text>
<text text-anchor="start" x="711.5" y="-96.5" font-family="Helvetica,sans-Serif" font-size="10.00">/pi&#45;defender&#45;tmp/Sources</text>
<text text-anchor="middle" x="780.5" y="-85.5" font-family="Helvetica,sans-Serif" font-size="10.00">/PI&#45;Defender/K_ObCallback.cpp</text>
</a>
</g>
</g>
<!-- Node11&#45;&gt;Node12 -->
<g id="edge13" class="edge">
<title>Node11&#45;&gt;Node12</title>
<path fill="none" stroke="midnightblue" d="M768.85,-146.59C771.12,-137.51 773.56,-127.74 775.62,-119.51"/>
<polygon fill="midnightblue" stroke="midnightblue" points="765.42,-145.88 766.39,-156.43 772.21,-147.58 765.42,-145.88"/>
</g>
<!-- Node13&#45;&gt;Node9 -->
<g id="edge16" class="edge">
<title>Node13&#45;&gt;Node9</title>
<path fill="none" stroke="midnightblue" d="M791.88,-231.86C747.04,-219.98 692.69,-205.59 651.46,-194.67"/>
<polygon fill="midnightblue" stroke="midnightblue" points="791.03,-235.25 801.59,-234.43 792.82,-228.48 791.03,-235.25"/>
</g>
<!-- Node13&#45;&gt;Node11 -->
<g id="edge17" class="edge">
<title>Node13&#45;&gt;Node11</title>
<path fill="none" stroke="midnightblue" d="M837.45,-228.64C822.23,-218.49 804.97,-206.98 790.76,-197.51"/>
<polygon fill="midnightblue" stroke="midnightblue" points="835.88,-231.79 846.14,-234.43 839.76,-225.97 835.88,-231.79"/>
</g>
<!-- Node14 -->
<g id="node14" class="node">
<title>Node14</title>
<g id="a_node14"><a xlink:href="_k___communication_8cpp.html" target="_top" xlink:title="Create the communication server, send data to the user&#45;mode service once a client is connected.">
<polygon fill="none" stroke="black" points="857,-156.5 857,-197.5 1028,-197.5 1028,-156.5 857,-156.5"/>
<text text-anchor="start" x="865" y="-185.5" font-family="Helvetica,sans-Serif" font-size="10.00">C:/Users/Gshoo/Desktop</text>
<text text-anchor="start" x="865" y="-174.5" font-family="Helvetica,sans-Serif" font-size="10.00">/pi&#45;defender&#45;tmp/Sources</text>
<text text-anchor="middle" x="942.5" y="-163.5" font-family="Helvetica,sans-Serif" font-size="10.00">/PI&#45;Defender/K_Communication.cpp</text>
</a>
</g>
</g>
<!-- Node13&#45;&gt;Node14 -->
<g id="edge15" class="edge">
<title>Node13&#45;&gt;Node14</title>
<path fill="none" stroke="midnightblue" d="M899.38,-226.92C907.94,-217.2 917.42,-206.45 925.3,-197.51"/>
<polygon fill="midnightblue" stroke="midnightblue" points="896.74,-224.61 892.75,-234.43 901.99,-229.24 896.74,-224.61"/>
</g>
<!-- Node15&#45;&gt;Node2 -->
<g id="edge23" class="edge">
<title>Node15&#45;&gt;Node2</title>
<path fill="none" stroke="midnightblue" d="M603.61,-360.15C591.84,-370.08 577.93,-381.21 565.7,-390.43"/>
<polygon fill="midnightblue" stroke="midnightblue" points="606.04,-362.67 611.36,-353.51 601.49,-357.36 606.04,-362.67"/>
</g>
<!-- Node15&#45;&gt;Node9 -->
<g id="edge22" class="edge">
<title>Node15&#45;&gt;Node9</title>
<path fill="none" stroke="midnightblue" d="M607.42,-303.9C601.88,-295.4 596.63,-285.72 593.5,-276 585.1,-249.89 585.29,-217.86 586.59,-197.68"/>
<polygon fill="midnightblue" stroke="midnightblue" points="604.66,-306.06 613.22,-312.3 610.42,-302.08 604.66,-306.06"/>
</g>
<!-- Node15&#45;&gt;Node11 -->
<g id="edge25" class="edge">
<title>Node15&#45;&gt;Node11</title>
<path fill="none" stroke="midnightblue" d="M703.23,-307.7C718.14,-299.71 732.34,-289.34 742.5,-276 759.83,-253.25 762.71,-219.12 762.57,-197.72"/>
<polygon fill="midnightblue" stroke="midnightblue" points="701.26,-304.76 693.88,-312.36 704.39,-311.03 701.26,-304.76"/>
</g>
<!-- Node16 -->
<g id="node16" class="node">
<title>Node16</title>
<g id="a_node16"><a xlink:href="_k___helper_8cpp.html" target="_top" xlink:title="Help functions used by several .cpp files.">
<polygon fill="none" stroke="black" points="602,-234.5 602,-275.5 733,-275.5 733,-234.5 602,-234.5"/>
<text text-anchor="start" x="610" y="-263.5" font-family="Helvetica,sans-Serif" font-size="10.00">C:/Users/Gshoo/Desktop</text>
<text text-anchor="start" x="610" y="-252.5" font-family="Helvetica,sans-Serif" font-size="10.00">/pi&#45;defender&#45;tmp/Sources</text>
<text text-anchor="middle" x="667.5" y="-241.5" font-family="Helvetica,sans-Serif" font-size="10.00">/PI&#45;Defender/K_Helper.cpp</text>
</a>
</g>
</g>
<!-- Node15&#45;&gt;Node16 -->
<g id="edge24" class="edge">
<title>Node15&#45;&gt;Node16</title>
<path fill="none" stroke="midnightblue" d="M643.77,-303.47C648.43,-294.14 653.5,-284.01 657.75,-275.51"/>
<polygon fill="midnightblue" stroke="midnightblue" points="640.63,-301.92 639.29,-312.43 646.89,-305.05 640.63,-301.92"/>
</g>
<!-- Node17&#45;&gt;Node5 -->
<g id="edge28" class="edge">
<title>Node17&#45;&gt;Node5</title>
<path fill="none" stroke="midnightblue" d="M345.55,-308.19C322.17,-297.67 295.03,-285.47 272.87,-275.51"/>
<polygon fill="midnightblue" stroke="midnightblue" points="344.42,-311.52 354.98,-312.43 347.29,-305.13 344.42,-311.52"/>
</g>
<!-- Node18 -->
<g id="node18" class="node">
<title>Node18</title>
<g id="a_node18"><a xlink:href="_k___whitelist_8cpp.html" target="_top" xlink:title="Store paths of autorized files and folders.">
<polygon fill="none" stroke="black" points="327.5,-234.5 327.5,-275.5 469.5,-275.5 469.5,-234.5 327.5,-234.5"/>
<text text-anchor="start" x="335.5" y="-263.5" font-family="Helvetica,sans-Serif" font-size="10.00">C:/Users/Gshoo/Desktop</text>
<text text-anchor="start" x="335.5" y="-252.5" font-family="Helvetica,sans-Serif" font-size="10.00">/pi&#45;defender&#45;tmp/Sources</text>
<text text-anchor="middle" x="398.5" y="-241.5" font-family="Helvetica,sans-Serif" font-size="10.00">/PI&#45;Defender/K_Whitelist.cpp</text>
</a>
</g>
</g>
<!-- Node17&#45;&gt;Node18 -->
<g id="edge29" class="edge">
<title>Node17&#45;&gt;Node18</title>
<path fill="none" stroke="midnightblue" d="M398.5,-302.3C398.5,-293.3 398.5,-283.65 398.5,-275.51"/>
<polygon fill="midnightblue" stroke="midnightblue" points="395,-302.43 398.5,-312.43 402,-302.43 395,-302.43"/>
</g>
</g>
</svg>
