<?xml version="1.0" encoding="UTF-8" standalone="no"?>
<!DOCTYPE svg PUBLIC "-//W3C//DTD SVG 1.1//EN"
 "http://www.w3.org/Graphics/SVG/1.1/DTD/svg11.dtd">
<!-- Generated by graphviz version 4.0.0 (20220529.0937)
 -->
<!-- Title: C:/Users/admin&#45;cyb/Desktop/PI&#45;Defender/Sources/PI&#45;Defender/K_ObCallback.hpp Pages: 1 -->
<svg width="508pt" height="341pt"
 viewBox="0.00 0.00 507.69 341.00" xmlns="http://www.w3.org/2000/svg" xmlns:xlink="http://www.w3.org/1999/xlink">
<g id="graph0" class="graph" transform="scale(1 1) rotate(0) translate(4 337)">
<title>C:/Users/admin&#45;cyb/Desktop/PI&#45;Defender/Sources/PI&#45;Defender/K_ObCallback.hpp</title>
<!-- Node1 -->
<g id="node1" class="node">
<title>Node1</title>
<g id="a_node1"><a xlink:title="Header for K_ObCallback.cpp.">
<polygon fill="#bfbfbf" stroke="black" points="324.69,-280.5 324.69,-332.5 433.69,-332.5 433.69,-280.5 324.69,-280.5"/>
<text text-anchor="start" x="332.69" y="-320.5" font-family="Helvetica,sans-Serif" font-size="10.00">C:/Users/admin&#45;cyb</text>
<text text-anchor="start" x="332.69" y="-309.5" font-family="Helvetica,sans-Serif" font-size="10.00">/Desktop/PI&#45;Defender</text>
<text text-anchor="start" x="332.69" y="-298.5" font-family="Helvetica,sans-Serif" font-size="10.00">/Sources/PI&#45;Defender</text>
<text text-anchor="middle" x="379.19" y="-287.5" font-family="Helvetica,sans-Serif" font-size="10.00">/K_ObCallback.hpp</text>
</a>
</g>
</g>
<!-- Node2 -->
<g id="node2" class="node">
<title>Node2</title>
<g id="a_node2"><a xlink:href="_k___global_header_8hpp.html" target="_top" xlink:title="Header used by several .cpp files.">
<polygon fill="none" stroke="black" points="259.19,-112.5 259.19,-131.5 365.19,-131.5 365.19,-112.5 259.19,-112.5"/>
<text text-anchor="middle" x="312.19" y="-119.5" font-family="Helvetica,sans-Serif" font-size="10.00">K_GlobalHeader.hpp</text>
</a>
</g>
</g>
<!-- Node1&#45;&gt;Node2 -->
<g id="edge1" class="edge">
<title>Node1&#45;&gt;Node2</title>
<path fill="none" stroke="midnightblue" d="M386.37,-280.26C393.16,-250.91 399.46,-202.14 378.19,-168 369.61,-154.23 355.09,-143.64 341.84,-136.21"/>
<polygon fill="midnightblue" stroke="midnightblue" points="343.45,-133.1 332.97,-131.57 340.21,-139.31 343.45,-133.1"/>
</g>
<!-- Node8 -->
<g id="node8" class="node">
<title>Node8</title>
<g id="a_node8"><a xlink:href="_k___utilitaire_8hpp.html" target="_top" xlink:title="Header for K_Utilitaire.cpp.">
<polygon fill="none" stroke="black" points="416.69,-56.5 416.69,-75.5 499.69,-75.5 499.69,-56.5 416.69,-56.5"/>
<text text-anchor="middle" x="458.19" y="-63.5" font-family="Helvetica,sans-Serif" font-size="10.00">K_Utilitaire.hpp</text>
</a>
</g>
</g>
<!-- Node1&#45;&gt;Node8 -->
<g id="edge11" class="edge">
<title>Node1&#45;&gt;Node8</title>
<path fill="none" stroke="midnightblue" d="M391.09,-280.36C396.09,-269.34 401.75,-256.16 406.19,-244 426.9,-187.21 445.34,-117.94 453.6,-85.47"/>
<polygon fill="midnightblue" stroke="midnightblue" points="457.03,-86.15 456.08,-75.6 450.25,-84.44 457.03,-86.15"/>
</g>
<!-- Node11 -->
<g id="node11" class="node">
<title>Node11</title>
<g id="a_node11"><a xlink:href="_k___communication_8hpp.html" target="_top" xlink:title="Header for K_Communication.cpp.">
<polygon fill="none" stroke="black" points="41.69,-168.5 41.69,-187.5 156.69,-187.5 156.69,-168.5 41.69,-168.5"/>
<text text-anchor="middle" x="99.19" y="-175.5" font-family="Helvetica,sans-Serif" font-size="10.00">K_Communication.hpp</text>
</a>
</g>
</g>
<!-- Node1&#45;&gt;Node11 -->
<g id="edge12" class="edge">
<title>Node1&#45;&gt;Node11</title>
<path fill="none" stroke="midnightblue" d="M324.54,-280.81C265.53,-254.15 173.8,-212.71 127.69,-191.88"/>
<polygon fill="midnightblue" stroke="midnightblue" points="128.86,-188.57 118.31,-187.64 125.98,-194.94 128.86,-188.57"/>
</g>
<!-- Node12 -->
<g id="node12" class="node">
<title>Node12</title>
<g id="a_node12"><a xlink:href="_k___configuration_8hpp.html" target="_top" xlink:title="Header for K_Configuration.cpp.">
<polygon fill="none" stroke="black" points="273.19,-224.5 273.19,-243.5 377.19,-243.5 377.19,-224.5 273.19,-224.5"/>
<text text-anchor="middle" x="325.19" y="-231.5" font-family="Helvetica,sans-Serif" font-size="10.00">K_Configuration.hpp</text>
</a>
</g>
</g>
<!-- Node1&#45;&gt;Node12 -->
<g id="edge15" class="edge">
<title>Node1&#45;&gt;Node12</title>
<path fill="none" stroke="midnightblue" d="M360,-280.45C352.71,-270.93 344.59,-260.33 338.02,-251.76"/>
<polygon fill="midnightblue" stroke="midnightblue" points="340.71,-249.51 331.85,-243.7 335.15,-253.76 340.71,-249.51"/>
</g>
<!-- Node3 -->
<g id="node3" class="node">
<title>Node3</title>
<g id="a_node3"><a xlink:title=" ">
<polygon fill="none" stroke="#bfbfbf" points="292.69,-56.5 292.69,-75.5 335.69,-75.5 335.69,-56.5 292.69,-56.5"/>
<text text-anchor="middle" x="314.19" y="-63.5" font-family="Helvetica,sans-Serif" font-size="10.00">ntifs.h</text>
</a>
</g>
</g>
<!-- Node2&#45;&gt;Node3 -->
<g id="edge2" class="edge">
<title>Node2&#45;&gt;Node3</title>
<path fill="none" stroke="midnightblue" d="M312.52,-112.08C312.78,-105.01 313.16,-94.86 313.49,-85.99"/>
<polygon fill="midnightblue" stroke="midnightblue" points="316.99,-85.87 313.86,-75.75 310,-85.61 316.99,-85.87"/>
</g>
<!-- Node4 -->
<g id="node4" class="node">
<title>Node4</title>
<g id="a_node4"><a xlink:title=" ">
<polygon fill="none" stroke="#bfbfbf" points="353.69,-56.5 353.69,-75.5 398.69,-75.5 398.69,-56.5 353.69,-56.5"/>
<text text-anchor="middle" x="376.19" y="-63.5" font-family="Helvetica,sans-Serif" font-size="10.00">wdm.h</text>
</a>
</g>
</g>
<!-- Node2&#45;&gt;Node4 -->
<g id="edge3" class="edge">
<title>Node2&#45;&gt;Node4</title>
<path fill="none" stroke="midnightblue" d="M322.47,-112.32C332.03,-104.26 346.47,-92.08 357.97,-82.37"/>
<polygon fill="midnightblue" stroke="midnightblue" points="360.33,-84.96 365.72,-75.83 355.82,-79.61 360.33,-84.96"/>
</g>
<!-- Node5 -->
<g id="node5" class="node">
<title>Node5</title>
<g id="a_node5"><a xlink:title=" ">
<polygon fill="none" stroke="#bfbfbf" points="17.19,-56.5 17.19,-75.5 77.19,-75.5 77.19,-56.5 17.19,-56.5"/>
<text text-anchor="middle" x="47.19" y="-63.5" font-family="Helvetica,sans-Serif" font-size="10.00">fltKernel.h</text>
</a>
</g>
</g>
<!-- Node2&#45;&gt;Node5 -->
<g id="edge4" class="edge">
<title>Node2&#45;&gt;Node5</title>
<path fill="none" stroke="midnightblue" d="M267.08,-112.44C223.55,-104.08 155.52,-90.77 87.44,-76.22"/>
<polygon fill="midnightblue" stroke="midnightblue" points="87.91,-72.74 77.4,-74.07 86.45,-79.59 87.91,-72.74"/>
</g>
<!-- Node6 -->
<g id="node6" class="node">
<title>Node6</title>
<g id="a_node6"><a xlink:title=" ">
<polygon fill="none" stroke="#bfbfbf" points="95.19,-56.5 95.19,-75.5 157.19,-75.5 157.19,-56.5 95.19,-56.5"/>
<text text-anchor="middle" x="126.19" y="-63.5" font-family="Helvetica,sans-Serif" font-size="10.00">ntstrsafe.h</text>
</a>
</g>
</g>
<!-- Node2&#45;&gt;Node6 -->
<g id="edge5" class="edge">
<title>Node2&#45;&gt;Node6</title>
<path fill="none" stroke="midnightblue" d="M282.72,-112.44C251.02,-103.24 200.46,-88.56 165.41,-78.39"/>
<polygon fill="midnightblue" stroke="midnightblue" points="166.1,-74.94 155.52,-75.52 164.15,-81.67 166.1,-74.94"/>
</g>
<!-- Node7 -->
<g id="node7" class="node">
<title>Node7</title>
<g id="a_node7"><a xlink:href="_k___wpp_tracing_8hpp.html" target="_top" xlink:title="WppTracing header.">
<polygon fill="none" stroke="black" points="175.69,-56.5 175.69,-75.5 274.69,-75.5 274.69,-56.5 175.69,-56.5"/>
<text text-anchor="middle" x="225.19" y="-63.5" font-family="Helvetica,sans-Serif" font-size="10.00">K_WppTracing.hpp</text>
</a>
</g>
</g>
<!-- Node2&#45;&gt;Node7 -->
<g id="edge6" class="edge">
<title>Node2&#45;&gt;Node7</title>
<path fill="none" stroke="midnightblue" d="M298.21,-112.32C284.64,-103.9 263.81,-90.97 247.86,-81.07"/>
<polygon fill="midnightblue" stroke="midnightblue" points="249.47,-77.95 239.13,-75.65 245.78,-83.9 249.47,-77.95"/>
</g>
<!-- Node2&#45;&gt;Node8 -->
<g id="edge7" class="edge">
<title>Node2&#45;&gt;Node8</title>
<path fill="none" stroke="midnightblue" d="M330.23,-112.44C352.71,-103.4 391.25,-89.06 420.26,-78.92"/>
<polygon fill="midnightblue" stroke="midnightblue" points="421.78,-82.1 430.08,-75.52 419.49,-75.48 421.78,-82.1"/>
</g>
<!-- Node8&#45;&gt;Node2 -->
<g id="edge8" class="edge">
<title>Node8&#45;&gt;Node2</title>
<path fill="none" stroke="midnightblue" d="M440.24,-75.52C417.72,-84.59 378.94,-99 349.86,-109.17"/>
<polygon fill="midnightblue" stroke="midnightblue" points="348.72,-105.87 340.41,-112.44 351.01,-112.48 348.72,-105.87"/>
</g>
<!-- Node9 -->
<g id="node9" class="node">
<title>Node9</title>
<g id="a_node9"><a xlink:href="_shared_defs_8hpp.html" target="_top" xlink:title="Header file which contains the structures, type definitions, constants, global variablesand function ...">
<polygon fill="none" stroke="black" points="91.19,-0.5 91.19,-19.5 239.19,-19.5 239.19,-0.5 91.19,-0.5"/>
<text text-anchor="middle" x="165.19" y="-7.5" font-family="Helvetica,sans-Serif" font-size="10.00">../SharedDefs/SharedDefs.hpp</text>
</a>
</g>
</g>
<!-- Node8&#45;&gt;Node9 -->
<g id="edge9" class="edge">
<title>Node8&#45;&gt;Node9</title>
<path fill="none" stroke="midnightblue" d="M416.52,-57.32C365.4,-47.9 278.51,-31.89 221.48,-21.38"/>
<polygon fill="midnightblue" stroke="midnightblue" points="222.02,-17.91 211.55,-19.54 220.75,-24.8 222.02,-17.91"/>
</g>
<!-- Node10 -->
<g id="node10" class="node">
<title>Node10</title>
<g id="a_node10"><a xlink:title=" ">
<polygon fill="none" stroke="#bfbfbf" points="432.19,-0.5 432.19,-19.5 484.19,-19.5 484.19,-0.5 432.19,-0.5"/>
<text text-anchor="middle" x="458.19" y="-7.5" font-family="Helvetica,sans-Serif" font-size="10.00">bcrypt.h</text>
</a>
</g>
</g>
<!-- Node8&#45;&gt;Node10 -->
<g id="edge10" class="edge">
<title>Node8&#45;&gt;Node10</title>
<path fill="none" stroke="midnightblue" d="M458.19,-56.08C458.19,-49.01 458.19,-38.86 458.19,-29.99"/>
<polygon fill="midnightblue" stroke="midnightblue" points="461.69,-29.75 458.19,-19.75 454.69,-29.75 461.69,-29.75"/>
</g>
<!-- Node11&#45;&gt;Node2 -->
<g id="edge13" class="edge">
<title>Node11&#45;&gt;Node2</title>
<path fill="none" stroke="midnightblue" d="M132.94,-168.44C169.71,-159.12 228.63,-144.18 268.81,-134"/>
<polygon fill="midnightblue" stroke="midnightblue" points="269.76,-137.37 278.6,-131.52 268.04,-130.58 269.76,-137.37"/>
</g>
<!-- Node11&#45;&gt;Node9 -->
<g id="edge14" class="edge">
<title>Node11&#45;&gt;Node9</title>
<path fill="none" stroke="midnightblue" d="M83.99,-168.49C50.62,-148.72 -23.61,-98.19 8.19,-56 19.66,-40.77 62.41,-29.13 100.4,-21.5"/>
<polygon fill="midnightblue" stroke="midnightblue" points="101.3,-24.89 110.45,-19.55 99.97,-18.02 101.3,-24.89"/>
</g>
<!-- Node12&#45;&gt;Node2 -->
<g id="edge16" class="edge">
<title>Node12&#45;&gt;Node2</title>
<path fill="none" stroke="midnightblue" d="M336.29,-224.48C350.65,-212.35 372.76,-189.21 363.19,-168 357.57,-155.56 346.63,-145.17 336.31,-137.53"/>
<polygon fill="midnightblue" stroke="midnightblue" points="338.15,-134.54 327.92,-131.76 334.18,-140.31 338.15,-134.54"/>
</g>
<!-- Node13 -->
<g id="node13" class="node">
<title>Node13</title>
<g id="a_node13"><a xlink:href="_k___cache_8hpp.html" target="_top" xlink:title="Header for K_Cache.cpp.">
<polygon fill="none" stroke="black" points="174.69,-168.5 174.69,-187.5 249.69,-187.5 249.69,-168.5 174.69,-168.5"/>
<text text-anchor="middle" x="212.19" y="-175.5" font-family="Helvetica,sans-Serif" font-size="10.00">K_Cache.hpp</text>
</a>
</g>
</g>
<!-- Node12&#45;&gt;Node13 -->
<g id="edge17" class="edge">
<title>Node12&#45;&gt;Node13</title>
<path fill="none" stroke="midnightblue" d="M307.28,-224.44C288.93,-215.68 260.18,-201.94 239.1,-191.86"/>
<polygon fill="midnightblue" stroke="midnightblue" points="240.54,-188.67 230.01,-187.52 237.52,-194.99 240.54,-188.67"/>
</g>
<!-- Node14 -->
<g id="node14" class="node">
<title>Node14</title>
<g id="a_node14"><a xlink:href="_k___whitelist_8hpp.html" target="_top" xlink:title="Header for K_Whitelist.cpp.">
<polygon fill="none" stroke="black" points="268.19,-168.5 268.19,-187.5 354.19,-187.5 354.19,-168.5 268.19,-168.5"/>
<text text-anchor="middle" x="311.19" y="-175.5" font-family="Helvetica,sans-Serif" font-size="10.00">K_Whitelist.hpp</text>
</a>
</g>
</g>
<!-- Node12&#45;&gt;Node14 -->
<g id="edge19" class="edge">
<title>Node12&#45;&gt;Node14</title>
<path fill="none" stroke="midnightblue" d="M322.88,-224.08C321.02,-216.93 318.35,-206.64 316.03,-197.69"/>
<polygon fill="midnightblue" stroke="midnightblue" points="319.36,-196.55 313.46,-187.75 312.58,-198.31 319.36,-196.55"/>
</g>
<!-- Node13&#45;&gt;Node2 -->
<g id="edge18" class="edge">
<title>Node13&#45;&gt;Node2</title>
<path fill="none" stroke="midnightblue" d="M228.26,-168.32C244.15,-159.74 268.7,-146.49 287.15,-136.52"/>
<polygon fill="midnightblue" stroke="midnightblue" points="289.03,-139.49 296.16,-131.65 285.7,-133.33 289.03,-139.49"/>
</g>
<!-- Node14&#45;&gt;Node2 -->
<g id="edge20" class="edge">
<title>Node14&#45;&gt;Node2</title>
<path fill="none" stroke="midnightblue" d="M311.35,-168.08C311.49,-161.01 311.67,-150.86 311.84,-141.99"/>
<polygon fill="midnightblue" stroke="midnightblue" points="315.34,-141.81 312.03,-131.75 308.34,-141.68 315.34,-141.81"/>
</g>
</g>
</svg>
