<?xml version="1.0" encoding="UTF-8" standalone="no"?>
<!DOCTYPE svg PUBLIC "-//W3C//DTD SVG 1.1//EN"
 "http://www.w3.org/Graphics/SVG/1.1/DTD/svg11.dtd">
<!-- Generated by graphviz version 5.0.0 (20220707.1540)
 -->
<!-- Title: C:/Users/Gshoo/Desktop/pi&#45;defender&#45;tmp/Sources/PI&#45;Defender/K_Communication.hpp Pages: 1 -->
<!--zoomable 284 -->
<svg id="main" version="1.1" xmlns="http://www.w3.org/2000/svg" xmlns:xlink="http://www.w3.org/1999/xlink" xml:space="preserve" onload="init(evt)">
<style type="text/css"><![CDATA[
.edge:hover path { stroke: red; }
.edge:hover polygon { stroke: red; fill: red; }
]]></style>
<script type="text/javascript"><![CDATA[
var edges = document.getElementsByTagName('g');
if (edges && edges.length) {
  for (var i=0;i<edges.length;i++) {
    if (edges[i].id.substr(0,4)=='edge') {
      edges[i].setAttribute('class','edge');
    }
  }
}
]]></script>
        <defs>
                <circle id="rim" cx="0" cy="0" r="7"/>
                <circle id="rim2" cx="0" cy="0" r="3.5"/>
                <g id="zoomPlus">
                        <use xlink:href="#rim" fill="#404040">
                                <set attributeName="fill" to="#808080" begin="zoomplus.mouseover" end="zoomplus.mouseout"/>
                        </use>
                        <path d="M-4,0h8M0,-4v8" fill="none" stroke="white" stroke-width="1.5" pointer-events="none"/>
                </g>
                <g id="zoomMin">
                        <use xlink:href="#rim" fill="#404040">
                                <set attributeName="fill" to="#808080" begin="zoomminus.mouseover" end="zoomminus.mouseout"/>
                        </use>
                        <path d="M-4,0h8" fill="none" stroke="white" stroke-width="1.5" pointer-events="none"/>
                </g>
                <g id="dirArrow">
                        <path fill="none" stroke="white" stroke-width="1.5" d="M0,-3.0v7 M-2.5,-0.5L0,-3.0L2.5,-0.5"/>
                </g>
               <g id="resetDef">
                       <use xlink:href="#rim2" fill="#404040">
                               <set attributeName="fill" to="#808080" begin="reset.mouseover" end="reset.mouseout"/>
                       </use>
               </g>
        </defs>

<script type="text/javascript">
var viewWidth = 568;
var viewHeight = 284;
var sectionId = 'dynsection-1';
</script>
<script xlink:href="svgpan.js"/>
<svg id="graph" class="graph">
<g id="viewport">
<title>C:/Users/Gshoo/Desktop/pi&#45;defender&#45;tmp/Sources/PI&#45;Defender/K_Communication.hpp</title>
<!-- Node1 -->
<g id="node1" class="node">
<title>Node1</title>
<g id="a_node1"><a xlink:title="Header for K_Communication.cpp.">
<polygon fill="#bfbfbf" stroke="black" points="166,-234.5 166,-275.5 337,-275.5 337,-234.5 166,-234.5"/>
<text text-anchor="start" x="174" y="-263.5" font-family="Helvetica,sans-Serif" font-size="10.00">C:/Users/Gshoo/Desktop</text>
<text text-anchor="start" x="174" y="-252.5" font-family="Helvetica,sans-Serif" font-size="10.00">/pi&#45;defender&#45;tmp/Sources</text>
<text text-anchor="middle" x="251.5" y="-241.5" font-family="Helvetica,sans-Serif" font-size="10.00">/PI&#45;Defender/K_Communication.hpp</text>
</a>
</g>
</g>
<!-- Node2 -->
<g id="node2" class="node">
<title>Node2</title>
<g id="a_node2"><a xlink:href="_k___communication_8cpp.html" target="_top" xlink:title="Create the communication server, send data to the user&#45;mode service once a client is connected.">
<polygon fill="none" stroke="black" points="0,-156.5 0,-197.5 171,-197.5 171,-156.5 0,-156.5"/>
<text text-anchor="start" x="8" y="-185.5" font-family="Helvetica,sans-Serif" font-size="10.00">C:/Users/Gshoo/Desktop</text>
<text text-anchor="start" x="8" y="-174.5" font-family="Helvetica,sans-Serif" font-size="10.00">/pi&#45;defender&#45;tmp/Sources</text>
<text text-anchor="middle" x="85.5" y="-163.5" font-family="Helvetica,sans-Serif" font-size="10.00">/PI&#45;Defender/K_Communication.cpp</text>
</a>
</g>
</g>
<!-- Node1&#45;&gt;Node2 -->
<g id="edge1" class="edge">
<title>Node1&#45;&gt;Node2</title>
<path fill="none" stroke="midnightblue" d="M199.49,-230.19C176.53,-219.67 149.87,-207.47 128.1,-197.51"/>
<polygon fill="midnightblue" stroke="midnightblue" points="198.2,-233.45 208.75,-234.43 201.12,-227.08 198.2,-233.45"/>
</g>
<!-- Node3 -->
<g id="node3" class="node">
<title>Node3</title>
<g id="a_node3"><a xlink:href="_k___filter_8hpp.html" target="_top" xlink:title="Header for K_Filter.cpp.">
<polygon fill="none" stroke="black" points="189,-156.5 189,-197.5 314,-197.5 314,-156.5 189,-156.5"/>
<text text-anchor="start" x="197" y="-185.5" font-family="Helvetica,sans-Serif" font-size="10.00">C:/Users/Gshoo/Desktop</text>
<text text-anchor="start" x="197" y="-174.5" font-family="Helvetica,sans-Serif" font-size="10.00">/pi&#45;defender&#45;tmp/Sources</text>
<text text-anchor="middle" x="251.5" y="-163.5" font-family="Helvetica,sans-Serif" font-size="10.00">/PI&#45;Defender/K_Filter.hpp</text>
</a>
</g>
</g>
<!-- Node1&#45;&gt;Node3 -->
<g id="edge2" class="edge">
<title>Node1&#45;&gt;Node3</title>
<path fill="none" stroke="midnightblue" d="M251.5,-224.3C251.5,-215.3 251.5,-205.65 251.5,-197.51"/>
<polygon fill="midnightblue" stroke="midnightblue" points="248,-224.43 251.5,-234.43 255,-224.43 248,-224.43"/>
</g>
<!-- Node7 -->
<g id="node7" class="node">
<title>Node7</title>
<g id="a_node7"><a xlink:href="_k___ob_callback_8hpp.html" target="_top" xlink:title="Header for K_ObCallback.cpp.">
<polygon fill="none" stroke="black" points="332.5,-156.5 332.5,-197.5 486.5,-197.5 486.5,-156.5 332.5,-156.5"/>
<text text-anchor="start" x="340.5" y="-185.5" font-family="Helvetica,sans-Serif" font-size="10.00">C:/Users/Gshoo/Desktop</text>
<text text-anchor="start" x="340.5" y="-174.5" font-family="Helvetica,sans-Serif" font-size="10.00">/pi&#45;defender&#45;tmp/Sources</text>
<text text-anchor="middle" x="409.5" y="-163.5" font-family="Helvetica,sans-Serif" font-size="10.00">/PI&#45;Defender/K_ObCallback.hpp</text>
</a>
</g>
</g>
<!-- Node1&#45;&gt;Node7 -->
<g id="edge6" class="edge">
<title>Node1&#45;&gt;Node7</title>
<path fill="none" stroke="midnightblue" d="M301.29,-230.05C323.09,-219.57 348.33,-207.42 368.95,-197.51"/>
<polygon fill="midnightblue" stroke="midnightblue" points="299.68,-226.94 292.19,-234.43 302.72,-233.25 299.68,-226.94"/>
</g>
<!-- Node4 -->
<g id="node4" class="node">
<title>Node4</title>
<g id="a_node4"><a xlink:href="_k___driver_8hpp.html" target="_top" xlink:title="Header for K_Driver.cpp.">
<polygon fill="none" stroke="black" points="259.5,-78.5 259.5,-119.5 387.5,-119.5 387.5,-78.5 259.5,-78.5"/>
<text text-anchor="start" x="267.5" y="-107.5" font-family="Helvetica,sans-Serif" font-size="10.00">C:/Users/Gshoo/Desktop</text>
<text text-anchor="start" x="267.5" y="-96.5" font-family="Helvetica,sans-Serif" font-size="10.00">/pi&#45;defender&#45;tmp/Sources</text>
<text text-anchor="middle" x="323.5" y="-85.5" font-family="Helvetica,sans-Serif" font-size="10.00">/PI&#45;Defender/K_Driver.hpp</text>
</a>
</g>
</g>
<!-- Node3&#45;&gt;Node4 -->
<g id="edge3" class="edge">
<title>Node3&#45;&gt;Node4</title>
<path fill="none" stroke="midnightblue" d="M277.16,-148.92C286.36,-139.2 296.55,-128.45 305.02,-119.51"/>
<polygon fill="midnightblue" stroke="midnightblue" points="274.38,-146.76 270.04,-156.43 279.46,-151.58 274.38,-146.76"/>
</g>
<!-- Node6 -->
<g id="node6" class="node">
<title>Node6</title>
<g id="a_node6"><a xlink:href="_k___filter_8cpp.html" target="_top" xlink:title="Initialize filter object used by the communication.">
<polygon fill="none" stroke="black" points="116,-78.5 116,-119.5 241,-119.5 241,-78.5 116,-78.5"/>
<text text-anchor="start" x="124" y="-107.5" font-family="Helvetica,sans-Serif" font-size="10.00">C:/Users/Gshoo/Desktop</text>
<text text-anchor="start" x="124" y="-96.5" font-family="Helvetica,sans-Serif" font-size="10.00">/pi&#45;defender&#45;tmp/Sources</text>
<text text-anchor="middle" x="178.5" y="-85.5" font-family="Helvetica,sans-Serif" font-size="10.00">/PI&#45;Defender/K_Filter.cpp</text>
</a>
</g>
</g>
<!-- Node3&#45;&gt;Node6 -->
<g id="edge5" class="edge">
<title>Node3&#45;&gt;Node6</title>
<path fill="none" stroke="midnightblue" d="M225.76,-149.2C216.36,-139.42 205.91,-128.54 197.24,-119.51"/>
<polygon fill="midnightblue" stroke="midnightblue" points="223.25,-151.64 232.7,-156.43 228.3,-146.79 223.25,-151.64"/>
</g>
<!-- Node5 -->
<g id="node5" class="node">
<title>Node5</title>
<g id="a_node5"><a xlink:href="_k___driver_8cpp.html" target="_top" xlink:title="Entrypoint of the driver, unload routine.">
<polygon fill="none" stroke="black" points="259.5,-0.5 259.5,-41.5 387.5,-41.5 387.5,-0.5 259.5,-0.5"/>
<text text-anchor="start" x="267.5" y="-29.5" font-family="Helvetica,sans-Serif" font-size="10.00">C:/Users/Gshoo/Desktop</text>
<text text-anchor="start" x="267.5" y="-18.5" font-family="Helvetica,sans-Serif" font-size="10.00">/pi&#45;defender&#45;tmp/Sources</text>
<text text-anchor="middle" x="323.5" y="-7.5" font-family="Helvetica,sans-Serif" font-size="10.00">/PI&#45;Defender/K_Driver.cpp</text>
</a>
</g>
</g>
<!-- Node4&#45;&gt;Node5 -->
<g id="edge4" class="edge">
<title>Node4&#45;&gt;Node5</title>
<path fill="none" stroke="midnightblue" d="M323.5,-68.3C323.5,-59.3 323.5,-49.65 323.5,-41.51"/>
<polygon fill="midnightblue" stroke="midnightblue" points="320,-68.43 323.5,-78.43 327,-68.43 320,-68.43"/>
</g>
<!-- Node7&#45;&gt;Node4 -->
<g id="edge7" class="edge">
<title>Node7&#45;&gt;Node4</title>
<path fill="none" stroke="midnightblue" d="M379.83,-149.78C368.59,-139.84 355.99,-128.72 345.57,-119.51"/>
<polygon fill="midnightblue" stroke="midnightblue" points="377.54,-152.43 387.35,-156.43 382.18,-147.18 377.54,-152.43"/>
</g>
<!-- Node8 -->
<g id="node8" class="node">
<title>Node8</title>
<g id="a_node8"><a xlink:href="_k___ob_callback_8cpp.html" target="_top" xlink:title="Handle request callback.">
<polygon fill="none" stroke="black" points="405.5,-78.5 405.5,-119.5 559.5,-119.5 559.5,-78.5 405.5,-78.5"/>
<text text-anchor="start" x="413.5" y="-107.5" font-family="Helvetica,sans-Serif" font-size="10.00">C:/Users/Gshoo/Desktop</text>
<text text-anchor="start" x="413.5" y="-96.5" font-family="Helvetica,sans-Serif" font-size="10.00">/pi&#45;defender&#45;tmp/Sources</text>
<text text-anchor="middle" x="482.5" y="-85.5" font-family="Helvetica,sans-Serif" font-size="10.00">/PI&#45;Defender/K_ObCallback.cpp</text>
</a>
</g>
</g>
<!-- Node7&#45;&gt;Node8 -->
<g id="edge8" class="edge">
<title>Node7&#45;&gt;Node8</title>
<path fill="none" stroke="midnightblue" d="M435.24,-149.2C444.64,-139.42 455.09,-128.54 463.76,-119.51"/>
<polygon fill="midnightblue" stroke="midnightblue" points="432.7,-146.79 428.3,-156.43 437.75,-151.64 432.7,-146.79"/>
</g>
</g>
</svg>
        <g id="navigator" transform="translate(0 0)" fill="#404254">
                <rect fill="#f2f5e9" fill-opacity="0.5" stroke="#606060" stroke-width=".5" x="0" y="0" width="60" height="60"/>
                <use id="zoomplus" xlink:href="#zoomPlus" x="17" y="9" onmousedown="handleZoom(evt,'in')"/>
                <use id="zoomminus" xlink:href="#zoomMin" x="42" y="9" onmousedown="handleZoom(evt,'out')"/>
                <use id="reset" xlink:href="#resetDef" x="30" y="36" onmousedown="handleReset()"/>
                <g id="arrowUp" xlink:href="#dirArrow" transform="translate(30 24)" onmousedown="handlePan(0,-1)">
                  <use xlink:href="#rim" fill="#404040">
                        <set attributeName="fill" to="#808080" begin="arrowUp.mouseover" end="arrowUp.mouseout"/>
                  </use>
                  <path fill="none" stroke="white" stroke-width="1.5" d="M0,-3.0v7 M-2.5,-0.5L0,-3.0L2.5,-0.5"/>
                </g>
                <g id="arrowRight" xlink:href="#dirArrow" transform="rotate(90) translate(36 -43)" onmousedown="handlePan(1,0)">
                  <use xlink:href="#rim" fill="#404040">
                        <set attributeName="fill" to="#808080" begin="arrowRight.mouseover" end="arrowRight.mouseout"/>
                  </use>
                  <path fill="none" stroke="white" stroke-width="1.5" d="M0,-3.0v7 M-2.5,-0.5L0,-3.0L2.5,-0.5"/>
                </g>
                <g id="arrowDown" xlink:href="#dirArrow" transform="rotate(180) translate(-30 -48)" onmousedown="handlePan(0,1)">
                  <use xlink:href="#rim" fill="#404040">
                        <set attributeName="fill" to="#808080" begin="arrowDown.mouseover" end="arrowDown.mouseout"/>
                  </use>
                  <path fill="none" stroke="white" stroke-width="1.5" d="M0,-3.0v7 M-2.5,-0.5L0,-3.0L2.5,-0.5"/>
                </g>
                <g id="arrowLeft" xlink:href="#dirArrow" transform="rotate(270) translate(-36 17)" onmousedown="handlePan(-1,0)">
                  <use xlink:href="#rim" fill="#404040">
                        <set attributeName="fill" to="#808080" begin="arrowLeft.mouseover" end="arrowLeft.mouseout"/>
                  </use>
                  <path fill="none" stroke="white" stroke-width="1.5" d="M0,-3.0v7 M-2.5,-0.5L0,-3.0L2.5,-0.5"/>
                </g>
        </g>
        <svg viewBox="0 0 15 15" width="100%" height="30px" preserveAspectRatio="xMaxYMin meet">
         <g id="arrow_out" transform="scale(0.3 0.3)">
          <a xlink:href="_k___communication_8hpp__dep__incl_org.svg" target="_base">
           <rect id="button" ry="5" rx="5" y="6" x="6" height="38" width="38"
                fill="#f2f5e9" fill-opacity="0.5" stroke="#606060" stroke-width="1.0"/>
           <path id="arrow"
             d="M 11.500037,31.436501 C 11.940474,20.09759 22.043105,11.32322 32.158766,21.979434 L 37.068811,17.246167 C 37.068811,17.246167 37.088388,32 37.088388,32 L 22.160133,31.978069 C 22.160133,31.978069 26.997745,27.140456 26.997745,27.140456 C 18.528582,18.264221 13.291696,25.230495 11.500037,31.436501 z"
             style="fill:#404040;"/>
          </a>
         </g>
        </svg>
</svg>
