<?xml version="1.0" encoding="UTF-8" standalone="no"?>
<!DOCTYPE svg PUBLIC "-//W3C//DTD SVG 1.1//EN"
 "http://www.w3.org/Graphics/SVG/1.1/DTD/svg11.dtd">
<!-- Generated by graphviz version 5.0.0 (20220707.1540)
 -->
<!-- Title: C:/Users/Gshoo/Desktop/pi&#45;defender&#45;tmp/Sources/PI&#45;Defender/K_Cache.hpp Pages: 1 -->
<svg width="576pt" height="362pt"
 viewBox="0.00 0.00 576.00 362.00" xmlns="http://www.w3.org/2000/svg" xmlns:xlink="http://www.w3.org/1999/xlink">
<g id="graph0" class="graph" transform="scale(1 1) rotate(0) translate(4 358)">
<title>C:/Users/Gshoo/Desktop/pi&#45;defender&#45;tmp/Sources/PI&#45;Defender/K_Cache.hpp</title>
<!-- Node1 -->
<g id="node1" class="node">
<title>Node1</title>
<g id="a_node1"><a xlink:title="Header for K_Cache.cpp.">
<polygon fill="#bfbfbf" stroke="black" points="138.5,-312.5 138.5,-353.5 269.5,-353.5 269.5,-312.5 138.5,-312.5"/>
<text text-anchor="start" x="146.5" y="-341.5" font-family="Helvetica,sans-Serif" font-size="10.00">C:/Users/Gshoo/Desktop</text>
<text text-anchor="start" x="146.5" y="-330.5" font-family="Helvetica,sans-Serif" font-size="10.00">/pi&#45;defender&#45;tmp/Sources</text>
<text text-anchor="middle" x="204" y="-319.5" font-family="Helvetica,sans-Serif" font-size="10.00">/PI&#45;Defender/K_Cache.hpp</text>
</a>
</g>
</g>
<!-- Node2 -->
<g id="node2" class="node">
<title>Node2</title>
<g id="a_node2"><a xlink:href="_k___cache_8cpp.html" target="_top" xlink:title="Store hash of signed and unsigned executable previously scanned.">
<polygon fill="none" stroke="black" points="56.5,-234.5 56.5,-275.5 187.5,-275.5 187.5,-234.5 56.5,-234.5"/>
<text text-anchor="start" x="64.5" y="-263.5" font-family="Helvetica,sans-Serif" font-size="10.00">C:/Users/Gshoo/Desktop</text>
<text text-anchor="start" x="64.5" y="-252.5" font-family="Helvetica,sans-Serif" font-size="10.00">/pi&#45;defender&#45;tmp/Sources</text>
<text text-anchor="middle" x="122" y="-241.5" font-family="Helvetica,sans-Serif" font-size="10.00">/PI&#45;Defender/K_Cache.cpp</text>
</a>
</g>
</g>
<!-- Node1&#45;&gt;Node2 -->
<g id="edge1" class="edge">
<title>Node1&#45;&gt;Node2</title>
<path fill="none" stroke="midnightblue" d="M175.4,-305.49C164.76,-295.63 152.89,-284.63 143.05,-275.51"/>
<polygon fill="midnightblue" stroke="midnightblue" points="173.17,-308.2 182.88,-312.43 177.93,-303.06 173.17,-308.2"/>
</g>
<!-- Node3 -->
<g id="node3" class="node">
<title>Node3</title>
<g id="a_node3"><a xlink:href="_k___configuration_8hpp.html" target="_top" xlink:title="Header for K_Configuration.cpp.">
<polygon fill="none" stroke="black" points="206,-234.5 206,-275.5 366,-275.5 366,-234.5 206,-234.5"/>
<text text-anchor="start" x="214" y="-263.5" font-family="Helvetica,sans-Serif" font-size="10.00">C:/Users/Gshoo/Desktop</text>
<text text-anchor="start" x="214" y="-252.5" font-family="Helvetica,sans-Serif" font-size="10.00">/pi&#45;defender&#45;tmp/Sources</text>
<text text-anchor="middle" x="286" y="-241.5" font-family="Helvetica,sans-Serif" font-size="10.00">/PI&#45;Defender/K_Configuration.hpp</text>
</a>
</g>
</g>
<!-- Node1&#45;&gt;Node3 -->
<g id="edge2" class="edge">
<title>Node1&#45;&gt;Node3</title>
<path fill="none" stroke="midnightblue" d="M232.6,-305.49C243.24,-295.63 255.11,-284.63 264.95,-275.51"/>
<polygon fill="midnightblue" stroke="midnightblue" points="230.07,-303.06 225.12,-312.43 234.83,-308.2 230.07,-303.06"/>
</g>
<!-- Node4 -->
<g id="node4" class="node">
<title>Node4</title>
<g id="a_node4"><a xlink:href="_k___configuration_8cpp.html" target="_top" xlink:title="Load the configuration of the driver.">
<polygon fill="none" stroke="black" points="0,-156.5 0,-197.5 160,-197.5 160,-156.5 0,-156.5"/>
<text text-anchor="start" x="8" y="-185.5" font-family="Helvetica,sans-Serif" font-size="10.00">C:/Users/Gshoo/Desktop</text>
<text text-anchor="start" x="8" y="-174.5" font-family="Helvetica,sans-Serif" font-size="10.00">/pi&#45;defender&#45;tmp/Sources</text>
<text text-anchor="middle" x="80" y="-163.5" font-family="Helvetica,sans-Serif" font-size="10.00">/PI&#45;Defender/K_Configuration.cpp</text>
</a>
</g>
</g>
<!-- Node3&#45;&gt;Node4 -->
<g id="edge3" class="edge">
<title>Node3&#45;&gt;Node4</title>
<path fill="none" stroke="midnightblue" d="M223.35,-230.89C194.43,-220.22 160.48,-207.69 132.87,-197.51"/>
<polygon fill="midnightblue" stroke="midnightblue" points="222.36,-234.25 232.95,-234.43 224.78,-227.68 222.36,-234.25"/>
</g>
<!-- Node5 -->
<g id="node5" class="node">
<title>Node5</title>
<g id="a_node5"><a xlink:href="_k___driver_8hpp.html" target="_top" xlink:title="Header for K_Driver.cpp.">
<polygon fill="none" stroke="black" points="268,-78.5 268,-119.5 396,-119.5 396,-78.5 268,-78.5"/>
<text text-anchor="start" x="276" y="-107.5" font-family="Helvetica,sans-Serif" font-size="10.00">C:/Users/Gshoo/Desktop</text>
<text text-anchor="start" x="276" y="-96.5" font-family="Helvetica,sans-Serif" font-size="10.00">/pi&#45;defender&#45;tmp/Sources</text>
<text text-anchor="middle" x="332" y="-85.5" font-family="Helvetica,sans-Serif" font-size="10.00">/PI&#45;Defender/K_Driver.hpp</text>
</a>
</g>
</g>
<!-- Node3&#45;&gt;Node5 -->
<g id="edge4" class="edge">
<title>Node3&#45;&gt;Node5</title>
<path fill="none" stroke="midnightblue" d="M301.67,-225.13C305.82,-216.59 309.99,-207.08 313,-198 321.79,-171.52 327.04,-139.58 329.72,-119.53"/>
<polygon fill="midnightblue" stroke="midnightblue" points="298.42,-223.8 297.04,-234.31 304.67,-226.95 298.42,-223.8"/>
</g>
<!-- Node7 -->
<g id="node7" class="node">
<title>Node7</title>
<g id="a_node7"><a xlink:href="_k___filter_8hpp.html" target="_top" xlink:title="Header for K_Filter.cpp.">
<polygon fill="none" stroke="black" points="178.5,-156.5 178.5,-197.5 303.5,-197.5 303.5,-156.5 178.5,-156.5"/>
<text text-anchor="start" x="186.5" y="-185.5" font-family="Helvetica,sans-Serif" font-size="10.00">C:/Users/Gshoo/Desktop</text>
<text text-anchor="start" x="186.5" y="-174.5" font-family="Helvetica,sans-Serif" font-size="10.00">/pi&#45;defender&#45;tmp/Sources</text>
<text text-anchor="middle" x="241" y="-163.5" font-family="Helvetica,sans-Serif" font-size="10.00">/PI&#45;Defender/K_Filter.hpp</text>
</a>
</g>
</g>
<!-- Node3&#45;&gt;Node7 -->
<g id="edge6" class="edge">
<title>Node3&#45;&gt;Node7</title>
<path fill="none" stroke="midnightblue" d="M269.28,-225.76C263.71,-216.35 257.64,-206.1 252.55,-197.51"/>
<polygon fill="midnightblue" stroke="midnightblue" points="266.3,-227.61 274.41,-234.43 272.33,-224.04 266.3,-227.61"/>
</g>
<!-- Node9 -->
<g id="node9" class="node">
<title>Node9</title>
<g id="a_node9"><a xlink:href="_k___ob_callback_8hpp.html" target="_top" xlink:title="Header for K_ObCallback.cpp.">
<polygon fill="none" stroke="black" points="360,-156.5 360,-197.5 514,-197.5 514,-156.5 360,-156.5"/>
<text text-anchor="start" x="368" y="-185.5" font-family="Helvetica,sans-Serif" font-size="10.00">C:/Users/Gshoo/Desktop</text>
<text text-anchor="start" x="368" y="-174.5" font-family="Helvetica,sans-Serif" font-size="10.00">/pi&#45;defender&#45;tmp/Sources</text>
<text text-anchor="middle" x="437" y="-163.5" font-family="Helvetica,sans-Serif" font-size="10.00">/PI&#45;Defender/K_ObCallback.hpp</text>
</a>
</g>
</g>
<!-- Node3&#45;&gt;Node9 -->
<g id="edge9" class="edge">
<title>Node3&#45;&gt;Node9</title>
<path fill="none" stroke="midnightblue" d="M333.87,-229.91C354.63,-219.46 378.63,-207.38 398.25,-197.51"/>
<polygon fill="midnightblue" stroke="midnightblue" points="332.25,-226.81 324.89,-234.43 335.39,-233.06 332.25,-226.81"/>
</g>
<!-- Node6 -->
<g id="node6" class="node">
<title>Node6</title>
<g id="a_node6"><a xlink:href="_k___driver_8cpp.html" target="_top" xlink:title="Entrypoint of the driver, unload routine.">
<polygon fill="none" stroke="black" points="268,-0.5 268,-41.5 396,-41.5 396,-0.5 268,-0.5"/>
<text text-anchor="start" x="276" y="-29.5" font-family="Helvetica,sans-Serif" font-size="10.00">C:/Users/Gshoo/Desktop</text>
<text text-anchor="start" x="276" y="-18.5" font-family="Helvetica,sans-Serif" font-size="10.00">/pi&#45;defender&#45;tmp/Sources</text>
<text text-anchor="middle" x="332" y="-7.5" font-family="Helvetica,sans-Serif" font-size="10.00">/PI&#45;Defender/K_Driver.cpp</text>
</a>
</g>
</g>
<!-- Node5&#45;&gt;Node6 -->
<g id="edge5" class="edge">
<title>Node5&#45;&gt;Node6</title>
<path fill="none" stroke="midnightblue" d="M332,-68.3C332,-59.3 332,-49.65 332,-41.51"/>
<polygon fill="midnightblue" stroke="midnightblue" points="328.5,-68.43 332,-78.43 335.5,-68.43 328.5,-68.43"/>
</g>
<!-- Node7&#45;&gt;Node5 -->
<g id="edge7" class="edge">
<title>Node7&#45;&gt;Node5</title>
<path fill="none" stroke="midnightblue" d="M272.4,-149.78C284.29,-139.84 297.62,-128.72 308.64,-119.51"/>
<polygon fill="midnightblue" stroke="midnightblue" points="269.87,-147.33 264.43,-156.43 274.35,-152.7 269.87,-147.33"/>
</g>
<!-- Node8 -->
<g id="node8" class="node">
<title>Node8</title>
<g id="a_node8"><a xlink:href="_k___filter_8cpp.html" target="_top" xlink:title="Initialize filter object used by the communication.">
<polygon fill="none" stroke="black" points="124.5,-78.5 124.5,-119.5 249.5,-119.5 249.5,-78.5 124.5,-78.5"/>
<text text-anchor="start" x="132.5" y="-107.5" font-family="Helvetica,sans-Serif" font-size="10.00">C:/Users/Gshoo/Desktop</text>
<text text-anchor="start" x="132.5" y="-96.5" font-family="Helvetica,sans-Serif" font-size="10.00">/pi&#45;defender&#45;tmp/Sources</text>
<text text-anchor="middle" x="187" y="-85.5" font-family="Helvetica,sans-Serif" font-size="10.00">/PI&#45;Defender/K_Filter.cpp</text>
</a>
</g>
</g>
<!-- Node7&#45;&gt;Node8 -->
<g id="edge8" class="edge">
<title>Node7&#45;&gt;Node8</title>
<path fill="none" stroke="midnightblue" d="M221.14,-148.05C214.4,-138.57 207.03,-128.18 200.86,-119.51"/>
<polygon fill="midnightblue" stroke="midnightblue" points="218.45,-150.3 227.09,-156.43 224.15,-146.25 218.45,-150.3"/>
</g>
<!-- Node9&#45;&gt;Node5 -->
<g id="edge10" class="edge">
<title>Node9&#45;&gt;Node5</title>
<path fill="none" stroke="midnightblue" d="M401.56,-150.35C387.64,-140.27 371.92,-128.89 358.95,-119.51"/>
<polygon fill="midnightblue" stroke="midnightblue" points="399.81,-153.4 409.96,-156.43 403.91,-147.73 399.81,-153.4"/>
</g>
<!-- Node10 -->
<g id="node10" class="node">
<title>Node10</title>
<g id="a_node10"><a xlink:href="_k___ob_callback_8cpp.html" target="_top" xlink:title="Handle request callback.">
<polygon fill="none" stroke="black" points="414,-78.5 414,-119.5 568,-119.5 568,-78.5 414,-78.5"/>
<text text-anchor="start" x="422" y="-107.5" font-family="Helvetica,sans-Serif" font-size="10.00">C:/Users/Gshoo/Desktop</text>
<text text-anchor="start" x="422" y="-96.5" font-family="Helvetica,sans-Serif" font-size="10.00">/pi&#45;defender&#45;tmp/Sources</text>
<text text-anchor="middle" x="491" y="-85.5" font-family="Helvetica,sans-Serif" font-size="10.00">/PI&#45;Defender/K_ObCallback.cpp</text>
</a>
</g>
</g>
<!-- Node9&#45;&gt;Node10 -->
<g id="edge11" class="edge">
<title>Node9&#45;&gt;Node10</title>
<path fill="none" stroke="midnightblue" d="M456.86,-148.05C463.6,-138.57 470.97,-128.18 477.14,-119.51"/>
<polygon fill="midnightblue" stroke="midnightblue" points="453.85,-146.25 450.91,-156.43 459.55,-150.3 453.85,-146.25"/>
</g>
</g>
</svg>
