<?xml version="1.0" encoding="UTF-8" standalone="no"?>
<!DOCTYPE svg PUBLIC "-//W3C//DTD SVG 1.1//EN"
 "http://www.w3.org/Graphics/SVG/1.1/DTD/svg11.dtd">
<!-- Generated by graphviz version 5.0.0 (20220707.1540)
 -->
<!-- Title: K_Configuration.cpp Pages: 1 -->
<svg width="531pt" height="308pt"
 viewBox="0.00 0.00 530.50 308.00" xmlns="http://www.w3.org/2000/svg" xmlns:xlink="http://www.w3.org/1999/xlink">
<g id="graph0" class="graph" transform="scale(1 1) rotate(0) translate(4 304)">
<title>K_Configuration.cpp</title>
<!-- Node1 -->
<g id="node1" class="node">
<title>Node1</title>
<g id="a_node1"><a xlink:title="Load the configuration of the driver.">
<polygon fill="#bfbfbf" stroke="black" points="242.5,-280.5 242.5,-299.5 346.5,-299.5 346.5,-280.5 242.5,-280.5"/>
<text text-anchor="middle" x="294.5" y="-287.5" font-family="Helvetica,sans-Serif" font-size="10.00">K_Configuration.cpp</text>
</a>
</g>
</g>
<!-- Node2 -->
<g id="node2" class="node">
<title>Node2</title>
<g id="a_node2"><a xlink:href="_k___configuration_8hpp.html" target="_top" xlink:title="Header for K_Configuration.cpp.">
<polygon fill="none" stroke="black" points="181.5,-224.5 181.5,-243.5 285.5,-243.5 285.5,-224.5 181.5,-224.5"/>
<text text-anchor="middle" x="233.5" y="-231.5" font-family="Helvetica,sans-Serif" font-size="10.00">K_Configuration.hpp</text>
</a>
</g>
</g>
<!-- Node1&#45;&gt;Node2 -->
<g id="edge1" class="edge">
<title>Node1&#45;&gt;Node2</title>
<path fill="none" stroke="midnightblue" d="M284.7,-280.32C275.68,-272.34 262.09,-260.31 251.18,-250.65"/>
<polygon fill="midnightblue" stroke="midnightblue" points="253.29,-247.84 243.48,-243.83 248.65,-253.08 253.29,-247.84"/>
</g>
<!-- Node14 -->
<g id="node14" class="node">
<title>Node14</title>
<g id="a_node14"><a xlink:title=" ">
<polygon fill="none" stroke="#bfbfbf" points="303.5,-224.5 303.5,-243.5 407.5,-243.5 407.5,-224.5 303.5,-224.5"/>
<text text-anchor="middle" x="355.5" y="-231.5" font-family="Helvetica,sans-Serif" font-size="10.00">K_Configuration.tmh</text>
</a>
</g>
</g>
<!-- Node1&#45;&gt;Node14 -->
<g id="edge16" class="edge">
<title>Node1&#45;&gt;Node14</title>
<path fill="none" stroke="midnightblue" d="M304.3,-280.32C313.32,-272.34 326.91,-260.31 337.82,-250.65"/>
<polygon fill="midnightblue" stroke="midnightblue" points="340.35,-253.08 345.52,-243.83 335.71,-247.84 340.35,-253.08"/>
</g>
<!-- Node3 -->
<g id="node3" class="node">
<title>Node3</title>
<g id="a_node3"><a xlink:href="_k___global_header_8hpp.html" target="_top" xlink:title="Header used by several .cpp files.">
<polygon fill="none" stroke="black" points="180.5,-112.5 180.5,-131.5 286.5,-131.5 286.5,-112.5 180.5,-112.5"/>
<text text-anchor="middle" x="233.5" y="-119.5" font-family="Helvetica,sans-Serif" font-size="10.00">K_GlobalHeader.hpp</text>
</a>
</g>
</g>
<!-- Node2&#45;&gt;Node3 -->
<g id="edge2" class="edge">
<title>Node2&#45;&gt;Node3</title>
<path fill="none" stroke="midnightblue" d="M219.49,-224.33C202.41,-212.56 176.93,-190.41 186.5,-168 191.65,-155.95 201.78,-145.58 211.33,-137.84"/>
<polygon fill="midnightblue" stroke="midnightblue" points="213.54,-140.55 219.42,-131.74 209.33,-134.96 213.54,-140.55"/>
</g>
<!-- Node12 -->
<g id="node12" class="node">
<title>Node12</title>
<g id="a_node12"><a xlink:href="_k___cache_8hpp.html" target="_top" xlink:title="Header for K_Cache.cpp.">
<polygon fill="none" stroke="black" points="196,-168.5 196,-187.5 271,-187.5 271,-168.5 196,-168.5"/>
<text text-anchor="middle" x="233.5" y="-175.5" font-family="Helvetica,sans-Serif" font-size="10.00">K_Cache.hpp</text>
</a>
</g>
</g>
<!-- Node2&#45;&gt;Node12 -->
<g id="edge12" class="edge">
<title>Node2&#45;&gt;Node12</title>
<path fill="none" stroke="midnightblue" d="M233.5,-224.08C233.5,-217.01 233.5,-206.86 233.5,-197.99"/>
<polygon fill="midnightblue" stroke="midnightblue" points="237,-197.75 233.5,-187.75 230,-197.75 237,-197.75"/>
</g>
<!-- Node13 -->
<g id="node13" class="node">
<title>Node13</title>
<g id="a_node13"><a xlink:href="_k___whitelist_8hpp.html" target="_top" xlink:title="Header for K_Whitelist.cpp.">
<polygon fill="none" stroke="black" points="289.5,-168.5 289.5,-187.5 375.5,-187.5 375.5,-168.5 289.5,-168.5"/>
<text text-anchor="middle" x="332.5" y="-175.5" font-family="Helvetica,sans-Serif" font-size="10.00">K_Whitelist.hpp</text>
</a>
</g>
</g>
<!-- Node2&#45;&gt;Node13 -->
<g id="edge14" class="edge">
<title>Node2&#45;&gt;Node13</title>
<path fill="none" stroke="midnightblue" d="M249.41,-224.32C265.14,-215.74 289.44,-202.49 307.71,-192.52"/>
<polygon fill="midnightblue" stroke="midnightblue" points="309.53,-195.52 316.63,-187.65 306.18,-189.37 309.53,-195.52"/>
</g>
<!-- Node4 -->
<g id="node4" class="node">
<title>Node4</title>
<g id="a_node4"><a xlink:title=" ">
<polygon fill="none" stroke="#bfbfbf" points="0,-56.5 0,-75.5 43,-75.5 43,-56.5 0,-56.5"/>
<text text-anchor="middle" x="21.5" y="-63.5" font-family="Helvetica,sans-Serif" font-size="10.00">ntifs.h</text>
</a>
</g>
</g>
<!-- Node3&#45;&gt;Node4 -->
<g id="edge3" class="edge">
<title>Node3&#45;&gt;Node4</title>
<path fill="none" stroke="midnightblue" d="M196.76,-112.48C161.99,-104.28 108.12,-91.27 53.03,-76.33"/>
<polygon fill="midnightblue" stroke="midnightblue" points="53.66,-72.87 43.09,-73.62 51.82,-79.63 53.66,-72.87"/>
</g>
<!-- Node5 -->
<g id="node5" class="node">
<title>Node5</title>
<g id="a_node5"><a xlink:title=" ">
<polygon fill="none" stroke="#bfbfbf" points="61,-56.5 61,-75.5 106,-75.5 106,-56.5 61,-56.5"/>
<text text-anchor="middle" x="83.5" y="-63.5" font-family="Helvetica,sans-Serif" font-size="10.00">wdm.h</text>
</a>
</g>
</g>
<!-- Node3&#45;&gt;Node5 -->
<g id="edge4" class="edge">
<title>Node3&#45;&gt;Node5</title>
<path fill="none" stroke="midnightblue" d="M209.73,-112.44C184.31,-103.29 143.85,-88.73 115.61,-78.56"/>
<polygon fill="midnightblue" stroke="midnightblue" points="116.77,-75.26 106.17,-75.16 114.4,-81.84 116.77,-75.26"/>
</g>
<!-- Node6 -->
<g id="node6" class="node">
<title>Node6</title>
<g id="a_node6"><a xlink:title=" ">
<polygon fill="none" stroke="#bfbfbf" points="124.5,-56.5 124.5,-75.5 184.5,-75.5 184.5,-56.5 124.5,-56.5"/>
<text text-anchor="middle" x="154.5" y="-63.5" font-family="Helvetica,sans-Serif" font-size="10.00">fltKernel.h</text>
</a>
</g>
</g>
<!-- Node3&#45;&gt;Node6 -->
<g id="edge5" class="edge">
<title>Node3&#45;&gt;Node6</title>
<path fill="none" stroke="midnightblue" d="M220.81,-112.32C208.6,-103.98 189.92,-91.21 175.5,-81.35"/>
<polygon fill="midnightblue" stroke="midnightblue" points="177.39,-78.41 167.16,-75.65 173.44,-84.19 177.39,-78.41"/>
</g>
<!-- Node7 -->
<g id="node7" class="node">
<title>Node7</title>
<g id="a_node7"><a xlink:title=" ">
<polygon fill="none" stroke="#bfbfbf" points="202.5,-56.5 202.5,-75.5 264.5,-75.5 264.5,-56.5 202.5,-56.5"/>
<text text-anchor="middle" x="233.5" y="-63.5" font-family="Helvetica,sans-Serif" font-size="10.00">ntstrsafe.h</text>
</a>
</g>
</g>
<!-- Node3&#45;&gt;Node7 -->
<g id="edge6" class="edge">
<title>Node3&#45;&gt;Node7</title>
<path fill="none" stroke="midnightblue" d="M233.5,-112.08C233.5,-105.01 233.5,-94.86 233.5,-85.99"/>
<polygon fill="midnightblue" stroke="midnightblue" points="237,-85.75 233.5,-75.75 230,-85.75 237,-85.75"/>
</g>
<!-- Node8 -->
<g id="node8" class="node">
<title>Node8</title>
<g id="a_node8"><a xlink:href="_k___wpp_tracing_8hpp.html" target="_top" xlink:title="WppTracing header.">
<polygon fill="none" stroke="black" points="283,-56.5 283,-75.5 382,-75.5 382,-56.5 283,-56.5"/>
<text text-anchor="middle" x="332.5" y="-63.5" font-family="Helvetica,sans-Serif" font-size="10.00">K_WppTracing.hpp</text>
</a>
</g>
</g>
<!-- Node3&#45;&gt;Node8 -->
<g id="edge7" class="edge">
<title>Node3&#45;&gt;Node8</title>
<path fill="none" stroke="midnightblue" d="M249.41,-112.32C265.14,-103.74 289.44,-90.49 307.71,-80.52"/>
<polygon fill="midnightblue" stroke="midnightblue" points="309.53,-83.52 316.63,-75.65 306.18,-77.37 309.53,-83.52"/>
</g>
<!-- Node9 -->
<g id="node9" class="node">
<title>Node9</title>
<g id="a_node9"><a xlink:href="_k___helper_8hpp.html" target="_top" xlink:title="Header for K_Helper.cpp.">
<polygon fill="none" stroke="black" points="400,-56.5 400,-75.5 475,-75.5 475,-56.5 400,-56.5"/>
<text text-anchor="middle" x="437.5" y="-63.5" font-family="Helvetica,sans-Serif" font-size="10.00">K_Helper.hpp</text>
</a>
</g>
</g>
<!-- Node3&#45;&gt;Node9 -->
<g id="edge8" class="edge">
<title>Node3&#45;&gt;Node9</title>
<path fill="none" stroke="midnightblue" d="M260.74,-112.44C293.91,-103.12 350.19,-88.18 390.39,-78"/>
<polygon fill="midnightblue" stroke="midnightblue" points="391.4,-81.35 400.25,-75.52 389.69,-74.56 391.4,-81.35"/>
</g>
<!-- Node9&#45;&gt;Node3 -->
<g id="edge9" class="edge">
<title>Node9&#45;&gt;Node3</title>
<path fill="none" stroke="midnightblue" d="M410.41,-75.52C377.3,-84.82 321.03,-99.76 280.78,-109.96"/>
<polygon fill="midnightblue" stroke="midnightblue" points="279.76,-106.61 270.91,-112.44 281.47,-113.4 279.76,-106.61"/>
</g>
<!-- Node10 -->
<g id="node10" class="node">
<title>Node10</title>
<g id="a_node10"><a xlink:href="_shared_defs_8hpp.html" target="_top" xlink:title="Header file which contains the structures, type definitions, constants, global variablesand function ...">
<polygon fill="none" stroke="black" points="304.5,-0.5 304.5,-19.5 452.5,-19.5 452.5,-0.5 304.5,-0.5"/>
<text text-anchor="middle" x="378.5" y="-7.5" font-family="Helvetica,sans-Serif" font-size="10.00">../SharedDefs/SharedDefs.hpp</text>
</a>
</g>
</g>
<!-- Node9&#45;&gt;Node10 -->
<g id="edge10" class="edge">
<title>Node9&#45;&gt;Node10</title>
<path fill="none" stroke="midnightblue" d="M428.02,-56.32C419.3,-48.34 406.16,-36.31 395.6,-26.65"/>
<polygon fill="midnightblue" stroke="midnightblue" points="397.89,-24 388.15,-19.83 393.17,-29.17 397.89,-24"/>
</g>
<!-- Node11 -->
<g id="node11" class="node">
<title>Node11</title>
<g id="a_node11"><a xlink:title=" ">
<polygon fill="none" stroke="#bfbfbf" points="470.5,-0.5 470.5,-19.5 522.5,-19.5 522.5,-0.5 470.5,-0.5"/>
<text text-anchor="middle" x="496.5" y="-7.5" font-family="Helvetica,sans-Serif" font-size="10.00">bcrypt.h</text>
</a>
</g>
</g>
<!-- Node9&#45;&gt;Node11 -->
<g id="edge11" class="edge">
<title>Node9&#45;&gt;Node11</title>
<path fill="none" stroke="midnightblue" d="M446.98,-56.32C455.7,-48.34 468.84,-36.31 479.4,-26.65"/>
<polygon fill="midnightblue" stroke="midnightblue" points="481.83,-29.17 486.85,-19.83 477.11,-24 481.83,-29.17"/>
</g>
<!-- Node12&#45;&gt;Node3 -->
<g id="edge13" class="edge">
<title>Node12&#45;&gt;Node3</title>
<path fill="none" stroke="midnightblue" d="M233.5,-168.08C233.5,-161.01 233.5,-150.86 233.5,-141.99"/>
<polygon fill="midnightblue" stroke="midnightblue" points="237,-141.75 233.5,-131.75 230,-141.75 237,-141.75"/>
</g>
<!-- Node13&#45;&gt;Node3 -->
<g id="edge15" class="edge">
<title>Node13&#45;&gt;Node3</title>
<path fill="none" stroke="midnightblue" d="M316.59,-168.32C300.86,-159.74 276.56,-146.49 258.29,-136.52"/>
<polygon fill="midnightblue" stroke="midnightblue" points="259.82,-133.37 249.37,-131.65 256.47,-139.52 259.82,-133.37"/>
</g>
</g>
</svg>
