<?xml version="1.0" encoding="UTF-8" standalone="no"?>
<!DOCTYPE svg PUBLIC "-//W3C//DTD SVG 1.1//EN"
 "http://www.w3.org/Graphics/SVG/1.1/DTD/svg11.dtd">
<!-- Generated by graphviz version 5.0.0 (20220707.1540)
 -->
<!-- Title: C:/Users/Gshoo/Desktop/pi&#45;defender&#45;tmp/Sources/PI&#45;Defender/K_Helper.hpp Pages: 1 -->
<!--zoomable 518 -->
<svg id="main" version="1.1" xmlns="http://www.w3.org/2000/svg" xmlns:xlink="http://www.w3.org/1999/xlink" xml:space="preserve" onload="init(evt)">
<style type="text/css"><![CDATA[
.edge:hover path { stroke: red; }
.edge:hover polygon { stroke: red; fill: red; }
]]></style>
<script type="text/javascript"><![CDATA[
var edges = document.getElementsByTagName('g');
if (edges && edges.length) {
  for (var i=0;i<edges.length;i++) {
    if (edges[i].id.substr(0,4)=='edge') {
      edges[i].setAttribute('class','edge');
    }
  }
}
]]></script>
        <defs>
                <circle id="rim" cx="0" cy="0" r="7"/>
                <circle id="rim2" cx="0" cy="0" r="3.5"/>
                <g id="zoomPlus">
                        <use xlink:href="#rim" fill="#404040">
                                <set attributeName="fill" to="#808080" begin="zoomplus.mouseover" end="zoomplus.mouseout"/>
                        </use>
                        <path d="M-4,0h8M0,-4v8" fill="none" stroke="white" stroke-width="1.5" pointer-events="none"/>
                </g>
                <g id="zoomMin">
                        <use xlink:href="#rim" fill="#404040">
                                <set attributeName="fill" to="#808080" begin="zoomminus.mouseover" end="zoomminus.mouseout"/>
                        </use>
                        <path d="M-4,0h8" fill="none" stroke="white" stroke-width="1.5" pointer-events="none"/>
                </g>
                <g id="dirArrow">
                        <path fill="none" stroke="white" stroke-width="1.5" d="M0,-3.0v7 M-2.5,-0.5L0,-3.0L2.5,-0.5"/>
                </g>
               <g id="resetDef">
                       <use xlink:href="#rim2" fill="#404040">
                               <set attributeName="fill" to="#808080" begin="reset.mouseover" end="reset.mouseout"/>
                       </use>
               </g>
        </defs>

<script type="text/javascript">
var viewWidth = 964;
var viewHeight = 518;
var sectionId = 'dynsection-1';
</script>
<script xlink:href="svgpan.js"/>
<svg id="graph" class="graph">
<g id="viewport">
<title>C:/Users/Gshoo/Desktop/pi&#45;defender&#45;tmp/Sources/PI&#45;Defender/K_Helper.hpp</title>
<!-- Node1 -->
<g id="node1" class="node">
<title>Node1</title>
<g id="a_node1"><a xlink:title="Header for K_Helper.cpp.">
<polygon fill="#bfbfbf" stroke="black" points="440.43,-468.5 440.43,-509.5 571.43,-509.5 571.43,-468.5 440.43,-468.5"/>
<text text-anchor="start" x="448.43" y="-497.5" font-family="Helvetica,sans-Serif" font-size="10.00">C:/Users/Gshoo/Desktop</text>
<text text-anchor="start" x="448.43" y="-486.5" font-family="Helvetica,sans-Serif" font-size="10.00">/pi&#45;defender&#45;tmp/Sources</text>
<text text-anchor="middle" x="505.93" y="-475.5" font-family="Helvetica,sans-Serif" font-size="10.00">/PI&#45;Defender/K_Helper.hpp</text>
</a>
</g>
</g>
<!-- Node2 -->
<g id="node2" class="node">
<title>Node2</title>
<g id="a_node2"><a xlink:href="_k___filter_8hpp.html" target="_top" xlink:title="Header for K_Filter.cpp.">
<polygon fill="none" stroke="black" points="62.43,-156.5 62.43,-197.5 187.43,-197.5 187.43,-156.5 62.43,-156.5"/>
<text text-anchor="start" x="70.43" y="-185.5" font-family="Helvetica,sans-Serif" font-size="10.00">C:/Users/Gshoo/Desktop</text>
<text text-anchor="start" x="70.43" y="-174.5" font-family="Helvetica,sans-Serif" font-size="10.00">/pi&#45;defender&#45;tmp/Sources</text>
<text text-anchor="middle" x="124.93" y="-163.5" font-family="Helvetica,sans-Serif" font-size="10.00">/PI&#45;Defender/K_Filter.hpp</text>
</a>
</g>
</g>
<!-- Node1&#45;&gt;Node2 -->
<g id="edge1" class="edge">
<title>Node1&#45;&gt;Node2</title>
<path fill="none" stroke="midnightblue" d="M429.93,-483.83C332.08,-474.74 161.63,-445.85 51.93,-354 8.94,-318 -16.55,-281.7 12.93,-234 24.13,-215.88 43.17,-203.42 62.41,-194.95"/>
<polygon fill="midnightblue" stroke="midnightblue" points="429.77,-487.33 440.04,-484.72 430.39,-480.36 429.77,-487.33"/>
</g>
<!-- Node6 -->
<g id="node6" class="node">
<title>Node6</title>
<g id="a_node6"><a xlink:href="_k___global_header_8hpp.html" target="_top" xlink:title="Header used by several .cpp files.">
<polygon fill="none" stroke="black" points="424.93,-390.5 424.93,-431.5 586.93,-431.5 586.93,-390.5 424.93,-390.5"/>
<text text-anchor="start" x="432.93" y="-419.5" font-family="Helvetica,sans-Serif" font-size="10.00">C:/Users/Gshoo/Desktop</text>
<text text-anchor="start" x="432.93" y="-408.5" font-family="Helvetica,sans-Serif" font-size="10.00">/pi&#45;defender&#45;tmp/Sources</text>
<text text-anchor="middle" x="505.93" y="-397.5" font-family="Helvetica,sans-Serif" font-size="10.00">/PI&#45;Defender/K_GlobalHeader.hpp</text>
</a>
</g>
</g>
<!-- Node1&#45;&gt;Node6 -->
<g id="edge5" class="edge">
<title>Node1&#45;&gt;Node6</title>
<path fill="none" stroke="midnightblue" d="M499.33,-458.3C499.01,-449.3 499.22,-439.65 499.95,-431.51"/>
<polygon fill="midnightblue" stroke="midnightblue" points="495.84,-458.66 499.94,-468.43 502.83,-458.23 495.84,-458.66"/>
</g>
<!-- Node11 -->
<g id="node11" class="node">
<title>Node11</title>
<g id="a_node11"><a xlink:href="_k___ob_callback_8hpp.html" target="_top" xlink:title="Header for K_ObCallback.cpp.">
<polygon fill="none" stroke="black" points="719.93,-156.5 719.93,-197.5 873.93,-197.5 873.93,-156.5 719.93,-156.5"/>
<text text-anchor="start" x="727.93" y="-185.5" font-family="Helvetica,sans-Serif" font-size="10.00">C:/Users/Gshoo/Desktop</text>
<text text-anchor="start" x="727.93" y="-174.5" font-family="Helvetica,sans-Serif" font-size="10.00">/pi&#45;defender&#45;tmp/Sources</text>
<text text-anchor="middle" x="796.93" y="-163.5" font-family="Helvetica,sans-Serif" font-size="10.00">/PI&#45;Defender/K_ObCallback.hpp</text>
</a>
</g>
</g>
<!-- Node1&#45;&gt;Node11 -->
<g id="edge28" class="edge">
<title>Node1&#45;&gt;Node11</title>
<path fill="none" stroke="midnightblue" d="M581.15,-465.31C637.27,-444.73 711.9,-409.08 757.93,-354 796.16,-308.25 799.09,-233.13 798.09,-197.68"/>
<polygon fill="midnightblue" stroke="midnightblue" points="579.83,-462.06 571.6,-468.73 582.19,-468.65 579.83,-462.06"/>
</g>
<!-- Node17 -->
<g id="node17" class="node">
<title>Node17</title>
<g id="a_node17"><a xlink:href="_k___helper_8cpp.html" target="_top" xlink:title="Help functions used by several .cpp files.">
<polygon fill="none" stroke="black" points="825.43,-390.5 825.43,-431.5 956.43,-431.5 956.43,-390.5 825.43,-390.5"/>
<text text-anchor="start" x="833.43" y="-419.5" font-family="Helvetica,sans-Serif" font-size="10.00">C:/Users/Gshoo/Desktop</text>
<text text-anchor="start" x="833.43" y="-408.5" font-family="Helvetica,sans-Serif" font-size="10.00">/pi&#45;defender&#45;tmp/Sources</text>
<text text-anchor="middle" x="890.93" y="-397.5" font-family="Helvetica,sans-Serif" font-size="10.00">/PI&#45;Defender/K_Helper.cpp</text>
</a>
</g>
</g>
<!-- Node1&#45;&gt;Node17 -->
<g id="edge27" class="edge">
<title>Node1&#45;&gt;Node17</title>
<path fill="none" stroke="midnightblue" d="M581.69,-475.47C643.56,-464.9 733.18,-448.84 810.93,-432 815.55,-431 820.31,-429.93 825.09,-428.81"/>
<polygon fill="midnightblue" stroke="midnightblue" points="580.89,-472.05 571.62,-477.18 582.06,-478.95 580.89,-472.05"/>
</g>
<!-- Node3 -->
<g id="node3" class="node">
<title>Node3</title>
<g id="a_node3"><a xlink:href="_k___driver_8hpp.html" target="_top" xlink:title="Header for K_Driver.cpp.">
<polygon fill="none" stroke="black" points="463.93,-78.5 463.93,-119.5 591.93,-119.5 591.93,-78.5 463.93,-78.5"/>
<text text-anchor="start" x="471.93" y="-107.5" font-family="Helvetica,sans-Serif" font-size="10.00">C:/Users/Gshoo/Desktop</text>
<text text-anchor="start" x="471.93" y="-96.5" font-family="Helvetica,sans-Serif" font-size="10.00">/pi&#45;defender&#45;tmp/Sources</text>
<text text-anchor="middle" x="527.93" y="-85.5" font-family="Helvetica,sans-Serif" font-size="10.00">/PI&#45;Defender/K_Driver.hpp</text>
</a>
</g>
</g>
<!-- Node2&#45;&gt;Node3 -->
<g id="edge2" class="edge">
<title>Node2&#45;&gt;Node3</title>
<path fill="none" stroke="midnightblue" d="M197.48,-155.99C295.86,-134.41 398.98,-118.23 463.79,-108.84"/>
<polygon fill="midnightblue" stroke="midnightblue" points="196.67,-152.58 187.67,-158.16 198.19,-159.42 196.67,-152.58"/>
</g>
<!-- Node5 -->
<g id="node5" class="node">
<title>Node5</title>
<g id="a_node5"><a xlink:href="_k___filter_8cpp.html" target="_top" xlink:title="Initialize filter object used by the communication.">
<polygon fill="none" stroke="black" points="62.43,-78.5 62.43,-119.5 187.43,-119.5 187.43,-78.5 62.43,-78.5"/>
<text text-anchor="start" x="70.43" y="-107.5" font-family="Helvetica,sans-Serif" font-size="10.00">C:/Users/Gshoo/Desktop</text>
<text text-anchor="start" x="70.43" y="-96.5" font-family="Helvetica,sans-Serif" font-size="10.00">/pi&#45;defender&#45;tmp/Sources</text>
<text text-anchor="middle" x="124.93" y="-85.5" font-family="Helvetica,sans-Serif" font-size="10.00">/PI&#45;Defender/K_Filter.cpp</text>
</a>
</g>
</g>
<!-- Node2&#45;&gt;Node5 -->
<g id="edge4" class="edge">
<title>Node2&#45;&gt;Node5</title>
<path fill="none" stroke="midnightblue" d="M124.93,-146.3C124.93,-137.3 124.93,-127.65 124.93,-119.51"/>
<polygon fill="midnightblue" stroke="midnightblue" points="121.43,-146.43 124.93,-156.43 128.43,-146.43 121.43,-146.43"/>
</g>
<!-- Node4 -->
<g id="node4" class="node">
<title>Node4</title>
<g id="a_node4"><a xlink:href="_k___driver_8cpp.html" target="_top" xlink:title="Entrypoint of the driver, unload routine.">
<polygon fill="none" stroke="black" points="463.93,-0.5 463.93,-41.5 591.93,-41.5 591.93,-0.5 463.93,-0.5"/>
<text text-anchor="start" x="471.93" y="-29.5" font-family="Helvetica,sans-Serif" font-size="10.00">C:/Users/Gshoo/Desktop</text>
<text text-anchor="start" x="471.93" y="-18.5" font-family="Helvetica,sans-Serif" font-size="10.00">/pi&#45;defender&#45;tmp/Sources</text>
<text text-anchor="middle" x="527.93" y="-7.5" font-family="Helvetica,sans-Serif" font-size="10.00">/PI&#45;Defender/K_Driver.cpp</text>
</a>
</g>
</g>
<!-- Node3&#45;&gt;Node4 -->
<g id="edge3" class="edge">
<title>Node3&#45;&gt;Node4</title>
<path fill="none" stroke="midnightblue" d="M527.93,-68.3C527.93,-59.3 527.93,-49.65 527.93,-41.51"/>
<polygon fill="midnightblue" stroke="midnightblue" points="524.43,-68.43 527.93,-78.43 531.43,-68.43 524.43,-68.43"/>
</g>
<!-- Node6&#45;&gt;Node1 -->
<g id="edge22" class="edge">
<title>Node6&#45;&gt;Node1</title>
<path fill="none" stroke="midnightblue" d="M512.54,-441.63C512.86,-450.62 512.65,-460.27 511.92,-468.43"/>
<polygon fill="midnightblue" stroke="midnightblue" points="516.02,-441.27 511.92,-431.51 509.03,-441.7 516.02,-441.27"/>
</g>
<!-- Node6&#45;&gt;Node2 -->
<g id="edge21" class="edge">
<title>Node6&#45;&gt;Node2</title>
<path fill="none" stroke="midnightblue" d="M414.76,-402.1C347.46,-394.47 254.34,-380.08 175.93,-354 103.88,-330.03 63.51,-340.8 23.93,-276 14.2,-260.07 14.46,-250.08 23.93,-234 33.45,-217.85 49.48,-206.02 66.01,-197.52"/>
<polygon fill="midnightblue" stroke="midnightblue" points="414.59,-405.6 424.92,-403.22 415.36,-398.65 414.59,-405.6"/>
</g>
<!-- Node6&#45;&gt;Node3 -->
<g id="edge20" class="edge">
<title>Node6&#45;&gt;Node3</title>
<path fill="none" stroke="midnightblue" d="M568.34,-386.29C614.47,-365.07 673.95,-329.03 701.93,-276 727.54,-227.47 711.49,-195.04 672.93,-156 651.22,-134.01 619.93,-120.49 591.96,-112.26"/>
<polygon fill="midnightblue" stroke="midnightblue" points="566.7,-383.19 559.01,-390.47 569.56,-389.58 566.7,-383.19"/>
</g>
<!-- Node7 -->
<g id="node7" class="node">
<title>Node7</title>
<g id="a_node7"><a xlink:href="_k___cache_8hpp.html" target="_top" xlink:title="Header for K_Cache.cpp.">
<polygon fill="none" stroke="black" points="185.43,-312.5 185.43,-353.5 316.43,-353.5 316.43,-312.5 185.43,-312.5"/>
<text text-anchor="start" x="193.43" y="-341.5" font-family="Helvetica,sans-Serif" font-size="10.00">C:/Users/Gshoo/Desktop</text>
<text text-anchor="start" x="193.43" y="-330.5" font-family="Helvetica,sans-Serif" font-size="10.00">/pi&#45;defender&#45;tmp/Sources</text>
<text text-anchor="middle" x="250.93" y="-319.5" font-family="Helvetica,sans-Serif" font-size="10.00">/PI&#45;Defender/K_Cache.hpp</text>
</a>
</g>
</g>
<!-- Node6&#45;&gt;Node7 -->
<g id="edge6" class="edge">
<title>Node6&#45;&gt;Node7</title>
<path fill="none" stroke="midnightblue" d="M430.25,-387.44C394.05,-376.66 351.15,-363.87 316.38,-353.51"/>
<polygon fill="midnightblue" stroke="midnightblue" points="429.68,-390.93 440.26,-390.43 431.68,-384.22 429.68,-390.93"/>
</g>
<!-- Node9 -->
<g id="node9" class="node">
<title>Node9</title>
<g id="a_node9"><a xlink:href="_k___configuration_8hpp.html" target="_top" xlink:title="Header for K_Configuration.cpp.">
<polygon fill="none" stroke="black" points="182.93,-234.5 182.93,-275.5 342.93,-275.5 342.93,-234.5 182.93,-234.5"/>
<text text-anchor="start" x="190.93" y="-263.5" font-family="Helvetica,sans-Serif" font-size="10.00">C:/Users/Gshoo/Desktop</text>
<text text-anchor="start" x="190.93" y="-252.5" font-family="Helvetica,sans-Serif" font-size="10.00">/pi&#45;defender&#45;tmp/Sources</text>
<text text-anchor="middle" x="262.93" y="-241.5" font-family="Helvetica,sans-Serif" font-size="10.00">/PI&#45;Defender/K_Configuration.hpp</text>
</a>
</g>
</g>
<!-- Node6&#45;&gt;Node9 -->
<g id="edge19" class="edge">
<title>Node6&#45;&gt;Node9</title>
<path fill="none" stroke="midnightblue" d="M429.18,-386.9C407.09,-378.39 383.66,-367.47 363.93,-354 342.9,-339.64 343.07,-329.89 324.93,-312 312.33,-299.57 297.66,-286.27 285.76,-275.75"/>
<polygon fill="midnightblue" stroke="midnightblue" points="427.96,-390.18 438.55,-390.39 430.41,-383.62 427.96,-390.18"/>
</g>
<!-- Node6&#45;&gt;Node11 -->
<g id="edge23" class="edge">
<title>Node6&#45;&gt;Node11</title>
<path fill="none" stroke="midnightblue" d="M597.22,-396.74C651.81,-387.12 714.44,-372.56 734.93,-354 746.97,-343.1 778.18,-241.31 791.15,-197.69"/>
<polygon fill="midnightblue" stroke="midnightblue" points="596.39,-393.33 587.13,-398.48 597.58,-400.23 596.39,-393.33"/>
</g>
<!-- Node13 -->
<g id="node13" class="node">
<title>Node13</title>
<g id="a_node13"><a xlink:href="_k___communication_8hpp.html" target="_top" xlink:title="Header for K_Communication.cpp.">
<polygon fill="none" stroke="black" points="521.43,-234.5 521.43,-275.5 692.43,-275.5 692.43,-234.5 521.43,-234.5"/>
<text text-anchor="start" x="529.43" y="-263.5" font-family="Helvetica,sans-Serif" font-size="10.00">C:/Users/Gshoo/Desktop</text>
<text text-anchor="start" x="529.43" y="-252.5" font-family="Helvetica,sans-Serif" font-size="10.00">/pi&#45;defender&#45;tmp/Sources</text>
<text text-anchor="middle" x="606.93" y="-241.5" font-family="Helvetica,sans-Serif" font-size="10.00">/PI&#45;Defender/K_Communication.hpp</text>
</a>
</g>
</g>
<!-- Node6&#45;&gt;Node13 -->
<g id="edge15" class="edge">
<title>Node6&#45;&gt;Node13</title>
<path fill="none" stroke="midnightblue" d="M524.32,-381.96C544.46,-351.26 576.23,-302.82 593.93,-275.83"/>
<polygon fill="midnightblue" stroke="midnightblue" points="521.28,-380.21 518.72,-390.5 527.14,-384.05 521.28,-380.21"/>
</g>
<!-- Node15 -->
<g id="node15" class="node">
<title>Node15</title>
<g id="a_node15"><a xlink:href="_k___whitelist_8hpp.html" target="_top" xlink:title="Header for K_Whitelist.cpp.">
<polygon fill="none" stroke="black" points="372.93,-312.5 372.93,-353.5 514.93,-353.5 514.93,-312.5 372.93,-312.5"/>
<text text-anchor="start" x="380.93" y="-341.5" font-family="Helvetica,sans-Serif" font-size="10.00">C:/Users/Gshoo/Desktop</text>
<text text-anchor="start" x="380.93" y="-330.5" font-family="Helvetica,sans-Serif" font-size="10.00">/pi&#45;defender&#45;tmp/Sources</text>
<text text-anchor="middle" x="443.93" y="-319.5" font-family="Helvetica,sans-Serif" font-size="10.00">/PI&#45;Defender/K_Whitelist.hpp</text>
</a>
</g>
</g>
<!-- Node6&#45;&gt;Node15 -->
<g id="edge24" class="edge">
<title>Node6&#45;&gt;Node15</title>
<path fill="none" stroke="midnightblue" d="M483.6,-382.63C475.74,-372.99 467.07,-362.36 459.85,-353.51"/>
<polygon fill="midnightblue" stroke="midnightblue" points="480.93,-384.89 489.97,-390.43 486.36,-380.47 480.93,-384.89"/>
</g>
<!-- Node8 -->
<g id="node8" class="node">
<title>Node8</title>
<g id="a_node8"><a xlink:href="_k___cache_8cpp.html" target="_top" xlink:title="Store hash of signed and unsigned executable previously scanned.">
<polygon fill="none" stroke="black" points="33.43,-234.5 33.43,-275.5 164.43,-275.5 164.43,-234.5 33.43,-234.5"/>
<text text-anchor="start" x="41.43" y="-263.5" font-family="Helvetica,sans-Serif" font-size="10.00">C:/Users/Gshoo/Desktop</text>
<text text-anchor="start" x="41.43" y="-252.5" font-family="Helvetica,sans-Serif" font-size="10.00">/pi&#45;defender&#45;tmp/Sources</text>
<text text-anchor="middle" x="98.93" y="-241.5" font-family="Helvetica,sans-Serif" font-size="10.00">/PI&#45;Defender/K_Cache.cpp</text>
</a>
</g>
</g>
<!-- Node7&#45;&gt;Node8 -->
<g id="edge7" class="edge">
<title>Node7&#45;&gt;Node8</title>
<path fill="none" stroke="midnightblue" d="M202.75,-307.91C181.85,-297.46 157.69,-285.38 137.94,-275.51"/>
<polygon fill="midnightblue" stroke="midnightblue" points="201.28,-311.09 211.79,-312.43 204.41,-304.83 201.28,-311.09"/>
</g>
<!-- Node7&#45;&gt;Node9 -->
<g id="edge8" class="edge">
<title>Node7&#45;&gt;Node9</title>
<path fill="none" stroke="midnightblue" d="M255.62,-302.3C257.04,-293.3 258.57,-283.65 259.85,-275.51"/>
<polygon fill="midnightblue" stroke="midnightblue" points="252.13,-302 254.02,-312.43 259.04,-303.1 252.13,-302"/>
</g>
<!-- Node9&#45;&gt;Node2 -->
<g id="edge11" class="edge">
<title>Node9&#45;&gt;Node2</title>
<path fill="none" stroke="midnightblue" d="M218.42,-229.49C199.62,-219.13 178.04,-207.25 160.35,-197.51"/>
<polygon fill="midnightblue" stroke="midnightblue" points="216.95,-232.67 227.39,-234.43 220.32,-226.54 216.95,-232.67"/>
</g>
<!-- Node9&#45;&gt;Node3 -->
<g id="edge10" class="edge">
<title>Node9&#45;&gt;Node3</title>
<path fill="none" stroke="midnightblue" d="M313.96,-229.91C333.29,-220.41 355.36,-209.12 374.93,-198 419.5,-172.68 469.14,-140.02 499.45,-119.54"/>
<polygon fill="midnightblue" stroke="midnightblue" points="312.16,-226.89 304.71,-234.42 315.23,-233.18 312.16,-226.89"/>
</g>
<!-- Node10 -->
<g id="node10" class="node">
<title>Node10</title>
<g id="a_node10"><a xlink:href="_k___configuration_8cpp.html" target="_top" xlink:title="Load the configuration of the driver.">
<polygon fill="none" stroke="black" points="205.93,-156.5 205.93,-197.5 365.93,-197.5 365.93,-156.5 205.93,-156.5"/>
<text text-anchor="start" x="213.93" y="-185.5" font-family="Helvetica,sans-Serif" font-size="10.00">C:/Users/Gshoo/Desktop</text>
<text text-anchor="start" x="213.93" y="-174.5" font-family="Helvetica,sans-Serif" font-size="10.00">/pi&#45;defender&#45;tmp/Sources</text>
<text text-anchor="middle" x="285.93" y="-163.5" font-family="Helvetica,sans-Serif" font-size="10.00">/PI&#45;Defender/K_Configuration.cpp</text>
</a>
</g>
</g>
<!-- Node9&#45;&gt;Node10 -->
<g id="edge9" class="edge">
<title>Node9&#45;&gt;Node10</title>
<path fill="none" stroke="midnightblue" d="M271.83,-224.59C274.58,-215.51 277.54,-205.74 280.03,-197.51"/>
<polygon fill="midnightblue" stroke="midnightblue" points="268.4,-223.84 268.86,-234.43 275.1,-225.87 268.4,-223.84"/>
</g>
<!-- Node9&#45;&gt;Node11 -->
<g id="edge12" class="edge">
<title>Node9&#45;&gt;Node11</title>
<path fill="none" stroke="midnightblue" d="M353.33,-233.85C495.24,-210.54 533.89,-217 672.93,-198 688.06,-195.93 704.18,-193.5 719.63,-191.06"/>
<polygon fill="midnightblue" stroke="midnightblue" points="352.68,-230.41 343.39,-235.51 353.82,-237.32 352.68,-230.41"/>
</g>
<!-- Node11&#45;&gt;Node3 -->
<g id="edge13" class="edge">
<title>Node11&#45;&gt;Node3</title>
<path fill="none" stroke="midnightblue" d="M717.94,-153.68C677.97,-142.39 630.06,-128.85 592.35,-118.2"/>
<polygon fill="midnightblue" stroke="midnightblue" points="717.08,-157.08 727.66,-156.43 718.99,-150.34 717.08,-157.08"/>
</g>
<!-- Node12 -->
<g id="node12" class="node">
<title>Node12</title>
<g id="a_node12"><a xlink:href="_k___ob_callback_8cpp.html" target="_top" xlink:title="Handle request callback.">
<polygon fill="none" stroke="black" points="719.93,-78.5 719.93,-119.5 873.93,-119.5 873.93,-78.5 719.93,-78.5"/>
<text text-anchor="start" x="727.93" y="-107.5" font-family="Helvetica,sans-Serif" font-size="10.00">C:/Users/Gshoo/Desktop</text>
<text text-anchor="start" x="727.93" y="-96.5" font-family="Helvetica,sans-Serif" font-size="10.00">/pi&#45;defender&#45;tmp/Sources</text>
<text text-anchor="middle" x="796.93" y="-85.5" font-family="Helvetica,sans-Serif" font-size="10.00">/PI&#45;Defender/K_ObCallback.cpp</text>
</a>
</g>
</g>
<!-- Node11&#45;&gt;Node12 -->
<g id="edge14" class="edge">
<title>Node11&#45;&gt;Node12</title>
<path fill="none" stroke="midnightblue" d="M796.93,-146.3C796.93,-137.3 796.93,-127.65 796.93,-119.51"/>
<polygon fill="midnightblue" stroke="midnightblue" points="793.43,-146.43 796.93,-156.43 800.43,-146.43 793.43,-146.43"/>
</g>
<!-- Node13&#45;&gt;Node2 -->
<g id="edge17" class="edge">
<title>Node13&#45;&gt;Node2</title>
<path fill="none" stroke="midnightblue" d="M511.04,-233.95C371.02,-212.07 332,-224.31 196.93,-198 193.88,-197.4 190.76,-196.75 187.62,-196.04"/>
<polygon fill="midnightblue" stroke="midnightblue" points="510.87,-237.47 521.3,-235.59 511.97,-230.56 510.87,-237.47"/>
</g>
<!-- Node13&#45;&gt;Node11 -->
<g id="edge18" class="edge">
<title>Node13&#45;&gt;Node11</title>
<path fill="none" stroke="midnightblue" d="M665.41,-230.61C691.93,-220 722.93,-207.6 748.17,-197.51"/>
<polygon fill="midnightblue" stroke="midnightblue" points="663.85,-227.46 655.86,-234.43 666.45,-233.96 663.85,-227.46"/>
</g>
<!-- Node14 -->
<g id="node14" class="node">
<title>Node14</title>
<g id="a_node14"><a xlink:href="_k___communication_8cpp.html" target="_top" xlink:title="Create the communication server, send data to the user&#45;mode service once a client is connected.">
<polygon fill="none" stroke="black" points="492.43,-156.5 492.43,-197.5 663.43,-197.5 663.43,-156.5 492.43,-156.5"/>
<text text-anchor="start" x="500.43" y="-185.5" font-family="Helvetica,sans-Serif" font-size="10.00">C:/Users/Gshoo/Desktop</text>
<text text-anchor="start" x="500.43" y="-174.5" font-family="Helvetica,sans-Serif" font-size="10.00">/pi&#45;defender&#45;tmp/Sources</text>
<text text-anchor="middle" x="577.93" y="-163.5" font-family="Helvetica,sans-Serif" font-size="10.00">/PI&#45;Defender/K_Communication.cpp</text>
</a>
</g>
</g>
<!-- Node13&#45;&gt;Node14 -->
<g id="edge16" class="edge">
<title>Node13&#45;&gt;Node14</title>
<path fill="none" stroke="midnightblue" d="M595.82,-224.88C592.33,-215.72 588.55,-205.83 585.38,-197.51"/>
<polygon fill="midnightblue" stroke="midnightblue" points="592.63,-226.33 599.46,-234.43 599.17,-223.84 592.63,-226.33"/>
</g>
<!-- Node15&#45;&gt;Node9 -->
<g id="edge25" class="edge">
<title>Node15&#45;&gt;Node9</title>
<path fill="none" stroke="midnightblue" d="M387.89,-308.47C362.7,-297.89 333.33,-285.56 309.39,-275.51"/>
<polygon fill="midnightblue" stroke="midnightblue" points="386.75,-311.78 397.32,-312.43 389.46,-305.33 386.75,-311.78"/>
</g>
<!-- Node16 -->
<g id="node16" class="node">
<title>Node16</title>
<g id="a_node16"><a xlink:href="_k___whitelist_8cpp.html" target="_top" xlink:title="Store paths of autorized files and folders.">
<polygon fill="none" stroke="black" points="360.93,-234.5 360.93,-275.5 502.93,-275.5 502.93,-234.5 360.93,-234.5"/>
<text text-anchor="start" x="368.93" y="-263.5" font-family="Helvetica,sans-Serif" font-size="10.00">C:/Users/Gshoo/Desktop</text>
<text text-anchor="start" x="368.93" y="-252.5" font-family="Helvetica,sans-Serif" font-size="10.00">/pi&#45;defender&#45;tmp/Sources</text>
<text text-anchor="middle" x="431.93" y="-241.5" font-family="Helvetica,sans-Serif" font-size="10.00">/PI&#45;Defender/K_Whitelist.cpp</text>
</a>
</g>
</g>
<!-- Node15&#45;&gt;Node16 -->
<g id="edge26" class="edge">
<title>Node15&#45;&gt;Node16</title>
<path fill="none" stroke="midnightblue" d="M439.24,-302.3C437.82,-293.3 436.3,-283.65 435.01,-275.51"/>
<polygon fill="midnightblue" stroke="midnightblue" points="435.83,-303.1 440.84,-312.43 442.74,-302 435.83,-303.1"/>
</g>
</g>
</svg>
        <g id="navigator" transform="translate(0 0)" fill="#404254">
                <rect fill="#f2f5e9" fill-opacity="0.5" stroke="#606060" stroke-width=".5" x="0" y="0" width="60" height="60"/>
                <use id="zoomplus" xlink:href="#zoomPlus" x="17" y="9" onmousedown="handleZoom(evt,'in')"/>
                <use id="zoomminus" xlink:href="#zoomMin" x="42" y="9" onmousedown="handleZoom(evt,'out')"/>
                <use id="reset" xlink:href="#resetDef" x="30" y="36" onmousedown="handleReset()"/>
                <g id="arrowUp" xlink:href="#dirArrow" transform="translate(30 24)" onmousedown="handlePan(0,-1)">
                  <use xlink:href="#rim" fill="#404040">
                        <set attributeName="fill" to="#808080" begin="arrowUp.mouseover" end="arrowUp.mouseout"/>
                  </use>
                  <path fill="none" stroke="white" stroke-width="1.5" d="M0,-3.0v7 M-2.5,-0.5L0,-3.0L2.5,-0.5"/>
                </g>
                <g id="arrowRight" xlink:href="#dirArrow" transform="rotate(90) translate(36 -43)" onmousedown="handlePan(1,0)">
                  <use xlink:href="#rim" fill="#404040">
                        <set attributeName="fill" to="#808080" begin="arrowRight.mouseover" end="arrowRight.mouseout"/>
                  </use>
                  <path fill="none" stroke="white" stroke-width="1.5" d="M0,-3.0v7 M-2.5,-0.5L0,-3.0L2.5,-0.5"/>
                </g>
                <g id="arrowDown" xlink:href="#dirArrow" transform="rotate(180) translate(-30 -48)" onmousedown="handlePan(0,1)">
                  <use xlink:href="#rim" fill="#404040">
                        <set attributeName="fill" to="#808080" begin="arrowDown.mouseover" end="arrowDown.mouseout"/>
                  </use>
                  <path fill="none" stroke="white" stroke-width="1.5" d="M0,-3.0v7 M-2.5,-0.5L0,-3.0L2.5,-0.5"/>
                </g>
                <g id="arrowLeft" xlink:href="#dirArrow" transform="rotate(270) translate(-36 17)" onmousedown="handlePan(-1,0)">
                  <use xlink:href="#rim" fill="#404040">
                        <set attributeName="fill" to="#808080" begin="arrowLeft.mouseover" end="arrowLeft.mouseout"/>
                  </use>
                  <path fill="none" stroke="white" stroke-width="1.5" d="M0,-3.0v7 M-2.5,-0.5L0,-3.0L2.5,-0.5"/>
                </g>
        </g>
        <svg viewBox="0 0 15 15" width="100%" height="30px" preserveAspectRatio="xMaxYMin meet">
         <g id="arrow_out" transform="scale(0.3 0.3)">
          <a xlink:href="_k___helper_8hpp__dep__incl_org.svg" target="_base">
           <rect id="button" ry="5" rx="5" y="6" x="6" height="38" width="38"
                fill="#f2f5e9" fill-opacity="0.5" stroke="#606060" stroke-width="1.0"/>
           <path id="arrow"
             d="M 11.500037,31.436501 C 11.940474,20.09759 22.043105,11.32322 32.158766,21.979434 L 37.068811,17.246167 C 37.068811,17.246167 37.088388,32 37.088388,32 L 22.160133,31.978069 C 22.160133,31.978069 26.997745,27.140456 26.997745,27.140456 C 18.528582,18.264221 13.291696,25.230495 11.500037,31.436501 z"
             style="fill:#404040;"/>
          </a>
         </g>
        </svg>
</svg>
