<?xml version="1.0" encoding="UTF-8" standalone="no"?>
<!DOCTYPE svg PUBLIC "-//W3C//DTD SVG 1.1//EN"
 "http://www.w3.org/Graphics/SVG/1.1/DTD/svg11.dtd">
<!-- Generated by graphviz version 4.0.0 (20220529.0937)
 -->
<!-- Title: C:/Users/admin&#45;cyb/Desktop/PI&#45;Defender/Sources/PI&#45;Defender/K_Filter.cpp Pages: 1 -->
<svg width="522pt" height="397pt"
 viewBox="0.00 0.00 521.50 397.00" xmlns="http://www.w3.org/2000/svg" xmlns:xlink="http://www.w3.org/1999/xlink">
<g id="graph0" class="graph" transform="scale(1 1) rotate(0) translate(4 393)">
<title>C:/Users/admin&#45;cyb/Desktop/PI&#45;Defender/Sources/PI&#45;Defender/K_Filter.cpp</title>
<!-- Node1 -->
<g id="node1" class="node">
<title>Node1</title>
<g id="a_node1"><a xlink:title="Initialize filter object used by the communication.">
<polygon fill="#bfbfbf" stroke="black" points="123.5,-336.5 123.5,-388.5 232.5,-388.5 232.5,-336.5 123.5,-336.5"/>
<text text-anchor="start" x="131.5" y="-376.5" font-family="Helvetica,sans-Serif" font-size="10.00">C:/Users/admin&#45;cyb</text>
<text text-anchor="start" x="131.5" y="-365.5" font-family="Helvetica,sans-Serif" font-size="10.00">/Desktop/PI&#45;Defender</text>
<text text-anchor="start" x="131.5" y="-354.5" font-family="Helvetica,sans-Serif" font-size="10.00">/Sources/PI&#45;Defender</text>
<text text-anchor="middle" x="178" y="-343.5" font-family="Helvetica,sans-Serif" font-size="10.00">/K_Filter.cpp</text>
</a>
</g>
</g>
<!-- Node2 -->
<g id="node2" class="node">
<title>Node2</title>
<g id="a_node2"><a xlink:href="_k___filter_8hpp.html" target="_top" xlink:title="Header for K_Filter.cpp.">
<polygon fill="none" stroke="black" points="99.5,-280.5 99.5,-299.5 168.5,-299.5 168.5,-280.5 99.5,-280.5"/>
<text text-anchor="middle" x="134" y="-287.5" font-family="Helvetica,sans-Serif" font-size="10.00">K_Filter.hpp</text>
</a>
</g>
</g>
<!-- Node1&#45;&gt;Node2 -->
<g id="edge1" class="edge">
<title>Node1&#45;&gt;Node2</title>
<path fill="none" stroke="midnightblue" d="M162.36,-336.45C156.55,-327.13 150.08,-316.77 144.8,-308.3"/>
<polygon fill="midnightblue" stroke="midnightblue" points="147.69,-306.33 139.43,-299.7 141.75,-310.03 147.69,-306.33"/>
</g>
<!-- Node16 -->
<g id="node16" class="node">
<title>Node16</title>
<g id="a_node16"><a xlink:title=" ">
<polygon fill="none" stroke="#bfbfbf" points="187,-280.5 187,-299.5 257,-299.5 257,-280.5 187,-280.5"/>
<text text-anchor="middle" x="222" y="-287.5" font-family="Helvetica,sans-Serif" font-size="10.00">K_Filter.tmh</text>
</a>
</g>
</g>
<!-- Node1&#45;&gt;Node16 -->
<g id="edge23" class="edge">
<title>Node1&#45;&gt;Node16</title>
<path fill="none" stroke="midnightblue" d="M193.64,-336.45C199.45,-327.13 205.92,-316.77 211.2,-308.3"/>
<polygon fill="midnightblue" stroke="midnightblue" points="214.25,-310.03 216.57,-299.7 208.31,-306.33 214.25,-310.03"/>
</g>
<!-- Node3 -->
<g id="node3" class="node">
<title>Node3</title>
<g id="a_node3"><a xlink:href="_k___global_header_8hpp.html" target="_top" xlink:title="Header used by several .cpp files.">
<polygon fill="none" stroke="black" points="168,-112.5 168,-131.5 274,-131.5 274,-112.5 168,-112.5"/>
<text text-anchor="middle" x="221" y="-119.5" font-family="Helvetica,sans-Serif" font-size="10.00">K_GlobalHeader.hpp</text>
</a>
</g>
</g>
<!-- Node2&#45;&gt;Node3 -->
<g id="edge2" class="edge">
<title>Node2&#45;&gt;Node3</title>
<path fill="none" stroke="midnightblue" d="M136.83,-280.43C143.72,-260.11 162.51,-207.77 186,-168 191.9,-158.01 199.74,-147.73 206.5,-139.52"/>
<polygon fill="midnightblue" stroke="midnightblue" points="209.24,-141.71 213.04,-131.82 203.9,-137.18 209.24,-141.71"/>
</g>
<!-- Node7 -->
<g id="node7" class="node">
<title>Node7</title>
<g id="a_node7"><a xlink:title=" ">
<polygon fill="none" stroke="#bfbfbf" points="0,-56.5 0,-75.5 62,-75.5 62,-56.5 0,-56.5"/>
<text text-anchor="middle" x="31" y="-63.5" font-family="Helvetica,sans-Serif" font-size="10.00">ntstrsafe.h</text>
</a>
</g>
</g>
<!-- Node2&#45;&gt;Node7 -->
<g id="edge12" class="edge">
<title>Node2&#45;&gt;Node7</title>
<path fill="none" stroke="midnightblue" d="M129.96,-280.3C114.71,-247.42 60.41,-130.39 39.39,-85.09"/>
<polygon fill="midnightblue" stroke="midnightblue" points="42.51,-83.48 35.12,-75.88 36.16,-86.43 42.51,-83.48"/>
</g>
<!-- Node9 -->
<g id="node9" class="node">
<title>Node9</title>
<g id="a_node9"><a xlink:href="_k___utilitaire_8hpp.html" target="_top" xlink:title="Header for K_Utilitaire.cpp.">
<polygon fill="none" stroke="black" points="80.5,-56.5 80.5,-75.5 163.5,-75.5 163.5,-56.5 80.5,-56.5"/>
<text text-anchor="middle" x="122" y="-63.5" font-family="Helvetica,sans-Serif" font-size="10.00">K_Utilitaire.hpp</text>
</a>
</g>
</g>
<!-- Node2&#45;&gt;Node9 -->
<g id="edge13" class="edge">
<title>Node2&#45;&gt;Node9</title>
<path fill="none" stroke="midnightblue" d="M133.53,-280.3C131.76,-247.63 125.51,-131.87 123.02,-85.96"/>
<polygon fill="midnightblue" stroke="midnightblue" points="126.51,-85.68 122.48,-75.88 119.53,-86.06 126.51,-85.68"/>
</g>
<!-- Node12 -->
<g id="node12" class="node">
<title>Node12</title>
<g id="a_node12"><a xlink:href="_k___configuration_8hpp.html" target="_top" xlink:title="Header for K_Configuration.cpp.">
<polygon fill="none" stroke="black" points="174,-224.5 174,-243.5 278,-243.5 278,-224.5 174,-224.5"/>
<text text-anchor="middle" x="226" y="-231.5" font-family="Helvetica,sans-Serif" font-size="10.00">K_Configuration.hpp</text>
</a>
</g>
</g>
<!-- Node2&#45;&gt;Node12 -->
<g id="edge14" class="edge">
<title>Node2&#45;&gt;Node12</title>
<path fill="none" stroke="midnightblue" d="M148.78,-280.32C163.27,-271.82 185.57,-258.73 202.49,-248.8"/>
<polygon fill="midnightblue" stroke="midnightblue" points="204.4,-251.74 211.26,-243.65 200.86,-245.7 204.4,-251.74"/>
</g>
<!-- Node15 -->
<g id="node15" class="node">
<title>Node15</title>
<g id="a_node15"><a xlink:href="_k___communication_8hpp.html" target="_top" xlink:title="Header for K_Communication.cpp.">
<polygon fill="none" stroke="black" points="398.5,-168.5 398.5,-187.5 513.5,-187.5 513.5,-168.5 398.5,-168.5"/>
<text text-anchor="middle" x="456" y="-175.5" font-family="Helvetica,sans-Serif" font-size="10.00">K_Communication.hpp</text>
</a>
</g>
</g>
<!-- Node2&#45;&gt;Node15 -->
<g id="edge20" class="edge">
<title>Node2&#45;&gt;Node15</title>
<path fill="none" stroke="midnightblue" d="M165.88,-280.44C197,-271.89 245.57,-258.04 287,-244 336.11,-227.36 392.09,-205.18 425.7,-191.51"/>
<polygon fill="midnightblue" stroke="midnightblue" points="427.45,-194.57 435.38,-187.55 424.8,-188.09 427.45,-194.57"/>
</g>
<!-- Node4 -->
<g id="node4" class="node">
<title>Node4</title>
<g id="a_node4"><a xlink:title=" ">
<polygon fill="none" stroke="#bfbfbf" points="440.5,-56.5 440.5,-75.5 483.5,-75.5 483.5,-56.5 440.5,-56.5"/>
<text text-anchor="middle" x="462" y="-63.5" font-family="Helvetica,sans-Serif" font-size="10.00">ntifs.h</text>
</a>
</g>
</g>
<!-- Node3&#45;&gt;Node4 -->
<g id="edge3" class="edge">
<title>Node3&#45;&gt;Node4</title>
<path fill="none" stroke="midnightblue" d="M266.11,-112.48C306.83,-104.55 368.55,-91.91 430.49,-76.24"/>
<polygon fill="midnightblue" stroke="midnightblue" points="431.61,-79.57 440.43,-73.7 429.87,-72.79 431.61,-79.57"/>
</g>
<!-- Node5 -->
<g id="node5" class="node">
<title>Node5</title>
<g id="a_node5"><a xlink:title=" ">
<polygon fill="none" stroke="#bfbfbf" points="181.5,-56.5 181.5,-75.5 226.5,-75.5 226.5,-56.5 181.5,-56.5"/>
<text text-anchor="middle" x="204" y="-63.5" font-family="Helvetica,sans-Serif" font-size="10.00">wdm.h</text>
</a>
</g>
</g>
<!-- Node3&#45;&gt;Node5 -->
<g id="edge4" class="edge">
<title>Node3&#45;&gt;Node5</title>
<path fill="none" stroke="midnightblue" d="M218.19,-112.08C215.92,-104.85 212.63,-94.41 209.79,-85.4"/>
<polygon fill="midnightblue" stroke="midnightblue" points="213.1,-84.24 206.75,-75.75 206.42,-86.34 213.1,-84.24"/>
</g>
<!-- Node6 -->
<g id="node6" class="node">
<title>Node6</title>
<g id="a_node6"><a xlink:title=" ">
<polygon fill="none" stroke="#bfbfbf" points="245,-56.5 245,-75.5 305,-75.5 305,-56.5 245,-56.5"/>
<text text-anchor="middle" x="275" y="-63.5" font-family="Helvetica,sans-Serif" font-size="10.00">fltKernel.h</text>
</a>
</g>
</g>
<!-- Node3&#45;&gt;Node6 -->
<g id="edge5" class="edge">
<title>Node3&#45;&gt;Node6</title>
<path fill="none" stroke="midnightblue" d="M229.92,-112.08C237.78,-104.22 249.43,-92.57 258.92,-83.08"/>
<polygon fill="midnightblue" stroke="midnightblue" points="261.65,-85.3 266.25,-75.75 256.7,-80.35 261.65,-85.3"/>
</g>
<!-- Node3&#45;&gt;Node7 -->
<g id="edge6" class="edge">
<title>Node3&#45;&gt;Node7</title>
<path fill="none" stroke="midnightblue" d="M190.89,-112.44C158.37,-103.2 106.42,-88.44 70.61,-78.26"/>
<polygon fill="midnightblue" stroke="midnightblue" points="71.54,-74.88 60.97,-75.52 69.63,-81.62 71.54,-74.88"/>
</g>
<!-- Node8 -->
<g id="node8" class="node">
<title>Node8</title>
<g id="a_node8"><a xlink:href="_k___wpp_tracing_8hpp.html" target="_top" xlink:title="WppTracing header.">
<polygon fill="none" stroke="black" points="323.5,-56.5 323.5,-75.5 422.5,-75.5 422.5,-56.5 323.5,-56.5"/>
<text text-anchor="middle" x="373" y="-63.5" font-family="Helvetica,sans-Serif" font-size="10.00">K_WppTracing.hpp</text>
</a>
</g>
</g>
<!-- Node3&#45;&gt;Node8 -->
<g id="edge7" class="edge">
<title>Node3&#45;&gt;Node8</title>
<path fill="none" stroke="midnightblue" d="M245.08,-112.44C270.54,-103.4 310.89,-89.06 339.46,-78.92"/>
<polygon fill="midnightblue" stroke="midnightblue" points="340.78,-82.16 349.03,-75.52 338.43,-75.57 340.78,-82.16"/>
</g>
<!-- Node3&#45;&gt;Node9 -->
<g id="edge8" class="edge">
<title>Node3&#45;&gt;Node9</title>
<path fill="none" stroke="midnightblue" d="M199.98,-112.32C182.71,-103.9 158.71,-90.97 141.79,-81.07"/>
<polygon fill="midnightblue" stroke="midnightblue" points="143.13,-77.8 132.76,-75.65 139.53,-83.8 143.13,-77.8"/>
</g>
<!-- Node9&#45;&gt;Node3 -->
<g id="edge9" class="edge">
<title>Node9&#45;&gt;Node3</title>
<path fill="none" stroke="midnightblue" d="M142.98,-75.65C160.23,-84.07 184.23,-97 201.16,-106.9"/>
<polygon fill="midnightblue" stroke="midnightblue" points="199.83,-110.18 210.21,-112.32 203.43,-104.18 199.83,-110.18"/>
</g>
<!-- Node10 -->
<g id="node10" class="node">
<title>Node10</title>
<g id="a_node10"><a xlink:href="_shared_defs_8hpp.html" target="_top" xlink:title="Header file which contains the structures, type definitions, constants, global variablesand function ...">
<polygon fill="none" stroke="black" points="302,-0.5 302,-19.5 450,-19.5 450,-0.5 302,-0.5"/>
<text text-anchor="middle" x="376" y="-7.5" font-family="Helvetica,sans-Serif" font-size="10.00">../SharedDefs/SharedDefs.hpp</text>
</a>
</g>
</g>
<!-- Node9&#45;&gt;Node10 -->
<g id="edge10" class="edge">
<title>Node9&#45;&gt;Node10</title>
<path fill="none" stroke="midnightblue" d="M162.25,-56.44C206.65,-47 278.15,-31.8 326.09,-21.61"/>
<polygon fill="midnightblue" stroke="midnightblue" points="326.89,-25.02 335.94,-19.52 325.43,-18.17 326.89,-25.02"/>
</g>
<!-- Node11 -->
<g id="node11" class="node">
<title>Node11</title>
<g id="a_node11"><a xlink:title=" ">
<polygon fill="none" stroke="#bfbfbf" points="96,-0.5 96,-19.5 148,-19.5 148,-0.5 96,-0.5"/>
<text text-anchor="middle" x="122" y="-7.5" font-family="Helvetica,sans-Serif" font-size="10.00">bcrypt.h</text>
</a>
</g>
</g>
<!-- Node9&#45;&gt;Node11 -->
<g id="edge11" class="edge">
<title>Node9&#45;&gt;Node11</title>
<path fill="none" stroke="midnightblue" d="M122,-56.08C122,-49.01 122,-38.86 122,-29.99"/>
<polygon fill="midnightblue" stroke="midnightblue" points="125.5,-29.75 122,-19.75 118.5,-29.75 125.5,-29.75"/>
</g>
<!-- Node12&#45;&gt;Node3 -->
<g id="edge15" class="edge">
<title>Node12&#45;&gt;Node3</title>
<path fill="none" stroke="midnightblue" d="M216.44,-224.45C207.91,-216.12 196.01,-202.6 191,-188 185.17,-171 195.5,-152.46 205.59,-139.55"/>
<polygon fill="midnightblue" stroke="midnightblue" points="208.54,-141.49 212.34,-131.6 203.2,-136.96 208.54,-141.49"/>
</g>
<!-- Node13 -->
<g id="node13" class="node">
<title>Node13</title>
<g id="a_node13"><a xlink:href="_k___cache_8hpp.html" target="_top" xlink:title="Header for K_Cache.cpp.">
<polygon fill="none" stroke="black" points="200.5,-168.5 200.5,-187.5 275.5,-187.5 275.5,-168.5 200.5,-168.5"/>
<text text-anchor="middle" x="238" y="-175.5" font-family="Helvetica,sans-Serif" font-size="10.00">K_Cache.hpp</text>
</a>
</g>
</g>
<!-- Node12&#45;&gt;Node13 -->
<g id="edge16" class="edge">
<title>Node12&#45;&gt;Node13</title>
<path fill="none" stroke="midnightblue" d="M227.98,-224.08C229.57,-216.93 231.86,-206.64 233.85,-197.69"/>
<polygon fill="midnightblue" stroke="midnightblue" points="237.3,-198.27 236.06,-187.75 230.47,-196.75 237.3,-198.27"/>
</g>
<!-- Node14 -->
<g id="node14" class="node">
<title>Node14</title>
<g id="a_node14"><a xlink:href="_k___whitelist_8hpp.html" target="_top" xlink:title="Header for K_Whitelist.cpp.">
<polygon fill="none" stroke="black" points="294,-168.5 294,-187.5 380,-187.5 380,-168.5 294,-168.5"/>
<text text-anchor="middle" x="337" y="-175.5" font-family="Helvetica,sans-Serif" font-size="10.00">K_Whitelist.hpp</text>
</a>
</g>
</g>
<!-- Node12&#45;&gt;Node14 -->
<g id="edge18" class="edge">
<title>Node12&#45;&gt;Node14</title>
<path fill="none" stroke="midnightblue" d="M243.83,-224.32C261.72,-215.62 289.48,-202.12 310.05,-192.11"/>
<polygon fill="midnightblue" stroke="midnightblue" points="311.75,-195.18 319.21,-187.65 308.69,-188.88 311.75,-195.18"/>
</g>
<!-- Node13&#45;&gt;Node3 -->
<g id="edge17" class="edge">
<title>Node13&#45;&gt;Node3</title>
<path fill="none" stroke="midnightblue" d="M235.19,-168.08C232.92,-160.85 229.63,-150.41 226.79,-141.4"/>
<polygon fill="midnightblue" stroke="midnightblue" points="230.1,-140.24 223.75,-131.75 223.42,-142.34 230.1,-140.24"/>
</g>
<!-- Node14&#45;&gt;Node3 -->
<g id="edge19" class="edge">
<title>Node14&#45;&gt;Node3</title>
<path fill="none" stroke="midnightblue" d="M318.62,-168.44C299.78,-159.68 270.27,-145.94 248.62,-135.86"/>
<polygon fill="midnightblue" stroke="midnightblue" points="249.84,-132.56 239.29,-131.52 246.88,-138.91 249.84,-132.56"/>
</g>
<!-- Node15&#45;&gt;Node3 -->
<g id="edge21" class="edge">
<title>Node15&#45;&gt;Node3</title>
<path fill="none" stroke="midnightblue" d="M418.76,-168.44C377.94,-159.06 312.36,-143.99 268.02,-133.8"/>
<polygon fill="midnightblue" stroke="midnightblue" points="268.59,-130.34 258.06,-131.52 267.02,-137.17 268.59,-130.34"/>
</g>
<!-- Node15&#45;&gt;Node10 -->
<g id="edge22" class="edge">
<title>Node15&#45;&gt;Node10</title>
<path fill="none" stroke="midnightblue" d="M463.35,-168.32C480.19,-147.31 518.25,-92.76 493,-56 481.83,-39.73 463.89,-29.34 445.37,-22.71"/>
<polygon fill="midnightblue" stroke="midnightblue" points="446.27,-19.32 435.68,-19.57 444.11,-25.98 446.27,-19.32"/>
</g>
</g>
</svg>
