<?xml version="1.0" encoding="UTF-8" standalone="no"?>
<!DOCTYPE svg PUBLIC "-//W3C//DTD SVG 1.1//EN"
 "http://www.w3.org/Graphics/SVG/1.1/DTD/svg11.dtd">
<!-- Generated by graphviz version 5.0.0 (20220707.1540)
 -->
<!-- Title: K_Communication.cpp Pages: 1 -->
<svg width="586pt" height="252pt"
 viewBox="0.00 0.00 585.50 252.00" xmlns="http://www.w3.org/2000/svg" xmlns:xlink="http://www.w3.org/1999/xlink">
<g id="graph0" class="graph" transform="scale(1 1) rotate(0) translate(4 248)">
<title>K_Communication.cpp</title>
<!-- Node1 -->
<g id="node1" class="node">
<title>Node1</title>
<g id="a_node1"><a xlink:title="Create the communication server, send data to the user&#45;mode service once a client is connected.">
<polygon fill="#bfbfbf" stroke="black" points="378,-224.5 378,-243.5 493,-243.5 493,-224.5 378,-224.5"/>
<text text-anchor="middle" x="435.5" y="-231.5" font-family="Helvetica,sans-Serif" font-size="10.00">K_Communication.cpp</text>
</a>
</g>
</g>
<!-- Node2 -->
<g id="node2" class="node">
<title>Node2</title>
<g id="a_node2"><a xlink:href="_k___communication_8hpp.html" target="_top" xlink:title="Header for K_Communication.cpp.">
<polygon fill="none" stroke="black" points="311,-168.5 311,-187.5 426,-187.5 426,-168.5 311,-168.5"/>
<text text-anchor="middle" x="368.5" y="-175.5" font-family="Helvetica,sans-Serif" font-size="10.00">K_Communication.hpp</text>
</a>
</g>
</g>
<!-- Node1&#45;&gt;Node2 -->
<g id="edge1" class="edge">
<title>Node1&#45;&gt;Node2</title>
<path fill="none" stroke="midnightblue" d="M424.74,-224.32C414.73,-216.26 399.61,-204.08 387.57,-194.37"/>
<polygon fill="midnightblue" stroke="midnightblue" points="389.44,-191.38 379.46,-187.83 385.05,-196.83 389.44,-191.38"/>
</g>
<!-- Node12 -->
<g id="node12" class="node">
<title>Node12</title>
<g id="a_node12"><a xlink:title=" ">
<polygon fill="none" stroke="#bfbfbf" points="444.5,-168.5 444.5,-187.5 560.5,-187.5 560.5,-168.5 444.5,-168.5"/>
<text text-anchor="middle" x="502.5" y="-175.5" font-family="Helvetica,sans-Serif" font-size="10.00">K_Communication.tmh</text>
</a>
</g>
</g>
<!-- Node1&#45;&gt;Node12 -->
<g id="edge13" class="edge">
<title>Node1&#45;&gt;Node12</title>
<path fill="none" stroke="midnightblue" d="M446.26,-224.32C456.27,-216.26 471.39,-204.08 483.43,-194.37"/>
<polygon fill="midnightblue" stroke="midnightblue" points="485.95,-196.83 491.54,-187.83 481.56,-191.38 485.95,-196.83"/>
</g>
<!-- Node3 -->
<g id="node3" class="node">
<title>Node3</title>
<g id="a_node3"><a xlink:href="_k___global_header_8hpp.html" target="_top" xlink:title="Header used by several .cpp files.">
<polygon fill="none" stroke="black" points="230.5,-112.5 230.5,-131.5 336.5,-131.5 336.5,-112.5 230.5,-112.5"/>
<text text-anchor="middle" x="283.5" y="-119.5" font-family="Helvetica,sans-Serif" font-size="10.00">K_GlobalHeader.hpp</text>
</a>
</g>
</g>
<!-- Node2&#45;&gt;Node3 -->
<g id="edge2" class="edge">
<title>Node2&#45;&gt;Node3</title>
<path fill="none" stroke="midnightblue" d="M354.84,-168.32C341.58,-159.9 321.23,-146.97 305.65,-137.07"/>
<polygon fill="midnightblue" stroke="midnightblue" points="307.44,-134.06 297.12,-131.65 303.69,-139.97 307.44,-134.06"/>
</g>
<!-- Node10 -->
<g id="node10" class="node">
<title>Node10</title>
<g id="a_node10"><a xlink:href="_shared_defs_8hpp.html" target="_top" xlink:title="Header file which contains the structures, type definitions, constants, global variablesand function ...">
<polygon fill="none" stroke="black" points="429.5,-0.5 429.5,-19.5 577.5,-19.5 577.5,-0.5 429.5,-0.5"/>
<text text-anchor="middle" x="503.5" y="-7.5" font-family="Helvetica,sans-Serif" font-size="10.00">../SharedDefs/SharedDefs.hpp</text>
</a>
</g>
</g>
<!-- Node2&#45;&gt;Node10 -->
<g id="edge12" class="edge">
<title>Node2&#45;&gt;Node10</title>
<path fill="none" stroke="midnightblue" d="M382.79,-168.28C407.06,-152.75 456.36,-117.94 483.5,-76 492.62,-61.91 497.78,-43.42 500.56,-29.76"/>
<polygon fill="midnightblue" stroke="midnightblue" points="504.06,-30.09 502.38,-19.63 497.17,-28.86 504.06,-30.09"/>
</g>
<!-- Node4 -->
<g id="node4" class="node">
<title>Node4</title>
<g id="a_node4"><a xlink:title=" ">
<polygon fill="none" stroke="#bfbfbf" points="0,-56.5 0,-75.5 43,-75.5 43,-56.5 0,-56.5"/>
<text text-anchor="middle" x="21.5" y="-63.5" font-family="Helvetica,sans-Serif" font-size="10.00">ntifs.h</text>
</a>
</g>
</g>
<!-- Node3&#45;&gt;Node4 -->
<g id="edge3" class="edge">
<title>Node3&#45;&gt;Node4</title>
<path fill="none" stroke="midnightblue" d="M231.58,-112.46C186.56,-104.71 119.5,-92.34 52.88,-76.16"/>
<polygon fill="midnightblue" stroke="midnightblue" points="53.61,-72.74 43.06,-73.75 51.93,-79.53 53.61,-72.74"/>
</g>
<!-- Node5 -->
<g id="node5" class="node">
<title>Node5</title>
<g id="a_node5"><a xlink:title=" ">
<polygon fill="none" stroke="#bfbfbf" points="61,-56.5 61,-75.5 106,-75.5 106,-56.5 61,-56.5"/>
<text text-anchor="middle" x="83.5" y="-63.5" font-family="Helvetica,sans-Serif" font-size="10.00">wdm.h</text>
</a>
</g>
</g>
<!-- Node3&#45;&gt;Node5 -->
<g id="edge4" class="edge">
<title>Node3&#45;&gt;Node5</title>
<path fill="none" stroke="midnightblue" d="M251.26,-112.49C219.4,-104.06 169.01,-90.64 116.12,-76.14"/>
<polygon fill="midnightblue" stroke="midnightblue" points="116.79,-72.7 106.22,-73.43 114.93,-79.45 116.79,-72.7"/>
</g>
<!-- Node6 -->
<g id="node6" class="node">
<title>Node6</title>
<g id="a_node6"><a xlink:title=" ">
<polygon fill="none" stroke="#bfbfbf" points="124.5,-56.5 124.5,-75.5 184.5,-75.5 184.5,-56.5 124.5,-56.5"/>
<text text-anchor="middle" x="154.5" y="-63.5" font-family="Helvetica,sans-Serif" font-size="10.00">fltKernel.h</text>
</a>
</g>
</g>
<!-- Node3&#45;&gt;Node6 -->
<g id="edge5" class="edge">
<title>Node3&#45;&gt;Node6</title>
<path fill="none" stroke="midnightblue" d="M263.06,-112.44C241.83,-103.56 208.4,-89.56 184.25,-79.45"/>
<polygon fill="midnightblue" stroke="midnightblue" points="185.42,-76.15 174.84,-75.52 182.72,-82.61 185.42,-76.15"/>
</g>
<!-- Node7 -->
<g id="node7" class="node">
<title>Node7</title>
<g id="a_node7"><a xlink:title=" ">
<polygon fill="none" stroke="#bfbfbf" points="202.5,-56.5 202.5,-75.5 264.5,-75.5 264.5,-56.5 202.5,-56.5"/>
<text text-anchor="middle" x="233.5" y="-63.5" font-family="Helvetica,sans-Serif" font-size="10.00">ntstrsafe.h</text>
</a>
</g>
</g>
<!-- Node3&#45;&gt;Node7 -->
<g id="edge6" class="edge">
<title>Node3&#45;&gt;Node7</title>
<path fill="none" stroke="midnightblue" d="M275.24,-112.08C268.04,-104.3 257.39,-92.8 248.65,-83.37"/>
<polygon fill="midnightblue" stroke="midnightblue" points="250.97,-80.71 241.6,-75.75 245.83,-85.47 250.97,-80.71"/>
</g>
<!-- Node8 -->
<g id="node8" class="node">
<title>Node8</title>
<g id="a_node8"><a xlink:href="_k___wpp_tracing_8hpp.html" target="_top" xlink:title="WppTracing header.">
<polygon fill="none" stroke="black" points="283,-56.5 283,-75.5 382,-75.5 382,-56.5 283,-56.5"/>
<text text-anchor="middle" x="332.5" y="-63.5" font-family="Helvetica,sans-Serif" font-size="10.00">K_WppTracing.hpp</text>
</a>
</g>
</g>
<!-- Node3&#45;&gt;Node8 -->
<g id="edge7" class="edge">
<title>Node3&#45;&gt;Node8</title>
<path fill="none" stroke="midnightblue" d="M291.59,-112.08C298.66,-104.3 309.09,-92.8 317.65,-83.37"/>
<polygon fill="midnightblue" stroke="midnightblue" points="320.43,-85.51 324.56,-75.75 315.25,-80.8 320.43,-85.51"/>
</g>
<!-- Node9 -->
<g id="node9" class="node">
<title>Node9</title>
<g id="a_node9"><a xlink:href="_k___helper_8hpp.html" target="_top" xlink:title="Header for K_Helper.cpp.">
<polygon fill="none" stroke="black" points="400,-56.5 400,-75.5 475,-75.5 475,-56.5 400,-56.5"/>
<text text-anchor="middle" x="437.5" y="-63.5" font-family="Helvetica,sans-Serif" font-size="10.00">K_Helper.hpp</text>
</a>
</g>
</g>
<!-- Node3&#45;&gt;Node9 -->
<g id="edge8" class="edge">
<title>Node3&#45;&gt;Node9</title>
<path fill="none" stroke="midnightblue" d="M302.81,-112.44C326.83,-103.32 368.01,-88.81 398.61,-78.65"/>
<polygon fill="midnightblue" stroke="midnightblue" points="399.73,-81.97 408.13,-75.52 397.54,-75.32 399.73,-81.97"/>
</g>
<!-- Node9&#45;&gt;Node3 -->
<g id="edge9" class="edge">
<title>Node9&#45;&gt;Node3</title>
<path fill="none" stroke="midnightblue" d="M418.29,-75.52C394.32,-84.62 353.16,-99.13 322.53,-109.3"/>
<polygon fill="midnightblue" stroke="midnightblue" points="321.4,-105.99 312.99,-112.44 323.58,-112.64 321.4,-105.99"/>
</g>
<!-- Node9&#45;&gt;Node10 -->
<g id="edge10" class="edge">
<title>Node9&#45;&gt;Node10</title>
<path fill="none" stroke="midnightblue" d="M448.1,-56.32C457.96,-48.26 472.85,-36.08 484.72,-26.37"/>
<polygon fill="midnightblue" stroke="midnightblue" points="487.18,-28.88 492.7,-19.83 482.75,-23.46 487.18,-28.88"/>
</g>
<!-- Node11 -->
<g id="node11" class="node">
<title>Node11</title>
<g id="a_node11"><a xlink:title=" ">
<polygon fill="none" stroke="#bfbfbf" points="359.5,-0.5 359.5,-19.5 411.5,-19.5 411.5,-0.5 359.5,-0.5"/>
<text text-anchor="middle" x="385.5" y="-7.5" font-family="Helvetica,sans-Serif" font-size="10.00">bcrypt.h</text>
</a>
</g>
</g>
<!-- Node9&#45;&gt;Node11 -->
<g id="edge11" class="edge">
<title>Node9&#45;&gt;Node11</title>
<path fill="none" stroke="midnightblue" d="M428.91,-56.08C421.34,-48.22 410.12,-36.57 400.99,-27.08"/>
<polygon fill="midnightblue" stroke="midnightblue" points="403.38,-24.53 393.93,-19.75 398.34,-29.38 403.38,-24.53"/>
</g>
</g>
</svg>
