<?xml version="1.0" encoding="UTF-8" standalone="no"?>
<!DOCTYPE svg PUBLIC "-//W3C//DTD SVG 1.1//EN"
 "http://www.w3.org/Graphics/SVG/1.1/DTD/svg11.dtd">
<!-- Generated by graphviz version 5.0.0 (20220707.1540)
 -->
<!-- Title: C:/Users/Gshoo/Desktop/pi&#45;defender&#45;tmp/Sources/PI&#45;Defender/K_GlobalHeader.hpp Pages: 1 -->
<svg width="531pt" height="162pt"
 viewBox="0.00 0.00 530.50 162.00" xmlns="http://www.w3.org/2000/svg" xmlns:xlink="http://www.w3.org/1999/xlink">
<g id="graph0" class="graph" transform="scale(1 1) rotate(0) translate(4 158)">
<title>C:/Users/Gshoo/Desktop/pi&#45;defender&#45;tmp/Sources/PI&#45;Defender/K_GlobalHeader.hpp</title>
<!-- Node1 -->
<g id="node1" class="node">
<title>Node1</title>
<g id="a_node1"><a xlink:title="Header used by several .cpp files.">
<polygon fill="#bfbfbf" stroke="black" points="152.5,-112.5 152.5,-153.5 314.5,-153.5 314.5,-112.5 152.5,-112.5"/>
<text text-anchor="start" x="160.5" y="-141.5" font-family="Helvetica,sans-Serif" font-size="10.00">C:/Users/Gshoo/Desktop</text>
<text text-anchor="start" x="160.5" y="-130.5" font-family="Helvetica,sans-Serif" font-size="10.00">/pi&#45;defender&#45;tmp/Sources</text>
<text text-anchor="middle" x="233.5" y="-119.5" font-family="Helvetica,sans-Serif" font-size="10.00">/PI&#45;Defender/K_GlobalHeader.hpp</text>
</a>
</g>
</g>
<!-- Node2 -->
<g id="node2" class="node">
<title>Node2</title>
<g id="a_node2"><a xlink:title=" ">
<polygon fill="none" stroke="#bfbfbf" points="0,-56.5 0,-75.5 43,-75.5 43,-56.5 0,-56.5"/>
<text text-anchor="middle" x="21.5" y="-63.5" font-family="Helvetica,sans-Serif" font-size="10.00">ntifs.h</text>
</a>
</g>
</g>
<!-- Node1&#45;&gt;Node2 -->
<g id="edge1" class="edge">
<title>Node1&#45;&gt;Node2</title>
<path fill="none" stroke="midnightblue" d="M169.89,-112.5C131.32,-100.67 83.78,-86.1 53.07,-76.68"/>
<polygon fill="midnightblue" stroke="midnightblue" points="53.93,-73.28 43.34,-73.7 51.87,-79.97 53.93,-73.28"/>
</g>
<!-- Node3 -->
<g id="node3" class="node">
<title>Node3</title>
<g id="a_node3"><a xlink:title=" ">
<polygon fill="none" stroke="#bfbfbf" points="61,-56.5 61,-75.5 106,-75.5 106,-56.5 61,-56.5"/>
<text text-anchor="middle" x="83.5" y="-63.5" font-family="Helvetica,sans-Serif" font-size="10.00">wdm.h</text>
</a>
</g>
</g>
<!-- Node1&#45;&gt;Node3 -->
<g id="edge2" class="edge">
<title>Node1&#45;&gt;Node3</title>
<path fill="none" stroke="midnightblue" d="M188.5,-112.5C163.95,-101.86 134.27,-89 112.74,-79.67"/>
<polygon fill="midnightblue" stroke="midnightblue" points="114.03,-76.42 103.47,-75.65 111.25,-82.84 114.03,-76.42"/>
</g>
<!-- Node4 -->
<g id="node4" class="node">
<title>Node4</title>
<g id="a_node4"><a xlink:title=" ">
<polygon fill="none" stroke="#bfbfbf" points="124.5,-56.5 124.5,-75.5 184.5,-75.5 184.5,-56.5 124.5,-56.5"/>
<text text-anchor="middle" x="154.5" y="-63.5" font-family="Helvetica,sans-Serif" font-size="10.00">fltKernel.h</text>
</a>
</g>
</g>
<!-- Node1&#45;&gt;Node4 -->
<g id="edge3" class="edge">
<title>Node1&#45;&gt;Node4</title>
<path fill="none" stroke="midnightblue" d="M209.8,-112.5C197.92,-102.72 183.76,-91.07 172.74,-82.01"/>
<polygon fill="midnightblue" stroke="midnightblue" points="174.96,-79.3 165.02,-75.65 170.51,-84.71 174.96,-79.3"/>
</g>
<!-- Node5 -->
<g id="node5" class="node">
<title>Node5</title>
<g id="a_node5"><a xlink:title=" ">
<polygon fill="none" stroke="#bfbfbf" points="202.5,-56.5 202.5,-75.5 264.5,-75.5 264.5,-56.5 202.5,-56.5"/>
<text text-anchor="middle" x="233.5" y="-63.5" font-family="Helvetica,sans-Serif" font-size="10.00">ntstrsafe.h</text>
</a>
</g>
</g>
<!-- Node1&#45;&gt;Node5 -->
<g id="edge4" class="edge">
<title>Node1&#45;&gt;Node5</title>
<path fill="none" stroke="midnightblue" d="M233.5,-112.5C233.5,-104.07 233.5,-94.24 233.5,-85.87"/>
<polygon fill="midnightblue" stroke="midnightblue" points="237,-85.65 233.5,-75.65 230,-85.65 237,-85.65"/>
</g>
<!-- Node6 -->
<g id="node6" class="node">
<title>Node6</title>
<g id="a_node6"><a xlink:href="_k___wpp_tracing_8hpp.html" target="_top" xlink:title="WppTracing header.">
<polygon fill="none" stroke="black" points="283,-56.5 283,-75.5 382,-75.5 382,-56.5 283,-56.5"/>
<text text-anchor="middle" x="332.5" y="-63.5" font-family="Helvetica,sans-Serif" font-size="10.00">K_WppTracing.hpp</text>
</a>
</g>
</g>
<!-- Node1&#45;&gt;Node6 -->
<g id="edge5" class="edge">
<title>Node1&#45;&gt;Node6</title>
<path fill="none" stroke="midnightblue" d="M263.2,-112.5C278.53,-102.44 296.88,-90.38 310.85,-81.21"/>
<polygon fill="midnightblue" stroke="midnightblue" points="312.88,-84.07 319.32,-75.65 309.04,-78.22 312.88,-84.07"/>
</g>
<!-- Node7 -->
<g id="node7" class="node">
<title>Node7</title>
<g id="a_node7"><a xlink:href="_k___helper_8hpp.html" target="_top" xlink:title="Header for K_Helper.cpp.">
<polygon fill="none" stroke="black" points="400,-56.5 400,-75.5 475,-75.5 475,-56.5 400,-56.5"/>
<text text-anchor="middle" x="437.5" y="-63.5" font-family="Helvetica,sans-Serif" font-size="10.00">K_Helper.hpp</text>
</a>
</g>
</g>
<!-- Node1&#45;&gt;Node7 -->
<g id="edge6" class="edge">
<title>Node1&#45;&gt;Node7</title>
<path fill="none" stroke="midnightblue" d="M288.46,-112.5C322.39,-101.4 365.16,-87.87 396.22,-78.47"/>
<polygon fill="midnightblue" stroke="midnightblue" points="397.3,-81.8 405.87,-75.57 395.28,-75.09 397.3,-81.8"/>
</g>
<!-- Node7&#45;&gt;Node1 -->
<g id="edge7" class="edge">
<title>Node7&#45;&gt;Node1</title>
<path fill="none" stroke="midnightblue" d="M415.11,-75.65C389.98,-84.24 348.07,-97.77 310.81,-109.42"/>
<polygon fill="midnightblue" stroke="midnightblue" points="309.46,-106.18 300.95,-112.5 311.54,-112.86 309.46,-106.18"/>
</g>
<!-- Node8 -->
<g id="node8" class="node">
<title>Node8</title>
<g id="a_node8"><a xlink:href="_shared_defs_8hpp.html" target="_top" xlink:title="Header file which contains the structures, type definitions, constants, global variablesand function ...">
<polygon fill="none" stroke="black" points="304.5,-0.5 304.5,-19.5 452.5,-19.5 452.5,-0.5 304.5,-0.5"/>
<text text-anchor="middle" x="378.5" y="-7.5" font-family="Helvetica,sans-Serif" font-size="10.00">../SharedDefs/SharedDefs.hpp</text>
</a>
</g>
</g>
<!-- Node7&#45;&gt;Node8 -->
<g id="edge8" class="edge">
<title>Node7&#45;&gt;Node8</title>
<path fill="none" stroke="midnightblue" d="M428.02,-56.32C419.3,-48.34 406.16,-36.31 395.6,-26.65"/>
<polygon fill="midnightblue" stroke="midnightblue" points="397.89,-24 388.15,-19.83 393.17,-29.17 397.89,-24"/>
</g>
<!-- Node9 -->
<g id="node9" class="node">
<title>Node9</title>
<g id="a_node9"><a xlink:title=" ">
<polygon fill="none" stroke="#bfbfbf" points="470.5,-0.5 470.5,-19.5 522.5,-19.5 522.5,-0.5 470.5,-0.5"/>
<text text-anchor="middle" x="496.5" y="-7.5" font-family="Helvetica,sans-Serif" font-size="10.00">bcrypt.h</text>
</a>
</g>
</g>
<!-- Node7&#45;&gt;Node9 -->
<g id="edge9" class="edge">
<title>Node7&#45;&gt;Node9</title>
<path fill="none" stroke="midnightblue" d="M446.98,-56.32C455.7,-48.34 468.84,-36.31 479.4,-26.65"/>
<polygon fill="midnightblue" stroke="midnightblue" points="481.83,-29.17 486.85,-19.83 477.11,-24 481.83,-29.17"/>
</g>
</g>
</svg>
