<?xml version="1.0" encoding="UTF-8" standalone="no"?>
<!DOCTYPE svg PUBLIC "-//W3C//DTD SVG 1.1//EN"
 "http://www.w3.org/Graphics/SVG/1.1/DTD/svg11.dtd">
<!-- Generated by graphviz version 5.0.0 (20220707.1540)
 -->
<!-- Title: K_Communication.hpp Pages: 1 -->
<svg width="372pt" height="196pt"
 viewBox="0.00 0.00 371.50 196.00" xmlns="http://www.w3.org/2000/svg" xmlns:xlink="http://www.w3.org/1999/xlink">
<g id="graph0" class="graph" transform="scale(1 1) rotate(0) translate(4 192)">
<title>K_Communication.hpp</title>
<!-- Node1 -->
<g id="node1" class="node">
<title>Node1</title>
<g id="a_node1"><a xlink:title="Header for K_Communication.cpp.">
<polygon fill="#bfbfbf" stroke="black" points="110,-168.5 110,-187.5 225,-187.5 225,-168.5 110,-168.5"/>
<text text-anchor="middle" x="167.5" y="-175.5" font-family="Helvetica,sans-Serif" font-size="10.00">K_Communication.hpp</text>
</a>
</g>
</g>
<!-- Node2 -->
<g id="node2" class="node">
<title>Node2</title>
<g id="a_node2"><a xlink:href="_k___communication_8cpp.html" target="_top" xlink:title="Create the communication server, send data to the user&#45;mode service once a client is connected.">
<polygon fill="none" stroke="black" points="0,-112.5 0,-131.5 115,-131.5 115,-112.5 0,-112.5"/>
<text text-anchor="middle" x="57.5" y="-119.5" font-family="Helvetica,sans-Serif" font-size="10.00">K_Communication.cpp</text>
</a>
</g>
</g>
<!-- Node1&#45;&gt;Node2 -->
<g id="edge1" class="edge">
<title>Node1&#45;&gt;Node2</title>
<path fill="none" stroke="midnightblue" d="M140.74,-163.86C120.34,-153.85 92.83,-140.35 75.13,-131.65"/>
<polygon fill="midnightblue" stroke="midnightblue" points="139.31,-167.06 149.83,-168.32 142.39,-160.78 139.31,-167.06"/>
</g>
<!-- Node3 -->
<g id="node3" class="node">
<title>Node3</title>
<g id="a_node3"><a xlink:href="_k___filter_8hpp.html" target="_top" xlink:title="Header for K_Filter.cpp.">
<polygon fill="none" stroke="black" points="133,-112.5 133,-131.5 202,-131.5 202,-112.5 133,-112.5"/>
<text text-anchor="middle" x="167.5" y="-119.5" font-family="Helvetica,sans-Serif" font-size="10.00">K_Filter.hpp</text>
</a>
</g>
</g>
<!-- Node1&#45;&gt;Node3 -->
<g id="edge2" class="edge">
<title>Node1&#45;&gt;Node3</title>
<path fill="none" stroke="midnightblue" d="M167.5,-157.8C167.5,-148.91 167.5,-138.78 167.5,-131.75"/>
<polygon fill="midnightblue" stroke="midnightblue" points="164,-158.08 167.5,-168.08 171,-158.08 164,-158.08"/>
</g>
<!-- Node7 -->
<g id="node7" class="node">
<title>Node7</title>
<g id="a_node7"><a xlink:href="_k___ob_callback_8hpp.html" target="_top" xlink:title="Header for K_ObCallback.cpp.">
<polygon fill="none" stroke="black" points="220.5,-112.5 220.5,-131.5 318.5,-131.5 318.5,-112.5 220.5,-112.5"/>
<text text-anchor="middle" x="269.5" y="-119.5" font-family="Helvetica,sans-Serif" font-size="10.00">K_ObCallback.hpp</text>
</a>
</g>
</g>
<!-- Node1&#45;&gt;Node7 -->
<g id="edge6" class="edge">
<title>Node1&#45;&gt;Node7</title>
<path fill="none" stroke="midnightblue" d="M192.83,-163.59C211.69,-153.61 236.88,-140.27 253.15,-131.65"/>
<polygon fill="midnightblue" stroke="midnightblue" points="191.09,-160.55 183.89,-168.32 194.36,-166.74 191.09,-160.55"/>
</g>
<!-- Node4 -->
<g id="node4" class="node">
<title>Node4</title>
<g id="a_node4"><a xlink:href="_k___driver_8hpp.html" target="_top" xlink:title="Header for K_Driver.cpp.">
<polygon fill="none" stroke="black" points="176,-56.5 176,-75.5 247,-75.5 247,-56.5 176,-56.5"/>
<text text-anchor="middle" x="211.5" y="-63.5" font-family="Helvetica,sans-Serif" font-size="10.00">K_Driver.hpp</text>
</a>
</g>
</g>
<!-- Node3&#45;&gt;Node4 -->
<g id="edge3" class="edge">
<title>Node3&#45;&gt;Node4</title>
<path fill="none" stroke="midnightblue" d="M181.23,-104.14C188.9,-94.74 198.13,-83.4 204.37,-75.75"/>
<polygon fill="midnightblue" stroke="midnightblue" points="178.37,-102.12 174.77,-112.08 183.8,-106.54 178.37,-102.12"/>
</g>
<!-- Node6 -->
<g id="node6" class="node">
<title>Node6</title>
<g id="a_node6"><a xlink:href="_k___filter_8cpp.html" target="_top" xlink:title="Initialize filter object used by the communication.">
<polygon fill="none" stroke="black" points="89,-56.5 89,-75.5 158,-75.5 158,-56.5 89,-56.5"/>
<text text-anchor="middle" x="123.5" y="-63.5" font-family="Helvetica,sans-Serif" font-size="10.00">K_Filter.cpp</text>
</a>
</g>
</g>
<!-- Node3&#45;&gt;Node6 -->
<g id="edge5" class="edge">
<title>Node3&#45;&gt;Node6</title>
<path fill="none" stroke="midnightblue" d="M153.77,-104.14C146.1,-94.74 136.87,-83.4 130.63,-75.75"/>
<polygon fill="midnightblue" stroke="midnightblue" points="151.2,-106.54 160.23,-112.08 156.63,-102.12 151.2,-106.54"/>
</g>
<!-- Node5 -->
<g id="node5" class="node">
<title>Node5</title>
<g id="a_node5"><a xlink:href="_k___driver_8cpp.html" target="_top" xlink:title="Entrypoint of the driver, unload routine.">
<polygon fill="none" stroke="black" points="176,-0.5 176,-19.5 247,-19.5 247,-0.5 176,-0.5"/>
<text text-anchor="middle" x="211.5" y="-7.5" font-family="Helvetica,sans-Serif" font-size="10.00">K_Driver.cpp</text>
</a>
</g>
</g>
<!-- Node4&#45;&gt;Node5 -->
<g id="edge4" class="edge">
<title>Node4&#45;&gt;Node5</title>
<path fill="none" stroke="midnightblue" d="M211.5,-45.8C211.5,-36.91 211.5,-26.78 211.5,-19.75"/>
<polygon fill="midnightblue" stroke="midnightblue" points="208,-46.08 211.5,-56.08 215,-46.08 208,-46.08"/>
</g>
<!-- Node7&#45;&gt;Node4 -->
<g id="edge7" class="edge">
<title>Node7&#45;&gt;Node4</title>
<path fill="none" stroke="midnightblue" d="M252.59,-105.25C242.3,-95.67 229.53,-83.79 220.99,-75.83"/>
<polygon fill="midnightblue" stroke="midnightblue" points="250.48,-108.07 260.18,-112.32 255.25,-102.95 250.48,-108.07"/>
</g>
<!-- Node8 -->
<g id="node8" class="node">
<title>Node8</title>
<g id="a_node8"><a xlink:href="_k___ob_callback_8cpp.html" target="_top" xlink:title="Handle request callback.">
<polygon fill="none" stroke="black" points="265.5,-56.5 265.5,-75.5 363.5,-75.5 363.5,-56.5 265.5,-56.5"/>
<text text-anchor="middle" x="314.5" y="-63.5" font-family="Helvetica,sans-Serif" font-size="10.00">K_ObCallback.cpp</text>
</a>
</g>
</g>
<!-- Node7&#45;&gt;Node8 -->
<g id="edge8" class="edge">
<title>Node7&#45;&gt;Node8</title>
<path fill="none" stroke="midnightblue" d="M283.55,-104.14C291.39,-94.74 300.83,-83.4 307.21,-75.75"/>
<polygon fill="midnightblue" stroke="midnightblue" points="280.64,-102.16 276.93,-112.08 286.02,-106.64 280.64,-102.16"/>
</g>
</g>
</svg>
