<?xml version="1.0" encoding="UTF-8" standalone="no"?>
<!DOCTYPE svg PUBLIC "-//W3C//DTD SVG 1.1//EN"
 "http://www.w3.org/Graphics/SVG/1.1/DTD/svg11.dtd">
<!-- Generated by graphviz version 4.0.0 (20220529.0937)
 -->
<!-- Title: C:/Users/admin&#45;cyb/Desktop/PI&#45;Defender/Sources/SharedDefs/SharedDefs.hpp Pages: 1 -->
<!--zoomable 673 -->
<svg id="main" version="1.1" xmlns="http://www.w3.org/2000/svg" xmlns:xlink="http://www.w3.org/1999/xlink" xml:space="preserve" onload="init(evt)">
<style type="text/css"><![CDATA[
.edge:hover path { stroke: red; }
.edge:hover polygon { stroke: red; fill: red; }
]]></style>
<script type="text/javascript"><![CDATA[
var edges = document.getElementsByTagName('g');
if (edges && edges.length) {
  for (var i=0;i<edges.length;i++) {
    if (edges[i].id.substr(0,4)=='edge') {
      edges[i].setAttribute('class','edge');
    }
  }
}
]]></script>
        <defs>
                <circle id="rim" cx="0" cy="0" r="7"/>
                <circle id="rim2" cx="0" cy="0" r="3.5"/>
                <g id="zoomPlus">
                        <use xlink:href="#rim" fill="#404040">
                                <set attributeName="fill" to="#808080" begin="zoomplus.mouseover" end="zoomplus.mouseout"/>
                        </use>
                        <path d="M-4,0h8M0,-4v8" fill="none" stroke="white" stroke-width="1.5" pointer-events="none"/>
                </g>
                <g id="zoomMin">
                        <use xlink:href="#rim" fill="#404040">
                                <set attributeName="fill" to="#808080" begin="zoomminus.mouseover" end="zoomminus.mouseout"/>
                        </use>
                        <path d="M-4,0h8" fill="none" stroke="white" stroke-width="1.5" pointer-events="none"/>
                </g>
                <g id="dirArrow">
                        <path fill="none" stroke="white" stroke-width="1.5" d="M0,-3.0v7 M-2.5,-0.5L0,-3.0L2.5,-0.5"/>
                </g>
               <g id="resetDef">
                       <use xlink:href="#rim2" fill="#404040">
                               <set attributeName="fill" to="#808080" begin="reset.mouseover" end="reset.mouseout"/>
                       </use>
               </g>
        </defs>

<script type="text/javascript">
var viewWidth = 1425;
var viewHeight = 673;
var sectionId = 'dynsection-0';
</script>
<script xlink:href="svgpan.js"/>
<svg id="graph" class="graph">
<g id="viewport">
<title>C:/Users/admin&#45;cyb/Desktop/PI&#45;Defender/Sources/SharedDefs/SharedDefs.hpp</title>
<!-- Node1 -->
<g id="node1" class="node">
<title>Node1</title>
<g id="a_node1"><a xlink:title="Header file which contains the structures, type definitions, constants, global variablesand function ...">
<polygon fill="#bfbfbf" stroke="black" points="342.52,-623.5 342.52,-664.5 523.52,-664.5 523.52,-623.5 342.52,-623.5"/>
<text text-anchor="start" x="350.52" y="-652.5" font-family="Helvetica,sans-Serif" font-size="10.00">C:/Users/admin&#45;cyb</text>
<text text-anchor="start" x="350.52" y="-641.5" font-family="Helvetica,sans-Serif" font-size="10.00">/Desktop/PI&#45;Defender</text>
<text text-anchor="middle" x="433.02" y="-630.5" font-family="Helvetica,sans-Serif" font-size="10.00">/Sources/SharedDefs/SharedDefs.hpp</text>
</a>
</g>
</g>
<!-- Node2 -->
<g id="node2" class="node">
<title>Node2</title>
<g id="a_node2"><a xlink:href="_k___communication_8hpp.html" target="_top" xlink:title="Header for K_Communication.cpp.">
<polygon fill="none" stroke="black" points="64.02,-356.5 64.02,-408.5 182.02,-408.5 182.02,-356.5 64.02,-356.5"/>
<text text-anchor="start" x="72.02" y="-396.5" font-family="Helvetica,sans-Serif" font-size="10.00">C:/Users/admin&#45;cyb</text>
<text text-anchor="start" x="72.02" y="-385.5" font-family="Helvetica,sans-Serif" font-size="10.00">/Desktop/PI&#45;Defender</text>
<text text-anchor="start" x="72.02" y="-374.5" font-family="Helvetica,sans-Serif" font-size="10.00">/Sources/PI&#45;Defender</text>
<text text-anchor="middle" x="123.02" y="-363.5" font-family="Helvetica,sans-Serif" font-size="10.00">/K_Communication.hpp</text>
</a>
</g>
</g>
<!-- Node1&#45;&gt;Node2 -->
<g id="edge1" class="edge">
<title>Node1&#45;&gt;Node2</title>
<path fill="none" stroke="midnightblue" d="M401.77,-616.84C342.02,-566.83 212.31,-458.24 153.32,-408.86"/>
<polygon fill="midnightblue" stroke="midnightblue" points="399.81,-619.76 409.72,-623.5 404.3,-614.39 399.81,-619.76"/>
</g>
<!-- Node10 -->
<g id="node10" class="node">
<title>Node10</title>
<g id="a_node10"><a xlink:href="_k___utilitaire_8hpp.html" target="_top" xlink:title="Header for K_Utilitaire.cpp.">
<polygon fill="none" stroke="black" points="378.52,-534.5 378.52,-586.5 487.52,-586.5 487.52,-534.5 378.52,-534.5"/>
<text text-anchor="start" x="386.52" y="-574.5" font-family="Helvetica,sans-Serif" font-size="10.00">C:/Users/admin&#45;cyb</text>
<text text-anchor="start" x="386.52" y="-563.5" font-family="Helvetica,sans-Serif" font-size="10.00">/Desktop/PI&#45;Defender</text>
<text text-anchor="start" x="386.52" y="-552.5" font-family="Helvetica,sans-Serif" font-size="10.00">/Sources/PI&#45;Defender</text>
<text text-anchor="middle" x="433.02" y="-541.5" font-family="Helvetica,sans-Serif" font-size="10.00">/K_Utilitaire.hpp</text>
</a>
</g>
</g>
<!-- Node1&#45;&gt;Node10 -->
<g id="edge10" class="edge">
<title>Node1&#45;&gt;Node10</title>
<path fill="none" stroke="midnightblue" d="M433.02,-613.12C433.02,-604.41 433.02,-594.99 433.02,-586.61"/>
<polygon fill="midnightblue" stroke="midnightblue" points="429.52,-613.27 433.02,-623.27 436.52,-613.27 429.52,-613.27"/>
</g>
<!-- Node19 -->
<g id="node19" class="node">
<title>Node19</title>
<g id="a_node19"><a xlink:href="_u___communication_8hpp.html" target="_top" xlink:title="Header for U_Communication.cpp.">
<polygon fill="none" stroke="black" points="1042.02,-534.5 1042.02,-586.5 1180.02,-586.5 1180.02,-534.5 1042.02,-534.5"/>
<text text-anchor="start" x="1050.02" y="-574.5" font-family="Helvetica,sans-Serif" font-size="10.00">C:/Users/admin&#45;cyb</text>
<text text-anchor="start" x="1050.02" y="-563.5" font-family="Helvetica,sans-Serif" font-size="10.00">/Desktop/PI&#45;Defender</text>
<text text-anchor="start" x="1050.02" y="-552.5" font-family="Helvetica,sans-Serif" font-size="10.00">/Sources/PI&#45;Defender</text>
<text text-anchor="middle" x="1111.02" y="-541.5" font-family="Helvetica,sans-Serif" font-size="10.00">_UM/U_Communication.hpp</text>
</a>
</g>
</g>
<!-- Node1&#45;&gt;Node19 -->
<g id="edge31" class="edge">
<title>Node1&#45;&gt;Node19</title>
<path fill="none" stroke="midnightblue" d="M534.02,-630.86C673.55,-614.09 921.63,-584.27 1041.87,-569.81"/>
<polygon fill="midnightblue" stroke="midnightblue" points="533.27,-627.42 523.75,-632.09 534.1,-634.37 533.27,-627.42"/>
</g>
<!-- Node3 -->
<g id="node3" class="node">
<title>Node3</title>
<g id="a_node3"><a xlink:href="_k___communication_8cpp.html" target="_top" xlink:title="Create the communication server, send data to the user&#45;mode service once a client is connected.">
<polygon fill="none" stroke="black" points="26.02,-267.5 26.02,-319.5 144.02,-319.5 144.02,-267.5 26.02,-267.5"/>
<text text-anchor="start" x="34.02" y="-307.5" font-family="Helvetica,sans-Serif" font-size="10.00">C:/Users/admin&#45;cyb</text>
<text text-anchor="start" x="34.02" y="-296.5" font-family="Helvetica,sans-Serif" font-size="10.00">/Desktop/PI&#45;Defender</text>
<text text-anchor="start" x="34.02" y="-285.5" font-family="Helvetica,sans-Serif" font-size="10.00">/Sources/PI&#45;Defender</text>
<text text-anchor="middle" x="85.02" y="-274.5" font-family="Helvetica,sans-Serif" font-size="10.00">/K_Communication.cpp</text>
</a>
</g>
</g>
<!-- Node2&#45;&gt;Node3 -->
<g id="edge2" class="edge">
<title>Node2&#45;&gt;Node3</title>
<path fill="none" stroke="midnightblue" d="M107.98,-347.06C103.97,-337.9 99.73,-328.17 95.99,-319.61"/>
<polygon fill="midnightblue" stroke="midnightblue" points="104.82,-348.57 112.03,-356.34 111.23,-345.77 104.82,-348.57"/>
</g>
<!-- Node4 -->
<g id="node4" class="node">
<title>Node4</title>
<g id="a_node4"><a xlink:href="_k___filter_8hpp.html" target="_top" xlink:title="Header for K_Filter.cpp.">
<polygon fill="none" stroke="black" points="114.52,-178.5 114.52,-230.5 223.52,-230.5 223.52,-178.5 114.52,-178.5"/>
<text text-anchor="start" x="122.52" y="-218.5" font-family="Helvetica,sans-Serif" font-size="10.00">C:/Users/admin&#45;cyb</text>
<text text-anchor="start" x="122.52" y="-207.5" font-family="Helvetica,sans-Serif" font-size="10.00">/Desktop/PI&#45;Defender</text>
<text text-anchor="start" x="122.52" y="-196.5" font-family="Helvetica,sans-Serif" font-size="10.00">/Sources/PI&#45;Defender</text>
<text text-anchor="middle" x="169.02" y="-185.5" font-family="Helvetica,sans-Serif" font-size="10.00">/K_Filter.hpp</text>
</a>
</g>
</g>
<!-- Node2&#45;&gt;Node4 -->
<g id="edge3" class="edge">
<title>Node2&#45;&gt;Node4</title>
<path fill="none" stroke="midnightblue" d="M142.12,-347.17C146.27,-338.51 150.24,-329.09 153.02,-320 162.16,-290.05 166.11,-254.09 167.79,-230.56"/>
<polygon fill="midnightblue" stroke="midnightblue" points="138.94,-345.7 137.6,-356.2 145.2,-348.83 138.94,-345.7"/>
</g>
<!-- Node8 -->
<g id="node8" class="node">
<title>Node8</title>
<g id="a_node8"><a xlink:href="_k___ob_callback_8hpp.html" target="_top" xlink:title="Header for K_ObCallback.cpp.">
<polygon fill="none" stroke="black" points="511.52,-178.5 511.52,-230.5 620.52,-230.5 620.52,-178.5 511.52,-178.5"/>
<text text-anchor="start" x="519.52" y="-218.5" font-family="Helvetica,sans-Serif" font-size="10.00">C:/Users/admin&#45;cyb</text>
<text text-anchor="start" x="519.52" y="-207.5" font-family="Helvetica,sans-Serif" font-size="10.00">/Desktop/PI&#45;Defender</text>
<text text-anchor="start" x="519.52" y="-196.5" font-family="Helvetica,sans-Serif" font-size="10.00">/Sources/PI&#45;Defender</text>
<text text-anchor="middle" x="566.02" y="-185.5" font-family="Helvetica,sans-Serif" font-size="10.00">/K_ObCallback.hpp</text>
</a>
</g>
</g>
<!-- Node2&#45;&gt;Node8 -->
<g id="edge7" class="edge">
<title>Node2&#45;&gt;Node8</title>
<path fill="none" stroke="midnightblue" d="M162.67,-350.26C198.02,-324 252.2,-287.56 305.02,-267 387.97,-234.72 416.48,-255.59 502.02,-231 505.12,-230.11 508.28,-229.12 511.46,-228.07"/>
<polygon fill="midnightblue" stroke="midnightblue" points="160.43,-347.56 154.54,-356.37 164.63,-353.16 160.43,-347.56"/>
</g>
<!-- Node5 -->
<g id="node5" class="node">
<title>Node5</title>
<g id="a_node5"><a xlink:href="_k___driver_8hpp.html" target="_top" xlink:title="Header for K_Driver.cpp.">
<polygon fill="none" stroke="black" points="257.52,-89.5 257.52,-141.5 366.52,-141.5 366.52,-89.5 257.52,-89.5"/>
<text text-anchor="start" x="265.52" y="-129.5" font-family="Helvetica,sans-Serif" font-size="10.00">C:/Users/admin&#45;cyb</text>
<text text-anchor="start" x="265.52" y="-118.5" font-family="Helvetica,sans-Serif" font-size="10.00">/Desktop/PI&#45;Defender</text>
<text text-anchor="start" x="265.52" y="-107.5" font-family="Helvetica,sans-Serif" font-size="10.00">/Sources/PI&#45;Defender</text>
<text text-anchor="middle" x="312.02" y="-96.5" font-family="Helvetica,sans-Serif" font-size="10.00">/K_Driver.hpp</text>
</a>
</g>
</g>
<!-- Node4&#45;&gt;Node5 -->
<g id="edge4" class="edge">
<title>Node4&#45;&gt;Node5</title>
<path fill="none" stroke="midnightblue" d="M219.04,-173.07C235.94,-162.79 254.61,-151.43 270.75,-141.61"/>
<polygon fill="midnightblue" stroke="midnightblue" points="217.11,-170.15 210.38,-178.34 220.74,-176.13 217.11,-170.15"/>
</g>
<!-- Node7 -->
<g id="node7" class="node">
<title>Node7</title>
<g id="a_node7"><a xlink:href="_k___filter_8cpp.html" target="_top" xlink:title="Initialize filter object used by the communication.">
<polygon fill="none" stroke="black" points="114.52,-89.5 114.52,-141.5 223.52,-141.5 223.52,-89.5 114.52,-89.5"/>
<text text-anchor="start" x="122.52" y="-129.5" font-family="Helvetica,sans-Serif" font-size="10.00">C:/Users/admin&#45;cyb</text>
<text text-anchor="start" x="122.52" y="-118.5" font-family="Helvetica,sans-Serif" font-size="10.00">/Desktop/PI&#45;Defender</text>
<text text-anchor="start" x="122.52" y="-107.5" font-family="Helvetica,sans-Serif" font-size="10.00">/Sources/PI&#45;Defender</text>
<text text-anchor="middle" x="169.02" y="-96.5" font-family="Helvetica,sans-Serif" font-size="10.00">/K_Filter.cpp</text>
</a>
</g>
</g>
<!-- Node4&#45;&gt;Node7 -->
<g id="edge6" class="edge">
<title>Node4&#45;&gt;Node7</title>
<path fill="none" stroke="midnightblue" d="M169.02,-168.19C169.02,-159.28 169.02,-149.9 169.02,-141.61"/>
<polygon fill="midnightblue" stroke="midnightblue" points="165.52,-168.34 169.02,-178.34 172.52,-168.34 165.52,-168.34"/>
</g>
<!-- Node6 -->
<g id="node6" class="node">
<title>Node6</title>
<g id="a_node6"><a xlink:href="_k___driver_8cpp.html" target="_top" xlink:title="Entrypoint of the driver, unload routine.">
<polygon fill="none" stroke="black" points="257.52,-0.5 257.52,-52.5 366.52,-52.5 366.52,-0.5 257.52,-0.5"/>
<text text-anchor="start" x="265.52" y="-40.5" font-family="Helvetica,sans-Serif" font-size="10.00">C:/Users/admin&#45;cyb</text>
<text text-anchor="start" x="265.52" y="-29.5" font-family="Helvetica,sans-Serif" font-size="10.00">/Desktop/PI&#45;Defender</text>
<text text-anchor="start" x="265.52" y="-18.5" font-family="Helvetica,sans-Serif" font-size="10.00">/Sources/PI&#45;Defender</text>
<text text-anchor="middle" x="312.02" y="-7.5" font-family="Helvetica,sans-Serif" font-size="10.00">/K_Driver.cpp</text>
</a>
</g>
</g>
<!-- Node5&#45;&gt;Node6 -->
<g id="edge5" class="edge">
<title>Node5&#45;&gt;Node6</title>
<path fill="none" stroke="midnightblue" d="M312.02,-79.19C312.02,-70.28 312.02,-60.9 312.02,-52.61"/>
<polygon fill="midnightblue" stroke="midnightblue" points="308.52,-79.34 312.02,-89.34 315.52,-79.34 308.52,-79.34"/>
</g>
<!-- Node8&#45;&gt;Node5 -->
<g id="edge8" class="edge">
<title>Node8&#45;&gt;Node5</title>
<path fill="none" stroke="midnightblue" d="M501.76,-177.99C450.81,-159.77 402.71,-144.35 366.81,-133.18"/>
<polygon fill="midnightblue" stroke="midnightblue" points="500.7,-181.33 511.3,-181.42 503.07,-174.74 500.7,-181.33"/>
</g>
<!-- Node9 -->
<g id="node9" class="node">
<title>Node9</title>
<g id="a_node9"><a xlink:href="_k___ob_callback_8cpp.html" target="_top" xlink:title="Handle request callback.">
<polygon fill="none" stroke="black" points="511.52,-89.5 511.52,-141.5 620.52,-141.5 620.52,-89.5 511.52,-89.5"/>
<text text-anchor="start" x="519.52" y="-129.5" font-family="Helvetica,sans-Serif" font-size="10.00">C:/Users/admin&#45;cyb</text>
<text text-anchor="start" x="519.52" y="-118.5" font-family="Helvetica,sans-Serif" font-size="10.00">/Desktop/PI&#45;Defender</text>
<text text-anchor="start" x="519.52" y="-107.5" font-family="Helvetica,sans-Serif" font-size="10.00">/Sources/PI&#45;Defender</text>
<text text-anchor="middle" x="566.02" y="-96.5" font-family="Helvetica,sans-Serif" font-size="10.00">/K_ObCallback.cpp</text>
</a>
</g>
</g>
<!-- Node8&#45;&gt;Node9 -->
<g id="edge9" class="edge">
<title>Node8&#45;&gt;Node9</title>
<path fill="none" stroke="midnightblue" d="M566.02,-168.19C566.02,-159.28 566.02,-149.9 566.02,-141.61"/>
<polygon fill="midnightblue" stroke="midnightblue" points="562.52,-168.34 566.02,-178.34 569.52,-168.34 562.52,-168.34"/>
</g>
<!-- Node10&#45;&gt;Node4 -->
<g id="edge11" class="edge">
<title>Node10&#45;&gt;Node4</title>
<path fill="none" stroke="midnightblue" d="M368.24,-549.42C285.6,-533.4 142.87,-494.71 55.02,-409 8.26,-363.38 -19.5,-321.17 17.02,-267 38.66,-234.9 80.21,-219.55 114.4,-212.21"/>
<polygon fill="midnightblue" stroke="midnightblue" points="367.79,-552.89 378.26,-551.31 369.08,-546.02 367.79,-552.89"/>
</g>
<!-- Node10&#45;&gt;Node8 -->
<g id="edge29" class="edge">
<title>Node10&#45;&gt;Node8</title>
<path fill="none" stroke="midnightblue" d="M495.63,-529.67C545.3,-503.49 613.82,-461.44 660.02,-409 689.19,-375.89 693.98,-362.97 704.02,-320 709.38,-297.06 716.85,-286.76 704.02,-267 685.6,-238.62 650.7,-223.22 620.61,-214.94"/>
<polygon fill="midnightblue" stroke="midnightblue" points="493.85,-526.66 486.59,-534.38 497.08,-532.87 493.85,-526.66"/>
</g>
<!-- Node11 -->
<g id="node11" class="node">
<title>Node11</title>
<g id="a_node11"><a xlink:href="_k___global_header_8hpp.html" target="_top" xlink:title="Header used by several .cpp files.">
<polygon fill="none" stroke="black" points="378.52,-445.5 378.52,-497.5 487.52,-497.5 487.52,-445.5 378.52,-445.5"/>
<text text-anchor="start" x="386.52" y="-485.5" font-family="Helvetica,sans-Serif" font-size="10.00">C:/Users/admin&#45;cyb</text>
<text text-anchor="start" x="386.52" y="-474.5" font-family="Helvetica,sans-Serif" font-size="10.00">/Desktop/PI&#45;Defender</text>
<text text-anchor="start" x="386.52" y="-463.5" font-family="Helvetica,sans-Serif" font-size="10.00">/Sources/PI&#45;Defender</text>
<text text-anchor="middle" x="433.02" y="-452.5" font-family="Helvetica,sans-Serif" font-size="10.00">/K_GlobalHeader.hpp</text>
</a>
</g>
</g>
<!-- Node10&#45;&gt;Node11 -->
<g id="edge12" class="edge">
<title>Node10&#45;&gt;Node11</title>
<path fill="none" stroke="midnightblue" d="M426.38,-524.19C426.14,-515.28 426.29,-505.9 426.84,-497.61"/>
<polygon fill="midnightblue" stroke="midnightblue" points="422.89,-524.5 426.83,-534.34 429.88,-524.19 422.89,-524.5"/>
</g>
<!-- Node18 -->
<g id="node18" class="node">
<title>Node18</title>
<g id="a_node18"><a xlink:href="_k___utilitaire_8cpp.html" target="_top" xlink:title="Help functions used by several .cpp files.">
<polygon fill="none" stroke="black" points="772.52,-445.5 772.52,-497.5 881.52,-497.5 881.52,-445.5 772.52,-445.5"/>
<text text-anchor="start" x="780.52" y="-485.5" font-family="Helvetica,sans-Serif" font-size="10.00">C:/Users/admin&#45;cyb</text>
<text text-anchor="start" x="780.52" y="-474.5" font-family="Helvetica,sans-Serif" font-size="10.00">/Desktop/PI&#45;Defender</text>
<text text-anchor="start" x="780.52" y="-463.5" font-family="Helvetica,sans-Serif" font-size="10.00">/Sources/PI&#45;Defender</text>
<text text-anchor="middle" x="827.02" y="-452.5" font-family="Helvetica,sans-Serif" font-size="10.00">/K_Utilitaire.cpp</text>
</a>
</g>
</g>
<!-- Node10&#45;&gt;Node18 -->
<g id="edge30" class="edge">
<title>Node10&#45;&gt;Node18</title>
<path fill="none" stroke="midnightblue" d="M497.98,-550.48C564.12,-540.53 669.25,-522.62 758.02,-498 762.7,-496.7 767.51,-495.23 772.3,-493.66"/>
<polygon fill="midnightblue" stroke="midnightblue" points="497.09,-547.07 487.71,-552 498.12,-554 497.09,-547.07"/>
</g>
<!-- Node11&#45;&gt;Node2 -->
<g id="edge20" class="edge">
<title>Node11&#45;&gt;Node2</title>
<path fill="none" stroke="midnightblue" d="M368.15,-455.19C320.29,-443.53 253.74,-426.54 196.02,-409 191.52,-407.63 186.89,-406.16 182.25,-404.65"/>
<polygon fill="midnightblue" stroke="midnightblue" points="367.52,-458.64 378.07,-457.6 369.17,-451.84 367.52,-458.64"/>
</g>
<!-- Node11&#45;&gt;Node4 -->
<g id="edge23" class="edge">
<title>Node11&#45;&gt;Node4</title>
<path fill="none" stroke="midnightblue" d="M368.13,-465.79C324.85,-459.34 269.58,-444.22 234.02,-409 184.48,-359.93 172.65,-273.18 169.86,-230.56"/>
<polygon fill="midnightblue" stroke="midnightblue" points="367.91,-469.29 378.29,-467.18 368.86,-462.35 367.91,-469.29"/>
</g>
<!-- Node11&#45;&gt;Node5 -->
<g id="edge22" class="edge">
<title>Node11&#45;&gt;Node5</title>
<path fill="none" stroke="midnightblue" d="M369.67,-444.67C353.74,-435.51 338.06,-423.72 327.02,-409 266.29,-328.06 290.91,-196.21 304.89,-141.51"/>
<polygon fill="midnightblue" stroke="midnightblue" points="368.05,-447.78 378.51,-449.5 371.41,-441.64 368.05,-447.78"/>
</g>
<!-- Node11&#45;&gt;Node8 -->
<g id="edge24" class="edge">
<title>Node11&#45;&gt;Node8</title>
<path fill="none" stroke="midnightblue" d="M497.84,-459.44C536.08,-450.54 583.9,-435.07 620.02,-409 659.95,-380.18 670.57,-366.76 686.02,-320 693.41,-297.63 698.3,-287.1 686.02,-267 671.68,-243.53 645.22,-228.65 620.79,-219.42"/>
<polygon fill="midnightblue" stroke="midnightblue" points="496.83,-456.08 487.83,-461.67 498.35,-462.91 496.83,-456.08"/>
</g>
<!-- Node11&#45;&gt;Node10 -->
<g id="edge25" class="edge">
<title>Node11&#45;&gt;Node10</title>
<path fill="none" stroke="midnightblue" d="M439.66,-507.75C439.9,-516.65 439.75,-526.04 439.21,-534.34"/>
<polygon fill="midnightblue" stroke="midnightblue" points="443.15,-507.44 439.2,-497.61 436.16,-507.76 443.15,-507.44"/>
</g>
<!-- Node12 -->
<g id="node12" class="node">
<title>Node12</title>
<g id="a_node12"><a xlink:href="_k___cache_8hpp.html" target="_top" xlink:title="Header for K_Cache.cpp.">
<polygon fill="none" stroke="black" points="502.52,-356.5 502.52,-408.5 611.52,-408.5 611.52,-356.5 502.52,-356.5"/>
<text text-anchor="start" x="510.52" y="-396.5" font-family="Helvetica,sans-Serif" font-size="10.00">C:/Users/admin&#45;cyb</text>
<text text-anchor="start" x="510.52" y="-385.5" font-family="Helvetica,sans-Serif" font-size="10.00">/Desktop/PI&#45;Defender</text>
<text text-anchor="start" x="510.52" y="-374.5" font-family="Helvetica,sans-Serif" font-size="10.00">/Sources/PI&#45;Defender</text>
<text text-anchor="middle" x="557.02" y="-363.5" font-family="Helvetica,sans-Serif" font-size="10.00">/K_Cache.hpp</text>
</a>
</g>
</g>
<!-- Node11&#45;&gt;Node12 -->
<g id="edge13" class="edge">
<title>Node11&#45;&gt;Node12</title>
<path fill="none" stroke="midnightblue" d="M477.2,-439.5C491.64,-429.37 507.49,-418.25 521.23,-408.61"/>
<polygon fill="midnightblue" stroke="midnightblue" points="475.06,-436.73 468.89,-445.34 479.08,-442.46 475.06,-436.73"/>
</g>
<!-- Node14 -->
<g id="node14" class="node">
<title>Node14</title>
<g id="a_node14"><a xlink:href="_k___configuration_8hpp.html" target="_top" xlink:title="Header for K_Configuration.cpp.">
<polygon fill="none" stroke="black" points="441.52,-267.5 441.52,-319.5 550.52,-319.5 550.52,-267.5 441.52,-267.5"/>
<text text-anchor="start" x="449.52" y="-307.5" font-family="Helvetica,sans-Serif" font-size="10.00">C:/Users/admin&#45;cyb</text>
<text text-anchor="start" x="449.52" y="-296.5" font-family="Helvetica,sans-Serif" font-size="10.00">/Desktop/PI&#45;Defender</text>
<text text-anchor="start" x="449.52" y="-285.5" font-family="Helvetica,sans-Serif" font-size="10.00">/Sources/PI&#45;Defender</text>
<text text-anchor="middle" x="496.02" y="-274.5" font-family="Helvetica,sans-Serif" font-size="10.00">/K_Configuration.hpp</text>
</a>
</g>
</g>
<!-- Node11&#45;&gt;Node14 -->
<g id="edge21" class="edge">
<title>Node11&#45;&gt;Node14</title>
<path fill="none" stroke="midnightblue" d="M445.48,-435.69C457.73,-401.48 476.12,-350.1 487.01,-319.67"/>
<polygon fill="midnightblue" stroke="midnightblue" points="442.12,-434.69 442.05,-445.28 448.71,-437.05 442.12,-434.69"/>
</g>
<!-- Node16 -->
<g id="node16" class="node">
<title>Node16</title>
<g id="a_node16"><a xlink:href="_k___whitelist_8hpp.html" target="_top" xlink:title="Header for K_Whitelist.cpp.">
<polygon fill="none" stroke="black" points="336.52,-356.5 336.52,-408.5 445.52,-408.5 445.52,-356.5 336.52,-356.5"/>
<text text-anchor="start" x="344.52" y="-396.5" font-family="Helvetica,sans-Serif" font-size="10.00">C:/Users/admin&#45;cyb</text>
<text text-anchor="start" x="344.52" y="-385.5" font-family="Helvetica,sans-Serif" font-size="10.00">/Desktop/PI&#45;Defender</text>
<text text-anchor="start" x="344.52" y="-374.5" font-family="Helvetica,sans-Serif" font-size="10.00">/Sources/PI&#45;Defender</text>
<text text-anchor="middle" x="391.02" y="-363.5" font-family="Helvetica,sans-Serif" font-size="10.00">/K_Whitelist.hpp</text>
</a>
</g>
</g>
<!-- Node11&#45;&gt;Node16 -->
<g id="edge26" class="edge">
<title>Node11&#45;&gt;Node16</title>
<path fill="none" stroke="midnightblue" d="M416.39,-436.06C411.97,-426.9 407.27,-417.17 403.14,-408.61"/>
<polygon fill="midnightblue" stroke="midnightblue" points="413.37,-437.85 420.87,-445.34 419.68,-434.81 413.37,-437.85"/>
</g>
<!-- Node13 -->
<g id="node13" class="node">
<title>Node13</title>
<g id="a_node13"><a xlink:href="_k___cache_8cpp.html" target="_top" xlink:title="Store hash of signed and unsigned executable previously scanned.">
<polygon fill="none" stroke="black" points="568.52,-267.5 568.52,-319.5 677.52,-319.5 677.52,-267.5 568.52,-267.5"/>
<text text-anchor="start" x="576.52" y="-307.5" font-family="Helvetica,sans-Serif" font-size="10.00">C:/Users/admin&#45;cyb</text>
<text text-anchor="start" x="576.52" y="-296.5" font-family="Helvetica,sans-Serif" font-size="10.00">/Desktop/PI&#45;Defender</text>
<text text-anchor="start" x="576.52" y="-285.5" font-family="Helvetica,sans-Serif" font-size="10.00">/Sources/PI&#45;Defender</text>
<text text-anchor="middle" x="623.02" y="-274.5" font-family="Helvetica,sans-Serif" font-size="10.00">/K_Cache.cpp</text>
</a>
</g>
</g>
<!-- Node12&#45;&gt;Node13 -->
<g id="edge14" class="edge">
<title>Node12&#45;&gt;Node13</title>
<path fill="none" stroke="midnightblue" d="M582.27,-348.22C589.48,-338.72 597.2,-328.53 603.97,-319.61"/>
<polygon fill="midnightblue" stroke="midnightblue" points="579.37,-346.25 576.11,-356.34 584.94,-350.48 579.37,-346.25"/>
</g>
<!-- Node12&#45;&gt;Node14 -->
<g id="edge15" class="edge">
<title>Node12&#45;&gt;Node14</title>
<path fill="none" stroke="midnightblue" d="M533.48,-347.93C526.88,-338.51 519.82,-328.44 513.62,-319.61"/>
<polygon fill="midnightblue" stroke="midnightblue" points="530.77,-350.16 539.38,-356.34 536.5,-346.14 530.77,-350.16"/>
</g>
<!-- Node14&#45;&gt;Node4 -->
<g id="edge18" class="edge">
<title>Node14&#45;&gt;Node4</title>
<path fill="none" stroke="midnightblue" d="M431.51,-267.03C354.28,-243.24 274.99,-226.02 223.55,-215.77"/>
<polygon fill="midnightblue" stroke="midnightblue" points="430.81,-270.48 441.4,-270.11 432.9,-263.79 430.81,-270.48"/>
</g>
<!-- Node14&#45;&gt;Node5 -->
<g id="edge17" class="edge">
<title>Node14&#45;&gt;Node5</title>
<path fill="none" stroke="midnightblue" d="M432.19,-264.23C408.15,-252.73 384.37,-240.05 375.02,-231 348.77,-205.6 330.62,-166.86 320.76,-141.61"/>
<polygon fill="midnightblue" stroke="midnightblue" points="430.85,-267.46 441.38,-268.56 433.83,-261.13 430.85,-267.46"/>
</g>
<!-- Node14&#45;&gt;Node8 -->
<g id="edge19" class="edge">
<title>Node14&#45;&gt;Node8</title>
<path fill="none" stroke="midnightblue" d="M522.57,-259.5C530.28,-249.92 538.57,-239.62 545.82,-230.61"/>
<polygon fill="midnightblue" stroke="midnightblue" points="519.81,-257.35 516.27,-267.34 525.26,-261.74 519.81,-257.35"/>
</g>
<!-- Node15 -->
<g id="node15" class="node">
<title>Node15</title>
<g id="a_node15"><a xlink:href="_k___configuration_8cpp.html" target="_top" xlink:title="Load the configuration of the driver.">
<polygon fill="none" stroke="black" points="384.52,-178.5 384.52,-230.5 493.52,-230.5 493.52,-178.5 384.52,-178.5"/>
<text text-anchor="start" x="392.52" y="-218.5" font-family="Helvetica,sans-Serif" font-size="10.00">C:/Users/admin&#45;cyb</text>
<text text-anchor="start" x="392.52" y="-207.5" font-family="Helvetica,sans-Serif" font-size="10.00">/Desktop/PI&#45;Defender</text>
<text text-anchor="start" x="392.52" y="-196.5" font-family="Helvetica,sans-Serif" font-size="10.00">/Sources/PI&#45;Defender</text>
<text text-anchor="middle" x="439.02" y="-185.5" font-family="Helvetica,sans-Serif" font-size="10.00">/K_Configuration.cpp</text>
</a>
</g>
</g>
<!-- Node14&#45;&gt;Node15 -->
<g id="edge16" class="edge">
<title>Node14&#45;&gt;Node15</title>
<path fill="none" stroke="midnightblue" d="M474.02,-258.93C467.86,-249.51 461.26,-239.44 455.47,-230.61"/>
<polygon fill="midnightblue" stroke="midnightblue" points="471.13,-260.89 479.53,-267.34 476.98,-257.05 471.13,-260.89"/>
</g>
<!-- Node16&#45;&gt;Node14 -->
<g id="edge27" class="edge">
<title>Node16&#45;&gt;Node14</title>
<path fill="none" stroke="midnightblue" d="M429.12,-349.93C441.16,-339.96 454.3,-329.07 465.72,-319.61"/>
<polygon fill="midnightblue" stroke="midnightblue" points="426.86,-347.26 421.39,-356.34 431.32,-352.65 426.86,-347.26"/>
</g>
<!-- Node17 -->
<g id="node17" class="node">
<title>Node17</title>
<g id="a_node17"><a xlink:href="_k___whitelist_8cpp.html" target="_top" xlink:title=" ">
<polygon fill="none" stroke="black" points="314.52,-267.5 314.52,-319.5 423.52,-319.5 423.52,-267.5 314.52,-267.5"/>
<text text-anchor="start" x="322.52" y="-307.5" font-family="Helvetica,sans-Serif" font-size="10.00">C:/Users/admin&#45;cyb</text>
<text text-anchor="start" x="322.52" y="-296.5" font-family="Helvetica,sans-Serif" font-size="10.00">/Desktop/PI&#45;Defender</text>
<text text-anchor="start" x="322.52" y="-285.5" font-family="Helvetica,sans-Serif" font-size="10.00">/Sources/PI&#45;Defender</text>
<text text-anchor="middle" x="369.02" y="-274.5" font-family="Helvetica,sans-Serif" font-size="10.00">/K_Whitelist.cpp</text>
</a>
</g>
</g>
<!-- Node16&#45;&gt;Node17 -->
<g id="edge28" class="edge">
<title>Node16&#45;&gt;Node17</title>
<path fill="none" stroke="midnightblue" d="M382.16,-346.48C379.89,-337.49 377.49,-327.99 375.37,-319.61"/>
<polygon fill="midnightblue" stroke="midnightblue" points="378.81,-347.5 384.66,-356.34 385.6,-345.78 378.81,-347.5"/>
</g>
<!-- Node20 -->
<g id="node20" class="node">
<title>Node20</title>
<g id="a_node20"><a xlink:href="_u___communication_8cpp.html" target="_top" xlink:title="Manage the communication with the driver (Connect|Reply|ListenerThread|WorkerThread)">
<polygon fill="none" stroke="black" points="900.02,-445.5 900.02,-497.5 1038.02,-497.5 1038.02,-445.5 900.02,-445.5"/>
<text text-anchor="start" x="908.02" y="-485.5" font-family="Helvetica,sans-Serif" font-size="10.00">C:/Users/admin&#45;cyb</text>
<text text-anchor="start" x="908.02" y="-474.5" font-family="Helvetica,sans-Serif" font-size="10.00">/Desktop/PI&#45;Defender</text>
<text text-anchor="start" x="908.02" y="-463.5" font-family="Helvetica,sans-Serif" font-size="10.00">/Sources/PI&#45;Defender</text>
<text text-anchor="middle" x="969.02" y="-452.5" font-family="Helvetica,sans-Serif" font-size="10.00">_UM/U_Communication.cpp</text>
</a>
</g>
</g>
<!-- Node19&#45;&gt;Node20 -->
<g id="edge32" class="edge">
<title>Node19&#45;&gt;Node20</title>
<path fill="none" stroke="midnightblue" d="M1061.35,-529.07C1044.57,-518.79 1026.03,-507.43 1010,-497.61"/>
<polygon fill="midnightblue" stroke="midnightblue" points="1059.59,-532.1 1069.95,-534.34 1063.25,-526.13 1059.59,-532.1"/>
</g>
<!-- Node21 -->
<g id="node21" class="node">
<title>Node21</title>
<g id="a_node21"><a xlink:href="_u___service_8hpp.html" target="_top" xlink:title="Header for U_Service.cpp.">
<polygon fill="none" stroke="black" points="1056.52,-445.5 1056.52,-497.5 1165.52,-497.5 1165.52,-445.5 1056.52,-445.5"/>
<text text-anchor="start" x="1064.52" y="-485.5" font-family="Helvetica,sans-Serif" font-size="10.00">C:/Users/admin&#45;cyb</text>
<text text-anchor="start" x="1064.52" y="-474.5" font-family="Helvetica,sans-Serif" font-size="10.00">/Desktop/PI&#45;Defender</text>
<text text-anchor="start" x="1064.52" y="-463.5" font-family="Helvetica,sans-Serif" font-size="10.00">/Sources/PI&#45;Defender</text>
<text text-anchor="middle" x="1111.02" y="-452.5" font-family="Helvetica,sans-Serif" font-size="10.00">_UM/U_Service.hpp</text>
</a>
</g>
</g>
<!-- Node19&#45;&gt;Node21 -->
<g id="edge33" class="edge">
<title>Node19&#45;&gt;Node21</title>
<path fill="none" stroke="midnightblue" d="M1104.38,-524.19C1104.14,-515.28 1104.29,-505.9 1104.84,-497.61"/>
<polygon fill="midnightblue" stroke="midnightblue" points="1100.89,-524.5 1104.83,-534.34 1107.88,-524.19 1100.89,-524.5"/>
</g>
<!-- Node21&#45;&gt;Node19 -->
<g id="edge34" class="edge">
<title>Node21&#45;&gt;Node19</title>
<path fill="none" stroke="midnightblue" d="M1117.66,-507.75C1117.9,-516.65 1117.75,-526.04 1117.21,-534.34"/>
<polygon fill="midnightblue" stroke="midnightblue" points="1121.15,-507.44 1117.2,-497.61 1114.16,-507.76 1121.15,-507.44"/>
</g>
<!-- Node22 -->
<g id="node22" class="node">
<title>Node22</title>
<g id="a_node22"><a xlink:href="_u___configuration_8hpp.html" target="_top" xlink:title="Header for U_Configuration.cpp.">
<polygon fill="none" stroke="black" points="934.52,-178.5 934.52,-230.5 1061.52,-230.5 1061.52,-178.5 934.52,-178.5"/>
<text text-anchor="start" x="942.52" y="-218.5" font-family="Helvetica,sans-Serif" font-size="10.00">C:/Users/admin&#45;cyb</text>
<text text-anchor="start" x="942.52" y="-207.5" font-family="Helvetica,sans-Serif" font-size="10.00">/Desktop/PI&#45;Defender</text>
<text text-anchor="start" x="942.52" y="-196.5" font-family="Helvetica,sans-Serif" font-size="10.00">/Sources/PI&#45;Defender</text>
<text text-anchor="middle" x="998.02" y="-185.5" font-family="Helvetica,sans-Serif" font-size="10.00">_UM/U_Configuration.hpp</text>
</a>
</g>
</g>
<!-- Node21&#45;&gt;Node22 -->
<g id="edge35" class="edge">
<title>Node21&#45;&gt;Node22</title>
<path fill="none" stroke="midnightblue" d="M1064.53,-438.59C1055.16,-429.67 1046.08,-419.52 1039.02,-409 1001.42,-352.96 992.06,-271.28 993.18,-230.55"/>
<polygon fill="midnightblue" stroke="midnightblue" points="1062.33,-441.31 1072.07,-445.46 1067.04,-436.14 1062.33,-441.31"/>
</g>
<!-- Node24 -->
<g id="node24" class="node">
<title>Node24</title>
<g id="a_node24"><a xlink:href="_u___service_8cpp.html" target="_top" xlink:title="Entrypoint of the process &amp; the service.">
<polygon fill="none" stroke="black" points="828.52,-356.5 828.52,-408.5 937.52,-408.5 937.52,-356.5 828.52,-356.5"/>
<text text-anchor="start" x="836.52" y="-396.5" font-family="Helvetica,sans-Serif" font-size="10.00">C:/Users/admin&#45;cyb</text>
<text text-anchor="start" x="836.52" y="-385.5" font-family="Helvetica,sans-Serif" font-size="10.00">/Desktop/PI&#45;Defender</text>
<text text-anchor="start" x="836.52" y="-374.5" font-family="Helvetica,sans-Serif" font-size="10.00">/Sources/PI&#45;Defender</text>
<text text-anchor="middle" x="883.02" y="-363.5" font-family="Helvetica,sans-Serif" font-size="10.00">_UM/U_Service.cpp</text>
</a>
</g>
</g>
<!-- Node21&#45;&gt;Node24 -->
<g id="edge38" class="edge">
<title>Node21&#45;&gt;Node24</title>
<path fill="none" stroke="midnightblue" d="M1046.7,-444.9C1005,-428.82 967.47,-414.75 937.79,-403.72"/>
<polygon fill="midnightblue" stroke="midnightblue" points="1045.65,-448.25 1056.24,-448.59 1048.17,-441.72 1045.65,-448.25"/>
</g>
<!-- Node25 -->
<g id="node25" class="node">
<title>Node25</title>
<g id="a_node25"><a xlink:href="_u___utilitaire_8hpp.html" target="_top" xlink:title="Header for U_Utilitaire.cpp.">
<polygon fill="none" stroke="black" points="1056.52,-356.5 1056.52,-408.5 1165.52,-408.5 1165.52,-356.5 1056.52,-356.5"/>
<text text-anchor="start" x="1064.52" y="-396.5" font-family="Helvetica,sans-Serif" font-size="10.00">C:/Users/admin&#45;cyb</text>
<text text-anchor="start" x="1064.52" y="-385.5" font-family="Helvetica,sans-Serif" font-size="10.00">/Desktop/PI&#45;Defender</text>
<text text-anchor="start" x="1064.52" y="-374.5" font-family="Helvetica,sans-Serif" font-size="10.00">/Sources/PI&#45;Defender</text>
<text text-anchor="middle" x="1111.02" y="-363.5" font-family="Helvetica,sans-Serif" font-size="10.00">_UM/U_Utilitaire.hpp</text>
</a>
</g>
</g>
<!-- Node21&#45;&gt;Node25 -->
<g id="edge39" class="edge">
<title>Node21&#45;&gt;Node25</title>
<path fill="none" stroke="midnightblue" d="M1104.38,-435.19C1104.14,-426.28 1104.29,-416.9 1104.84,-408.61"/>
<polygon fill="midnightblue" stroke="midnightblue" points="1100.89,-435.5 1104.83,-445.34 1107.88,-435.19 1100.89,-435.5"/>
</g>
<!-- Node22&#45;&gt;Node21 -->
<g id="edge37" class="edge">
<title>Node22&#45;&gt;Node21</title>
<path fill="none" stroke="midnightblue" d="M1005.71,-240.54C1011.65,-283.58 1022.29,-357.23 1057.02,-409 1065.96,-422.33 1078.17,-435.07 1088.83,-445.46"/>
<polygon fill="midnightblue" stroke="midnightblue" points="1009.17,-239.97 1004.33,-230.55 1002.23,-240.93 1009.17,-239.97"/>
</g>
<!-- Node23 -->
<g id="node23" class="node">
<title>Node23</title>
<g id="a_node23"><a xlink:href="_u___configuration_8cpp.html" target="_top" xlink:title="Set all the needed configuration for the driver and the user&#45;mode service.">
<polygon fill="none" stroke="black" points="934.52,-89.5 934.52,-141.5 1061.52,-141.5 1061.52,-89.5 934.52,-89.5"/>
<text text-anchor="start" x="942.52" y="-129.5" font-family="Helvetica,sans-Serif" font-size="10.00">C:/Users/admin&#45;cyb</text>
<text text-anchor="start" x="942.52" y="-118.5" font-family="Helvetica,sans-Serif" font-size="10.00">/Desktop/PI&#45;Defender</text>
<text text-anchor="start" x="942.52" y="-107.5" font-family="Helvetica,sans-Serif" font-size="10.00">/Sources/PI&#45;Defender</text>
<text text-anchor="middle" x="998.02" y="-96.5" font-family="Helvetica,sans-Serif" font-size="10.00">_UM/U_Configuration.cpp</text>
</a>
</g>
</g>
<!-- Node22&#45;&gt;Node23 -->
<g id="edge36" class="edge">
<title>Node22&#45;&gt;Node23</title>
<path fill="none" stroke="midnightblue" d="M998.02,-168.19C998.02,-159.28 998.02,-149.9 998.02,-141.61"/>
<polygon fill="midnightblue" stroke="midnightblue" points="994.52,-168.34 998.02,-178.34 1001.52,-168.34 994.52,-168.34"/>
</g>
<!-- Node25&#45;&gt;Node21 -->
<g id="edge50" class="edge">
<title>Node25&#45;&gt;Node21</title>
<path fill="none" stroke="midnightblue" d="M1117.66,-418.75C1117.9,-427.65 1117.75,-437.04 1117.21,-445.34"/>
<polygon fill="midnightblue" stroke="midnightblue" points="1121.15,-418.44 1117.2,-408.61 1114.16,-418.76 1121.15,-418.44"/>
</g>
<!-- Node25&#45;&gt;Node22 -->
<g id="edge40" class="edge">
<title>Node25&#45;&gt;Node22</title>
<path fill="none" stroke="midnightblue" d="M1068.83,-349.65C1059.1,-340.84 1049.44,-330.73 1042.02,-320 1022.89,-292.32 1010.61,-255.19 1004.02,-230.82"/>
<polygon fill="midnightblue" stroke="midnightblue" points="1066.77,-352.5 1076.61,-356.42 1071.37,-347.22 1066.77,-352.5"/>
</g>
<!-- Node26 -->
<g id="node26" class="node">
<title>Node26</title>
<g id="a_node26"><a xlink:href="_u___controller_8hpp.html" target="_top" xlink:title="Header for U_Controller.cpp.">
<polygon fill="none" stroke="black" points="1305.02,-267.5 1305.02,-319.5 1417.02,-319.5 1417.02,-267.5 1305.02,-267.5"/>
<text text-anchor="start" x="1313.02" y="-307.5" font-family="Helvetica,sans-Serif" font-size="10.00">C:/Users/admin&#45;cyb</text>
<text text-anchor="start" x="1313.02" y="-296.5" font-family="Helvetica,sans-Serif" font-size="10.00">/Desktop/PI&#45;Defender</text>
<text text-anchor="start" x="1313.02" y="-285.5" font-family="Helvetica,sans-Serif" font-size="10.00">/Sources/PI&#45;Defender</text>
<text text-anchor="middle" x="1361.02" y="-274.5" font-family="Helvetica,sans-Serif" font-size="10.00">_UM/U_Controller.hpp</text>
</a>
</g>
</g>
<!-- Node25&#45;&gt;Node26 -->
<g id="edge41" class="edge">
<title>Node25&#45;&gt;Node26</title>
<path fill="none" stroke="midnightblue" d="M1175.72,-360.92C1211.37,-349.35 1256.31,-334.38 1296.02,-320 1298.87,-318.97 1301.78,-317.89 1304.72,-316.8"/>
<polygon fill="midnightblue" stroke="midnightblue" points="1174.36,-357.68 1165.92,-364.09 1176.52,-364.34 1174.36,-357.68"/>
</g>
<!-- Node28 -->
<g id="node28" class="node">
<title>Node28</title>
<g id="a_node28"><a xlink:href="_u___logs_8hpp.html" target="_top" xlink:title="Header for U_Logs.cpp.">
<polygon fill="none" stroke="black" points="1177.52,-267.5 1177.52,-319.5 1286.52,-319.5 1286.52,-267.5 1177.52,-267.5"/>
<text text-anchor="start" x="1185.52" y="-307.5" font-family="Helvetica,sans-Serif" font-size="10.00">C:/Users/admin&#45;cyb</text>
<text text-anchor="start" x="1185.52" y="-296.5" font-family="Helvetica,sans-Serif" font-size="10.00">/Desktop/PI&#45;Defender</text>
<text text-anchor="start" x="1185.52" y="-285.5" font-family="Helvetica,sans-Serif" font-size="10.00">/Sources/PI&#45;Defender</text>
<text text-anchor="middle" x="1232.02" y="-274.5" font-family="Helvetica,sans-Serif" font-size="10.00">_UM/U_Logs.hpp</text>
</a>
</g>
</g>
<!-- Node25&#45;&gt;Node28 -->
<g id="edge44" class="edge">
<title>Node25&#45;&gt;Node28</title>
<path fill="none" stroke="midnightblue" d="M1148.02,-350.22C1161.59,-340.16 1177.01,-329.16 1190.92,-319.61"/>
<polygon fill="midnightblue" stroke="midnightblue" points="1145.75,-347.55 1139.83,-356.34 1149.94,-353.15 1145.75,-347.55"/>
</g>
<!-- Node30 -->
<g id="node30" class="node">
<title>Node30</title>
<g id="a_node30"><a xlink:href="_u___utilitaire_8cpp.html" target="_top" xlink:title="Help function used by several .cpp files.">
<polygon fill="none" stroke="black" points="1050.52,-267.5 1050.52,-319.5 1159.52,-319.5 1159.52,-267.5 1050.52,-267.5"/>
<text text-anchor="start" x="1058.52" y="-307.5" font-family="Helvetica,sans-Serif" font-size="10.00">C:/Users/admin&#45;cyb</text>
<text text-anchor="start" x="1058.52" y="-296.5" font-family="Helvetica,sans-Serif" font-size="10.00">/Desktop/PI&#45;Defender</text>
<text text-anchor="start" x="1058.52" y="-285.5" font-family="Helvetica,sans-Serif" font-size="10.00">/Sources/PI&#45;Defender</text>
<text text-anchor="middle" x="1105.02" y="-274.5" font-family="Helvetica,sans-Serif" font-size="10.00">_UM/U_Utilitaire.cpp</text>
</a>
</g>
</g>
<!-- Node25&#45;&gt;Node30 -->
<g id="edge51" class="edge">
<title>Node25&#45;&gt;Node30</title>
<path fill="none" stroke="midnightblue" d="M1108.59,-346.19C1107.97,-337.28 1107.32,-327.9 1106.75,-319.61"/>
<polygon fill="midnightblue" stroke="midnightblue" points="1105.1,-346.6 1109.28,-356.34 1112.09,-346.12 1105.1,-346.6"/>
</g>
<!-- Node26&#45;&gt;Node21 -->
<g id="edge43" class="edge">
<title>Node26&#45;&gt;Node21</title>
<path fill="none" stroke="midnightblue" d="M1319.55,-325.54C1288.11,-348.88 1243.7,-381.44 1204.02,-409 1186.37,-421.26 1166.55,-434.45 1149.75,-445.46"/>
<polygon fill="midnightblue" stroke="midnightblue" points="1321.72,-328.29 1327.65,-319.52 1317.54,-322.68 1321.72,-328.29"/>
</g>
<!-- Node27 -->
<g id="node27" class="node">
<title>Node27</title>
<g id="a_node27"><a xlink:href="_u___controller_8cpp.html" target="_top" xlink:title="Controll the service/driver (Install|Start|Stop|Delete|Query)">
<polygon fill="none" stroke="black" points="1305.02,-178.5 1305.02,-230.5 1417.02,-230.5 1417.02,-178.5 1305.02,-178.5"/>
<text text-anchor="start" x="1313.02" y="-218.5" font-family="Helvetica,sans-Serif" font-size="10.00">C:/Users/admin&#45;cyb</text>
<text text-anchor="start" x="1313.02" y="-207.5" font-family="Helvetica,sans-Serif" font-size="10.00">/Desktop/PI&#45;Defender</text>
<text text-anchor="start" x="1313.02" y="-196.5" font-family="Helvetica,sans-Serif" font-size="10.00">/Sources/PI&#45;Defender</text>
<text text-anchor="middle" x="1361.02" y="-185.5" font-family="Helvetica,sans-Serif" font-size="10.00">_UM/U_Controller.cpp</text>
</a>
</g>
</g>
<!-- Node26&#45;&gt;Node27 -->
<g id="edge42" class="edge">
<title>Node26&#45;&gt;Node27</title>
<path fill="none" stroke="midnightblue" d="M1361.02,-257.19C1361.02,-248.28 1361.02,-238.9 1361.02,-230.61"/>
<polygon fill="midnightblue" stroke="midnightblue" points="1357.52,-257.34 1361.02,-267.34 1364.52,-257.34 1357.52,-257.34"/>
</g>
<!-- Node28&#45;&gt;Node19 -->
<g id="edge45" class="edge">
<title>Node28&#45;&gt;Node19</title>
<path fill="none" stroke="midnightblue" d="M1228.32,-329.67C1222.51,-372.29 1208.27,-444.99 1175.02,-498 1166.59,-511.45 1154.58,-524.03 1143.24,-534.26"/>
<polygon fill="midnightblue" stroke="midnightblue" points="1231.82,-329.87 1229.62,-319.51 1224.88,-328.98 1231.82,-329.87"/>
</g>
<!-- Node28&#45;&gt;Node21 -->
<g id="edge48" class="edge">
<title>Node28&#45;&gt;Node21</title>
<path fill="none" stroke="midnightblue" d="M1218.61,-328.87C1208.5,-352.57 1193.28,-384.15 1175.02,-409 1165.35,-422.16 1152.71,-434.97 1141.23,-445.46"/>
<polygon fill="midnightblue" stroke="midnightblue" points="1221.87,-330.14 1222.49,-319.56 1215.41,-327.44 1221.87,-330.14"/>
</g>
<!-- Node28&#45;&gt;Node22 -->
<g id="edge46" class="edge">
<title>Node28&#45;&gt;Node22</title>
<path fill="none" stroke="midnightblue" d="M1168.01,-266.66C1127.94,-251.43 1091.54,-238.3 1061.58,-227.69"/>
<polygon fill="midnightblue" stroke="midnightblue" points="1166.85,-269.96 1177.44,-270.25 1169.34,-263.42 1166.85,-269.96"/>
</g>
<!-- Node28&#45;&gt;Node25 -->
<g id="edge49" class="edge">
<title>Node28&#45;&gt;Node25</title>
<path fill="none" stroke="midnightblue" d="M1195.1,-325.72C1181.53,-335.77 1166.12,-346.78 1152.2,-356.34"/>
<polygon fill="midnightblue" stroke="midnightblue" points="1197.37,-328.4 1203.28,-319.61 1193.18,-322.79 1197.37,-328.4"/>
</g>
<!-- Node29 -->
<g id="node29" class="node">
<title>Node29</title>
<g id="a_node29"><a xlink:href="_u___logs_8cpp.html" target="_top" xlink:title="Report Event to ETW.">
<polygon fill="none" stroke="black" points="1177.52,-178.5 1177.52,-230.5 1286.52,-230.5 1286.52,-178.5 1177.52,-178.5"/>
<text text-anchor="start" x="1185.52" y="-218.5" font-family="Helvetica,sans-Serif" font-size="10.00">C:/Users/admin&#45;cyb</text>
<text text-anchor="start" x="1185.52" y="-207.5" font-family="Helvetica,sans-Serif" font-size="10.00">/Desktop/PI&#45;Defender</text>
<text text-anchor="start" x="1185.52" y="-196.5" font-family="Helvetica,sans-Serif" font-size="10.00">/Sources/PI&#45;Defender</text>
<text text-anchor="middle" x="1232.02" y="-185.5" font-family="Helvetica,sans-Serif" font-size="10.00">_UM/U_Logs.cpp</text>
</a>
</g>
</g>
<!-- Node28&#45;&gt;Node29 -->
<g id="edge47" class="edge">
<title>Node28&#45;&gt;Node29</title>
<path fill="none" stroke="midnightblue" d="M1232.02,-257.19C1232.02,-248.28 1232.02,-238.9 1232.02,-230.61"/>
<polygon fill="midnightblue" stroke="midnightblue" points="1228.52,-257.34 1232.02,-267.34 1235.52,-257.34 1228.52,-257.34"/>
</g>
</g>
</svg>
        <g id="navigator" transform="translate(0 0)" fill="#404254">
                <rect fill="#f2f5e9" fill-opacity="0.5" stroke="#606060" stroke-width=".5" x="0" y="0" width="60" height="60"/>
                <use id="zoomplus" xlink:href="#zoomPlus" x="17" y="9" onmousedown="handleZoom(evt,'in')"/>
                <use id="zoomminus" xlink:href="#zoomMin" x="42" y="9" onmousedown="handleZoom(evt,'out')"/>
                <use id="reset" xlink:href="#resetDef" x="30" y="36" onmousedown="handleReset()"/>
                <g id="arrowUp" xlink:href="#dirArrow" transform="translate(30 24)" onmousedown="handlePan(0,-1)">
                  <use xlink:href="#rim" fill="#404040">
                        <set attributeName="fill" to="#808080" begin="arrowUp.mouseover" end="arrowUp.mouseout"/>
                  </use>
                  <path fill="none" stroke="white" stroke-width="1.5" d="M0,-3.0v7 M-2.5,-0.5L0,-3.0L2.5,-0.5"/>
                </g>
                <g id="arrowRight" xlink:href="#dirArrow" transform="rotate(90) translate(36 -43)" onmousedown="handlePan(1,0)">
                  <use xlink:href="#rim" fill="#404040">
                        <set attributeName="fill" to="#808080" begin="arrowRight.mouseover" end="arrowRight.mouseout"/>
                  </use>
                  <path fill="none" stroke="white" stroke-width="1.5" d="M0,-3.0v7 M-2.5,-0.5L0,-3.0L2.5,-0.5"/>
                </g>
                <g id="arrowDown" xlink:href="#dirArrow" transform="rotate(180) translate(-30 -48)" onmousedown="handlePan(0,1)">
                  <use xlink:href="#rim" fill="#404040">
                        <set attributeName="fill" to="#808080" begin="arrowDown.mouseover" end="arrowDown.mouseout"/>
                  </use>
                  <path fill="none" stroke="white" stroke-width="1.5" d="M0,-3.0v7 M-2.5,-0.5L0,-3.0L2.5,-0.5"/>
                </g>
                <g id="arrowLeft" xlink:href="#dirArrow" transform="rotate(270) translate(-36 17)" onmousedown="handlePan(-1,0)">
                  <use xlink:href="#rim" fill="#404040">
                        <set attributeName="fill" to="#808080" begin="arrowLeft.mouseover" end="arrowLeft.mouseout"/>
                  </use>
                  <path fill="none" stroke="white" stroke-width="1.5" d="M0,-3.0v7 M-2.5,-0.5L0,-3.0L2.5,-0.5"/>
                </g>
        </g>
        <svg viewBox="0 0 15 15" width="100%" height="30px" preserveAspectRatio="xMaxYMin meet">
         <g id="arrow_out" transform="scale(0.3 0.3)">
          <a xlink:href="_shared_defs_8hpp__dep__incl_org.svg" target="_base">
           <rect id="button" ry="5" rx="5" y="6" x="6" height="38" width="38"
                fill="#f2f5e9" fill-opacity="0.5" stroke="#606060" stroke-width="1.0"/>
           <path id="arrow"
             d="M 11.500037,31.436501 C 11.940474,20.09759 22.043105,11.32322 32.158766,21.979434 L 37.068811,17.246167 C 37.068811,17.246167 37.088388,32 37.088388,32 L 22.160133,31.978069 C 22.160133,31.978069 26.997745,27.140456 26.997745,27.140456 C 18.528582,18.264221 13.291696,25.230495 11.500037,31.436501 z"
             style="fill:#404040;"/>
          </a>
         </g>
        </svg>
</svg>
