<?xml version="1.0" encoding="UTF-8" standalone="no"?>
<!DOCTYPE svg PUBLIC "-//W3C//DTD SVG 1.1//EN"
 "http://www.w3.org/Graphics/SVG/1.1/DTD/svg11.dtd">
<!-- Generated by graphviz version 5.0.0 (20220707.1540)
 -->
<!-- Title: C:/Users/Gshoo/Desktop/pi&#45;defender&#45;tmp/Sources/SharedDefs/SharedDefs.hpp Pages: 1 -->
<svg width="1772pt" height="596pt"
 viewBox="0.00 0.00 1771.56 596.00" xmlns="http://www.w3.org/2000/svg" xmlns:xlink="http://www.w3.org/1999/xlink">
<g id="graph0" class="graph" transform="scale(1 1) rotate(0) translate(4 592)">
<title>C:/Users/Gshoo/Desktop/pi&#45;defender&#45;tmp/Sources/SharedDefs/SharedDefs.hpp</title>
<!-- Node1 -->
<g id="node1" class="node">
<title>Node1</title>
<g id="a_node1"><a xlink:title="Header file which contains the structures, type definitions, constants, global variablesand function ...">
<polygon fill="#bfbfbf" stroke="black" points="451.06,-546.5 451.06,-587.5 593.06,-587.5 593.06,-546.5 451.06,-546.5"/>
<text text-anchor="start" x="459.06" y="-575.5" font-family="Helvetica,sans-Serif" font-size="10.00">C:/Users/Gshoo/Desktop</text>
<text text-anchor="start" x="459.06" y="-564.5" font-family="Helvetica,sans-Serif" font-size="10.00">/pi&#45;defender&#45;tmp/Sources</text>
<text text-anchor="middle" x="522.06" y="-553.5" font-family="Helvetica,sans-Serif" font-size="10.00">/SharedDefs/SharedDefs.hpp</text>
</a>
</g>
</g>
<!-- Node2 -->
<g id="node2" class="node">
<title>Node2</title>
<g id="a_node2"><a xlink:href="_k___communication_8hpp.html" target="_top" xlink:title="Header for K_Communication.cpp.">
<polygon fill="none" stroke="black" points="62.56,-312.5 62.56,-353.5 233.56,-353.5 233.56,-312.5 62.56,-312.5"/>
<text text-anchor="start" x="70.56" y="-341.5" font-family="Helvetica,sans-Serif" font-size="10.00">C:/Users/Gshoo/Desktop</text>
<text text-anchor="start" x="70.56" y="-330.5" font-family="Helvetica,sans-Serif" font-size="10.00">/pi&#45;defender&#45;tmp/Sources</text>
<text text-anchor="middle" x="148.06" y="-319.5" font-family="Helvetica,sans-Serif" font-size="10.00">/PI&#45;Defender/K_Communication.hpp</text>
</a>
</g>
</g>
<!-- Node1&#45;&gt;Node2 -->
<g id="edge1" class="edge">
<title>Node1&#45;&gt;Node2</title>
<path fill="none" stroke="midnightblue" d="M481.79,-541.02C406.86,-494.54 247.49,-395.68 179.68,-353.61"/>
<polygon fill="midnightblue" stroke="midnightblue" points="480.16,-544.12 490.5,-546.42 483.85,-538.17 480.16,-544.12"/>
</g>
<!-- Node10 -->
<g id="node10" class="node">
<title>Node10</title>
<g id="a_node10"><a xlink:href="_k___helper_8hpp.html" target="_top" xlink:title="Header for K_Helper.cpp.">
<polygon fill="none" stroke="black" points="456.56,-468.5 456.56,-509.5 587.56,-509.5 587.56,-468.5 456.56,-468.5"/>
<text text-anchor="start" x="464.56" y="-497.5" font-family="Helvetica,sans-Serif" font-size="10.00">C:/Users/Gshoo/Desktop</text>
<text text-anchor="start" x="464.56" y="-486.5" font-family="Helvetica,sans-Serif" font-size="10.00">/pi&#45;defender&#45;tmp/Sources</text>
<text text-anchor="middle" x="522.06" y="-475.5" font-family="Helvetica,sans-Serif" font-size="10.00">/PI&#45;Defender/K_Helper.hpp</text>
</a>
</g>
</g>
<!-- Node1&#45;&gt;Node10 -->
<g id="edge10" class="edge">
<title>Node1&#45;&gt;Node10</title>
<path fill="none" stroke="midnightblue" d="M522.06,-536.3C522.06,-527.3 522.06,-517.65 522.06,-509.51"/>
<polygon fill="midnightblue" stroke="midnightblue" points="518.56,-536.43 522.06,-546.43 525.56,-536.43 518.56,-536.43"/>
</g>
<!-- Node19 -->
<g id="node19" class="node">
<title>Node19</title>
<g id="a_node19"><a xlink:href="_u___communication_8hpp.html" target="_top" xlink:title="Header for U_Communication.cpp.">
<polygon fill="none" stroke="black" points="1270.56,-468.5 1270.56,-509.5 1461.56,-509.5 1461.56,-468.5 1270.56,-468.5"/>
<text text-anchor="start" x="1278.56" y="-497.5" font-family="Helvetica,sans-Serif" font-size="10.00">C:/Users/Gshoo/Desktop</text>
<text text-anchor="start" x="1278.56" y="-486.5" font-family="Helvetica,sans-Serif" font-size="10.00">/pi&#45;defender&#45;tmp/Sources</text>
<text text-anchor="middle" x="1366.06" y="-475.5" font-family="Helvetica,sans-Serif" font-size="10.00">/PI&#45;Defender_UM/U_Communication.hpp</text>
</a>
</g>
</g>
<!-- Node1&#45;&gt;Node19 -->
<g id="edge31" class="edge">
<title>Node1&#45;&gt;Node19</title>
<path fill="none" stroke="midnightblue" d="M603.34,-558.68C759.95,-544.58 1102.83,-513.7 1270.26,-498.63"/>
<polygon fill="midnightblue" stroke="midnightblue" points="602.94,-555.2 593.3,-559.59 603.57,-562.17 602.94,-555.2"/>
</g>
<!-- Node3 -->
<g id="node3" class="node">
<title>Node3</title>
<g id="a_node3"><a xlink:href="_k___communication_8cpp.html" target="_top" xlink:title="Create the communication server, send data to the user&#45;mode service once a client is connected.">
<polygon fill="none" stroke="black" points="24.56,-234.5 24.56,-275.5 195.56,-275.5 195.56,-234.5 24.56,-234.5"/>
<text text-anchor="start" x="32.56" y="-263.5" font-family="Helvetica,sans-Serif" font-size="10.00">C:/Users/Gshoo/Desktop</text>
<text text-anchor="start" x="32.56" y="-252.5" font-family="Helvetica,sans-Serif" font-size="10.00">/pi&#45;defender&#45;tmp/Sources</text>
<text text-anchor="middle" x="110.06" y="-241.5" font-family="Helvetica,sans-Serif" font-size="10.00">/PI&#45;Defender/K_Communication.cpp</text>
</a>
</g>
</g>
<!-- Node2&#45;&gt;Node3 -->
<g id="edge2" class="edge">
<title>Node2&#45;&gt;Node3</title>
<path fill="none" stroke="midnightblue" d="M133.8,-303.47C129.13,-294.14 124.07,-284.01 119.82,-275.51"/>
<polygon fill="midnightblue" stroke="midnightblue" points="130.67,-305.05 138.28,-312.43 136.94,-301.92 130.67,-305.05"/>
</g>
<!-- Node4 -->
<g id="node4" class="node">
<title>Node4</title>
<g id="a_node4"><a xlink:href="_k___filter_8hpp.html" target="_top" xlink:title="Header for K_Filter.cpp.">
<polygon fill="none" stroke="black" points="154.56,-156.5 154.56,-197.5 279.56,-197.5 279.56,-156.5 154.56,-156.5"/>
<text text-anchor="start" x="162.56" y="-185.5" font-family="Helvetica,sans-Serif" font-size="10.00">C:/Users/Gshoo/Desktop</text>
<text text-anchor="start" x="162.56" y="-174.5" font-family="Helvetica,sans-Serif" font-size="10.00">/pi&#45;defender&#45;tmp/Sources</text>
<text text-anchor="middle" x="217.06" y="-163.5" font-family="Helvetica,sans-Serif" font-size="10.00">/PI&#45;Defender/K_Filter.hpp</text>
</a>
</g>
</g>
<!-- Node2&#45;&gt;Node4 -->
<g id="edge3" class="edge">
<title>Node2&#45;&gt;Node4</title>
<path fill="none" stroke="midnightblue" d="M181.79,-305.37C190.38,-296.9 198.7,-286.87 204.06,-276 216.37,-251.07 218.31,-218.45 218.07,-197.85"/>
<polygon fill="midnightblue" stroke="midnightblue" points="179.17,-303.02 174.23,-312.4 183.94,-308.15 179.17,-303.02"/>
</g>
<!-- Node8 -->
<g id="node8" class="node">
<title>Node8</title>
<g id="a_node8"><a xlink:href="_k___ob_callback_8hpp.html" target="_top" xlink:title="Header for K_ObCallback.cpp.">
<polygon fill="none" stroke="black" points="640.06,-156.5 640.06,-197.5 794.06,-197.5 794.06,-156.5 640.06,-156.5"/>
<text text-anchor="start" x="648.06" y="-185.5" font-family="Helvetica,sans-Serif" font-size="10.00">C:/Users/Gshoo/Desktop</text>
<text text-anchor="start" x="648.06" y="-174.5" font-family="Helvetica,sans-Serif" font-size="10.00">/pi&#45;defender&#45;tmp/Sources</text>
<text text-anchor="middle" x="717.06" y="-163.5" font-family="Helvetica,sans-Serif" font-size="10.00">/PI&#45;Defender/K_ObCallback.hpp</text>
</a>
</g>
</g>
<!-- Node2&#45;&gt;Node8 -->
<g id="edge7" class="edge">
<title>Node2&#45;&gt;Node8</title>
<path fill="none" stroke="midnightblue" d="M190.47,-307.34C231.65,-284.57 296.63,-251.68 357.06,-234 474.95,-199.52 510.21,-219.94 631.06,-198 633.93,-197.48 636.84,-196.93 639.78,-196.35"/>
<polygon fill="midnightblue" stroke="midnightblue" points="188.57,-304.39 181.55,-312.33 191.99,-310.51 188.57,-304.39"/>
</g>
<!-- Node5 -->
<g id="node5" class="node">
<title>Node5</title>
<g id="a_node5"><a xlink:href="_k___driver_8hpp.html" target="_top" xlink:title="Header for K_Driver.cpp.">
<polygon fill="none" stroke="black" points="318.06,-78.5 318.06,-119.5 446.06,-119.5 446.06,-78.5 318.06,-78.5"/>
<text text-anchor="start" x="326.06" y="-107.5" font-family="Helvetica,sans-Serif" font-size="10.00">C:/Users/Gshoo/Desktop</text>
<text text-anchor="start" x="326.06" y="-96.5" font-family="Helvetica,sans-Serif" font-size="10.00">/pi&#45;defender&#45;tmp/Sources</text>
<text text-anchor="middle" x="382.06" y="-85.5" font-family="Helvetica,sans-Serif" font-size="10.00">/PI&#45;Defender/K_Driver.hpp</text>
</a>
</g>
</g>
<!-- Node4&#45;&gt;Node5 -->
<g id="edge4" class="edge">
<title>Node4&#45;&gt;Node5</title>
<path fill="none" stroke="midnightblue" d="M268.76,-152.19C291.59,-141.67 318.09,-129.47 339.72,-119.51"/>
<polygon fill="midnightblue" stroke="midnightblue" points="267.17,-149.07 259.56,-156.43 270.1,-155.42 267.17,-149.07"/>
</g>
<!-- Node7 -->
<g id="node7" class="node">
<title>Node7</title>
<g id="a_node7"><a xlink:href="_k___filter_8cpp.html" target="_top" xlink:title="Initialize filter object used by the communication.">
<polygon fill="none" stroke="black" points="154.56,-78.5 154.56,-119.5 279.56,-119.5 279.56,-78.5 154.56,-78.5"/>
<text text-anchor="start" x="162.56" y="-107.5" font-family="Helvetica,sans-Serif" font-size="10.00">C:/Users/Gshoo/Desktop</text>
<text text-anchor="start" x="162.56" y="-96.5" font-family="Helvetica,sans-Serif" font-size="10.00">/pi&#45;defender&#45;tmp/Sources</text>
<text text-anchor="middle" x="217.06" y="-85.5" font-family="Helvetica,sans-Serif" font-size="10.00">/PI&#45;Defender/K_Filter.cpp</text>
</a>
</g>
</g>
<!-- Node4&#45;&gt;Node7 -->
<g id="edge6" class="edge">
<title>Node4&#45;&gt;Node7</title>
<path fill="none" stroke="midnightblue" d="M217.06,-146.3C217.06,-137.3 217.06,-127.65 217.06,-119.51"/>
<polygon fill="midnightblue" stroke="midnightblue" points="213.56,-146.43 217.06,-156.43 220.56,-146.43 213.56,-146.43"/>
</g>
<!-- Node6 -->
<g id="node6" class="node">
<title>Node6</title>
<g id="a_node6"><a xlink:href="_k___driver_8cpp.html" target="_top" xlink:title="Entrypoint of the driver, unload routine.">
<polygon fill="none" stroke="black" points="318.06,-0.5 318.06,-41.5 446.06,-41.5 446.06,-0.5 318.06,-0.5"/>
<text text-anchor="start" x="326.06" y="-29.5" font-family="Helvetica,sans-Serif" font-size="10.00">C:/Users/Gshoo/Desktop</text>
<text text-anchor="start" x="326.06" y="-18.5" font-family="Helvetica,sans-Serif" font-size="10.00">/pi&#45;defender&#45;tmp/Sources</text>
<text text-anchor="middle" x="382.06" y="-7.5" font-family="Helvetica,sans-Serif" font-size="10.00">/PI&#45;Defender/K_Driver.cpp</text>
</a>
</g>
</g>
<!-- Node5&#45;&gt;Node6 -->
<g id="edge5" class="edge">
<title>Node5&#45;&gt;Node6</title>
<path fill="none" stroke="midnightblue" d="M382.06,-68.3C382.06,-59.3 382.06,-49.65 382.06,-41.51"/>
<polygon fill="midnightblue" stroke="midnightblue" points="378.56,-68.43 382.06,-78.43 385.56,-68.43 378.56,-68.43"/>
</g>
<!-- Node8&#45;&gt;Node5 -->
<g id="edge8" class="edge">
<title>Node8&#45;&gt;Node5</title>
<path fill="none" stroke="midnightblue" d="M629.68,-155.69C561.65,-140.15 494.26,-125.03 446.32,-114.32"/>
<polygon fill="midnightblue" stroke="midnightblue" points="629.19,-159.17 639.71,-157.98 630.75,-152.34 629.19,-159.17"/>
</g>
<!-- Node9 -->
<g id="node9" class="node">
<title>Node9</title>
<g id="a_node9"><a xlink:href="_k___ob_callback_8cpp.html" target="_top" xlink:title="Handle request callback.">
<polygon fill="none" stroke="black" points="640.06,-78.5 640.06,-119.5 794.06,-119.5 794.06,-78.5 640.06,-78.5"/>
<text text-anchor="start" x="648.06" y="-107.5" font-family="Helvetica,sans-Serif" font-size="10.00">C:/Users/Gshoo/Desktop</text>
<text text-anchor="start" x="648.06" y="-96.5" font-family="Helvetica,sans-Serif" font-size="10.00">/pi&#45;defender&#45;tmp/Sources</text>
<text text-anchor="middle" x="717.06" y="-85.5" font-family="Helvetica,sans-Serif" font-size="10.00">/PI&#45;Defender/K_ObCallback.cpp</text>
</a>
</g>
</g>
<!-- Node8&#45;&gt;Node9 -->
<g id="edge9" class="edge">
<title>Node8&#45;&gt;Node9</title>
<path fill="none" stroke="midnightblue" d="M717.06,-146.3C717.06,-137.3 717.06,-127.65 717.06,-119.51"/>
<polygon fill="midnightblue" stroke="midnightblue" points="713.56,-146.43 717.06,-156.43 720.56,-146.43 713.56,-146.43"/>
</g>
<!-- Node10&#45;&gt;Node4 -->
<g id="edge11" class="edge">
<title>Node10&#45;&gt;Node4</title>
<path fill="none" stroke="midnightblue" d="M446.25,-484.94C345.53,-477.1 167.07,-449.62 53.06,-354 10.2,-318.05 -18.8,-278.53 15.06,-234 32.03,-211.7 101.68,-195.96 154.49,-186.96"/>
<polygon fill="midnightblue" stroke="midnightblue" points="446.12,-488.44 456.35,-485.68 446.63,-481.46 446.12,-488.44"/>
</g>
<!-- Node10&#45;&gt;Node8 -->
<g id="edge30" class="edge">
<title>Node10&#45;&gt;Node8</title>
<path fill="none" stroke="midnightblue" d="M597.6,-470.94C686.34,-445.94 826.09,-389.44 862.06,-276 867.71,-258.21 872.62,-249.39 862.06,-234 846.42,-211.19 820.06,-197.67 794.07,-189.65"/>
<polygon fill="midnightblue" stroke="midnightblue" points="596.55,-467.6 587.84,-473.62 598.41,-474.35 596.55,-467.6"/>
</g>
<!-- Node11 -->
<g id="node11" class="node">
<title>Node11</title>
<g id="a_node11"><a xlink:href="_k___global_header_8hpp.html" target="_top" xlink:title="Header used by several .cpp files.">
<polygon fill="none" stroke="black" points="441.06,-390.5 441.06,-431.5 603.06,-431.5 603.06,-390.5 441.06,-390.5"/>
<text text-anchor="start" x="449.06" y="-419.5" font-family="Helvetica,sans-Serif" font-size="10.00">C:/Users/Gshoo/Desktop</text>
<text text-anchor="start" x="449.06" y="-408.5" font-family="Helvetica,sans-Serif" font-size="10.00">/pi&#45;defender&#45;tmp/Sources</text>
<text text-anchor="middle" x="522.06" y="-397.5" font-family="Helvetica,sans-Serif" font-size="10.00">/PI&#45;Defender/K_GlobalHeader.hpp</text>
</a>
</g>
</g>
<!-- Node10&#45;&gt;Node11 -->
<g id="edge12" class="edge">
<title>Node10&#45;&gt;Node11</title>
<path fill="none" stroke="midnightblue" d="M515.46,-458.3C515.14,-449.3 515.35,-439.65 516.08,-431.51"/>
<polygon fill="midnightblue" stroke="midnightblue" points="511.97,-458.66 516.08,-468.43 518.96,-458.23 511.97,-458.66"/>
</g>
<!-- Node18 -->
<g id="node18" class="node">
<title>Node18</title>
<g id="a_node18"><a xlink:href="_k___helper_8cpp.html" target="_top" xlink:title="Help functions used by several .cpp files.">
<polygon fill="none" stroke="black" points="930.56,-390.5 930.56,-431.5 1061.56,-431.5 1061.56,-390.5 930.56,-390.5"/>
<text text-anchor="start" x="938.56" y="-419.5" font-family="Helvetica,sans-Serif" font-size="10.00">C:/Users/Gshoo/Desktop</text>
<text text-anchor="start" x="938.56" y="-408.5" font-family="Helvetica,sans-Serif" font-size="10.00">/pi&#45;defender&#45;tmp/Sources</text>
<text text-anchor="middle" x="996.06" y="-397.5" font-family="Helvetica,sans-Serif" font-size="10.00">/PI&#45;Defender/K_Helper.cpp</text>
</a>
</g>
</g>
<!-- Node10&#45;&gt;Node18 -->
<g id="edge29" class="edge">
<title>Node10&#45;&gt;Node18</title>
<path fill="none" stroke="midnightblue" d="M597.53,-479.63C677.13,-470.26 806.01,-453.52 916.06,-432 920.7,-431.09 925.47,-430.09 930.26,-429.03"/>
<polygon fill="midnightblue" stroke="midnightblue" points="597.12,-476.16 587.6,-480.8 597.93,-483.11 597.12,-476.16"/>
</g>
<!-- Node11&#45;&gt;Node2 -->
<g id="edge20" class="edge">
<title>Node11&#45;&gt;Node2</title>
<path fill="none" stroke="midnightblue" d="M431.04,-391.5C370.9,-379.28 292.6,-363.37 233.61,-351.38"/>
<polygon fill="midnightblue" stroke="midnightblue" points="430.41,-394.95 440.91,-393.51 431.81,-388.09 430.41,-394.95"/>
</g>
<!-- Node11&#45;&gt;Node4 -->
<g id="edge23" class="edge">
<title>Node11&#45;&gt;Node4</title>
<path fill="none" stroke="midnightblue" d="M430.93,-397.26C374.15,-387.68 307.88,-372.95 286.06,-354 238.49,-312.68 223.46,-234.34 218.92,-197.75"/>
<polygon fill="midnightblue" stroke="midnightblue" points="430.6,-400.76 441.04,-398.93 431.75,-393.85 430.6,-400.76"/>
</g>
<!-- Node11&#45;&gt;Node5 -->
<g id="edge22" class="edge">
<title>Node11&#45;&gt;Node5</title>
<path fill="none" stroke="midnightblue" d="M441.82,-386.44C423.85,-378.34 406,-367.73 392.06,-354 328.08,-290.98 359.5,-167.65 375.08,-119.71"/>
<polygon fill="midnightblue" stroke="midnightblue" points="440.64,-389.74 451.21,-390.44 443.38,-383.3 440.64,-389.74"/>
</g>
<!-- Node11&#45;&gt;Node8 -->
<g id="edge25" class="edge">
<title>Node11&#45;&gt;Node8</title>
<path fill="none" stroke="midnightblue" d="M613.38,-403.01C692.92,-391.23 801.93,-359.78 844.06,-276 852.45,-259.32 854.26,-249.64 844.06,-234 832.42,-216.14 813.64,-203.93 794.07,-195.61"/>
<polygon fill="midnightblue" stroke="midnightblue" points="612.76,-399.56 603.34,-404.42 613.73,-406.5 612.76,-399.56"/>
</g>
<!-- Node11&#45;&gt;Node10 -->
<g id="edge24" class="edge">
<title>Node11&#45;&gt;Node10</title>
<path fill="none" stroke="midnightblue" d="M528.67,-441.63C528.99,-450.62 528.78,-460.27 528.05,-468.43"/>
<polygon fill="midnightblue" stroke="midnightblue" points="532.15,-441.27 528.05,-431.51 525.16,-441.7 532.15,-441.27"/>
</g>
<!-- Node12 -->
<g id="node12" class="node">
<title>Node12</title>
<g id="a_node12"><a xlink:href="_k___cache_8hpp.html" target="_top" xlink:title="Header for K_Cache.cpp.">
<polygon fill="none" stroke="black" points="599.56,-312.5 599.56,-353.5 730.56,-353.5 730.56,-312.5 599.56,-312.5"/>
<text text-anchor="start" x="607.56" y="-341.5" font-family="Helvetica,sans-Serif" font-size="10.00">C:/Users/Gshoo/Desktop</text>
<text text-anchor="start" x="607.56" y="-330.5" font-family="Helvetica,sans-Serif" font-size="10.00">/pi&#45;defender&#45;tmp/Sources</text>
<text text-anchor="middle" x="665.06" y="-319.5" font-family="Helvetica,sans-Serif" font-size="10.00">/PI&#45;Defender/K_Cache.hpp</text>
</a>
</g>
</g>
<!-- Node11&#45;&gt;Node12 -->
<g id="edge13" class="edge">
<title>Node11&#45;&gt;Node12</title>
<path fill="none" stroke="midnightblue" d="M567.92,-385.63C587.46,-375.24 609.95,-363.29 628.36,-353.51"/>
<polygon fill="midnightblue" stroke="midnightblue" points="566.08,-382.64 558.89,-390.43 569.36,-388.83 566.08,-382.64"/>
</g>
<!-- Node14 -->
<g id="node14" class="node">
<title>Node14</title>
<g id="a_node14"><a xlink:href="_k___configuration_8hpp.html" target="_top" xlink:title="Header for K_Configuration.cpp.">
<polygon fill="none" stroke="black" points="526.06,-234.5 526.06,-275.5 686.06,-275.5 686.06,-234.5 526.06,-234.5"/>
<text text-anchor="start" x="534.06" y="-263.5" font-family="Helvetica,sans-Serif" font-size="10.00">C:/Users/Gshoo/Desktop</text>
<text text-anchor="start" x="534.06" y="-252.5" font-family="Helvetica,sans-Serif" font-size="10.00">/pi&#45;defender&#45;tmp/Sources</text>
<text text-anchor="middle" x="606.06" y="-241.5" font-family="Helvetica,sans-Serif" font-size="10.00">/PI&#45;Defender/K_Configuration.hpp</text>
</a>
</g>
</g>
<!-- Node11&#45;&gt;Node14 -->
<g id="edge21" class="edge">
<title>Node11&#45;&gt;Node14</title>
<path fill="none" stroke="midnightblue" d="M537.57,-381.56C554.33,-350.85 580.59,-302.71 595.25,-275.83"/>
<polygon fill="midnightblue" stroke="midnightblue" points="534.42,-380.04 532.7,-390.5 540.56,-383.39 534.42,-380.04"/>
</g>
<!-- Node16 -->
<g id="node16" class="node">
<title>Node16</title>
<g id="a_node16"><a xlink:href="_k___whitelist_8hpp.html" target="_top" xlink:title="Header for K_Whitelist.cpp.">
<polygon fill="none" stroke="black" points="401.06,-312.5 401.06,-353.5 543.06,-353.5 543.06,-312.5 401.06,-312.5"/>
<text text-anchor="start" x="409.06" y="-341.5" font-family="Helvetica,sans-Serif" font-size="10.00">C:/Users/Gshoo/Desktop</text>
<text text-anchor="start" x="409.06" y="-330.5" font-family="Helvetica,sans-Serif" font-size="10.00">/pi&#45;defender&#45;tmp/Sources</text>
<text text-anchor="middle" x="472.06" y="-319.5" font-family="Helvetica,sans-Serif" font-size="10.00">/PI&#45;Defender/K_Whitelist.hpp</text>
</a>
</g>
</g>
<!-- Node11&#45;&gt;Node16 -->
<g id="edge26" class="edge">
<title>Node11&#45;&gt;Node16</title>
<path fill="none" stroke="midnightblue" d="M503.67,-382.05C497.44,-372.57 490.61,-362.18 484.9,-353.51"/>
<polygon fill="midnightblue" stroke="midnightblue" points="500.77,-384 509.19,-390.43 506.62,-380.15 500.77,-384"/>
</g>
<!-- Node13 -->
<g id="node13" class="node">
<title>Node13</title>
<g id="a_node13"><a xlink:href="_k___cache_8cpp.html" target="_top" xlink:title="Store hash of signed and unsigned executable previously scanned.">
<polygon fill="none" stroke="black" points="704.56,-234.5 704.56,-275.5 835.56,-275.5 835.56,-234.5 704.56,-234.5"/>
<text text-anchor="start" x="712.56" y="-263.5" font-family="Helvetica,sans-Serif" font-size="10.00">C:/Users/Gshoo/Desktop</text>
<text text-anchor="start" x="712.56" y="-252.5" font-family="Helvetica,sans-Serif" font-size="10.00">/pi&#45;defender&#45;tmp/Sources</text>
<text text-anchor="middle" x="770.06" y="-241.5" font-family="Helvetica,sans-Serif" font-size="10.00">/PI&#45;Defender/K_Cache.cpp</text>
</a>
</g>
</g>
<!-- Node12&#45;&gt;Node13 -->
<g id="edge14" class="edge">
<title>Node12&#45;&gt;Node13</title>
<path fill="none" stroke="midnightblue" d="M700.5,-306.35C714.42,-296.27 730.15,-284.89 743.12,-275.51"/>
<polygon fill="midnightblue" stroke="midnightblue" points="698.15,-303.73 692.1,-312.43 702.26,-309.4 698.15,-303.73"/>
</g>
<!-- Node12&#45;&gt;Node14 -->
<g id="edge15" class="edge">
<title>Node12&#45;&gt;Node14</title>
<path fill="none" stroke="midnightblue" d="M643.59,-304.34C636.17,-294.78 628.01,-284.27 621.21,-275.51"/>
<polygon fill="midnightblue" stroke="midnightblue" points="640.97,-306.68 649.87,-312.43 646.5,-302.38 640.97,-306.68"/>
</g>
<!-- Node14&#45;&gt;Node4 -->
<g id="edge18" class="edge">
<title>Node14&#45;&gt;Node4</title>
<path fill="none" stroke="midnightblue" d="M516.19,-233.85C428.53,-215.95 338.41,-199.48 279.82,-189.03"/>
<polygon fill="midnightblue" stroke="midnightblue" points="515.54,-237.29 526.04,-235.87 516.95,-230.43 515.54,-237.29"/>
</g>
<!-- Node14&#45;&gt;Node5 -->
<g id="edge17" class="edge">
<title>Node14&#45;&gt;Node5</title>
<path fill="none" stroke="midnightblue" d="M516,-231.04C494.09,-222.84 471.64,-212.04 453.06,-198 425.08,-176.84 403.39,-141.58 391.69,-119.63"/>
<polygon fill="midnightblue" stroke="midnightblue" points="515.08,-234.43 525.67,-234.51 517.44,-227.84 515.08,-234.43"/>
</g>
<!-- Node14&#45;&gt;Node8 -->
<g id="edge19" class="edge">
<title>Node14&#45;&gt;Node8</title>
<path fill="none" stroke="midnightblue" d="M643.11,-228.64C657.93,-218.49 674.74,-206.98 688.58,-197.51"/>
<polygon fill="midnightblue" stroke="midnightblue" points="640.92,-225.89 634.65,-234.43 644.88,-231.67 640.92,-225.89"/>
</g>
<!-- Node15 -->
<g id="node15" class="node">
<title>Node15</title>
<g id="a_node15"><a xlink:href="_k___configuration_8cpp.html" target="_top" xlink:title="Load the configuration of the driver.">
<polygon fill="none" stroke="black" points="462.06,-156.5 462.06,-197.5 622.06,-197.5 622.06,-156.5 462.06,-156.5"/>
<text text-anchor="start" x="470.06" y="-185.5" font-family="Helvetica,sans-Serif" font-size="10.00">C:/Users/Gshoo/Desktop</text>
<text text-anchor="start" x="470.06" y="-174.5" font-family="Helvetica,sans-Serif" font-size="10.00">/pi&#45;defender&#45;tmp/Sources</text>
<text text-anchor="middle" x="542.06" y="-163.5" font-family="Helvetica,sans-Serif" font-size="10.00">/PI&#45;Defender/K_Configuration.cpp</text>
</a>
</g>
</g>
<!-- Node14&#45;&gt;Node15 -->
<g id="edge16" class="edge">
<title>Node14&#45;&gt;Node15</title>
<path fill="none" stroke="midnightblue" d="M583.01,-226.63C574.9,-216.99 565.95,-206.36 558.49,-197.51"/>
<polygon fill="midnightblue" stroke="midnightblue" points="580.46,-229.03 589.58,-234.43 585.82,-224.52 580.46,-229.03"/>
</g>
<!-- Node16&#45;&gt;Node14 -->
<g id="edge27" class="edge">
<title>Node16&#45;&gt;Node14</title>
<path fill="none" stroke="midnightblue" d="M515.29,-307.49C533.54,-297.13 554.5,-285.25 571.67,-275.51"/>
<polygon fill="midnightblue" stroke="midnightblue" points="513.54,-304.45 506.57,-312.43 517,-310.54 513.54,-304.45"/>
</g>
<!-- Node17 -->
<g id="node17" class="node">
<title>Node17</title>
<g id="a_node17"><a xlink:href="_k___whitelist_8cpp.html" target="_top" xlink:title="Store paths of autorized files and folders.">
<polygon fill="none" stroke="black" points="366.06,-234.5 366.06,-275.5 508.06,-275.5 508.06,-234.5 366.06,-234.5"/>
<text text-anchor="start" x="374.06" y="-263.5" font-family="Helvetica,sans-Serif" font-size="10.00">C:/Users/Gshoo/Desktop</text>
<text text-anchor="start" x="374.06" y="-252.5" font-family="Helvetica,sans-Serif" font-size="10.00">/pi&#45;defender&#45;tmp/Sources</text>
<text text-anchor="middle" x="437.06" y="-241.5" font-family="Helvetica,sans-Serif" font-size="10.00">/PI&#45;Defender/K_Whitelist.cpp</text>
</a>
</g>
</g>
<!-- Node16&#45;&gt;Node17 -->
<g id="edge28" class="edge">
<title>Node16&#45;&gt;Node17</title>
<path fill="none" stroke="midnightblue" d="M458.79,-303.17C454.53,-293.93 449.92,-283.92 446.05,-275.51"/>
<polygon fill="midnightblue" stroke="midnightblue" points="455.69,-304.81 463.05,-312.43 462.05,-301.88 455.69,-304.81"/>
</g>
<!-- Node20 -->
<g id="node20" class="node">
<title>Node20</title>
<g id="a_node20"><a xlink:href="_u___communication_8cpp.html" target="_top" xlink:title="Manage the communication with the driver (Connect|Reply|ListenerThread|WorkerThread)">
<polygon fill="none" stroke="black" points="1079.56,-390.5 1079.56,-431.5 1270.56,-431.5 1270.56,-390.5 1079.56,-390.5"/>
<text text-anchor="start" x="1087.56" y="-419.5" font-family="Helvetica,sans-Serif" font-size="10.00">C:/Users/Gshoo/Desktop</text>
<text text-anchor="start" x="1087.56" y="-408.5" font-family="Helvetica,sans-Serif" font-size="10.00">/pi&#45;defender&#45;tmp/Sources</text>
<text text-anchor="middle" x="1175.06" y="-397.5" font-family="Helvetica,sans-Serif" font-size="10.00">/PI&#45;Defender_UM/U_Communication.cpp</text>
</a>
</g>
</g>
<!-- Node19&#45;&gt;Node20 -->
<g id="edge32" class="edge">
<title>Node19&#45;&gt;Node20</title>
<path fill="none" stroke="midnightblue" d="M1307.28,-464.61C1280.62,-454 1249.46,-441.6 1224.08,-431.51"/>
<polygon fill="midnightblue" stroke="midnightblue" points="1306.29,-467.98 1316.88,-468.43 1308.88,-461.48 1306.29,-467.98"/>
</g>
<!-- Node21 -->
<g id="node21" class="node">
<title>Node21</title>
<g id="a_node21"><a xlink:href="_u___service_8hpp.html" target="_top" xlink:title="Header for U_Service.cpp.">
<polygon fill="none" stroke="black" points="1288.56,-390.5 1288.56,-431.5 1443.56,-431.5 1443.56,-390.5 1288.56,-390.5"/>
<text text-anchor="start" x="1296.56" y="-419.5" font-family="Helvetica,sans-Serif" font-size="10.00">C:/Users/Gshoo/Desktop</text>
<text text-anchor="start" x="1296.56" y="-408.5" font-family="Helvetica,sans-Serif" font-size="10.00">/pi&#45;defender&#45;tmp/Sources</text>
<text text-anchor="middle" x="1366.06" y="-397.5" font-family="Helvetica,sans-Serif" font-size="10.00">/PI&#45;Defender_UM/U_Service.hpp</text>
</a>
</g>
</g>
<!-- Node19&#45;&gt;Node21 -->
<g id="edge33" class="edge">
<title>Node19&#45;&gt;Node21</title>
<path fill="none" stroke="midnightblue" d="M1359.46,-458.3C1359.14,-449.3 1359.35,-439.65 1360.08,-431.51"/>
<polygon fill="midnightblue" stroke="midnightblue" points="1355.97,-458.66 1360.08,-468.43 1362.96,-458.23 1355.97,-458.66"/>
</g>
<!-- Node21&#45;&gt;Node19 -->
<g id="edge34" class="edge">
<title>Node21&#45;&gt;Node19</title>
<path fill="none" stroke="midnightblue" d="M1372.67,-441.63C1372.99,-450.62 1372.78,-460.27 1372.05,-468.43"/>
<polygon fill="midnightblue" stroke="midnightblue" points="1376.15,-441.27 1372.05,-431.51 1369.16,-441.7 1376.15,-441.27"/>
</g>
<!-- Node22 -->
<g id="node22" class="node">
<title>Node22</title>
<g id="a_node22"><a xlink:href="_u___configuration_8hpp.html" target="_top" xlink:title="Header for U_Configuration.cpp.">
<polygon fill="none" stroke="black" points="1123.06,-156.5 1123.06,-197.5 1303.06,-197.5 1303.06,-156.5 1123.06,-156.5"/>
<text text-anchor="start" x="1131.06" y="-185.5" font-family="Helvetica,sans-Serif" font-size="10.00">C:/Users/Gshoo/Desktop</text>
<text text-anchor="start" x="1131.06" y="-174.5" font-family="Helvetica,sans-Serif" font-size="10.00">/pi&#45;defender&#45;tmp/Sources</text>
<text text-anchor="middle" x="1213.06" y="-163.5" font-family="Helvetica,sans-Serif" font-size="10.00">/PI&#45;Defender_UM/U_Configuration.hpp</text>
</a>
</g>
</g>
<!-- Node21&#45;&gt;Node22 -->
<g id="edge35" class="edge">
<title>Node21&#45;&gt;Node22</title>
<path fill="none" stroke="midnightblue" d="M1313.05,-385.05C1298.81,-376.21 1284.09,-365.56 1272.06,-354 1241.29,-324.43 1231.59,-315.75 1216.06,-276 1206.03,-250.29 1203.87,-218.16 1205.89,-197.85"/>
<polygon fill="midnightblue" stroke="midnightblue" points="1311.45,-388.17 1321.82,-390.31 1315.05,-382.16 1311.45,-388.17"/>
</g>
<!-- Node24 -->
<g id="node24" class="node">
<title>Node24</title>
<g id="a_node24"><a xlink:href="_u___helper_8hpp.html" target="_top" xlink:title="Header for U_Helper.cpp.">
<polygon fill="none" stroke="black" points="1290.06,-312.5 1290.06,-353.5 1442.06,-353.5 1442.06,-312.5 1290.06,-312.5"/>
<text text-anchor="start" x="1298.06" y="-341.5" font-family="Helvetica,sans-Serif" font-size="10.00">C:/Users/Gshoo/Desktop</text>
<text text-anchor="start" x="1298.06" y="-330.5" font-family="Helvetica,sans-Serif" font-size="10.00">/pi&#45;defender&#45;tmp/Sources</text>
<text text-anchor="middle" x="1366.06" y="-319.5" font-family="Helvetica,sans-Serif" font-size="10.00">/PI&#45;Defender_UM/U_Helper.hpp</text>
</a>
</g>
</g>
<!-- Node21&#45;&gt;Node24 -->
<g id="edge38" class="edge">
<title>Node21&#45;&gt;Node24</title>
<path fill="none" stroke="midnightblue" d="M1359.46,-380.3C1359.14,-371.3 1359.35,-361.65 1360.08,-353.51"/>
<polygon fill="midnightblue" stroke="midnightblue" points="1355.97,-380.66 1360.08,-390.43 1362.96,-380.23 1355.97,-380.66"/>
</g>
<!-- Node30 -->
<g id="node30" class="node">
<title>Node30</title>
<g id="a_node30"><a xlink:href="_u___service_8cpp.html" target="_top" xlink:title="Entrypoint of the process &amp; the service.">
<polygon fill="none" stroke="black" points="997.56,-312.5 997.56,-353.5 1152.56,-353.5 1152.56,-312.5 997.56,-312.5"/>
<text text-anchor="start" x="1005.56" y="-341.5" font-family="Helvetica,sans-Serif" font-size="10.00">C:/Users/Gshoo/Desktop</text>
<text text-anchor="start" x="1005.56" y="-330.5" font-family="Helvetica,sans-Serif" font-size="10.00">/pi&#45;defender&#45;tmp/Sources</text>
<text text-anchor="middle" x="1075.06" y="-319.5" font-family="Helvetica,sans-Serif" font-size="10.00">/PI&#45;Defender_UM/U_Service.cpp</text>
</a>
</g>
</g>
<!-- Node21&#45;&gt;Node30 -->
<g id="edge51" class="edge">
<title>Node21&#45;&gt;Node30</title>
<path fill="none" stroke="midnightblue" d="M1281.28,-387.86C1239.64,-376.98 1189.93,-364 1149.75,-353.51"/>
<polygon fill="midnightblue" stroke="midnightblue" points="1280.56,-391.29 1291.12,-390.43 1282.33,-384.51 1280.56,-391.29"/>
</g>
<!-- Node22&#45;&gt;Node21 -->
<g id="edge37" class="edge">
<title>Node22&#45;&gt;Node21</title>
<path fill="none" stroke="midnightblue" d="M1220.54,-207.89C1222.71,-227.8 1225.56,-254.21 1234.06,-276 1249.59,-315.75 1259.29,-324.43 1290.06,-354 1304.59,-367.96 1323.04,-380.59 1338.23,-390.31"/>
<polygon fill="midnightblue" stroke="midnightblue" points="1224.01,-207.4 1219.41,-197.85 1217.05,-208.18 1224.01,-207.4"/>
</g>
<!-- Node23 -->
<g id="node23" class="node">
<title>Node23</title>
<g id="a_node23"><a xlink:href="_u___configuration_8cpp.html" target="_top" xlink:title="Set all the needed configuration for the driver and the user&#45;mode service.">
<polygon fill="none" stroke="black" points="1123.06,-78.5 1123.06,-119.5 1303.06,-119.5 1303.06,-78.5 1123.06,-78.5"/>
<text text-anchor="start" x="1131.06" y="-107.5" font-family="Helvetica,sans-Serif" font-size="10.00">C:/Users/Gshoo/Desktop</text>
<text text-anchor="start" x="1131.06" y="-96.5" font-family="Helvetica,sans-Serif" font-size="10.00">/pi&#45;defender&#45;tmp/Sources</text>
<text text-anchor="middle" x="1213.06" y="-85.5" font-family="Helvetica,sans-Serif" font-size="10.00">/PI&#45;Defender_UM/U_Configuration.cpp</text>
</a>
</g>
</g>
<!-- Node22&#45;&gt;Node23 -->
<g id="edge36" class="edge">
<title>Node22&#45;&gt;Node23</title>
<path fill="none" stroke="midnightblue" d="M1213.06,-146.3C1213.06,-137.3 1213.06,-127.65 1213.06,-119.51"/>
<polygon fill="midnightblue" stroke="midnightblue" points="1209.56,-146.43 1213.06,-156.43 1216.56,-146.43 1209.56,-146.43"/>
</g>
<!-- Node24&#45;&gt;Node21 -->
<g id="edge50" class="edge">
<title>Node24&#45;&gt;Node21</title>
<path fill="none" stroke="midnightblue" d="M1372.67,-363.63C1372.99,-372.62 1372.78,-382.27 1372.05,-390.43"/>
<polygon fill="midnightblue" stroke="midnightblue" points="1376.15,-363.27 1372.05,-353.51 1369.16,-363.7 1376.15,-363.27"/>
</g>
<!-- Node24&#45;&gt;Node22 -->
<g id="edge39" class="edge">
<title>Node24&#45;&gt;Node22</title>
<path fill="none" stroke="midnightblue" d="M1300.56,-307.86C1284.52,-299.62 1268.42,-289.09 1256.06,-276 1234.89,-253.57 1223.1,-219.03 1217.42,-197.51"/>
<polygon fill="midnightblue" stroke="midnightblue" points="1299.45,-311.21 1309.98,-312.45 1302.52,-304.92 1299.45,-311.21"/>
</g>
<!-- Node25 -->
<g id="node25" class="node">
<title>Node25</title>
<g id="a_node25"><a xlink:href="_u___controller_8hpp.html" target="_top" xlink:title="Header for U_Controller.cpp.">
<polygon fill="none" stroke="black" points="1598.56,-234.5 1598.56,-275.5 1763.56,-275.5 1763.56,-234.5 1598.56,-234.5"/>
<text text-anchor="start" x="1606.56" y="-263.5" font-family="Helvetica,sans-Serif" font-size="10.00">C:/Users/Gshoo/Desktop</text>
<text text-anchor="start" x="1606.56" y="-252.5" font-family="Helvetica,sans-Serif" font-size="10.00">/pi&#45;defender&#45;tmp/Sources</text>
<text text-anchor="middle" x="1681.06" y="-241.5" font-family="Helvetica,sans-Serif" font-size="10.00">/PI&#45;Defender_UM/U_Controller.hpp</text>
</a>
</g>
</g>
<!-- Node24&#45;&gt;Node25 -->
<g id="edge40" class="edge">
<title>Node24&#45;&gt;Node25</title>
<path fill="none" stroke="midnightblue" d="M1452.28,-311.2C1498.36,-300.08 1554.74,-286.48 1600.01,-275.56"/>
<polygon fill="midnightblue" stroke="midnightblue" points="1451.22,-307.85 1442.32,-313.6 1452.86,-314.66 1451.22,-307.85"/>
</g>
<!-- Node27 -->
<g id="node27" class="node">
<title>Node27</title>
<g id="a_node27"><a xlink:href="_u___helper_8cpp.html" target="_top" xlink:title="Help function used by several .cpp files.">
<polygon fill="none" stroke="black" points="1265.06,-234.5 1265.06,-275.5 1417.06,-275.5 1417.06,-234.5 1265.06,-234.5"/>
<text text-anchor="start" x="1273.06" y="-263.5" font-family="Helvetica,sans-Serif" font-size="10.00">C:/Users/Gshoo/Desktop</text>
<text text-anchor="start" x="1273.06" y="-252.5" font-family="Helvetica,sans-Serif" font-size="10.00">/pi&#45;defender&#45;tmp/Sources</text>
<text text-anchor="middle" x="1341.06" y="-241.5" font-family="Helvetica,sans-Serif" font-size="10.00">/PI&#45;Defender_UM/U_Helper.cpp</text>
</a>
</g>
</g>
<!-- Node24&#45;&gt;Node27 -->
<g id="edge43" class="edge">
<title>Node24&#45;&gt;Node27</title>
<path fill="none" stroke="midnightblue" d="M1356.49,-302.88C1353.47,-293.72 1350.22,-283.83 1347.48,-275.51"/>
<polygon fill="midnightblue" stroke="midnightblue" points="1353.18,-304.02 1359.63,-312.43 1359.83,-301.84 1353.18,-304.02"/>
</g>
<!-- Node28 -->
<g id="node28" class="node">
<title>Node28</title>
<g id="a_node28"><a xlink:href="_u___logs_8hpp.html" target="_top" xlink:title="Header for U_Logs.cpp.">
<polygon fill="none" stroke="black" points="1435.56,-234.5 1435.56,-275.5 1580.56,-275.5 1580.56,-234.5 1435.56,-234.5"/>
<text text-anchor="start" x="1443.56" y="-263.5" font-family="Helvetica,sans-Serif" font-size="10.00">C:/Users/Gshoo/Desktop</text>
<text text-anchor="start" x="1443.56" y="-252.5" font-family="Helvetica,sans-Serif" font-size="10.00">/pi&#45;defender&#45;tmp/Sources</text>
<text text-anchor="middle" x="1508.06" y="-241.5" font-family="Helvetica,sans-Serif" font-size="10.00">/PI&#45;Defender_UM/U_Logs.hpp</text>
</a>
</g>
</g>
<!-- Node24&#45;&gt;Node28 -->
<g id="edge44" class="edge">
<title>Node24&#45;&gt;Node28</title>
<path fill="none" stroke="midnightblue" d="M1405.51,-307.49C1424.22,-297.13 1446.56,-285.25 1465.64,-275.51"/>
<polygon fill="midnightblue" stroke="midnightblue" points="1403.67,-304.5 1396.64,-312.43 1407.08,-310.62 1403.67,-304.5"/>
</g>
<!-- Node25&#45;&gt;Node21 -->
<g id="edge42" class="edge">
<title>Node25&#45;&gt;Node21</title>
<path fill="none" stroke="midnightblue" d="M1631.76,-280.1C1569.46,-310.56 1463.43,-362.4 1405.96,-390.5"/>
<polygon fill="midnightblue" stroke="midnightblue" points="1633.55,-283.12 1641,-275.59 1630.48,-276.84 1633.55,-283.12"/>
</g>
<!-- Node26 -->
<g id="node26" class="node">
<title>Node26</title>
<g id="a_node26"><a xlink:href="_u___controller_8cpp.html" target="_top" xlink:title="Controll the service/driver (Install|Start|Stop|Delete|Query)">
<polygon fill="none" stroke="black" points="1598.56,-156.5 1598.56,-197.5 1763.56,-197.5 1763.56,-156.5 1598.56,-156.5"/>
<text text-anchor="start" x="1606.56" y="-185.5" font-family="Helvetica,sans-Serif" font-size="10.00">C:/Users/Gshoo/Desktop</text>
<text text-anchor="start" x="1606.56" y="-174.5" font-family="Helvetica,sans-Serif" font-size="10.00">/pi&#45;defender&#45;tmp/Sources</text>
<text text-anchor="middle" x="1681.06" y="-163.5" font-family="Helvetica,sans-Serif" font-size="10.00">/PI&#45;Defender_UM/U_Controller.cpp</text>
</a>
</g>
</g>
<!-- Node25&#45;&gt;Node26 -->
<g id="edge41" class="edge">
<title>Node25&#45;&gt;Node26</title>
<path fill="none" stroke="midnightblue" d="M1681.06,-224.3C1681.06,-215.3 1681.06,-205.65 1681.06,-197.51"/>
<polygon fill="midnightblue" stroke="midnightblue" points="1677.56,-224.43 1681.06,-234.43 1684.56,-224.43 1677.56,-224.43"/>
</g>
<!-- Node28&#45;&gt;Node19 -->
<g id="edge45" class="edge">
<title>Node28&#45;&gt;Node19</title>
<path fill="none" stroke="midnightblue" d="M1505.13,-286.05C1500.13,-323.66 1486.93,-388.39 1453.06,-432 1441.38,-447.04 1424.46,-459.22 1408.64,-468.34"/>
<polygon fill="midnightblue" stroke="midnightblue" points="1508.65,-286.11 1506.39,-275.76 1501.71,-285.26 1508.65,-286.11"/>
</g>
<!-- Node28&#45;&gt;Node21 -->
<g id="edge49" class="edge">
<title>Node28&#45;&gt;Node21</title>
<path fill="none" stroke="midnightblue" d="M1495.56,-285.1C1485.61,-305.93 1470.21,-333.75 1451.06,-354 1437.46,-368.38 1419.49,-380.9 1403.58,-390.43"/>
<polygon fill="midnightblue" stroke="midnightblue" points="1498.84,-286.33 1499.86,-275.79 1492.49,-283.39 1498.84,-286.33"/>
</g>
<!-- Node28&#45;&gt;Node22 -->
<g id="edge46" class="edge">
<title>Node28&#45;&gt;Node22</title>
<path fill="none" stroke="midnightblue" d="M1425.68,-232.78C1382.83,-221.74 1330.8,-208.33 1288.93,-197.55"/>
<polygon fill="midnightblue" stroke="midnightblue" points="1424.96,-236.21 1435.52,-235.31 1426.71,-229.43 1424.96,-236.21"/>
</g>
<!-- Node28&#45;&gt;Node24 -->
<g id="edge47" class="edge">
<title>Node28&#45;&gt;Node24</title>
<path fill="none" stroke="midnightblue" d="M1468.74,-280.44C1450.05,-290.79 1427.71,-302.68 1408.62,-312.43"/>
<polygon fill="midnightblue" stroke="midnightblue" points="1470.57,-283.43 1477.6,-275.51 1467.16,-277.32 1470.57,-283.43"/>
</g>
<!-- Node29 -->
<g id="node29" class="node">
<title>Node29</title>
<g id="a_node29"><a xlink:href="_u___logs_8cpp.html" target="_top" xlink:title="Report Event to ETW.">
<polygon fill="none" stroke="black" points="1435.56,-156.5 1435.56,-197.5 1580.56,-197.5 1580.56,-156.5 1435.56,-156.5"/>
<text text-anchor="start" x="1443.56" y="-185.5" font-family="Helvetica,sans-Serif" font-size="10.00">C:/Users/Gshoo/Desktop</text>
<text text-anchor="start" x="1443.56" y="-174.5" font-family="Helvetica,sans-Serif" font-size="10.00">/pi&#45;defender&#45;tmp/Sources</text>
<text text-anchor="middle" x="1508.06" y="-163.5" font-family="Helvetica,sans-Serif" font-size="10.00">/PI&#45;Defender_UM/U_Logs.cpp</text>
</a>
</g>
</g>
<!-- Node28&#45;&gt;Node29 -->
<g id="edge48" class="edge">
<title>Node28&#45;&gt;Node29</title>
<path fill="none" stroke="midnightblue" d="M1508.06,-224.3C1508.06,-215.3 1508.06,-205.65 1508.06,-197.51"/>
<polygon fill="midnightblue" stroke="midnightblue" points="1504.56,-224.43 1508.06,-234.43 1511.56,-224.43 1504.56,-224.43"/>
</g>
</g>
</svg>
