<?xml version="1.0" encoding="UTF-8" standalone="no"?>
<!DOCTYPE svg PUBLIC "-//W3C//DTD SVG 1.1//EN"
 "http://www.w3.org/Graphics/SVG/1.1/DTD/svg11.dtd">
<!-- Generated by graphviz version 5.0.0 (20220707.1540)
 -->
<!-- Title: C:/Users/Gshoo/Desktop/pi&#45;defender&#45;tmp/Sources/PI&#45;Defender_UM/U_Logs.hpp Pages: 1 -->
<!--zoomable 440 -->
<svg id="main" version="1.1" xmlns="http://www.w3.org/2000/svg" xmlns:xlink="http://www.w3.org/1999/xlink" xml:space="preserve" onload="init(evt)">
<style type="text/css"><![CDATA[
.edge:hover path { stroke: red; }
.edge:hover polygon { stroke: red; fill: red; }
]]></style>
<script type="text/javascript"><![CDATA[
var edges = document.getElementsByTagName('g');
if (edges && edges.length) {
  for (var i=0;i<edges.length;i++) {
    if (edges[i].id.substr(0,4)=='edge') {
      edges[i].setAttribute('class','edge');
    }
  }
}
]]></script>
        <defs>
                <circle id="rim" cx="0" cy="0" r="7"/>
                <circle id="rim2" cx="0" cy="0" r="3.5"/>
                <g id="zoomPlus">
                        <use xlink:href="#rim" fill="#404040">
                                <set attributeName="fill" to="#808080" begin="zoomplus.mouseover" end="zoomplus.mouseout"/>
                        </use>
                        <path d="M-4,0h8M0,-4v8" fill="none" stroke="white" stroke-width="1.5" pointer-events="none"/>
                </g>
                <g id="zoomMin">
                        <use xlink:href="#rim" fill="#404040">
                                <set attributeName="fill" to="#808080" begin="zoomminus.mouseover" end="zoomminus.mouseout"/>
                        </use>
                        <path d="M-4,0h8" fill="none" stroke="white" stroke-width="1.5" pointer-events="none"/>
                </g>
                <g id="dirArrow">
                        <path fill="none" stroke="white" stroke-width="1.5" d="M0,-3.0v7 M-2.5,-0.5L0,-3.0L2.5,-0.5"/>
                </g>
               <g id="resetDef">
                       <use xlink:href="#rim2" fill="#404040">
                               <set attributeName="fill" to="#808080" begin="reset.mouseover" end="reset.mouseout"/>
                       </use>
               </g>
        </defs>

<script type="text/javascript">
var viewWidth = 639;
var viewHeight = 440;
var sectionId = 'dynsection-1';
</script>
<script xlink:href="svgpan.js"/>
<svg id="graph" class="graph">
<g id="viewport">
<title>C:/Users/Gshoo/Desktop/pi&#45;defender&#45;tmp/Sources/PI&#45;Defender_UM/U_Logs.hpp</title>
<!-- Node1 -->
<g id="node1" class="node">
<title>Node1</title>
<g id="a_node1"><a xlink:title="Header for U_Logs.cpp.">
<polygon fill="#bfbfbf" stroke="black" points="352.31,-390.5 352.31,-431.5 497.31,-431.5 497.31,-390.5 352.31,-390.5"/>
<text text-anchor="start" x="360.31" y="-419.5" font-family="Helvetica,sans-Serif" font-size="10.00">C:/Users/Gshoo/Desktop</text>
<text text-anchor="start" x="360.31" y="-408.5" font-family="Helvetica,sans-Serif" font-size="10.00">/pi&#45;defender&#45;tmp/Sources</text>
<text text-anchor="middle" x="424.81" y="-397.5" font-family="Helvetica,sans-Serif" font-size="10.00">/PI&#45;Defender_UM/U_Logs.hpp</text>
</a>
</g>
</g>
<!-- Node2 -->
<g id="node2" class="node">
<title>Node2</title>
<g id="a_node2"><a xlink:href="_u___communication_8hpp.html" target="_top" xlink:title="Header for U_Communication.cpp.">
<polygon fill="none" stroke="black" points="182.31,-312.5 182.31,-353.5 373.31,-353.5 373.31,-312.5 182.31,-312.5"/>
<text text-anchor="start" x="190.31" y="-341.5" font-family="Helvetica,sans-Serif" font-size="10.00">C:/Users/Gshoo/Desktop</text>
<text text-anchor="start" x="190.31" y="-330.5" font-family="Helvetica,sans-Serif" font-size="10.00">/pi&#45;defender&#45;tmp/Sources</text>
<text text-anchor="middle" x="277.81" y="-319.5" font-family="Helvetica,sans-Serif" font-size="10.00">/PI&#45;Defender_UM/U_Communication.hpp</text>
</a>
</g>
</g>
<!-- Node1&#45;&gt;Node2 -->
<g id="edge1" class="edge">
<title>Node1&#45;&gt;Node2</title>
<path fill="none" stroke="midnightblue" d="M377.94,-385.77C357.79,-375.35 334.55,-363.34 315.54,-353.51"/>
<polygon fill="midnightblue" stroke="midnightblue" points="376.46,-388.94 386.95,-390.43 379.68,-382.73 376.46,-388.94"/>
</g>
<!-- Node4 -->
<g id="node4" class="node">
<title>Node4</title>
<g id="a_node4"><a xlink:href="_u___service_8hpp.html" target="_top" xlink:title="Header for U_Service.cpp.">
<polygon fill="none" stroke="black" points="228.31,-234.5 228.31,-275.5 383.31,-275.5 383.31,-234.5 228.31,-234.5"/>
<text text-anchor="start" x="236.31" y="-263.5" font-family="Helvetica,sans-Serif" font-size="10.00">C:/Users/Gshoo/Desktop</text>
<text text-anchor="start" x="236.31" y="-252.5" font-family="Helvetica,sans-Serif" font-size="10.00">/pi&#45;defender&#45;tmp/Sources</text>
<text text-anchor="middle" x="305.81" y="-241.5" font-family="Helvetica,sans-Serif" font-size="10.00">/PI&#45;Defender_UM/U_Service.hpp</text>
</a>
</g>
</g>
<!-- Node1&#45;&gt;Node4 -->
<g id="edge20" class="edge">
<title>Node1&#45;&gt;Node4</title>
<path fill="none" stroke="midnightblue" d="M416.75,-380.48C410.06,-359.78 399,-332.3 382.81,-312 371.36,-297.66 355.37,-285.22 340.92,-275.74"/>
<polygon fill="midnightblue" stroke="midnightblue" points="413.49,-381.79 419.77,-390.32 420.18,-379.73 413.49,-381.79"/>
</g>
<!-- Node5 -->
<g id="node5" class="node">
<title>Node5</title>
<g id="a_node5"><a xlink:href="_u___configuration_8hpp.html" target="_top" xlink:title="Header for U_Configuration.cpp.">
<polygon fill="none" stroke="black" points="33.81,-78.5 33.81,-119.5 213.81,-119.5 213.81,-78.5 33.81,-78.5"/>
<text text-anchor="start" x="41.81" y="-107.5" font-family="Helvetica,sans-Serif" font-size="10.00">C:/Users/Gshoo/Desktop</text>
<text text-anchor="start" x="41.81" y="-96.5" font-family="Helvetica,sans-Serif" font-size="10.00">/pi&#45;defender&#45;tmp/Sources</text>
<text text-anchor="middle" x="123.81" y="-85.5" font-family="Helvetica,sans-Serif" font-size="10.00">/PI&#45;Defender_UM/U_Configuration.hpp</text>
</a>
</g>
</g>
<!-- Node1&#45;&gt;Node5 -->
<g id="edge17" class="edge">
<title>Node1&#45;&gt;Node5</title>
<path fill="none" stroke="midnightblue" d="M342.16,-396.04C231.71,-375.38 45.67,-332.92 9.81,-276 -26.19,-218.86 49.84,-152.12 94.44,-119.69"/>
<polygon fill="midnightblue" stroke="midnightblue" points="341.8,-399.53 352.27,-397.91 343.07,-392.65 341.8,-399.53"/>
</g>
<!-- Node7 -->
<g id="node7" class="node">
<title>Node7</title>
<g id="a_node7"><a xlink:href="_u___helper_8hpp.html" target="_top" xlink:title="Header for U_Helper.cpp.">
<polygon fill="none" stroke="black" points="372.81,-156.5 372.81,-197.5 524.81,-197.5 524.81,-156.5 372.81,-156.5"/>
<text text-anchor="start" x="380.81" y="-185.5" font-family="Helvetica,sans-Serif" font-size="10.00">C:/Users/Gshoo/Desktop</text>
<text text-anchor="start" x="380.81" y="-174.5" font-family="Helvetica,sans-Serif" font-size="10.00">/pi&#45;defender&#45;tmp/Sources</text>
<text text-anchor="middle" x="448.81" y="-163.5" font-family="Helvetica,sans-Serif" font-size="10.00">/PI&#45;Defender_UM/U_Helper.hpp</text>
</a>
</g>
</g>
<!-- Node1&#45;&gt;Node7 -->
<g id="edge18" class="edge">
<title>Node1&#45;&gt;Node7</title>
<path fill="none" stroke="midnightblue" d="M423.2,-380.11C425.23,-331.94 435.14,-238.44 442.79,-197.73"/>
<polygon fill="midnightblue" stroke="midnightblue" points="419.69,-380.11 422.87,-390.22 426.69,-380.34 419.69,-380.11"/>
</g>
<!-- Node12 -->
<g id="node12" class="node">
<title>Node12</title>
<g id="a_node12"><a xlink:href="_u___logs_8cpp.html" target="_top" xlink:title="Report Event to ETW.">
<polygon fill="none" stroke="black" points="486.31,-312.5 486.31,-353.5 631.31,-353.5 631.31,-312.5 486.31,-312.5"/>
<text text-anchor="start" x="494.31" y="-341.5" font-family="Helvetica,sans-Serif" font-size="10.00">C:/Users/Gshoo/Desktop</text>
<text text-anchor="start" x="494.31" y="-330.5" font-family="Helvetica,sans-Serif" font-size="10.00">/pi&#45;defender&#45;tmp/Sources</text>
<text text-anchor="middle" x="558.81" y="-319.5" font-family="Helvetica,sans-Serif" font-size="10.00">/PI&#45;Defender_UM/U_Logs.cpp</text>
</a>
</g>
</g>
<!-- Node1&#45;&gt;Node12 -->
<g id="edge19" class="edge">
<title>Node1&#45;&gt;Node12</title>
<path fill="none" stroke="midnightblue" d="M468.03,-385.49C486.28,-375.13 507.24,-363.25 524.42,-353.51"/>
<polygon fill="midnightblue" stroke="midnightblue" points="466.29,-382.45 459.32,-390.43 469.74,-388.54 466.29,-382.45"/>
</g>
<!-- Node3 -->
<g id="node3" class="node">
<title>Node3</title>
<g id="a_node3"><a xlink:href="_u___communication_8cpp.html" target="_top" xlink:title="Manage the communication with the driver (Connect|Reply|ListenerThread|WorkerThread)">
<polygon fill="none" stroke="black" points="19.31,-234.5 19.31,-275.5 210.31,-275.5 210.31,-234.5 19.31,-234.5"/>
<text text-anchor="start" x="27.31" y="-263.5" font-family="Helvetica,sans-Serif" font-size="10.00">C:/Users/Gshoo/Desktop</text>
<text text-anchor="start" x="27.31" y="-252.5" font-family="Helvetica,sans-Serif" font-size="10.00">/pi&#45;defender&#45;tmp/Sources</text>
<text text-anchor="middle" x="114.81" y="-241.5" font-family="Helvetica,sans-Serif" font-size="10.00">/PI&#45;Defender_UM/U_Communication.cpp</text>
</a>
</g>
</g>
<!-- Node2&#45;&gt;Node3 -->
<g id="edge2" class="edge">
<title>Node2&#45;&gt;Node3</title>
<path fill="none" stroke="midnightblue" d="M226.74,-308.19C204.19,-297.67 178.01,-285.47 156.64,-275.51"/>
<polygon fill="midnightblue" stroke="midnightblue" points="225.29,-311.37 235.83,-312.43 228.25,-305.03 225.29,-311.37"/>
</g>
<!-- Node2&#45;&gt;Node4 -->
<g id="edge3" class="edge">
<title>Node2&#45;&gt;Node4</title>
<path fill="none" stroke="midnightblue" d="M282.05,-302.59C285.06,-293.51 288.86,-283.74 292.64,-275.51"/>
<polygon fill="midnightblue" stroke="midnightblue" points="278.62,-301.84 279.03,-312.43 285.31,-303.89 278.62,-301.84"/>
</g>
<!-- Node4&#45;&gt;Node2 -->
<g id="edge4" class="edge">
<title>Node4&#45;&gt;Node2</title>
<path fill="none" stroke="midnightblue" d="M301.59,-285.34C298.58,-294.41 294.78,-304.18 291.01,-312.43"/>
<polygon fill="midnightblue" stroke="midnightblue" points="305.02,-286.09 304.6,-275.51 298.33,-284.04 305.02,-286.09"/>
</g>
<!-- Node4&#45;&gt;Node5 -->
<g id="edge5" class="edge">
<title>Node4&#45;&gt;Node5</title>
<path fill="none" stroke="midnightblue" d="M222.61,-230.63C203.71,-222.37 184.83,-211.64 169.81,-198 145.83,-176.23 129.82,-141.48 123.99,-119.75"/>
<polygon fill="midnightblue" stroke="midnightblue" points="221.3,-233.87 231.87,-234.48 223.99,-227.41 221.3,-233.87"/>
</g>
<!-- Node4&#45;&gt;Node7 -->
<g id="edge8" class="edge">
<title>Node4&#45;&gt;Node7</title>
<path fill="none" stroke="midnightblue" d="M345.58,-229.49C364.43,-219.13 386.92,-207.25 406.12,-197.51"/>
<polygon fill="midnightblue" stroke="midnightblue" points="343.7,-226.52 336.65,-234.43 347.09,-232.65 343.7,-226.52"/>
</g>
<!-- Node11 -->
<g id="node11" class="node">
<title>Node11</title>
<g id="a_node11"><a xlink:href="_u___service_8cpp.html" target="_top" xlink:title="Entrypoint of the process &amp; the service.">
<polygon fill="none" stroke="black" points="199.31,-156.5 199.31,-197.5 354.31,-197.5 354.31,-156.5 199.31,-156.5"/>
<text text-anchor="start" x="207.31" y="-185.5" font-family="Helvetica,sans-Serif" font-size="10.00">C:/Users/Gshoo/Desktop</text>
<text text-anchor="start" x="207.31" y="-174.5" font-family="Helvetica,sans-Serif" font-size="10.00">/pi&#45;defender&#45;tmp/Sources</text>
<text text-anchor="middle" x="276.81" y="-163.5" font-family="Helvetica,sans-Serif" font-size="10.00">/PI&#45;Defender_UM/U_Service.cpp</text>
</a>
</g>
</g>
<!-- Node4&#45;&gt;Node11 -->
<g id="edge16" class="edge">
<title>Node4&#45;&gt;Node11</title>
<path fill="none" stroke="midnightblue" d="M294.7,-224.88C291.2,-215.72 287.43,-205.83 284.25,-197.51"/>
<polygon fill="midnightblue" stroke="midnightblue" points="291.5,-226.33 298.34,-234.43 298.04,-223.84 291.5,-226.33"/>
</g>
<!-- Node5&#45;&gt;Node4 -->
<g id="edge7" class="edge">
<title>Node5&#45;&gt;Node4</title>
<path fill="none" stroke="midnightblue" d="M141.5,-128.75C152.08,-150.23 166.92,-179.03 187.81,-198 205.29,-213.88 228,-225.8 248.86,-234.48"/>
<polygon fill="midnightblue" stroke="midnightblue" points="144.63,-127.18 137.08,-119.75 138.35,-130.27 144.63,-127.18"/>
</g>
<!-- Node6 -->
<g id="node6" class="node">
<title>Node6</title>
<g id="a_node6"><a xlink:href="_u___configuration_8cpp.html" target="_top" xlink:title="Set all the needed configuration for the driver and the user&#45;mode service.">
<polygon fill="none" stroke="black" points="33.81,-0.5 33.81,-41.5 213.81,-41.5 213.81,-0.5 33.81,-0.5"/>
<text text-anchor="start" x="41.81" y="-29.5" font-family="Helvetica,sans-Serif" font-size="10.00">C:/Users/Gshoo/Desktop</text>
<text text-anchor="start" x="41.81" y="-18.5" font-family="Helvetica,sans-Serif" font-size="10.00">/pi&#45;defender&#45;tmp/Sources</text>
<text text-anchor="middle" x="123.81" y="-7.5" font-family="Helvetica,sans-Serif" font-size="10.00">/PI&#45;Defender_UM/U_Configuration.cpp</text>
</a>
</g>
</g>
<!-- Node5&#45;&gt;Node6 -->
<g id="edge6" class="edge">
<title>Node5&#45;&gt;Node6</title>
<path fill="none" stroke="midnightblue" d="M123.81,-68.3C123.81,-59.3 123.81,-49.65 123.81,-41.51"/>
<polygon fill="midnightblue" stroke="midnightblue" points="120.31,-68.43 123.81,-78.43 127.31,-68.43 120.31,-68.43"/>
</g>
<!-- Node7&#45;&gt;Node1 -->
<g id="edge14" class="edge">
<title>Node7&#45;&gt;Node1</title>
<path fill="none" stroke="midnightblue" d="M450.42,-207.83C448.4,-255.96 438.48,-349.47 430.83,-390.22"/>
<polygon fill="midnightblue" stroke="midnightblue" points="453.92,-207.84 450.74,-197.73 446.93,-207.61 453.92,-207.84"/>
</g>
<!-- Node7&#45;&gt;Node4 -->
<g id="edge15" class="edge">
<title>Node7&#45;&gt;Node4</title>
<path fill="none" stroke="midnightblue" d="M409.17,-202.44C390.33,-212.79 367.85,-224.68 348.62,-234.43"/>
<polygon fill="midnightblue" stroke="midnightblue" points="411.04,-205.41 418.09,-197.51 407.65,-199.29 411.04,-205.41"/>
</g>
<!-- Node7&#45;&gt;Node5 -->
<g id="edge9" class="edge">
<title>Node7&#45;&gt;Node5</title>
<path fill="none" stroke="midnightblue" d="M362.46,-155.69C305.62,-142.37 251.24,-129.68 207.67,-119.53"/>
<polygon fill="midnightblue" stroke="midnightblue" points="361.82,-159.13 372.35,-158 363.42,-152.31 361.82,-159.13"/>
</g>
<!-- Node8 -->
<g id="node8" class="node">
<title>Node8</title>
<g id="a_node8"><a xlink:href="_u___controller_8hpp.html" target="_top" xlink:title="Header for U_Controller.cpp.">
<polygon fill="none" stroke="black" points="232.31,-78.5 232.31,-119.5 397.31,-119.5 397.31,-78.5 232.31,-78.5"/>
<text text-anchor="start" x="240.31" y="-107.5" font-family="Helvetica,sans-Serif" font-size="10.00">C:/Users/Gshoo/Desktop</text>
<text text-anchor="start" x="240.31" y="-96.5" font-family="Helvetica,sans-Serif" font-size="10.00">/pi&#45;defender&#45;tmp/Sources</text>
<text text-anchor="middle" x="314.81" y="-85.5" font-family="Helvetica,sans-Serif" font-size="10.00">/PI&#45;Defender_UM/U_Controller.hpp</text>
</a>
</g>
</g>
<!-- Node7&#45;&gt;Node8 -->
<g id="edge10" class="edge">
<title>Node7&#45;&gt;Node8</title>
<path fill="none" stroke="midnightblue" d="M405.59,-151.49C387.33,-141.13 366.38,-129.25 349.2,-119.51"/>
<polygon fill="midnightblue" stroke="midnightblue" points="403.87,-154.54 414.3,-156.43 407.33,-148.45 403.87,-154.54"/>
</g>
<!-- Node10 -->
<g id="node10" class="node">
<title>Node10</title>
<g id="a_node10"><a xlink:href="_u___helper_8cpp.html" target="_top" xlink:title="Help function used by several .cpp files.">
<polygon fill="none" stroke="black" points="415.81,-78.5 415.81,-119.5 567.81,-119.5 567.81,-78.5 415.81,-78.5"/>
<text text-anchor="start" x="423.81" y="-107.5" font-family="Helvetica,sans-Serif" font-size="10.00">C:/Users/Gshoo/Desktop</text>
<text text-anchor="start" x="423.81" y="-96.5" font-family="Helvetica,sans-Serif" font-size="10.00">/pi&#45;defender&#45;tmp/Sources</text>
<text text-anchor="middle" x="491.81" y="-85.5" font-family="Helvetica,sans-Serif" font-size="10.00">/PI&#45;Defender_UM/U_Helper.cpp</text>
</a>
</g>
</g>
<!-- Node7&#45;&gt;Node10 -->
<g id="edge13" class="edge">
<title>Node7&#45;&gt;Node10</title>
<path fill="none" stroke="midnightblue" d="M464.95,-147.47C470.23,-138.14 475.96,-128.01 480.77,-119.51"/>
<polygon fill="midnightblue" stroke="midnightblue" points="461.76,-146 459.88,-156.43 467.85,-149.45 461.76,-146"/>
</g>
<!-- Node8&#45;&gt;Node4 -->
<g id="edge12" class="edge">
<title>Node8&#45;&gt;Node4</title>
<path fill="none" stroke="midnightblue" d="M226.01,-124.18C211.66,-132.02 198.64,-142.36 189.81,-156 179.66,-171.67 179.88,-182.19 189.81,-198 200.09,-214.38 216.67,-226.09 234.11,-234.41"/>
<polygon fill="midnightblue" stroke="midnightblue" points="227.72,-127.23 235.08,-119.61 224.58,-120.98 227.72,-127.23"/>
</g>
<!-- Node9 -->
<g id="node9" class="node">
<title>Node9</title>
<g id="a_node9"><a xlink:href="_u___controller_8cpp.html" target="_top" xlink:title="Controll the service/driver (Install|Start|Stop|Delete|Query)">
<polygon fill="none" stroke="black" points="232.31,-0.5 232.31,-41.5 397.31,-41.5 397.31,-0.5 232.31,-0.5"/>
<text text-anchor="start" x="240.31" y="-29.5" font-family="Helvetica,sans-Serif" font-size="10.00">C:/Users/Gshoo/Desktop</text>
<text text-anchor="start" x="240.31" y="-18.5" font-family="Helvetica,sans-Serif" font-size="10.00">/pi&#45;defender&#45;tmp/Sources</text>
<text text-anchor="middle" x="314.81" y="-7.5" font-family="Helvetica,sans-Serif" font-size="10.00">/PI&#45;Defender_UM/U_Controller.cpp</text>
</a>
</g>
</g>
<!-- Node8&#45;&gt;Node9 -->
<g id="edge11" class="edge">
<title>Node8&#45;&gt;Node9</title>
<path fill="none" stroke="midnightblue" d="M314.81,-68.3C314.81,-59.3 314.81,-49.65 314.81,-41.51"/>
<polygon fill="midnightblue" stroke="midnightblue" points="311.31,-68.43 314.81,-78.43 318.31,-68.43 311.31,-68.43"/>
</g>
</g>
</svg>
        <g id="navigator" transform="translate(0 0)" fill="#404254">
                <rect fill="#f2f5e9" fill-opacity="0.5" stroke="#606060" stroke-width=".5" x="0" y="0" width="60" height="60"/>
                <use id="zoomplus" xlink:href="#zoomPlus" x="17" y="9" onmousedown="handleZoom(evt,'in')"/>
                <use id="zoomminus" xlink:href="#zoomMin" x="42" y="9" onmousedown="handleZoom(evt,'out')"/>
                <use id="reset" xlink:href="#resetDef" x="30" y="36" onmousedown="handleReset()"/>
                <g id="arrowUp" xlink:href="#dirArrow" transform="translate(30 24)" onmousedown="handlePan(0,-1)">
                  <use xlink:href="#rim" fill="#404040">
                        <set attributeName="fill" to="#808080" begin="arrowUp.mouseover" end="arrowUp.mouseout"/>
                  </use>
                  <path fill="none" stroke="white" stroke-width="1.5" d="M0,-3.0v7 M-2.5,-0.5L0,-3.0L2.5,-0.5"/>
                </g>
                <g id="arrowRight" xlink:href="#dirArrow" transform="rotate(90) translate(36 -43)" onmousedown="handlePan(1,0)">
                  <use xlink:href="#rim" fill="#404040">
                        <set attributeName="fill" to="#808080" begin="arrowRight.mouseover" end="arrowRight.mouseout"/>
                  </use>
                  <path fill="none" stroke="white" stroke-width="1.5" d="M0,-3.0v7 M-2.5,-0.5L0,-3.0L2.5,-0.5"/>
                </g>
                <g id="arrowDown" xlink:href="#dirArrow" transform="rotate(180) translate(-30 -48)" onmousedown="handlePan(0,1)">
                  <use xlink:href="#rim" fill="#404040">
                        <set attributeName="fill" to="#808080" begin="arrowDown.mouseover" end="arrowDown.mouseout"/>
                  </use>
                  <path fill="none" stroke="white" stroke-width="1.5" d="M0,-3.0v7 M-2.5,-0.5L0,-3.0L2.5,-0.5"/>
                </g>
                <g id="arrowLeft" xlink:href="#dirArrow" transform="rotate(270) translate(-36 17)" onmousedown="handlePan(-1,0)">
                  <use xlink:href="#rim" fill="#404040">
                        <set attributeName="fill" to="#808080" begin="arrowLeft.mouseover" end="arrowLeft.mouseout"/>
                  </use>
                  <path fill="none" stroke="white" stroke-width="1.5" d="M0,-3.0v7 M-2.5,-0.5L0,-3.0L2.5,-0.5"/>
                </g>
        </g>
        <svg viewBox="0 0 15 15" width="100%" height="30px" preserveAspectRatio="xMaxYMin meet">
         <g id="arrow_out" transform="scale(0.3 0.3)">
          <a xlink:href="_u___logs_8hpp__dep__incl_org.svg" target="_base">
           <rect id="button" ry="5" rx="5" y="6" x="6" height="38" width="38"
                fill="#f2f5e9" fill-opacity="0.5" stroke="#606060" stroke-width="1.0"/>
           <path id="arrow"
             d="M 11.500037,31.436501 C 11.940474,20.09759 22.043105,11.32322 32.158766,21.979434 L 37.068811,17.246167 C 37.068811,17.246167 37.088388,32 37.088388,32 L 22.160133,31.978069 C 22.160133,31.978069 26.997745,27.140456 26.997745,27.140456 C 18.528582,18.264221 13.291696,25.230495 11.500037,31.436501 z"
             style="fill:#404040;"/>
          </a>
         </g>
        </svg>
</svg>
