<?xml version="1.0" encoding="UTF-8" standalone="no"?>
<!DOCTYPE svg PUBLIC "-//W3C//DTD SVG 1.1//EN"
 "http://www.w3.org/Graphics/SVG/1.1/DTD/svg11.dtd">
<!-- Generated by graphviz version 5.0.0 (20220707.1540)
 -->
<!-- Title: C:/Users/Gshoo/Desktop/pi&#45;defender&#45;tmp/Sources/PI&#45;Defender_UM/U_GlobalHeader.hpp Pages: 1 -->
<svg width="957pt" height="596pt"
 viewBox="0.00 0.00 956.50 596.00" xmlns="http://www.w3.org/2000/svg" xmlns:xlink="http://www.w3.org/1999/xlink">
<g id="graph0" class="graph" transform="scale(1 1) rotate(0) translate(4 592)">
<title>C:/Users/Gshoo/Desktop/pi&#45;defender&#45;tmp/Sources/PI&#45;Defender_UM/U_GlobalHeader.hpp</title>
<!-- Node1 -->
<g id="node1" class="node">
<title>Node1</title>
<g id="a_node1"><a xlink:title="Header used by several .hpp files.">
<polygon fill="#bfbfbf" stroke="black" points="536.5,-546.5 536.5,-587.5 718.5,-587.5 718.5,-546.5 536.5,-546.5"/>
<text text-anchor="start" x="544.5" y="-575.5" font-family="Helvetica,sans-Serif" font-size="10.00">C:/Users/Gshoo/Desktop</text>
<text text-anchor="start" x="544.5" y="-564.5" font-family="Helvetica,sans-Serif" font-size="10.00">/pi&#45;defender&#45;tmp/Sources</text>
<text text-anchor="middle" x="627.5" y="-553.5" font-family="Helvetica,sans-Serif" font-size="10.00">/PI&#45;Defender_UM/U_GlobalHeader.hpp</text>
</a>
</g>
</g>
<!-- Node2 -->
<g id="node2" class="node">
<title>Node2</title>
<g id="a_node2"><a xlink:href="_u___communication_8hpp.html" target="_top" xlink:title="Header for U_Communication.cpp.">
<polygon fill="none" stroke="black" points="427,-390.5 427,-431.5 618,-431.5 618,-390.5 427,-390.5"/>
<text text-anchor="start" x="435" y="-419.5" font-family="Helvetica,sans-Serif" font-size="10.00">C:/Users/Gshoo/Desktop</text>
<text text-anchor="start" x="435" y="-408.5" font-family="Helvetica,sans-Serif" font-size="10.00">/pi&#45;defender&#45;tmp/Sources</text>
<text text-anchor="middle" x="522.5" y="-397.5" font-family="Helvetica,sans-Serif" font-size="10.00">/PI&#45;Defender_UM/U_Communication.hpp</text>
</a>
</g>
</g>
<!-- Node1&#45;&gt;Node2 -->
<g id="edge1" class="edge">
<title>Node1&#45;&gt;Node2</title>
<path fill="none" stroke="midnightblue" d="M620.26,-536.41C614.28,-515.9 604.33,-488.68 589.5,-468 579.43,-453.96 565.04,-441.32 552.18,-431.61"/>
<polygon fill="midnightblue" stroke="midnightblue" points="616.92,-537.46 622.96,-546.17 623.67,-535.59 616.92,-537.46"/>
</g>
<!-- Node4 -->
<g id="node4" class="node">
<title>Node4</title>
<g id="a_node4"><a xlink:href="_u___service_8hpp.html" target="_top" xlink:title="Header for U_Service.cpp.">
<polygon fill="none" stroke="black" points="216,-312.5 216,-353.5 371,-353.5 371,-312.5 216,-312.5"/>
<text text-anchor="start" x="224" y="-341.5" font-family="Helvetica,sans-Serif" font-size="10.00">C:/Users/Gshoo/Desktop</text>
<text text-anchor="start" x="224" y="-330.5" font-family="Helvetica,sans-Serif" font-size="10.00">/pi&#45;defender&#45;tmp/Sources</text>
<text text-anchor="middle" x="293.5" y="-319.5" font-family="Helvetica,sans-Serif" font-size="10.00">/PI&#45;Defender_UM/U_Service.hpp</text>
</a>
</g>
</g>
<!-- Node1&#45;&gt;Node4 -->
<g id="edge30" class="edge">
<title>Node1&#45;&gt;Node4</title>
<path fill="none" stroke="midnightblue" d="M525.93,-564.21C431.43,-556.34 296.2,-527.73 234.5,-432 224.39,-416.31 227.13,-407.15 234.5,-390 240.69,-375.6 252.6,-363.16 264.11,-353.68"/>
<polygon fill="midnightblue" stroke="midnightblue" points="525.86,-567.71 536.09,-564.99 526.39,-560.74 525.86,-567.71"/>
</g>
<!-- Node5 -->
<g id="node5" class="node">
<title>Node5</title>
<g id="a_node5"><a xlink:href="_u___configuration_8hpp.html" target="_top" xlink:title="Header for U_Configuration.cpp.">
<polygon fill="none" stroke="black" points="430.5,-78.5 430.5,-119.5 610.5,-119.5 610.5,-78.5 430.5,-78.5"/>
<text text-anchor="start" x="438.5" y="-107.5" font-family="Helvetica,sans-Serif" font-size="10.00">C:/Users/Gshoo/Desktop</text>
<text text-anchor="start" x="438.5" y="-96.5" font-family="Helvetica,sans-Serif" font-size="10.00">/pi&#45;defender&#45;tmp/Sources</text>
<text text-anchor="middle" x="520.5" y="-85.5" font-family="Helvetica,sans-Serif" font-size="10.00">/PI&#45;Defender_UM/U_Configuration.hpp</text>
</a>
</g>
</g>
<!-- Node1&#45;&gt;Node5 -->
<g id="edge22" class="edge">
<title>Node1&#45;&gt;Node5</title>
<path fill="none" stroke="midnightblue" d="M646.02,-537.6C690.19,-465.97 791.65,-275.16 703.5,-156 696.81,-146.95 645.93,-131.79 599.52,-119.53"/>
<polygon fill="midnightblue" stroke="midnightblue" points="643.03,-535.79 640.69,-546.13 648.96,-539.51 643.03,-535.79"/>
</g>
<!-- Node7 -->
<g id="node7" class="node">
<title>Node7</title>
<g id="a_node7"><a xlink:href="_u___helper_8hpp.html" target="_top" xlink:title="Header for U_Helper.cpp.">
<polygon fill="none" stroke="black" points="353.5,-234.5 353.5,-275.5 505.5,-275.5 505.5,-234.5 353.5,-234.5"/>
<text text-anchor="start" x="361.5" y="-263.5" font-family="Helvetica,sans-Serif" font-size="10.00">C:/Users/Gshoo/Desktop</text>
<text text-anchor="start" x="361.5" y="-252.5" font-family="Helvetica,sans-Serif" font-size="10.00">/pi&#45;defender&#45;tmp/Sources</text>
<text text-anchor="middle" x="429.5" y="-241.5" font-family="Helvetica,sans-Serif" font-size="10.00">/PI&#45;Defender_UM/U_Helper.hpp</text>
</a>
</g>
</g>
<!-- Node1&#45;&gt;Node7 -->
<g id="edge24" class="edge">
<title>Node1&#45;&gt;Node7</title>
<path fill="none" stroke="midnightblue" d="M633.66,-536.35C642.94,-482.43 653.21,-368.68 589.5,-312 566.08,-291.17 534.46,-277.98 505.51,-269.67"/>
<polygon fill="midnightblue" stroke="midnightblue" points="630.2,-535.83 631.85,-546.3 637.09,-537.09 630.2,-535.83"/>
</g>
<!-- Node8 -->
<g id="node8" class="node">
<title>Node8</title>
<g id="a_node8"><a xlink:href="_u___controller_8hpp.html" target="_top" xlink:title="Header for U_Controller.cpp.">
<polygon fill="none" stroke="black" points="0,-156.5 0,-197.5 165,-197.5 165,-156.5 0,-156.5"/>
<text text-anchor="start" x="8" y="-185.5" font-family="Helvetica,sans-Serif" font-size="10.00">C:/Users/Gshoo/Desktop</text>
<text text-anchor="start" x="8" y="-174.5" font-family="Helvetica,sans-Serif" font-size="10.00">/pi&#45;defender&#45;tmp/Sources</text>
<text text-anchor="middle" x="82.5" y="-163.5" font-family="Helvetica,sans-Serif" font-size="10.00">/PI&#45;Defender_UM/U_Controller.hpp</text>
</a>
</g>
</g>
<!-- Node1&#45;&gt;Node8 -->
<g id="edge23" class="edge">
<title>Node1&#45;&gt;Node8</title>
<path fill="none" stroke="midnightblue" d="M526.12,-560.02C359.12,-547.36 44.5,-510.44 44.5,-412 44.5,-412 44.5,-412 44.5,-332 44.5,-282.43 63.29,-226.43 74.44,-197.55"/>
<polygon fill="midnightblue" stroke="midnightblue" points="526.17,-563.53 536.41,-560.78 526.69,-556.55 526.17,-563.53"/>
</g>
<!-- Node11 -->
<g id="node11" class="node">
<title>Node11</title>
<g id="a_node11"><a xlink:href="_u___logs_8hpp.html" target="_top" xlink:title="Header for U_Logs.cpp.">
<polygon fill="none" stroke="black" points="549,-156.5 549,-197.5 694,-197.5 694,-156.5 549,-156.5"/>
<text text-anchor="start" x="557" y="-185.5" font-family="Helvetica,sans-Serif" font-size="10.00">C:/Users/Gshoo/Desktop</text>
<text text-anchor="start" x="557" y="-174.5" font-family="Helvetica,sans-Serif" font-size="10.00">/pi&#45;defender&#45;tmp/Sources</text>
<text text-anchor="middle" x="621.5" y="-163.5" font-family="Helvetica,sans-Serif" font-size="10.00">/PI&#45;Defender_UM/U_Logs.hpp</text>
</a>
</g>
</g>
<!-- Node1&#45;&gt;Node11 -->
<g id="edge25" class="edge">
<title>Node1&#45;&gt;Node11</title>
<path fill="none" stroke="midnightblue" d="M643.06,-537.33C646.93,-528.78 650.53,-519.23 652.5,-510 656.39,-491.74 652.74,-486.67 652.5,-468 652.06,-433.32 653.04,-424.58 650.5,-390 645.38,-320.34 641.87,-303.07 631.5,-234 629.68,-221.89 627.28,-208.37 625.28,-197.65"/>
<polygon fill="midnightblue" stroke="midnightblue" points="639.84,-535.95 638.65,-546.48 646.15,-538.99 639.84,-535.95"/>
</g>
<!-- Node14 -->
<g id="node14" class="node">
<title>Node14</title>
<g id="a_node14"><a xlink:href="_u___registry_8hpp.html" target="_top" xlink:title="Header for U_Registry.cpp.">
<polygon fill="none" stroke="black" points="750.5,-234.5 750.5,-275.5 910.5,-275.5 910.5,-234.5 750.5,-234.5"/>
<text text-anchor="start" x="758.5" y="-263.5" font-family="Helvetica,sans-Serif" font-size="10.00">C:/Users/Gshoo/Desktop</text>
<text text-anchor="start" x="758.5" y="-252.5" font-family="Helvetica,sans-Serif" font-size="10.00">/pi&#45;defender&#45;tmp/Sources</text>
<text text-anchor="middle" x="830.5" y="-241.5" font-family="Helvetica,sans-Serif" font-size="10.00">/PI&#45;Defender_UM/U_Registry.hpp</text>
</a>
</g>
</g>
<!-- Node1&#45;&gt;Node14 -->
<g id="edge26" class="edge">
<title>Node1&#45;&gt;Node14</title>
<path fill="none" stroke="midnightblue" d="M693.64,-541.87C709.3,-533.68 724.82,-523.17 736.5,-510 799.51,-438.93 821.61,-321.87 828.13,-275.65"/>
<polygon fill="midnightblue" stroke="midnightblue" points="691.85,-538.86 684.44,-546.43 694.95,-545.13 691.85,-538.86"/>
</g>
<!-- Node16 -->
<g id="node16" class="node">
<title>Node16</title>
<g id="a_node16"><a xlink:href="_u___signature_8hpp.html" target="_top" xlink:title="Header for U_Signature.cpp.">
<polygon fill="none" stroke="black" points="415,-468.5 415,-509.5 580,-509.5 580,-468.5 415,-468.5"/>
<text text-anchor="start" x="423" y="-497.5" font-family="Helvetica,sans-Serif" font-size="10.00">C:/Users/Gshoo/Desktop</text>
<text text-anchor="start" x="423" y="-486.5" font-family="Helvetica,sans-Serif" font-size="10.00">/pi&#45;defender&#45;tmp/Sources</text>
<text text-anchor="middle" x="497.5" y="-475.5" font-family="Helvetica,sans-Serif" font-size="10.00">/PI&#45;Defender_UM/U_Signature.hpp</text>
</a>
</g>
</g>
<!-- Node1&#45;&gt;Node16 -->
<g id="edge31" class="edge">
<title>Node1&#45;&gt;Node16</title>
<path fill="none" stroke="midnightblue" d="M585.08,-541.2C567.49,-530.92 547.38,-519.16 530.86,-509.51"/>
<polygon fill="midnightblue" stroke="midnightblue" points="583.62,-544.4 594.02,-546.43 587.16,-538.36 583.62,-544.4"/>
</g>
<!-- Node3 -->
<g id="node3" class="node">
<title>Node3</title>
<g id="a_node3"><a xlink:href="_u___communication_8cpp.html" target="_top" xlink:title="Manage the communication with the driver (Connect|Reply|ListenerThread|WorkerThread)">
<polygon fill="none" stroke="black" points="389,-312.5 389,-353.5 580,-353.5 580,-312.5 389,-312.5"/>
<text text-anchor="start" x="397" y="-341.5" font-family="Helvetica,sans-Serif" font-size="10.00">C:/Users/Gshoo/Desktop</text>
<text text-anchor="start" x="397" y="-330.5" font-family="Helvetica,sans-Serif" font-size="10.00">/pi&#45;defender&#45;tmp/Sources</text>
<text text-anchor="middle" x="484.5" y="-319.5" font-family="Helvetica,sans-Serif" font-size="10.00">/PI&#45;Defender_UM/U_Communication.cpp</text>
</a>
</g>
</g>
<!-- Node2&#45;&gt;Node3 -->
<g id="edge2" class="edge">
<title>Node2&#45;&gt;Node3</title>
<path fill="none" stroke="midnightblue" d="M508.23,-381.47C503.57,-372.14 498.5,-362.01 494.25,-353.51"/>
<polygon fill="midnightblue" stroke="midnightblue" points="505.11,-383.05 512.71,-390.43 511.37,-379.92 505.11,-383.05"/>
</g>
<!-- Node2&#45;&gt;Node4 -->
<g id="edge3" class="edge">
<title>Node2&#45;&gt;Node4</title>
<path fill="none" stroke="midnightblue" d="M447.88,-387.3C414.7,-376.55 376.45,-363.82 346.29,-353.51"/>
<polygon fill="midnightblue" stroke="midnightblue" points="446.95,-390.68 457.54,-390.43 449.1,-384.02 446.95,-390.68"/>
</g>
<!-- Node4&#45;&gt;Node2 -->
<g id="edge4" class="edge">
<title>Node4&#45;&gt;Node2</title>
<path fill="none" stroke="midnightblue" d="M367.91,-356.63C401.07,-367.38 439.32,-380.1 469.52,-390.43"/>
<polygon fill="midnightblue" stroke="midnightblue" points="368.85,-353.25 358.26,-353.51 366.69,-359.91 368.85,-353.25"/>
</g>
<!-- Node4&#45;&gt;Node5 -->
<g id="edge5" class="edge">
<title>Node4&#45;&gt;Node5</title>
<path fill="none" stroke="midnightblue" d="M285.21,-302.37C281.2,-263.66 285.29,-196.12 322.5,-156 349.84,-126.51 391.9,-112.3 430.28,-105.55"/>
<polygon fill="midnightblue" stroke="midnightblue" points="281.77,-303.01 286.54,-312.47 288.71,-302.1 281.77,-303.01"/>
</g>
<!-- Node4&#45;&gt;Node7 -->
<g id="edge8" class="edge">
<title>Node4&#45;&gt;Node7</title>
<path fill="none" stroke="midnightblue" d="M331.5,-307.2C349.3,-296.92 370.47,-285.16 388.61,-275.51"/>
<polygon fill="midnightblue" stroke="midnightblue" points="329.41,-304.37 322.54,-312.43 332.94,-310.42 329.41,-304.37"/>
</g>
<!-- Node13 -->
<g id="node13" class="node">
<title>Node13</title>
<g id="a_node13"><a xlink:href="_u___service_8cpp.html" target="_top" xlink:title="Entrypoint of the process &amp; the service.">
<polygon fill="none" stroke="black" points="111,-234.5 111,-275.5 266,-275.5 266,-234.5 111,-234.5"/>
<text text-anchor="start" x="119" y="-263.5" font-family="Helvetica,sans-Serif" font-size="10.00">C:/Users/Gshoo/Desktop</text>
<text text-anchor="start" x="119" y="-252.5" font-family="Helvetica,sans-Serif" font-size="10.00">/pi&#45;defender&#45;tmp/Sources</text>
<text text-anchor="middle" x="188.5" y="-241.5" font-family="Helvetica,sans-Serif" font-size="10.00">/PI&#45;Defender_UM/U_Service.cpp</text>
</a>
</g>
</g>
<!-- Node4&#45;&gt;Node13 -->
<g id="edge21" class="edge">
<title>Node4&#45;&gt;Node13</title>
<path fill="none" stroke="midnightblue" d="M258.06,-306.35C244.14,-296.27 228.42,-284.89 215.45,-275.51"/>
<polygon fill="midnightblue" stroke="midnightblue" points="256.31,-309.4 266.46,-312.43 260.41,-303.73 256.31,-309.4"/>
</g>
<!-- Node5&#45;&gt;Node4 -->
<g id="edge7" class="edge">
<title>Node5&#45;&gt;Node4</title>
<path fill="none" stroke="midnightblue" d="M420.47,-111.53C391.21,-119.7 361.51,-133.34 340.5,-156 299.8,-199.89 298.73,-276.6 297,-312.47"/>
<polygon fill="midnightblue" stroke="midnightblue" points="421.55,-114.87 430.36,-108.97 419.8,-108.09 421.55,-114.87"/>
</g>
<!-- Node6 -->
<g id="node6" class="node">
<title>Node6</title>
<g id="a_node6"><a xlink:href="_u___configuration_8cpp.html" target="_top" xlink:title="Set all the needed configuration for the driver and the user&#45;mode service.">
<polygon fill="none" stroke="black" points="430.5,-0.5 430.5,-41.5 610.5,-41.5 610.5,-0.5 430.5,-0.5"/>
<text text-anchor="start" x="438.5" y="-29.5" font-family="Helvetica,sans-Serif" font-size="10.00">C:/Users/Gshoo/Desktop</text>
<text text-anchor="start" x="438.5" y="-18.5" font-family="Helvetica,sans-Serif" font-size="10.00">/pi&#45;defender&#45;tmp/Sources</text>
<text text-anchor="middle" x="520.5" y="-7.5" font-family="Helvetica,sans-Serif" font-size="10.00">/PI&#45;Defender_UM/U_Configuration.cpp</text>
</a>
</g>
</g>
<!-- Node5&#45;&gt;Node6 -->
<g id="edge6" class="edge">
<title>Node5&#45;&gt;Node6</title>
<path fill="none" stroke="midnightblue" d="M520.5,-68.3C520.5,-59.3 520.5,-49.65 520.5,-41.51"/>
<polygon fill="midnightblue" stroke="midnightblue" points="517,-68.43 520.5,-78.43 524,-68.43 517,-68.43"/>
</g>
<!-- Node7&#45;&gt;Node4 -->
<g id="edge20" class="edge">
<title>Node7&#45;&gt;Node4</title>
<path fill="none" stroke="midnightblue" d="M391.62,-280.73C373.84,-291.01 352.67,-302.77 334.51,-312.43"/>
<polygon fill="midnightblue" stroke="midnightblue" points="393.7,-283.57 400.58,-275.51 390.18,-277.52 393.7,-283.57"/>
</g>
<!-- Node7&#45;&gt;Node5 -->
<g id="edge9" class="edge">
<title>Node7&#45;&gt;Node5</title>
<path fill="none" stroke="midnightblue" d="M472.83,-228.32C483.7,-219.94 494.3,-209.72 501.5,-198 516.28,-173.93 519.94,-140.78 520.65,-119.87"/>
<polygon fill="midnightblue" stroke="midnightblue" points="470.55,-225.65 464.52,-234.36 474.67,-231.31 470.55,-225.65"/>
</g>
<!-- Node7&#45;&gt;Node8 -->
<g id="edge10" class="edge">
<title>Node7&#45;&gt;Node8</title>
<path fill="none" stroke="midnightblue" d="M343.37,-235.14C288.91,-223.21 218.92,-207.88 165.14,-196.1"/>
<polygon fill="midnightblue" stroke="midnightblue" points="342.83,-238.6 353.35,-237.32 344.33,-231.76 342.83,-238.6"/>
</g>
<!-- Node10 -->
<g id="node10" class="node">
<title>Node10</title>
<g id="a_node10"><a xlink:href="_u___helper_8cpp.html" target="_top" xlink:title="Help function used by several .cpp files.">
<polygon fill="none" stroke="black" points="340.5,-156.5 340.5,-197.5 492.5,-197.5 492.5,-156.5 340.5,-156.5"/>
<text text-anchor="start" x="348.5" y="-185.5" font-family="Helvetica,sans-Serif" font-size="10.00">C:/Users/Gshoo/Desktop</text>
<text text-anchor="start" x="348.5" y="-174.5" font-family="Helvetica,sans-Serif" font-size="10.00">/pi&#45;defender&#45;tmp/Sources</text>
<text text-anchor="middle" x="416.5" y="-163.5" font-family="Helvetica,sans-Serif" font-size="10.00">/PI&#45;Defender_UM/U_Helper.cpp</text>
</a>
</g>
</g>
<!-- Node7&#45;&gt;Node10 -->
<g id="edge13" class="edge">
<title>Node7&#45;&gt;Node10</title>
<path fill="none" stroke="midnightblue" d="M424.42,-224.3C422.88,-215.3 421.23,-205.65 419.84,-197.51"/>
<polygon fill="midnightblue" stroke="midnightblue" points="421.02,-225.16 426.15,-234.43 427.92,-223.98 421.02,-225.16"/>
</g>
<!-- Node7&#45;&gt;Node11 -->
<g id="edge14" class="edge">
<title>Node7&#45;&gt;Node11</title>
<path fill="none" stroke="midnightblue" d="M482.31,-230.61C508.4,-220 539.83,-207.6 566.24,-197.51"/>
<polygon fill="midnightblue" stroke="midnightblue" points="480.89,-227.41 472.96,-234.43 483.54,-233.89 480.89,-227.41"/>
</g>
<!-- Node8&#45;&gt;Node4 -->
<g id="edge12" class="edge">
<title>Node8&#45;&gt;Node4</title>
<path fill="none" stroke="midnightblue" d="M80.58,-207.78C80.84,-229.31 84.82,-257.7 101.5,-276 130.39,-307.69 176.09,-321.84 215.66,-327.99"/>
<polygon fill="midnightblue" stroke="midnightblue" points="84.08,-207.59 80.72,-197.54 77.08,-207.49 84.08,-207.59"/>
</g>
<!-- Node9 -->
<g id="node9" class="node">
<title>Node9</title>
<g id="a_node9"><a xlink:href="_u___controller_8cpp.html" target="_top" xlink:title="Controll the service/driver (Install|Start|Stop|Delete|Query)">
<polygon fill="none" stroke="black" points="0,-78.5 0,-119.5 165,-119.5 165,-78.5 0,-78.5"/>
<text text-anchor="start" x="8" y="-107.5" font-family="Helvetica,sans-Serif" font-size="10.00">C:/Users/Gshoo/Desktop</text>
<text text-anchor="start" x="8" y="-96.5" font-family="Helvetica,sans-Serif" font-size="10.00">/pi&#45;defender&#45;tmp/Sources</text>
<text text-anchor="middle" x="82.5" y="-85.5" font-family="Helvetica,sans-Serif" font-size="10.00">/PI&#45;Defender_UM/U_Controller.cpp</text>
</a>
</g>
</g>
<!-- Node8&#45;&gt;Node9 -->
<g id="edge11" class="edge">
<title>Node8&#45;&gt;Node9</title>
<path fill="none" stroke="midnightblue" d="M82.5,-146.3C82.5,-137.3 82.5,-127.65 82.5,-119.51"/>
<polygon fill="midnightblue" stroke="midnightblue" points="79,-146.43 82.5,-156.43 86,-146.43 79,-146.43"/>
</g>
<!-- Node11&#45;&gt;Node2 -->
<g id="edge15" class="edge">
<title>Node11&#45;&gt;Node2</title>
<path fill="none" stroke="midnightblue" d="M622.1,-207.78C621.56,-244.58 616.31,-307.95 589.5,-354 581.03,-368.54 567.31,-381 554.49,-390.45"/>
<polygon fill="midnightblue" stroke="midnightblue" points="625.6,-207.72 622.14,-197.7 618.6,-207.69 625.6,-207.72"/>
</g>
<!-- Node11&#45;&gt;Node4 -->
<g id="edge19" class="edge">
<title>Node11&#45;&gt;Node4</title>
<path fill="none" stroke="midnightblue" d="M598.61,-205.43C578.62,-227.65 547.67,-258.1 514.5,-276 507.93,-279.55 432.22,-298.39 371.22,-313.26"/>
<polygon fill="midnightblue" stroke="midnightblue" points="601.48,-207.47 605.46,-197.65 596.23,-202.84 601.48,-207.47"/>
</g>
<!-- Node11&#45;&gt;Node5 -->
<g id="edge16" class="edge">
<title>Node11&#45;&gt;Node5</title>
<path fill="none" stroke="midnightblue" d="M587.41,-150.35C574.02,-140.27 558.9,-128.89 546.42,-119.51"/>
<polygon fill="midnightblue" stroke="midnightblue" points="585.4,-153.21 595.49,-156.43 589.6,-147.62 585.4,-153.21"/>
</g>
<!-- Node11&#45;&gt;Node7 -->
<g id="edge17" class="edge">
<title>Node11&#45;&gt;Node7</title>
<path fill="none" stroke="midnightblue" d="M568.86,-201.32C542.8,-211.92 511.37,-224.32 484.93,-234.43"/>
<polygon fill="midnightblue" stroke="midnightblue" points="570.27,-204.53 578.21,-197.51 567.62,-198.05 570.27,-204.53"/>
</g>
<!-- Node12 -->
<g id="node12" class="node">
<title>Node12</title>
<g id="a_node12"><a xlink:href="_u___logs_8cpp.html" target="_top" xlink:title="Report Event to ETW.">
<polygon fill="none" stroke="black" points="629,-78.5 629,-119.5 774,-119.5 774,-78.5 629,-78.5"/>
<text text-anchor="start" x="637" y="-107.5" font-family="Helvetica,sans-Serif" font-size="10.00">C:/Users/Gshoo/Desktop</text>
<text text-anchor="start" x="637" y="-96.5" font-family="Helvetica,sans-Serif" font-size="10.00">/pi&#45;defender&#45;tmp/Sources</text>
<text text-anchor="middle" x="701.5" y="-85.5" font-family="Helvetica,sans-Serif" font-size="10.00">/PI&#45;Defender_UM/U_Logs.cpp</text>
</a>
</g>
</g>
<!-- Node11&#45;&gt;Node12 -->
<g id="edge18" class="edge">
<title>Node11&#45;&gt;Node12</title>
<path fill="none" stroke="midnightblue" d="M649.4,-149.49C659.78,-139.63 671.37,-128.63 680.97,-119.51"/>
<polygon fill="midnightblue" stroke="midnightblue" points="646.94,-147 642.1,-156.43 651.76,-152.08 646.94,-147"/>
</g>
<!-- Node14&#45;&gt;Node5 -->
<g id="edge27" class="edge">
<title>Node14&#45;&gt;Node5</title>
<path fill="none" stroke="midnightblue" d="M805.54,-226.48C780.6,-199.22 744.79,-160.85 736.5,-156 714.86,-143.32 659.84,-129.14 610.75,-118.22"/>
<polygon fill="midnightblue" stroke="midnightblue" points="803.25,-229.16 812.57,-234.18 808.42,-224.44 803.25,-229.16"/>
</g>
<!-- Node14&#45;&gt;Node11 -->
<g id="edge28" class="edge">
<title>Node14&#45;&gt;Node11</title>
<path fill="none" stroke="midnightblue" d="M766.94,-230.89C737.6,-220.22 703.15,-207.69 675.14,-197.51"/>
<polygon fill="midnightblue" stroke="midnightblue" points="766.08,-234.3 776.68,-234.43 768.48,-227.72 766.08,-234.3"/>
</g>
<!-- Node15 -->
<g id="node15" class="node">
<title>Node15</title>
<g id="a_node15"><a xlink:href="_u___registry_8cpp.html" target="_top" xlink:title="Create / Write / Delete registry key.">
<polygon fill="none" stroke="black" points="788.5,-156.5 788.5,-197.5 948.5,-197.5 948.5,-156.5 788.5,-156.5"/>
<text text-anchor="start" x="796.5" y="-185.5" font-family="Helvetica,sans-Serif" font-size="10.00">C:/Users/Gshoo/Desktop</text>
<text text-anchor="start" x="796.5" y="-174.5" font-family="Helvetica,sans-Serif" font-size="10.00">/pi&#45;defender&#45;tmp/Sources</text>
<text text-anchor="middle" x="868.5" y="-163.5" font-family="Helvetica,sans-Serif" font-size="10.00">/PI&#45;Defender_UM/U_Registry.cpp</text>
</a>
</g>
</g>
<!-- Node14&#45;&gt;Node15 -->
<g id="edge29" class="edge">
<title>Node14&#45;&gt;Node15</title>
<path fill="none" stroke="midnightblue" d="M844.77,-225.47C849.43,-216.14 854.5,-206.01 858.75,-197.51"/>
<polygon fill="midnightblue" stroke="midnightblue" points="841.63,-223.92 840.29,-234.43 847.89,-227.05 841.63,-223.92"/>
</g>
<!-- Node16&#45;&gt;Node2 -->
<g id="edge32" class="edge">
<title>Node16&#45;&gt;Node2</title>
<path fill="none" stroke="midnightblue" d="M507.08,-458.88C510.09,-449.72 513.35,-439.83 516.08,-431.51"/>
<polygon fill="midnightblue" stroke="midnightblue" points="503.74,-457.84 503.94,-468.43 510.39,-460.02 503.74,-457.84"/>
</g>
<!-- Node17 -->
<g id="node17" class="node">
<title>Node17</title>
<g id="a_node17"><a xlink:href="_u___signature_8cpp.html" target="_top" xlink:title="Verify embedded signature and catalog signature of an executable.">
<polygon fill="none" stroke="black" points="244,-390.5 244,-431.5 409,-431.5 409,-390.5 244,-390.5"/>
<text text-anchor="start" x="252" y="-419.5" font-family="Helvetica,sans-Serif" font-size="10.00">C:/Users/Gshoo/Desktop</text>
<text text-anchor="start" x="252" y="-408.5" font-family="Helvetica,sans-Serif" font-size="10.00">/pi&#45;defender&#45;tmp/Sources</text>
<text text-anchor="middle" x="326.5" y="-397.5" font-family="Helvetica,sans-Serif" font-size="10.00">/PI&#45;Defender_UM/U_Signature.cpp</text>
</a>
</g>
</g>
<!-- Node16&#45;&gt;Node17 -->
<g id="edge33" class="edge">
<title>Node16&#45;&gt;Node17</title>
<path fill="none" stroke="midnightblue" d="M444.24,-464.33C420.51,-453.78 392.9,-441.51 370.39,-431.51"/>
<polygon fill="midnightblue" stroke="midnightblue" points="442.9,-467.57 453.46,-468.43 445.75,-461.17 442.9,-467.57"/>
</g>
</g>
</svg>
