<?xml version="1.0" encoding="UTF-8" standalone="no"?>
<!DOCTYPE svg PUBLIC "-//W3C//DTD SVG 1.1//EN"
 "http://www.w3.org/Graphics/SVG/1.1/DTD/svg11.dtd">
<!-- Generated by graphviz version 4.0.0 (20220529.0937)
 -->
<!-- Title: C:/Users/admin&#45;cyb/Desktop/PI&#45;Defender/Sources/PI&#45;Defender_UM/U_Controller.hpp Pages: 1 -->
<svg width="496pt" height="506pt"
 viewBox="0.00 0.00 495.50 506.00" xmlns="http://www.w3.org/2000/svg" xmlns:xlink="http://www.w3.org/1999/xlink">
<g id="graph0" class="graph" transform="scale(1 1) rotate(0) translate(4 502)">
<title>C:/Users/admin&#45;cyb/Desktop/PI&#45;Defender/Sources/PI&#45;Defender_UM/U_Controller.hpp</title>
<!-- Node1 -->
<g id="node1" class="node">
<title>Node1</title>
<g id="a_node1"><a xlink:title="Header for U_Controller.cpp.">
<polygon fill="#bfbfbf" stroke="black" points="104.5,-445.5 104.5,-497.5 216.5,-497.5 216.5,-445.5 104.5,-445.5"/>
<text text-anchor="start" x="112.5" y="-485.5" font-family="Helvetica,sans-Serif" font-size="10.00">C:/Users/admin&#45;cyb</text>
<text text-anchor="start" x="112.5" y="-474.5" font-family="Helvetica,sans-Serif" font-size="10.00">/Desktop/PI&#45;Defender</text>
<text text-anchor="start" x="112.5" y="-463.5" font-family="Helvetica,sans-Serif" font-size="10.00">/Sources/PI&#45;Defender</text>
<text text-anchor="middle" x="160.5" y="-452.5" font-family="Helvetica,sans-Serif" font-size="10.00">_UM/U_Controller.hpp</text>
</a>
</g>
</g>
<!-- Node2 -->
<g id="node2" class="node">
<title>Node2</title>
<g id="a_node2"><a xlink:href="_u___controller_8cpp.html" target="_top" xlink:title="Controll the service/driver (Install|Start|Stop|Delete|Query)">
<polygon fill="none" stroke="black" points="20.5,-356.5 20.5,-408.5 132.5,-408.5 132.5,-356.5 20.5,-356.5"/>
<text text-anchor="start" x="28.5" y="-396.5" font-family="Helvetica,sans-Serif" font-size="10.00">C:/Users/admin&#45;cyb</text>
<text text-anchor="start" x="28.5" y="-385.5" font-family="Helvetica,sans-Serif" font-size="10.00">/Desktop/PI&#45;Defender</text>
<text text-anchor="start" x="28.5" y="-374.5" font-family="Helvetica,sans-Serif" font-size="10.00">/Sources/PI&#45;Defender</text>
<text text-anchor="middle" x="76.5" y="-363.5" font-family="Helvetica,sans-Serif" font-size="10.00">_UM/U_Controller.cpp</text>
</a>
</g>
</g>
<!-- Node1&#45;&gt;Node2 -->
<g id="edge1" class="edge">
<title>Node1&#45;&gt;Node2</title>
<path fill="none" stroke="midnightblue" d="M129.19,-438.08C119.79,-428.34 109.62,-417.8 100.74,-408.61"/>
<polygon fill="midnightblue" stroke="midnightblue" points="126.74,-440.57 136.2,-445.34 131.78,-435.71 126.74,-440.57"/>
</g>
<!-- Node3 -->
<g id="node3" class="node">
<title>Node3</title>
<g id="a_node3"><a xlink:href="_u___service_8hpp.html" target="_top" xlink:title="Header for U_Service.cpp.">
<polygon fill="none" stroke="black" points="189,-356.5 189,-408.5 298,-408.5 298,-356.5 189,-356.5"/>
<text text-anchor="start" x="197" y="-396.5" font-family="Helvetica,sans-Serif" font-size="10.00">C:/Users/admin&#45;cyb</text>
<text text-anchor="start" x="197" y="-385.5" font-family="Helvetica,sans-Serif" font-size="10.00">/Desktop/PI&#45;Defender</text>
<text text-anchor="start" x="197" y="-374.5" font-family="Helvetica,sans-Serif" font-size="10.00">/Sources/PI&#45;Defender</text>
<text text-anchor="middle" x="243.5" y="-363.5" font-family="Helvetica,sans-Serif" font-size="10.00">_UM/U_Service.hpp</text>
</a>
</g>
</g>
<!-- Node1&#45;&gt;Node3 -->
<g id="edge2" class="edge">
<title>Node1&#45;&gt;Node3</title>
<path fill="none" stroke="midnightblue" d="M191.43,-438.08C200.73,-428.34 210.78,-417.8 219.55,-408.61"/>
<polygon fill="midnightblue" stroke="midnightblue" points="188.88,-435.68 184.51,-445.34 193.94,-440.52 188.88,-435.68"/>
</g>
<!-- Node4 -->
<g id="node4" class="node">
<title>Node4</title>
<g id="a_node4"><a xlink:href="_u___communication_8hpp.html" target="_top" xlink:title="Header for U_Communication.cpp.">
<polygon fill="none" stroke="black" points="349.5,-89.5 349.5,-141.5 487.5,-141.5 487.5,-89.5 349.5,-89.5"/>
<text text-anchor="start" x="357.5" y="-129.5" font-family="Helvetica,sans-Serif" font-size="10.00">C:/Users/admin&#45;cyb</text>
<text text-anchor="start" x="357.5" y="-118.5" font-family="Helvetica,sans-Serif" font-size="10.00">/Desktop/PI&#45;Defender</text>
<text text-anchor="start" x="357.5" y="-107.5" font-family="Helvetica,sans-Serif" font-size="10.00">/Sources/PI&#45;Defender</text>
<text text-anchor="middle" x="418.5" y="-96.5" font-family="Helvetica,sans-Serif" font-size="10.00">_UM/U_Communication.hpp</text>
</a>
</g>
</g>
<!-- Node3&#45;&gt;Node4 -->
<g id="edge3" class="edge">
<title>Node3&#45;&gt;Node4</title>
<path fill="none" stroke="midnightblue" d="M308,-367.18C334.64,-358.14 363.4,-343.53 381.5,-320 422.05,-267.28 418.38,-183.37 416.88,-141.7"/>
<polygon fill="midnightblue" stroke="midnightblue" points="306.78,-363.89 298.31,-370.26 308.9,-370.56 306.78,-363.89"/>
</g>
<!-- Node6 -->
<g id="node6" class="node">
<title>Node6</title>
<g id="a_node6"><a xlink:href="_u___configuration_8hpp.html" target="_top" xlink:title="Header for U_Configuration.cpp.">
<polygon fill="none" stroke="black" points="0,-89.5 0,-141.5 127,-141.5 127,-89.5 0,-89.5"/>
<text text-anchor="start" x="8" y="-129.5" font-family="Helvetica,sans-Serif" font-size="10.00">C:/Users/admin&#45;cyb</text>
<text text-anchor="start" x="8" y="-118.5" font-family="Helvetica,sans-Serif" font-size="10.00">/Desktop/PI&#45;Defender</text>
<text text-anchor="start" x="8" y="-107.5" font-family="Helvetica,sans-Serif" font-size="10.00">/Sources/PI&#45;Defender</text>
<text text-anchor="middle" x="63.5" y="-96.5" font-family="Helvetica,sans-Serif" font-size="10.00">_UM/U_Configuration.hpp</text>
</a>
</g>
</g>
<!-- Node3&#45;&gt;Node6 -->
<g id="edge6" class="edge">
<title>Node3&#45;&gt;Node6</title>
<path fill="none" stroke="midnightblue" d="M178.91,-365.48C149.22,-355.5 114.91,-340.58 88.5,-320 49.45,-289.56 37.2,-277.96 21.5,-231 14.03,-208.66 15.76,-200.85 21.5,-178 24.69,-165.31 31.06,-152.38 38.04,-141.67"/>
<polygon fill="midnightblue" stroke="midnightblue" points="178.19,-368.93 188.78,-368.68 180.35,-362.27 178.19,-368.93"/>
</g>
<!-- Node8 -->
<g id="node8" class="node">
<title>Node8</title>
<g id="a_node8"><a xlink:href="_u___service_8cpp.html" target="_top" xlink:title="Entrypoint of the process &amp; the service.">
<polygon fill="none" stroke="black" points="272,-267.5 272,-319.5 381,-319.5 381,-267.5 272,-267.5"/>
<text text-anchor="start" x="280" y="-307.5" font-family="Helvetica,sans-Serif" font-size="10.00">C:/Users/admin&#45;cyb</text>
<text text-anchor="start" x="280" y="-296.5" font-family="Helvetica,sans-Serif" font-size="10.00">/Desktop/PI&#45;Defender</text>
<text text-anchor="start" x="280" y="-285.5" font-family="Helvetica,sans-Serif" font-size="10.00">/Sources/PI&#45;Defender</text>
<text text-anchor="middle" x="326.5" y="-274.5" font-family="Helvetica,sans-Serif" font-size="10.00">_UM/U_Service.cpp</text>
</a>
</g>
</g>
<!-- Node3&#45;&gt;Node8 -->
<g id="edge9" class="edge">
<title>Node3&#45;&gt;Node8</title>
<path fill="none" stroke="midnightblue" d="M274.43,-349.08C283.73,-339.34 293.78,-328.8 302.55,-319.61"/>
<polygon fill="midnightblue" stroke="midnightblue" points="271.88,-346.68 267.51,-356.34 276.94,-351.52 271.88,-346.68"/>
</g>
<!-- Node9 -->
<g id="node9" class="node">
<title>Node9</title>
<g id="a_node9"><a xlink:href="_u___utilitaire_8hpp.html" target="_top" xlink:title="Header for U_Utilitaire.cpp.">
<polygon fill="none" stroke="black" points="106,-267.5 106,-319.5 215,-319.5 215,-267.5 106,-267.5"/>
<text text-anchor="start" x="114" y="-307.5" font-family="Helvetica,sans-Serif" font-size="10.00">C:/Users/admin&#45;cyb</text>
<text text-anchor="start" x="114" y="-296.5" font-family="Helvetica,sans-Serif" font-size="10.00">/Desktop/PI&#45;Defender</text>
<text text-anchor="start" x="114" y="-285.5" font-family="Helvetica,sans-Serif" font-size="10.00">/Sources/PI&#45;Defender</text>
<text text-anchor="middle" x="160.5" y="-274.5" font-family="Helvetica,sans-Serif" font-size="10.00">_UM/U_Utilitaire.hpp</text>
</a>
</g>
</g>
<!-- Node3&#45;&gt;Node9 -->
<g id="edge10" class="edge">
<title>Node3&#45;&gt;Node9</title>
<path fill="none" stroke="midnightblue" d="M206.02,-349.08C196.37,-339.34 186.44,-328.8 178.27,-319.61"/>
<polygon fill="midnightblue" stroke="midnightblue" points="203.75,-351.76 213.31,-356.34 208.69,-346.8 203.75,-351.76"/>
</g>
<!-- Node4&#45;&gt;Node3 -->
<g id="edge5" class="edge">
<title>Node4&#45;&gt;Node3</title>
<path fill="none" stroke="midnightblue" d="M429.7,-151.64C436.68,-195.65 437.04,-271.19 399.5,-320 375.55,-351.14 332.94,-366.65 298.21,-374.3"/>
<polygon fill="midnightblue" stroke="midnightblue" points="433.13,-150.92 427.92,-141.7 426.24,-152.16 433.13,-150.92"/>
</g>
<!-- Node5 -->
<g id="node5" class="node">
<title>Node5</title>
<g id="a_node5"><a xlink:href="_u___communication_8cpp.html" target="_top" xlink:title="Manage the communication with the driver (Connect|Reply|ListenerThread|WorkerThread)">
<polygon fill="none" stroke="black" points="349.5,-0.5 349.5,-52.5 487.5,-52.5 487.5,-0.5 349.5,-0.5"/>
<text text-anchor="start" x="357.5" y="-40.5" font-family="Helvetica,sans-Serif" font-size="10.00">C:/Users/admin&#45;cyb</text>
<text text-anchor="start" x="357.5" y="-29.5" font-family="Helvetica,sans-Serif" font-size="10.00">/Desktop/PI&#45;Defender</text>
<text text-anchor="start" x="357.5" y="-18.5" font-family="Helvetica,sans-Serif" font-size="10.00">/Sources/PI&#45;Defender</text>
<text text-anchor="middle" x="418.5" y="-7.5" font-family="Helvetica,sans-Serif" font-size="10.00">_UM/U_Communication.cpp</text>
</a>
</g>
</g>
<!-- Node4&#45;&gt;Node5 -->
<g id="edge4" class="edge">
<title>Node4&#45;&gt;Node5</title>
<path fill="none" stroke="midnightblue" d="M418.5,-79.19C418.5,-70.28 418.5,-60.9 418.5,-52.61"/>
<polygon fill="midnightblue" stroke="midnightblue" points="415,-79.34 418.5,-89.34 422,-79.34 415,-79.34"/>
</g>
<!-- Node6&#45;&gt;Node3 -->
<g id="edge8" class="edge">
<title>Node6&#45;&gt;Node3</title>
<path fill="none" stroke="midnightblue" d="M50.12,-150.63C45.9,-159.23 41.84,-168.68 39.5,-178 33.76,-200.85 32.03,-208.66 39.5,-231 55.2,-277.96 67.45,-289.56 106.5,-320 131.01,-339.11 162.33,-353.33 188.9,-363.25"/>
<polygon fill="midnightblue" stroke="midnightblue" points="53.26,-152.17 54.69,-141.67 47.03,-148.99 53.26,-152.17"/>
</g>
<!-- Node7 -->
<g id="node7" class="node">
<title>Node7</title>
<g id="a_node7"><a xlink:href="_u___configuration_8cpp.html" target="_top" xlink:title="Set all the needed configuration for the driver and the user&#45;mode service.">
<polygon fill="none" stroke="black" points="0,-0.5 0,-52.5 127,-52.5 127,-0.5 0,-0.5"/>
<text text-anchor="start" x="8" y="-40.5" font-family="Helvetica,sans-Serif" font-size="10.00">C:/Users/admin&#45;cyb</text>
<text text-anchor="start" x="8" y="-29.5" font-family="Helvetica,sans-Serif" font-size="10.00">/Desktop/PI&#45;Defender</text>
<text text-anchor="start" x="8" y="-18.5" font-family="Helvetica,sans-Serif" font-size="10.00">/Sources/PI&#45;Defender</text>
<text text-anchor="middle" x="63.5" y="-7.5" font-family="Helvetica,sans-Serif" font-size="10.00">_UM/U_Configuration.cpp</text>
</a>
</g>
</g>
<!-- Node6&#45;&gt;Node7 -->
<g id="edge7" class="edge">
<title>Node6&#45;&gt;Node7</title>
<path fill="none" stroke="midnightblue" d="M63.5,-79.19C63.5,-70.28 63.5,-60.9 63.5,-52.61"/>
<polygon fill="midnightblue" stroke="midnightblue" points="60,-79.34 63.5,-89.34 67,-79.34 60,-79.34"/>
</g>
<!-- Node9&#45;&gt;Node1 -->
<g id="edge12" class="edge">
<title>Node9&#45;&gt;Node1</title>
<path fill="none" stroke="midnightblue" d="M160.5,-329.7C160.5,-363.89 160.5,-414.96 160.5,-445.28"/>
<polygon fill="midnightblue" stroke="midnightblue" points="164,-329.67 160.5,-319.67 157,-329.67 164,-329.67"/>
</g>
<!-- Node9&#45;&gt;Node3 -->
<g id="edge19" class="edge">
<title>Node9&#45;&gt;Node3</title>
<path fill="none" stroke="midnightblue" d="M197.92,-326.86C207.57,-336.6 217.5,-347.14 225.68,-356.34"/>
<polygon fill="midnightblue" stroke="midnightblue" points="200.19,-324.18 190.64,-319.61 195.25,-329.14 200.19,-324.18"/>
</g>
<!-- Node9&#45;&gt;Node6 -->
<g id="edge11" class="edge">
<title>Node9&#45;&gt;Node6</title>
<path fill="none" stroke="midnightblue" d="M168.13,-257.04C171.36,-233.22 171.78,-201.92 158.5,-178 150.11,-162.88 136.26,-150.89 121.7,-141.67"/>
<polygon fill="midnightblue" stroke="midnightblue" points="164.65,-256.66 166.55,-267.08 171.56,-257.75 164.65,-256.66"/>
</g>
<!-- Node10 -->
<g id="node10" class="node">
<title>Node10</title>
<g id="a_node10"><a xlink:href="_u___logs_8hpp.html" target="_top" xlink:title="Header for U_Logs.cpp.">
<polygon fill="none" stroke="black" points="206,-178.5 206,-230.5 315,-230.5 315,-178.5 206,-178.5"/>
<text text-anchor="start" x="214" y="-218.5" font-family="Helvetica,sans-Serif" font-size="10.00">C:/Users/admin&#45;cyb</text>
<text text-anchor="start" x="214" y="-207.5" font-family="Helvetica,sans-Serif" font-size="10.00">/Desktop/PI&#45;Defender</text>
<text text-anchor="start" x="214" y="-196.5" font-family="Helvetica,sans-Serif" font-size="10.00">/Sources/PI&#45;Defender</text>
<text text-anchor="middle" x="260.5" y="-185.5" font-family="Helvetica,sans-Serif" font-size="10.00">_UM/U_Logs.hpp</text>
</a>
</g>
</g>
<!-- Node9&#45;&gt;Node10 -->
<g id="edge13" class="edge">
<title>Node9&#45;&gt;Node10</title>
<path fill="none" stroke="midnightblue" d="M190.9,-260.36C201.82,-250.54 214.18,-239.89 225.46,-230.61"/>
<polygon fill="midnightblue" stroke="midnightblue" points="188.28,-258.02 183.24,-267.34 192.99,-263.19 188.28,-258.02"/>
</g>
<!-- Node12 -->
<g id="node12" class="node">
<title>Node12</title>
<g id="a_node12"><a xlink:href="_u___utilitaire_8cpp.html" target="_top" xlink:title="Help function used by several .cpp files.">
<polygon fill="none" stroke="black" points="40,-178.5 40,-230.5 149,-230.5 149,-178.5 40,-178.5"/>
<text text-anchor="start" x="48" y="-218.5" font-family="Helvetica,sans-Serif" font-size="10.00">C:/Users/admin&#45;cyb</text>
<text text-anchor="start" x="48" y="-207.5" font-family="Helvetica,sans-Serif" font-size="10.00">/Desktop/PI&#45;Defender</text>
<text text-anchor="start" x="48" y="-196.5" font-family="Helvetica,sans-Serif" font-size="10.00">/Sources/PI&#45;Defender</text>
<text text-anchor="middle" x="94.5" y="-185.5" font-family="Helvetica,sans-Serif" font-size="10.00">_UM/U_Utilitaire.cpp</text>
</a>
</g>
</g>
<!-- Node9&#45;&gt;Node12 -->
<g id="edge20" class="edge">
<title>Node9&#45;&gt;Node12</title>
<path fill="none" stroke="midnightblue" d="M135.25,-259.22C128.04,-249.72 120.32,-239.53 113.55,-230.61"/>
<polygon fill="midnightblue" stroke="midnightblue" points="132.58,-261.48 141.41,-267.34 138.15,-257.25 132.58,-261.48"/>
</g>
<!-- Node10&#45;&gt;Node3 -->
<g id="edge17" class="edge">
<title>Node10&#45;&gt;Node3</title>
<path fill="none" stroke="midnightblue" d="M257.1,-240.7C253.8,-274.89 248.86,-325.96 245.94,-356.28"/>
<polygon fill="midnightblue" stroke="midnightblue" points="260.59,-240.96 258.07,-230.67 253.62,-240.29 260.59,-240.96"/>
</g>
<!-- Node10&#45;&gt;Node4 -->
<g id="edge14" class="edge">
<title>Node10&#45;&gt;Node4</title>
<path fill="none" stroke="midnightblue" d="M314.99,-173.49C333.87,-163.1 354.82,-151.57 372.9,-141.61"/>
<polygon fill="midnightblue" stroke="midnightblue" points="313.27,-170.45 306.2,-178.34 316.65,-176.58 313.27,-170.45"/>
</g>
<!-- Node10&#45;&gt;Node6 -->
<g id="edge15" class="edge">
<title>Node10&#45;&gt;Node6</title>
<path fill="none" stroke="midnightblue" d="M196.64,-175.3C172.05,-164.44 144.16,-152.12 120.28,-141.58"/>
<polygon fill="midnightblue" stroke="midnightblue" points="195.32,-178.54 205.89,-179.38 198.15,-172.14 195.32,-178.54"/>
</g>
<!-- Node10&#45;&gt;Node9 -->
<g id="edge18" class="edge">
<title>Node10&#45;&gt;Node9</title>
<path fill="none" stroke="midnightblue" d="M230.17,-237.58C219.25,-247.39 206.89,-258.05 195.61,-267.34"/>
<polygon fill="midnightblue" stroke="midnightblue" points="232.79,-239.93 237.82,-230.61 228.07,-234.75 232.79,-239.93"/>
</g>
<!-- Node11 -->
<g id="node11" class="node">
<title>Node11</title>
<g id="a_node11"><a xlink:href="_u___logs_8cpp.html" target="_top" xlink:title="Report Event to ETW.">
<polygon fill="none" stroke="black" points="206,-89.5 206,-141.5 315,-141.5 315,-89.5 206,-89.5"/>
<text text-anchor="start" x="214" y="-129.5" font-family="Helvetica,sans-Serif" font-size="10.00">C:/Users/admin&#45;cyb</text>
<text text-anchor="start" x="214" y="-118.5" font-family="Helvetica,sans-Serif" font-size="10.00">/Desktop/PI&#45;Defender</text>
<text text-anchor="start" x="214" y="-107.5" font-family="Helvetica,sans-Serif" font-size="10.00">/Sources/PI&#45;Defender</text>
<text text-anchor="middle" x="260.5" y="-96.5" font-family="Helvetica,sans-Serif" font-size="10.00">_UM/U_Logs.cpp</text>
</a>
</g>
</g>
<!-- Node10&#45;&gt;Node11 -->
<g id="edge16" class="edge">
<title>Node10&#45;&gt;Node11</title>
<path fill="none" stroke="midnightblue" d="M260.5,-168.19C260.5,-159.28 260.5,-149.9 260.5,-141.61"/>
<polygon fill="midnightblue" stroke="midnightblue" points="257,-168.34 260.5,-178.34 264,-168.34 257,-168.34"/>
</g>
</g>
</svg>
