<?xml version="1.0" encoding="UTF-8" standalone="no"?>
<!DOCTYPE svg PUBLIC "-//W3C//DTD SVG 1.1//EN"
 "http://www.w3.org/Graphics/SVG/1.1/DTD/svg11.dtd">
<!-- Generated by graphviz version 5.0.0 (20220707.1540)
 -->
<!-- Title: C:/Users/Gshoo/Desktop/pi&#45;defender&#45;tmp/Sources/PI&#45;Defender_UM/U_Helper.hpp Pages: 1 -->
<!--zoomable 440 -->
<svg id="main" version="1.1" xmlns="http://www.w3.org/2000/svg" xmlns:xlink="http://www.w3.org/1999/xlink" xml:space="preserve" onload="init(evt)">
<style type="text/css"><![CDATA[
.edge:hover path { stroke: red; }
.edge:hover polygon { stroke: red; fill: red; }
]]></style>
<script type="text/javascript"><![CDATA[
var edges = document.getElementsByTagName('g');
if (edges && edges.length) {
  for (var i=0;i<edges.length;i++) {
    if (edges[i].id.substr(0,4)=='edge') {
      edges[i].setAttribute('class','edge');
    }
  }
}
]]></script>
        <defs>
                <circle id="rim" cx="0" cy="0" r="7"/>
                <circle id="rim2" cx="0" cy="0" r="3.5"/>
                <g id="zoomPlus">
                        <use xlink:href="#rim" fill="#404040">
                                <set attributeName="fill" to="#808080" begin="zoomplus.mouseover" end="zoomplus.mouseout"/>
                        </use>
                        <path d="M-4,0h8M0,-4v8" fill="none" stroke="white" stroke-width="1.5" pointer-events="none"/>
                </g>
                <g id="zoomMin">
                        <use xlink:href="#rim" fill="#404040">
                                <set attributeName="fill" to="#808080" begin="zoomminus.mouseover" end="zoomminus.mouseout"/>
                        </use>
                        <path d="M-4,0h8" fill="none" stroke="white" stroke-width="1.5" pointer-events="none"/>
                </g>
                <g id="dirArrow">
                        <path fill="none" stroke="white" stroke-width="1.5" d="M0,-3.0v7 M-2.5,-0.5L0,-3.0L2.5,-0.5"/>
                </g>
               <g id="resetDef">
                       <use xlink:href="#rim2" fill="#404040">
                               <set attributeName="fill" to="#808080" begin="reset.mouseover" end="reset.mouseout"/>
                       </use>
               </g>
        </defs>

<script type="text/javascript">
var viewWidth = 690;
var viewHeight = 440;
var sectionId = 'dynsection-1';
</script>
<script xlink:href="svgpan.js"/>
<svg id="graph" class="graph">
<g id="viewport">
<title>C:/Users/Gshoo/Desktop/pi&#45;defender&#45;tmp/Sources/PI&#45;Defender_UM/U_Helper.hpp</title>
<!-- Node1 -->
<g id="node1" class="node">
<title>Node1</title>
<g id="a_node1"><a xlink:title="Header for U_Helper.cpp.">
<polygon fill="#bfbfbf" stroke="black" points="223.05,-390.5 223.05,-431.5 375.05,-431.5 375.05,-390.5 223.05,-390.5"/>
<text text-anchor="start" x="231.05" y="-419.5" font-family="Helvetica,sans-Serif" font-size="10.00">C:/Users/Gshoo/Desktop</text>
<text text-anchor="start" x="231.05" y="-408.5" font-family="Helvetica,sans-Serif" font-size="10.00">/pi&#45;defender&#45;tmp/Sources</text>
<text text-anchor="middle" x="299.05" y="-397.5" font-family="Helvetica,sans-Serif" font-size="10.00">/PI&#45;Defender_UM/U_Helper.hpp</text>
</a>
</g>
</g>
<!-- Node2 -->
<g id="node2" class="node">
<title>Node2</title>
<g id="a_node2"><a xlink:href="_u___configuration_8hpp.html" target="_top" xlink:title="Header for U_Configuration.cpp.">
<polygon fill="none" stroke="black" points="467.05,-234.5 467.05,-275.5 647.05,-275.5 647.05,-234.5 467.05,-234.5"/>
<text text-anchor="start" x="475.05" y="-263.5" font-family="Helvetica,sans-Serif" font-size="10.00">C:/Users/Gshoo/Desktop</text>
<text text-anchor="start" x="475.05" y="-252.5" font-family="Helvetica,sans-Serif" font-size="10.00">/pi&#45;defender&#45;tmp/Sources</text>
<text text-anchor="middle" x="557.05" y="-241.5" font-family="Helvetica,sans-Serif" font-size="10.00">/PI&#45;Defender_UM/U_Configuration.hpp</text>
</a>
</g>
</g>
<!-- Node1&#45;&gt;Node2 -->
<g id="edge1" class="edge">
<title>Node1&#45;&gt;Node2</title>
<path fill="none" stroke="midnightblue" d="M385.4,-401.84C449.6,-393.82 529.64,-379.07 551.05,-354 569.42,-332.48 566.49,-297.66 562.16,-275.84"/>
<polygon fill="midnightblue" stroke="midnightblue" points="384.75,-398.39 375.24,-403.06 385.59,-405.34 384.75,-398.39"/>
</g>
<!-- Node4 -->
<g id="node4" class="node">
<title>Node4</title>
<g id="a_node4"><a xlink:href="_u___service_8hpp.html" target="_top" xlink:title="Header for U_Service.cpp.">
<polygon fill="none" stroke="black" points="197.55,-156.5 197.55,-197.5 352.55,-197.5 352.55,-156.5 197.55,-156.5"/>
<text text-anchor="start" x="205.55" y="-185.5" font-family="Helvetica,sans-Serif" font-size="10.00">C:/Users/Gshoo/Desktop</text>
<text text-anchor="start" x="205.55" y="-174.5" font-family="Helvetica,sans-Serif" font-size="10.00">/pi&#45;defender&#45;tmp/Sources</text>
<text text-anchor="middle" x="275.05" y="-163.5" font-family="Helvetica,sans-Serif" font-size="10.00">/PI&#45;Defender_UM/U_Service.hpp</text>
</a>
</g>
</g>
<!-- Node1&#45;&gt;Node4 -->
<g id="edge20" class="edge">
<title>Node1&#45;&gt;Node4</title>
<path fill="none" stroke="midnightblue" d="M212.39,-404.03C141.02,-396.98 48.09,-382.42 25.05,-354 -8.54,-312.57 -8.12,-275.76 25.05,-234 46.02,-207.6 131.91,-192.52 197.28,-184.8"/>
<polygon fill="midnightblue" stroke="midnightblue" points="212.46,-407.55 222.75,-405.01 213.13,-400.58 212.46,-407.55"/>
</g>
<!-- Node8 -->
<g id="node8" class="node">
<title>Node8</title>
<g id="a_node8"><a xlink:href="_u___controller_8hpp.html" target="_top" xlink:title="Header for U_Controller.cpp.">
<polygon fill="none" stroke="black" points="43.55,-312.5 43.55,-353.5 208.55,-353.5 208.55,-312.5 43.55,-312.5"/>
<text text-anchor="start" x="51.55" y="-341.5" font-family="Helvetica,sans-Serif" font-size="10.00">C:/Users/Gshoo/Desktop</text>
<text text-anchor="start" x="51.55" y="-330.5" font-family="Helvetica,sans-Serif" font-size="10.00">/pi&#45;defender&#45;tmp/Sources</text>
<text text-anchor="middle" x="126.05" y="-319.5" font-family="Helvetica,sans-Serif" font-size="10.00">/PI&#45;Defender_UM/U_Controller.hpp</text>
</a>
</g>
</g>
<!-- Node1&#45;&gt;Node8 -->
<g id="edge10" class="edge">
<title>Node1&#45;&gt;Node8</title>
<path fill="none" stroke="midnightblue" d="M245.17,-386.33C221.16,-375.78 193.23,-363.51 170.45,-353.51"/>
<polygon fill="midnightblue" stroke="midnightblue" points="243.93,-389.61 254.5,-390.43 246.75,-383.2 243.93,-389.61"/>
</g>
<!-- Node10 -->
<g id="node10" class="node">
<title>Node10</title>
<g id="a_node10"><a xlink:href="_u___helper_8cpp.html" target="_top" xlink:title="Help function used by several .cpp files.">
<polygon fill="none" stroke="black" points="390.05,-312.5 390.05,-353.5 542.05,-353.5 542.05,-312.5 390.05,-312.5"/>
<text text-anchor="start" x="398.05" y="-341.5" font-family="Helvetica,sans-Serif" font-size="10.00">C:/Users/Gshoo/Desktop</text>
<text text-anchor="start" x="398.05" y="-330.5" font-family="Helvetica,sans-Serif" font-size="10.00">/pi&#45;defender&#45;tmp/Sources</text>
<text text-anchor="middle" x="466.05" y="-319.5" font-family="Helvetica,sans-Serif" font-size="10.00">/PI&#45;Defender_UM/U_Helper.cpp</text>
</a>
</g>
</g>
<!-- Node1&#45;&gt;Node10 -->
<g id="edge13" class="edge">
<title>Node1&#45;&gt;Node10</title>
<path fill="none" stroke="midnightblue" d="M351.37,-386.19C374.47,-375.67 401.29,-363.47 423.19,-353.51"/>
<polygon fill="midnightblue" stroke="midnightblue" points="349.71,-383.1 342.05,-390.43 352.61,-389.47 349.71,-383.1"/>
</g>
<!-- Node11 -->
<g id="node11" class="node">
<title>Node11</title>
<g id="a_node11"><a xlink:href="_u___logs_8hpp.html" target="_top" xlink:title="Header for U_Logs.cpp.">
<polygon fill="none" stroke="black" points="226.55,-312.5 226.55,-353.5 371.55,-353.5 371.55,-312.5 226.55,-312.5"/>
<text text-anchor="start" x="234.55" y="-341.5" font-family="Helvetica,sans-Serif" font-size="10.00">C:/Users/Gshoo/Desktop</text>
<text text-anchor="start" x="234.55" y="-330.5" font-family="Helvetica,sans-Serif" font-size="10.00">/pi&#45;defender&#45;tmp/Sources</text>
<text text-anchor="middle" x="299.05" y="-319.5" font-family="Helvetica,sans-Serif" font-size="10.00">/PI&#45;Defender_UM/U_Logs.hpp</text>
</a>
</g>
</g>
<!-- Node1&#45;&gt;Node11 -->
<g id="edge14" class="edge">
<title>Node1&#45;&gt;Node11</title>
<path fill="none" stroke="midnightblue" d="M292.44,-380.3C292.12,-371.3 292.33,-361.65 293.07,-353.51"/>
<polygon fill="midnightblue" stroke="midnightblue" points="288.96,-380.66 293.06,-390.43 295.95,-380.23 288.96,-380.66"/>
</g>
<!-- Node3 -->
<g id="node3" class="node">
<title>Node3</title>
<g id="a_node3"><a xlink:href="_u___configuration_8cpp.html" target="_top" xlink:title="Set all the needed configuration for the driver and the user&#45;mode service.">
<polygon fill="none" stroke="black" points="467.05,-156.5 467.05,-197.5 647.05,-197.5 647.05,-156.5 467.05,-156.5"/>
<text text-anchor="start" x="475.05" y="-185.5" font-family="Helvetica,sans-Serif" font-size="10.00">C:/Users/Gshoo/Desktop</text>
<text text-anchor="start" x="475.05" y="-174.5" font-family="Helvetica,sans-Serif" font-size="10.00">/pi&#45;defender&#45;tmp/Sources</text>
<text text-anchor="middle" x="557.05" y="-163.5" font-family="Helvetica,sans-Serif" font-size="10.00">/PI&#45;Defender_UM/U_Configuration.cpp</text>
</a>
</g>
</g>
<!-- Node2&#45;&gt;Node3 -->
<g id="edge2" class="edge">
<title>Node2&#45;&gt;Node3</title>
<path fill="none" stroke="midnightblue" d="M557.05,-224.3C557.05,-215.3 557.05,-205.65 557.05,-197.51"/>
<polygon fill="midnightblue" stroke="midnightblue" points="553.55,-224.43 557.05,-234.43 560.55,-224.43 553.55,-224.43"/>
</g>
<!-- Node2&#45;&gt;Node4 -->
<g id="edge3" class="edge">
<title>Node2&#45;&gt;Node4</title>
<path fill="none" stroke="midnightblue" d="M468.68,-231.86C427.54,-220.98 379.44,-208 341.44,-197.51"/>
<polygon fill="midnightblue" stroke="midnightblue" points="467.88,-235.26 478.44,-234.43 469.66,-228.49 467.88,-235.26"/>
</g>
<!-- Node4&#45;&gt;Node1 -->
<g id="edge8" class="edge">
<title>Node4&#45;&gt;Node1</title>
<path fill="none" stroke="midnightblue" d="M187.4,-188.02C129.62,-196.43 61.42,-210.87 43.05,-234 9.88,-275.76 9.46,-312.57 43.05,-354 65.7,-381.94 155.93,-396.49 222.95,-403.67"/>
<polygon fill="midnightblue" stroke="midnightblue" points="187.9,-191.48 197.32,-186.62 186.93,-184.55 187.9,-191.48"/>
</g>
<!-- Node4&#45;&gt;Node2 -->
<g id="edge7" class="edge">
<title>Node4&#45;&gt;Node2</title>
<path fill="none" stroke="midnightblue" d="M362.43,-199.89C403.71,-210.79 452.16,-223.86 490.41,-234.43"/>
<polygon fill="midnightblue" stroke="midnightblue" points="363.22,-196.47 352.66,-197.31 361.43,-203.24 363.22,-196.47"/>
</g>
<!-- Node5 -->
<g id="node5" class="node">
<title>Node5</title>
<g id="a_node5"><a xlink:href="_u___communication_8hpp.html" target="_top" xlink:title="Header for U_Communication.cpp.">
<polygon fill="none" stroke="black" points="275.55,-78.5 275.55,-119.5 466.55,-119.5 466.55,-78.5 275.55,-78.5"/>
<text text-anchor="start" x="283.55" y="-107.5" font-family="Helvetica,sans-Serif" font-size="10.00">C:/Users/Gshoo/Desktop</text>
<text text-anchor="start" x="283.55" y="-96.5" font-family="Helvetica,sans-Serif" font-size="10.00">/pi&#45;defender&#45;tmp/Sources</text>
<text text-anchor="middle" x="371.05" y="-85.5" font-family="Helvetica,sans-Serif" font-size="10.00">/PI&#45;Defender_UM/U_Communication.hpp</text>
</a>
</g>
</g>
<!-- Node4&#45;&gt;Node5 -->
<g id="edge4" class="edge">
<title>Node4&#45;&gt;Node5</title>
<path fill="none" stroke="midnightblue" d="M301.72,-149.78C313.75,-139.84 327.96,-128.72 340.43,-119.51"/>
<polygon fill="midnightblue" stroke="midnightblue" points="299.2,-147.32 293.78,-156.43 303.69,-152.69 299.2,-147.32"/>
</g>
<!-- Node7 -->
<g id="node7" class="node">
<title>Node7</title>
<g id="a_node7"><a xlink:href="_u___service_8cpp.html" target="_top" xlink:title="Entrypoint of the process &amp; the service.">
<polygon fill="none" stroke="black" points="102.55,-78.5 102.55,-119.5 257.55,-119.5 257.55,-78.5 102.55,-78.5"/>
<text text-anchor="start" x="110.55" y="-107.5" font-family="Helvetica,sans-Serif" font-size="10.00">C:/Users/Gshoo/Desktop</text>
<text text-anchor="start" x="110.55" y="-96.5" font-family="Helvetica,sans-Serif" font-size="10.00">/pi&#45;defender&#45;tmp/Sources</text>
<text text-anchor="middle" x="180.05" y="-85.5" font-family="Helvetica,sans-Serif" font-size="10.00">/PI&#45;Defender_UM/U_Service.cpp</text>
</a>
</g>
</g>
<!-- Node4&#45;&gt;Node7 -->
<g id="edge9" class="edge">
<title>Node4&#45;&gt;Node7</title>
<path fill="none" stroke="midnightblue" d="M242.63,-150.06C230.12,-140.06 216.05,-128.8 204.43,-119.51"/>
<polygon fill="midnightblue" stroke="midnightblue" points="240.59,-152.91 250.58,-156.43 244.96,-147.45 240.59,-152.91"/>
</g>
<!-- Node5&#45;&gt;Node4 -->
<g id="edge6" class="edge">
<title>Node5&#45;&gt;Node4</title>
<path fill="none" stroke="midnightblue" d="M344.47,-126.15C332.44,-136.08 318.23,-147.21 305.76,-156.43"/>
<polygon fill="midnightblue" stroke="midnightblue" points="346.98,-128.61 352.39,-119.51 342.48,-123.25 346.98,-128.61"/>
</g>
<!-- Node6 -->
<g id="node6" class="node">
<title>Node6</title>
<g id="a_node6"><a xlink:href="_u___communication_8cpp.html" target="_top" xlink:title="Manage the communication with the driver (Connect|Reply|ListenerThread|WorkerThread)">
<polygon fill="none" stroke="black" points="275.55,-0.5 275.55,-41.5 466.55,-41.5 466.55,-0.5 275.55,-0.5"/>
<text text-anchor="start" x="283.55" y="-29.5" font-family="Helvetica,sans-Serif" font-size="10.00">C:/Users/Gshoo/Desktop</text>
<text text-anchor="start" x="283.55" y="-18.5" font-family="Helvetica,sans-Serif" font-size="10.00">/pi&#45;defender&#45;tmp/Sources</text>
<text text-anchor="middle" x="371.05" y="-7.5" font-family="Helvetica,sans-Serif" font-size="10.00">/PI&#45;Defender_UM/U_Communication.cpp</text>
</a>
</g>
</g>
<!-- Node5&#45;&gt;Node6 -->
<g id="edge5" class="edge">
<title>Node5&#45;&gt;Node6</title>
<path fill="none" stroke="midnightblue" d="M371.05,-68.3C371.05,-59.3 371.05,-49.65 371.05,-41.51"/>
<polygon fill="midnightblue" stroke="midnightblue" points="367.55,-68.43 371.05,-78.43 374.55,-68.43 367.55,-68.43"/>
</g>
<!-- Node8&#45;&gt;Node4 -->
<g id="edge12" class="edge">
<title>Node8&#45;&gt;Node4</title>
<path fill="none" stroke="midnightblue" d="M176.55,-307.37C191.04,-298.76 206.12,-288.16 218.05,-276 240.78,-252.81 257.89,-218.8 267.18,-197.55"/>
<polygon fill="midnightblue" stroke="midnightblue" points="174.58,-304.46 167.64,-312.47 178.06,-310.54 174.58,-304.46"/>
</g>
<!-- Node9 -->
<g id="node9" class="node">
<title>Node9</title>
<g id="a_node9"><a xlink:href="_u___controller_8cpp.html" target="_top" xlink:title="Controll the service/driver (Install|Start|Stop|Delete|Query)">
<polygon fill="none" stroke="black" points="43.55,-234.5 43.55,-275.5 208.55,-275.5 208.55,-234.5 43.55,-234.5"/>
<text text-anchor="start" x="51.55" y="-263.5" font-family="Helvetica,sans-Serif" font-size="10.00">C:/Users/Gshoo/Desktop</text>
<text text-anchor="start" x="51.55" y="-252.5" font-family="Helvetica,sans-Serif" font-size="10.00">/pi&#45;defender&#45;tmp/Sources</text>
<text text-anchor="middle" x="126.05" y="-241.5" font-family="Helvetica,sans-Serif" font-size="10.00">/PI&#45;Defender_UM/U_Controller.cpp</text>
</a>
</g>
</g>
<!-- Node8&#45;&gt;Node9 -->
<g id="edge11" class="edge">
<title>Node8&#45;&gt;Node9</title>
<path fill="none" stroke="midnightblue" d="M126.05,-302.3C126.05,-293.3 126.05,-283.65 126.05,-275.51"/>
<polygon fill="midnightblue" stroke="midnightblue" points="122.55,-302.43 126.05,-312.43 129.55,-302.43 122.55,-302.43"/>
</g>
<!-- Node11&#45;&gt;Node1 -->
<g id="edge17" class="edge">
<title>Node11&#45;&gt;Node1</title>
<path fill="none" stroke="midnightblue" d="M305.65,-363.63C305.97,-372.62 305.77,-382.27 305.04,-390.43"/>
<polygon fill="midnightblue" stroke="midnightblue" points="309.13,-363.27 305.03,-353.51 302.15,-363.7 309.13,-363.27"/>
</g>
<!-- Node11&#45;&gt;Node2 -->
<g id="edge16" class="edge">
<title>Node11&#45;&gt;Node2</title>
<path fill="none" stroke="midnightblue" d="M375.16,-309.58C411.87,-298.76 455.51,-285.91 490.83,-275.51"/>
<polygon fill="midnightblue" stroke="midnightblue" points="374.09,-306.24 365.49,-312.43 376.07,-312.96 374.09,-306.24"/>
</g>
<!-- Node11&#45;&gt;Node4 -->
<g id="edge19" class="edge">
<title>Node11&#45;&gt;Node4</title>
<path fill="none" stroke="midnightblue" d="M294.43,-302.36C289.64,-271.61 282.27,-224.36 278.14,-197.83"/>
<polygon fill="midnightblue" stroke="midnightblue" points="291.01,-303.15 296.01,-312.5 297.93,-302.08 291.01,-303.15"/>
</g>
<!-- Node11&#45;&gt;Node5 -->
<g id="edge15" class="edge">
<title>Node11&#45;&gt;Node5</title>
<path fill="none" stroke="midnightblue" d="M381.85,-312.24C456.97,-302.49 617.22,-320.24 656.05,-276 691.23,-235.91 689.93,-197.19 656.05,-156 632.22,-127.04 539.86,-112.83 466.66,-106"/>
<polygon fill="midnightblue" stroke="midnightblue" points="381.17,-308.81 371.84,-313.81 382.26,-315.72 381.17,-308.81"/>
</g>
<!-- Node12 -->
<g id="node12" class="node">
<title>Node12</title>
<g id="a_node12"><a xlink:href="_u___logs_8cpp.html" target="_top" xlink:title="Report Event to ETW.">
<polygon fill="none" stroke="black" points="303.55,-234.5 303.55,-275.5 448.55,-275.5 448.55,-234.5 303.55,-234.5"/>
<text text-anchor="start" x="311.55" y="-263.5" font-family="Helvetica,sans-Serif" font-size="10.00">C:/Users/Gshoo/Desktop</text>
<text text-anchor="start" x="311.55" y="-252.5" font-family="Helvetica,sans-Serif" font-size="10.00">/pi&#45;defender&#45;tmp/Sources</text>
<text text-anchor="middle" x="376.05" y="-241.5" font-family="Helvetica,sans-Serif" font-size="10.00">/PI&#45;Defender_UM/U_Logs.cpp</text>
</a>
</g>
</g>
<!-- Node11&#45;&gt;Node12 -->
<g id="edge18" class="edge">
<title>Node11&#45;&gt;Node12</title>
<path fill="none" stroke="midnightblue" d="M326.2,-305.2C336.11,-295.42 347.13,-284.54 356.29,-275.51"/>
<polygon fill="midnightblue" stroke="midnightblue" points="323.54,-302.91 318.88,-312.43 328.45,-307.89 323.54,-302.91"/>
</g>
</g>
</svg>
        <g id="navigator" transform="translate(0 0)" fill="#404254">
                <rect fill="#f2f5e9" fill-opacity="0.5" stroke="#606060" stroke-width=".5" x="0" y="0" width="60" height="60"/>
                <use id="zoomplus" xlink:href="#zoomPlus" x="17" y="9" onmousedown="handleZoom(evt,'in')"/>
                <use id="zoomminus" xlink:href="#zoomMin" x="42" y="9" onmousedown="handleZoom(evt,'out')"/>
                <use id="reset" xlink:href="#resetDef" x="30" y="36" onmousedown="handleReset()"/>
                <g id="arrowUp" xlink:href="#dirArrow" transform="translate(30 24)" onmousedown="handlePan(0,-1)">
                  <use xlink:href="#rim" fill="#404040">
                        <set attributeName="fill" to="#808080" begin="arrowUp.mouseover" end="arrowUp.mouseout"/>
                  </use>
                  <path fill="none" stroke="white" stroke-width="1.5" d="M0,-3.0v7 M-2.5,-0.5L0,-3.0L2.5,-0.5"/>
                </g>
                <g id="arrowRight" xlink:href="#dirArrow" transform="rotate(90) translate(36 -43)" onmousedown="handlePan(1,0)">
                  <use xlink:href="#rim" fill="#404040">
                        <set attributeName="fill" to="#808080" begin="arrowRight.mouseover" end="arrowRight.mouseout"/>
                  </use>
                  <path fill="none" stroke="white" stroke-width="1.5" d="M0,-3.0v7 M-2.5,-0.5L0,-3.0L2.5,-0.5"/>
                </g>
                <g id="arrowDown" xlink:href="#dirArrow" transform="rotate(180) translate(-30 -48)" onmousedown="handlePan(0,1)">
                  <use xlink:href="#rim" fill="#404040">
                        <set attributeName="fill" to="#808080" begin="arrowDown.mouseover" end="arrowDown.mouseout"/>
                  </use>
                  <path fill="none" stroke="white" stroke-width="1.5" d="M0,-3.0v7 M-2.5,-0.5L0,-3.0L2.5,-0.5"/>
                </g>
                <g id="arrowLeft" xlink:href="#dirArrow" transform="rotate(270) translate(-36 17)" onmousedown="handlePan(-1,0)">
                  <use xlink:href="#rim" fill="#404040">
                        <set attributeName="fill" to="#808080" begin="arrowLeft.mouseover" end="arrowLeft.mouseout"/>
                  </use>
                  <path fill="none" stroke="white" stroke-width="1.5" d="M0,-3.0v7 M-2.5,-0.5L0,-3.0L2.5,-0.5"/>
                </g>
        </g>
        <svg viewBox="0 0 15 15" width="100%" height="30px" preserveAspectRatio="xMaxYMin meet">
         <g id="arrow_out" transform="scale(0.3 0.3)">
          <a xlink:href="_u___helper_8hpp__dep__incl_org.svg" target="_base">
           <rect id="button" ry="5" rx="5" y="6" x="6" height="38" width="38"
                fill="#f2f5e9" fill-opacity="0.5" stroke="#606060" stroke-width="1.0"/>
           <path id="arrow"
             d="M 11.500037,31.436501 C 11.940474,20.09759 22.043105,11.32322 32.158766,21.979434 L 37.068811,17.246167 C 37.068811,17.246167 37.088388,32 37.088388,32 L 22.160133,31.978069 C 22.160133,31.978069 26.997745,27.140456 26.997745,27.140456 C 18.528582,18.264221 13.291696,25.230495 11.500037,31.436501 z"
             style="fill:#404040;"/>
          </a>
         </g>
        </svg>
</svg>
