<?xml version="1.0" encoding="UTF-8" standalone="no"?>
<!DOCTYPE svg PUBLIC "-//W3C//DTD SVG 1.1//EN"
 "http://www.w3.org/Graphics/SVG/1.1/DTD/svg11.dtd">
<!-- Generated by graphviz version 4.0.0 (20220529.0937)
 -->
<!-- Title: C:/Users/admin&#45;cyb/Desktop/pi&#45;defender/Sources/PI&#45;Defender_UM/U_Communication.hpp Pages: 1 -->
<svg width="577pt" height="506pt"
 viewBox="0.00 0.00 577.00 506.00" xmlns="http://www.w3.org/2000/svg" xmlns:xlink="http://www.w3.org/1999/xlink">
<g id="graph0" class="graph" transform="scale(1 1) rotate(0) translate(4 502)">
<title>C:/Users/admin&#45;cyb/Desktop/pi&#45;defender/Sources/PI&#45;Defender_UM/U_Communication.hpp</title>
<!-- Node1 -->
<g id="node1" class="node">
<title>Node1</title>
<g id="a_node1"><a xlink:title="Header for U_Communication.cpp.">
<polygon fill="#bfbfbf" stroke="black" points="157,-445.5 157,-497.5 295,-497.5 295,-445.5 157,-445.5"/>
<text text-anchor="start" x="165" y="-485.5" font-family="Helvetica,sans-Serif" font-size="10.00">C:/Users/admin&#45;cyb</text>
<text text-anchor="start" x="165" y="-474.5" font-family="Helvetica,sans-Serif" font-size="10.00">/Desktop/pi&#45;defender</text>
<text text-anchor="start" x="165" y="-463.5" font-family="Helvetica,sans-Serif" font-size="10.00">/Sources/PI&#45;Defender</text>
<text text-anchor="middle" x="226" y="-452.5" font-family="Helvetica,sans-Serif" font-size="10.00">_UM/U_Communication.hpp</text>
</a>
</g>
</g>
<!-- Node2 -->
<g id="node2" class="node">
<title>Node2</title>
<g id="a_node2"><a xlink:href="_u___communication_8cpp.html" target="_top" xlink:title="Manage the communication with the driver (Connect|Reply|ListenerThread|WorkerThread)">
<polygon fill="none" stroke="black" points="0,-356.5 0,-408.5 138,-408.5 138,-356.5 0,-356.5"/>
<text text-anchor="start" x="8" y="-396.5" font-family="Helvetica,sans-Serif" font-size="10.00">C:/Users/admin&#45;cyb</text>
<text text-anchor="start" x="8" y="-385.5" font-family="Helvetica,sans-Serif" font-size="10.00">/Desktop/pi&#45;defender</text>
<text text-anchor="start" x="8" y="-374.5" font-family="Helvetica,sans-Serif" font-size="10.00">/Sources/PI&#45;Defender</text>
<text text-anchor="middle" x="69" y="-363.5" font-family="Helvetica,sans-Serif" font-size="10.00">_UM/U_Communication.cpp</text>
</a>
</g>
</g>
<!-- Node1&#45;&gt;Node2 -->
<g id="edge1" class="edge">
<title>Node1&#45;&gt;Node2</title>
<path fill="none" stroke="midnightblue" d="M171.6,-440.35C152.91,-430 132.2,-418.52 114.31,-408.61"/>
<polygon fill="midnightblue" stroke="midnightblue" points="170.15,-443.55 180.59,-445.34 173.54,-437.43 170.15,-443.55"/>
</g>
<!-- Node3 -->
<g id="node3" class="node">
<title>Node3</title>
<g id="a_node3"><a xlink:href="_u___service_8hpp.html" target="_top" xlink:title="Header for U_Service.cpp.">
<polygon fill="none" stroke="black" points="232.5,-356.5 232.5,-408.5 341.5,-408.5 341.5,-356.5 232.5,-356.5"/>
<text text-anchor="start" x="240.5" y="-396.5" font-family="Helvetica,sans-Serif" font-size="10.00">C:/Users/admin&#45;cyb</text>
<text text-anchor="start" x="240.5" y="-385.5" font-family="Helvetica,sans-Serif" font-size="10.00">/Desktop/pi&#45;defender</text>
<text text-anchor="start" x="240.5" y="-374.5" font-family="Helvetica,sans-Serif" font-size="10.00">/Sources/PI&#45;Defender</text>
<text text-anchor="middle" x="287" y="-363.5" font-family="Helvetica,sans-Serif" font-size="10.00">_UM/U_Service.hpp</text>
</a>
</g>
</g>
<!-- Node1&#45;&gt;Node3 -->
<g id="edge2" class="edge">
<title>Node1&#45;&gt;Node3</title>
<path fill="none" stroke="midnightblue" d="M242.95,-436.93C249.24,-427.51 256.44,-417.44 263.21,-408.61"/>
<polygon fill="midnightblue" stroke="midnightblue" points="239.99,-435.05 237.46,-445.34 245.86,-438.88 239.99,-435.05"/>
</g>
<!-- Node3&#45;&gt;Node1 -->
<g id="edge3" class="edge">
<title>Node3&#45;&gt;Node1</title>
<path fill="none" stroke="midnightblue" d="M270.09,-417.01C263.8,-426.43 256.6,-436.5 249.83,-445.34"/>
<polygon fill="midnightblue" stroke="midnightblue" points="273.04,-418.89 275.58,-408.61 267.18,-415.07 273.04,-418.89"/>
</g>
<!-- Node4 -->
<g id="node4" class="node">
<title>Node4</title>
<g id="a_node4"><a xlink:href="_u___configuration_8hpp.html" target="_top" xlink:title="Header for U_Configuration.cpp.">
<polygon fill="none" stroke="black" points="289.5,-89.5 289.5,-141.5 416.5,-141.5 416.5,-89.5 289.5,-89.5"/>
<text text-anchor="start" x="297.5" y="-129.5" font-family="Helvetica,sans-Serif" font-size="10.00">C:/Users/admin&#45;cyb</text>
<text text-anchor="start" x="297.5" y="-118.5" font-family="Helvetica,sans-Serif" font-size="10.00">/Desktop/pi&#45;defender</text>
<text text-anchor="start" x="297.5" y="-107.5" font-family="Helvetica,sans-Serif" font-size="10.00">/Sources/PI&#45;Defender</text>
<text text-anchor="middle" x="353" y="-96.5" font-family="Helvetica,sans-Serif" font-size="10.00">_UM/U_Configuration.hpp</text>
</a>
</g>
</g>
<!-- Node3&#45;&gt;Node4 -->
<g id="edge4" class="edge">
<title>Node3&#45;&gt;Node4</title>
<path fill="none" stroke="midnightblue" d="M320.65,-349.32C328.73,-340.77 336.33,-330.86 341,-320 366.68,-260.27 357,-181.28 352.86,-141.56"/>
<polygon fill="midnightblue" stroke="midnightblue" points="318.09,-346.92 313.48,-356.46 323.03,-351.88 318.09,-346.92"/>
</g>
<!-- Node6 -->
<g id="node6" class="node">
<title>Node6</title>
<g id="a_node6"><a xlink:href="_u___helper_8hpp.html" target="_top" xlink:title="Header for U_Helper.cpp.">
<polygon fill="none" stroke="black" points="232.5,-267.5 232.5,-319.5 341.5,-319.5 341.5,-267.5 232.5,-267.5"/>
<text text-anchor="start" x="240.5" y="-307.5" font-family="Helvetica,sans-Serif" font-size="10.00">C:/Users/admin&#45;cyb</text>
<text text-anchor="start" x="240.5" y="-296.5" font-family="Helvetica,sans-Serif" font-size="10.00">/Desktop/pi&#45;defender</text>
<text text-anchor="start" x="240.5" y="-285.5" font-family="Helvetica,sans-Serif" font-size="10.00">/Sources/PI&#45;Defender</text>
<text text-anchor="middle" x="287" y="-274.5" font-family="Helvetica,sans-Serif" font-size="10.00">_UM/U_Helper.hpp</text>
</a>
</g>
</g>
<!-- Node3&#45;&gt;Node6 -->
<g id="edge7" class="edge">
<title>Node3&#45;&gt;Node6</title>
<path fill="none" stroke="midnightblue" d="M280.36,-346.19C280.12,-337.28 280.27,-327.9 280.82,-319.61"/>
<polygon fill="midnightblue" stroke="midnightblue" points="276.87,-346.5 280.81,-356.34 283.86,-346.19 276.87,-346.5"/>
</g>
<!-- Node12 -->
<g id="node12" class="node">
<title>Node12</title>
<g id="a_node12"><a xlink:href="_u___service_8cpp.html" target="_top" xlink:title="Entrypoint of the process &amp; the service.">
<polygon fill="none" stroke="black" points="416.5,-267.5 416.5,-319.5 525.5,-319.5 525.5,-267.5 416.5,-267.5"/>
<text text-anchor="start" x="424.5" y="-307.5" font-family="Helvetica,sans-Serif" font-size="10.00">C:/Users/admin&#45;cyb</text>
<text text-anchor="start" x="424.5" y="-296.5" font-family="Helvetica,sans-Serif" font-size="10.00">/Desktop/pi&#45;defender</text>
<text text-anchor="start" x="424.5" y="-285.5" font-family="Helvetica,sans-Serif" font-size="10.00">/Sources/PI&#45;Defender</text>
<text text-anchor="middle" x="471" y="-274.5" font-family="Helvetica,sans-Serif" font-size="10.00">_UM/U_Service.cpp</text>
</a>
</g>
</g>
<!-- Node3&#45;&gt;Node12 -->
<g id="edge20" class="edge">
<title>Node3&#45;&gt;Node12</title>
<path fill="none" stroke="midnightblue" d="M349.27,-352.06C371.56,-341.52 396.46,-329.75 417.9,-319.61"/>
<polygon fill="midnightblue" stroke="midnightblue" points="347.76,-348.9 340.22,-356.34 350.76,-355.23 347.76,-348.9"/>
</g>
<!-- Node4&#45;&gt;Node3 -->
<g id="edge6" class="edge">
<title>Node4&#45;&gt;Node3</title>
<path fill="none" stroke="midnightblue" d="M366.61,-151.3C376.27,-193.2 382.73,-264.82 359,-320 352.96,-334.04 342.03,-346.5 330.41,-356.46"/>
<polygon fill="midnightblue" stroke="midnightblue" points="370,-150.41 364.17,-141.56 363.21,-152.11 370,-150.41"/>
</g>
<!-- Node5 -->
<g id="node5" class="node">
<title>Node5</title>
<g id="a_node5"><a xlink:href="_u___configuration_8cpp.html" target="_top" xlink:title="Set all the needed configuration for the driver and the user&#45;mode service.">
<polygon fill="none" stroke="black" points="289.5,-0.5 289.5,-52.5 416.5,-52.5 416.5,-0.5 289.5,-0.5"/>
<text text-anchor="start" x="297.5" y="-40.5" font-family="Helvetica,sans-Serif" font-size="10.00">C:/Users/admin&#45;cyb</text>
<text text-anchor="start" x="297.5" y="-29.5" font-family="Helvetica,sans-Serif" font-size="10.00">/Desktop/pi&#45;defender</text>
<text text-anchor="start" x="297.5" y="-18.5" font-family="Helvetica,sans-Serif" font-size="10.00">/Sources/PI&#45;Defender</text>
<text text-anchor="middle" x="353" y="-7.5" font-family="Helvetica,sans-Serif" font-size="10.00">_UM/U_Configuration.cpp</text>
</a>
</g>
</g>
<!-- Node4&#45;&gt;Node5 -->
<g id="edge5" class="edge">
<title>Node4&#45;&gt;Node5</title>
<path fill="none" stroke="midnightblue" d="M353,-79.19C353,-70.28 353,-60.9 353,-52.61"/>
<polygon fill="midnightblue" stroke="midnightblue" points="349.5,-79.34 353,-89.34 356.5,-79.34 349.5,-79.34"/>
</g>
<!-- Node6&#45;&gt;Node3 -->
<g id="edge19" class="edge">
<title>Node6&#45;&gt;Node3</title>
<path fill="none" stroke="midnightblue" d="M293.64,-329.75C293.88,-338.65 293.73,-348.04 293.19,-356.34"/>
<polygon fill="midnightblue" stroke="midnightblue" points="297.13,-329.44 293.18,-319.61 290.14,-329.76 297.13,-329.44"/>
</g>
<!-- Node6&#45;&gt;Node4 -->
<g id="edge8" class="edge">
<title>Node6&#45;&gt;Node4</title>
<path fill="none" stroke="midnightblue" d="M301.35,-257.92C304.91,-249.17 308.65,-239.76 312,-231 323.68,-200.43 336.25,-164.9 344.34,-141.63"/>
<polygon fill="midnightblue" stroke="midnightblue" points="298,-256.88 297.46,-267.46 304.48,-259.53 298,-256.88"/>
</g>
<!-- Node7 -->
<g id="node7" class="node">
<title>Node7</title>
<g id="a_node7"><a xlink:href="_u___controller_8hpp.html" target="_top" xlink:title="Header for U_Controller.cpp.">
<polygon fill="none" stroke="black" points="457,-178.5 457,-230.5 569,-230.5 569,-178.5 457,-178.5"/>
<text text-anchor="start" x="465" y="-218.5" font-family="Helvetica,sans-Serif" font-size="10.00">C:/Users/admin&#45;cyb</text>
<text text-anchor="start" x="465" y="-207.5" font-family="Helvetica,sans-Serif" font-size="10.00">/Desktop/pi&#45;defender</text>
<text text-anchor="start" x="465" y="-196.5" font-family="Helvetica,sans-Serif" font-size="10.00">/Sources/PI&#45;Defender</text>
<text text-anchor="middle" x="513" y="-185.5" font-family="Helvetica,sans-Serif" font-size="10.00">_UM/U_Controller.hpp</text>
</a>
</g>
</g>
<!-- Node6&#45;&gt;Node7 -->
<g id="edge9" class="edge">
<title>Node6&#45;&gt;Node7</title>
<path fill="none" stroke="midnightblue" d="M351.34,-267.73C384.61,-254.92 424.83,-239.44 456.83,-227.12"/>
<polygon fill="midnightblue" stroke="midnightblue" points="349.78,-264.58 341.71,-271.44 352.3,-271.11 349.78,-264.58"/>
</g>
<!-- Node9 -->
<g id="node9" class="node">
<title>Node9</title>
<g id="a_node9"><a xlink:href="_u___helper_8cpp.html" target="_top" xlink:title="Help function used by several .cpp files.">
<polygon fill="none" stroke="black" points="194.5,-178.5 194.5,-230.5 303.5,-230.5 303.5,-178.5 194.5,-178.5"/>
<text text-anchor="start" x="202.5" y="-218.5" font-family="Helvetica,sans-Serif" font-size="10.00">C:/Users/admin&#45;cyb</text>
<text text-anchor="start" x="202.5" y="-207.5" font-family="Helvetica,sans-Serif" font-size="10.00">/Desktop/pi&#45;defender</text>
<text text-anchor="start" x="202.5" y="-196.5" font-family="Helvetica,sans-Serif" font-size="10.00">/Sources/PI&#45;Defender</text>
<text text-anchor="middle" x="249" y="-185.5" font-family="Helvetica,sans-Serif" font-size="10.00">_UM/U_Helper.cpp</text>
</a>
</g>
</g>
<!-- Node6&#45;&gt;Node9 -->
<g id="edge12" class="edge">
<title>Node6&#45;&gt;Node9</title>
<path fill="none" stroke="midnightblue" d="M271.96,-258.06C267.95,-248.9 263.71,-239.17 259.97,-230.61"/>
<polygon fill="midnightblue" stroke="midnightblue" points="268.8,-259.57 276.01,-267.34 275.21,-256.77 268.8,-259.57"/>
</g>
<!-- Node10 -->
<g id="node10" class="node">
<title>Node10</title>
<g id="a_node10"><a xlink:href="_u___logs_8hpp.html" target="_top" xlink:title="Header for U_Logs.cpp.">
<polygon fill="none" stroke="black" points="67.5,-178.5 67.5,-230.5 176.5,-230.5 176.5,-178.5 67.5,-178.5"/>
<text text-anchor="start" x="75.5" y="-218.5" font-family="Helvetica,sans-Serif" font-size="10.00">C:/Users/admin&#45;cyb</text>
<text text-anchor="start" x="75.5" y="-207.5" font-family="Helvetica,sans-Serif" font-size="10.00">/Desktop/pi&#45;defender</text>
<text text-anchor="start" x="75.5" y="-196.5" font-family="Helvetica,sans-Serif" font-size="10.00">/Sources/PI&#45;Defender</text>
<text text-anchor="middle" x="122" y="-185.5" font-family="Helvetica,sans-Serif" font-size="10.00">_UM/U_Logs.hpp</text>
</a>
</g>
</g>
<!-- Node6&#45;&gt;Node10 -->
<g id="edge13" class="edge">
<title>Node6&#45;&gt;Node10</title>
<path fill="none" stroke="midnightblue" d="M224.19,-262.78C203.85,-252.31 181.83,-240.66 163.44,-230.61"/>
<polygon fill="midnightblue" stroke="midnightblue" points="222.59,-265.89 233.09,-267.34 225.78,-259.66 222.59,-265.89"/>
</g>
<!-- Node7&#45;&gt;Node3 -->
<g id="edge11" class="edge">
<title>Node7&#45;&gt;Node3</title>
<path fill="none" stroke="midnightblue" d="M532.77,-239.99C544.02,-264.67 552.7,-297.38 535,-320 511.46,-350.09 407.32,-367.53 341.7,-375.72"/>
<polygon fill="midnightblue" stroke="midnightblue" points="535.9,-238.43 528.38,-230.97 529.61,-241.49 535.9,-238.43"/>
</g>
<!-- Node8 -->
<g id="node8" class="node">
<title>Node8</title>
<g id="a_node8"><a xlink:href="_u___controller_8cpp.html" target="_top" xlink:title="Controll the service/driver (Install|Start|Stop|Delete|Query)">
<polygon fill="none" stroke="black" points="457,-89.5 457,-141.5 569,-141.5 569,-89.5 457,-89.5"/>
<text text-anchor="start" x="465" y="-129.5" font-family="Helvetica,sans-Serif" font-size="10.00">C:/Users/admin&#45;cyb</text>
<text text-anchor="start" x="465" y="-118.5" font-family="Helvetica,sans-Serif" font-size="10.00">/Desktop/pi&#45;defender</text>
<text text-anchor="start" x="465" y="-107.5" font-family="Helvetica,sans-Serif" font-size="10.00">/Sources/PI&#45;Defender</text>
<text text-anchor="middle" x="513" y="-96.5" font-family="Helvetica,sans-Serif" font-size="10.00">_UM/U_Controller.cpp</text>
</a>
</g>
</g>
<!-- Node7&#45;&gt;Node8 -->
<g id="edge10" class="edge">
<title>Node7&#45;&gt;Node8</title>
<path fill="none" stroke="midnightblue" d="M513,-168.19C513,-159.28 513,-149.9 513,-141.61"/>
<polygon fill="midnightblue" stroke="midnightblue" points="509.5,-168.34 513,-178.34 516.5,-168.34 509.5,-168.34"/>
</g>
<!-- Node10&#45;&gt;Node1 -->
<g id="edge14" class="edge">
<title>Node10&#45;&gt;Node1</title>
<path fill="none" stroke="midnightblue" d="M135.67,-240.34C156.91,-294.45 197.31,-397.41 216.03,-445.09"/>
<polygon fill="midnightblue" stroke="midnightblue" points="138.85,-238.86 131.94,-230.83 132.34,-241.42 138.85,-238.86"/>
</g>
<!-- Node10&#45;&gt;Node3 -->
<g id="edge18" class="edge">
<title>Node10&#45;&gt;Node3</title>
<path fill="none" stroke="midnightblue" d="M153.55,-238.05C162.26,-247.28 171.62,-257.42 180,-267 199.98,-289.83 202.47,-297.67 223,-320 234.47,-332.48 247.9,-345.59 259.49,-356.48"/>
<polygon fill="midnightblue" stroke="midnightblue" points="155.84,-235.38 146.42,-230.54 150.77,-240.2 155.84,-235.38"/>
</g>
<!-- Node10&#45;&gt;Node4 -->
<g id="edge15" class="edge">
<title>Node10&#45;&gt;Node4</title>
<path fill="none" stroke="midnightblue" d="M186.04,-177.64C225.03,-162.68 260.23,-149.76 289.39,-139.21"/>
<polygon fill="midnightblue" stroke="midnightblue" points="184.67,-174.41 176.59,-181.27 187.18,-180.95 184.67,-174.41"/>
</g>
<!-- Node10&#45;&gt;Node6 -->
<g id="edge16" class="edge">
<title>Node10&#45;&gt;Node6</title>
<path fill="none" stroke="midnightblue" d="M184.97,-235.31C205.23,-245.73 227.13,-257.33 245.46,-267.34"/>
<polygon fill="midnightblue" stroke="midnightblue" points="186.3,-232.05 175.8,-230.61 183.1,-238.28 186.3,-232.05"/>
</g>
<!-- Node11 -->
<g id="node11" class="node">
<title>Node11</title>
<g id="a_node11"><a xlink:href="_u___logs_8cpp.html" target="_top" xlink:title="Report Event to ETW.">
<polygon fill="none" stroke="black" points="67.5,-89.5 67.5,-141.5 176.5,-141.5 176.5,-89.5 67.5,-89.5"/>
<text text-anchor="start" x="75.5" y="-129.5" font-family="Helvetica,sans-Serif" font-size="10.00">C:/Users/admin&#45;cyb</text>
<text text-anchor="start" x="75.5" y="-118.5" font-family="Helvetica,sans-Serif" font-size="10.00">/Desktop/pi&#45;defender</text>
<text text-anchor="start" x="75.5" y="-107.5" font-family="Helvetica,sans-Serif" font-size="10.00">/Sources/PI&#45;Defender</text>
<text text-anchor="middle" x="122" y="-96.5" font-family="Helvetica,sans-Serif" font-size="10.00">_UM/U_Logs.cpp</text>
</a>
</g>
</g>
<!-- Node10&#45;&gt;Node11 -->
<g id="edge17" class="edge">
<title>Node10&#45;&gt;Node11</title>
<path fill="none" stroke="midnightblue" d="M122,-168.19C122,-159.28 122,-149.9 122,-141.61"/>
<polygon fill="midnightblue" stroke="midnightblue" points="118.5,-168.34 122,-178.34 125.5,-168.34 118.5,-168.34"/>
</g>
</g>
</svg>
