<?xml version="1.0" encoding="UTF-8" standalone="no"?>
<!DOCTYPE svg PUBLIC "-//W3C//DTD SVG 1.1//EN"
 "http://www.w3.org/Graphics/SVG/1.1/DTD/svg11.dtd">
<!-- Generated by graphviz version 4.0.0 (20220529.0937)
 -->
<!-- Title: C:/Users/admin&#45;cyb/Desktop/PI&#45;Defender/Sources/PI&#45;Defender_UM/U_GlobalHeader.hpp Pages: 1 -->
<!--zoomable 684 -->
<svg id="main" version="1.1" xmlns="http://www.w3.org/2000/svg" xmlns:xlink="http://www.w3.org/1999/xlink" xml:space="preserve" onload="init(evt)">
<style type="text/css"><![CDATA[
.edge:hover path { stroke: red; }
.edge:hover polygon { stroke: red; fill: red; }
]]></style>
<script type="text/javascript"><![CDATA[
var edges = document.getElementsByTagName('g');
if (edges && edges.length) {
  for (var i=0;i<edges.length;i++) {
    if (edges[i].id.substr(0,4)=='edge') {
      edges[i].setAttribute('class','edge');
    }
  }
}
]]></script>
        <defs>
                <circle id="rim" cx="0" cy="0" r="7"/>
                <circle id="rim2" cx="0" cy="0" r="3.5"/>
                <g id="zoomPlus">
                        <use xlink:href="#rim" fill="#404040">
                                <set attributeName="fill" to="#808080" begin="zoomplus.mouseover" end="zoomplus.mouseout"/>
                        </use>
                        <path d="M-4,0h8M0,-4v8" fill="none" stroke="white" stroke-width="1.5" pointer-events="none"/>
                </g>
                <g id="zoomMin">
                        <use xlink:href="#rim" fill="#404040">
                                <set attributeName="fill" to="#808080" begin="zoomminus.mouseover" end="zoomminus.mouseout"/>
                        </use>
                        <path d="M-4,0h8" fill="none" stroke="white" stroke-width="1.5" pointer-events="none"/>
                </g>
                <g id="dirArrow">
                        <path fill="none" stroke="white" stroke-width="1.5" d="M0,-3.0v7 M-2.5,-0.5L0,-3.0L2.5,-0.5"/>
                </g>
               <g id="resetDef">
                       <use xlink:href="#rim2" fill="#404040">
                               <set attributeName="fill" to="#808080" begin="reset.mouseover" end="reset.mouseout"/>
                       </use>
               </g>
        </defs>

<script type="text/javascript">
var viewWidth = 756;
var viewHeight = 684;
var sectionId = 'dynsection-1';
</script>
<script xlink:href="svgpan.js"/>
<svg id="graph" class="graph">
<g id="viewport">
<title>C:/Users/admin&#45;cyb/Desktop/PI&#45;Defender/Sources/PI&#45;Defender_UM/U_GlobalHeader.hpp</title>
<!-- Node1 -->
<g id="node1" class="node">
<title>Node1</title>
<g id="a_node1"><a xlink:title="Header used by several .hpp files.">
<polygon fill="#bfbfbf" stroke="black" points="412.5,-623.5 412.5,-675.5 541.5,-675.5 541.5,-623.5 412.5,-623.5"/>
<text text-anchor="start" x="420.5" y="-663.5" font-family="Helvetica,sans-Serif" font-size="10.00">C:/Users/admin&#45;cyb</text>
<text text-anchor="start" x="420.5" y="-652.5" font-family="Helvetica,sans-Serif" font-size="10.00">/Desktop/PI&#45;Defender</text>
<text text-anchor="start" x="420.5" y="-641.5" font-family="Helvetica,sans-Serif" font-size="10.00">/Sources/PI&#45;Defender</text>
<text text-anchor="middle" x="477" y="-630.5" font-family="Helvetica,sans-Serif" font-size="10.00">_UM/U_GlobalHeader.hpp</text>
</a>
</g>
</g>
<!-- Node2 -->
<g id="node2" class="node">
<title>Node2</title>
<g id="a_node2"><a xlink:href="_u___communication_8hpp.html" target="_top" xlink:title="Header for U_Communication.cpp.">
<polygon fill="none" stroke="black" points="330,-445.5 330,-497.5 468,-497.5 468,-445.5 330,-445.5"/>
<text text-anchor="start" x="338" y="-485.5" font-family="Helvetica,sans-Serif" font-size="10.00">C:/Users/admin&#45;cyb</text>
<text text-anchor="start" x="338" y="-474.5" font-family="Helvetica,sans-Serif" font-size="10.00">/Desktop/PI&#45;Defender</text>
<text text-anchor="start" x="338" y="-463.5" font-family="Helvetica,sans-Serif" font-size="10.00">/Sources/PI&#45;Defender</text>
<text text-anchor="middle" x="399" y="-452.5" font-family="Helvetica,sans-Serif" font-size="10.00">_UM/U_Communication.hpp</text>
</a>
</g>
</g>
<!-- Node1&#45;&gt;Node2 -->
<g id="edge1" class="edge">
<title>Node1&#45;&gt;Node2</title>
<path fill="none" stroke="midnightblue" d="M467.91,-613.47C461.29,-590.33 451.34,-559.65 439,-534 432.98,-521.49 424.83,-508.48 417.47,-497.67"/>
<polygon fill="midnightblue" stroke="midnightblue" points="464.56,-614.52 470.62,-623.21 471.31,-612.64 464.56,-614.52"/>
</g>
<!-- Node4 -->
<g id="node4" class="node">
<title>Node4</title>
<g id="a_node4"><a xlink:href="_u___service_8hpp.html" target="_top" xlink:title="Header for U_Service.cpp.">
<polygon fill="none" stroke="black" points="164.5,-356.5 164.5,-408.5 273.5,-408.5 273.5,-356.5 164.5,-356.5"/>
<text text-anchor="start" x="172.5" y="-396.5" font-family="Helvetica,sans-Serif" font-size="10.00">C:/Users/admin&#45;cyb</text>
<text text-anchor="start" x="172.5" y="-385.5" font-family="Helvetica,sans-Serif" font-size="10.00">/Desktop/PI&#45;Defender</text>
<text text-anchor="start" x="172.5" y="-374.5" font-family="Helvetica,sans-Serif" font-size="10.00">/Sources/PI&#45;Defender</text>
<text text-anchor="middle" x="219" y="-363.5" font-family="Helvetica,sans-Serif" font-size="10.00">_UM/U_Service.hpp</text>
</a>
</g>
</g>
<!-- Node1&#45;&gt;Node4 -->
<g id="edge29" class="edge">
<title>Node1&#45;&gt;Node4</title>
<path fill="none" stroke="midnightblue" d="M402.73,-634.61C332.11,-616.81 230.91,-578.1 191,-498 176.67,-469.24 190.45,-432.69 203.25,-408.73"/>
<polygon fill="midnightblue" stroke="midnightblue" points="401.94,-638.02 412.49,-636.99 403.6,-631.22 401.94,-638.02"/>
</g>
<!-- Node5 -->
<g id="node5" class="node">
<title>Node5</title>
<g id="a_node5"><a xlink:href="_u___configuration_8hpp.html" target="_top" xlink:title="Header for U_Configuration.cpp.">
<polygon fill="none" stroke="black" points="342.5,-89.5 342.5,-141.5 469.5,-141.5 469.5,-89.5 342.5,-89.5"/>
<text text-anchor="start" x="350.5" y="-129.5" font-family="Helvetica,sans-Serif" font-size="10.00">C:/Users/admin&#45;cyb</text>
<text text-anchor="start" x="350.5" y="-118.5" font-family="Helvetica,sans-Serif" font-size="10.00">/Desktop/PI&#45;Defender</text>
<text text-anchor="start" x="350.5" y="-107.5" font-family="Helvetica,sans-Serif" font-size="10.00">/Sources/PI&#45;Defender</text>
<text text-anchor="middle" x="406" y="-96.5" font-family="Helvetica,sans-Serif" font-size="10.00">_UM/U_Configuration.hpp</text>
</a>
</g>
</g>
<!-- Node1&#45;&gt;Node5 -->
<g id="edge22" class="edge">
<title>Node1&#45;&gt;Node5</title>
<path fill="none" stroke="midnightblue" d="M497.27,-614.54C543.58,-532.1 646.15,-317.94 553,-178 547.81,-170.2 506.93,-153.43 469.6,-139.37"/>
<polygon fill="midnightblue" stroke="midnightblue" points="494.1,-613.05 492.19,-623.47 500.18,-616.51 494.1,-613.05"/>
</g>
<!-- Node8 -->
<g id="node8" class="node">
<title>Node8</title>
<g id="a_node8"><a xlink:href="_u___utilitaire_8hpp.html" target="_top" xlink:title="Header for U_Utilitaire.cpp.">
<polygon fill="none" stroke="black" points="272.5,-267.5 272.5,-319.5 381.5,-319.5 381.5,-267.5 272.5,-267.5"/>
<text text-anchor="start" x="280.5" y="-307.5" font-family="Helvetica,sans-Serif" font-size="10.00">C:/Users/admin&#45;cyb</text>
<text text-anchor="start" x="280.5" y="-296.5" font-family="Helvetica,sans-Serif" font-size="10.00">/Desktop/PI&#45;Defender</text>
<text text-anchor="start" x="280.5" y="-285.5" font-family="Helvetica,sans-Serif" font-size="10.00">/Sources/PI&#45;Defender</text>
<text text-anchor="middle" x="327" y="-274.5" font-family="Helvetica,sans-Serif" font-size="10.00">_UM/U_Utilitaire.hpp</text>
</a>
</g>
</g>
<!-- Node1&#45;&gt;Node8 -->
<g id="edge33" class="edge">
<title>Node1&#45;&gt;Node8</title>
<path fill="none" stroke="midnightblue" d="M483.97,-613.22C493.77,-552.43 503.84,-427.57 439,-356 423.36,-338.74 401.71,-325.29 381.61,-315.43"/>
<polygon fill="midnightblue" stroke="midnightblue" points="480.52,-612.66 482.29,-623.11 487.42,-613.84 480.52,-612.66"/>
</g>
<!-- Node9 -->
<g id="node9" class="node">
<title>Node9</title>
<g id="a_node9"><a xlink:href="_u___controller_8hpp.html" target="_top" xlink:title="Header for U_Controller.cpp.">
<polygon fill="none" stroke="black" points="0,-178.5 0,-230.5 112,-230.5 112,-178.5 0,-178.5"/>
<text text-anchor="start" x="8" y="-218.5" font-family="Helvetica,sans-Serif" font-size="10.00">C:/Users/admin&#45;cyb</text>
<text text-anchor="start" x="8" y="-207.5" font-family="Helvetica,sans-Serif" font-size="10.00">/Desktop/PI&#45;Defender</text>
<text text-anchor="start" x="8" y="-196.5" font-family="Helvetica,sans-Serif" font-size="10.00">/Sources/PI&#45;Defender</text>
<text text-anchor="middle" x="56" y="-185.5" font-family="Helvetica,sans-Serif" font-size="10.00">_UM/U_Controller.hpp</text>
</a>
</g>
</g>
<!-- Node1&#45;&gt;Node9 -->
<g id="edge23" class="edge">
<title>Node1&#45;&gt;Node9</title>
<path fill="none" stroke="midnightblue" d="M402.31,-635.81C272.27,-611.58 18,-553.81 18,-472.5 18,-472.5 18,-472.5 18,-381.5 18,-326.8 35.76,-264.64 46.99,-230.78"/>
<polygon fill="midnightblue" stroke="midnightblue" points="401.74,-639.26 412.21,-637.63 403.01,-632.38 401.74,-639.26"/>
</g>
<!-- Node11 -->
<g id="node11" class="node">
<title>Node11</title>
<g id="a_node11"><a xlink:href="_u___logs_8hpp.html" target="_top" xlink:title="Header for U_Logs.cpp.">
<polygon fill="none" stroke="black" points="434.5,-178.5 434.5,-230.5 543.5,-230.5 543.5,-178.5 434.5,-178.5"/>
<text text-anchor="start" x="442.5" y="-218.5" font-family="Helvetica,sans-Serif" font-size="10.00">C:/Users/admin&#45;cyb</text>
<text text-anchor="start" x="442.5" y="-207.5" font-family="Helvetica,sans-Serif" font-size="10.00">/Desktop/PI&#45;Defender</text>
<text text-anchor="start" x="442.5" y="-196.5" font-family="Helvetica,sans-Serif" font-size="10.00">/Sources/PI&#45;Defender</text>
<text text-anchor="middle" x="489" y="-185.5" font-family="Helvetica,sans-Serif" font-size="10.00">_UM/U_Logs.hpp</text>
</a>
</g>
</g>
<!-- Node1&#45;&gt;Node11 -->
<g id="edge24" class="edge">
<title>Node1&#45;&gt;Node11</title>
<path fill="none" stroke="midnightblue" d="M494.47,-613.89C497.99,-605.31 501.18,-596 503,-587 507.68,-563.91 503.4,-557.55 503,-534 501.09,-420.71 493.73,-285.6 490.51,-230.63"/>
<polygon fill="midnightblue" stroke="midnightblue" points="491.19,-612.64 490.39,-623.2 497.61,-615.44 491.19,-612.64"/>
</g>
<!-- Node14 -->
<g id="node14" class="node">
<title>Node14</title>
<g id="a_node14"><a xlink:href="_u___registry_8hpp.html" target="_top" xlink:title="Header for U_Registry.cpp.">
<polygon fill="none" stroke="black" points="600.5,-267.5 600.5,-319.5 709.5,-319.5 709.5,-267.5 600.5,-267.5"/>
<text text-anchor="start" x="608.5" y="-307.5" font-family="Helvetica,sans-Serif" font-size="10.00">C:/Users/admin&#45;cyb</text>
<text text-anchor="start" x="608.5" y="-296.5" font-family="Helvetica,sans-Serif" font-size="10.00">/Desktop/PI&#45;Defender</text>
<text text-anchor="start" x="608.5" y="-285.5" font-family="Helvetica,sans-Serif" font-size="10.00">/Sources/PI&#45;Defender</text>
<text text-anchor="middle" x="655" y="-274.5" font-family="Helvetica,sans-Serif" font-size="10.00">_UM/U_Registry.hpp</text>
</a>
</g>
</g>
<!-- Node1&#45;&gt;Node14 -->
<g id="edge25" class="edge">
<title>Node1&#45;&gt;Node14</title>
<path fill="none" stroke="midnightblue" d="M550.54,-618.16C563.95,-609.78 576.63,-599.47 586,-587 648.21,-504.2 655.43,-373.95 655.54,-319.61"/>
<polygon fill="midnightblue" stroke="midnightblue" points="548.5,-615.31 541.66,-623.4 552.05,-621.34 548.5,-615.31"/>
</g>
<!-- Node16 -->
<g id="node16" class="node">
<title>Node16</title>
<g id="a_node16"><a xlink:href="_u___signature_8hpp.html" target="_top" xlink:title="Header for U_Signature.cpp.">
<polygon fill="none" stroke="black" points="318,-534.5 318,-586.5 430,-586.5 430,-534.5 318,-534.5"/>
<text text-anchor="start" x="326" y="-574.5" font-family="Helvetica,sans-Serif" font-size="10.00">C:/Users/admin&#45;cyb</text>
<text text-anchor="start" x="326" y="-563.5" font-family="Helvetica,sans-Serif" font-size="10.00">/Desktop/PI&#45;Defender</text>
<text text-anchor="start" x="326" y="-552.5" font-family="Helvetica,sans-Serif" font-size="10.00">/Sources/PI&#45;Defender</text>
<text text-anchor="middle" x="374" y="-541.5" font-family="Helvetica,sans-Serif" font-size="10.00">_UM/U_Signature.hpp</text>
</a>
</g>
</g>
<!-- Node1&#45;&gt;Node16 -->
<g id="edge30" class="edge">
<title>Node1&#45;&gt;Node16</title>
<path fill="none" stroke="midnightblue" d="M439.29,-616.65C427.57,-606.75 414.82,-595.98 403.72,-586.61"/>
<polygon fill="midnightblue" stroke="midnightblue" points="437.31,-619.56 447.21,-623.34 441.83,-614.21 437.31,-619.56"/>
</g>
<!-- Node3 -->
<g id="node3" class="node">
<title>Node3</title>
<g id="a_node3"><a xlink:href="_u___communication_8cpp.html" target="_top" xlink:title="Manage the communication with the driver (Connect|Reply|ListenerThread|WorkerThread)">
<polygon fill="none" stroke="black" points="292,-356.5 292,-408.5 430,-408.5 430,-356.5 292,-356.5"/>
<text text-anchor="start" x="300" y="-396.5" font-family="Helvetica,sans-Serif" font-size="10.00">C:/Users/admin&#45;cyb</text>
<text text-anchor="start" x="300" y="-385.5" font-family="Helvetica,sans-Serif" font-size="10.00">/Desktop/PI&#45;Defender</text>
<text text-anchor="start" x="300" y="-374.5" font-family="Helvetica,sans-Serif" font-size="10.00">/Sources/PI&#45;Defender</text>
<text text-anchor="middle" x="361" y="-363.5" font-family="Helvetica,sans-Serif" font-size="10.00">_UM/U_Communication.cpp</text>
</a>
</g>
</g>
<!-- Node2&#45;&gt;Node3 -->
<g id="edge2" class="edge">
<title>Node2&#45;&gt;Node3</title>
<path fill="none" stroke="midnightblue" d="M383.96,-436.06C379.95,-426.9 375.71,-417.17 371.97,-408.61"/>
<polygon fill="midnightblue" stroke="midnightblue" points="380.8,-437.57 388.01,-445.34 387.21,-434.77 380.8,-437.57"/>
</g>
<!-- Node2&#45;&gt;Node4 -->
<g id="edge3" class="edge">
<title>Node2&#45;&gt;Node4</title>
<path fill="none" stroke="midnightblue" d="M331.66,-441.06C309.35,-430.52 285.08,-418.75 264.76,-408.61"/>
<polygon fill="midnightblue" stroke="midnightblue" points="330.21,-444.25 340.75,-445.34 333.19,-437.91 330.21,-444.25"/>
</g>
<!-- Node4&#45;&gt;Node2 -->
<g id="edge4" class="edge">
<title>Node4&#45;&gt;Node2</title>
<path fill="none" stroke="midnightblue" d="M282.72,-411.24C305.96,-422.18 331.73,-434.66 353.12,-445.34"/>
<polygon fill="midnightblue" stroke="midnightblue" points="284.16,-408.04 273.62,-406.97 281.19,-414.38 284.16,-408.04"/>
</g>
<!-- Node4&#45;&gt;Node5 -->
<g id="edge5" class="edge">
<title>Node4&#45;&gt;Node5</title>
<path fill="none" stroke="midnightblue" d="M210.47,-346.51C206.68,-302.34 211.5,-226.3 251,-178 273.37,-150.64 310.07,-135.25 342.22,-126.71"/>
<polygon fill="midnightblue" stroke="midnightblue" points="207,-346.92 211.54,-356.49 213.96,-346.17 207,-346.92"/>
</g>
<!-- Node7 -->
<g id="node7" class="node">
<title>Node7</title>
<g id="a_node7"><a xlink:href="_u___service_8cpp.html" target="_top" xlink:title="Entrypoint of the process &amp; the service.">
<polygon fill="none" stroke="black" points="84.5,-267.5 84.5,-319.5 193.5,-319.5 193.5,-267.5 84.5,-267.5"/>
<text text-anchor="start" x="92.5" y="-307.5" font-family="Helvetica,sans-Serif" font-size="10.00">C:/Users/admin&#45;cyb</text>
<text text-anchor="start" x="92.5" y="-296.5" font-family="Helvetica,sans-Serif" font-size="10.00">/Desktop/PI&#45;Defender</text>
<text text-anchor="start" x="92.5" y="-285.5" font-family="Helvetica,sans-Serif" font-size="10.00">/Sources/PI&#45;Defender</text>
<text text-anchor="middle" x="139" y="-274.5" font-family="Helvetica,sans-Serif" font-size="10.00">_UM/U_Service.cpp</text>
</a>
</g>
</g>
<!-- Node4&#45;&gt;Node7 -->
<g id="edge8" class="edge">
<title>Node4&#45;&gt;Node7</title>
<path fill="none" stroke="midnightblue" d="M188.92,-348.79C180.04,-339.13 170.46,-328.71 162.09,-319.61"/>
<polygon fill="midnightblue" stroke="midnightblue" points="186.52,-351.34 195.86,-356.34 191.67,-346.61 186.52,-351.34"/>
</g>
<!-- Node4&#45;&gt;Node8 -->
<g id="edge9" class="edge">
<title>Node4&#45;&gt;Node8</title>
<path fill="none" stroke="midnightblue" d="M252.01,-349.65C263.92,-339.75 277.4,-328.98 289.65,-319.61"/>
<polygon fill="midnightblue" stroke="midnightblue" points="249.46,-347.22 244.05,-356.34 253.96,-352.58 249.46,-347.22"/>
</g>
<!-- Node5&#45;&gt;Node4 -->
<g id="edge7" class="edge">
<title>Node5&#45;&gt;Node4</title>
<path fill="none" stroke="midnightblue" d="M332.85,-135.16C309.42,-144.37 285.37,-157.98 269,-178 226.34,-230.17 224.13,-314.71 222.52,-356.49"/>
<polygon fill="midnightblue" stroke="midnightblue" points="334.31,-138.35 342.47,-131.6 331.88,-131.78 334.31,-138.35"/>
</g>
<!-- Node6 -->
<g id="node6" class="node">
<title>Node6</title>
<g id="a_node6"><a xlink:href="_u___configuration_8cpp.html" target="_top" xlink:title="Set all the needed configuration for the driver and the user&#45;mode service.">
<polygon fill="none" stroke="black" points="342.5,-0.5 342.5,-52.5 469.5,-52.5 469.5,-0.5 342.5,-0.5"/>
<text text-anchor="start" x="350.5" y="-40.5" font-family="Helvetica,sans-Serif" font-size="10.00">C:/Users/admin&#45;cyb</text>
<text text-anchor="start" x="350.5" y="-29.5" font-family="Helvetica,sans-Serif" font-size="10.00">/Desktop/PI&#45;Defender</text>
<text text-anchor="start" x="350.5" y="-18.5" font-family="Helvetica,sans-Serif" font-size="10.00">/Sources/PI&#45;Defender</text>
<text text-anchor="middle" x="406" y="-7.5" font-family="Helvetica,sans-Serif" font-size="10.00">_UM/U_Configuration.cpp</text>
</a>
</g>
</g>
<!-- Node5&#45;&gt;Node6 -->
<g id="edge6" class="edge">
<title>Node5&#45;&gt;Node6</title>
<path fill="none" stroke="midnightblue" d="M406,-79.19C406,-70.28 406,-60.9 406,-52.61"/>
<polygon fill="midnightblue" stroke="midnightblue" points="402.5,-79.34 406,-89.34 409.5,-79.34 402.5,-79.34"/>
</g>
<!-- Node8&#45;&gt;Node4 -->
<g id="edge20" class="edge">
<title>Node8&#45;&gt;Node4</title>
<path fill="none" stroke="midnightblue" d="M294.06,-326.29C282.16,-336.19 268.68,-346.96 256.42,-356.34"/>
<polygon fill="midnightblue" stroke="midnightblue" points="296.61,-328.72 302.01,-319.61 292.11,-323.36 296.61,-328.72"/>
</g>
<!-- Node8&#45;&gt;Node5 -->
<g id="edge10" class="edge">
<title>Node8&#45;&gt;Node5</title>
<path fill="none" stroke="midnightblue" d="M365.78,-260C373.95,-251.37 381.68,-241.5 387,-231 401.38,-202.6 405.25,-165.64 406.1,-141.5"/>
<polygon fill="midnightblue" stroke="midnightblue" points="363.14,-257.69 358.55,-267.25 368.09,-262.64 363.14,-257.69"/>
</g>
<!-- Node8&#45;&gt;Node9 -->
<g id="edge11" class="edge">
<title>Node8&#45;&gt;Node9</title>
<path fill="none" stroke="midnightblue" d="M262.96,-271.94C217.2,-257.25 156.2,-237.67 112.29,-223.57"/>
<polygon fill="midnightblue" stroke="midnightblue" points="261.89,-275.27 272.49,-275 264.03,-268.61 261.89,-275.27"/>
</g>
<!-- Node8&#45;&gt;Node11 -->
<g id="edge14" class="edge">
<title>Node8&#45;&gt;Node11</title>
<path fill="none" stroke="midnightblue" d="M376.68,-262.35C395.5,-252 416.96,-240.52 436.07,-230.61"/>
<polygon fill="midnightblue" stroke="midnightblue" points="374.73,-259.43 367.67,-267.34 378.12,-265.56 374.73,-259.43"/>
</g>
<!-- Node13 -->
<g id="node13" class="node">
<title>Node13</title>
<g id="a_node13"><a xlink:href="_u___utilitaire_8cpp.html" target="_top" xlink:title="Help function used by several .cpp files.">
<polygon fill="none" stroke="black" points="268.5,-178.5 268.5,-230.5 377.5,-230.5 377.5,-178.5 268.5,-178.5"/>
<text text-anchor="start" x="276.5" y="-218.5" font-family="Helvetica,sans-Serif" font-size="10.00">C:/Users/admin&#45;cyb</text>
<text text-anchor="start" x="276.5" y="-207.5" font-family="Helvetica,sans-Serif" font-size="10.00">/Desktop/PI&#45;Defender</text>
<text text-anchor="start" x="276.5" y="-196.5" font-family="Helvetica,sans-Serif" font-size="10.00">/Sources/PI&#45;Defender</text>
<text text-anchor="middle" x="323" y="-185.5" font-family="Helvetica,sans-Serif" font-size="10.00">_UM/U_Utilitaire.cpp</text>
</a>
</g>
</g>
<!-- Node8&#45;&gt;Node13 -->
<g id="edge21" class="edge">
<title>Node8&#45;&gt;Node13</title>
<path fill="none" stroke="midnightblue" d="M325.38,-257.19C324.97,-248.28 324.54,-238.9 324.15,-230.61"/>
<polygon fill="midnightblue" stroke="midnightblue" points="321.89,-257.51 325.84,-267.34 328.88,-257.19 321.89,-257.51"/>
</g>
<!-- Node9&#45;&gt;Node4 -->
<g id="edge13" class="edge">
<title>Node9&#45;&gt;Node4</title>
<path fill="none" stroke="midnightblue" d="M53.43,-240.6C53.48,-265.25 57.47,-297.68 75,-320 96.75,-347.69 133.34,-363.1 164.19,-371.57"/>
<polygon fill="midnightblue" stroke="midnightblue" points="56.93,-240.63 53.63,-230.56 49.93,-240.49 56.93,-240.63"/>
</g>
<!-- Node10 -->
<g id="node10" class="node">
<title>Node10</title>
<g id="a_node10"><a xlink:href="_u___controller_8cpp.html" target="_top" xlink:title="Controll the service/driver (Install|Start|Stop|Delete|Query)">
<polygon fill="none" stroke="black" points="0,-89.5 0,-141.5 112,-141.5 112,-89.5 0,-89.5"/>
<text text-anchor="start" x="8" y="-129.5" font-family="Helvetica,sans-Serif" font-size="10.00">C:/Users/admin&#45;cyb</text>
<text text-anchor="start" x="8" y="-118.5" font-family="Helvetica,sans-Serif" font-size="10.00">/Desktop/PI&#45;Defender</text>
<text text-anchor="start" x="8" y="-107.5" font-family="Helvetica,sans-Serif" font-size="10.00">/Sources/PI&#45;Defender</text>
<text text-anchor="middle" x="56" y="-96.5" font-family="Helvetica,sans-Serif" font-size="10.00">_UM/U_Controller.cpp</text>
</a>
</g>
</g>
<!-- Node9&#45;&gt;Node10 -->
<g id="edge12" class="edge">
<title>Node9&#45;&gt;Node10</title>
<path fill="none" stroke="midnightblue" d="M56,-168.19C56,-159.28 56,-149.9 56,-141.61"/>
<polygon fill="midnightblue" stroke="midnightblue" points="52.5,-168.34 56,-178.34 59.5,-168.34 52.5,-168.34"/>
</g>
<!-- Node11&#45;&gt;Node2 -->
<g id="edge15" class="edge">
<title>Node11&#45;&gt;Node2</title>
<path fill="none" stroke="midnightblue" d="M484.03,-240.71C477.35,-282.22 463.4,-352.68 439,-409 433.53,-421.62 425.56,-434.54 418.17,-445.26"/>
<polygon fill="midnightblue" stroke="midnightblue" points="487.5,-241.22 485.58,-230.8 480.58,-240.14 487.5,-241.22"/>
</g>
<!-- Node11&#45;&gt;Node4 -->
<g id="edge18" class="edge">
<title>Node11&#45;&gt;Node4</title>
<path fill="none" stroke="midnightblue" d="M463.91,-238.62C440.94,-268.19 408.01,-308.55 391,-320 349.02,-348.25 330.52,-338.63 283,-356 279.97,-357.11 276.86,-358.27 273.73,-359.45"/>
<polygon fill="midnightblue" stroke="midnightblue" points="466.76,-240.65 470.1,-230.6 461.22,-236.37 466.76,-240.65"/>
</g>
<!-- Node11&#45;&gt;Node5 -->
<g id="edge16" class="edge">
<title>Node11&#45;&gt;Node5</title>
<path fill="none" stroke="midnightblue" d="M458.07,-171.08C448.77,-161.34 438.72,-150.8 429.95,-141.61"/>
<polygon fill="midnightblue" stroke="midnightblue" points="455.56,-173.52 464.99,-178.34 460.62,-168.68 455.56,-173.52"/>
</g>
<!-- Node11&#45;&gt;Node8 -->
<g id="edge19" class="edge">
<title>Node11&#45;&gt;Node8</title>
<path fill="none" stroke="midnightblue" d="M439.43,-235.59C420.62,-245.94 399.16,-257.42 380.04,-267.34"/>
<polygon fill="midnightblue" stroke="midnightblue" points="441.38,-238.51 448.43,-230.61 437.99,-232.39 441.38,-238.51"/>
</g>
<!-- Node12 -->
<g id="node12" class="node">
<title>Node12</title>
<g id="a_node12"><a xlink:href="_u___logs_8cpp.html" target="_top" xlink:title="Report Event to ETW.">
<polygon fill="none" stroke="black" points="487.5,-89.5 487.5,-141.5 596.5,-141.5 596.5,-89.5 487.5,-89.5"/>
<text text-anchor="start" x="495.5" y="-129.5" font-family="Helvetica,sans-Serif" font-size="10.00">C:/Users/admin&#45;cyb</text>
<text text-anchor="start" x="495.5" y="-118.5" font-family="Helvetica,sans-Serif" font-size="10.00">/Desktop/PI&#45;Defender</text>
<text text-anchor="start" x="495.5" y="-107.5" font-family="Helvetica,sans-Serif" font-size="10.00">/Sources/PI&#45;Defender</text>
<text text-anchor="middle" x="542" y="-96.5" font-family="Helvetica,sans-Serif" font-size="10.00">_UM/U_Logs.cpp</text>
</a>
</g>
</g>
<!-- Node11&#45;&gt;Node12 -->
<g id="edge17" class="edge">
<title>Node11&#45;&gt;Node12</title>
<path fill="none" stroke="midnightblue" d="M509.63,-169.64C515.31,-160.31 521.38,-150.35 526.7,-141.61"/>
<polygon fill="midnightblue" stroke="midnightblue" points="506.54,-167.97 504.33,-178.34 512.52,-171.62 506.54,-167.97"/>
</g>
<!-- Node14&#45;&gt;Node5 -->
<g id="edge26" class="edge">
<title>Node14&#45;&gt;Node5</title>
<path fill="none" stroke="midnightblue" d="M641.82,-257.76C630.54,-232.37 612,-198.87 586,-178 546.88,-146.59 526.46,-158.27 479,-142 475.95,-140.96 472.83,-139.88 469.69,-138.79"/>
<polygon fill="midnightblue" stroke="midnightblue" points="638.64,-259.22 645.78,-267.05 645.07,-256.47 638.64,-259.22"/>
</g>
<!-- Node14&#45;&gt;Node11 -->
<g id="edge27" class="edge">
<title>Node14&#45;&gt;Node11</title>
<path fill="none" stroke="midnightblue" d="M598.02,-262.64C578.12,-252.2 555.99,-240.61 536.91,-230.61"/>
<polygon fill="midnightblue" stroke="midnightblue" points="596.5,-265.79 606.99,-267.34 599.75,-259.59 596.5,-265.79"/>
</g>
<!-- Node15 -->
<g id="node15" class="node">
<title>Node15</title>
<g id="a_node15"><a xlink:href="_u___registry_8cpp.html" target="_top" xlink:title="Create / Write / Delete registry key.">
<polygon fill="none" stroke="black" points="638.5,-178.5 638.5,-230.5 747.5,-230.5 747.5,-178.5 638.5,-178.5"/>
<text text-anchor="start" x="646.5" y="-218.5" font-family="Helvetica,sans-Serif" font-size="10.00">C:/Users/admin&#45;cyb</text>
<text text-anchor="start" x="646.5" y="-207.5" font-family="Helvetica,sans-Serif" font-size="10.00">/Desktop/PI&#45;Defender</text>
<text text-anchor="start" x="646.5" y="-196.5" font-family="Helvetica,sans-Serif" font-size="10.00">/Sources/PI&#45;Defender</text>
<text text-anchor="middle" x="693" y="-185.5" font-family="Helvetica,sans-Serif" font-size="10.00">_UM/U_Registry.cpp</text>
</a>
</g>
</g>
<!-- Node14&#45;&gt;Node15 -->
<g id="edge28" class="edge">
<title>Node14&#45;&gt;Node15</title>
<path fill="none" stroke="midnightblue" d="M670.04,-258.06C674.05,-248.9 678.29,-239.17 682.03,-230.61"/>
<polygon fill="midnightblue" stroke="midnightblue" points="666.79,-256.77 665.99,-267.34 673.2,-259.57 666.79,-256.77"/>
</g>
<!-- Node16&#45;&gt;Node2 -->
<g id="edge31" class="edge">
<title>Node16&#45;&gt;Node2</title>
<path fill="none" stroke="midnightblue" d="M384.06,-524.48C386.65,-515.49 389.38,-505.99 391.79,-497.61"/>
<polygon fill="midnightblue" stroke="midnightblue" points="380.63,-523.76 381.23,-534.34 387.36,-525.69 380.63,-523.76"/>
</g>
<!-- Node17 -->
<g id="node17" class="node">
<title>Node17</title>
<g id="a_node17"><a xlink:href="_u___signature_8cpp.html" target="_top" xlink:title="Verify embedded signature and catalog signature of an executable.">
<polygon fill="none" stroke="black" points="200,-445.5 200,-497.5 312,-497.5 312,-445.5 200,-445.5"/>
<text text-anchor="start" x="208" y="-485.5" font-family="Helvetica,sans-Serif" font-size="10.00">C:/Users/admin&#45;cyb</text>
<text text-anchor="start" x="208" y="-474.5" font-family="Helvetica,sans-Serif" font-size="10.00">/Desktop/PI&#45;Defender</text>
<text text-anchor="start" x="208" y="-463.5" font-family="Helvetica,sans-Serif" font-size="10.00">/Sources/PI&#45;Defender</text>
<text text-anchor="middle" x="256" y="-452.5" font-family="Helvetica,sans-Serif" font-size="10.00">_UM/U_Signature.cpp</text>
</a>
</g>
</g>
<!-- Node16&#45;&gt;Node17 -->
<g id="edge32" class="edge">
<title>Node16&#45;&gt;Node17</title>
<path fill="none" stroke="midnightblue" d="M331.57,-528.22C317.93,-518.16 303.01,-507.16 290.05,-497.61"/>
<polygon fill="midnightblue" stroke="midnightblue" points="329.74,-531.22 339.87,-534.34 333.9,-525.58 329.74,-531.22"/>
</g>
</g>
</svg>
        <g id="navigator" transform="translate(0 0)" fill="#404254">
                <rect fill="#f2f5e9" fill-opacity="0.5" stroke="#606060" stroke-width=".5" x="0" y="0" width="60" height="60"/>
                <use id="zoomplus" xlink:href="#zoomPlus" x="17" y="9" onmousedown="handleZoom(evt,'in')"/>
                <use id="zoomminus" xlink:href="#zoomMin" x="42" y="9" onmousedown="handleZoom(evt,'out')"/>
                <use id="reset" xlink:href="#resetDef" x="30" y="36" onmousedown="handleReset()"/>
                <g id="arrowUp" xlink:href="#dirArrow" transform="translate(30 24)" onmousedown="handlePan(0,-1)">
                  <use xlink:href="#rim" fill="#404040">
                        <set attributeName="fill" to="#808080" begin="arrowUp.mouseover" end="arrowUp.mouseout"/>
                  </use>
                  <path fill="none" stroke="white" stroke-width="1.5" d="M0,-3.0v7 M-2.5,-0.5L0,-3.0L2.5,-0.5"/>
                </g>
                <g id="arrowRight" xlink:href="#dirArrow" transform="rotate(90) translate(36 -43)" onmousedown="handlePan(1,0)">
                  <use xlink:href="#rim" fill="#404040">
                        <set attributeName="fill" to="#808080" begin="arrowRight.mouseover" end="arrowRight.mouseout"/>
                  </use>
                  <path fill="none" stroke="white" stroke-width="1.5" d="M0,-3.0v7 M-2.5,-0.5L0,-3.0L2.5,-0.5"/>
                </g>
                <g id="arrowDown" xlink:href="#dirArrow" transform="rotate(180) translate(-30 -48)" onmousedown="handlePan(0,1)">
                  <use xlink:href="#rim" fill="#404040">
                        <set attributeName="fill" to="#808080" begin="arrowDown.mouseover" end="arrowDown.mouseout"/>
                  </use>
                  <path fill="none" stroke="white" stroke-width="1.5" d="M0,-3.0v7 M-2.5,-0.5L0,-3.0L2.5,-0.5"/>
                </g>
                <g id="arrowLeft" xlink:href="#dirArrow" transform="rotate(270) translate(-36 17)" onmousedown="handlePan(-1,0)">
                  <use xlink:href="#rim" fill="#404040">
                        <set attributeName="fill" to="#808080" begin="arrowLeft.mouseover" end="arrowLeft.mouseout"/>
                  </use>
                  <path fill="none" stroke="white" stroke-width="1.5" d="M0,-3.0v7 M-2.5,-0.5L0,-3.0L2.5,-0.5"/>
                </g>
        </g>
        <svg viewBox="0 0 15 15" width="100%" height="30px" preserveAspectRatio="xMaxYMin meet">
         <g id="arrow_out" transform="scale(0.3 0.3)">
          <a xlink:href="_u___global_header_8hpp__dep__incl_org.svg" target="_base">
           <rect id="button" ry="5" rx="5" y="6" x="6" height="38" width="38"
                fill="#f2f5e9" fill-opacity="0.5" stroke="#606060" stroke-width="1.0"/>
           <path id="arrow"
             d="M 11.500037,31.436501 C 11.940474,20.09759 22.043105,11.32322 32.158766,21.979434 L 37.068811,17.246167 C 37.068811,17.246167 37.088388,32 37.088388,32 L 22.160133,31.978069 C 22.160133,31.978069 26.997745,27.140456 26.997745,27.140456 C 18.528582,18.264221 13.291696,25.230495 11.500037,31.436501 z"
             style="fill:#404040;"/>
          </a>
         </g>
        </svg>
</svg>
