<?xml version="1.0" encoding="UTF-8" standalone="no"?>
<!DOCTYPE svg PUBLIC "-//W3C//DTD SVG 1.1//EN"
 "http://www.w3.org/Graphics/SVG/1.1/DTD/svg11.dtd">
<!-- Generated by graphviz version 5.0.0 (20220707.1540)
 -->
<!-- Title: C:/Users/Gshoo/Desktop/pi&#45;defender&#45;tmp/Sources/PI&#45;Defender_UM/U_Service.hpp Pages: 1 -->
<svg width="1170pt" height="386pt"
 viewBox="0.00 0.00 1170.00 386.00" xmlns="http://www.w3.org/2000/svg" xmlns:xlink="http://www.w3.org/1999/xlink">
<g id="graph0" class="graph" transform="scale(1 1) rotate(0) translate(4 382)">
<title>C:/Users/Gshoo/Desktop/pi&#45;defender&#45;tmp/Sources/PI&#45;Defender_UM/U_Service.hpp</title>
<!-- Node1 -->
<g id="node1" class="node">
<title>Node1</title>
<g id="a_node1"><a xlink:title="Header for U_Service.cpp.">
<polygon fill="#bfbfbf" stroke="black" points="465.5,-336.5 465.5,-377.5 620.5,-377.5 620.5,-336.5 465.5,-336.5"/>
<text text-anchor="start" x="473.5" y="-365.5" font-family="Helvetica,sans-Serif" font-size="10.00">C:/Users/Gshoo/Desktop</text>
<text text-anchor="start" x="473.5" y="-354.5" font-family="Helvetica,sans-Serif" font-size="10.00">/pi&#45;defender&#45;tmp/Sources</text>
<text text-anchor="middle" x="543" y="-343.5" font-family="Helvetica,sans-Serif" font-size="10.00">/PI&#45;Defender_UM/U_Service.hpp</text>
</a>
</g>
</g>
<!-- Node2 -->
<g id="node2" class="node">
<title>Node2</title>
<g id="a_node2"><a xlink:href="_u___global_header_8hpp.html" target="_top" xlink:title="Header used by several .hpp files.">
<polygon fill="none" stroke="black" points="555,-56.5 555,-75.5 661,-75.5 661,-56.5 555,-56.5"/>
<text text-anchor="middle" x="608" y="-63.5" font-family="Helvetica,sans-Serif" font-size="10.00">U_GlobalHeader.hpp</text>
</a>
</g>
</g>
<!-- Node1&#45;&gt;Node2 -->
<g id="edge1" class="edge">
<title>Node1&#45;&gt;Node2</title>
<path fill="none" stroke="midnightblue" d="M465.49,-354.71C315.46,-350.11 0,-329.23 0,-235 0,-235 0,-235 0,-177 0,-120.98 54.75,-129.4 108,-112 187.52,-86.02 428.91,-73.7 544.71,-69.16"/>
<polygon fill="midnightblue" stroke="midnightblue" points="544.98,-72.65 554.84,-68.77 544.72,-65.66 544.98,-72.65"/>
</g>
<!-- Node8 -->
<g id="node8" class="node">
<title>Node8</title>
<g id="a_node8"><a xlink:href="_u___configuration_8hpp.html" target="_top" xlink:title="Header for U_Configuration.cpp.">
<polygon fill="none" stroke="black" points="491,-280.5 491,-299.5 595,-299.5 595,-280.5 491,-280.5"/>
<text text-anchor="middle" x="543" y="-287.5" font-family="Helvetica,sans-Serif" font-size="10.00">U_Configuration.hpp</text>
</a>
</g>
</g>
<!-- Node1&#45;&gt;Node8 -->
<g id="edge7" class="edge">
<title>Node1&#45;&gt;Node8</title>
<path fill="none" stroke="midnightblue" d="M536.75,-336.5C536.06,-327.97 536.08,-318.01 536.83,-309.59"/>
<polygon fill="midnightblue" stroke="midnightblue" points="540.3,-310.04 538.24,-299.65 533.37,-309.06 540.3,-310.04"/>
</g>
<!-- Node12 -->
<g id="node12" class="node">
<title>Node12</title>
<g id="a_node12"><a xlink:href="_u___logs_8hpp.html" target="_top" xlink:title="Header for U_Logs.cpp.">
<polygon fill="none" stroke="black" points="698,-168.5 698,-187.5 766,-187.5 766,-168.5 698,-168.5"/>
<text text-anchor="middle" x="732" y="-175.5" font-family="Helvetica,sans-Serif" font-size="10.00">U_Logs.hpp</text>
</a>
</g>
</g>
<!-- Node1&#45;&gt;Node12 -->
<g id="edge34" class="edge">
<title>Node1&#45;&gt;Node12</title>
<path fill="none" stroke="midnightblue" d="M585.78,-336.46C622.79,-317.57 675.35,-285.71 708,-244 718.65,-230.4 724.9,-211.6 728.34,-197.72"/>
<polygon fill="midnightblue" stroke="midnightblue" points="731.79,-198.35 730.53,-187.83 724.95,-196.84 731.79,-198.35"/>
</g>
<!-- Node13 -->
<g id="node13" class="node">
<title>Node13</title>
<g id="a_node13"><a xlink:href="_u___helper_8hpp.html" target="_top" xlink:title="Header for U_Helper.cpp.">
<polygon fill="none" stroke="black" points="416.5,-224.5 416.5,-243.5 491.5,-243.5 491.5,-224.5 416.5,-224.5"/>
<text text-anchor="middle" x="454" y="-231.5" font-family="Helvetica,sans-Serif" font-size="10.00">U_Helper.hpp</text>
</a>
</g>
</g>
<!-- Node1&#45;&gt;Node13 -->
<g id="edge35" class="edge">
<title>Node1&#45;&gt;Node13</title>
<path fill="none" stroke="midnightblue" d="M508.72,-336.27C496.08,-326.37 482.65,-313.6 473,-300 462.89,-285.75 455.37,-267.28 452.23,-253.67"/>
<polygon fill="midnightblue" stroke="midnightblue" points="455.65,-252.93 450.65,-243.58 448.74,-254 455.65,-252.93"/>
</g>
<!-- Node20 -->
<g id="node20" class="node">
<title>Node20</title>
<g id="a_node20"><a xlink:href="_u___controller_8hpp.html" target="_top" xlink:title="Header for U_Controller.cpp.">
<polygon fill="none" stroke="black" points="316.5,-280.5 316.5,-299.5 405.5,-299.5 405.5,-280.5 316.5,-280.5"/>
<text text-anchor="middle" x="361" y="-287.5" font-family="Helvetica,sans-Serif" font-size="10.00">U_Controller.hpp</text>
</a>
</g>
</g>
<!-- Node1&#45;&gt;Node20 -->
<g id="edge30" class="edge">
<title>Node1&#45;&gt;Node20</title>
<path fill="none" stroke="midnightblue" d="M488.39,-336.5C457.94,-325.62 420.98,-312.42 394.73,-303.05"/>
<polygon fill="midnightblue" stroke="midnightblue" points="395.82,-299.72 385.23,-299.65 393.47,-306.31 395.82,-299.72"/>
</g>
<!-- Node21 -->
<g id="node21" class="node">
<title>Node21</title>
<g id="a_node21"><a xlink:href="_u___communication_8hpp.html" target="_top" xlink:title="Header for U_Communication.cpp.">
<polygon fill="none" stroke="black" points="774.5,-224.5 774.5,-243.5 889.5,-243.5 889.5,-224.5 774.5,-224.5"/>
<text text-anchor="middle" x="832" y="-231.5" font-family="Helvetica,sans-Serif" font-size="10.00">U_Communication.hpp</text>
</a>
</g>
</g>
<!-- Node1&#45;&gt;Node21 -->
<g id="edge36" class="edge">
<title>Node1&#45;&gt;Node21</title>
<path fill="none" stroke="midnightblue" d="M620.56,-343.74C661.09,-335.4 710.48,-321.79 751,-300 774.49,-287.37 796.48,-265.48 811.96,-250.63"/>
<polygon fill="midnightblue" stroke="midnightblue" points="814.55,-253 819.43,-243.59 809.75,-247.9 814.55,-253"/>
</g>
<!-- Node3 -->
<g id="node3" class="node">
<title>Node3</title>
<g id="a_node3"><a xlink:title=" ">
<polygon fill="none" stroke="#bfbfbf" points="537.5,-0.5 537.5,-19.5 602.5,-19.5 602.5,-0.5 537.5,-0.5"/>
<text text-anchor="middle" x="570" y="-7.5" font-family="Helvetica,sans-Serif" font-size="10.00">Windows.h</text>
</a>
</g>
</g>
<!-- Node2&#45;&gt;Node3 -->
<g id="edge2" class="edge">
<title>Node2&#45;&gt;Node3</title>
<path fill="none" stroke="midnightblue" d="M601.73,-56.08C596.36,-48.46 588.48,-37.26 581.92,-27.94"/>
<polygon fill="midnightblue" stroke="midnightblue" points="584.78,-25.91 576.16,-19.75 579.05,-29.94 584.78,-25.91"/>
</g>
<!-- Node4 -->
<g id="node4" class="node">
<title>Node4</title>
<g id="a_node4"><a xlink:title=" ">
<polygon fill="none" stroke="#bfbfbf" points="620.5,-0.5 620.5,-19.5 673.5,-19.5 673.5,-0.5 620.5,-0.5"/>
<text text-anchor="middle" x="647" y="-7.5" font-family="Helvetica,sans-Serif" font-size="10.00">fltUser.h</text>
</a>
</g>
</g>
<!-- Node2&#45;&gt;Node4 -->
<g id="edge3" class="edge">
<title>Node2&#45;&gt;Node4</title>
<path fill="none" stroke="midnightblue" d="M614.44,-56.08C619.95,-48.46 628.03,-37.26 634.76,-27.94"/>
<polygon fill="midnightblue" stroke="midnightblue" points="637.66,-29.91 640.68,-19.75 631.99,-25.81 637.66,-29.91"/>
</g>
<!-- Node5 -->
<g id="node5" class="node">
<title>Node5</title>
<g id="a_node5"><a xlink:title=" ">
<polygon fill="none" stroke="#bfbfbf" points="692,-0.5 692,-19.5 738,-19.5 738,-0.5 692,-0.5"/>
<text text-anchor="middle" x="715" y="-7.5" font-family="Helvetica,sans-Serif" font-size="10.00">stdio.h</text>
</a>
</g>
</g>
<!-- Node2&#45;&gt;Node5 -->
<g id="edge4" class="edge">
<title>Node2&#45;&gt;Node5</title>
<path fill="none" stroke="midnightblue" d="M625.19,-56.32C642.35,-47.66 668.95,-34.24 688.75,-24.25"/>
<polygon fill="midnightblue" stroke="midnightblue" points="690.5,-27.28 697.85,-19.65 687.35,-21.04 690.5,-27.28"/>
</g>
<!-- Node6 -->
<g id="node6" class="node">
<title>Node6</title>
<g id="a_node6"><a xlink:title=" ">
<polygon fill="none" stroke="#bfbfbf" points="472.5,-0.5 472.5,-19.5 519.5,-19.5 519.5,-0.5 472.5,-0.5"/>
<text text-anchor="middle" x="496" y="-7.5" font-family="Helvetica,sans-Serif" font-size="10.00">tchar.h</text>
</a>
</g>
</g>
<!-- Node2&#45;&gt;Node6 -->
<g id="edge5" class="edge">
<title>Node2&#45;&gt;Node6</title>
<path fill="none" stroke="midnightblue" d="M590.01,-56.32C571.96,-47.62 543.95,-34.12 523.2,-24.11"/>
<polygon fill="midnightblue" stroke="midnightblue" points="524.48,-20.84 513.95,-19.65 521.44,-27.15 524.48,-20.84"/>
</g>
<!-- Node7 -->
<g id="node7" class="node">
<title>Node7</title>
<g id="a_node7"><a xlink:title=" ">
<polygon fill="none" stroke="#bfbfbf" points="212,-0.5 212,-19.5 266,-19.5 266,-0.5 212,-0.5"/>
<text text-anchor="middle" x="239" y="-7.5" font-family="Helvetica,sans-Serif" font-size="10.00">strsafe.h</text>
</a>
</g>
</g>
<!-- Node2&#45;&gt;Node7 -->
<g id="edge6" class="edge">
<title>Node2&#45;&gt;Node7</title>
<path fill="none" stroke="midnightblue" d="M554.74,-57.21C478.96,-46.12 341.94,-26.06 276.18,-16.44"/>
<polygon fill="midnightblue" stroke="midnightblue" points="276.66,-12.97 266.26,-14.99 275.64,-19.9 276.66,-12.97"/>
</g>
<!-- Node8&#45;&gt;Node1 -->
<g id="edge13" class="edge">
<title>Node8&#45;&gt;Node1</title>
<path fill="none" stroke="midnightblue" d="M547.76,-299.65C549.23,-306.52 549.88,-316.56 549.73,-326.26"/>
<polygon fill="midnightblue" stroke="midnightblue" points="546.22,-326.34 549.25,-336.5 553.21,-326.67 546.22,-326.34"/>
</g>
<!-- Node8&#45;&gt;Node2 -->
<g id="edge8" class="edge">
<title>Node8&#45;&gt;Node2</title>
<path fill="none" stroke="midnightblue" d="M542.93,-280.24C543.23,-266.99 545.41,-241.53 557,-224 572.3,-200.86 595.24,-212.63 608,-188 625.01,-155.17 618.63,-110.27 612.98,-85.43"/>
<polygon fill="midnightblue" stroke="midnightblue" points="616.33,-84.4 610.52,-75.54 609.54,-86.09 616.33,-84.4"/>
</g>
<!-- Node9 -->
<g id="node9" class="node">
<title>Node9</title>
<g id="a_node9"><a xlink:title=" ">
<polygon fill="none" stroke="#bfbfbf" points="66,-168.5 66,-187.5 128,-187.5 128,-168.5 66,-168.5"/>
<text text-anchor="middle" x="97" y="-175.5" font-family="Helvetica,sans-Serif" font-size="10.00">PathCch.h</text>
</a>
</g>
</g>
<!-- Node8&#45;&gt;Node9 -->
<g id="edge9" class="edge">
<title>Node8&#45;&gt;Node9</title>
<path fill="none" stroke="midnightblue" d="M508.37,-280.46C427.16,-260.43 224.76,-210.51 137.78,-189.06"/>
<polygon fill="midnightblue" stroke="midnightblue" points="138.55,-185.64 128,-186.65 136.88,-192.44 138.55,-185.64"/>
</g>
<!-- Node10 -->
<g id="node10" class="node">
<title>Node10</title>
<g id="a_node10"><a xlink:title=" ">
<polygon fill="none" stroke="#bfbfbf" points="566,-224.5 566,-243.5 642,-243.5 642,-224.5 566,-224.5"/>
<text text-anchor="middle" x="604" y="-231.5" font-family="Helvetica,sans-Serif" font-size="10.00">Shlobj_core.h</text>
</a>
</g>
</g>
<!-- Node8&#45;&gt;Node10 -->
<g id="edge10" class="edge">
<title>Node8&#45;&gt;Node10</title>
<path fill="none" stroke="midnightblue" d="M552.8,-280.32C561.82,-272.34 575.41,-260.31 586.32,-250.65"/>
<polygon fill="midnightblue" stroke="midnightblue" points="588.85,-253.08 594.02,-243.83 584.21,-247.84 588.85,-253.08"/>
</g>
<!-- Node11 -->
<g id="node11" class="node">
<title>Node11</title>
<g id="a_node11"><a xlink:href="_u___registry_8hpp.html" target="_top" xlink:title="Header for U_Registry.cpp.">
<polygon fill="none" stroke="black" points="636.5,-112.5 636.5,-131.5 719.5,-131.5 719.5,-112.5 636.5,-112.5"/>
<text text-anchor="middle" x="678" y="-119.5" font-family="Helvetica,sans-Serif" font-size="10.00">U_Registry.hpp</text>
</a>
</g>
</g>
<!-- Node8&#45;&gt;Node11 -->
<g id="edge11" class="edge">
<title>Node8&#45;&gt;Node11</title>
<path fill="none" stroke="midnightblue" d="M587.98,-280.45C610.01,-274.01 635.14,-262.91 651,-244 675.57,-214.69 679.04,-167.77 678.86,-141.81"/>
<polygon fill="midnightblue" stroke="midnightblue" points="682.36,-141.69 678.6,-131.78 675.36,-141.87 682.36,-141.69"/>
</g>
<!-- Node8&#45;&gt;Node12 -->
<g id="edge14" class="edge">
<title>Node8&#45;&gt;Node12</title>
<path fill="none" stroke="midnightblue" d="M595.13,-280.49C623.39,-273.97 657.79,-262.79 684,-244 701.23,-231.65 714.85,-211.23 723.11,-196.57"/>
<polygon fill="midnightblue" stroke="midnightblue" points="726.32,-197.98 727.95,-187.51 720.15,-194.68 726.32,-197.98"/>
</g>
<!-- Node8&#45;&gt;Node13 -->
<g id="edge29" class="edge">
<title>Node8&#45;&gt;Node13</title>
<path fill="none" stroke="midnightblue" d="M528.7,-280.32C514.82,-271.9 493.51,-258.97 477.2,-249.07"/>
<polygon fill="midnightblue" stroke="midnightblue" points="478.63,-245.85 468.26,-243.65 475,-251.83 478.63,-245.85"/>
</g>
<!-- Node11&#45;&gt;Node2 -->
<g id="edge12" class="edge">
<title>Node11&#45;&gt;Node2</title>
<path fill="none" stroke="midnightblue" d="M666.75,-112.32C656.2,-104.18 640.2,-91.84 627.56,-82.09"/>
<polygon fill="midnightblue" stroke="midnightblue" points="629.51,-79.17 619.45,-75.83 625.23,-84.71 629.51,-79.17"/>
</g>
<!-- Node12&#45;&gt;Node2 -->
<g id="edge15" class="edge">
<title>Node12&#45;&gt;Node2</title>
<path fill="none" stroke="midnightblue" d="M734.33,-168.45C737.44,-155.02 741.25,-128.79 729,-112 715.31,-93.24 692.87,-82.29 671.02,-75.91"/>
<polygon fill="midnightblue" stroke="midnightblue" points="671.61,-72.45 661.05,-73.29 669.83,-79.22 671.61,-72.45"/>
</g>
<!-- Node12&#45;&gt;Node11 -->
<g id="edge16" class="edge">
<title>Node12&#45;&gt;Node11</title>
<path fill="none" stroke="midnightblue" d="M723.08,-168.08C715.22,-160.22 703.57,-148.57 694.08,-139.08"/>
<polygon fill="midnightblue" stroke="midnightblue" points="696.3,-136.35 686.75,-131.75 691.35,-141.3 696.3,-136.35"/>
</g>
<!-- Node12&#45;&gt;Node13 -->
<g id="edge17" class="edge">
<title>Node12&#45;&gt;Node13</title>
<path fill="none" stroke="midnightblue" d="M697.68,-186.61C648.3,-196.68 557.33,-214.36 501.53,-224.74"/>
<polygon fill="midnightblue" stroke="midnightblue" points="500.73,-221.33 491.54,-226.59 502.01,-228.21 500.73,-221.33"/>
</g>
<!-- Node13&#45;&gt;Node1 -->
<g id="edge28" class="edge">
<title>Node13&#45;&gt;Node1</title>
<path fill="none" stroke="midnightblue" d="M462.19,-243.58C469.36,-256.61 478.05,-281.77 491,-300 498.54,-310.62 508.39,-320.74 517.56,-329.38"/>
<polygon fill="midnightblue" stroke="midnightblue" points="515.32,-332.08 525.05,-336.27 520.06,-326.93 515.32,-332.08"/>
</g>
<!-- Node13&#45;&gt;Node2 -->
<g id="edge26" class="edge">
<title>Node13&#45;&gt;Node2</title>
<path fill="none" stroke="midnightblue" d="M416.39,-229.63C343.88,-222.75 190.49,-206.19 175,-188 169.24,-181.23 169.47,-174.96 175,-168 220.44,-110.74 435.63,-82.93 544.54,-72.33"/>
<polygon fill="midnightblue" stroke="midnightblue" points="545.12,-75.79 554.74,-71.35 544.45,-68.82 545.12,-75.79"/>
</g>
<!-- Node13&#45;&gt;Node7 -->
<g id="edge23" class="edge">
<title>Node13&#45;&gt;Node7</title>
<path fill="none" stroke="midnightblue" d="M491.65,-227.77C534.83,-220.05 597.02,-202.6 575,-168 507.78,-62.39 348.84,-26.64 276.28,-15.55"/>
<polygon fill="midnightblue" stroke="midnightblue" points="276.63,-12.06 266.23,-14.09 275.62,-18.99 276.63,-12.06"/>
</g>
<!-- Node13&#45;&gt;Node9 -->
<g id="edge19" class="edge">
<title>Node13&#45;&gt;Node9</title>
<path fill="none" stroke="midnightblue" d="M416.44,-228.25C357.72,-220.68 240.7,-204.98 142,-188 140.9,-187.81 139.79,-187.62 138.66,-187.42"/>
<polygon fill="midnightblue" stroke="midnightblue" points="138.9,-183.9 128.43,-185.51 137.62,-190.78 138.9,-183.9"/>
</g>
<!-- Node13&#45;&gt;Node12 -->
<g id="edge27" class="edge">
<title>Node13&#45;&gt;Node12</title>
<path fill="none" stroke="midnightblue" d="M491.5,-224.74C542.59,-214.36 633.63,-196.69 687.91,-186.62"/>
<polygon fill="midnightblue" stroke="midnightblue" points="688.73,-190.03 697.93,-184.77 687.46,-183.14 688.73,-190.03"/>
</g>
<!-- Node14 -->
<g id="node14" class="node">
<title>Node14</title>
<g id="a_node14"><a xlink:title=" ">
<polygon fill="none" stroke="#bfbfbf" points="295.5,-168.5 295.5,-187.5 354.5,-187.5 354.5,-168.5 295.5,-168.5"/>
<text text-anchor="middle" x="325" y="-175.5" font-family="Helvetica,sans-Serif" font-size="10.00">Shlwapi.h</text>
</a>
</g>
</g>
<!-- Node13&#45;&gt;Node14 -->
<g id="edge18" class="edge">
<title>Node13&#45;&gt;Node14</title>
<path fill="none" stroke="midnightblue" d="M433.56,-224.44C412.33,-215.56 378.9,-201.56 354.75,-191.45"/>
<polygon fill="midnightblue" stroke="midnightblue" points="355.92,-188.15 345.34,-187.52 353.22,-194.61 355.92,-188.15"/>
</g>
<!-- Node15 -->
<g id="node15" class="node">
<title>Node15</title>
<g id="a_node15"><a xlink:title=" ">
<polygon fill="none" stroke="#bfbfbf" points="372.5,-168.5 372.5,-187.5 413.5,-187.5 413.5,-168.5 372.5,-168.5"/>
<text text-anchor="middle" x="393" y="-175.5" font-family="Helvetica,sans-Serif" font-size="10.00">string</text>
</a>
</g>
</g>
<!-- Node13&#45;&gt;Node15 -->
<g id="edge20" class="edge">
<title>Node13&#45;&gt;Node15</title>
<path fill="none" stroke="midnightblue" d="M444.2,-224.32C435.18,-216.34 421.59,-204.31 410.68,-194.65"/>
<polygon fill="midnightblue" stroke="midnightblue" points="412.79,-191.84 402.98,-187.83 408.15,-197.08 412.79,-191.84"/>
</g>
<!-- Node16 -->
<g id="node16" class="node">
<title>Node16</title>
<g id="a_node16"><a xlink:title=" ">
<polygon fill="none" stroke="#bfbfbf" points="432,-168.5 432,-187.5 486,-187.5 486,-168.5 432,-168.5"/>
<text text-anchor="middle" x="459" y="-175.5" font-family="Helvetica,sans-Serif" font-size="10.00">iostream</text>
</a>
</g>
</g>
<!-- Node13&#45;&gt;Node16 -->
<g id="edge21" class="edge">
<title>Node13&#45;&gt;Node16</title>
<path fill="none" stroke="midnightblue" d="M454.83,-224.08C455.48,-217.01 456.42,-206.86 457.24,-197.99"/>
<polygon fill="midnightblue" stroke="midnightblue" points="460.75,-198.03 458.19,-187.75 453.78,-197.39 460.75,-198.03"/>
</g>
<!-- Node17 -->
<g id="node17" class="node">
<title>Node17</title>
<g id="a_node17"><a xlink:title=" ">
<polygon fill="none" stroke="#bfbfbf" points="504,-168.5 504,-187.5 566,-187.5 566,-168.5 504,-168.5"/>
<text text-anchor="middle" x="535" y="-175.5" font-family="Helvetica,sans-Serif" font-size="10.00">TlHelp32.h</text>
</a>
</g>
</g>
<!-- Node13&#45;&gt;Node17 -->
<g id="edge22" class="edge">
<title>Node13&#45;&gt;Node17</title>
<path fill="none" stroke="midnightblue" d="M467.01,-224.32C479.53,-215.98 498.68,-203.21 513.47,-193.35"/>
<polygon fill="midnightblue" stroke="midnightblue" points="515.64,-196.11 522.02,-187.65 511.76,-190.29 515.64,-196.11"/>
</g>
<!-- Node18 -->
<g id="node18" class="node">
<title>Node18</title>
<g id="a_node18"><a xlink:title=" ">
<polygon fill="none" stroke="#bfbfbf" points="184,-168.5 184,-187.5 216,-187.5 216,-168.5 184,-168.5"/>
<text text-anchor="middle" x="200" y="-175.5" font-family="Helvetica,sans-Serif" font-size="10.00">io.h</text>
</a>
</g>
</g>
<!-- Node13&#45;&gt;Node18 -->
<g id="edge24" class="edge">
<title>Node13&#45;&gt;Node18</title>
<path fill="none" stroke="midnightblue" d="M416.31,-227.39C372.55,-220.49 298.13,-207.53 225.76,-187.86"/>
<polygon fill="midnightblue" stroke="midnightblue" points="226.59,-184.46 216.02,-185.17 224.73,-191.21 226.59,-184.46"/>
</g>
<!-- Node19 -->
<g id="node19" class="node">
<title>Node19</title>
<g id="a_node19"><a xlink:title=" ">
<polygon fill="none" stroke="#bfbfbf" points="234.5,-168.5 234.5,-187.5 277.5,-187.5 277.5,-168.5 234.5,-168.5"/>
<text text-anchor="middle" x="256" y="-175.5" font-family="Helvetica,sans-Serif" font-size="10.00">fcntl.h</text>
</a>
</g>
</g>
<!-- Node13&#45;&gt;Node19 -->
<g id="edge25" class="edge">
<title>Node13&#45;&gt;Node19</title>
<path fill="none" stroke="midnightblue" d="M421.09,-224.49C389.15,-216.17 339.07,-202.94 287.29,-188.31"/>
<polygon fill="midnightblue" stroke="midnightblue" points="288.18,-184.93 277.61,-185.57 286.27,-191.66 288.18,-184.93"/>
</g>
<!-- Node20&#45;&gt;Node2 -->
<g id="edge31" class="edge">
<title>Node20&#45;&gt;Node2</title>
<path fill="none" stroke="midnightblue" d="M316.35,-287.45C216.57,-282.3 -10.56,-260.4 57,-168 113.8,-90.32 412.03,-72.38 544.5,-68.24"/>
<polygon fill="midnightblue" stroke="midnightblue" points="545,-71.73 554.89,-67.94 544.79,-64.73 545,-71.73"/>
</g>
<!-- Node20&#45;&gt;Node9 -->
<g id="edge32" class="edge">
<title>Node20&#45;&gt;Node9</title>
<path fill="none" stroke="midnightblue" d="M340.28,-280.37C293.83,-261.01 181.15,-214.06 127.02,-191.51"/>
<polygon fill="midnightblue" stroke="midnightblue" points="128.2,-188.21 117.62,-187.59 125.5,-194.67 128.2,-188.21"/>
</g>
<!-- Node20&#45;&gt;Node13 -->
<g id="edge33" class="edge">
<title>Node20&#45;&gt;Node13</title>
<path fill="none" stroke="midnightblue" d="M375.94,-280.32C390.59,-271.82 413.13,-258.73 430.24,-248.8"/>
<polygon fill="midnightblue" stroke="midnightblue" points="432.2,-251.7 439.1,-243.65 428.69,-245.65 432.2,-251.7"/>
</g>
<!-- Node21&#45;&gt;Node1 -->
<g id="edge38" class="edge">
<title>Node21&#45;&gt;Node1</title>
<path fill="none" stroke="midnightblue" d="M830.53,-243.59C822.09,-257.57 796.59,-285.16 769,-300 726.48,-322.87 674.2,-336.72 630.58,-344.93"/>
<polygon fill="midnightblue" stroke="midnightblue" points="629.77,-341.52 620.56,-346.75 631.02,-348.41 629.77,-341.52"/>
</g>
<!-- Node21&#45;&gt;Node2 -->
<g id="edge37" class="edge">
<title>Node21&#45;&gt;Node2</title>
<path fill="none" stroke="midnightblue" d="M828.19,-224.23C818.11,-202.06 788.56,-143.3 746,-112 723.51,-95.46 694.64,-84.81 669.12,-78.05"/>
<polygon fill="midnightblue" stroke="midnightblue" points="669.71,-74.58 659.16,-75.55 668.01,-81.38 669.71,-74.58"/>
</g>
<!-- Node21&#45;&gt;Node12 -->
<g id="edge39" class="edge">
<title>Node21&#45;&gt;Node12</title>
<path fill="none" stroke="midnightblue" d="M815.93,-224.32C800.04,-215.74 775.49,-202.49 757.04,-192.52"/>
<polygon fill="midnightblue" stroke="midnightblue" points="758.49,-189.33 748.03,-187.65 755.16,-195.49 758.49,-189.33"/>
</g>
<!-- Node22 -->
<g id="node22" class="node">
<title>Node22</title>
<g id="a_node22"><a xlink:href="_shared_defs_8hpp.html" target="_top" xlink:title="Header file which contains the structures, type definitions, constants, global variablesand function ...">
<polygon fill="none" stroke="black" points="938,-168.5 938,-187.5 1086,-187.5 1086,-168.5 938,-168.5"/>
<text text-anchor="middle" x="1012" y="-175.5" font-family="Helvetica,sans-Serif" font-size="10.00">../SharedDefs/SharedDefs.hpp</text>
</a>
</g>
</g>
<!-- Node21&#45;&gt;Node22 -->
<g id="edge40" class="edge">
<title>Node21&#45;&gt;Node22</title>
<path fill="none" stroke="midnightblue" d="M860.52,-224.44C891.07,-215.28 939.71,-200.69 973.6,-190.52"/>
<polygon fill="midnightblue" stroke="midnightblue" points="975.04,-193.74 983.61,-187.52 973.03,-187.04 975.04,-193.74"/>
</g>
<!-- Node23 -->
<g id="node23" class="node">
<title>Node23</title>
<g id="a_node23"><a xlink:href="_u___signature_8hpp.html" target="_top" xlink:title="Header for U_Signature.cpp.">
<polygon fill="none" stroke="black" points="830.5,-168.5 830.5,-187.5 919.5,-187.5 919.5,-168.5 830.5,-168.5"/>
<text text-anchor="middle" x="875" y="-175.5" font-family="Helvetica,sans-Serif" font-size="10.00">U_Signature.hpp</text>
</a>
</g>
</g>
<!-- Node21&#45;&gt;Node23 -->
<g id="edge41" class="edge">
<title>Node21&#45;&gt;Node23</title>
<path fill="none" stroke="midnightblue" d="M839.1,-224.08C845.24,-216.38 854.27,-205.03 861.74,-195.65"/>
<polygon fill="midnightblue" stroke="midnightblue" points="864.54,-197.75 868.03,-187.75 859.06,-193.39 864.54,-197.75"/>
</g>
<!-- Node28 -->
<g id="node28" class="node">
<title>Node28</title>
<g id="a_node28"><a xlink:title=" ">
<polygon fill="none" stroke="#bfbfbf" points="1104,-168.5 1104,-187.5 1162,-187.5 1162,-168.5 1104,-168.5"/>
<text text-anchor="middle" x="1133" y="-175.5" font-family="Helvetica,sans-Serif" font-size="10.00">winternl.h</text>
</a>
</g>
</g>
<!-- Node21&#45;&gt;Node28 -->
<g id="edge47" class="edge">
<title>Node21&#45;&gt;Node28</title>
<path fill="none" stroke="midnightblue" d="M887.86,-224.49C939.04,-216.46 1017.12,-203.61 1094.12,-188.08"/>
<polygon fill="midnightblue" stroke="midnightblue" points="1094.89,-191.49 1104,-186.07 1093.5,-184.63 1094.89,-191.49"/>
</g>
<!-- Node23&#45;&gt;Node2 -->
<g id="edge42" class="edge">
<title>Node23&#45;&gt;Node2</title>
<path fill="none" stroke="midnightblue" d="M867.65,-168.35C855.2,-154.28 828.54,-126.58 800,-112 759.83,-91.49 710.17,-80.17 671.41,-74.02"/>
<polygon fill="midnightblue" stroke="midnightblue" points="671.71,-70.52 661.3,-72.49 670.66,-77.44 671.71,-70.52"/>
</g>
<!-- Node24 -->
<g id="node24" class="node">
<title>Node24</title>
<g id="a_node24"><a xlink:title=" ">
<polygon fill="none" stroke="#bfbfbf" points="852.5,-112.5 852.5,-131.5 913.5,-131.5 913.5,-112.5 852.5,-112.5"/>
<text text-anchor="middle" x="883" y="-119.5" font-family="Helvetica,sans-Serif" font-size="10.00">wincrypt.h</text>
</a>
</g>
</g>
<!-- Node23&#45;&gt;Node24 -->
<g id="edge43" class="edge">
<title>Node23&#45;&gt;Node24</title>
<path fill="none" stroke="midnightblue" d="M876.32,-168.08C877.38,-160.93 878.91,-150.64 880.23,-141.69"/>
<polygon fill="midnightblue" stroke="midnightblue" points="883.7,-142.16 881.7,-131.75 876.78,-141.13 883.7,-142.16"/>
</g>
<!-- Node25 -->
<g id="node25" class="node">
<title>Node25</title>
<g id="a_node25"><a xlink:title=" ">
<polygon fill="none" stroke="#bfbfbf" points="932,-112.5 932,-131.5 996,-131.5 996,-112.5 932,-112.5"/>
<text text-anchor="middle" x="964" y="-119.5" font-family="Helvetica,sans-Serif" font-size="10.00">WinTrust.h</text>
</a>
</g>
</g>
<!-- Node23&#45;&gt;Node25 -->
<g id="edge44" class="edge">
<title>Node23&#45;&gt;Node25</title>
<path fill="none" stroke="midnightblue" d="M889.3,-168.32C903.18,-159.9 924.49,-146.97 940.8,-137.07"/>
<polygon fill="midnightblue" stroke="midnightblue" points="943,-139.83 949.74,-131.65 939.37,-133.85 943,-139.83"/>
</g>
<!-- Node26 -->
<g id="node26" class="node">
<title>Node26</title>
<g id="a_node26"><a xlink:title=" ">
<polygon fill="none" stroke="#bfbfbf" points="1014.5,-112.5 1014.5,-131.5 1073.5,-131.5 1073.5,-112.5 1014.5,-112.5"/>
<text text-anchor="middle" x="1044" y="-119.5" font-family="Helvetica,sans-Serif" font-size="10.00">SoftPub.h</text>
</a>
</g>
</g>
<!-- Node23&#45;&gt;Node26 -->
<g id="edge45" class="edge">
<title>Node23&#45;&gt;Node26</title>
<path fill="none" stroke="midnightblue" d="M901.78,-168.44C930.33,-159.32 975.73,-144.81 1007.54,-134.65"/>
<polygon fill="midnightblue" stroke="midnightblue" points="1008.89,-137.89 1017.35,-131.52 1006.76,-131.23 1008.89,-137.89"/>
</g>
<!-- Node27 -->
<g id="node27" class="node">
<title>Node27</title>
<g id="a_node27"><a xlink:title=" ">
<polygon fill="none" stroke="#bfbfbf" points="1092,-112.5 1092,-131.5 1144,-131.5 1144,-112.5 1092,-112.5"/>
<text text-anchor="middle" x="1118" y="-119.5" font-family="Helvetica,sans-Serif" font-size="10.00">mscat.h</text>
</a>
</g>
</g>
<!-- Node23&#45;&gt;Node27 -->
<g id="edge46" class="edge">
<title>Node23&#45;&gt;Node27</title>
<path fill="none" stroke="midnightblue" d="M916.94,-168.42C956.89,-160.14 1018.95,-146.99 1081.6,-132.27"/>
<polygon fill="midnightblue" stroke="midnightblue" points="1082.73,-135.6 1091.65,-129.89 1081.12,-128.78 1082.73,-135.6"/>
</g>
</g>
</svg>
