<?xml version="1.0" encoding="UTF-8" standalone="no"?>
<!DOCTYPE svg PUBLIC "-//W3C//DTD SVG 1.1//EN"
 "http://www.w3.org/Graphics/SVG/1.1/DTD/svg11.dtd">
<!-- Generated by graphviz version 4.0.0 (20220529.0937)
 -->
<!-- Title: C:/Users/admin&#45;cyb/Desktop/pi&#45;defender/Sources/PI&#45;Defender_UM/U_Helper.hpp Pages: 1 -->
<svg width="553pt" height="506pt"
 viewBox="0.00 0.00 552.89 506.00" xmlns="http://www.w3.org/2000/svg" xmlns:xlink="http://www.w3.org/1999/xlink">
<g id="graph0" class="graph" transform="scale(1 1) rotate(0) translate(4 502)">
<title>C:/Users/admin&#45;cyb/Desktop/pi&#45;defender/Sources/PI&#45;Defender_UM/U_Helper.hpp</title>
<!-- Node1 -->
<g id="node1" class="node">
<title>Node1</title>
<g id="a_node1"><a xlink:title="Header for U_Helper.cpp.">
<polygon fill="#bfbfbf" stroke="black" points="177.67,-445.5 177.67,-497.5 286.67,-497.5 286.67,-445.5 177.67,-445.5"/>
<text text-anchor="start" x="185.67" y="-485.5" font-family="Helvetica,sans-Serif" font-size="10.00">C:/Users/admin&#45;cyb</text>
<text text-anchor="start" x="185.67" y="-474.5" font-family="Helvetica,sans-Serif" font-size="10.00">/Desktop/pi&#45;defender</text>
<text text-anchor="start" x="185.67" y="-463.5" font-family="Helvetica,sans-Serif" font-size="10.00">/Sources/PI&#45;Defender</text>
<text text-anchor="middle" x="232.17" y="-452.5" font-family="Helvetica,sans-Serif" font-size="10.00">_UM/U_Helper.hpp</text>
</a>
</g>
</g>
<!-- Node2 -->
<g id="node2" class="node">
<title>Node2</title>
<g id="a_node2"><a xlink:href="_u___configuration_8hpp.html" target="_top" xlink:title="Header for U_Configuration.cpp.">
<polygon fill="none" stroke="black" points="378.67,-267.5 378.67,-319.5 505.67,-319.5 505.67,-267.5 378.67,-267.5"/>
<text text-anchor="start" x="386.67" y="-307.5" font-family="Helvetica,sans-Serif" font-size="10.00">C:/Users/admin&#45;cyb</text>
<text text-anchor="start" x="386.67" y="-296.5" font-family="Helvetica,sans-Serif" font-size="10.00">/Desktop/pi&#45;defender</text>
<text text-anchor="start" x="386.67" y="-285.5" font-family="Helvetica,sans-Serif" font-size="10.00">/Sources/PI&#45;Defender</text>
<text text-anchor="middle" x="442.17" y="-274.5" font-family="Helvetica,sans-Serif" font-size="10.00">_UM/U_Configuration.hpp</text>
</a>
</g>
</g>
<!-- Node1&#45;&gt;Node2 -->
<g id="edge1" class="edge">
<title>Node1&#45;&gt;Node2</title>
<path fill="none" stroke="midnightblue" d="M296.97,-466.48C339.12,-460.31 391.89,-445.26 423.17,-409 444.36,-384.44 446.42,-345.48 445.02,-319.95"/>
<polygon fill="midnightblue" stroke="midnightblue" points="296.5,-463.01 287.05,-467.79 297.42,-469.95 296.5,-463.01"/>
</g>
<!-- Node4 -->
<g id="node4" class="node">
<title>Node4</title>
<g id="a_node4"><a xlink:href="_u___service_8hpp.html" target="_top" xlink:title="Header for U_Service.cpp.">
<polygon fill="none" stroke="black" points="168.67,-178.5 168.67,-230.5 277.67,-230.5 277.67,-178.5 168.67,-178.5"/>
<text text-anchor="start" x="176.67" y="-218.5" font-family="Helvetica,sans-Serif" font-size="10.00">C:/Users/admin&#45;cyb</text>
<text text-anchor="start" x="176.67" y="-207.5" font-family="Helvetica,sans-Serif" font-size="10.00">/Desktop/pi&#45;defender</text>
<text text-anchor="start" x="176.67" y="-196.5" font-family="Helvetica,sans-Serif" font-size="10.00">/Sources/PI&#45;Defender</text>
<text text-anchor="middle" x="223.17" y="-185.5" font-family="Helvetica,sans-Serif" font-size="10.00">_UM/U_Service.hpp</text>
</a>
</g>
</g>
<!-- Node1&#45;&gt;Node4 -->
<g id="edge20" class="edge">
<title>Node1&#45;&gt;Node4</title>
<path fill="none" stroke="midnightblue" d="M167.33,-469.25C120.58,-464.89 60.56,-450.88 29.17,-409 -8.68,-358.49 -9.84,-318.13 27.17,-267 58.73,-223.4 122.24,-210.17 168.54,-206.44"/>
<polygon fill="midnightblue" stroke="midnightblue" points="167.14,-472.75 177.39,-470.07 167.7,-465.77 167.14,-472.75"/>
</g>
<!-- Node8 -->
<g id="node8" class="node">
<title>Node8</title>
<g id="a_node8"><a xlink:href="_u___controller_8hpp.html" target="_top" xlink:title="Header for U_Controller.cpp.">
<polygon fill="none" stroke="black" points="47.17,-356.5 47.17,-408.5 159.17,-408.5 159.17,-356.5 47.17,-356.5"/>
<text text-anchor="start" x="55.17" y="-396.5" font-family="Helvetica,sans-Serif" font-size="10.00">C:/Users/admin&#45;cyb</text>
<text text-anchor="start" x="55.17" y="-385.5" font-family="Helvetica,sans-Serif" font-size="10.00">/Desktop/pi&#45;defender</text>
<text text-anchor="start" x="55.17" y="-374.5" font-family="Helvetica,sans-Serif" font-size="10.00">/Sources/PI&#45;Defender</text>
<text text-anchor="middle" x="103.17" y="-363.5" font-family="Helvetica,sans-Serif" font-size="10.00">_UM/U_Controller.hpp</text>
</a>
</g>
</g>
<!-- Node1&#45;&gt;Node8 -->
<g id="edge10" class="edge">
<title>Node1&#45;&gt;Node8</title>
<path fill="none" stroke="midnightblue" d="M186.21,-439.5C171.19,-429.37 154.7,-418.25 140.4,-408.61"/>
<polygon fill="midnightblue" stroke="midnightblue" points="184.61,-442.65 194.86,-445.34 188.53,-436.84 184.61,-442.65"/>
</g>
<!-- Node10 -->
<g id="node10" class="node">
<title>Node10</title>
<g id="a_node10"><a xlink:href="_u___helper_8cpp.html" target="_top" xlink:title="Help function used by several .cpp files.">
<polygon fill="none" stroke="black" points="304.67,-356.5 304.67,-408.5 413.67,-408.5 413.67,-356.5 304.67,-356.5"/>
<text text-anchor="start" x="312.67" y="-396.5" font-family="Helvetica,sans-Serif" font-size="10.00">C:/Users/admin&#45;cyb</text>
<text text-anchor="start" x="312.67" y="-385.5" font-family="Helvetica,sans-Serif" font-size="10.00">/Desktop/pi&#45;defender</text>
<text text-anchor="start" x="312.67" y="-374.5" font-family="Helvetica,sans-Serif" font-size="10.00">/Sources/PI&#45;Defender</text>
<text text-anchor="middle" x="359.17" y="-363.5" font-family="Helvetica,sans-Serif" font-size="10.00">_UM/U_Helper.cpp</text>
</a>
</g>
</g>
<!-- Node1&#45;&gt;Node10 -->
<g id="edge13" class="edge">
<title>Node1&#45;&gt;Node10</title>
<path fill="none" stroke="midnightblue" d="M277.42,-439.5C292.21,-429.37 308.44,-418.25 322.52,-408.61"/>
<polygon fill="midnightblue" stroke="midnightblue" points="275.18,-436.8 268.9,-445.34 279.13,-442.57 275.18,-436.8"/>
</g>
<!-- Node11 -->
<g id="node11" class="node">
<title>Node11</title>
<g id="a_node11"><a xlink:href="_u___logs_8hpp.html" target="_top" xlink:title="Header for U_Logs.cpp.">
<polygon fill="none" stroke="black" points="177.67,-356.5 177.67,-408.5 286.67,-408.5 286.67,-356.5 177.67,-356.5"/>
<text text-anchor="start" x="185.67" y="-396.5" font-family="Helvetica,sans-Serif" font-size="10.00">C:/Users/admin&#45;cyb</text>
<text text-anchor="start" x="185.67" y="-385.5" font-family="Helvetica,sans-Serif" font-size="10.00">/Desktop/pi&#45;defender</text>
<text text-anchor="start" x="185.67" y="-374.5" font-family="Helvetica,sans-Serif" font-size="10.00">/Sources/PI&#45;Defender</text>
<text text-anchor="middle" x="232.17" y="-363.5" font-family="Helvetica,sans-Serif" font-size="10.00">_UM/U_Logs.hpp</text>
</a>
</g>
</g>
<!-- Node1&#45;&gt;Node11 -->
<g id="edge14" class="edge">
<title>Node1&#45;&gt;Node11</title>
<path fill="none" stroke="midnightblue" d="M225.53,-435.19C225.29,-426.28 225.45,-416.9 225.99,-408.61"/>
<polygon fill="midnightblue" stroke="midnightblue" points="222.04,-435.5 225.99,-445.34 229.03,-435.19 222.04,-435.5"/>
</g>
<!-- Node3 -->
<g id="node3" class="node">
<title>Node3</title>
<g id="a_node3"><a xlink:href="_u___configuration_8cpp.html" target="_top" xlink:title="Set all the needed configuration for the driver and the user&#45;mode service.">
<polygon fill="none" stroke="black" points="378.67,-178.5 378.67,-230.5 505.67,-230.5 505.67,-178.5 378.67,-178.5"/>
<text text-anchor="start" x="386.67" y="-218.5" font-family="Helvetica,sans-Serif" font-size="10.00">C:/Users/admin&#45;cyb</text>
<text text-anchor="start" x="386.67" y="-207.5" font-family="Helvetica,sans-Serif" font-size="10.00">/Desktop/pi&#45;defender</text>
<text text-anchor="start" x="386.67" y="-196.5" font-family="Helvetica,sans-Serif" font-size="10.00">/Sources/PI&#45;Defender</text>
<text text-anchor="middle" x="442.17" y="-185.5" font-family="Helvetica,sans-Serif" font-size="10.00">_UM/U_Configuration.cpp</text>
</a>
</g>
</g>
<!-- Node2&#45;&gt;Node3 -->
<g id="edge2" class="edge">
<title>Node2&#45;&gt;Node3</title>
<path fill="none" stroke="midnightblue" d="M442.17,-257.19C442.17,-248.28 442.17,-238.9 442.17,-230.61"/>
<polygon fill="midnightblue" stroke="midnightblue" points="438.67,-257.34 442.17,-267.34 445.67,-257.34 438.67,-257.34"/>
</g>
<!-- Node2&#45;&gt;Node4 -->
<g id="edge3" class="edge">
<title>Node2&#45;&gt;Node4</title>
<path fill="none" stroke="midnightblue" d="M369.11,-265.97C339.37,-254.43 305.61,-240.99 278.03,-229.73"/>
<polygon fill="midnightblue" stroke="midnightblue" points="368.02,-269.3 378.61,-269.64 370.54,-262.77 368.02,-269.3"/>
</g>
<!-- Node4&#45;&gt;Node1 -->
<g id="edge8" class="edge">
<title>Node4&#45;&gt;Node1</title>
<path fill="none" stroke="midnightblue" d="M158.35,-209.42C118.82,-215.78 71.16,-231.09 45.17,-267 8.16,-318.13 9.32,-358.49 47.17,-409 77.47,-449.43 134.45,-463.88 177.29,-468.76"/>
<polygon fill="midnightblue" stroke="midnightblue" points="159.07,-212.85 168.47,-207.95 158.07,-205.92 159.07,-212.85"/>
</g>
<!-- Node4&#45;&gt;Node2 -->
<g id="edge7" class="edge">
<title>Node4&#45;&gt;Node2</title>
<path fill="none" stroke="midnightblue" d="M287.41,-228.62C318.43,-240.59 355.3,-255.22 385.3,-267.45"/>
<polygon fill="midnightblue" stroke="midnightblue" points="288.57,-225.31 277.98,-224.99 286.06,-231.85 288.57,-225.31"/>
</g>
<!-- Node5 -->
<g id="node5" class="node">
<title>Node5</title>
<g id="a_node5"><a xlink:href="_u___communication_8hpp.html" target="_top" xlink:title="Header for U_Communication.cpp.">
<polygon fill="none" stroke="black" points="225.17,-89.5 225.17,-141.5 363.17,-141.5 363.17,-89.5 225.17,-89.5"/>
<text text-anchor="start" x="233.17" y="-129.5" font-family="Helvetica,sans-Serif" font-size="10.00">C:/Users/admin&#45;cyb</text>
<text text-anchor="start" x="233.17" y="-118.5" font-family="Helvetica,sans-Serif" font-size="10.00">/Desktop/pi&#45;defender</text>
<text text-anchor="start" x="233.17" y="-107.5" font-family="Helvetica,sans-Serif" font-size="10.00">/Sources/PI&#45;Defender</text>
<text text-anchor="middle" x="294.17" y="-96.5" font-family="Helvetica,sans-Serif" font-size="10.00">_UM/U_Communication.hpp</text>
</a>
</g>
</g>
<!-- Node4&#45;&gt;Node5 -->
<g id="edge4" class="edge">
<title>Node4&#45;&gt;Node5</title>
<path fill="none" stroke="midnightblue" d="M243.75,-170.22C251.19,-160.72 259.63,-150.53 267.5,-141.61"/>
<polygon fill="midnightblue" stroke="midnightblue" points="240.83,-168.27 237.52,-178.34 246.39,-172.53 240.83,-168.27"/>
</g>
<!-- Node7 -->
<g id="node7" class="node">
<title>Node7</title>
<g id="a_node7"><a xlink:href="_u___service_8cpp.html" target="_top" xlink:title="Entrypoint of the process &amp; the service.">
<polygon fill="none" stroke="black" points="97.67,-89.5 97.67,-141.5 206.67,-141.5 206.67,-89.5 97.67,-89.5"/>
<text text-anchor="start" x="105.67" y="-129.5" font-family="Helvetica,sans-Serif" font-size="10.00">C:/Users/admin&#45;cyb</text>
<text text-anchor="start" x="105.67" y="-118.5" font-family="Helvetica,sans-Serif" font-size="10.00">/Desktop/pi&#45;defender</text>
<text text-anchor="start" x="105.67" y="-107.5" font-family="Helvetica,sans-Serif" font-size="10.00">/Sources/PI&#45;Defender</text>
<text text-anchor="middle" x="152.17" y="-96.5" font-family="Helvetica,sans-Serif" font-size="10.00">_UM/U_Service.cpp</text>
</a>
</g>
</g>
<!-- Node4&#45;&gt;Node7 -->
<g id="edge9" class="edge">
<title>Node4&#45;&gt;Node7</title>
<path fill="none" stroke="midnightblue" d="M196.24,-170.5C188.42,-160.92 180.02,-150.62 172.66,-141.61"/>
<polygon fill="midnightblue" stroke="midnightblue" points="193.6,-172.8 202.64,-178.34 199.02,-168.38 193.6,-172.8"/>
</g>
<!-- Node5&#45;&gt;Node4 -->
<g id="edge6" class="edge">
<title>Node5&#45;&gt;Node4</title>
<path fill="none" stroke="midnightblue" d="M273.64,-149.72C266.21,-159.22 257.76,-169.41 249.89,-178.34"/>
<polygon fill="midnightblue" stroke="midnightblue" points="276.55,-151.67 279.86,-141.61 271,-147.41 276.55,-151.67"/>
</g>
<!-- Node6 -->
<g id="node6" class="node">
<title>Node6</title>
<g id="a_node6"><a xlink:href="_u___communication_8cpp.html" target="_top" xlink:title="Manage the communication with the driver (Connect|Reply|ListenerThread|WorkerThread)">
<polygon fill="none" stroke="black" points="225.17,-0.5 225.17,-52.5 363.17,-52.5 363.17,-0.5 225.17,-0.5"/>
<text text-anchor="start" x="233.17" y="-40.5" font-family="Helvetica,sans-Serif" font-size="10.00">C:/Users/admin&#45;cyb</text>
<text text-anchor="start" x="233.17" y="-29.5" font-family="Helvetica,sans-Serif" font-size="10.00">/Desktop/pi&#45;defender</text>
<text text-anchor="start" x="233.17" y="-18.5" font-family="Helvetica,sans-Serif" font-size="10.00">/Sources/PI&#45;Defender</text>
<text text-anchor="middle" x="294.17" y="-7.5" font-family="Helvetica,sans-Serif" font-size="10.00">_UM/U_Communication.cpp</text>
</a>
</g>
</g>
<!-- Node5&#45;&gt;Node6 -->
<g id="edge5" class="edge">
<title>Node5&#45;&gt;Node6</title>
<path fill="none" stroke="midnightblue" d="M294.17,-79.19C294.17,-70.28 294.17,-60.9 294.17,-52.61"/>
<polygon fill="midnightblue" stroke="midnightblue" points="290.67,-79.34 294.17,-89.34 297.67,-79.34 290.67,-79.34"/>
</g>
<!-- Node8&#45;&gt;Node4 -->
<g id="edge12" class="edge">
<title>Node8&#45;&gt;Node4</title>
<path fill="none" stroke="midnightblue" d="M140.15,-349.46C149.31,-340.48 158.64,-330.33 166.17,-320 186.83,-291.64 203.7,-254.67 213.59,-230.53"/>
<polygon fill="midnightblue" stroke="midnightblue" points="137.71,-346.95 132.89,-356.39 142.54,-352.02 137.71,-346.95"/>
</g>
<!-- Node9 -->
<g id="node9" class="node">
<title>Node9</title>
<g id="a_node9"><a xlink:href="_u___controller_8cpp.html" target="_top" xlink:title="Controll the service/driver (Install|Start|Stop|Delete|Query)">
<polygon fill="none" stroke="black" points="45.17,-267.5 45.17,-319.5 157.17,-319.5 157.17,-267.5 45.17,-267.5"/>
<text text-anchor="start" x="53.17" y="-307.5" font-family="Helvetica,sans-Serif" font-size="10.00">C:/Users/admin&#45;cyb</text>
<text text-anchor="start" x="53.17" y="-296.5" font-family="Helvetica,sans-Serif" font-size="10.00">/Desktop/pi&#45;defender</text>
<text text-anchor="start" x="53.17" y="-285.5" font-family="Helvetica,sans-Serif" font-size="10.00">/Sources/PI&#45;Defender</text>
<text text-anchor="middle" x="101.17" y="-274.5" font-family="Helvetica,sans-Serif" font-size="10.00">_UM/U_Controller.cpp</text>
</a>
</g>
</g>
<!-- Node8&#45;&gt;Node9 -->
<g id="edge11" class="edge">
<title>Node8&#45;&gt;Node9</title>
<path fill="none" stroke="midnightblue" d="M102.36,-346.19C102.15,-337.28 101.94,-327.9 101.75,-319.61"/>
<polygon fill="midnightblue" stroke="midnightblue" points="98.86,-346.42 102.59,-356.34 105.86,-346.26 98.86,-346.42"/>
</g>
<!-- Node11&#45;&gt;Node1 -->
<g id="edge17" class="edge">
<title>Node11&#45;&gt;Node1</title>
<path fill="none" stroke="midnightblue" d="M238.81,-418.75C239.05,-427.65 238.9,-437.04 238.36,-445.34"/>
<polygon fill="midnightblue" stroke="midnightblue" points="242.3,-418.44 238.35,-408.61 235.31,-418.76 242.3,-418.44"/>
</g>
<!-- Node11&#45;&gt;Node2 -->
<g id="edge16" class="edge">
<title>Node11&#45;&gt;Node2</title>
<path fill="none" stroke="midnightblue" d="M296.2,-354.97C323.33,-343.74 354.78,-330.7 381.53,-319.62"/>
<polygon fill="midnightblue" stroke="midnightblue" points="294.7,-351.81 286.8,-358.87 297.38,-358.27 294.7,-351.81"/>
</g>
<!-- Node11&#45;&gt;Node4 -->
<g id="edge19" class="edge">
<title>Node11&#45;&gt;Node4</title>
<path fill="none" stroke="midnightblue" d="M230.37,-346.25C228.62,-312.04 226.01,-260.97 224.46,-230.67"/>
<polygon fill="midnightblue" stroke="midnightblue" points="226.88,-346.48 230.88,-356.28 233.87,-346.12 226.88,-346.48"/>
</g>
<!-- Node11&#45;&gt;Node5 -->
<g id="edge15" class="edge">
<title>Node11&#45;&gt;Node5</title>
<path fill="none" stroke="midnightblue" d="M296.77,-356.49C358.63,-344.26 485,-355.54 515.17,-320 556.02,-271.89 553.35,-228.25 515.17,-178 496.68,-153.66 420.91,-136.4 363.19,-126.48"/>
<polygon fill="midnightblue" stroke="midnightblue" points="295.65,-353.16 286.72,-358.87 297.25,-359.98 295.65,-353.16"/>
</g>
<!-- Node12 -->
<g id="node12" class="node">
<title>Node12</title>
<g id="a_node12"><a xlink:href="_u___logs_8cpp.html" target="_top" xlink:title="Report Event to ETW.">
<polygon fill="none" stroke="black" points="251.67,-267.5 251.67,-319.5 360.67,-319.5 360.67,-267.5 251.67,-267.5"/>
<text text-anchor="start" x="259.67" y="-307.5" font-family="Helvetica,sans-Serif" font-size="10.00">C:/Users/admin&#45;cyb</text>
<text text-anchor="start" x="259.67" y="-296.5" font-family="Helvetica,sans-Serif" font-size="10.00">/Desktop/pi&#45;defender</text>
<text text-anchor="start" x="259.67" y="-285.5" font-family="Helvetica,sans-Serif" font-size="10.00">/Sources/PI&#45;Defender</text>
<text text-anchor="middle" x="306.17" y="-274.5" font-family="Helvetica,sans-Serif" font-size="10.00">_UM/U_Logs.cpp</text>
</a>
</g>
</g>
<!-- Node11&#45;&gt;Node12 -->
<g id="edge18" class="edge">
<title>Node11&#45;&gt;Node12</title>
<path fill="none" stroke="midnightblue" d="M260.24,-348.5C268.39,-338.92 277.15,-328.62 284.82,-319.61"/>
<polygon fill="midnightblue" stroke="midnightblue" points="257.39,-346.45 253.58,-356.34 262.72,-350.99 257.39,-346.45"/>
</g>
</g>
</svg>
