<?xml version="1.0" encoding="UTF-8" standalone="no"?>
<!DOCTYPE svg PUBLIC "-//W3C//DTD SVG 1.1//EN"
 "http://www.w3.org/Graphics/SVG/1.1/DTD/svg11.dtd">
<!-- Generated by graphviz version 5.0.0 (20220707.1540)
 -->
<!-- Title: C:/Users/Gshoo/Desktop/pi&#45;defender&#45;tmp/Sources/PI&#45;Defender_UM/U_Configuration.hpp Pages: 1 -->
<svg width="737pt" height="440pt"
 viewBox="0.00 0.00 737.00 440.00" xmlns="http://www.w3.org/2000/svg" xmlns:xlink="http://www.w3.org/1999/xlink">
<g id="graph0" class="graph" transform="scale(1 1) rotate(0) translate(4 436)">
<title>C:/Users/Gshoo/Desktop/pi&#45;defender&#45;tmp/Sources/PI&#45;Defender_UM/U_Configuration.hpp</title>
<!-- Node1 -->
<g id="node1" class="node">
<title>Node1</title>
<g id="a_node1"><a xlink:title="Header for U_Configuration.cpp.">
<polygon fill="#bfbfbf" stroke="black" points="275.5,-390.5 275.5,-431.5 455.5,-431.5 455.5,-390.5 275.5,-390.5"/>
<text text-anchor="start" x="283.5" y="-419.5" font-family="Helvetica,sans-Serif" font-size="10.00">C:/Users/Gshoo/Desktop</text>
<text text-anchor="start" x="283.5" y="-408.5" font-family="Helvetica,sans-Serif" font-size="10.00">/pi&#45;defender&#45;tmp/Sources</text>
<text text-anchor="middle" x="365.5" y="-397.5" font-family="Helvetica,sans-Serif" font-size="10.00">/PI&#45;Defender_UM/U_Configuration.hpp</text>
</a>
</g>
</g>
<!-- Node2 -->
<g id="node2" class="node">
<title>Node2</title>
<g id="a_node2"><a xlink:href="_u___configuration_8cpp.html" target="_top" xlink:title="Set all the needed configuration for the driver and the user&#45;mode service.">
<polygon fill="none" stroke="black" points="89.5,-312.5 89.5,-353.5 269.5,-353.5 269.5,-312.5 89.5,-312.5"/>
<text text-anchor="start" x="97.5" y="-341.5" font-family="Helvetica,sans-Serif" font-size="10.00">C:/Users/Gshoo/Desktop</text>
<text text-anchor="start" x="97.5" y="-330.5" font-family="Helvetica,sans-Serif" font-size="10.00">/pi&#45;defender&#45;tmp/Sources</text>
<text text-anchor="middle" x="179.5" y="-319.5" font-family="Helvetica,sans-Serif" font-size="10.00">/PI&#45;Defender_UM/U_Configuration.cpp</text>
</a>
</g>
</g>
<!-- Node1&#45;&gt;Node2 -->
<g id="edge1" class="edge">
<title>Node1&#45;&gt;Node2</title>
<path fill="none" stroke="midnightblue" d="M308.25,-386.61C282.29,-376 251.95,-363.6 227.24,-353.51"/>
<polygon fill="midnightblue" stroke="midnightblue" points="307.02,-389.89 317.6,-390.43 309.67,-383.41 307.02,-389.89"/>
</g>
<!-- Node3 -->
<g id="node3" class="node">
<title>Node3</title>
<g id="a_node3"><a xlink:href="_u___service_8hpp.html" target="_top" xlink:title="Header for U_Service.cpp.">
<polygon fill="none" stroke="black" points="288,-312.5 288,-353.5 443,-353.5 443,-312.5 288,-312.5"/>
<text text-anchor="start" x="296" y="-341.5" font-family="Helvetica,sans-Serif" font-size="10.00">C:/Users/Gshoo/Desktop</text>
<text text-anchor="start" x="296" y="-330.5" font-family="Helvetica,sans-Serif" font-size="10.00">/pi&#45;defender&#45;tmp/Sources</text>
<text text-anchor="middle" x="365.5" y="-319.5" font-family="Helvetica,sans-Serif" font-size="10.00">/PI&#45;Defender_UM/U_Service.hpp</text>
</a>
</g>
</g>
<!-- Node1&#45;&gt;Node3 -->
<g id="edge2" class="edge">
<title>Node1&#45;&gt;Node3</title>
<path fill="none" stroke="midnightblue" d="M358.9,-380.3C358.58,-371.3 358.78,-361.65 359.52,-353.51"/>
<polygon fill="midnightblue" stroke="midnightblue" points="355.41,-380.66 359.51,-390.43 362.4,-380.23 355.41,-380.66"/>
</g>
<!-- Node3&#45;&gt;Node1 -->
<g id="edge6" class="edge">
<title>Node3&#45;&gt;Node1</title>
<path fill="none" stroke="midnightblue" d="M372.1,-363.63C372.42,-372.62 372.22,-382.27 371.49,-390.43"/>
<polygon fill="midnightblue" stroke="midnightblue" points="375.59,-363.27 371.48,-353.51 368.6,-363.7 375.59,-363.27"/>
</g>
<!-- Node4 -->
<g id="node4" class="node">
<title>Node4</title>
<g id="a_node4"><a xlink:href="_u___communication_8hpp.html" target="_top" xlink:title="Header for U_Communication.cpp.">
<polygon fill="none" stroke="black" points="97,-78.5 97,-119.5 288,-119.5 288,-78.5 97,-78.5"/>
<text text-anchor="start" x="105" y="-107.5" font-family="Helvetica,sans-Serif" font-size="10.00">C:/Users/Gshoo/Desktop</text>
<text text-anchor="start" x="105" y="-96.5" font-family="Helvetica,sans-Serif" font-size="10.00">/pi&#45;defender&#45;tmp/Sources</text>
<text text-anchor="middle" x="192.5" y="-85.5" font-family="Helvetica,sans-Serif" font-size="10.00">/PI&#45;Defender_UM/U_Communication.hpp</text>
</a>
</g>
</g>
<!-- Node3&#45;&gt;Node4 -->
<g id="edge3" class="edge">
<title>Node3&#45;&gt;Node4</title>
<path fill="none" stroke="midnightblue" d="M320.89,-306.52C285.99,-282.29 239.15,-242.95 211.5,-198 196.39,-173.43 189.17,-140.42 188.24,-119.68"/>
<polygon fill="midnightblue" stroke="midnightblue" points="319.24,-309.64 329.48,-312.35 323.17,-303.84 319.24,-309.64"/>
</g>
<!-- Node6 -->
<g id="node6" class="node">
<title>Node6</title>
<g id="a_node6"><a xlink:href="_u___helper_8hpp.html" target="_top" xlink:title="Header for U_Helper.cpp.">
<polygon fill="none" stroke="black" points="395.5,-234.5 395.5,-275.5 547.5,-275.5 547.5,-234.5 395.5,-234.5"/>
<text text-anchor="start" x="403.5" y="-263.5" font-family="Helvetica,sans-Serif" font-size="10.00">C:/Users/Gshoo/Desktop</text>
<text text-anchor="start" x="403.5" y="-252.5" font-family="Helvetica,sans-Serif" font-size="10.00">/pi&#45;defender&#45;tmp/Sources</text>
<text text-anchor="middle" x="471.5" y="-241.5" font-family="Helvetica,sans-Serif" font-size="10.00">/PI&#45;Defender_UM/U_Helper.hpp</text>
</a>
</g>
</g>
<!-- Node3&#45;&gt;Node6 -->
<g id="edge7" class="edge">
<title>Node3&#45;&gt;Node6</title>
<path fill="none" stroke="midnightblue" d="M394.85,-306.35C408.36,-296.27 424.37,-284.89 438.31,-275.51"/>
<polygon fill="midnightblue" stroke="midnightblue" points="392.68,-303.61 386.81,-312.43 396.9,-309.19 392.68,-303.61"/>
</g>
<!-- Node12 -->
<g id="node12" class="node">
<title>Node12</title>
<g id="a_node12"><a xlink:href="_u___service_8cpp.html" target="_top" xlink:title="Entrypoint of the process &amp; the service.">
<polygon fill="none" stroke="black" points="0,-234.5 0,-275.5 155,-275.5 155,-234.5 0,-234.5"/>
<text text-anchor="start" x="8" y="-263.5" font-family="Helvetica,sans-Serif" font-size="10.00">C:/Users/Gshoo/Desktop</text>
<text text-anchor="start" x="8" y="-252.5" font-family="Helvetica,sans-Serif" font-size="10.00">/pi&#45;defender&#45;tmp/Sources</text>
<text text-anchor="middle" x="77.5" y="-241.5" font-family="Helvetica,sans-Serif" font-size="10.00">/PI&#45;Defender_UM/U_Service.cpp</text>
</a>
</g>
</g>
<!-- Node3&#45;&gt;Node12 -->
<g id="edge20" class="edge">
<title>Node3&#45;&gt;Node12</title>
<path fill="none" stroke="midnightblue" d="M281.59,-309.86C240.38,-298.98 191.18,-286 151.42,-275.51"/>
<polygon fill="midnightblue" stroke="midnightblue" points="280.77,-313.26 291.33,-312.43 282.56,-306.49 280.77,-313.26"/>
</g>
<!-- Node4&#45;&gt;Node3 -->
<g id="edge5" class="edge">
<title>Node4&#45;&gt;Node3</title>
<path fill="none" stroke="midnightblue" d="M204.13,-129.38C209.42,-149.79 216.57,-176.99 229.5,-198 259.5,-246.75 312.06,-288.92 342.49,-312.35"/>
<polygon fill="midnightblue" stroke="midnightblue" points="207.51,-128.47 201.59,-119.68 200.74,-130.24 207.51,-128.47"/>
</g>
<!-- Node5 -->
<g id="node5" class="node">
<title>Node5</title>
<g id="a_node5"><a xlink:href="_u___communication_8cpp.html" target="_top" xlink:title="Manage the communication with the driver (Connect|Reply|ListenerThread|WorkerThread)">
<polygon fill="none" stroke="black" points="97,-0.5 97,-41.5 288,-41.5 288,-0.5 97,-0.5"/>
<text text-anchor="start" x="105" y="-29.5" font-family="Helvetica,sans-Serif" font-size="10.00">C:/Users/Gshoo/Desktop</text>
<text text-anchor="start" x="105" y="-18.5" font-family="Helvetica,sans-Serif" font-size="10.00">/pi&#45;defender&#45;tmp/Sources</text>
<text text-anchor="middle" x="192.5" y="-7.5" font-family="Helvetica,sans-Serif" font-size="10.00">/PI&#45;Defender_UM/U_Communication.cpp</text>
</a>
</g>
</g>
<!-- Node4&#45;&gt;Node5 -->
<g id="edge4" class="edge">
<title>Node4&#45;&gt;Node5</title>
<path fill="none" stroke="midnightblue" d="M192.5,-68.3C192.5,-59.3 192.5,-49.65 192.5,-41.51"/>
<polygon fill="midnightblue" stroke="midnightblue" points="189,-68.43 192.5,-78.43 196,-68.43 189,-68.43"/>
</g>
<!-- Node6&#45;&gt;Node1 -->
<g id="edge8" class="edge">
<title>Node6&#45;&gt;Node1</title>
<path fill="none" stroke="midnightblue" d="M471.7,-285.91C470.49,-306.62 466.07,-333.96 452.5,-354 442.13,-369.32 426.02,-381.38 410.47,-390.32"/>
<polygon fill="midnightblue" stroke="midnightblue" points="475.21,-285.88 472.08,-275.75 468.21,-285.62 475.21,-285.88"/>
</g>
<!-- Node6&#45;&gt;Node3 -->
<g id="edge19" class="edge">
<title>Node6&#45;&gt;Node3</title>
<path fill="none" stroke="midnightblue" d="M442.24,-281.58C428.75,-291.65 412.73,-303.03 398.79,-312.43"/>
<polygon fill="midnightblue" stroke="midnightblue" points="444.41,-284.33 450.28,-275.51 440.19,-278.74 444.41,-284.33"/>
</g>
<!-- Node7 -->
<g id="node7" class="node">
<title>Node7</title>
<g id="a_node7"><a xlink:href="_u___controller_8hpp.html" target="_top" xlink:title="Header for U_Controller.cpp.">
<polygon fill="none" stroke="black" points="230,-156.5 230,-197.5 395,-197.5 395,-156.5 230,-156.5"/>
<text text-anchor="start" x="238" y="-185.5" font-family="Helvetica,sans-Serif" font-size="10.00">C:/Users/Gshoo/Desktop</text>
<text text-anchor="start" x="238" y="-174.5" font-family="Helvetica,sans-Serif" font-size="10.00">/pi&#45;defender&#45;tmp/Sources</text>
<text text-anchor="middle" x="312.5" y="-163.5" font-family="Helvetica,sans-Serif" font-size="10.00">/PI&#45;Defender_UM/U_Controller.hpp</text>
</a>
</g>
</g>
<!-- Node6&#45;&gt;Node7 -->
<g id="edge9" class="edge">
<title>Node6&#45;&gt;Node7</title>
<path fill="none" stroke="midnightblue" d="M421.39,-230.05C399.46,-219.57 374.06,-207.42 353.31,-197.51"/>
<polygon fill="midnightblue" stroke="midnightblue" points="420.02,-233.27 430.55,-234.43 423.04,-226.96 420.02,-233.27"/>
</g>
<!-- Node9 -->
<g id="node9" class="node">
<title>Node9</title>
<g id="a_node9"><a xlink:href="_u___helper_8cpp.html" target="_top" xlink:title="Help function used by several .cpp files.">
<polygon fill="none" stroke="black" points="413.5,-156.5 413.5,-197.5 565.5,-197.5 565.5,-156.5 413.5,-156.5"/>
<text text-anchor="start" x="421.5" y="-185.5" font-family="Helvetica,sans-Serif" font-size="10.00">C:/Users/Gshoo/Desktop</text>
<text text-anchor="start" x="421.5" y="-174.5" font-family="Helvetica,sans-Serif" font-size="10.00">/pi&#45;defender&#45;tmp/Sources</text>
<text text-anchor="middle" x="489.5" y="-163.5" font-family="Helvetica,sans-Serif" font-size="10.00">/PI&#45;Defender_UM/U_Helper.cpp</text>
</a>
</g>
</g>
<!-- Node6&#45;&gt;Node9 -->
<g id="edge12" class="edge">
<title>Node6&#45;&gt;Node9</title>
<path fill="none" stroke="midnightblue" d="M478.47,-224.59C480.62,-215.51 482.93,-205.74 484.88,-197.51"/>
<polygon fill="midnightblue" stroke="midnightblue" points="475.03,-223.89 476.14,-234.43 481.85,-225.5 475.03,-223.89"/>
</g>
<!-- Node10 -->
<g id="node10" class="node">
<title>Node10</title>
<g id="a_node10"><a xlink:href="_u___logs_8hpp.html" target="_top" xlink:title="Header for U_Logs.cpp.">
<polygon fill="none" stroke="black" points="584,-156.5 584,-197.5 729,-197.5 729,-156.5 584,-156.5"/>
<text text-anchor="start" x="592" y="-185.5" font-family="Helvetica,sans-Serif" font-size="10.00">C:/Users/Gshoo/Desktop</text>
<text text-anchor="start" x="592" y="-174.5" font-family="Helvetica,sans-Serif" font-size="10.00">/pi&#45;defender&#45;tmp/Sources</text>
<text text-anchor="middle" x="656.5" y="-163.5" font-family="Helvetica,sans-Serif" font-size="10.00">/PI&#45;Defender_UM/U_Logs.hpp</text>
</a>
</g>
</g>
<!-- Node6&#45;&gt;Node10 -->
<g id="edge13" class="edge">
<title>Node6&#45;&gt;Node10</title>
<path fill="none" stroke="midnightblue" d="M522.48,-230.47C547.53,-219.89 577.66,-207.56 603.04,-197.51"/>
<polygon fill="midnightblue" stroke="midnightblue" points="520.99,-227.3 513.15,-234.43 523.73,-233.74 520.99,-227.3"/>
</g>
<!-- Node7&#45;&gt;Node3 -->
<g id="edge11" class="edge">
<title>Node7&#45;&gt;Node3</title>
<path fill="none" stroke="midnightblue" d="M322.69,-207.61C333.32,-238.5 349.68,-286.03 358.79,-312.5"/>
<polygon fill="midnightblue" stroke="midnightblue" points="325.89,-206.15 319.33,-197.83 319.27,-208.43 325.89,-206.15"/>
</g>
<!-- Node8 -->
<g id="node8" class="node">
<title>Node8</title>
<g id="a_node8"><a xlink:href="_u___controller_8cpp.html" target="_top" xlink:title="Controll the service/driver (Install|Start|Stop|Delete|Query)">
<polygon fill="none" stroke="black" points="306,-78.5 306,-119.5 471,-119.5 471,-78.5 306,-78.5"/>
<text text-anchor="start" x="314" y="-107.5" font-family="Helvetica,sans-Serif" font-size="10.00">C:/Users/Gshoo/Desktop</text>
<text text-anchor="start" x="314" y="-96.5" font-family="Helvetica,sans-Serif" font-size="10.00">/pi&#45;defender&#45;tmp/Sources</text>
<text text-anchor="middle" x="388.5" y="-85.5" font-family="Helvetica,sans-Serif" font-size="10.00">/PI&#45;Defender_UM/U_Controller.cpp</text>
</a>
</g>
</g>
<!-- Node7&#45;&gt;Node8 -->
<g id="edge10" class="edge">
<title>Node7&#45;&gt;Node8</title>
<path fill="none" stroke="midnightblue" d="M339.3,-149.2C349.08,-139.42 359.96,-128.54 368.99,-119.51"/>
<polygon fill="midnightblue" stroke="midnightblue" points="336.67,-146.88 332.07,-156.43 341.62,-151.83 336.67,-146.88"/>
</g>
<!-- Node10&#45;&gt;Node1 -->
<g id="edge15" class="edge">
<title>Node10&#45;&gt;Node1</title>
<path fill="none" stroke="midnightblue" d="M642.93,-206.85C632.13,-227.73 615.53,-255.72 595.5,-276 543.05,-329.09 465.24,-368.53 414.94,-390.41"/>
<polygon fill="midnightblue" stroke="midnightblue" points="646.11,-208.32 647.48,-197.81 639.86,-205.18 646.11,-208.32"/>
</g>
<!-- Node10&#45;&gt;Node3 -->
<g id="edge18" class="edge">
<title>Node10&#45;&gt;Node3</title>
<path fill="none" stroke="midnightblue" d="M634.97,-205.57C616.39,-227.6 587.69,-257.71 556.5,-276 521.92,-296.27 479.46,-309.67 443.36,-318.26"/>
<polygon fill="midnightblue" stroke="midnightblue" points="637.67,-207.79 641.34,-197.85 632.28,-203.33 637.67,-207.79"/>
</g>
<!-- Node10&#45;&gt;Node4 -->
<g id="edge14" class="edge">
<title>Node10&#45;&gt;Node4</title>
<path fill="none" stroke="midnightblue" d="M573.87,-155.99C450.31,-133.52 416.38,-139.27 296.5,-120 293.78,-119.56 291.02,-119.11 288.23,-118.64"/>
<polygon fill="midnightblue" stroke="midnightblue" points="573.24,-159.43 583.71,-157.81 574.51,-152.55 573.24,-159.43"/>
</g>
<!-- Node10&#45;&gt;Node6 -->
<g id="edge16" class="edge">
<title>Node10&#45;&gt;Node6</title>
<path fill="none" stroke="midnightblue" d="M605.68,-201.46C580.65,-212.03 550.52,-224.37 525.13,-234.43"/>
<polygon fill="midnightblue" stroke="midnightblue" points="607.16,-204.63 615,-197.51 604.43,-198.19 607.16,-204.63"/>
</g>
<!-- Node11 -->
<g id="node11" class="node">
<title>Node11</title>
<g id="a_node11"><a xlink:href="_u___logs_8cpp.html" target="_top" xlink:title="Report Event to ETW.">
<polygon fill="none" stroke="black" points="584,-78.5 584,-119.5 729,-119.5 729,-78.5 584,-78.5"/>
<text text-anchor="start" x="592" y="-107.5" font-family="Helvetica,sans-Serif" font-size="10.00">C:/Users/Gshoo/Desktop</text>
<text text-anchor="start" x="592" y="-96.5" font-family="Helvetica,sans-Serif" font-size="10.00">/pi&#45;defender&#45;tmp/Sources</text>
<text text-anchor="middle" x="656.5" y="-85.5" font-family="Helvetica,sans-Serif" font-size="10.00">/PI&#45;Defender_UM/U_Logs.cpp</text>
</a>
</g>
</g>
<!-- Node10&#45;&gt;Node11 -->
<g id="edge17" class="edge">
<title>Node10&#45;&gt;Node11</title>
<path fill="none" stroke="midnightblue" d="M656.5,-146.3C656.5,-137.3 656.5,-127.65 656.5,-119.51"/>
<polygon fill="midnightblue" stroke="midnightblue" points="653,-146.43 656.5,-156.43 660,-146.43 653,-146.43"/>
</g>
</g>
</svg>
