<?xml version="1.0" encoding="UTF-8" standalone="no"?>
<!DOCTYPE svg PUBLIC "-//W3C//DTD SVG 1.1//EN"
 "http://www.w3.org/Graphics/SVG/1.1/DTD/svg11.dtd">
<!-- Generated by graphviz version 4.0.0 (20220529.0937)
 -->
<!-- Title: C:/Users/admin&#45;cyb/Desktop/PI&#45;Defender/Sources/PI&#45;Defender_UM/U_Logs.hpp Pages: 1 -->
<!--zoomable 506 -->
<svg id="main" version="1.1" xmlns="http://www.w3.org/2000/svg" xmlns:xlink="http://www.w3.org/1999/xlink" xml:space="preserve" onload="init(evt)">
<style type="text/css"><![CDATA[
.edge:hover path { stroke: red; }
.edge:hover polygon { stroke: red; fill: red; }
]]></style>
<script type="text/javascript"><![CDATA[
var edges = document.getElementsByTagName('g');
if (edges && edges.length) {
  for (var i=0;i<edges.length;i++) {
    if (edges[i].id.substr(0,4)=='edge') {
      edges[i].setAttribute('class','edge');
    }
  }
}
]]></script>
        <defs>
                <circle id="rim" cx="0" cy="0" r="7"/>
                <circle id="rim2" cx="0" cy="0" r="3.5"/>
                <g id="zoomPlus">
                        <use xlink:href="#rim" fill="#404040">
                                <set attributeName="fill" to="#808080" begin="zoomplus.mouseover" end="zoomplus.mouseout"/>
                        </use>
                        <path d="M-4,0h8M0,-4v8" fill="none" stroke="white" stroke-width="1.5" pointer-events="none"/>
                </g>
                <g id="zoomMin">
                        <use xlink:href="#rim" fill="#404040">
                                <set attributeName="fill" to="#808080" begin="zoomminus.mouseover" end="zoomminus.mouseout"/>
                        </use>
                        <path d="M-4,0h8" fill="none" stroke="white" stroke-width="1.5" pointer-events="none"/>
                </g>
                <g id="dirArrow">
                        <path fill="none" stroke="white" stroke-width="1.5" d="M0,-3.0v7 M-2.5,-0.5L0,-3.0L2.5,-0.5"/>
                </g>
               <g id="resetDef">
                       <use xlink:href="#rim2" fill="#404040">
                               <set attributeName="fill" to="#808080" begin="reset.mouseover" end="reset.mouseout"/>
                       </use>
               </g>
        </defs>

<script type="text/javascript">
var viewWidth = 493;
var viewHeight = 506;
var sectionId = 'dynsection-1';
</script>
<script xlink:href="svgpan.js"/>
<svg id="graph" class="graph">
<g id="viewport">
<title>C:/Users/admin&#45;cyb/Desktop/PI&#45;Defender/Sources/PI&#45;Defender_UM/U_Logs.hpp</title>
<!-- Node1 -->
<g id="node1" class="node">
<title>Node1</title>
<g id="a_node1"><a xlink:title="Header for U_Logs.cpp.">
<polygon fill="#bfbfbf" stroke="black" points="259.66,-445.5 259.66,-497.5 368.66,-497.5 368.66,-445.5 259.66,-445.5"/>
<text text-anchor="start" x="267.66" y="-485.5" font-family="Helvetica,sans-Serif" font-size="10.00">C:/Users/admin&#45;cyb</text>
<text text-anchor="start" x="267.66" y="-474.5" font-family="Helvetica,sans-Serif" font-size="10.00">/Desktop/PI&#45;Defender</text>
<text text-anchor="start" x="267.66" y="-463.5" font-family="Helvetica,sans-Serif" font-size="10.00">/Sources/PI&#45;Defender</text>
<text text-anchor="middle" x="314.16" y="-452.5" font-family="Helvetica,sans-Serif" font-size="10.00">_UM/U_Logs.hpp</text>
</a>
</g>
</g>
<!-- Node2 -->
<g id="node2" class="node">
<title>Node2</title>
<g id="a_node2"><a xlink:href="_u___communication_8hpp.html" target="_top" xlink:title="Header for U_Communication.cpp.">
<polygon fill="none" stroke="black" points="125.16,-356.5 125.16,-408.5 263.16,-408.5 263.16,-356.5 125.16,-356.5"/>
<text text-anchor="start" x="133.16" y="-396.5" font-family="Helvetica,sans-Serif" font-size="10.00">C:/Users/admin&#45;cyb</text>
<text text-anchor="start" x="133.16" y="-385.5" font-family="Helvetica,sans-Serif" font-size="10.00">/Desktop/PI&#45;Defender</text>
<text text-anchor="start" x="133.16" y="-374.5" font-family="Helvetica,sans-Serif" font-size="10.00">/Sources/PI&#45;Defender</text>
<text text-anchor="middle" x="194.16" y="-363.5" font-family="Helvetica,sans-Serif" font-size="10.00">_UM/U_Communication.hpp</text>
</a>
</g>
</g>
<!-- Node1&#45;&gt;Node2 -->
<g id="edge1" class="edge">
<title>Node1&#45;&gt;Node2</title>
<path fill="none" stroke="midnightblue" d="M271.01,-439.22C257.14,-429.16 241.96,-418.16 228.79,-408.61"/>
<polygon fill="midnightblue" stroke="midnightblue" points="269.3,-442.3 279.45,-445.34 273.4,-436.63 269.3,-442.3"/>
</g>
<!-- Node4 -->
<g id="node4" class="node">
<title>Node4</title>
<g id="a_node4"><a xlink:href="_u___service_8hpp.html" target="_top" xlink:title="Header for U_Service.cpp.">
<polygon fill="none" stroke="black" points="174.66,-267.5 174.66,-319.5 283.66,-319.5 283.66,-267.5 174.66,-267.5"/>
<text text-anchor="start" x="182.66" y="-307.5" font-family="Helvetica,sans-Serif" font-size="10.00">C:/Users/admin&#45;cyb</text>
<text text-anchor="start" x="182.66" y="-296.5" font-family="Helvetica,sans-Serif" font-size="10.00">/Desktop/PI&#45;Defender</text>
<text text-anchor="start" x="182.66" y="-285.5" font-family="Helvetica,sans-Serif" font-size="10.00">/Sources/PI&#45;Defender</text>
<text text-anchor="middle" x="229.16" y="-274.5" font-family="Helvetica,sans-Serif" font-size="10.00">_UM/U_Service.hpp</text>
</a>
</g>
</g>
<!-- Node1&#45;&gt;Node4 -->
<g id="edge19" class="edge">
<title>Node1&#45;&gt;Node4</title>
<path fill="none" stroke="midnightblue" d="M303.88,-435.38C296.48,-412.2 285.46,-381.51 272.16,-356 265.59,-343.41 256.82,-330.39 248.91,-319.59"/>
<polygon fill="midnightblue" stroke="midnightblue" points="300.61,-436.64 306.93,-445.14 307.29,-434.55 300.61,-436.64"/>
</g>
<!-- Node5 -->
<g id="node5" class="node">
<title>Node5</title>
<g id="a_node5"><a xlink:href="_u___configuration_8hpp.html" target="_top" xlink:title="Header for U_Configuration.cpp.">
<polygon fill="none" stroke="black" points="17.66,-89.5 17.66,-141.5 144.66,-141.5 144.66,-89.5 17.66,-89.5"/>
<text text-anchor="start" x="25.66" y="-129.5" font-family="Helvetica,sans-Serif" font-size="10.00">C:/Users/admin&#45;cyb</text>
<text text-anchor="start" x="25.66" y="-118.5" font-family="Helvetica,sans-Serif" font-size="10.00">/Desktop/PI&#45;Defender</text>
<text text-anchor="start" x="25.66" y="-107.5" font-family="Helvetica,sans-Serif" font-size="10.00">/Sources/PI&#45;Defender</text>
<text text-anchor="middle" x="81.16" y="-96.5" font-family="Helvetica,sans-Serif" font-size="10.00">_UM/U_Configuration.hpp</text>
</a>
</g>
</g>
<!-- Node1&#45;&gt;Node5 -->
<g id="edge17" class="edge">
<title>Node1&#45;&gt;Node5</title>
<path fill="none" stroke="midnightblue" d="M249.56,-461.94C173.47,-447.79 51.98,-411.33 9.16,-320 -19.96,-257.91 29.34,-180.6 59.83,-141.56"/>
<polygon fill="midnightblue" stroke="midnightblue" points="249.07,-465.4 259.53,-463.71 250.29,-458.51 249.07,-465.4"/>
</g>
<!-- Node8 -->
<g id="node8" class="node">
<title>Node8</title>
<g id="a_node8"><a xlink:href="_u___utilitaire_8hpp.html" target="_top" xlink:title="Header for U_Utilitaire.cpp.">
<polygon fill="none" stroke="black" points="283.66,-178.5 283.66,-230.5 392.66,-230.5 392.66,-178.5 283.66,-178.5"/>
<text text-anchor="start" x="291.66" y="-218.5" font-family="Helvetica,sans-Serif" font-size="10.00">C:/Users/admin&#45;cyb</text>
<text text-anchor="start" x="291.66" y="-207.5" font-family="Helvetica,sans-Serif" font-size="10.00">/Desktop/PI&#45;Defender</text>
<text text-anchor="start" x="291.66" y="-196.5" font-family="Helvetica,sans-Serif" font-size="10.00">/Sources/PI&#45;Defender</text>
<text text-anchor="middle" x="338.16" y="-185.5" font-family="Helvetica,sans-Serif" font-size="10.00">_UM/U_Utilitaire.hpp</text>
</a>
</g>
</g>
<!-- Node1&#45;&gt;Node8 -->
<g id="edge20" class="edge">
<title>Node1&#45;&gt;Node8</title>
<path fill="none" stroke="midnightblue" d="M312.6,-434.89C314.71,-380.56 324.17,-278.26 331.69,-230.83"/>
<polygon fill="midnightblue" stroke="midnightblue" points="309.09,-434.99 312.28,-445.09 316.09,-435.21 309.09,-434.99"/>
</g>
<!-- Node12 -->
<g id="node12" class="node">
<title>Node12</title>
<g id="a_node12"><a xlink:href="_u___logs_8cpp.html" target="_top" xlink:title="Report Event to ETW.">
<polygon fill="none" stroke="black" points="375.66,-356.5 375.66,-408.5 484.66,-408.5 484.66,-356.5 375.66,-356.5"/>
<text text-anchor="start" x="383.66" y="-396.5" font-family="Helvetica,sans-Serif" font-size="10.00">C:/Users/admin&#45;cyb</text>
<text text-anchor="start" x="383.66" y="-385.5" font-family="Helvetica,sans-Serif" font-size="10.00">/Desktop/PI&#45;Defender</text>
<text text-anchor="start" x="383.66" y="-374.5" font-family="Helvetica,sans-Serif" font-size="10.00">/Sources/PI&#45;Defender</text>
<text text-anchor="middle" x="430.16" y="-363.5" font-family="Helvetica,sans-Serif" font-size="10.00">_UM/U_Logs.cpp</text>
</a>
</g>
</g>
<!-- Node1&#45;&gt;Node12 -->
<g id="edge18" class="edge">
<title>Node1&#45;&gt;Node12</title>
<path fill="none" stroke="midnightblue" d="M355.86,-439.22C369.27,-429.16 383.94,-418.16 396.68,-408.61"/>
<polygon fill="midnightblue" stroke="midnightblue" points="353.61,-436.54 347.71,-445.34 357.81,-442.14 353.61,-436.54"/>
</g>
<!-- Node3 -->
<g id="node3" class="node">
<title>Node3</title>
<g id="a_node3"><a xlink:href="_u___communication_8cpp.html" target="_top" xlink:title="Manage the communication with the driver (Connect|Reply|ListenerThread|WorkerThread)">
<polygon fill="none" stroke="black" points="18.16,-267.5 18.16,-319.5 156.16,-319.5 156.16,-267.5 18.16,-267.5"/>
<text text-anchor="start" x="26.16" y="-307.5" font-family="Helvetica,sans-Serif" font-size="10.00">C:/Users/admin&#45;cyb</text>
<text text-anchor="start" x="26.16" y="-296.5" font-family="Helvetica,sans-Serif" font-size="10.00">/Desktop/PI&#45;Defender</text>
<text text-anchor="start" x="26.16" y="-285.5" font-family="Helvetica,sans-Serif" font-size="10.00">/Sources/PI&#45;Defender</text>
<text text-anchor="middle" x="87.16" y="-274.5" font-family="Helvetica,sans-Serif" font-size="10.00">_UM/U_Communication.cpp</text>
</a>
</g>
</g>
<!-- Node2&#45;&gt;Node3 -->
<g id="edge2" class="edge">
<title>Node2&#45;&gt;Node3</title>
<path fill="none" stroke="midnightblue" d="M155.33,-349.93C143.06,-339.96 129.67,-329.07 118.03,-319.61"/>
<polygon fill="midnightblue" stroke="midnightblue" points="153.24,-352.74 163.21,-356.34 157.66,-347.31 153.24,-352.74"/>
</g>
<!-- Node2&#45;&gt;Node4 -->
<g id="edge3" class="edge">
<title>Node2&#45;&gt;Node4</title>
<path fill="none" stroke="midnightblue" d="M201.5,-346.77C204.89,-337.69 208.91,-328.08 212.87,-319.61"/>
<polygon fill="midnightblue" stroke="midnightblue" points="198.15,-345.74 198.09,-356.34 204.75,-348.09 198.15,-345.74"/>
</g>
<!-- Node4&#45;&gt;Node2 -->
<g id="edge4" class="edge">
<title>Node4&#45;&gt;Node2</title>
<path fill="none" stroke="midnightblue" d="M221.83,-329.17C218.44,-338.25 214.43,-347.86 210.46,-356.34"/>
<polygon fill="midnightblue" stroke="midnightblue" points="225.18,-330.2 225.24,-319.61 218.59,-327.85 225.18,-330.2"/>
</g>
<!-- Node4&#45;&gt;Node5 -->
<g id="edge5" class="edge">
<title>Node4&#45;&gt;Node5</title>
<path fill="none" stroke="midnightblue" d="M165.65,-263.27C151.68,-254.21 137.9,-243.32 127.16,-231 103.96,-204.41 88.28,-166.33 81.97,-141.51"/>
<polygon fill="midnightblue" stroke="midnightblue" points="164,-266.36 174.34,-268.66 167.69,-260.42 164,-266.36"/>
</g>
<!-- Node7 -->
<g id="node7" class="node">
<title>Node7</title>
<g id="a_node7"><a xlink:href="_u___service_8cpp.html" target="_top" xlink:title="Entrypoint of the process &amp; the service.">
<polygon fill="none" stroke="black" points="156.66,-178.5 156.66,-230.5 265.66,-230.5 265.66,-178.5 156.66,-178.5"/>
<text text-anchor="start" x="164.66" y="-218.5" font-family="Helvetica,sans-Serif" font-size="10.00">C:/Users/admin&#45;cyb</text>
<text text-anchor="start" x="164.66" y="-207.5" font-family="Helvetica,sans-Serif" font-size="10.00">/Desktop/PI&#45;Defender</text>
<text text-anchor="start" x="164.66" y="-196.5" font-family="Helvetica,sans-Serif" font-size="10.00">/Sources/PI&#45;Defender</text>
<text text-anchor="middle" x="211.16" y="-185.5" font-family="Helvetica,sans-Serif" font-size="10.00">_UM/U_Service.cpp</text>
</a>
</g>
</g>
<!-- Node4&#45;&gt;Node7 -->
<g id="edge8" class="edge">
<title>Node4&#45;&gt;Node7</title>
<path fill="none" stroke="midnightblue" d="M221.91,-257.48C220.05,-248.49 218.08,-238.99 216.35,-230.61"/>
<polygon fill="midnightblue" stroke="midnightblue" points="218.5,-258.25 223.95,-267.34 225.35,-256.83 218.5,-258.25"/>
</g>
<!-- Node4&#45;&gt;Node8 -->
<g id="edge9" class="edge">
<title>Node4&#45;&gt;Node8</title>
<path fill="none" stroke="midnightblue" d="M262.18,-260.93C274.29,-250.96 288.04,-240.07 300.52,-230.61"/>
<polygon fill="midnightblue" stroke="midnightblue" points="259.94,-258.25 254.5,-267.34 264.42,-263.63 259.94,-258.25"/>
</g>
<!-- Node5&#45;&gt;Node4 -->
<g id="edge7" class="edge">
<title>Node5&#45;&gt;Node4</title>
<path fill="none" stroke="midnightblue" d="M99.55,-150.74C110.06,-175.1 124.68,-207.52 145.16,-231 157.62,-245.3 174.17,-257.66 189.35,-267.48"/>
<polygon fill="midnightblue" stroke="midnightblue" points="102.74,-149.31 95.58,-141.51 96.31,-152.08 102.74,-149.31"/>
</g>
<!-- Node6 -->
<g id="node6" class="node">
<title>Node6</title>
<g id="a_node6"><a xlink:href="_u___configuration_8cpp.html" target="_top" xlink:title="Set all the needed configuration for the driver and the user&#45;mode service.">
<polygon fill="none" stroke="black" points="17.66,-0.5 17.66,-52.5 144.66,-52.5 144.66,-0.5 17.66,-0.5"/>
<text text-anchor="start" x="25.66" y="-40.5" font-family="Helvetica,sans-Serif" font-size="10.00">C:/Users/admin&#45;cyb</text>
<text text-anchor="start" x="25.66" y="-29.5" font-family="Helvetica,sans-Serif" font-size="10.00">/Desktop/PI&#45;Defender</text>
<text text-anchor="start" x="25.66" y="-18.5" font-family="Helvetica,sans-Serif" font-size="10.00">/Sources/PI&#45;Defender</text>
<text text-anchor="middle" x="81.16" y="-7.5" font-family="Helvetica,sans-Serif" font-size="10.00">_UM/U_Configuration.cpp</text>
</a>
</g>
</g>
<!-- Node5&#45;&gt;Node6 -->
<g id="edge6" class="edge">
<title>Node5&#45;&gt;Node6</title>
<path fill="none" stroke="midnightblue" d="M81.16,-79.19C81.16,-70.28 81.16,-60.9 81.16,-52.61"/>
<polygon fill="midnightblue" stroke="midnightblue" points="77.66,-79.34 81.16,-89.34 84.66,-79.34 77.66,-79.34"/>
</g>
<!-- Node8&#45;&gt;Node1 -->
<g id="edge14" class="edge">
<title>Node8&#45;&gt;Node1</title>
<path fill="none" stroke="midnightblue" d="M339.72,-241.02C337.62,-295.31 328.15,-397.6 320.64,-445.09"/>
<polygon fill="midnightblue" stroke="midnightblue" points="343.22,-240.94 340.03,-230.83 336.22,-240.72 343.22,-240.94"/>
</g>
<!-- Node8&#45;&gt;Node4 -->
<g id="edge15" class="edge">
<title>Node8&#45;&gt;Node4</title>
<path fill="none" stroke="midnightblue" d="M304.85,-237.29C292.84,-247.19 279.23,-257.96 266.87,-267.34"/>
<polygon fill="midnightblue" stroke="midnightblue" points="307.44,-239.7 312.88,-230.61 302.96,-234.32 307.44,-239.7"/>
</g>
<!-- Node8&#45;&gt;Node5 -->
<g id="edge10" class="edge">
<title>Node8&#45;&gt;Node5</title>
<path fill="none" stroke="midnightblue" d="M273.72,-177.97C219.88,-159.57 204.22,-158.25 154.16,-142 151.09,-141.01 147.96,-139.97 144.8,-138.92"/>
<polygon fill="midnightblue" stroke="midnightblue" points="272.87,-181.38 283.46,-181.34 275.16,-174.76 272.87,-181.38"/>
</g>
<!-- Node9 -->
<g id="node9" class="node">
<title>Node9</title>
<g id="a_node9"><a xlink:href="_u___controller_8hpp.html" target="_top" xlink:title="Header for U_Controller.cpp.">
<polygon fill="none" stroke="black" points="163.16,-89.5 163.16,-141.5 275.16,-141.5 275.16,-89.5 163.16,-89.5"/>
<text text-anchor="start" x="171.16" y="-129.5" font-family="Helvetica,sans-Serif" font-size="10.00">C:/Users/admin&#45;cyb</text>
<text text-anchor="start" x="171.16" y="-118.5" font-family="Helvetica,sans-Serif" font-size="10.00">/Desktop/PI&#45;Defender</text>
<text text-anchor="start" x="171.16" y="-107.5" font-family="Helvetica,sans-Serif" font-size="10.00">/Sources/PI&#45;Defender</text>
<text text-anchor="middle" x="219.16" y="-96.5" font-family="Helvetica,sans-Serif" font-size="10.00">_UM/U_Controller.hpp</text>
</a>
</g>
</g>
<!-- Node8&#45;&gt;Node9 -->
<g id="edge11" class="edge">
<title>Node8&#45;&gt;Node9</title>
<path fill="none" stroke="midnightblue" d="M295.37,-172.22C281.62,-162.16 266.56,-151.16 253.5,-141.61"/>
<polygon fill="midnightblue" stroke="midnightblue" points="293.6,-175.26 303.74,-178.34 297.73,-169.61 293.6,-175.26"/>
</g>
<!-- Node11 -->
<g id="node11" class="node">
<title>Node11</title>
<g id="a_node11"><a xlink:href="_u___utilitaire_8cpp.html" target="_top" xlink:title="Help function used by several .cpp files.">
<polygon fill="none" stroke="black" points="293.66,-89.5 293.66,-141.5 402.66,-141.5 402.66,-89.5 293.66,-89.5"/>
<text text-anchor="start" x="301.66" y="-129.5" font-family="Helvetica,sans-Serif" font-size="10.00">C:/Users/admin&#45;cyb</text>
<text text-anchor="start" x="301.66" y="-118.5" font-family="Helvetica,sans-Serif" font-size="10.00">/Desktop/PI&#45;Defender</text>
<text text-anchor="start" x="301.66" y="-107.5" font-family="Helvetica,sans-Serif" font-size="10.00">/Sources/PI&#45;Defender</text>
<text text-anchor="middle" x="348.16" y="-96.5" font-family="Helvetica,sans-Serif" font-size="10.00">_UM/U_Utilitaire.cpp</text>
</a>
</g>
</g>
<!-- Node8&#45;&gt;Node11 -->
<g id="edge16" class="edge">
<title>Node8&#45;&gt;Node11</title>
<path fill="none" stroke="midnightblue" d="M342.21,-168.19C343.24,-159.28 344.32,-149.9 345.27,-141.61"/>
<polygon fill="midnightblue" stroke="midnightblue" points="338.71,-168 341.05,-178.34 345.67,-168.8 338.71,-168"/>
</g>
<!-- Node9&#45;&gt;Node4 -->
<g id="edge13" class="edge">
<title>Node9&#45;&gt;Node4</title>
<path fill="none" stroke="midnightblue" d="M169.81,-148.47C160.63,-156.89 152.32,-166.8 147.16,-178 137.29,-199.39 136.62,-209.93 147.16,-231 154.56,-245.8 167.4,-257.97 180.76,-267.46"/>
<polygon fill="midnightblue" stroke="midnightblue" points="172.35,-150.9 177.68,-141.75 167.8,-145.58 172.35,-150.9"/>
</g>
<!-- Node10 -->
<g id="node10" class="node">
<title>Node10</title>
<g id="a_node10"><a xlink:href="_u___controller_8cpp.html" target="_top" xlink:title="Controll the service/driver (Install|Start|Stop|Delete|Query)">
<polygon fill="none" stroke="black" points="163.16,-0.5 163.16,-52.5 275.16,-52.5 275.16,-0.5 163.16,-0.5"/>
<text text-anchor="start" x="171.16" y="-40.5" font-family="Helvetica,sans-Serif" font-size="10.00">C:/Users/admin&#45;cyb</text>
<text text-anchor="start" x="171.16" y="-29.5" font-family="Helvetica,sans-Serif" font-size="10.00">/Desktop/PI&#45;Defender</text>
<text text-anchor="start" x="171.16" y="-18.5" font-family="Helvetica,sans-Serif" font-size="10.00">/Sources/PI&#45;Defender</text>
<text text-anchor="middle" x="219.16" y="-7.5" font-family="Helvetica,sans-Serif" font-size="10.00">_UM/U_Controller.cpp</text>
</a>
</g>
</g>
<!-- Node9&#45;&gt;Node10 -->
<g id="edge12" class="edge">
<title>Node9&#45;&gt;Node10</title>
<path fill="none" stroke="midnightblue" d="M219.16,-79.19C219.16,-70.28 219.16,-60.9 219.16,-52.61"/>
<polygon fill="midnightblue" stroke="midnightblue" points="215.66,-79.34 219.16,-89.34 222.66,-79.34 215.66,-79.34"/>
</g>
</g>
</svg>
        <g id="navigator" transform="translate(0 0)" fill="#404254">
                <rect fill="#f2f5e9" fill-opacity="0.5" stroke="#606060" stroke-width=".5" x="0" y="0" width="60" height="60"/>
                <use id="zoomplus" xlink:href="#zoomPlus" x="17" y="9" onmousedown="handleZoom(evt,'in')"/>
                <use id="zoomminus" xlink:href="#zoomMin" x="42" y="9" onmousedown="handleZoom(evt,'out')"/>
                <use id="reset" xlink:href="#resetDef" x="30" y="36" onmousedown="handleReset()"/>
                <g id="arrowUp" xlink:href="#dirArrow" transform="translate(30 24)" onmousedown="handlePan(0,-1)">
                  <use xlink:href="#rim" fill="#404040">
                        <set attributeName="fill" to="#808080" begin="arrowUp.mouseover" end="arrowUp.mouseout"/>
                  </use>
                  <path fill="none" stroke="white" stroke-width="1.5" d="M0,-3.0v7 M-2.5,-0.5L0,-3.0L2.5,-0.5"/>
                </g>
                <g id="arrowRight" xlink:href="#dirArrow" transform="rotate(90) translate(36 -43)" onmousedown="handlePan(1,0)">
                  <use xlink:href="#rim" fill="#404040">
                        <set attributeName="fill" to="#808080" begin="arrowRight.mouseover" end="arrowRight.mouseout"/>
                  </use>
                  <path fill="none" stroke="white" stroke-width="1.5" d="M0,-3.0v7 M-2.5,-0.5L0,-3.0L2.5,-0.5"/>
                </g>
                <g id="arrowDown" xlink:href="#dirArrow" transform="rotate(180) translate(-30 -48)" onmousedown="handlePan(0,1)">
                  <use xlink:href="#rim" fill="#404040">
                        <set attributeName="fill" to="#808080" begin="arrowDown.mouseover" end="arrowDown.mouseout"/>
                  </use>
                  <path fill="none" stroke="white" stroke-width="1.5" d="M0,-3.0v7 M-2.5,-0.5L0,-3.0L2.5,-0.5"/>
                </g>
                <g id="arrowLeft" xlink:href="#dirArrow" transform="rotate(270) translate(-36 17)" onmousedown="handlePan(-1,0)">
                  <use xlink:href="#rim" fill="#404040">
                        <set attributeName="fill" to="#808080" begin="arrowLeft.mouseover" end="arrowLeft.mouseout"/>
                  </use>
                  <path fill="none" stroke="white" stroke-width="1.5" d="M0,-3.0v7 M-2.5,-0.5L0,-3.0L2.5,-0.5"/>
                </g>
        </g>
        <svg viewBox="0 0 15 15" width="100%" height="30px" preserveAspectRatio="xMaxYMin meet">
         <g id="arrow_out" transform="scale(0.3 0.3)">
          <a xlink:href="_u___logs_8hpp__dep__incl_org.svg" target="_base">
           <rect id="button" ry="5" rx="5" y="6" x="6" height="38" width="38"
                fill="#f2f5e9" fill-opacity="0.5" stroke="#606060" stroke-width="1.0"/>
           <path id="arrow"
             d="M 11.500037,31.436501 C 11.940474,20.09759 22.043105,11.32322 32.158766,21.979434 L 37.068811,17.246167 C 37.068811,17.246167 37.088388,32 37.088388,32 L 22.160133,31.978069 C 22.160133,31.978069 26.997745,27.140456 26.997745,27.140456 C 18.528582,18.264221 13.291696,25.230495 11.500037,31.436501 z"
             style="fill:#404040;"/>
          </a>
         </g>
        </svg>
</svg>
