<?xml version="1.0" encoding="UTF-8" standalone="no"?>
<!DOCTYPE svg PUBLIC "-//W3C//DTD SVG 1.1//EN"
 "http://www.w3.org/Graphics/SVG/1.1/DTD/svg11.dtd">
<!-- Generated by graphviz version 4.0.0 (20220529.0937)
 -->
<!-- Title: C:/Users/admin&#45;cyb/Desktop/PI&#45;Defender/Sources/PI&#45;Defender_UM/U_Service.hpp Pages: 1 -->
<svg width="578pt" height="417pt"
 viewBox="0.00 0.00 578.00 417.00" xmlns="http://www.w3.org/2000/svg" xmlns:xlink="http://www.w3.org/1999/xlink">
<g id="graph0" class="graph" transform="scale(1 1) rotate(0) translate(4 413)">
<title>C:/Users/admin&#45;cyb/Desktop/PI&#45;Defender/Sources/PI&#45;Defender_UM/U_Service.hpp</title>
<!-- Node1 -->
<g id="node1" class="node">
<title>Node1</title>
<g id="a_node1"><a xlink:title="Header for U_Service.cpp.">
<polygon fill="#bfbfbf" stroke="black" points="119.5,-356.5 119.5,-408.5 228.5,-408.5 228.5,-356.5 119.5,-356.5"/>
<text text-anchor="start" x="127.5" y="-396.5" font-family="Helvetica,sans-Serif" font-size="10.00">C:/Users/admin&#45;cyb</text>
<text text-anchor="start" x="127.5" y="-385.5" font-family="Helvetica,sans-Serif" font-size="10.00">/Desktop/PI&#45;Defender</text>
<text text-anchor="start" x="127.5" y="-374.5" font-family="Helvetica,sans-Serif" font-size="10.00">/Sources/PI&#45;Defender</text>
<text text-anchor="middle" x="174" y="-363.5" font-family="Helvetica,sans-Serif" font-size="10.00">_UM/U_Service.hpp</text>
</a>
</g>
</g>
<!-- Node2 -->
<g id="node2" class="node">
<title>Node2</title>
<g id="a_node2"><a xlink:href="_u___communication_8hpp.html" target="_top" xlink:title="Header for U_Communication.cpp.">
<polygon fill="none" stroke="black" points="0,-89.5 0,-141.5 138,-141.5 138,-89.5 0,-89.5"/>
<text text-anchor="start" x="8" y="-129.5" font-family="Helvetica,sans-Serif" font-size="10.00">C:/Users/admin&#45;cyb</text>
<text text-anchor="start" x="8" y="-118.5" font-family="Helvetica,sans-Serif" font-size="10.00">/Desktop/PI&#45;Defender</text>
<text text-anchor="start" x="8" y="-107.5" font-family="Helvetica,sans-Serif" font-size="10.00">/Sources/PI&#45;Defender</text>
<text text-anchor="middle" x="69" y="-96.5" font-family="Helvetica,sans-Serif" font-size="10.00">_UM/U_Communication.hpp</text>
</a>
</g>
</g>
<!-- Node1&#45;&gt;Node2 -->
<g id="edge1" class="edge">
<title>Node1&#45;&gt;Node2</title>
<path fill="none" stroke="midnightblue" d="M146.08,-347.88C140.99,-338.96 136.08,-329.23 132,-320 104.34,-257.45 79.53,-180.66 70.82,-141.72"/>
<polygon fill="midnightblue" stroke="midnightblue" points="143.08,-349.69 151.2,-356.5 149.1,-346.11 143.08,-349.69"/>
</g>
<!-- Node4 -->
<g id="node4" class="node">
<title>Node4</title>
<g id="a_node4"><a xlink:href="_u___configuration_8hpp.html" target="_top" xlink:title="Header for U_Configuration.cpp.">
<polygon fill="none" stroke="black" points="156.5,-89.5 156.5,-141.5 283.5,-141.5 283.5,-89.5 156.5,-89.5"/>
<text text-anchor="start" x="164.5" y="-129.5" font-family="Helvetica,sans-Serif" font-size="10.00">C:/Users/admin&#45;cyb</text>
<text text-anchor="start" x="164.5" y="-118.5" font-family="Helvetica,sans-Serif" font-size="10.00">/Desktop/PI&#45;Defender</text>
<text text-anchor="start" x="164.5" y="-107.5" font-family="Helvetica,sans-Serif" font-size="10.00">/Sources/PI&#45;Defender</text>
<text text-anchor="middle" x="220" y="-96.5" font-family="Helvetica,sans-Serif" font-size="10.00">_UM/U_Configuration.hpp</text>
</a>
</g>
</g>
<!-- Node1&#45;&gt;Node4 -->
<g id="edge4" class="edge">
<title>Node1&#45;&gt;Node4</title>
<path fill="none" stroke="midnightblue" d="M154.67,-347.04C138.42,-305.25 122.1,-233.52 146,-178 152.08,-163.87 163.18,-151.48 175.03,-141.58"/>
<polygon fill="midnightblue" stroke="midnightblue" points="151.51,-348.58 158.55,-356.49 157.99,-345.91 151.51,-348.58"/>
</g>
<!-- Node6 -->
<g id="node6" class="node">
<title>Node6</title>
<g id="a_node6"><a xlink:href="_u___service_8cpp.html" target="_top" xlink:title="Entrypoint of the process &amp; the service.">
<polygon fill="none" stroke="black" points="368.5,-267.5 368.5,-319.5 477.5,-319.5 477.5,-267.5 368.5,-267.5"/>
<text text-anchor="start" x="376.5" y="-307.5" font-family="Helvetica,sans-Serif" font-size="10.00">C:/Users/admin&#45;cyb</text>
<text text-anchor="start" x="376.5" y="-296.5" font-family="Helvetica,sans-Serif" font-size="10.00">/Desktop/PI&#45;Defender</text>
<text text-anchor="start" x="376.5" y="-285.5" font-family="Helvetica,sans-Serif" font-size="10.00">/Sources/PI&#45;Defender</text>
<text text-anchor="middle" x="423" y="-274.5" font-family="Helvetica,sans-Serif" font-size="10.00">_UM/U_Service.cpp</text>
</a>
</g>
</g>
<!-- Node1&#45;&gt;Node6 -->
<g id="edge7" class="edge">
<title>Node1&#45;&gt;Node6</title>
<path fill="none" stroke="midnightblue" d="M238.77,-359.8C273.09,-348.2 315.91,-333.54 354,-320 358.69,-318.33 363.56,-316.58 368.43,-314.81"/>
<polygon fill="midnightblue" stroke="midnightblue" points="237.22,-356.63 228.87,-363.15 239.46,-363.26 237.22,-356.63"/>
</g>
<!-- Node7 -->
<g id="node7" class="node">
<title>Node7</title>
<g id="a_node7"><a xlink:href="_u___utilitaire_8hpp.html" target="_top" xlink:title="Header for U_Utilitaire.cpp.">
<polygon fill="none" stroke="black" points="202.5,-267.5 202.5,-319.5 311.5,-319.5 311.5,-267.5 202.5,-267.5"/>
<text text-anchor="start" x="210.5" y="-307.5" font-family="Helvetica,sans-Serif" font-size="10.00">C:/Users/admin&#45;cyb</text>
<text text-anchor="start" x="210.5" y="-296.5" font-family="Helvetica,sans-Serif" font-size="10.00">/Desktop/PI&#45;Defender</text>
<text text-anchor="start" x="210.5" y="-285.5" font-family="Helvetica,sans-Serif" font-size="10.00">/Sources/PI&#45;Defender</text>
<text text-anchor="middle" x="257" y="-274.5" font-family="Helvetica,sans-Serif" font-size="10.00">_UM/U_Utilitaire.hpp</text>
</a>
</g>
</g>
<!-- Node1&#45;&gt;Node7 -->
<g id="edge8" class="edge">
<title>Node1&#45;&gt;Node7</title>
<path fill="none" stroke="midnightblue" d="M198.64,-348.79C207.52,-339.13 217.58,-328.71 226.86,-319.61"/>
<polygon fill="midnightblue" stroke="midnightblue" points="195.93,-346.57 191.82,-356.34 201.12,-351.27 195.93,-346.57"/>
</g>
<!-- Node2&#45;&gt;Node1 -->
<g id="edge3" class="edge">
<title>Node2&#45;&gt;Node1</title>
<path fill="none" stroke="midnightblue" d="M85.94,-151.26C101.33,-192.28 124.45,-262.21 150,-320 155.44,-332.3 162.36,-345.5 167.73,-356.5"/>
<polygon fill="midnightblue" stroke="midnightblue" points="89.14,-149.81 82.3,-141.72 82.6,-152.31 89.14,-149.81"/>
</g>
<!-- Node3 -->
<g id="node3" class="node">
<title>Node3</title>
<g id="a_node3"><a xlink:href="_u___communication_8cpp.html" target="_top" xlink:title="Manage the communication with the driver (Connect|Reply|ListenerThread|WorkerThread)">
<polygon fill="none" stroke="black" points="0,-0.5 0,-52.5 138,-52.5 138,-0.5 0,-0.5"/>
<text text-anchor="start" x="8" y="-40.5" font-family="Helvetica,sans-Serif" font-size="10.00">C:/Users/admin&#45;cyb</text>
<text text-anchor="start" x="8" y="-29.5" font-family="Helvetica,sans-Serif" font-size="10.00">/Desktop/PI&#45;Defender</text>
<text text-anchor="start" x="8" y="-18.5" font-family="Helvetica,sans-Serif" font-size="10.00">/Sources/PI&#45;Defender</text>
<text text-anchor="middle" x="69" y="-7.5" font-family="Helvetica,sans-Serif" font-size="10.00">_UM/U_Communication.cpp</text>
</a>
</g>
</g>
<!-- Node2&#45;&gt;Node3 -->
<g id="edge2" class="edge">
<title>Node2&#45;&gt;Node3</title>
<path fill="none" stroke="midnightblue" d="M69,-79.19C69,-70.28 69,-60.9 69,-52.61"/>
<polygon fill="midnightblue" stroke="midnightblue" points="65.5,-79.34 69,-89.34 72.5,-79.34 65.5,-79.34"/>
</g>
<!-- Node4&#45;&gt;Node1 -->
<g id="edge6" class="edge">
<title>Node4&#45;&gt;Node1</title>
<path fill="none" stroke="midnightblue" d="M184.66,-148.68C176.41,-157.18 168.7,-167.07 164,-178 138.18,-237.97 159.29,-316.86 169.87,-356.49"/>
<polygon fill="midnightblue" stroke="midnightblue" points="187.24,-151.05 191.99,-141.58 182.37,-146.03 187.24,-151.05"/>
</g>
<!-- Node5 -->
<g id="node5" class="node">
<title>Node5</title>
<g id="a_node5"><a xlink:href="_u___configuration_8cpp.html" target="_top" xlink:title="Set all the needed configuration for the driver and the user&#45;mode service.">
<polygon fill="none" stroke="black" points="156.5,-0.5 156.5,-52.5 283.5,-52.5 283.5,-0.5 156.5,-0.5"/>
<text text-anchor="start" x="164.5" y="-40.5" font-family="Helvetica,sans-Serif" font-size="10.00">C:/Users/admin&#45;cyb</text>
<text text-anchor="start" x="164.5" y="-29.5" font-family="Helvetica,sans-Serif" font-size="10.00">/Desktop/PI&#45;Defender</text>
<text text-anchor="start" x="164.5" y="-18.5" font-family="Helvetica,sans-Serif" font-size="10.00">/Sources/PI&#45;Defender</text>
<text text-anchor="middle" x="220" y="-7.5" font-family="Helvetica,sans-Serif" font-size="10.00">_UM/U_Configuration.cpp</text>
</a>
</g>
</g>
<!-- Node4&#45;&gt;Node5 -->
<g id="edge5" class="edge">
<title>Node4&#45;&gt;Node5</title>
<path fill="none" stroke="midnightblue" d="M220,-79.19C220,-70.28 220,-60.9 220,-52.61"/>
<polygon fill="midnightblue" stroke="midnightblue" points="216.5,-79.34 220,-89.34 223.5,-79.34 216.5,-79.34"/>
</g>
<!-- Node7&#45;&gt;Node1 -->
<g id="edge19" class="edge">
<title>Node7&#45;&gt;Node1</title>
<path fill="none" stroke="midnightblue" d="M232.41,-327.15C223.54,-336.81 213.48,-347.23 204.19,-356.34"/>
<polygon fill="midnightblue" stroke="midnightblue" points="235.12,-329.37 239.23,-319.61 229.93,-324.68 235.12,-329.37"/>
</g>
<!-- Node7&#45;&gt;Node4 -->
<g id="edge9" class="edge">
<title>Node7&#45;&gt;Node4</title>
<path fill="none" stroke="midnightblue" d="M275.24,-257.7C284.86,-234.49 292.68,-203.64 282,-178 276.17,-164 265.43,-151.56 254.51,-141.59"/>
<polygon fill="midnightblue" stroke="midnightblue" points="271.9,-256.59 271.05,-267.15 278.3,-259.42 271.9,-256.59"/>
</g>
<!-- Node8 -->
<g id="node8" class="node">
<title>Node8</title>
<g id="a_node8"><a xlink:href="_u___controller_8hpp.html" target="_top" xlink:title="Header for U_Controller.cpp.">
<polygon fill="none" stroke="black" points="458,-178.5 458,-230.5 570,-230.5 570,-178.5 458,-178.5"/>
<text text-anchor="start" x="466" y="-218.5" font-family="Helvetica,sans-Serif" font-size="10.00">C:/Users/admin&#45;cyb</text>
<text text-anchor="start" x="466" y="-207.5" font-family="Helvetica,sans-Serif" font-size="10.00">/Desktop/PI&#45;Defender</text>
<text text-anchor="start" x="466" y="-196.5" font-family="Helvetica,sans-Serif" font-size="10.00">/Sources/PI&#45;Defender</text>
<text text-anchor="middle" x="514" y="-185.5" font-family="Helvetica,sans-Serif" font-size="10.00">_UM/U_Controller.hpp</text>
</a>
</g>
</g>
<!-- Node7&#45;&gt;Node8 -->
<g id="edge10" class="edge">
<title>Node7&#45;&gt;Node8</title>
<path fill="none" stroke="midnightblue" d="M321.64,-268.46C323.11,-267.96 324.56,-267.48 326,-267 380.08,-249.12 395.1,-249.42 449,-231 451.87,-230.02 454.8,-228.99 457.74,-227.92"/>
<polygon fill="midnightblue" stroke="midnightblue" points="320.18,-265.26 311.87,-271.83 322.46,-271.88 320.18,-265.26"/>
</g>
<!-- Node10 -->
<g id="node10" class="node">
<title>Node10</title>
<g id="a_node10"><a xlink:href="_u___logs_8hpp.html" target="_top" xlink:title="Header for U_Logs.cpp.">
<polygon fill="none" stroke="black" points="164.5,-178.5 164.5,-230.5 273.5,-230.5 273.5,-178.5 164.5,-178.5"/>
<text text-anchor="start" x="172.5" y="-218.5" font-family="Helvetica,sans-Serif" font-size="10.00">C:/Users/admin&#45;cyb</text>
<text text-anchor="start" x="172.5" y="-207.5" font-family="Helvetica,sans-Serif" font-size="10.00">/Desktop/PI&#45;Defender</text>
<text text-anchor="start" x="172.5" y="-196.5" font-family="Helvetica,sans-Serif" font-size="10.00">/Sources/PI&#45;Defender</text>
<text text-anchor="middle" x="219" y="-185.5" font-family="Helvetica,sans-Serif" font-size="10.00">_UM/U_Logs.hpp</text>
</a>
</g>
</g>
<!-- Node7&#45;&gt;Node10 -->
<g id="edge13" class="edge">
<title>Node7&#45;&gt;Node10</title>
<path fill="none" stroke="midnightblue" d="M235.34,-258.06C231.07,-248.9 226.96,-239.17 223.78,-230.61"/>
<polygon fill="midnightblue" stroke="midnightblue" points="232.32,-259.86 239.82,-267.34 238.62,-256.81 232.32,-259.86"/>
</g>
<!-- Node12 -->
<g id="node12" class="node">
<title>Node12</title>
<g id="a_node12"><a xlink:href="_u___utilitaire_8cpp.html" target="_top" xlink:title="Help function used by several .cpp files.">
<polygon fill="none" stroke="black" points="330.5,-178.5 330.5,-230.5 439.5,-230.5 439.5,-178.5 330.5,-178.5"/>
<text text-anchor="start" x="338.5" y="-218.5" font-family="Helvetica,sans-Serif" font-size="10.00">C:/Users/admin&#45;cyb</text>
<text text-anchor="start" x="338.5" y="-207.5" font-family="Helvetica,sans-Serif" font-size="10.00">/Desktop/PI&#45;Defender</text>
<text text-anchor="start" x="338.5" y="-196.5" font-family="Helvetica,sans-Serif" font-size="10.00">/Sources/PI&#45;Defender</text>
<text text-anchor="middle" x="385" y="-185.5" font-family="Helvetica,sans-Serif" font-size="10.00">_UM/U_Utilitaire.cpp</text>
</a>
</g>
</g>
<!-- Node7&#45;&gt;Node12 -->
<g id="edge20" class="edge">
<title>Node7&#45;&gt;Node12</title>
<path fill="none" stroke="midnightblue" d="M302.6,-261.5C317.51,-251.37 333.87,-240.25 348.06,-230.61"/>
<polygon fill="midnightblue" stroke="midnightblue" points="300.33,-258.82 294.02,-267.34 304.26,-264.61 300.33,-258.82"/>
</g>
<!-- Node8&#45;&gt;Node1 -->
<g id="edge12" class="edge">
<title>Node8&#45;&gt;Node1</title>
<path fill="none" stroke="midnightblue" d="M448.29,-231.29C407.32,-247.44 361.99,-265.48 360,-267 336.54,-284.91 343.29,-301.87 320,-320 292.98,-341.03 257.71,-356.16 228.6,-366.14"/>
<polygon fill="midnightblue" stroke="midnightblue" points="449.74,-234.48 457.76,-227.56 447.17,-227.97 449.74,-234.48"/>
</g>
<!-- Node9 -->
<g id="node9" class="node">
<title>Node9</title>
<g id="a_node9"><a xlink:href="_u___controller_8cpp.html" target="_top" xlink:title="Controll the service/driver (Install|Start|Stop|Delete|Query)">
<polygon fill="none" stroke="black" points="458,-89.5 458,-141.5 570,-141.5 570,-89.5 458,-89.5"/>
<text text-anchor="start" x="466" y="-129.5" font-family="Helvetica,sans-Serif" font-size="10.00">C:/Users/admin&#45;cyb</text>
<text text-anchor="start" x="466" y="-118.5" font-family="Helvetica,sans-Serif" font-size="10.00">/Desktop/PI&#45;Defender</text>
<text text-anchor="start" x="466" y="-107.5" font-family="Helvetica,sans-Serif" font-size="10.00">/Sources/PI&#45;Defender</text>
<text text-anchor="middle" x="514" y="-96.5" font-family="Helvetica,sans-Serif" font-size="10.00">_UM/U_Controller.cpp</text>
</a>
</g>
</g>
<!-- Node8&#45;&gt;Node9 -->
<g id="edge11" class="edge">
<title>Node8&#45;&gt;Node9</title>
<path fill="none" stroke="midnightblue" d="M514,-168.19C514,-159.28 514,-149.9 514,-141.61"/>
<polygon fill="midnightblue" stroke="midnightblue" points="510.5,-168.34 514,-178.34 517.5,-168.34 510.5,-168.34"/>
</g>
<!-- Node10&#45;&gt;Node1 -->
<g id="edge17" class="edge">
<title>Node10&#45;&gt;Node1</title>
<path fill="none" stroke="midnightblue" d="M202.68,-240.13C199.08,-248.77 195.58,-258.1 193,-267 184.3,-297 179.17,-332.64 176.48,-356.1"/>
<polygon fill="midnightblue" stroke="midnightblue" points="205.98,-241.31 206.74,-230.74 199.56,-238.53 205.98,-241.31"/>
</g>
<!-- Node10&#45;&gt;Node2 -->
<g id="edge14" class="edge">
<title>Node10&#45;&gt;Node2</title>
<path fill="none" stroke="midnightblue" d="M166.54,-173.07C148.81,-162.79 129.23,-151.43 112.29,-141.61"/>
<polygon fill="midnightblue" stroke="midnightblue" points="165.21,-176.35 175.61,-178.34 168.72,-170.29 165.21,-176.35"/>
</g>
<!-- Node10&#45;&gt;Node4 -->
<g id="edge15" class="edge">
<title>Node10&#45;&gt;Node4</title>
<path fill="none" stroke="midnightblue" d="M219.41,-168.19C219.51,-159.28 219.62,-149.9 219.71,-141.61"/>
<polygon fill="midnightblue" stroke="midnightblue" points="215.9,-168.3 219.29,-178.34 222.9,-168.38 215.9,-168.3"/>
</g>
<!-- Node10&#45;&gt;Node7 -->
<g id="edge18" class="edge">
<title>Node10&#45;&gt;Node7</title>
<path fill="none" stroke="midnightblue" d="M240.63,-239.88C244.91,-249.04 249.01,-258.77 252.19,-267.34"/>
<polygon fill="midnightblue" stroke="midnightblue" points="243.65,-238.09 236.15,-230.61 237.35,-241.13 243.65,-238.09"/>
</g>
<!-- Node11 -->
<g id="node11" class="node">
<title>Node11</title>
<g id="a_node11"><a xlink:href="_u___logs_8cpp.html" target="_top" xlink:title="Report Event to ETW.">
<polygon fill="none" stroke="black" points="301.5,-89.5 301.5,-141.5 410.5,-141.5 410.5,-89.5 301.5,-89.5"/>
<text text-anchor="start" x="309.5" y="-129.5" font-family="Helvetica,sans-Serif" font-size="10.00">C:/Users/admin&#45;cyb</text>
<text text-anchor="start" x="309.5" y="-118.5" font-family="Helvetica,sans-Serif" font-size="10.00">/Desktop/PI&#45;Defender</text>
<text text-anchor="start" x="309.5" y="-107.5" font-family="Helvetica,sans-Serif" font-size="10.00">/Sources/PI&#45;Defender</text>
<text text-anchor="middle" x="356" y="-96.5" font-family="Helvetica,sans-Serif" font-size="10.00">_UM/U_Logs.cpp</text>
</a>
</g>
</g>
<!-- Node10&#45;&gt;Node11 -->
<g id="edge16" class="edge">
<title>Node10&#45;&gt;Node11</title>
<path fill="none" stroke="midnightblue" d="M267.36,-172.79C283.44,-162.58 301.14,-151.34 316.46,-141.61"/>
<polygon fill="midnightblue" stroke="midnightblue" points="265.19,-170.02 258.63,-178.34 268.94,-175.93 265.19,-170.02"/>
</g>
</g>
</svg>
