<?xml version="1.0" encoding="UTF-8" standalone="no"?>
<!DOCTYPE svg PUBLIC "-//W3C//DTD SVG 1.1//EN"
 "http://www.w3.org/Graphics/SVG/1.1/DTD/svg11.dtd">
<!-- Generated by graphviz version 4.0.0 (20220529.0937)
 -->
<!-- Title: C:/Users/admin&#45;cyb/Desktop/pi&#45;defender/Sources/PI&#45;Defender_UM/U_GlobalHeader.hpp Pages: 1 -->
<svg width="347pt" height="117pt"
 viewBox="0.00 0.00 346.50 117.00" xmlns="http://www.w3.org/2000/svg" xmlns:xlink="http://www.w3.org/1999/xlink">
<g id="graph0" class="graph" transform="scale(1 1) rotate(0) translate(4 113)">
<title>C:/Users/admin&#45;cyb/Desktop/pi&#45;defender/Sources/PI&#45;Defender_UM/U_GlobalHeader.hpp</title>
<!-- Node1 -->
<g id="node1" class="node">
<title>Node1</title>
<g id="a_node1"><a xlink:title="Header used by several .hpp files.">
<polygon fill="#bfbfbf" stroke="black" points="113,-56.5 113,-108.5 242,-108.5 242,-56.5 113,-56.5"/>
<text text-anchor="start" x="121" y="-96.5" font-family="Helvetica,sans-Serif" font-size="10.00">C:/Users/admin&#45;cyb</text>
<text text-anchor="start" x="121" y="-85.5" font-family="Helvetica,sans-Serif" font-size="10.00">/Desktop/pi&#45;defender</text>
<text text-anchor="start" x="121" y="-74.5" font-family="Helvetica,sans-Serif" font-size="10.00">/Sources/PI&#45;Defender</text>
<text text-anchor="middle" x="177.5" y="-63.5" font-family="Helvetica,sans-Serif" font-size="10.00">_UM/U_GlobalHeader.hpp</text>
</a>
</g>
</g>
<!-- Node2 -->
<g id="node2" class="node">
<title>Node2</title>
<g id="a_node2"><a xlink:title=" ">
<polygon fill="none" stroke="#bfbfbf" points="0,-0.5 0,-19.5 65,-19.5 65,-0.5 0,-0.5"/>
<text text-anchor="middle" x="32.5" y="-7.5" font-family="Helvetica,sans-Serif" font-size="10.00">Windows.h</text>
</a>
</g>
</g>
<!-- Node1&#45;&gt;Node2 -->
<g id="edge1" class="edge">
<title>Node1&#45;&gt;Node2</title>
<path fill="none" stroke="midnightblue" d="M125.97,-56.45C103.37,-45.46 77.8,-33.03 59.12,-23.94"/>
<polygon fill="midnightblue" stroke="midnightblue" points="60.56,-20.75 50.04,-19.53 57.5,-27.05 60.56,-20.75"/>
</g>
<!-- Node3 -->
<g id="node3" class="node">
<title>Node3</title>
<g id="a_node3"><a xlink:title=" ">
<polygon fill="none" stroke="#bfbfbf" points="83,-0.5 83,-19.5 136,-19.5 136,-0.5 83,-0.5"/>
<text text-anchor="middle" x="109.5" y="-7.5" font-family="Helvetica,sans-Serif" font-size="10.00">fltUser.h</text>
</a>
</g>
</g>
<!-- Node1&#45;&gt;Node3 -->
<g id="edge2" class="edge">
<title>Node1&#45;&gt;Node3</title>
<path fill="none" stroke="midnightblue" d="M153.33,-56.45C143.86,-46.63 133.28,-35.66 124.89,-26.95"/>
<polygon fill="midnightblue" stroke="midnightblue" points="127.35,-24.46 117.89,-19.7 122.31,-29.32 127.35,-24.46"/>
</g>
<!-- Node4 -->
<g id="node4" class="node">
<title>Node4</title>
<g id="a_node4"><a xlink:title=" ">
<polygon fill="none" stroke="#bfbfbf" points="154.5,-0.5 154.5,-19.5 200.5,-19.5 200.5,-0.5 154.5,-0.5"/>
<text text-anchor="middle" x="177.5" y="-7.5" font-family="Helvetica,sans-Serif" font-size="10.00">stdio.h</text>
</a>
</g>
</g>
<!-- Node1&#45;&gt;Node4 -->
<g id="edge3" class="edge">
<title>Node1&#45;&gt;Node4</title>
<path fill="none" stroke="midnightblue" d="M177.5,-56.45C177.5,-47.73 177.5,-38.1 177.5,-29.96"/>
<polygon fill="midnightblue" stroke="midnightblue" points="181,-29.7 177.5,-19.7 174,-29.7 181,-29.7"/>
</g>
<!-- Node5 -->
<g id="node5" class="node">
<title>Node5</title>
<g id="a_node5"><a xlink:title=" ">
<polygon fill="none" stroke="#bfbfbf" points="219,-0.5 219,-19.5 266,-19.5 266,-0.5 219,-0.5"/>
<text text-anchor="middle" x="242.5" y="-7.5" font-family="Helvetica,sans-Serif" font-size="10.00">tchar.h</text>
</a>
</g>
</g>
<!-- Node1&#45;&gt;Node5 -->
<g id="edge4" class="edge">
<title>Node1&#45;&gt;Node5</title>
<path fill="none" stroke="midnightblue" d="M200.6,-56.45C209.56,-46.73 219.56,-35.88 227.55,-27.22"/>
<polygon fill="midnightblue" stroke="midnightblue" points="230.28,-29.42 234.48,-19.7 225.13,-24.68 230.28,-29.42"/>
</g>
<!-- Node6 -->
<g id="node6" class="node">
<title>Node6</title>
<g id="a_node6"><a xlink:title=" ">
<polygon fill="none" stroke="#bfbfbf" points="284.5,-0.5 284.5,-19.5 338.5,-19.5 338.5,-0.5 284.5,-0.5"/>
<text text-anchor="middle" x="311.5" y="-7.5" font-family="Helvetica,sans-Serif" font-size="10.00">strsafe.h</text>
</a>
</g>
</g>
<!-- Node1&#45;&gt;Node6 -->
<g id="edge5" class="edge">
<title>Node1&#45;&gt;Node6</title>
<path fill="none" stroke="midnightblue" d="M225.12,-56.45C245.81,-45.56 269.2,-33.25 286.42,-24.2"/>
<polygon fill="midnightblue" stroke="midnightblue" points="288.07,-27.28 295.29,-19.53 284.81,-21.09 288.07,-27.28"/>
</g>
</g>
</svg>
