<?xml version="1.0" encoding="UTF-8" standalone="no"?>
<!DOCTYPE svg PUBLIC "-//W3C//DTD SVG 1.1//EN"
 "http://www.w3.org/Graphics/SVG/1.1/DTD/svg11.dtd">
<!-- Generated by graphviz version 4.0.0 (20220529.0937)
 -->
<!-- Title: SvcMain Pages: 1 -->
<!--zoomable 458 -->
<svg id="main" version="1.1" xmlns="http://www.w3.org/2000/svg" xmlns:xlink="http://www.w3.org/1999/xlink" xml:space="preserve" onload="init(evt)">
<style type="text/css"><![CDATA[
.edge:hover path { stroke: red; }
.edge:hover polygon { stroke: red; fill: red; }
]]></style>
<script type="text/javascript"><![CDATA[
var edges = document.getElementsByTagName('g');
if (edges && edges.length) {
  for (var i=0;i<edges.length;i++) {
    if (edges[i].id.substr(0,4)=='edge') {
      edges[i].setAttribute('class','edge');
    }
  }
}
]]></script>
        <defs>
                <circle id="rim" cx="0" cy="0" r="7"/>
                <circle id="rim2" cx="0" cy="0" r="3.5"/>
                <g id="zoomPlus">
                        <use xlink:href="#rim" fill="#404040">
                                <set attributeName="fill" to="#808080" begin="zoomplus.mouseover" end="zoomplus.mouseout"/>
                        </use>
                        <path d="M-4,0h8M0,-4v8" fill="none" stroke="white" stroke-width="1.5" pointer-events="none"/>
                </g>
                <g id="zoomMin">
                        <use xlink:href="#rim" fill="#404040">
                                <set attributeName="fill" to="#808080" begin="zoomminus.mouseover" end="zoomminus.mouseout"/>
                        </use>
                        <path d="M-4,0h8" fill="none" stroke="white" stroke-width="1.5" pointer-events="none"/>
                </g>
                <g id="dirArrow">
                        <path fill="none" stroke="white" stroke-width="1.5" d="M0,-3.0v7 M-2.5,-0.5L0,-3.0L2.5,-0.5"/>
                </g>
               <g id="resetDef">
                       <use xlink:href="#rim2" fill="#404040">
                               <set attributeName="fill" to="#808080" begin="reset.mouseover" end="reset.mouseout"/>
                       </use>
               </g>
        </defs>

<script type="text/javascript">
var viewWidth = 1323;
var viewHeight = 458;
var sectionId = 'dynsection-14';
</script>
<script xlink:href="svgpan.js"/>
<svg id="graph" class="graph">
<g id="viewport">
<title>SvcMain</title>
<!-- Node1 -->
<g id="node1" class="node">
<title>Node1</title>
<g id="a_node1"><a xlink:title="Entrypoint and core of the user space service.">
<polygon fill="#bfbfbf" stroke="black" points="0,-206 0,-225 53,-225 53,-206 0,-206"/>
<text text-anchor="middle" x="26.5" y="-213" font-family="Helvetica,sans-Serif" font-size="10.00">SvcMain</text>
</a>
</g>
</g>
<!-- Node2 -->
<g id="node2" class="node">
<title>Node2</title>
<g id="a_node2"><a xlink:href="class_u___c_o_m_m_u_n_i_c_a_t_i_o_n.html#a8f3d16e06161196da0043bfe31f636eb" target="_top" xlink:title="Connection to the driver.">
<polygon fill="none" stroke="black" points="120.5,-313 120.5,-332 272.5,-332 272.5,-313 120.5,-313"/>
<text text-anchor="middle" x="196.5" y="-320" font-family="Helvetica,sans-Serif" font-size="10.00">U_COMMUNICATION::Connect</text>
</a>
</g>
</g>
<!-- Node1&#45;&gt;Node2 -->
<g id="edge1" class="edge">
<title>Node1&#45;&gt;Node2</title>
<path fill="none" stroke="midnightblue" d="M31.21,-225.06C38.92,-243.53 58.53,-284.03 89,-303.5 95.62,-307.73 102.92,-311.09 110.5,-313.74"/>
<polygon fill="midnightblue" stroke="midnightblue" points="109.64,-317.14 120.23,-316.74 111.7,-310.45 109.64,-317.14"/>
</g>
<!-- Node3 -->
<g id="node3" class="node">
<title>Node3</title>
<g id="a_node3"><a xlink:href="class_u___l_o_g_s.html#a0f2932b79fce103453dd1cfc60de2007" target="_top" xlink:title="Send the reported event in the Event Viewer (Application &#45;&gt; PI&#45;Defender_UM).">
<polygon fill="none" stroke="black" points="361,-351 361,-370 491,-370 491,-351 361,-351"/>
<text text-anchor="middle" x="426" y="-358" font-family="Helvetica,sans-Serif" font-size="10.00">U_LOGS::SvcReportEvent</text>
</a>
</g>
</g>
<!-- Node1&#45;&gt;Node3 -->
<g id="edge37" class="edge">
<title>Node1&#45;&gt;Node3</title>
<path fill="none" stroke="midnightblue" d="M28.9,-225.22C33,-249.7 47.44,-313.88 89,-341.5 176.31,-399.53 306.29,-385.55 376.23,-371.99"/>
<polygon fill="midnightblue" stroke="midnightblue" points="376.99,-375.41 386.1,-370 375.61,-368.55 376.99,-375.41"/>
</g>
<!-- Node4 -->
<g id="node4" class="node">
<title>Node4</title>
<g id="a_node4"><a xlink:href="class_u___c_o_n_f_i_g_u_r_a_t_i_o_n.html#aafcf880d7361d9f00cd4dd497c3a97fa" target="_top" xlink:title="Get the communication port used by the driver to interact with the service.">
<polygon fill="none" stroke="black" points="89,-50 89,-69 304,-69 304,-50 89,-50"/>
<text text-anchor="middle" x="196.5" y="-57" font-family="Helvetica,sans-Serif" font-size="10.00">U_CONFIGURATION::GetCommunicationPort</text>
</a>
</g>
</g>
<!-- Node1&#45;&gt;Node4 -->
<g id="edge3" class="edge">
<title>Node1&#45;&gt;Node4</title>
<path fill="none" stroke="midnightblue" d="M28.78,-205.64C32.64,-180.12 46.66,-111.54 89,-78.5 91.11,-76.86 93.31,-75.34 95.58,-73.93"/>
<polygon fill="midnightblue" stroke="midnightblue" points="97.53,-76.86 104.72,-69.07 94.24,-70.68 97.53,-76.86"/>
</g>
<!-- Node6 -->
<g id="node6" class="node">
<title>Node6</title>
<g id="a_node6"><a xlink:href="class_u___c_o_n_f_i_g_u_r_a_t_i_o_n.html#a11328249616049976aeafd9ad80429bc" target="_top" xlink:title="Get the number of threads of the service by reading the values in the Registry.">
<polygon fill="none" stroke="black" points="114.5,-0.5 114.5,-30.5 278.5,-30.5 278.5,-0.5 114.5,-0.5"/>
<text text-anchor="start" x="122.5" y="-18.5" font-family="Helvetica,sans-Serif" font-size="10.00">U_CONFIGURATION::GetListener</text>
<text text-anchor="middle" x="196.5" y="-7.5" font-family="Helvetica,sans-Serif" font-size="10.00">Threads</text>
</a>
</g>
</g>
<!-- Node1&#45;&gt;Node6 -->
<g id="edge5" class="edge">
<title>Node1&#45;&gt;Node6</title>
<path fill="none" stroke="midnightblue" d="M27.82,-205.81C29.36,-176.19 38.2,-86.11 89,-40.5 93.82,-36.17 99.25,-32.55 105.04,-29.53"/>
<polygon fill="midnightblue" stroke="midnightblue" points="106.75,-32.59 114.4,-25.25 103.85,-26.23 106.75,-32.59"/>
</g>
<!-- Node7 -->
<g id="node7" class="node">
<title>Node7</title>
<g id="a_node7"><a xlink:href="class_u___c_o_n_f_i_g_u_r_a_t_i_o_n.html#a86c433a3d57e5800ad03a4411ace09d6" target="_top" xlink:title="Get the number of threads of the service by reading the values in the REGISTRY::">
<polygon fill="none" stroke="black" points="107,-137.5 107,-167.5 286,-167.5 286,-137.5 107,-137.5"/>
<text text-anchor="start" x="115" y="-155.5" font-family="Helvetica,sans-Serif" font-size="10.00">U_CONFIGURATION::GetMaxWorker</text>
<text text-anchor="middle" x="196.5" y="-144.5" font-family="Helvetica,sans-Serif" font-size="10.00">Threads</text>
</a>
</g>
</g>
<!-- Node1&#45;&gt;Node7 -->
<g id="edge7" class="edge">
<title>Node1&#45;&gt;Node7</title>
<path fill="none" stroke="midnightblue" d="M43.22,-205.83C55.38,-198.65 72.82,-189.03 89,-182.5 99.99,-178.06 111.88,-174.02 123.58,-170.44"/>
<polygon fill="midnightblue" stroke="midnightblue" points="124.76,-173.75 133.35,-167.55 122.77,-167.04 124.76,-173.75"/>
</g>
<!-- Node8 -->
<g id="node8" class="node">
<title>Node8</title>
<g id="a_node8"><a xlink:href="class_u___c_o_n_f_i_g_u_r_a_t_i_o_n.html#a3979610ba0d110c0e79481925f413ea0" target="_top" xlink:title="Get the number of threads of the service by reading the values in the Registry.">
<polygon fill="none" stroke="black" points="108.5,-88.5 108.5,-118.5 284.5,-118.5 284.5,-88.5 108.5,-88.5"/>
<text text-anchor="start" x="116.5" y="-106.5" font-family="Helvetica,sans-Serif" font-size="10.00">U_CONFIGURATION::GetMinWorker</text>
<text text-anchor="middle" x="196.5" y="-95.5" font-family="Helvetica,sans-Serif" font-size="10.00">Threads</text>
</a>
</g>
</g>
<!-- Node1&#45;&gt;Node8 -->
<g id="edge9" class="edge">
<title>Node1&#45;&gt;Node8</title>
<path fill="none" stroke="midnightblue" d="M31.41,-205.78C39.34,-187.39 59.13,-147.55 89,-127.5 92.18,-125.37 95.51,-123.42 98.97,-121.65"/>
<polygon fill="midnightblue" stroke="midnightblue" points="100.73,-124.69 108.35,-117.34 97.8,-118.33 100.73,-124.69"/>
</g>
<!-- Node9 -->
<g id="node9" class="node">
<title>Node9</title>
<g id="a_node9"><a xlink:href="class_u___c_o_n_t_r_o_l_l_e_r.html#a031d85cad5238299ce37dcac69a91ffc" target="_top" xlink:title="Start the service &quot;szServiceName&quot;.">
<polygon fill="none" stroke="black" points="560.5,-397 560.5,-416 722.5,-416 722.5,-397 560.5,-397"/>
<text text-anchor="middle" x="641.5" y="-404" font-family="Helvetica,sans-Serif" font-size="10.00">U_CONTROLLER::LaunchService</text>
</a>
</g>
</g>
<!-- Node1&#45;&gt;Node9 -->
<g id="edge11" class="edge">
<title>Node1&#45;&gt;Node9</title>
<path fill="none" stroke="midnightblue" d="M27.8,-225.23C29.29,-254.05 37.99,-339.3 89,-376.5 244.98,-490.26 496.73,-443.64 597.14,-418.54"/>
<polygon fill="midnightblue" stroke="midnightblue" points="598.11,-421.9 606.94,-416.04 596.38,-415.12 598.11,-421.9"/>
</g>
<!-- Node15 -->
<g id="node15" class="node">
<title>Node15</title>
<g id="a_node15"><a xlink:href="class_u___c_o_m_m_u_n_i_c_a_t_i_o_n.html#a1cbfbcf7e7e895608457abf405455e6a" target="_top" xlink:title="Thread listening message sends from kernel driver.">
<polygon fill="none" stroke="black" points="121,-263.5 121,-293.5 272,-293.5 272,-263.5 121,-263.5"/>
<text text-anchor="start" x="129" y="-281.5" font-family="Helvetica,sans-Serif" font-size="10.00">U_COMMUNICATION::Listener</text>
<text text-anchor="middle" x="196.5" y="-270.5" font-family="Helvetica,sans-Serif" font-size="10.00">Thread</text>
</a>
</g>
</g>
<!-- Node1&#45;&gt;Node15 -->
<g id="edge18" class="edge">
<title>Node1&#45;&gt;Node15</title>
<path fill="none" stroke="midnightblue" d="M40.5,-225.27C52.51,-233.86 71.14,-246.12 89,-253.5 96.1,-256.43 103.61,-259.06 111.22,-261.41"/>
<polygon fill="midnightblue" stroke="midnightblue" points="110.33,-264.8 120.91,-264.24 112.29,-258.08 110.33,-264.8"/>
</g>
<!-- Node23 -->
<g id="node23" class="node">
<title>Node23</title>
<g id="a_node23"><a xlink:href="class_u___c_o_n_t_r_o_l_l_e_r.html#a62de7b3a08b00dde2a3de3fa50ed52ea" target="_top" xlink:title="Receive signal send by the User / SC Manager, handle it, update service status.">
<polygon fill="none" stroke="black" points="115,-225 115,-244 278,-244 278,-225 115,-225"/>
<text text-anchor="middle" x="196.5" y="-232" font-family="Helvetica,sans-Serif" font-size="10.00">U_CONTROLLER::SvcCtrlHandler</text>
</a>
</g>
</g>
<!-- Node1&#45;&gt;Node23 -->
<g id="edge29" class="edge">
<title>Node1&#45;&gt;Node23</title>
<path fill="none" stroke="midnightblue" d="M53.02,-218.39C67.16,-219.99 85.71,-222.08 104.72,-224.23"/>
<polygon fill="midnightblue" stroke="midnightblue" points="104.35,-227.71 114.68,-225.36 105.13,-220.76 104.35,-227.71"/>
</g>
<!-- Node27 -->
<g id="node27" class="node">
<title>Node27</title>
<g id="a_node27"><a xlink:href="class_u___c_o_n_t_r_o_l_l_e_r.html#a01343cb31a17c7a8077472a59927415a" target="_top" xlink:title="Depending on the state of the service, it can receive order from the user space.">
<polygon fill="none" stroke="black" points="340,-100 340,-119 512,-119 512,-100 340,-100"/>
<text text-anchor="middle" x="426" y="-107" font-family="Helvetica,sans-Serif" font-size="10.00">U_CONTROLLER::SvcReportStatus</text>
</a>
</g>
</g>
<!-- Node1&#45;&gt;Node27 -->
<g id="edge38" class="edge">
<title>Node1&#45;&gt;Node27</title>
<path fill="none" stroke="midnightblue" d="M53.14,-214.37C113.33,-211.34 261.74,-201.47 304,-176.5 326.96,-162.93 317.6,-142.97 340,-128.5 343.17,-126.45 346.53,-124.62 350.02,-122.99"/>
<polygon fill="midnightblue" stroke="midnightblue" points="351.56,-126.14 359.48,-119.1 348.9,-119.66 351.56,-126.14"/>
</g>
<!-- Node2&#45;&gt;Node3 -->
<g id="edge2" class="edge">
<title>Node2&#45;&gt;Node3</title>
<path fill="none" stroke="midnightblue" d="M254.61,-332.04C285.99,-337.28 325.07,-343.81 357.89,-349.29"/>
<polygon fill="midnightblue" stroke="midnightblue" points="357.42,-352.76 367.86,-350.96 358.58,-345.86 357.42,-352.76"/>
</g>
<!-- Node5 -->
<g id="node5" class="node">
<title>Node5</title>
<g id="a_node5"><a xlink:href="class_u___r_e_g_i_s_t_r_y.html#ab8fcbe86de2429b471dcaa94d9025aa8" target="_top" xlink:title="Read the content (DWORD) of the registry key &quot;szSubKey&quot; located in the HIVE &quot;hKeyParent&quot;.">
<polygon fill="none" stroke="black" points="360.5,-56 360.5,-75 491.5,-75 491.5,-56 360.5,-56"/>
<text text-anchor="middle" x="426" y="-63" font-family="Helvetica,sans-Serif" font-size="10.00">U_REGISTRY::ReadValue</text>
</a>
</g>
</g>
<!-- Node4&#45;&gt;Node5 -->
<g id="edge4" class="edge">
<title>Node4&#45;&gt;Node5</title>
<path fill="none" stroke="midnightblue" d="M304.26,-62.32C319.83,-62.73 335.57,-63.14 350.32,-63.53"/>
<polygon fill="midnightblue" stroke="midnightblue" points="350.27,-67.03 360.36,-63.8 350.45,-60.03 350.27,-67.03"/>
</g>
<!-- Node6&#45;&gt;Node5 -->
<g id="edge6" class="edge">
<title>Node6&#45;&gt;Node5</title>
<path fill="none" stroke="midnightblue" d="M265.76,-30.5C299.65,-37.95 340,-46.82 371.6,-53.76"/>
<polygon fill="midnightblue" stroke="midnightblue" points="371.01,-57.22 381.53,-55.95 372.52,-50.38 371.01,-57.22"/>
</g>
<!-- Node7&#45;&gt;Node5 -->
<g id="edge8" class="edge">
<title>Node7&#45;&gt;Node5</title>
<path fill="none" stroke="midnightblue" d="M282.06,-137.43C289.71,-134.66 297.14,-131.38 304,-127.5 323.97,-116.2 320.35,-102.35 340,-90.5 348.31,-85.49 357.69,-81.43 367.1,-78.16"/>
<polygon fill="midnightblue" stroke="midnightblue" points="368.42,-81.41 376.88,-75.03 366.29,-74.74 368.42,-81.41"/>
</g>
<!-- Node8&#45;&gt;Node5 -->
<g id="edge10" class="edge">
<title>Node8&#45;&gt;Node5</title>
<path fill="none" stroke="midnightblue" d="M284.81,-88.92C309.04,-84.87 334.97,-80.54 357.85,-76.72"/>
<polygon fill="midnightblue" stroke="midnightblue" points="358.51,-80.16 367.79,-75.06 357.35,-73.25 358.51,-80.16"/>
</g>
<!-- Node10 -->
<g id="node10" class="node">
<title>Node10</title>
<g id="a_node10"><a xlink:href="class_u___c_o_n_t_r_o_l_l_e_r.html#a65733b52c6801a89b0c12d7836feef9c" target="_top" xlink:title="Get a handle to the Service Controller Database.">
<polygon fill="none" stroke="black" points="771,-85 771,-104 943,-104 943,-85 771,-85"/>
<text text-anchor="middle" x="857" y="-92" font-family="Helvetica,sans-Serif" font-size="10.00">U_CONTROLLER::_GetSCMHandle</text>
</a>
</g>
</g>
<!-- Node9&#45;&gt;Node10 -->
<g id="edge12" class="edge">
<title>Node9&#45;&gt;Node10</title>
<path fill="none" stroke="midnightblue" d="M665.62,-396.87C686.08,-387.36 715.61,-371.13 735,-349.5 800.87,-276.01 837.99,-160.33 850.82,-114.33"/>
<polygon fill="midnightblue" stroke="midnightblue" points="854.27,-115 853.51,-104.43 847.51,-113.17 854.27,-115"/>
</g>
<!-- Node11 -->
<g id="node11" class="node">
<title>Node11</title>
<g id="a_node11"><a xlink:href="class_u___c_o_n_t_r_o_l_l_e_r.html#a6cbf07b4ef4a8f7f1e148e7b6d5bcb5d" target="_top" xlink:title="Get a handle to the service.">
<polygon fill="none" stroke="black" points="781,-394.5 781,-424.5 933,-424.5 933,-394.5 781,-394.5"/>
<text text-anchor="start" x="789" y="-412.5" font-family="Helvetica,sans-Serif" font-size="10.00">U_CONTROLLER::_GetService</text>
<text text-anchor="middle" x="857" y="-401.5" font-family="Helvetica,sans-Serif" font-size="10.00">Handle</text>
</a>
</g>
</g>
<!-- Node9&#45;&gt;Node11 -->
<g id="edge13" class="edge">
<title>Node9&#45;&gt;Node11</title>
<path fill="none" stroke="midnightblue" d="M722.61,-407.63C738.23,-407.85 754.67,-408.08 770.47,-408.3"/>
<polygon fill="midnightblue" stroke="midnightblue" points="770.69,-411.8 780.74,-408.44 770.79,-404.8 770.69,-411.8"/>
</g>
<!-- Node12 -->
<g id="node12" class="node">
<title>Node12</title>
<g id="a_node12"><a xlink:href="class_u___u_t_i_l_i_t_a_i_r_e.html#ad0b0328deb4197e357bb5d74c3173775" target="_top" xlink:title="This routine will display an error message based off of the Win32 error code that is passed in.">
<polygon fill="none" stroke="black" points="788.5,-356 788.5,-375 925.5,-375 925.5,-356 788.5,-356"/>
<text text-anchor="middle" x="857" y="-363" font-family="Helvetica,sans-Serif" font-size="10.00">U_UTILITAIRE::DisplayError</text>
</a>
</g>
</g>
<!-- Node9&#45;&gt;Node12 -->
<g id="edge14" class="edge">
<title>Node9&#45;&gt;Node12</title>
<path fill="none" stroke="midnightblue" d="M692.02,-396.99C723.16,-391.01 763.54,-383.26 796.43,-376.94"/>
<polygon fill="midnightblue" stroke="midnightblue" points="797.22,-380.35 806.38,-375.03 795.9,-373.48 797.22,-380.35"/>
</g>
<!-- Node13 -->
<g id="node13" class="node">
<title>Node13</title>
<g id="a_node13"><a xlink:href="class_u___u_t_i_l_i_t_a_i_r_e.html#aa177d472a3d1e5f03fdb24d9181ab9a9" target="_top" xlink:title="Popup error message displaying the function that failed associated with the error code.">
<polygon fill="none" stroke="black" points="979,-337 979,-356 1135,-356 1135,-337 979,-337"/>
<text text-anchor="middle" x="1057" y="-344" font-family="Helvetica,sans-Serif" font-size="10.00">U_UTILITAIRE::DisplayMessage</text>
</a>
</g>
</g>
<!-- Node12&#45;&gt;Node13 -->
<g id="edge15" class="edge">
<title>Node12&#45;&gt;Node13</title>
<path fill="none" stroke="midnightblue" d="M925.59,-359.01C939.51,-357.68 954.37,-356.25 968.87,-354.86"/>
<polygon fill="midnightblue" stroke="midnightblue" points="969.22,-358.34 978.84,-353.9 968.56,-351.38 969.22,-358.34"/>
</g>
<!-- Node14 -->
<g id="node14" class="node">
<title>Node14</title>
<g id="a_node14"><a xlink:href="class_u___u_t_i_l_i_t_a_i_r_e.html#a20839968820f2161ef19972f7316a141" target="_top" xlink:title="Print error message in the terminal.">
<polygon fill="none" stroke="black" points="1171,-356 1171,-375 1315,-375 1315,-356 1171,-356"/>
<text text-anchor="middle" x="1243" y="-363" font-family="Helvetica,sans-Serif" font-size="10.00">U_UTILITAIRE::PrintMessage</text>
</a>
</g>
</g>
<!-- Node12&#45;&gt;Node14 -->
<g id="edge17" class="edge">
<title>Node12&#45;&gt;Node14</title>
<path fill="none" stroke="midnightblue" d="M925.77,-365.5C991.33,-365.5 1090.78,-365.5 1160.6,-365.5"/>
<polygon fill="midnightblue" stroke="midnightblue" points="1160.68,-369 1170.68,-365.5 1160.68,-362 1160.68,-369"/>
</g>
<!-- Node13&#45;&gt;Node14 -->
<g id="edge16" class="edge">
<title>Node13&#45;&gt;Node14</title>
<path fill="none" stroke="midnightblue" d="M1135.23,-354.48C1143.62,-355.34 1152.18,-356.23 1160.62,-357.1"/>
<polygon fill="midnightblue" stroke="midnightblue" points="1160.53,-360.61 1170.83,-358.15 1161.24,-353.64 1160.53,-360.61"/>
</g>
<!-- Node15&#45;&gt;Node3 -->
<g id="edge28" class="edge">
<title>Node15&#45;&gt;Node3</title>
<path fill="none" stroke="midnightblue" d="M272.04,-290.83C283.1,-294.11 294.09,-298.26 304,-303.5 323.19,-313.64 321.04,-325.93 340,-336.5 348.25,-341.1 357.45,-344.88 366.67,-347.96"/>
<polygon fill="midnightblue" stroke="midnightblue" points="365.65,-351.31 376.24,-350.92 367.73,-344.62 365.65,-351.31"/>
</g>
<!-- Node15&#45;&gt;Node12 -->
<g id="edge27" class="edge">
<title>Node15&#45;&gt;Node12</title>
<path fill="none" stroke="midnightblue" d="M272.26,-293.02C336.03,-305.51 430.14,-324.21 512,-341.5 528.04,-344.89 531.76,-347.29 548,-349.5 625.9,-360.1 715.76,-363.81 778.23,-365.04"/>
<polygon fill="midnightblue" stroke="midnightblue" points="778.34,-368.54 788.4,-365.22 778.47,-361.54 778.34,-368.54"/>
</g>
<!-- Node16 -->
<g id="node16" class="node">
<title>Node16</title>
<g id="a_node16"><a xlink:href="class_u___c_o_m_m_u_n_i_c_a_t_i_o_n.html#a3c8d63d47d80de606ed12566e913e2c2" target="_top" xlink:title="Creation of a thread pool used to create worker thread to check file signature.">
<polygon fill="none" stroke="black" points="351,-214.5 351,-244.5 501,-244.5 501,-214.5 351,-214.5"/>
<text text-anchor="start" x="359" y="-232.5" font-family="Helvetica,sans-Serif" font-size="10.00">U_COMMUNICATION::_Create</text>
<text text-anchor="middle" x="426" y="-221.5" font-family="Helvetica,sans-Serif" font-size="10.00">ThreadPool</text>
</a>
</g>
</g>
<!-- Node15&#45;&gt;Node16 -->
<g id="edge19" class="edge">
<title>Node15&#45;&gt;Node16</title>
<path fill="none" stroke="midnightblue" d="M267.3,-263.47C291.98,-258.15 319.92,-252.13 345.35,-246.66"/>
<polygon fill="midnightblue" stroke="midnightblue" points="346.29,-250.03 355.33,-244.51 344.82,-243.19 346.29,-250.03"/>
</g>
<!-- Node17 -->
<g id="node17" class="node">
<title>Node17</title>
<g id="a_node17"><a xlink:href="class_u___c_o_m_m_u_n_i_c_a_t_i_o_n.html#a87d0f531204d9141da9e181c20a18c59" target="_top" xlink:title="Worker thread used to check file signature.">
<polygon fill="none" stroke="black" points="349.5,-263.5 349.5,-293.5 502.5,-293.5 502.5,-263.5 349.5,-263.5"/>
<text text-anchor="start" x="357.5" y="-281.5" font-family="Helvetica,sans-Serif" font-size="10.00">U_COMMUNICATION::_Worker</text>
<text text-anchor="middle" x="426" y="-270.5" font-family="Helvetica,sans-Serif" font-size="10.00">Thread</text>
</a>
</g>
</g>
<!-- Node15&#45;&gt;Node17 -->
<g id="edge20" class="edge">
<title>Node15&#45;&gt;Node17</title>
<path fill="none" stroke="midnightblue" d="M272.31,-278.5C293.76,-278.5 317.31,-278.5 339.36,-278.5"/>
<polygon fill="midnightblue" stroke="midnightblue" points="339.37,-282 349.37,-278.5 339.37,-275 339.37,-282"/>
</g>
<!-- Node18 -->
<g id="node18" class="node">
<title>Node18</title>
<g id="a_node18"><a xlink:href="class_u___c_o_m_m_u_n_i_c_a_t_i_o_n.html#a6f2f0c62b6e4f1270d5c95c6e6521ee3" target="_top" xlink:title="Push a new message in the queue.">
<polygon fill="none" stroke="black" points="548,-260.5 548,-290.5 735,-290.5 735,-260.5 548,-260.5"/>
<text text-anchor="start" x="556" y="-278.5" font-family="Helvetica,sans-Serif" font-size="10.00">U_COMMUNICATION::_PumpMessage</text>
<text text-anchor="middle" x="641.5" y="-267.5" font-family="Helvetica,sans-Serif" font-size="10.00">InQueue</text>
</a>
</g>
</g>
<!-- Node17&#45;&gt;Node18 -->
<g id="edge21" class="edge">
<title>Node17&#45;&gt;Node18</title>
<path fill="none" stroke="midnightblue" d="M502.57,-277.44C513.89,-277.28 525.72,-277.11 537.49,-276.95"/>
<polygon fill="midnightblue" stroke="midnightblue" points="537.86,-280.44 547.81,-276.8 537.76,-273.44 537.86,-280.44"/>
</g>
<!-- Node19 -->
<g id="node19" class="node">
<title>Node19</title>
<g id="a_node19"><a xlink:href="class_u___c_o_m_m_u_n_i_c_a_t_i_o_n.html#ac7267746e2596819493bbf7fca1d4520" target="_top" xlink:title="Reply to the kernel driver.">
<polygon fill="none" stroke="black" points="568.5,-173 568.5,-192 714.5,-192 714.5,-173 568.5,-173"/>
<text text-anchor="middle" x="641.5" y="-180" font-family="Helvetica,sans-Serif" font-size="10.00">U_COMMUNICATION::_Reply</text>
</a>
</g>
</g>
<!-- Node17&#45;&gt;Node19 -->
<g id="edge23" class="edge">
<title>Node17&#45;&gt;Node19</title>
<path fill="none" stroke="midnightblue" d="M494.48,-263.42C500.68,-260.65 506.64,-257.37 512,-253.5 534.78,-237.04 524.55,-217 548,-201.5 551.37,-199.28 554.94,-197.3 558.65,-195.56"/>
<polygon fill="midnightblue" stroke="midnightblue" points="560.2,-198.7 568.11,-191.66 557.53,-192.23 560.2,-198.7"/>
</g>
<!-- Node20 -->
<g id="node20" class="node">
<title>Node20</title>
<g id="a_node20"><a xlink:href="class_u___u_t_i_l_i_t_a_i_r_e.html#adc2b6bd88871b96833fab5b34fb94d23" target="_top" xlink:title="Get the handle to a file by providing it&#39;s name.">
<polygon fill="none" stroke="black" points="565.5,-123.5 565.5,-153.5 717.5,-153.5 717.5,-123.5 565.5,-123.5"/>
<text text-anchor="start" x="573.5" y="-141.5" font-family="Helvetica,sans-Serif" font-size="10.00">U_UTILITAIRE::GetHandleFrom</text>
<text text-anchor="middle" x="641.5" y="-130.5" font-family="Helvetica,sans-Serif" font-size="10.00">FileName</text>
</a>
</g>
</g>
<!-- Node17&#45;&gt;Node20 -->
<g id="edge24" class="edge">
<title>Node17&#45;&gt;Node20</title>
<path fill="none" stroke="midnightblue" d="M497.94,-263.32C503.02,-260.57 507.79,-257.33 512,-253.5 543.87,-224.51 515.81,-192.14 548,-163.5 550.63,-161.16 553.45,-159.04 556.42,-157.11"/>
<polygon fill="midnightblue" stroke="midnightblue" points="558.16,-160.15 565.14,-152.19 554.71,-154.06 558.16,-160.15"/>
</g>
<!-- Node21 -->
<g id="node21" class="node">
<title>Node21</title>
<g id="a_node21"><a xlink:href="class_u___s_i_g_n_a_t_u_r_e.html#a4a2b43ca305cb41a3eab3b76d60cb6db" target="_top" xlink:title="Verify the signature of &#39;szFile&#39; by looking at catalogs files.">
<polygon fill="none" stroke="black" points="567.5,-309.5 567.5,-339.5 715.5,-339.5 715.5,-309.5 567.5,-309.5"/>
<text text-anchor="start" x="575.5" y="-327.5" font-family="Helvetica,sans-Serif" font-size="10.00">U_SIGNATURE::VerifyCatalog</text>
<text text-anchor="middle" x="641.5" y="-316.5" font-family="Helvetica,sans-Serif" font-size="10.00">Signature</text>
</a>
</g>
</g>
<!-- Node17&#45;&gt;Node21 -->
<g id="edge25" class="edge">
<title>Node17&#45;&gt;Node21</title>
<path fill="none" stroke="midnightblue" d="M496.91,-293.56C517.38,-297.97 539.91,-302.83 560.94,-307.36"/>
<polygon fill="midnightblue" stroke="midnightblue" points="560.29,-310.8 570.8,-309.48 561.76,-303.95 560.29,-310.8"/>
</g>
<!-- Node22 -->
<g id="node22" class="node">
<title>Node22</title>
<g id="a_node22"><a xlink:href="class_u___s_i_g_n_a_t_u_r_e.html#a08a76b9f115ae35af11c805c8a58ebb0" target="_top" xlink:title="Check if the file &quot;szFile&quot; is signed by a trusted authority.">
<polygon fill="none" stroke="black" points="561,-211.5 561,-241.5 722,-241.5 722,-211.5 561,-211.5"/>
<text text-anchor="start" x="569" y="-229.5" font-family="Helvetica,sans-Serif" font-size="10.00">U_SIGNATURE::VerifyEmbedded</text>
<text text-anchor="middle" x="641.5" y="-218.5" font-family="Helvetica,sans-Serif" font-size="10.00">Signature</text>
</a>
</g>
</g>
<!-- Node17&#45;&gt;Node22 -->
<g id="edge26" class="edge">
<title>Node17&#45;&gt;Node22</title>
<path fill="none" stroke="midnightblue" d="M488.75,-263.46C513.87,-257.34 543.05,-250.23 569.08,-243.89"/>
<polygon fill="midnightblue" stroke="midnightblue" points="570,-247.27 578.89,-241.51 568.34,-240.47 570,-247.27"/>
</g>
<!-- Node18&#45;&gt;Node12 -->
<g id="edge22" class="edge">
<title>Node18&#45;&gt;Node12</title>
<path fill="none" stroke="midnightblue" d="M705.83,-290.54C715.72,-293.48 725.73,-296.81 735,-300.5 770.21,-314.5 808.33,-336.17 832.18,-350.58"/>
<polygon fill="midnightblue" stroke="midnightblue" points="830.53,-353.68 840.88,-355.91 834.18,-347.7 830.53,-353.68"/>
</g>
<!-- Node23&#45;&gt;Node3 -->
<g id="edge35" class="edge">
<title>Node23&#45;&gt;Node3</title>
<path fill="none" stroke="midnightblue" d="M278.23,-241.98C287.32,-244.8 296.13,-248.55 304,-253.5 327.18,-268.08 320.32,-284.46 340,-303.5 357.51,-320.44 380.64,-335.58 398.36,-345.99"/>
<polygon fill="midnightblue" stroke="midnightblue" points="396.65,-349.05 407.07,-350.99 400.14,-342.98 396.65,-349.05"/>
</g>
<!-- Node24 -->
<g id="node24" class="node">
<title>Node24</title>
<g id="a_node24"><a xlink:href="class_u___c_o_m_m_u_n_i_c_a_t_i_o_n.html#a24b9f6b8b2ec28d44b96e46804ee7ddb" target="_top" xlink:title="Disconnect the client.">
<polygon fill="none" stroke="black" points="343.5,-176 343.5,-195 508.5,-195 508.5,-176 343.5,-176"/>
<text text-anchor="middle" x="426" y="-183" font-family="Helvetica,sans-Serif" font-size="10.00">U_COMMUNICATION::Disconnect</text>
</a>
</g>
</g>
<!-- Node23&#45;&gt;Node24 -->
<g id="edge30" class="edge">
<title>Node23&#45;&gt;Node24</title>
<path fill="none" stroke="midnightblue" d="M241.63,-224.99C278.48,-217.06 331.17,-205.71 370.62,-197.21"/>
<polygon fill="midnightblue" stroke="midnightblue" points="371.56,-200.59 380.6,-195.06 370.09,-193.75 371.56,-200.59"/>
</g>
<!-- Node25 -->
<g id="node25" class="node">
<title>Node25</title>
<g id="a_node25"><a xlink:href="class_u___c_o_n_t_r_o_l_l_e_r.html#a32bed2bf85d659bbaff8e1d3fcafa42e" target="_top" xlink:title="Stop the service &quot;szServiceName&quot;.">
<polygon fill="none" stroke="black" points="350.5,-138 350.5,-157 501.5,-157 501.5,-138 350.5,-138"/>
<text text-anchor="middle" x="426" y="-145" font-family="Helvetica,sans-Serif" font-size="10.00">U_CONTROLLER::StopService</text>
</a>
</g>
</g>
<!-- Node23&#45;&gt;Node25 -->
<g id="edge31" class="edge">
<title>Node23&#45;&gt;Node25</title>
<path fill="none" stroke="midnightblue" d="M270.22,-224.93C282.05,-221.49 293.76,-216.83 304,-210.5 325.5,-197.22 318.49,-179.76 340,-166.5 343.45,-164.37 347.11,-162.48 350.89,-160.81"/>
<polygon fill="midnightblue" stroke="midnightblue" points="352.48,-163.94 360.52,-157.05 349.93,-157.42 352.48,-163.94"/>
</g>
<!-- Node23&#45;&gt;Node27 -->
<g id="edge36" class="edge">
<title>Node23&#45;&gt;Node27</title>
<path fill="none" stroke="midnightblue" d="M278.11,-225.01C287.49,-221.48 296.39,-216.77 304,-210.5 334.71,-185.18 309.27,-153.79 340,-128.5 342.04,-126.82 344.2,-125.28 346.46,-123.87"/>
<polygon fill="midnightblue" stroke="midnightblue" points="348.36,-126.82 355.55,-119.05 345.08,-120.64 348.36,-126.82"/>
</g>
<!-- Node25&#45;&gt;Node10 -->
<g id="edge32" class="edge">
<title>Node25&#45;&gt;Node10</title>
<path fill="none" stroke="midnightblue" d="M476.38,-137.99C488.16,-135.31 500.61,-132.11 512,-128.5 528.52,-123.26 531.12,-117.42 548,-113.5 618.07,-97.23 699.37,-92.8 760.84,-92.26"/>
<polygon fill="midnightblue" stroke="midnightblue" points="760.94,-95.76 770.92,-92.21 760.9,-88.76 760.94,-95.76"/>
</g>
<!-- Node26 -->
<g id="node26" class="node">
<title>Node26</title>
<g id="a_node26"><a xlink:href="class_u___c_o_n_t_r_o_l_l_e_r.html#af55beae6c2742cab857466b32140a5dd" target="_top" xlink:title="Query the service &quot;szServiceName&quot; and return its state.">
<polygon fill="none" stroke="black" points="568.5,-35.5 568.5,-65.5 714.5,-65.5 714.5,-35.5 568.5,-35.5"/>
<text text-anchor="start" x="576.5" y="-53.5" font-family="Helvetica,sans-Serif" font-size="10.00">U_CONTROLLER::GetService</text>
<text text-anchor="middle" x="641.5" y="-42.5" font-family="Helvetica,sans-Serif" font-size="10.00">State</text>
</a>
</g>
</g>
<!-- Node25&#45;&gt;Node26 -->
<g id="edge33" class="edge">
<title>Node25&#45;&gt;Node26</title>
<path fill="none" stroke="midnightblue" d="M492.52,-137.9C499.39,-135.44 506.03,-132.36 512,-128.5 534.4,-114.03 526.3,-96 548,-80.5 553.85,-76.32 560.32,-72.69 567.04,-69.56"/>
<polygon fill="midnightblue" stroke="midnightblue" points="568.51,-72.74 576.32,-65.59 565.75,-66.31 568.51,-72.74"/>
</g>
<!-- Node26&#45;&gt;Node10 -->
<g id="edge34" class="edge">
<title>Node26&#45;&gt;Node10</title>
<path fill="none" stroke="midnightblue" d="M714.78,-65.4C742.44,-71.1 773.56,-77.51 799.53,-82.86"/>
<polygon fill="midnightblue" stroke="midnightblue" points="799.08,-86.34 809.58,-84.93 800.5,-79.49 799.08,-86.34"/>
</g>
</g>
</svg>
        <g id="navigator" transform="translate(0 0)" fill="#404254">
                <rect fill="#f2f5e9" fill-opacity="0.5" stroke="#606060" stroke-width=".5" x="0" y="0" width="60" height="60"/>
                <use id="zoomplus" xlink:href="#zoomPlus" x="17" y="9" onmousedown="handleZoom(evt,'in')"/>
                <use id="zoomminus" xlink:href="#zoomMin" x="42" y="9" onmousedown="handleZoom(evt,'out')"/>
                <use id="reset" xlink:href="#resetDef" x="30" y="36" onmousedown="handleReset()"/>
                <g id="arrowUp" xlink:href="#dirArrow" transform="translate(30 24)" onmousedown="handlePan(0,-1)">
                  <use xlink:href="#rim" fill="#404040">
                        <set attributeName="fill" to="#808080" begin="arrowUp.mouseover" end="arrowUp.mouseout"/>
                  </use>
                  <path fill="none" stroke="white" stroke-width="1.5" d="M0,-3.0v7 M-2.5,-0.5L0,-3.0L2.5,-0.5"/>
                </g>
                <g id="arrowRight" xlink:href="#dirArrow" transform="rotate(90) translate(36 -43)" onmousedown="handlePan(1,0)">
                  <use xlink:href="#rim" fill="#404040">
                        <set attributeName="fill" to="#808080" begin="arrowRight.mouseover" end="arrowRight.mouseout"/>
                  </use>
                  <path fill="none" stroke="white" stroke-width="1.5" d="M0,-3.0v7 M-2.5,-0.5L0,-3.0L2.5,-0.5"/>
                </g>
                <g id="arrowDown" xlink:href="#dirArrow" transform="rotate(180) translate(-30 -48)" onmousedown="handlePan(0,1)">
                  <use xlink:href="#rim" fill="#404040">
                        <set attributeName="fill" to="#808080" begin="arrowDown.mouseover" end="arrowDown.mouseout"/>
                  </use>
                  <path fill="none" stroke="white" stroke-width="1.5" d="M0,-3.0v7 M-2.5,-0.5L0,-3.0L2.5,-0.5"/>
                </g>
                <g id="arrowLeft" xlink:href="#dirArrow" transform="rotate(270) translate(-36 17)" onmousedown="handlePan(-1,0)">
                  <use xlink:href="#rim" fill="#404040">
                        <set attributeName="fill" to="#808080" begin="arrowLeft.mouseover" end="arrowLeft.mouseout"/>
                  </use>
                  <path fill="none" stroke="white" stroke-width="1.5" d="M0,-3.0v7 M-2.5,-0.5L0,-3.0L2.5,-0.5"/>
                </g>
        </g>
        <svg viewBox="0 0 15 15" width="100%" height="30px" preserveAspectRatio="xMaxYMin meet">
         <g id="arrow_out" transform="scale(0.3 0.3)">
          <a xlink:href="_u___service_8hpp_a2ef7fa664545ef1bfd08460f37d2140a_cgraph_org.svg" target="_base">
           <rect id="button" ry="5" rx="5" y="6" x="6" height="38" width="38"
                fill="#f2f5e9" fill-opacity="0.5" stroke="#606060" stroke-width="1.0"/>
           <path id="arrow"
             d="M 11.500037,31.436501 C 11.940474,20.09759 22.043105,11.32322 32.158766,21.979434 L 37.068811,17.246167 C 37.068811,17.246167 37.088388,32 37.088388,32 L 22.160133,31.978069 C 22.160133,31.978069 26.997745,27.140456 26.997745,27.140456 C 18.528582,18.264221 13.291696,25.230495 11.500037,31.436501 z"
             style="fill:#404040;"/>
          </a>
         </g>
        </svg>
</svg>
