<?xml version="1.0" encoding="UTF-8" standalone="no"?>
<!DOCTYPE svg PUBLIC "-//W3C//DTD SVG 1.1//EN"
 "http://www.w3.org/Graphics/SVG/1.1/DTD/svg11.dtd">
<!-- Generated by graphviz version 5.0.0 (20220707.1540)
 -->
<!-- Title: C:/Users/Gshoo/Desktop/pi&#45;defender&#45;tmp/Sources/PI&#45;Defender_UM/U_Service.hpp Pages: 1 -->
<svg width="758pt" height="362pt"
 viewBox="0.00 0.00 758.00 362.00" xmlns="http://www.w3.org/2000/svg" xmlns:xlink="http://www.w3.org/1999/xlink">
<g id="graph0" class="graph" transform="scale(1 1) rotate(0) translate(4 358)">
<title>C:/Users/Gshoo/Desktop/pi&#45;defender&#45;tmp/Sources/PI&#45;Defender_UM/U_Service.hpp</title>
<!-- Node1 -->
<g id="node1" class="node">
<title>Node1</title>
<g id="a_node1"><a xlink:title="Header for U_Service.cpp.">
<polygon fill="#bfbfbf" stroke="black" points="145,-312.5 145,-353.5 300,-353.5 300,-312.5 145,-312.5"/>
<text text-anchor="start" x="153" y="-341.5" font-family="Helvetica,sans-Serif" font-size="10.00">C:/Users/Gshoo/Desktop</text>
<text text-anchor="start" x="153" y="-330.5" font-family="Helvetica,sans-Serif" font-size="10.00">/pi&#45;defender&#45;tmp/Sources</text>
<text text-anchor="middle" x="222.5" y="-319.5" font-family="Helvetica,sans-Serif" font-size="10.00">/PI&#45;Defender_UM/U_Service.hpp</text>
</a>
</g>
</g>
<!-- Node2 -->
<g id="node2" class="node">
<title>Node2</title>
<g id="a_node2"><a xlink:href="_u___communication_8hpp.html" target="_top" xlink:title="Header for U_Communication.cpp.">
<polygon fill="none" stroke="black" points="0,-78.5 0,-119.5 191,-119.5 191,-78.5 0,-78.5"/>
<text text-anchor="start" x="8" y="-107.5" font-family="Helvetica,sans-Serif" font-size="10.00">C:/Users/Gshoo/Desktop</text>
<text text-anchor="start" x="8" y="-96.5" font-family="Helvetica,sans-Serif" font-size="10.00">/pi&#45;defender&#45;tmp/Sources</text>
<text text-anchor="middle" x="95.5" y="-85.5" font-family="Helvetica,sans-Serif" font-size="10.00">/PI&#45;Defender_UM/U_Communication.hpp</text>
</a>
</g>
</g>
<!-- Node1&#45;&gt;Node2 -->
<g id="edge1" class="edge">
<title>Node1&#45;&gt;Node2</title>
<path fill="none" stroke="midnightblue" d="M195.73,-303.84C189.77,-295.01 183.76,-285.18 178.5,-276 146.54,-220.2 112.32,-152.29 99.57,-119.53"/>
<polygon fill="midnightblue" stroke="midnightblue" points="193.04,-306.09 201.65,-312.27 198.77,-302.07 193.04,-306.09"/>
</g>
<!-- Node4 -->
<g id="node4" class="node">
<title>Node4</title>
<g id="a_node4"><a xlink:href="_u___configuration_8hpp.html" target="_top" xlink:title="Header for U_Configuration.cpp.">
<polygon fill="none" stroke="black" points="209.5,-78.5 209.5,-119.5 389.5,-119.5 389.5,-78.5 209.5,-78.5"/>
<text text-anchor="start" x="217.5" y="-107.5" font-family="Helvetica,sans-Serif" font-size="10.00">C:/Users/Gshoo/Desktop</text>
<text text-anchor="start" x="217.5" y="-96.5" font-family="Helvetica,sans-Serif" font-size="10.00">/pi&#45;defender&#45;tmp/Sources</text>
<text text-anchor="middle" x="299.5" y="-85.5" font-family="Helvetica,sans-Serif" font-size="10.00">/PI&#45;Defender_UM/U_Configuration.hpp</text>
</a>
</g>
</g>
<!-- Node1&#45;&gt;Node4 -->
<g id="edge4" class="edge">
<title>Node1&#45;&gt;Node4</title>
<path fill="none" stroke="midnightblue" d="M203.38,-303.35C186.11,-266.64 167.94,-202.24 194.5,-156 203.68,-140.02 219.37,-128.17 235.9,-119.59"/>
<polygon fill="midnightblue" stroke="midnightblue" points="200.35,-305.12 207.95,-312.49 206.61,-301.99 200.35,-305.12"/>
</g>
<!-- Node6 -->
<g id="node6" class="node">
<title>Node6</title>
<g id="a_node6"><a xlink:href="_u___helper_8hpp.html" target="_top" xlink:title="Header for U_Helper.cpp.">
<polygon fill="none" stroke="black" points="250.5,-234.5 250.5,-275.5 402.5,-275.5 402.5,-234.5 250.5,-234.5"/>
<text text-anchor="start" x="258.5" y="-263.5" font-family="Helvetica,sans-Serif" font-size="10.00">C:/Users/Gshoo/Desktop</text>
<text text-anchor="start" x="258.5" y="-252.5" font-family="Helvetica,sans-Serif" font-size="10.00">/pi&#45;defender&#45;tmp/Sources</text>
<text text-anchor="middle" x="326.5" y="-241.5" font-family="Helvetica,sans-Serif" font-size="10.00">/PI&#45;Defender_UM/U_Helper.hpp</text>
</a>
</g>
</g>
<!-- Node1&#45;&gt;Node6 -->
<g id="edge7" class="edge">
<title>Node1&#45;&gt;Node6</title>
<path fill="none" stroke="midnightblue" d="M251.55,-306.06C264.71,-296.06 280.26,-284.8 293.83,-275.51"/>
<polygon fill="midnightblue" stroke="midnightblue" points="249.08,-303.55 243.29,-312.43 253.35,-309.1 249.08,-303.55"/>
</g>
<!-- Node12 -->
<g id="node12" class="node">
<title>Node12</title>
<g id="a_node12"><a xlink:href="_u___service_8cpp.html" target="_top" xlink:title="Entrypoint of the process &amp; the service.">
<polygon fill="none" stroke="black" points="459,-234.5 459,-275.5 614,-275.5 614,-234.5 459,-234.5"/>
<text text-anchor="start" x="467" y="-263.5" font-family="Helvetica,sans-Serif" font-size="10.00">C:/Users/Gshoo/Desktop</text>
<text text-anchor="start" x="467" y="-252.5" font-family="Helvetica,sans-Serif" font-size="10.00">/pi&#45;defender&#45;tmp/Sources</text>
<text text-anchor="middle" x="536.5" y="-241.5" font-family="Helvetica,sans-Serif" font-size="10.00">/PI&#45;Defender_UM/U_Service.cpp</text>
</a>
</g>
</g>
<!-- Node1&#45;&gt;Node12 -->
<g id="edge20" class="edge">
<title>Node1&#45;&gt;Node12</title>
<path fill="none" stroke="midnightblue" d="M309.93,-310.84C356.7,-299.52 413.79,-285.7 458.96,-274.77"/>
<polygon fill="midnightblue" stroke="midnightblue" points="309.01,-307.46 300.12,-313.21 310.66,-314.26 309.01,-307.46"/>
</g>
<!-- Node2&#45;&gt;Node1 -->
<g id="edge3" class="edge">
<title>Node2&#45;&gt;Node1</title>
<path fill="none" stroke="midnightblue" d="M115.75,-128.28C135.92,-163.35 167.16,-224.78 196.5,-276 203.51,-288.24 211.86,-301.64 217.65,-312.27"/>
<polygon fill="midnightblue" stroke="midnightblue" points="118.7,-126.39 110.61,-119.53 112.66,-129.93 118.7,-126.39"/>
</g>
<!-- Node3 -->
<g id="node3" class="node">
<title>Node3</title>
<g id="a_node3"><a xlink:href="_u___communication_8cpp.html" target="_top" xlink:title="Manage the communication with the driver (Connect|Reply|ListenerThread|WorkerThread)">
<polygon fill="none" stroke="black" points="0,-0.5 0,-41.5 191,-41.5 191,-0.5 0,-0.5"/>
<text text-anchor="start" x="8" y="-29.5" font-family="Helvetica,sans-Serif" font-size="10.00">C:/Users/Gshoo/Desktop</text>
<text text-anchor="start" x="8" y="-18.5" font-family="Helvetica,sans-Serif" font-size="10.00">/pi&#45;defender&#45;tmp/Sources</text>
<text text-anchor="middle" x="95.5" y="-7.5" font-family="Helvetica,sans-Serif" font-size="10.00">/PI&#45;Defender_UM/U_Communication.cpp</text>
</a>
</g>
</g>
<!-- Node2&#45;&gt;Node3 -->
<g id="edge2" class="edge">
<title>Node2&#45;&gt;Node3</title>
<path fill="none" stroke="midnightblue" d="M95.5,-68.3C95.5,-59.3 95.5,-49.65 95.5,-41.51"/>
<polygon fill="midnightblue" stroke="midnightblue" points="92,-68.43 95.5,-78.43 99,-68.43 92,-68.43"/>
</g>
<!-- Node4&#45;&gt;Node1 -->
<g id="edge6" class="edge">
<title>Node4&#45;&gt;Node1</title>
<path fill="none" stroke="midnightblue" d="M244.03,-124.89C231.59,-132.87 219.92,-143.09 212.5,-156 183.57,-206.37 207.71,-278.3 218.71,-312.49"/>
<polygon fill="midnightblue" stroke="midnightblue" points="245.91,-127.85 252.72,-119.73 242.34,-121.83 245.91,-127.85"/>
</g>
<!-- Node5 -->
<g id="node5" class="node">
<title>Node5</title>
<g id="a_node5"><a xlink:href="_u___configuration_8cpp.html" target="_top" xlink:title="Set all the needed configuration for the driver and the user&#45;mode service.">
<polygon fill="none" stroke="black" points="209.5,-0.5 209.5,-41.5 389.5,-41.5 389.5,-0.5 209.5,-0.5"/>
<text text-anchor="start" x="217.5" y="-29.5" font-family="Helvetica,sans-Serif" font-size="10.00">C:/Users/Gshoo/Desktop</text>
<text text-anchor="start" x="217.5" y="-18.5" font-family="Helvetica,sans-Serif" font-size="10.00">/pi&#45;defender&#45;tmp/Sources</text>
<text text-anchor="middle" x="299.5" y="-7.5" font-family="Helvetica,sans-Serif" font-size="10.00">/PI&#45;Defender_UM/U_Configuration.cpp</text>
</a>
</g>
</g>
<!-- Node4&#45;&gt;Node5 -->
<g id="edge5" class="edge">
<title>Node4&#45;&gt;Node5</title>
<path fill="none" stroke="midnightblue" d="M299.5,-68.3C299.5,-59.3 299.5,-49.65 299.5,-41.51"/>
<polygon fill="midnightblue" stroke="midnightblue" points="296,-68.43 299.5,-78.43 303,-68.43 296,-68.43"/>
</g>
<!-- Node6&#45;&gt;Node1 -->
<g id="edge19" class="edge">
<title>Node6&#45;&gt;Node1</title>
<path fill="none" stroke="midnightblue" d="M297.54,-281.86C284.39,-291.87 268.84,-303.12 255.27,-312.43"/>
<polygon fill="midnightblue" stroke="midnightblue" points="300.01,-284.38 305.79,-275.51 295.73,-278.84 300.01,-284.38"/>
</g>
<!-- Node6&#45;&gt;Node4 -->
<g id="edge8" class="edge">
<title>Node6&#45;&gt;Node4</title>
<path fill="none" stroke="midnightblue" d="M351.32,-226.38C357.5,-217.87 363.27,-208.07 366.5,-198 372.2,-180.22 374.41,-172.91 366.5,-156 359.57,-141.17 346.56,-128.88 333.84,-119.64"/>
<polygon fill="midnightblue" stroke="midnightblue" points="348.44,-224.38 345.09,-234.43 353.98,-228.67 348.44,-224.38"/>
</g>
<!-- Node7 -->
<g id="node7" class="node">
<title>Node7</title>
<g id="a_node7"><a xlink:href="_u___controller_8hpp.html" target="_top" xlink:title="Header for U_Controller.cpp.">
<polygon fill="none" stroke="black" points="585,-156.5 585,-197.5 750,-197.5 750,-156.5 585,-156.5"/>
<text text-anchor="start" x="593" y="-185.5" font-family="Helvetica,sans-Serif" font-size="10.00">C:/Users/Gshoo/Desktop</text>
<text text-anchor="start" x="593" y="-174.5" font-family="Helvetica,sans-Serif" font-size="10.00">/pi&#45;defender&#45;tmp/Sources</text>
<text text-anchor="middle" x="667.5" y="-163.5" font-family="Helvetica,sans-Serif" font-size="10.00">/PI&#45;Defender_UM/U_Controller.hpp</text>
</a>
</g>
</g>
<!-- Node6&#45;&gt;Node7 -->
<g id="edge9" class="edge">
<title>Node6&#45;&gt;Node7</title>
<path fill="none" stroke="midnightblue" d="M412.62,-234.81C465.41,-223.04 532.62,-208.06 584.77,-196.44"/>
<polygon fill="midnightblue" stroke="midnightblue" points="411.6,-231.45 402.6,-237.04 413.12,-238.28 411.6,-231.45"/>
</g>
<!-- Node9 -->
<g id="node9" class="node">
<title>Node9</title>
<g id="a_node9"><a xlink:href="_u___helper_8cpp.html" target="_top" xlink:title="Help function used by several .cpp files.">
<polygon fill="none" stroke="black" points="414.5,-156.5 414.5,-197.5 566.5,-197.5 566.5,-156.5 414.5,-156.5"/>
<text text-anchor="start" x="422.5" y="-185.5" font-family="Helvetica,sans-Serif" font-size="10.00">C:/Users/Gshoo/Desktop</text>
<text text-anchor="start" x="422.5" y="-174.5" font-family="Helvetica,sans-Serif" font-size="10.00">/pi&#45;defender&#45;tmp/Sources</text>
<text text-anchor="middle" x="490.5" y="-163.5" font-family="Helvetica,sans-Serif" font-size="10.00">/PI&#45;Defender_UM/U_Helper.cpp</text>
</a>
</g>
</g>
<!-- Node6&#45;&gt;Node9 -->
<g id="edge12" class="edge">
<title>Node6&#45;&gt;Node9</title>
<path fill="none" stroke="midnightblue" d="M377.88,-230.19C400.57,-219.67 426.91,-207.47 448.41,-197.51"/>
<polygon fill="midnightblue" stroke="midnightblue" points="376.34,-227.05 368.73,-234.43 379.28,-233.4 376.34,-227.05"/>
</g>
<!-- Node10 -->
<g id="node10" class="node">
<title>Node10</title>
<g id="a_node10"><a xlink:href="_u___logs_8hpp.html" target="_top" xlink:title="Header for U_Logs.cpp.">
<polygon fill="none" stroke="black" points="213,-156.5 213,-197.5 358,-197.5 358,-156.5 213,-156.5"/>
<text text-anchor="start" x="221" y="-185.5" font-family="Helvetica,sans-Serif" font-size="10.00">C:/Users/Gshoo/Desktop</text>
<text text-anchor="start" x="221" y="-174.5" font-family="Helvetica,sans-Serif" font-size="10.00">/pi&#45;defender&#45;tmp/Sources</text>
<text text-anchor="middle" x="285.5" y="-163.5" font-family="Helvetica,sans-Serif" font-size="10.00">/PI&#45;Defender_UM/U_Logs.hpp</text>
</a>
</g>
</g>
<!-- Node6&#45;&gt;Node10 -->
<g id="edge13" class="edge">
<title>Node6&#45;&gt;Node10</title>
<path fill="none" stroke="midnightblue" d="M304.72,-225.76C299.25,-216.35 293.9,-206.1 290.04,-197.51"/>
<polygon fill="midnightblue" stroke="midnightblue" points="301.79,-227.68 309.95,-234.43 307.78,-224.06 301.79,-227.68"/>
</g>
<!-- Node7&#45;&gt;Node1 -->
<g id="edge11" class="edge">
<title>Node7&#45;&gt;Node1</title>
<path fill="none" stroke="midnightblue" d="M575,-199.31C521.17,-212.16 461.75,-227.3 450.5,-234 428.62,-247.04 433.15,-262.57 411.5,-276 377.91,-296.84 336.16,-310.27 300.45,-318.74"/>
<polygon fill="midnightblue" stroke="midnightblue" points="576.05,-202.66 584.97,-196.94 574.43,-195.85 576.05,-202.66"/>
</g>
<!-- Node8 -->
<g id="node8" class="node">
<title>Node8</title>
<g id="a_node8"><a xlink:href="_u___controller_8cpp.html" target="_top" xlink:title="Controll the service/driver (Install|Start|Stop|Delete|Query)">
<polygon fill="none" stroke="black" points="585,-78.5 585,-119.5 750,-119.5 750,-78.5 585,-78.5"/>
<text text-anchor="start" x="593" y="-107.5" font-family="Helvetica,sans-Serif" font-size="10.00">C:/Users/Gshoo/Desktop</text>
<text text-anchor="start" x="593" y="-96.5" font-family="Helvetica,sans-Serif" font-size="10.00">/pi&#45;defender&#45;tmp/Sources</text>
<text text-anchor="middle" x="667.5" y="-85.5" font-family="Helvetica,sans-Serif" font-size="10.00">/PI&#45;Defender_UM/U_Controller.cpp</text>
</a>
</g>
</g>
<!-- Node7&#45;&gt;Node8 -->
<g id="edge10" class="edge">
<title>Node7&#45;&gt;Node8</title>
<path fill="none" stroke="midnightblue" d="M667.5,-146.3C667.5,-137.3 667.5,-127.65 667.5,-119.51"/>
<polygon fill="midnightblue" stroke="midnightblue" points="664,-146.43 667.5,-156.43 671,-146.43 664,-146.43"/>
</g>
<!-- Node10&#45;&gt;Node1 -->
<g id="edge18" class="edge">
<title>Node10&#45;&gt;Node1</title>
<path fill="none" stroke="midnightblue" d="M259.69,-205.5C252.85,-214.08 246.1,-223.94 241.5,-234 229.83,-259.53 225.32,-292 223.58,-312.39"/>
<polygon fill="midnightblue" stroke="midnightblue" points="262.48,-207.62 266.21,-197.71 257.11,-203.13 262.48,-207.62"/>
</g>
<!-- Node10&#45;&gt;Node2 -->
<g id="edge14" class="edge">
<title>Node10&#45;&gt;Node2</title>
<path fill="none" stroke="midnightblue" d="M227.02,-152.61C200.5,-142 169.5,-129.6 144.26,-119.51"/>
<polygon fill="midnightblue" stroke="midnightblue" points="225.99,-155.96 236.57,-156.43 228.59,-149.46 225.99,-155.96"/>
</g>
<!-- Node10&#45;&gt;Node4 -->
<g id="edge15" class="edge">
<title>Node10&#45;&gt;Node4</title>
<path fill="none" stroke="midnightblue" d="M290.92,-146.59C292.59,-137.51 294.39,-127.74 295.91,-119.51"/>
<polygon fill="midnightblue" stroke="midnightblue" points="287.47,-145.96 289.11,-156.43 294.36,-147.23 287.47,-145.96"/>
</g>
<!-- Node10&#45;&gt;Node6 -->
<g id="edge16" class="edge">
<title>Node10&#45;&gt;Node6</title>
<path fill="none" stroke="midnightblue" d="M307.24,-206.17C312.71,-215.57 318.06,-225.83 321.93,-234.43"/>
<polygon fill="midnightblue" stroke="midnightblue" points="310.17,-204.25 302.01,-197.51 304.18,-207.87 310.17,-204.25"/>
</g>
<!-- Node11 -->
<g id="node11" class="node">
<title>Node11</title>
<g id="a_node11"><a xlink:href="_u___logs_8cpp.html" target="_top" xlink:title="Report Event to ETW.">
<polygon fill="none" stroke="black" points="408,-78.5 408,-119.5 553,-119.5 553,-78.5 408,-78.5"/>
<text text-anchor="start" x="416" y="-107.5" font-family="Helvetica,sans-Serif" font-size="10.00">C:/Users/Gshoo/Desktop</text>
<text text-anchor="start" x="416" y="-96.5" font-family="Helvetica,sans-Serif" font-size="10.00">/pi&#45;defender&#45;tmp/Sources</text>
<text text-anchor="middle" x="480.5" y="-85.5" font-family="Helvetica,sans-Serif" font-size="10.00">/PI&#45;Defender_UM/U_Logs.cpp</text>
</a>
</g>
</g>
<!-- Node10&#45;&gt;Node11 -->
<g id="edge17" class="edge">
<title>Node10&#45;&gt;Node11</title>
<path fill="none" stroke="midnightblue" d="M345.16,-152.75C372.46,-142.11 404.44,-129.65 430.45,-119.51"/>
<polygon fill="midnightblue" stroke="midnightblue" points="343.76,-149.54 335.72,-156.43 346.31,-156.06 343.76,-149.54"/>
</g>
</g>
</svg>
