<?xml version="1.0" encoding="UTF-8" standalone="no"?>
<!DOCTYPE svg PUBLIC "-//W3C//DTD SVG 1.1//EN"
 "http://www.w3.org/Graphics/SVG/1.1/DTD/svg11.dtd">
<!-- Generated by graphviz version 4.0.0 (20220529.0937)
 -->
<!-- Title: C:/Users/admin&#45;cyb/Desktop/PI&#45;Defender/Sources/PI&#45;Defender_UM/U_Configuration.hpp Pages: 1 -->
<!--zoomable 397 -->
<svg id="main" version="1.1" xmlns="http://www.w3.org/2000/svg" xmlns:xlink="http://www.w3.org/1999/xlink" xml:space="preserve" onload="init(evt)">
<style type="text/css"><![CDATA[
.edge:hover path { stroke: red; }
.edge:hover polygon { stroke: red; fill: red; }
]]></style>
<script type="text/javascript"><![CDATA[
var edges = document.getElementsByTagName('g');
if (edges && edges.length) {
  for (var i=0;i<edges.length;i++) {
    if (edges[i].id.substr(0,4)=='edge') {
      edges[i].setAttribute('class','edge');
    }
  }
}
]]></script>
        <defs>
                <circle id="rim" cx="0" cy="0" r="7"/>
                <circle id="rim2" cx="0" cy="0" r="3.5"/>
                <g id="zoomPlus">
                        <use xlink:href="#rim" fill="#404040">
                                <set attributeName="fill" to="#808080" begin="zoomplus.mouseover" end="zoomplus.mouseout"/>
                        </use>
                        <path d="M-4,0h8M0,-4v8" fill="none" stroke="white" stroke-width="1.5" pointer-events="none"/>
                </g>
                <g id="zoomMin">
                        <use xlink:href="#rim" fill="#404040">
                                <set attributeName="fill" to="#808080" begin="zoomminus.mouseover" end="zoomminus.mouseout"/>
                        </use>
                        <path d="M-4,0h8" fill="none" stroke="white" stroke-width="1.5" pointer-events="none"/>
                </g>
                <g id="dirArrow">
                        <path fill="none" stroke="white" stroke-width="1.5" d="M0,-3.0v7 M-2.5,-0.5L0,-3.0L2.5,-0.5"/>
                </g>
               <g id="resetDef">
                       <use xlink:href="#rim2" fill="#404040">
                               <set attributeName="fill" to="#808080" begin="reset.mouseover" end="reset.mouseout"/>
                       </use>
               </g>
        </defs>

<script type="text/javascript">
var viewWidth = 918;
var viewHeight = 397;
var sectionId = 'dynsection-0';
</script>
<script xlink:href="svgpan.js"/>
<svg id="graph" class="graph">
<g id="viewport">
<title>C:/Users/admin&#45;cyb/Desktop/PI&#45;Defender/Sources/PI&#45;Defender_UM/U_Configuration.hpp</title>
<!-- Node1 -->
<g id="node1" class="node">
<title>Node1</title>
<g id="a_node1"><a xlink:title="Header for U_Configuration.cpp.">
<polygon fill="#bfbfbf" stroke="black" points="304.5,-336.5 304.5,-388.5 431.5,-388.5 431.5,-336.5 304.5,-336.5"/>
<text text-anchor="start" x="312.5" y="-376.5" font-family="Helvetica,sans-Serif" font-size="10.00">C:/Users/admin&#45;cyb</text>
<text text-anchor="start" x="312.5" y="-365.5" font-family="Helvetica,sans-Serif" font-size="10.00">/Desktop/PI&#45;Defender</text>
<text text-anchor="start" x="312.5" y="-354.5" font-family="Helvetica,sans-Serif" font-size="10.00">/Sources/PI&#45;Defender</text>
<text text-anchor="middle" x="368" y="-343.5" font-family="Helvetica,sans-Serif" font-size="10.00">_UM/U_Configuration.hpp</text>
</a>
</g>
</g>
<!-- Node2 -->
<g id="node2" class="node">
<title>Node2</title>
<g id="a_node2"><a xlink:href="_u___global_header_8hpp.html" target="_top" xlink:title="Header used by several .hpp files.">
<polygon fill="none" stroke="black" points="163,-56.5 163,-75.5 269,-75.5 269,-56.5 163,-56.5"/>
<text text-anchor="middle" x="216" y="-63.5" font-family="Helvetica,sans-Serif" font-size="10.00">U_GlobalHeader.hpp</text>
</a>
</g>
</g>
<!-- Node1&#45;&gt;Node2 -->
<g id="edge1" class="edge">
<title>Node1&#45;&gt;Node2</title>
<path fill="none" stroke="midnightblue" d="M304.32,-352.97C198.99,-337.06 0,-298.59 0,-235 0,-235 0,-235 0,-177 0,-107.79 89.14,-82.11 152.89,-72.59"/>
<polygon fill="midnightblue" stroke="midnightblue" points="153.46,-76.04 162.88,-71.2 152.5,-69.11 153.46,-76.04"/>
</g>
<!-- Node8 -->
<g id="node8" class="node">
<title>Node8</title>
<g id="a_node8"><a xlink:title=" ">
<polygon fill="none" stroke="#bfbfbf" points="775,-56.5 775,-75.5 837,-75.5 837,-56.5 775,-56.5"/>
<text text-anchor="middle" x="806" y="-63.5" font-family="Helvetica,sans-Serif" font-size="10.00">PathCch.h</text>
</a>
</g>
</g>
<!-- Node1&#45;&gt;Node8 -->
<g id="edge7" class="edge">
<title>Node1&#45;&gt;Node8</title>
<path fill="none" stroke="midnightblue" d="M431.69,-356.43C553.17,-345 806,-311.97 806,-235 806,-235 806,-235 806,-177 806,-144.95 806,-107.64 806,-85.75"/>
<polygon fill="midnightblue" stroke="midnightblue" points="809.5,-85.56 806,-75.56 802.5,-85.56 809.5,-85.56"/>
</g>
<!-- Node9 -->
<g id="node9" class="node">
<title>Node9</title>
<g id="a_node9"><a xlink:title=" ">
<polygon fill="none" stroke="#bfbfbf" points="834,-280.5 834,-299.5 910,-299.5 910,-280.5 834,-280.5"/>
<text text-anchor="middle" x="872" y="-287.5" font-family="Helvetica,sans-Serif" font-size="10.00">Shlobj_core.h</text>
</a>
</g>
</g>
<!-- Node1&#45;&gt;Node9 -->
<g id="edge8" class="edge">
<title>Node1&#45;&gt;Node9</title>
<path fill="none" stroke="midnightblue" d="M431.73,-353.57C519.35,-342.49 681.86,-321.35 820,-300 821.27,-299.8 822.56,-299.6 823.87,-299.39"/>
<polygon fill="midnightblue" stroke="midnightblue" points="824.66,-302.81 833.97,-297.75 823.54,-295.9 824.66,-302.81"/>
</g>
<!-- Node10 -->
<g id="node10" class="node">
<title>Node10</title>
<g id="a_node10"><a xlink:href="_u___registry_8hpp.html" target="_top" xlink:title="Header for U_Registry.cpp.">
<polygon fill="none" stroke="black" points="66.5,-112.5 66.5,-131.5 149.5,-131.5 149.5,-112.5 66.5,-112.5"/>
<text text-anchor="middle" x="108" y="-119.5" font-family="Helvetica,sans-Serif" font-size="10.00">U_Registry.hpp</text>
</a>
</g>
</g>
<!-- Node1&#45;&gt;Node10 -->
<g id="edge9" class="edge">
<title>Node1&#45;&gt;Node10</title>
<path fill="none" stroke="midnightblue" d="M304.49,-338.56C242.82,-312.52 152.59,-263.58 111,-188 103.26,-173.93 103.19,-155.44 104.66,-141.77"/>
<polygon fill="midnightblue" stroke="midnightblue" points="108.16,-142.04 106.12,-131.64 101.23,-141.04 108.16,-142.04"/>
</g>
<!-- Node11 -->
<g id="node11" class="node">
<title>Node11</title>
<g id="a_node11"><a xlink:href="_u___service_8hpp.html" target="_top" xlink:title="Header for U_Service.cpp.">
<polygon fill="none" stroke="black" points="328.5,-280.5 328.5,-299.5 407.5,-299.5 407.5,-280.5 328.5,-280.5"/>
<text text-anchor="middle" x="368" y="-287.5" font-family="Helvetica,sans-Serif" font-size="10.00">U_Service.hpp</text>
</a>
</g>
</g>
<!-- Node1&#45;&gt;Node11 -->
<g id="edge11" class="edge">
<title>Node1&#45;&gt;Node11</title>
<path fill="none" stroke="midnightblue" d="M361.51,-336.45C361.05,-327.63 361.2,-317.88 361.96,-309.68"/>
<polygon fill="midnightblue" stroke="midnightblue" points="365.44,-310.09 363.38,-299.7 358.51,-309.11 365.44,-310.09"/>
</g>
<!-- Node13 -->
<g id="node13" class="node">
<title>Node13</title>
<g id="a_node13"><a xlink:href="_u___utilitaire_8hpp.html" target="_top" xlink:title="Header for U_Utilitaire.cpp.">
<polygon fill="none" stroke="black" points="630.5,-112.5 630.5,-131.5 713.5,-131.5 713.5,-112.5 630.5,-112.5"/>
<text text-anchor="middle" x="672" y="-119.5" font-family="Helvetica,sans-Serif" font-size="10.00">U_Utilitaire.hpp</text>
</a>
</g>
</g>
<!-- Node1&#45;&gt;Node13 -->
<g id="edge47" class="edge">
<title>Node1&#45;&gt;Node13</title>
<path fill="none" stroke="midnightblue" d="M431.84,-355.15C522.92,-342.12 686,-303.09 748,-188 760.27,-165.23 732.52,-146.95 707.18,-135.64"/>
<polygon fill="midnightblue" stroke="midnightblue" points="708.25,-132.3 697.67,-131.66 705.54,-138.75 708.25,-132.3"/>
</g>
<!-- Node20 -->
<g id="node20" class="node">
<title>Node20</title>
<g id="a_node20"><a xlink:href="_u___logs_8hpp.html" target="_top" xlink:title="Header for U_Logs.cpp.">
<polygon fill="none" stroke="black" points="120,-168.5 120,-187.5 188,-187.5 188,-168.5 120,-168.5"/>
<text text-anchor="middle" x="154" y="-175.5" font-family="Helvetica,sans-Serif" font-size="10.00">U_Logs.hpp</text>
</a>
</g>
</g>
<!-- Node1&#45;&gt;Node20 -->
<g id="edge46" class="edge">
<title>Node1&#45;&gt;Node20</title>
<path fill="none" stroke="midnightblue" d="M338.24,-336.12C293.16,-297.68 208.91,-225.83 172.05,-194.39"/>
<polygon fill="midnightblue" stroke="midnightblue" points="174.02,-191.47 164.14,-187.65 169.48,-196.8 174.02,-191.47"/>
</g>
<!-- Node3 -->
<g id="node3" class="node">
<title>Node3</title>
<g id="a_node3"><a xlink:title=" ">
<polygon fill="none" stroke="#bfbfbf" points="120.5,-0.5 120.5,-19.5 185.5,-19.5 185.5,-0.5 120.5,-0.5"/>
<text text-anchor="middle" x="153" y="-7.5" font-family="Helvetica,sans-Serif" font-size="10.00">Windows.h</text>
</a>
</g>
</g>
<!-- Node2&#45;&gt;Node3 -->
<g id="edge2" class="edge">
<title>Node2&#45;&gt;Node3</title>
<path fill="none" stroke="midnightblue" d="M205.88,-56.32C196.47,-48.26 182.26,-36.08 170.93,-26.37"/>
<polygon fill="midnightblue" stroke="midnightblue" points="173.18,-23.68 163.31,-19.83 168.62,-29 173.18,-23.68"/>
</g>
<!-- Node4 -->
<g id="node4" class="node">
<title>Node4</title>
<g id="a_node4"><a xlink:title=" ">
<polygon fill="none" stroke="#bfbfbf" points="203.5,-0.5 203.5,-19.5 256.5,-19.5 256.5,-0.5 203.5,-0.5"/>
<text text-anchor="middle" x="230" y="-7.5" font-family="Helvetica,sans-Serif" font-size="10.00">fltUser.h</text>
</a>
</g>
</g>
<!-- Node2&#45;&gt;Node4 -->
<g id="edge3" class="edge">
<title>Node2&#45;&gt;Node4</title>
<path fill="none" stroke="midnightblue" d="M218.31,-56.08C220.17,-48.93 222.84,-38.64 225.15,-29.69"/>
<polygon fill="midnightblue" stroke="midnightblue" points="228.61,-30.31 227.73,-19.75 221.83,-28.55 228.61,-30.31"/>
</g>
<!-- Node5 -->
<g id="node5" class="node">
<title>Node5</title>
<g id="a_node5"><a xlink:title=" ">
<polygon fill="none" stroke="#bfbfbf" points="275,-0.5 275,-19.5 321,-19.5 321,-0.5 275,-0.5"/>
<text text-anchor="middle" x="298" y="-7.5" font-family="Helvetica,sans-Serif" font-size="10.00">stdio.h</text>
</a>
</g>
</g>
<!-- Node2&#45;&gt;Node5 -->
<g id="edge4" class="edge">
<title>Node2&#45;&gt;Node5</title>
<path fill="none" stroke="midnightblue" d="M229.17,-56.32C241.85,-47.98 261.23,-35.21 276.21,-25.35"/>
<polygon fill="midnightblue" stroke="midnightblue" points="278.43,-28.08 284.86,-19.65 274.58,-22.23 278.43,-28.08"/>
</g>
<!-- Node6 -->
<g id="node6" class="node">
<title>Node6</title>
<g id="a_node6"><a xlink:title=" ">
<polygon fill="none" stroke="#bfbfbf" points="55.5,-0.5 55.5,-19.5 102.5,-19.5 102.5,-0.5 55.5,-0.5"/>
<text text-anchor="middle" x="79" y="-7.5" font-family="Helvetica,sans-Serif" font-size="10.00">tchar.h</text>
</a>
</g>
</g>
<!-- Node2&#45;&gt;Node6 -->
<g id="edge5" class="edge">
<title>Node2&#45;&gt;Node6</title>
<path fill="none" stroke="midnightblue" d="M194.29,-56.44C171.65,-47.52 135.93,-33.44 110.25,-23.32"/>
<polygon fill="midnightblue" stroke="midnightblue" points="111.19,-19.93 100.61,-19.52 108.63,-26.44 111.19,-19.93"/>
</g>
<!-- Node7 -->
<g id="node7" class="node">
<title>Node7</title>
<g id="a_node7"><a xlink:title=" ">
<polygon fill="none" stroke="#bfbfbf" points="367,-0.5 367,-19.5 421,-19.5 421,-0.5 367,-0.5"/>
<text text-anchor="middle" x="394" y="-7.5" font-family="Helvetica,sans-Serif" font-size="10.00">strsafe.h</text>
</a>
</g>
</g>
<!-- Node2&#45;&gt;Node7 -->
<g id="edge6" class="edge">
<title>Node2&#45;&gt;Node7</title>
<path fill="none" stroke="midnightblue" d="M244.2,-56.44C274.68,-47.2 323.36,-32.43 356.91,-22.25"/>
<polygon fill="midnightblue" stroke="midnightblue" points="358.25,-25.5 366.8,-19.25 356.22,-18.8 358.25,-25.5"/>
</g>
<!-- Node10&#45;&gt;Node2 -->
<g id="edge10" class="edge">
<title>Node10&#45;&gt;Node2</title>
<path fill="none" stroke="midnightblue" d="M125.35,-112.32C142.67,-103.66 169.52,-90.24 189.5,-80.25"/>
<polygon fill="midnightblue" stroke="midnightblue" points="191.31,-83.26 198.69,-75.65 188.18,-77 191.31,-83.26"/>
</g>
<!-- Node11&#45;&gt;Node1 -->
<g id="edge13" class="edge">
<title>Node11&#45;&gt;Node1</title>
<path fill="none" stroke="midnightblue" d="M372.62,-299.7C374.04,-306.47 374.75,-316.37 374.75,-326.27"/>
<polygon fill="midnightblue" stroke="midnightblue" points="371.25,-326.36 374.49,-336.45 378.24,-326.54 371.25,-326.36"/>
</g>
<!-- Node11&#45;&gt;Node2 -->
<g id="edge12" class="edge">
<title>Node11&#45;&gt;Node2</title>
<path fill="none" stroke="midnightblue" d="M328.42,-284.78C254.87,-274.42 100.63,-240.11 57,-132 39.79,-89.35 101.01,-74.5 152.42,-69.43"/>
<polygon fill="midnightblue" stroke="midnightblue" points="152.89,-72.9 162.55,-68.54 152.28,-65.93 152.89,-72.9"/>
</g>
<!-- Node12 -->
<g id="node12" class="node">
<title>Node12</title>
<g id="a_node12"><a xlink:href="_u___controller_8hpp.html" target="_top" xlink:title="Header for U_Controller.cpp.">
<polygon fill="none" stroke="black" points="650.5,-168.5 650.5,-187.5 739.5,-187.5 739.5,-168.5 650.5,-168.5"/>
<text text-anchor="middle" x="695" y="-175.5" font-family="Helvetica,sans-Serif" font-size="10.00">U_Controller.hpp</text>
</a>
</g>
</g>
<!-- Node11&#45;&gt;Node12 -->
<g id="edge14" class="edge">
<title>Node11&#45;&gt;Node12</title>
<path fill="none" stroke="midnightblue" d="M407.74,-285.54C472.47,-279.37 597.34,-265.12 636,-244 656.6,-232.74 673.77,-211.5 684.18,-196.37"/>
<polygon fill="midnightblue" stroke="midnightblue" points="687.19,-198.15 689.76,-187.87 681.34,-194.31 687.19,-198.15"/>
</g>
<!-- Node11&#45;&gt;Node13 -->
<g id="edge33" class="edge">
<title>Node11&#45;&gt;Node13</title>
<path fill="none" stroke="midnightblue" d="M385,-280.4C421.52,-264.52 508.23,-228.5 576,-188 601.68,-172.65 628.96,-151.35 648.12,-137.38"/>
<polygon fill="midnightblue" stroke="midnightblue" points="650.22,-140.18 656.32,-131.52 646.15,-134.49 650.22,-140.18"/>
</g>
<!-- Node11&#45;&gt;Node20 -->
<g id="edge32" class="edge">
<title>Node11&#45;&gt;Node20</title>
<path fill="none" stroke="midnightblue" d="M351.21,-280.37C313.94,-261.21 224.11,-215.04 179.71,-192.22"/>
<polygon fill="midnightblue" stroke="midnightblue" points="181.21,-189.05 170.71,-187.59 178.01,-195.28 181.21,-189.05"/>
</g>
<!-- Node21 -->
<g id="node21" class="node">
<title>Node21</title>
<g id="a_node21"><a xlink:href="_u___communication_8hpp.html" target="_top" xlink:title="Header for U_Communication.cpp.">
<polygon fill="none" stroke="black" points="310.5,-224.5 310.5,-243.5 425.5,-243.5 425.5,-224.5 310.5,-224.5"/>
<text text-anchor="middle" x="368" y="-231.5" font-family="Helvetica,sans-Serif" font-size="10.00">U_Communication.hpp</text>
</a>
</g>
</g>
<!-- Node11&#45;&gt;Node21 -->
<g id="edge34" class="edge">
<title>Node11&#45;&gt;Node21</title>
<path fill="none" stroke="midnightblue" d="M362.83,-280.08C361.32,-272.93 360.89,-262.64 361.54,-253.69"/>
<polygon fill="midnightblue" stroke="midnightblue" points="365.02,-254.13 362.87,-243.75 358.08,-253.2 365.02,-254.13"/>
</g>
<!-- Node12&#45;&gt;Node2 -->
<g id="edge15" class="edge">
<title>Node12&#45;&gt;Node2</title>
<path fill="none" stroke="midnightblue" d="M680.72,-168.28C652.94,-151.38 593.39,-115.49 583,-112 554.94,-102.58 376.75,-83.37 279.37,-73.37"/>
<polygon fill="midnightblue" stroke="midnightblue" points="279.65,-69.88 269.34,-72.34 278.94,-76.84 279.65,-69.88"/>
</g>
<!-- Node12&#45;&gt;Node8 -->
<g id="edge16" class="edge">
<title>Node12&#45;&gt;Node8</title>
<path fill="none" stroke="midnightblue" d="M703.71,-168.37C722.35,-149.89 766.35,-106.29 790.11,-82.74"/>
<polygon fill="midnightblue" stroke="midnightblue" points="792.69,-85.12 797.33,-75.59 787.76,-80.14 792.69,-85.12"/>
</g>
<!-- Node12&#45;&gt;Node13 -->
<g id="edge17" class="edge">
<title>Node12&#45;&gt;Node13</title>
<path fill="none" stroke="midnightblue" d="M691.2,-168.08C688.09,-160.77 683.58,-150.18 679.71,-141.1"/>
<polygon fill="midnightblue" stroke="midnightblue" points="682.87,-139.58 675.73,-131.75 676.43,-142.32 682.87,-139.58"/>
</g>
<!-- Node13&#45;&gt;Node2 -->
<g id="edge26" class="edge">
<title>Node13&#45;&gt;Node2</title>
<path fill="none" stroke="midnightblue" d="M630.44,-114.1C625.58,-113.36 620.68,-112.64 616,-112 497.39,-95.81 358.4,-81.13 279.42,-73.2"/>
<polygon fill="midnightblue" stroke="midnightblue" points="279.45,-69.69 269.16,-72.17 278.76,-76.65 279.45,-69.69"/>
</g>
<!-- Node13&#45;&gt;Node7 -->
<g id="edge23" class="edge">
<title>Node13&#45;&gt;Node7</title>
<path fill="none" stroke="midnightblue" d="M630.24,-114.32C562.43,-103.33 435.11,-82.06 427,-76 411.82,-64.67 403.11,-44.37 398.49,-29.46"/>
<polygon fill="midnightblue" stroke="midnightblue" points="401.85,-28.47 395.82,-19.76 395.1,-30.33 401.85,-28.47"/>
</g>
<!-- Node13&#45;&gt;Node8 -->
<g id="edge19" class="edge">
<title>Node13&#45;&gt;Node8</title>
<path fill="none" stroke="midnightblue" d="M693.23,-112.44C715.38,-103.52 750.32,-89.44 775.44,-79.32"/>
<polygon fill="midnightblue" stroke="midnightblue" points="776.9,-82.5 784.87,-75.52 774.28,-76.01 776.9,-82.5"/>
</g>
<!-- Node13&#45;&gt;Node11 -->
<g id="edge31" class="edge">
<title>Node13&#45;&gt;Node11</title>
<path fill="none" stroke="midnightblue" d="M667.54,-131.74C655,-144.97 623.46,-170.4 594,-188 530.86,-225.73 451.29,-259.57 405.22,-276.86"/>
<polygon fill="midnightblue" stroke="midnightblue" points="403.81,-273.65 395.64,-280.4 406.23,-280.22 403.81,-273.65"/>
</g>
<!-- Node14 -->
<g id="node14" class="node">
<title>Node14</title>
<g id="a_node14"><a xlink:title=" ">
<polygon fill="none" stroke="#bfbfbf" points="436.5,-56.5 436.5,-75.5 495.5,-75.5 495.5,-56.5 436.5,-56.5"/>
<text text-anchor="middle" x="466" y="-63.5" font-family="Helvetica,sans-Serif" font-size="10.00">Shlwapi.h</text>
</a>
</g>
</g>
<!-- Node13&#45;&gt;Node14 -->
<g id="edge18" class="edge">
<title>Node13&#45;&gt;Node14</title>
<path fill="none" stroke="midnightblue" d="M639.36,-112.44C603.12,-102.94 544.61,-87.61 505.74,-77.42"/>
<polygon fill="midnightblue" stroke="midnightblue" points="506.37,-73.97 495.81,-74.82 504.6,-80.74 506.37,-73.97"/>
</g>
<!-- Node15 -->
<g id="node15" class="node">
<title>Node15</title>
<g id="a_node15"><a xlink:title=" ">
<polygon fill="none" stroke="#bfbfbf" points="513.5,-56.5 513.5,-75.5 554.5,-75.5 554.5,-56.5 513.5,-56.5"/>
<text text-anchor="middle" x="534" y="-63.5" font-family="Helvetica,sans-Serif" font-size="10.00">string</text>
</a>
</g>
</g>
<!-- Node13&#45;&gt;Node15 -->
<g id="edge20" class="edge">
<title>Node13&#45;&gt;Node15</title>
<path fill="none" stroke="midnightblue" d="M650.13,-112.44C626.95,-103.37 590.17,-88.98 564.22,-78.83"/>
<polygon fill="midnightblue" stroke="midnightblue" points="565.45,-75.55 554.86,-75.16 562.9,-82.07 565.45,-75.55"/>
</g>
<!-- Node16 -->
<g id="node16" class="node">
<title>Node16</title>
<g id="a_node16"><a xlink:title=" ">
<polygon fill="none" stroke="#bfbfbf" points="573,-56.5 573,-75.5 627,-75.5 627,-56.5 573,-56.5"/>
<text text-anchor="middle" x="600" y="-63.5" font-family="Helvetica,sans-Serif" font-size="10.00">iostream</text>
</a>
</g>
</g>
<!-- Node13&#45;&gt;Node16 -->
<g id="edge21" class="edge">
<title>Node13&#45;&gt;Node16</title>
<path fill="none" stroke="midnightblue" d="M660.43,-112.32C649.58,-104.18 633.12,-91.84 620.12,-82.09"/>
<polygon fill="midnightblue" stroke="midnightblue" points="621.88,-79.03 611.78,-75.83 617.68,-84.63 621.88,-79.03"/>
</g>
<!-- Node17 -->
<g id="node17" class="node">
<title>Node17</title>
<g id="a_node17"><a xlink:title=" ">
<polygon fill="none" stroke="#bfbfbf" points="645,-56.5 645,-75.5 707,-75.5 707,-56.5 645,-56.5"/>
<text text-anchor="middle" x="676" y="-63.5" font-family="Helvetica,sans-Serif" font-size="10.00">TlHelp32.h</text>
</a>
</g>
</g>
<!-- Node13&#45;&gt;Node17 -->
<g id="edge22" class="edge">
<title>Node13&#45;&gt;Node17</title>
<path fill="none" stroke="midnightblue" d="M672.66,-112.08C673.18,-105.01 673.94,-94.86 674.59,-85.99"/>
<polygon fill="midnightblue" stroke="midnightblue" points="678.1,-85.98 675.35,-75.75 671.12,-85.47 678.1,-85.98"/>
</g>
<!-- Node18 -->
<g id="node18" class="node">
<title>Node18</title>
<g id="a_node18"><a xlink:title=" ">
<polygon fill="none" stroke="#bfbfbf" points="725,-56.5 725,-75.5 757,-75.5 757,-56.5 725,-56.5"/>
<text text-anchor="middle" x="741" y="-63.5" font-family="Helvetica,sans-Serif" font-size="10.00">io.h</text>
</a>
</g>
</g>
<!-- Node13&#45;&gt;Node18 -->
<g id="edge24" class="edge">
<title>Node13&#45;&gt;Node18</title>
<path fill="none" stroke="midnightblue" d="M683.09,-112.32C693.49,-104.18 709.26,-91.84 721.72,-82.09"/>
<polygon fill="midnightblue" stroke="midnightblue" points="723.99,-84.75 729.71,-75.83 719.68,-79.24 723.99,-84.75"/>
</g>
<!-- Node19 -->
<g id="node19" class="node">
<title>Node19</title>
<g id="a_node19"><a xlink:title=" ">
<polygon fill="none" stroke="#bfbfbf" points="336.5,-56.5 336.5,-75.5 379.5,-75.5 379.5,-56.5 336.5,-56.5"/>
<text text-anchor="middle" x="358" y="-63.5" font-family="Helvetica,sans-Serif" font-size="10.00">fcntl.h</text>
</a>
</g>
</g>
<!-- Node13&#45;&gt;Node19 -->
<g id="edge25" class="edge">
<title>Node13&#45;&gt;Node19</title>
<path fill="none" stroke="midnightblue" d="M630.24,-114.29C554.05,-102.03 399.76,-77.18 394,-76 392.54,-75.7 391.05,-75.38 389.55,-75.05"/>
<polygon fill="midnightblue" stroke="midnightblue" points="390.17,-71.6 379.63,-72.72 388.57,-78.41 390.17,-71.6"/>
</g>
<!-- Node13&#45;&gt;Node20 -->
<g id="edge27" class="edge">
<title>Node13&#45;&gt;Node20</title>
<path fill="none" stroke="midnightblue" d="M630.22,-127.76C537.77,-137.61 318.79,-159.99 244,-168 229.28,-169.58 213.07,-171.37 198.42,-172.93"/>
<polygon fill="midnightblue" stroke="midnightblue" points="197.66,-169.49 188.08,-174.03 198.39,-176.46 197.66,-169.49"/>
</g>
<!-- Node20&#45;&gt;Node2 -->
<g id="edge28" class="edge">
<title>Node20&#45;&gt;Node2</title>
<path fill="none" stroke="midnightblue" d="M158.87,-168.37C169.05,-150.3 192.79,-108.18 206.24,-84.31"/>
<polygon fill="midnightblue" stroke="midnightblue" points="209.3,-86.02 211.16,-75.59 203.2,-82.58 209.3,-86.02"/>
</g>
<!-- Node20&#45;&gt;Node10 -->
<g id="edge29" class="edge">
<title>Node20&#45;&gt;Node10</title>
<path fill="none" stroke="midnightblue" d="M146.4,-168.08C139.77,-160.3 129.98,-148.8 121.94,-139.37"/>
<polygon fill="midnightblue" stroke="midnightblue" points="124.6,-137.09 115.45,-131.75 119.27,-141.63 124.6,-137.09"/>
</g>
<!-- Node20&#45;&gt;Node13 -->
<g id="edge30" class="edge">
<title>Node20&#45;&gt;Node13</title>
<path fill="none" stroke="midnightblue" d="M188.24,-172.17C200.18,-170.8 213.62,-169.33 226,-168 300.71,-160 519.27,-137.66 620.11,-127.79"/>
<polygon fill="midnightblue" stroke="midnightblue" points="620.75,-131.25 630.36,-126.79 620.07,-124.28 620.75,-131.25"/>
</g>
<!-- Node21&#45;&gt;Node2 -->
<g id="edge35" class="edge">
<title>Node21&#45;&gt;Node2</title>
<path fill="none" stroke="midnightblue" d="M310.22,-227.12C283.49,-221.37 253.61,-210.09 235,-188 210.53,-158.96 210.96,-111.56 213.45,-85.54"/>
<polygon fill="midnightblue" stroke="midnightblue" points="216.93,-85.86 214.62,-75.52 209.98,-85.05 216.93,-85.86"/>
</g>
<!-- Node21&#45;&gt;Node11 -->
<g id="edge36" class="edge">
<title>Node21&#45;&gt;Node11</title>
<path fill="none" stroke="midnightblue" d="M373.13,-243.75C374.66,-250.86 375.1,-261.14 374.47,-270.1"/>
<polygon fill="midnightblue" stroke="midnightblue" points="370.99,-269.71 373.17,-280.08 377.93,-270.62 370.99,-269.71"/>
</g>
<!-- Node21&#45;&gt;Node20 -->
<g id="edge37" class="edge">
<title>Node21&#45;&gt;Node20</title>
<path fill="none" stroke="midnightblue" d="M334.09,-224.44C297.15,-215.12 237.95,-200.18 197.58,-190"/>
<polygon fill="midnightblue" stroke="midnightblue" points="198.3,-186.57 187.75,-187.52 196.59,-193.36 198.3,-186.57"/>
</g>
<!-- Node22 -->
<g id="node22" class="node">
<title>Node22</title>
<g id="a_node22"><a xlink:href="_shared_defs_8hpp.html" target="_top" xlink:title="Header file which contains the structures, type definitions, constants, global variablesand function ...">
<polygon fill="none" stroke="black" points="428,-168.5 428,-187.5 576,-187.5 576,-168.5 428,-168.5"/>
<text text-anchor="middle" x="502" y="-175.5" font-family="Helvetica,sans-Serif" font-size="10.00">../SharedDefs/SharedDefs.hpp</text>
</a>
</g>
</g>
<!-- Node21&#45;&gt;Node22 -->
<g id="edge38" class="edge">
<title>Node21&#45;&gt;Node22</title>
<path fill="none" stroke="midnightblue" d="M389.23,-224.44C411.38,-215.52 446.32,-201.44 471.44,-191.32"/>
<polygon fill="midnightblue" stroke="midnightblue" points="472.9,-194.5 480.87,-187.52 470.28,-188.01 472.9,-194.5"/>
</g>
<!-- Node23 -->
<g id="node23" class="node">
<title>Node23</title>
<g id="a_node23"><a xlink:href="_u___signature_8hpp.html" target="_top" xlink:title="Header for U_Signature.cpp.">
<polygon fill="none" stroke="black" points="244.5,-168.5 244.5,-187.5 333.5,-187.5 333.5,-168.5 244.5,-168.5"/>
<text text-anchor="middle" x="289" y="-175.5" font-family="Helvetica,sans-Serif" font-size="10.00">U_Signature.hpp</text>
</a>
</g>
</g>
<!-- Node21&#45;&gt;Node23 -->
<g id="edge39" class="edge">
<title>Node21&#45;&gt;Node23</title>
<path fill="none" stroke="midnightblue" d="M355.31,-224.32C343.1,-215.98 324.42,-203.21 310,-193.35"/>
<polygon fill="midnightblue" stroke="midnightblue" points="311.89,-190.41 301.66,-187.65 307.94,-196.19 311.89,-190.41"/>
</g>
<!-- Node28 -->
<g id="node28" class="node">
<title>Node28</title>
<g id="a_node28"><a xlink:title=" ">
<polygon fill="none" stroke="#bfbfbf" points="352,-168.5 352,-187.5 410,-187.5 410,-168.5 352,-168.5"/>
<text text-anchor="middle" x="381" y="-175.5" font-family="Helvetica,sans-Serif" font-size="10.00">winternl.h</text>
</a>
</g>
</g>
<!-- Node21&#45;&gt;Node28 -->
<g id="edge45" class="edge">
<title>Node21&#45;&gt;Node28</title>
<path fill="none" stroke="midnightblue" d="M370.15,-224.08C371.87,-216.93 374.35,-206.64 376.5,-197.69"/>
<polygon fill="midnightblue" stroke="midnightblue" points="379.96,-198.29 378.89,-187.75 373.15,-196.65 379.96,-198.29"/>
</g>
<!-- Node23&#45;&gt;Node2 -->
<g id="edge40" class="edge">
<title>Node23&#45;&gt;Node2</title>
<path fill="none" stroke="midnightblue" d="M330.82,-168.44C369.79,-158.54 418.84,-139.93 397,-112 382.41,-93.34 325.41,-81.32 279.22,-74.43"/>
<polygon fill="midnightblue" stroke="midnightblue" points="279.64,-70.96 269.25,-73 278.65,-77.89 279.64,-70.96"/>
</g>
<!-- Node24 -->
<g id="node24" class="node">
<title>Node24</title>
<g id="a_node24"><a xlink:title=" ">
<polygon fill="none" stroke="#bfbfbf" points="244.5,-112.5 244.5,-131.5 305.5,-131.5 305.5,-112.5 244.5,-112.5"/>
<text text-anchor="middle" x="275" y="-119.5" font-family="Helvetica,sans-Serif" font-size="10.00">wincrypt.h</text>
</a>
</g>
</g>
<!-- Node23&#45;&gt;Node24 -->
<g id="edge41" class="edge">
<title>Node23&#45;&gt;Node24</title>
<path fill="none" stroke="midnightblue" d="M286.69,-168.08C284.83,-160.93 282.16,-150.64 279.85,-141.69"/>
<polygon fill="midnightblue" stroke="midnightblue" points="283.17,-140.55 277.27,-131.75 276.39,-142.31 283.17,-140.55"/>
</g>
<!-- Node25 -->
<g id="node25" class="node">
<title>Node25</title>
<g id="a_node25"><a xlink:title=" ">
<polygon fill="none" stroke="#bfbfbf" points="324,-112.5 324,-131.5 388,-131.5 388,-112.5 324,-112.5"/>
<text text-anchor="middle" x="356" y="-119.5" font-family="Helvetica,sans-Serif" font-size="10.00">WinTrust.h</text>
</a>
</g>
</g>
<!-- Node23&#45;&gt;Node25 -->
<g id="edge42" class="edge">
<title>Node23&#45;&gt;Node25</title>
<path fill="none" stroke="midnightblue" d="M299.76,-168.32C309.77,-160.26 324.89,-148.08 336.93,-138.37"/>
<polygon fill="midnightblue" stroke="midnightblue" points="339.45,-140.83 345.04,-131.83 335.06,-135.38 339.45,-140.83"/>
</g>
<!-- Node26 -->
<g id="node26" class="node">
<title>Node26</title>
<g id="a_node26"><a xlink:title=" ">
<polygon fill="none" stroke="#bfbfbf" points="444.5,-112.5 444.5,-131.5 503.5,-131.5 503.5,-112.5 444.5,-112.5"/>
<text text-anchor="middle" x="474" y="-119.5" font-family="Helvetica,sans-Serif" font-size="10.00">SoftPub.h</text>
</a>
</g>
</g>
<!-- Node23&#45;&gt;Node26 -->
<g id="edge43" class="edge">
<title>Node23&#45;&gt;Node26</title>
<path fill="none" stroke="midnightblue" d="M318.31,-168.44C349.84,-159.24 400.13,-144.56 434.99,-134.39"/>
<polygon fill="midnightblue" stroke="midnightblue" points="436.2,-137.68 444.82,-131.52 434.24,-130.96 436.2,-137.68"/>
</g>
<!-- Node27 -->
<g id="node27" class="node">
<title>Node27</title>
<g id="a_node27"><a xlink:title=" ">
<polygon fill="none" stroke="#bfbfbf" points="522,-112.5 522,-131.5 574,-131.5 574,-112.5 522,-112.5"/>
<text text-anchor="middle" x="548" y="-119.5" font-family="Helvetica,sans-Serif" font-size="10.00">mscat.h</text>
</a>
</g>
</g>
<!-- Node23&#45;&gt;Node27 -->
<g id="edge44" class="edge">
<title>Node23&#45;&gt;Node27</title>
<path fill="none" stroke="midnightblue" d="M333.55,-168.63C376.55,-160.42 443.7,-147.23 511.66,-131.99"/>
<polygon fill="midnightblue" stroke="midnightblue" points="512.7,-135.34 521.69,-129.73 511.16,-128.51 512.7,-135.34"/>
</g>
</g>
</svg>
        <g id="navigator" transform="translate(0 0)" fill="#404254">
                <rect fill="#f2f5e9" fill-opacity="0.5" stroke="#606060" stroke-width=".5" x="0" y="0" width="60" height="60"/>
                <use id="zoomplus" xlink:href="#zoomPlus" x="17" y="9" onmousedown="handleZoom(evt,'in')"/>
                <use id="zoomminus" xlink:href="#zoomMin" x="42" y="9" onmousedown="handleZoom(evt,'out')"/>
                <use id="reset" xlink:href="#resetDef" x="30" y="36" onmousedown="handleReset()"/>
                <g id="arrowUp" xlink:href="#dirArrow" transform="translate(30 24)" onmousedown="handlePan(0,-1)">
                  <use xlink:href="#rim" fill="#404040">
                        <set attributeName="fill" to="#808080" begin="arrowUp.mouseover" end="arrowUp.mouseout"/>
                  </use>
                  <path fill="none" stroke="white" stroke-width="1.5" d="M0,-3.0v7 M-2.5,-0.5L0,-3.0L2.5,-0.5"/>
                </g>
                <g id="arrowRight" xlink:href="#dirArrow" transform="rotate(90) translate(36 -43)" onmousedown="handlePan(1,0)">
                  <use xlink:href="#rim" fill="#404040">
                        <set attributeName="fill" to="#808080" begin="arrowRight.mouseover" end="arrowRight.mouseout"/>
                  </use>
                  <path fill="none" stroke="white" stroke-width="1.5" d="M0,-3.0v7 M-2.5,-0.5L0,-3.0L2.5,-0.5"/>
                </g>
                <g id="arrowDown" xlink:href="#dirArrow" transform="rotate(180) translate(-30 -48)" onmousedown="handlePan(0,1)">
                  <use xlink:href="#rim" fill="#404040">
                        <set attributeName="fill" to="#808080" begin="arrowDown.mouseover" end="arrowDown.mouseout"/>
                  </use>
                  <path fill="none" stroke="white" stroke-width="1.5" d="M0,-3.0v7 M-2.5,-0.5L0,-3.0L2.5,-0.5"/>
                </g>
                <g id="arrowLeft" xlink:href="#dirArrow" transform="rotate(270) translate(-36 17)" onmousedown="handlePan(-1,0)">
                  <use xlink:href="#rim" fill="#404040">
                        <set attributeName="fill" to="#808080" begin="arrowLeft.mouseover" end="arrowLeft.mouseout"/>
                  </use>
                  <path fill="none" stroke="white" stroke-width="1.5" d="M0,-3.0v7 M-2.5,-0.5L0,-3.0L2.5,-0.5"/>
                </g>
        </g>
        <svg viewBox="0 0 15 15" width="100%" height="30px" preserveAspectRatio="xMaxYMin meet">
         <g id="arrow_out" transform="scale(0.3 0.3)">
          <a xlink:href="_u___configuration_8hpp__incl_org.svg" target="_base">
           <rect id="button" ry="5" rx="5" y="6" x="6" height="38" width="38"
                fill="#f2f5e9" fill-opacity="0.5" stroke="#606060" stroke-width="1.0"/>
           <path id="arrow"
             d="M 11.500037,31.436501 C 11.940474,20.09759 22.043105,11.32322 32.158766,21.979434 L 37.068811,17.246167 C 37.068811,17.246167 37.088388,32 37.088388,32 L 22.160133,31.978069 C 22.160133,31.978069 26.997745,27.140456 26.997745,27.140456 C 18.528582,18.264221 13.291696,25.230495 11.500037,31.436501 z"
             style="fill:#404040;"/>
          </a>
         </g>
        </svg>
</svg>
