<?xml version="1.0" encoding="UTF-8" standalone="no"?>
<!DOCTYPE svg PUBLIC "-//W3C//DTD SVG 1.1//EN"
 "http://www.w3.org/Graphics/SVG/1.1/DTD/svg11.dtd">
<!-- Generated by graphviz version 5.0.0 (20220707.1540)
 -->
<!-- Title: U_Logs.hpp Pages: 1 -->
<!--zoomable 364 -->
<svg id="main" version="1.1" xmlns="http://www.w3.org/2000/svg" xmlns:xlink="http://www.w3.org/1999/xlink" xml:space="preserve" onload="init(evt)">
<style type="text/css"><![CDATA[
.edge:hover path { stroke: red; }
.edge:hover polygon { stroke: red; fill: red; }
]]></style>
<script type="text/javascript"><![CDATA[
var edges = document.getElementsByTagName('g');
if (edges && edges.length) {
  for (var i=0;i<edges.length;i++) {
    if (edges[i].id.substr(0,4)=='edge') {
      edges[i].setAttribute('class','edge');
    }
  }
}
]]></script>
        <defs>
                <circle id="rim" cx="0" cy="0" r="7"/>
                <circle id="rim2" cx="0" cy="0" r="3.5"/>
                <g id="zoomPlus">
                        <use xlink:href="#rim" fill="#404040">
                                <set attributeName="fill" to="#808080" begin="zoomplus.mouseover" end="zoomplus.mouseout"/>
                        </use>
                        <path d="M-4,0h8M0,-4v8" fill="none" stroke="white" stroke-width="1.5" pointer-events="none"/>
                </g>
                <g id="zoomMin">
                        <use xlink:href="#rim" fill="#404040">
                                <set attributeName="fill" to="#808080" begin="zoomminus.mouseover" end="zoomminus.mouseout"/>
                        </use>
                        <path d="M-4,0h8" fill="none" stroke="white" stroke-width="1.5" pointer-events="none"/>
                </g>
                <g id="dirArrow">
                        <path fill="none" stroke="white" stroke-width="1.5" d="M0,-3.0v7 M-2.5,-0.5L0,-3.0L2.5,-0.5"/>
                </g>
               <g id="resetDef">
                       <use xlink:href="#rim2" fill="#404040">
                               <set attributeName="fill" to="#808080" begin="reset.mouseover" end="reset.mouseout"/>
                       </use>
               </g>
        </defs>

<script type="text/javascript">
var viewWidth = 1100;
var viewHeight = 364;
var sectionId = 'dynsection-0';
</script>
<script xlink:href="svgpan.js"/>
<svg id="graph" class="graph">
<g id="viewport">
<title>U_Logs.hpp</title>
<!-- Node1 -->
<g id="node1" class="node">
<title>Node1</title>
<g id="a_node1"><a xlink:title="Header for U_Logs.cpp.">
<polygon fill="#bfbfbf" stroke="black" points="374,-336.5 374,-355.5 442,-355.5 442,-336.5 374,-336.5"/>
<text text-anchor="middle" x="408" y="-343.5" font-family="Helvetica,sans-Serif" font-size="10.00">U_Logs.hpp</text>
</a>
</g>
</g>
<!-- Node2 -->
<g id="node2" class="node">
<title>Node2</title>
<g id="a_node2"><a xlink:href="_u___global_header_8hpp.html" target="_top" xlink:title="Header used by several .hpp files.">
<polygon fill="none" stroke="black" points="428,-56.5 428,-75.5 534,-75.5 534,-56.5 428,-56.5"/>
<text text-anchor="middle" x="481" y="-63.5" font-family="Helvetica,sans-Serif" font-size="10.00">U_GlobalHeader.hpp</text>
</a>
</g>
</g>
<!-- Node1&#45;&gt;Node2 -->
<g id="edge1" class="edge">
<title>Node1&#45;&gt;Node2</title>
<path fill="none" stroke="midnightblue" d="M373.92,-343.13C275.86,-336.82 0,-312.21 0,-235 0,-235 0,-235 0,-177 0,-92.34 286.71,-72.84 417.42,-68.35"/>
<polygon fill="midnightblue" stroke="midnightblue" points="417.81,-71.83 427.69,-68.01 417.58,-64.84 417.81,-71.83"/>
</g>
<!-- Node8 -->
<g id="node8" class="node">
<title>Node8</title>
<g id="a_node8"><a xlink:href="_u___registry_8hpp.html" target="_top" xlink:title="Header for U_Registry.cpp.">
<polygon fill="none" stroke="black" points="157.5,-112.5 157.5,-131.5 240.5,-131.5 240.5,-112.5 157.5,-112.5"/>
<text text-anchor="middle" x="199" y="-119.5" font-family="Helvetica,sans-Serif" font-size="10.00">U_Registry.hpp</text>
</a>
</g>
</g>
<!-- Node1&#45;&gt;Node8 -->
<g id="edge7" class="edge">
<title>Node1&#45;&gt;Node8</title>
<path fill="none" stroke="midnightblue" d="M373.95,-345.92C324.88,-345.7 233.07,-339.45 168,-300 134.63,-279.76 111.75,-261.06 124,-224 135.46,-189.34 163.92,-156.89 182.3,-138.54"/>
<polygon fill="midnightblue" stroke="midnightblue" points="184.74,-141.04 189.48,-131.57 179.87,-136.02 184.74,-141.04"/>
</g>
<!-- Node9 -->
<g id="node9" class="node">
<title>Node9</title>
<g id="a_node9"><a xlink:href="_u___helper_8hpp.html" target="_top" xlink:title="Header for U_Helper.cpp.">
<polygon fill="none" stroke="black" points="370.5,-280.5 370.5,-299.5 445.5,-299.5 445.5,-280.5 370.5,-280.5"/>
<text text-anchor="middle" x="408" y="-287.5" font-family="Helvetica,sans-Serif" font-size="10.00">U_Helper.hpp</text>
</a>
</g>
</g>
<!-- Node1&#45;&gt;Node9 -->
<g id="edge9" class="edge">
<title>Node1&#45;&gt;Node9</title>
<path fill="none" stroke="midnightblue" d="M402.83,-336.08C401.32,-328.93 400.89,-318.64 401.54,-309.69"/>
<polygon fill="midnightblue" stroke="midnightblue" points="405.02,-310.13 402.87,-299.75 398.08,-309.2 405.02,-310.13"/>
</g>
<!-- Node3 -->
<g id="node3" class="node">
<title>Node3</title>
<g id="a_node3"><a xlink:title=" ">
<polygon fill="none" stroke="#bfbfbf" points="485.5,-0.5 485.5,-19.5 550.5,-19.5 550.5,-0.5 485.5,-0.5"/>
<text text-anchor="middle" x="518" y="-7.5" font-family="Helvetica,sans-Serif" font-size="10.00">Windows.h</text>
</a>
</g>
</g>
<!-- Node2&#45;&gt;Node3 -->
<g id="edge2" class="edge">
<title>Node2&#45;&gt;Node3</title>
<path fill="none" stroke="midnightblue" d="M487.11,-56.08C492.28,-48.53 499.85,-37.49 506.19,-28.23"/>
<polygon fill="midnightblue" stroke="midnightblue" points="509.24,-29.98 512,-19.75 503.46,-26.02 509.24,-29.98"/>
</g>
<!-- Node4 -->
<g id="node4" class="node">
<title>Node4</title>
<g id="a_node4"><a xlink:title=" ">
<polygon fill="none" stroke="#bfbfbf" points="568.5,-0.5 568.5,-19.5 621.5,-19.5 621.5,-0.5 568.5,-0.5"/>
<text text-anchor="middle" x="595" y="-7.5" font-family="Helvetica,sans-Serif" font-size="10.00">fltUser.h</text>
</a>
</g>
</g>
<!-- Node2&#45;&gt;Node4 -->
<g id="edge3" class="edge">
<title>Node2&#45;&gt;Node4</title>
<path fill="none" stroke="midnightblue" d="M499.06,-56.44C517.57,-47.68 546.58,-33.94 567.86,-23.86"/>
<polygon fill="midnightblue" stroke="midnightblue" points="569.48,-26.96 577.02,-19.52 566.49,-20.63 569.48,-26.96"/>
</g>
<!-- Node5 -->
<g id="node5" class="node">
<title>Node5</title>
<g id="a_node5"><a xlink:title=" ">
<polygon fill="none" stroke="#bfbfbf" points="356,-0.5 356,-19.5 402,-19.5 402,-0.5 356,-0.5"/>
<text text-anchor="middle" x="379" y="-7.5" font-family="Helvetica,sans-Serif" font-size="10.00">stdio.h</text>
</a>
</g>
</g>
<!-- Node2&#45;&gt;Node5 -->
<g id="edge4" class="edge">
<title>Node2&#45;&gt;Node5</title>
<path fill="none" stroke="midnightblue" d="M464.61,-56.32C448.33,-47.7 423.13,-34.36 404.28,-24.39"/>
<polygon fill="midnightblue" stroke="midnightblue" points="405.82,-21.24 395.35,-19.65 402.55,-27.43 405.82,-21.24"/>
</g>
<!-- Node6 -->
<g id="node6" class="node">
<title>Node6</title>
<g id="a_node6"><a xlink:title=" ">
<polygon fill="none" stroke="#bfbfbf" points="420.5,-0.5 420.5,-19.5 467.5,-19.5 467.5,-0.5 420.5,-0.5"/>
<text text-anchor="middle" x="444" y="-7.5" font-family="Helvetica,sans-Serif" font-size="10.00">tchar.h</text>
</a>
</g>
</g>
<!-- Node2&#45;&gt;Node6 -->
<g id="edge5" class="edge">
<title>Node2&#45;&gt;Node6</title>
<path fill="none" stroke="midnightblue" d="M474.89,-56.08C469.72,-48.53 462.15,-37.49 455.81,-28.23"/>
<polygon fill="midnightblue" stroke="midnightblue" points="458.54,-26.02 450,-19.75 452.76,-29.98 458.54,-26.02"/>
</g>
<!-- Node7 -->
<g id="node7" class="node">
<title>Node7</title>
<g id="a_node7"><a xlink:title=" ">
<polygon fill="none" stroke="#bfbfbf" points="161,-0.5 161,-19.5 215,-19.5 215,-0.5 161,-0.5"/>
<text text-anchor="middle" x="188" y="-7.5" font-family="Helvetica,sans-Serif" font-size="10.00">strsafe.h</text>
</a>
</g>
</g>
<!-- Node2&#45;&gt;Node7 -->
<g id="edge6" class="edge">
<title>Node2&#45;&gt;Node7</title>
<path fill="none" stroke="midnightblue" d="M434.57,-56.44C376.63,-45.77 278.69,-27.71 225.35,-17.88"/>
<polygon fill="midnightblue" stroke="midnightblue" points="225.77,-14.4 215.3,-16.03 224.5,-21.29 225.77,-14.4"/>
</g>
<!-- Node8&#45;&gt;Node2 -->
<g id="edge8" class="edge">
<title>Node8&#45;&gt;Node2</title>
<path fill="none" stroke="midnightblue" d="M240.61,-113.03C289.84,-103.61 371.94,-87.88 426.28,-77.48"/>
<polygon fill="midnightblue" stroke="midnightblue" points="427.26,-80.85 436.42,-75.54 425.94,-73.98 427.26,-80.85"/>
</g>
<!-- Node9&#45;&gt;Node1 -->
<g id="edge19" class="edge">
<title>Node9&#45;&gt;Node1</title>
<path fill="none" stroke="midnightblue" d="M413.13,-299.75C414.66,-306.86 415.1,-317.14 414.47,-326.1"/>
<polygon fill="midnightblue" stroke="midnightblue" points="410.99,-325.71 413.17,-336.08 417.93,-326.62 410.99,-325.71"/>
</g>
<!-- Node9&#45;&gt;Node2 -->
<g id="edge18" class="edge">
<title>Node9&#45;&gt;Node2</title>
<path fill="none" stroke="midnightblue" d="M445.88,-287.58C506.92,-284.4 622.75,-274.42 648,-244 675.62,-210.72 552.28,-117.49 501.75,-81.46"/>
<polygon fill="midnightblue" stroke="midnightblue" points="503.67,-78.53 493.48,-75.62 499.63,-84.25 503.67,-78.53"/>
</g>
<!-- Node9&#45;&gt;Node7 -->
<g id="edge15" class="edge">
<title>Node9&#45;&gt;Node7</title>
<path fill="none" stroke="midnightblue" d="M370.42,-287.61C303.78,-284.39 168.64,-274.23 134,-244 111.23,-224.13 114,-209.23 114,-179 114,-179 114,-179 114,-121 114,-81.61 147.07,-45.73 169,-26.26"/>
<polygon fill="midnightblue" stroke="midnightblue" points="171.43,-28.79 176.76,-19.64 166.88,-23.47 171.43,-28.79"/>
</g>
<!-- Node10 -->
<g id="node10" class="node">
<title>Node10</title>
<g id="a_node10"><a xlink:title=" ">
<polygon fill="none" stroke="#bfbfbf" points="242.5,-224.5 242.5,-243.5 301.5,-243.5 301.5,-224.5 242.5,-224.5"/>
<text text-anchor="middle" x="272" y="-231.5" font-family="Helvetica,sans-Serif" font-size="10.00">Shlwapi.h</text>
</a>
</g>
</g>
<!-- Node9&#45;&gt;Node10 -->
<g id="edge10" class="edge">
<title>Node9&#45;&gt;Node10</title>
<path fill="none" stroke="midnightblue" d="M386.45,-280.44C363.97,-271.52 328.51,-257.44 303.02,-247.32"/>
<polygon fill="midnightblue" stroke="midnightblue" points="304.03,-243.95 293.45,-243.52 301.45,-250.46 304.03,-243.95"/>
</g>
<!-- Node11 -->
<g id="node11" class="node">
<title>Node11</title>
<g id="a_node11"><a xlink:title=" ">
<polygon fill="none" stroke="#bfbfbf" points="391,-112.5 391,-131.5 453,-131.5 453,-112.5 391,-112.5"/>
<text text-anchor="middle" x="422" y="-119.5" font-family="Helvetica,sans-Serif" font-size="10.00">PathCch.h</text>
</a>
</g>
</g>
<!-- Node9&#45;&gt;Node11 -->
<g id="edge11" class="edge">
<title>Node9&#45;&gt;Node11</title>
<path fill="none" stroke="midnightblue" d="M408.75,-280.08C410.96,-253.95 417.43,-177.21 420.43,-141.58"/>
<polygon fill="midnightblue" stroke="midnightblue" points="423.92,-141.83 421.28,-131.57 416.95,-141.24 423.92,-141.83"/>
</g>
<!-- Node12 -->
<g id="node12" class="node">
<title>Node12</title>
<g id="a_node12"><a xlink:title=" ">
<polygon fill="none" stroke="#bfbfbf" points="319.5,-224.5 319.5,-243.5 360.5,-243.5 360.5,-224.5 319.5,-224.5"/>
<text text-anchor="middle" x="340" y="-231.5" font-family="Helvetica,sans-Serif" font-size="10.00">string</text>
</a>
</g>
</g>
<!-- Node9&#45;&gt;Node12 -->
<g id="edge12" class="edge">
<title>Node9&#45;&gt;Node12</title>
<path fill="none" stroke="midnightblue" d="M397.07,-280.32C386.83,-272.18 371.28,-259.84 359,-250.09"/>
<polygon fill="midnightblue" stroke="midnightblue" points="361.13,-247.31 351.12,-243.83 356.78,-252.79 361.13,-247.31"/>
</g>
<!-- Node13 -->
<g id="node13" class="node">
<title>Node13</title>
<g id="a_node13"><a xlink:title=" ">
<polygon fill="none" stroke="#bfbfbf" points="455,-224.5 455,-243.5 509,-243.5 509,-224.5 455,-224.5"/>
<text text-anchor="middle" x="482" y="-231.5" font-family="Helvetica,sans-Serif" font-size="10.00">iostream</text>
</a>
</g>
</g>
<!-- Node9&#45;&gt;Node13 -->
<g id="edge13" class="edge">
<title>Node9&#45;&gt;Node13</title>
<path fill="none" stroke="midnightblue" d="M419.89,-280.32C431.15,-272.11 448.29,-259.6 461.71,-249.81"/>
<polygon fill="midnightblue" stroke="midnightblue" points="463.88,-252.56 469.89,-243.83 459.75,-246.9 463.88,-252.56"/>
</g>
<!-- Node14 -->
<g id="node14" class="node">
<title>Node14</title>
<g id="a_node14"><a xlink:title=" ">
<polygon fill="none" stroke="#bfbfbf" points="527,-224.5 527,-243.5 589,-243.5 589,-224.5 527,-224.5"/>
<text text-anchor="middle" x="558" y="-231.5" font-family="Helvetica,sans-Serif" font-size="10.00">TlHelp32.h</text>
</a>
</g>
</g>
<!-- Node9&#45;&gt;Node14 -->
<g id="edge14" class="edge">
<title>Node9&#45;&gt;Node14</title>
<path fill="none" stroke="midnightblue" d="M431.77,-280.44C456.89,-271.4 496.71,-257.06 524.9,-246.92"/>
<polygon fill="midnightblue" stroke="midnightblue" points="526.12,-250.2 534.34,-243.52 523.75,-243.61 526.12,-250.2"/>
</g>
<!-- Node15 -->
<g id="node15" class="node">
<title>Node15</title>
<g id="a_node15"><a xlink:title=" ">
<polygon fill="none" stroke="#bfbfbf" points="607,-224.5 607,-243.5 639,-243.5 639,-224.5 607,-224.5"/>
<text text-anchor="middle" x="623" y="-231.5" font-family="Helvetica,sans-Serif" font-size="10.00">io.h</text>
</a>
</g>
</g>
<!-- Node9&#45;&gt;Node15 -->
<g id="edge16" class="edge">
<title>Node9&#45;&gt;Node15</title>
<path fill="none" stroke="midnightblue" d="M445.82,-281.36C482.37,-273.69 539.43,-260.94 597.28,-243.96"/>
<polygon fill="midnightblue" stroke="midnightblue" points="598.36,-247.29 606.95,-241.08 596.37,-240.58 598.36,-247.29"/>
</g>
<!-- Node16 -->
<g id="node16" class="node">
<title>Node16</title>
<g id="a_node16"><a xlink:title=" ">
<polygon fill="none" stroke="#bfbfbf" points="142.5,-224.5 142.5,-243.5 185.5,-243.5 185.5,-224.5 142.5,-224.5"/>
<text text-anchor="middle" x="164" y="-231.5" font-family="Helvetica,sans-Serif" font-size="10.00">fcntl.h</text>
</a>
</g>
</g>
<!-- Node9&#45;&gt;Node16 -->
<g id="edge17" class="edge">
<title>Node9&#45;&gt;Node16</title>
<path fill="none" stroke="midnightblue" d="M370.34,-281.23C328.62,-272.53 259.37,-257.84 200,-244 198.55,-243.66 197.07,-243.31 195.57,-242.95"/>
<polygon fill="midnightblue" stroke="midnightblue" points="196.22,-239.51 185.67,-240.54 194.56,-246.31 196.22,-239.51"/>
</g>
<!-- Node17 -->
<g id="node17" class="node">
<title>Node17</title>
<g id="a_node17"><a xlink:href="_u___service_8hpp.html" target="_top" xlink:title="Header for U_Service.cpp.">
<polygon fill="none" stroke="black" points="695.5,-224.5 695.5,-243.5 774.5,-243.5 774.5,-224.5 695.5,-224.5"/>
<text text-anchor="middle" x="735" y="-231.5" font-family="Helvetica,sans-Serif" font-size="10.00">U_Service.hpp</text>
</a>
</g>
</g>
<!-- Node9&#45;&gt;Node17 -->
<g id="edge20" class="edge">
<title>Node9&#45;&gt;Node17</title>
<path fill="none" stroke="midnightblue" d="M445.64,-281.78C496.93,-272.91 591.2,-257.39 672,-244 676.34,-243.28 680.87,-242.53 685.44,-241.78"/>
<polygon fill="midnightblue" stroke="midnightblue" points="686.13,-245.21 695.44,-240.15 685,-238.3 686.13,-245.21"/>
</g>
<!-- Node17&#45;&gt;Node1 -->
<g id="edge34" class="edge">
<title>Node17&#45;&gt;Node1</title>
<path fill="none" stroke="midnightblue" d="M709.4,-243.61C651.25,-263.17 509.12,-310.98 442.96,-333.24"/>
<polygon fill="midnightblue" stroke="midnightblue" points="441.75,-329.95 433.39,-336.46 443.98,-336.59 441.75,-329.95"/>
</g>
<!-- Node17&#45;&gt;Node2 -->
<g id="edge21" class="edge">
<title>Node17&#45;&gt;Node2</title>
<path fill="none" stroke="midnightblue" d="M723.03,-224.48C710.48,-215.52 690.23,-200.93 673,-188 628.91,-154.92 621.9,-140.95 575,-112 554.68,-99.46 530.32,-87.88 511.5,-79.62"/>
<polygon fill="midnightblue" stroke="midnightblue" points="512.77,-76.36 502.21,-75.61 510,-82.78 512.77,-76.36"/>
</g>
<!-- Node17&#45;&gt;Node9 -->
<g id="edge35" class="edge">
<title>Node17&#45;&gt;Node9</title>
<path fill="none" stroke="midnightblue" d="M695.43,-243.1C693.6,-243.4 691.78,-243.7 690,-244 607.91,-257.61 511.92,-273.4 455.64,-282.19"/>
<polygon fill="midnightblue" stroke="midnightblue" points="454.95,-278.76 445.6,-283.75 456.02,-285.68 454.95,-278.76"/>
</g>
<!-- Node18 -->
<g id="node18" class="node">
<title>Node18</title>
<g id="a_node18"><a xlink:href="_u___configuration_8hpp.html" target="_top" xlink:title="Header for U_Configuration.cpp.">
<polygon fill="none" stroke="black" points="253,-168.5 253,-187.5 357,-187.5 357,-168.5 253,-168.5"/>
<text text-anchor="middle" x="305" y="-175.5" font-family="Helvetica,sans-Serif" font-size="10.00">U_Configuration.hpp</text>
</a>
</g>
</g>
<!-- Node17&#45;&gt;Node18 -->
<g id="edge22" class="edge">
<title>Node17&#45;&gt;Node18</title>
<path fill="none" stroke="midnightblue" d="M695.13,-228.49C619.9,-219.46 456.89,-199.03 367.17,-187.44"/>
<polygon fill="midnightblue" stroke="midnightblue" points="367.5,-183.96 357.14,-186.14 366.6,-190.9 367.5,-183.96"/>
</g>
<!-- Node20 -->
<g id="node20" class="node">
<title>Node20</title>
<g id="a_node20"><a xlink:href="_u___controller_8hpp.html" target="_top" xlink:title="Header for U_Controller.cpp.">
<polygon fill="none" stroke="black" points="432.5,-168.5 432.5,-187.5 521.5,-187.5 521.5,-168.5 432.5,-168.5"/>
<text text-anchor="middle" x="477" y="-175.5" font-family="Helvetica,sans-Serif" font-size="10.00">U_Controller.hpp</text>
</a>
</g>
</g>
<!-- Node17&#45;&gt;Node20 -->
<g id="edge30" class="edge">
<title>Node17&#45;&gt;Node20</title>
<path fill="none" stroke="midnightblue" d="M695.25,-224.68C650.25,-215.26 576.83,-199.9 527.73,-189.62"/>
<polygon fill="midnightblue" stroke="midnightblue" points="528.15,-186.13 517.64,-187.51 526.71,-192.98 528.15,-186.13"/>
</g>
<!-- Node21 -->
<g id="node21" class="node">
<title>Node21</title>
<g id="a_node21"><a xlink:href="_u___communication_8hpp.html" target="_top" xlink:title="Header for U_Communication.cpp.">
<polygon fill="none" stroke="black" points="681.5,-168.5 681.5,-187.5 796.5,-187.5 796.5,-168.5 681.5,-168.5"/>
<text text-anchor="middle" x="739" y="-175.5" font-family="Helvetica,sans-Serif" font-size="10.00">U_Communication.hpp</text>
</a>
</g>
</g>
<!-- Node17&#45;&gt;Node21 -->
<g id="edge36" class="edge">
<title>Node17&#45;&gt;Node21</title>
<path fill="none" stroke="midnightblue" d="M730.49,-224.08C729.51,-216.93 729.85,-206.64 731.16,-197.69"/>
<polygon fill="midnightblue" stroke="midnightblue" points="734.62,-198.25 733.22,-187.75 727.76,-196.83 734.62,-198.25"/>
</g>
<!-- Node18&#45;&gt;Node1 -->
<g id="edge28" class="edge">
<title>Node18&#45;&gt;Node1</title>
<path fill="none" stroke="midnightblue" d="M252.82,-180.85C191.72,-185.09 102.58,-198.93 134,-244 186.18,-318.85 300.42,-338.38 363.67,-343.37"/>
<polygon fill="midnightblue" stroke="midnightblue" points="363.52,-346.87 373.74,-344.08 364.01,-339.89 363.52,-346.87"/>
</g>
<!-- Node18&#45;&gt;Node2 -->
<g id="edge23" class="edge">
<title>Node18&#45;&gt;Node2</title>
<path fill="none" stroke="midnightblue" d="M313.84,-168.11C327.52,-154.69 355.09,-129.02 382,-112 402.75,-98.88 427.96,-87.48 447.75,-79.43"/>
<polygon fill="midnightblue" stroke="midnightblue" points="449.27,-82.6 457.27,-75.65 446.68,-76.09 449.27,-82.6"/>
</g>
<!-- Node18&#45;&gt;Node8 -->
<g id="edge26" class="edge">
<title>Node18&#45;&gt;Node8</title>
<path fill="none" stroke="midnightblue" d="M287.97,-168.32C270.97,-159.66 244.62,-146.24 225.01,-136.25"/>
<polygon fill="midnightblue" stroke="midnightblue" points="226.49,-133.08 215.99,-131.65 223.31,-139.31 226.49,-133.08"/>
</g>
<!-- Node18&#45;&gt;Node9 -->
<g id="edge29" class="edge">
<title>Node18&#45;&gt;Node9</title>
<path fill="none" stroke="midnightblue" d="M282.33,-187.66C255.4,-199.24 216.2,-221.01 234,-244 249.36,-263.84 314.1,-276.51 360.11,-283.19"/>
<polygon fill="midnightblue" stroke="midnightblue" points="359.81,-286.68 370.2,-284.61 360.78,-279.75 359.81,-286.68"/>
</g>
<!-- Node18&#45;&gt;Node11 -->
<g id="edge24" class="edge">
<title>Node18&#45;&gt;Node11</title>
<path fill="none" stroke="midnightblue" d="M323.54,-168.44C342.62,-159.64 372.57,-145.81 394.44,-135.72"/>
<polygon fill="midnightblue" stroke="midnightblue" points="395.93,-138.88 403.55,-131.52 393,-132.53 395.93,-138.88"/>
</g>
<!-- Node18&#45;&gt;Node17 -->
<g id="edge27" class="edge">
<title>Node18&#45;&gt;Node17</title>
<path fill="none" stroke="midnightblue" d="M357.29,-185.01C440.89,-195.13 603.26,-215.51 685.23,-226.16"/>
<polygon fill="midnightblue" stroke="midnightblue" points="684.93,-229.65 695.29,-227.47 685.83,-222.71 684.93,-229.65"/>
</g>
<!-- Node19 -->
<g id="node19" class="node">
<title>Node19</title>
<g id="a_node19"><a xlink:title=" ">
<polygon fill="none" stroke="#bfbfbf" points="259,-112.5 259,-131.5 335,-131.5 335,-112.5 259,-112.5"/>
<text text-anchor="middle" x="297" y="-119.5" font-family="Helvetica,sans-Serif" font-size="10.00">Shlobj_core.h</text>
</a>
</g>
</g>
<!-- Node18&#45;&gt;Node19 -->
<g id="edge25" class="edge">
<title>Node18&#45;&gt;Node19</title>
<path fill="none" stroke="midnightblue" d="M303.68,-168.08C302.62,-160.93 301.09,-150.64 299.77,-141.69"/>
<polygon fill="midnightblue" stroke="midnightblue" points="303.22,-141.13 298.3,-131.75 296.3,-142.16 303.22,-141.13"/>
</g>
<!-- Node20&#45;&gt;Node2 -->
<g id="edge31" class="edge">
<title>Node20&#45;&gt;Node2</title>
<path fill="none" stroke="midnightblue" d="M477.31,-168.37C477.96,-150.62 479.45,-109.67 480.32,-85.6"/>
<polygon fill="midnightblue" stroke="midnightblue" points="483.82,-85.71 480.69,-75.59 476.83,-85.46 483.82,-85.71"/>
</g>
<!-- Node20&#45;&gt;Node9 -->
<g id="edge33" class="edge">
<title>Node20&#45;&gt;Node9</title>
<path fill="none" stroke="midnightblue" d="M470.63,-187.83C464.22,-196.81 454.14,-211.19 446,-224 435.94,-239.82 425.23,-258.32 417.75,-271.53"/>
<polygon fill="midnightblue" stroke="midnightblue" points="414.57,-270.03 412.72,-280.47 420.67,-273.46 414.57,-270.03"/>
</g>
<!-- Node20&#45;&gt;Node11 -->
<g id="edge32" class="edge">
<title>Node20&#45;&gt;Node11</title>
<path fill="none" stroke="midnightblue" d="M467.92,-168.08C459.83,-160.14 447.8,-148.34 438.09,-138.8"/>
<polygon fill="midnightblue" stroke="midnightblue" points="440.5,-136.26 430.91,-131.75 435.6,-141.25 440.5,-136.26"/>
</g>
<!-- Node21&#45;&gt;Node1 -->
<g id="edge39" class="edge">
<title>Node21&#45;&gt;Node1</title>
<path fill="none" stroke="midnightblue" d="M752.49,-187.58C770.61,-200.17 798.92,-224.31 784,-244 743.77,-297.11 542.5,-328.32 452.09,-339.86"/>
<polygon fill="midnightblue" stroke="midnightblue" points="451.64,-336.39 442.15,-341.11 452.51,-343.34 451.64,-336.39"/>
</g>
<!-- Node21&#45;&gt;Node2 -->
<g id="edge37" class="edge">
<title>Node21&#45;&gt;Node2</title>
<path fill="none" stroke="midnightblue" d="M724.22,-168.46C701.02,-155.28 654.45,-129.64 613,-112 582.28,-98.93 546.36,-86.88 519.75,-78.55"/>
<polygon fill="midnightblue" stroke="midnightblue" points="520.63,-75.16 510.04,-75.54 518.56,-81.84 520.63,-75.16"/>
</g>
<!-- Node21&#45;&gt;Node17 -->
<g id="edge38" class="edge">
<title>Node21&#45;&gt;Node17</title>
<path fill="none" stroke="midnightblue" d="M743.48,-187.75C744.48,-194.86 744.17,-205.14 742.87,-214.1"/>
<polygon fill="midnightblue" stroke="midnightblue" points="739.41,-213.58 740.83,-224.08 746.26,-214.99 739.41,-213.58"/>
</g>
<!-- Node22 -->
<g id="node22" class="node">
<title>Node22</title>
<g id="a_node22"><a xlink:href="_shared_defs_8hpp.html" target="_top" xlink:title="Header file which contains the structures, type definitions, constants, global variablesand function ...">
<polygon fill="none" stroke="black" points="665,-112.5 665,-131.5 813,-131.5 813,-112.5 665,-112.5"/>
<text text-anchor="middle" x="739" y="-119.5" font-family="Helvetica,sans-Serif" font-size="10.00">../SharedDefs/SharedDefs.hpp</text>
</a>
</g>
</g>
<!-- Node21&#45;&gt;Node22 -->
<g id="edge40" class="edge">
<title>Node21&#45;&gt;Node22</title>
<path fill="none" stroke="midnightblue" d="M739,-168.08C739,-161.01 739,-150.86 739,-141.99"/>
<polygon fill="midnightblue" stroke="midnightblue" points="742.5,-141.75 739,-131.75 735.5,-141.75 742.5,-141.75"/>
</g>
<!-- Node23 -->
<g id="node23" class="node">
<title>Node23</title>
<g id="a_node23"><a xlink:href="_u___signature_8hpp.html" target="_top" xlink:title="Header for U_Signature.cpp.">
<polygon fill="none" stroke="black" points="907.5,-112.5 907.5,-131.5 996.5,-131.5 996.5,-112.5 907.5,-112.5"/>
<text text-anchor="middle" x="952" y="-119.5" font-family="Helvetica,sans-Serif" font-size="10.00">U_Signature.hpp</text>
</a>
</g>
</g>
<!-- Node21&#45;&gt;Node23 -->
<g id="edge41" class="edge">
<title>Node21&#45;&gt;Node23</title>
<path fill="none" stroke="midnightblue" d="M772.75,-168.44C809.52,-159.12 868.45,-144.18 908.62,-134"/>
<polygon fill="midnightblue" stroke="midnightblue" points="909.57,-137.37 918.41,-131.52 907.85,-130.58 909.57,-137.37"/>
</g>
<!-- Node28 -->
<g id="node28" class="node">
<title>Node28</title>
<g id="a_node28"><a xlink:title=" ">
<polygon fill="none" stroke="#bfbfbf" points="831,-112.5 831,-131.5 889,-131.5 889,-112.5 831,-112.5"/>
<text text-anchor="middle" x="860" y="-119.5" font-family="Helvetica,sans-Serif" font-size="10.00">winternl.h</text>
</a>
</g>
</g>
<!-- Node21&#45;&gt;Node28 -->
<g id="edge47" class="edge">
<title>Node21&#45;&gt;Node28</title>
<path fill="none" stroke="midnightblue" d="M758.17,-168.44C777.91,-159.64 808.89,-145.81 831.49,-135.72"/>
<polygon fill="midnightblue" stroke="midnightblue" points="833.21,-138.79 840.92,-131.52 830.36,-132.4 833.21,-138.79"/>
</g>
<!-- Node23&#45;&gt;Node2 -->
<g id="edge42" class="edge">
<title>Node23&#45;&gt;Node2</title>
<path fill="none" stroke="midnightblue" d="M907.24,-113.34C904.12,-112.86 901.01,-112.41 898,-112 772.95,-94.85 626.07,-80.29 544.24,-72.68"/>
<polygon fill="midnightblue" stroke="midnightblue" points="544.39,-69.18 534.11,-71.74 543.74,-76.15 544.39,-69.18"/>
</g>
<!-- Node24 -->
<g id="node24" class="node">
<title>Node24</title>
<g id="a_node24"><a xlink:title=" ">
<polygon fill="none" stroke="#bfbfbf" points="800.5,-56.5 800.5,-75.5 861.5,-75.5 861.5,-56.5 800.5,-56.5"/>
<text text-anchor="middle" x="831" y="-63.5" font-family="Helvetica,sans-Serif" font-size="10.00">wincrypt.h</text>
</a>
</g>
</g>
<!-- Node23&#45;&gt;Node24 -->
<g id="edge43" class="edge">
<title>Node23&#45;&gt;Node24</title>
<path fill="none" stroke="midnightblue" d="M932.83,-112.44C913.09,-103.64 882.11,-89.81 859.51,-79.72"/>
<polygon fill="midnightblue" stroke="midnightblue" points="860.64,-76.4 850.08,-75.52 857.79,-82.79 860.64,-76.4"/>
</g>
<!-- Node25 -->
<g id="node25" class="node">
<title>Node25</title>
<g id="a_node25"><a xlink:title=" ">
<polygon fill="none" stroke="#bfbfbf" points="880,-56.5 880,-75.5 944,-75.5 944,-56.5 880,-56.5"/>
<text text-anchor="middle" x="912" y="-63.5" font-family="Helvetica,sans-Serif" font-size="10.00">WinTrust.h</text>
</a>
</g>
</g>
<!-- Node23&#45;&gt;Node25 -->
<g id="edge44" class="edge">
<title>Node23&#45;&gt;Node25</title>
<path fill="none" stroke="midnightblue" d="M945.39,-112.08C939.74,-104.46 931.46,-93.26 924.55,-83.94"/>
<polygon fill="midnightblue" stroke="midnightblue" points="927.25,-81.7 918.48,-75.75 921.62,-85.87 927.25,-81.7"/>
</g>
<!-- Node26 -->
<g id="node26" class="node">
<title>Node26</title>
<g id="a_node26"><a xlink:title=" ">
<polygon fill="none" stroke="#bfbfbf" points="962.5,-56.5 962.5,-75.5 1021.5,-75.5 1021.5,-56.5 962.5,-56.5"/>
<text text-anchor="middle" x="992" y="-63.5" font-family="Helvetica,sans-Serif" font-size="10.00">SoftPub.h</text>
</a>
</g>
</g>
<!-- Node23&#45;&gt;Node26 -->
<g id="edge45" class="edge">
<title>Node23&#45;&gt;Node26</title>
<path fill="none" stroke="midnightblue" d="M958.61,-112.08C964.26,-104.46 972.54,-93.26 979.45,-83.94"/>
<polygon fill="midnightblue" stroke="midnightblue" points="982.38,-85.87 985.52,-75.75 976.75,-81.7 982.38,-85.87"/>
</g>
<!-- Node27 -->
<g id="node27" class="node">
<title>Node27</title>
<g id="a_node27"><a xlink:title=" ">
<polygon fill="none" stroke="#bfbfbf" points="1040,-56.5 1040,-75.5 1092,-75.5 1092,-56.5 1040,-56.5"/>
<text text-anchor="middle" x="1066" y="-63.5" font-family="Helvetica,sans-Serif" font-size="10.00">mscat.h</text>
</a>
</g>
</g>
<!-- Node23&#45;&gt;Node27 -->
<g id="edge46" class="edge">
<title>Node23&#45;&gt;Node27</title>
<path fill="none" stroke="midnightblue" d="M970.06,-112.44C988.57,-103.68 1017.58,-89.94 1038.86,-79.86"/>
<polygon fill="midnightblue" stroke="midnightblue" points="1040.48,-82.96 1048.02,-75.52 1037.49,-76.63 1040.48,-82.96"/>
</g>
</g>
</svg>
        <g id="navigator" transform="translate(0 0)" fill="#404254">
                <rect fill="#f2f5e9" fill-opacity="0.5" stroke="#606060" stroke-width=".5" x="0" y="0" width="60" height="60"/>
                <use id="zoomplus" xlink:href="#zoomPlus" x="17" y="9" onmousedown="handleZoom(evt,'in')"/>
                <use id="zoomminus" xlink:href="#zoomMin" x="42" y="9" onmousedown="handleZoom(evt,'out')"/>
                <use id="reset" xlink:href="#resetDef" x="30" y="36" onmousedown="handleReset()"/>
                <g id="arrowUp" xlink:href="#dirArrow" transform="translate(30 24)" onmousedown="handlePan(0,-1)">
                  <use xlink:href="#rim" fill="#404040">
                        <set attributeName="fill" to="#808080" begin="arrowUp.mouseover" end="arrowUp.mouseout"/>
                  </use>
                  <path fill="none" stroke="white" stroke-width="1.5" d="M0,-3.0v7 M-2.5,-0.5L0,-3.0L2.5,-0.5"/>
                </g>
                <g id="arrowRight" xlink:href="#dirArrow" transform="rotate(90) translate(36 -43)" onmousedown="handlePan(1,0)">
                  <use xlink:href="#rim" fill="#404040">
                        <set attributeName="fill" to="#808080" begin="arrowRight.mouseover" end="arrowRight.mouseout"/>
                  </use>
                  <path fill="none" stroke="white" stroke-width="1.5" d="M0,-3.0v7 M-2.5,-0.5L0,-3.0L2.5,-0.5"/>
                </g>
                <g id="arrowDown" xlink:href="#dirArrow" transform="rotate(180) translate(-30 -48)" onmousedown="handlePan(0,1)">
                  <use xlink:href="#rim" fill="#404040">
                        <set attributeName="fill" to="#808080" begin="arrowDown.mouseover" end="arrowDown.mouseout"/>
                  </use>
                  <path fill="none" stroke="white" stroke-width="1.5" d="M0,-3.0v7 M-2.5,-0.5L0,-3.0L2.5,-0.5"/>
                </g>
                <g id="arrowLeft" xlink:href="#dirArrow" transform="rotate(270) translate(-36 17)" onmousedown="handlePan(-1,0)">
                  <use xlink:href="#rim" fill="#404040">
                        <set attributeName="fill" to="#808080" begin="arrowLeft.mouseover" end="arrowLeft.mouseout"/>
                  </use>
                  <path fill="none" stroke="white" stroke-width="1.5" d="M0,-3.0v7 M-2.5,-0.5L0,-3.0L2.5,-0.5"/>
                </g>
        </g>
        <svg viewBox="0 0 15 15" width="100%" height="30px" preserveAspectRatio="xMaxYMin meet">
         <g id="arrow_out" transform="scale(0.3 0.3)">
          <a xlink:href="_u___logs_8hpp__incl_org.svg" target="_base">
           <rect id="button" ry="5" rx="5" y="6" x="6" height="38" width="38"
                fill="#f2f5e9" fill-opacity="0.5" stroke="#606060" stroke-width="1.0"/>
           <path id="arrow"
             d="M 11.500037,31.436501 C 11.940474,20.09759 22.043105,11.32322 32.158766,21.979434 L 37.068811,17.246167 C 37.068811,17.246167 37.088388,32 37.088388,32 L 22.160133,31.978069 C 22.160133,31.978069 26.997745,27.140456 26.997745,27.140456 C 18.528582,18.264221 13.291696,25.230495 11.500037,31.436501 z"
             style="fill:#404040;"/>
          </a>
         </g>
        </svg>
</svg>
