<?xml version="1.0" encoding="UTF-8" standalone="no"?>
<!DOCTYPE svg PUBLIC "-//W3C//DTD SVG 1.1//EN"
 "http://www.w3.org/Graphics/SVG/1.1/DTD/svg11.dtd">
<!-- Generated by graphviz version 4.0.0 (20220529.0937)
 -->
<!-- Title: C:/Users/admin&#45;cyb/Desktop/PI&#45;Defender/Sources/PI&#45;Defender_UM/U_Communication.hpp Pages: 1 -->
<svg width="1186pt" height="453pt"
 viewBox="0.00 0.00 1186.12 453.00" xmlns="http://www.w3.org/2000/svg" xmlns:xlink="http://www.w3.org/1999/xlink">
<g id="graph0" class="graph" transform="scale(1 1) rotate(0) translate(4 449)">
<title>C:/Users/admin&#45;cyb/Desktop/PI&#45;Defender/Sources/PI&#45;Defender_UM/U_Communication.hpp</title>
<!-- Node1 -->
<g id="node1" class="node">
<title>Node1</title>
<g id="a_node1"><a xlink:title="Header for U_Communication.cpp.">
<polygon fill="#bfbfbf" stroke="black" points="716.12,-392.5 716.12,-444.5 854.12,-444.5 854.12,-392.5 716.12,-392.5"/>
<text text-anchor="start" x="724.12" y="-432.5" font-family="Helvetica,sans-Serif" font-size="10.00">C:/Users/admin&#45;cyb</text>
<text text-anchor="start" x="724.12" y="-421.5" font-family="Helvetica,sans-Serif" font-size="10.00">/Desktop/PI&#45;Defender</text>
<text text-anchor="start" x="724.12" y="-410.5" font-family="Helvetica,sans-Serif" font-size="10.00">/Sources/PI&#45;Defender</text>
<text text-anchor="middle" x="785.12" y="-399.5" font-family="Helvetica,sans-Serif" font-size="10.00">_UM/U_Communication.hpp</text>
</a>
</g>
</g>
<!-- Node2 -->
<g id="node2" class="node">
<title>Node2</title>
<g id="a_node2"><a xlink:href="_u___global_header_8hpp.html" target="_top" xlink:title="Header used by several .hpp files.">
<polygon fill="none" stroke="black" points="618.12,-56.5 618.12,-75.5 724.12,-75.5 724.12,-56.5 618.12,-56.5"/>
<text text-anchor="middle" x="671.12" y="-63.5" font-family="Helvetica,sans-Serif" font-size="10.00">U_GlobalHeader.hpp</text>
</a>
</g>
</g>
<!-- Node1&#45;&gt;Node2 -->
<g id="edge1" class="edge">
<title>Node1&#45;&gt;Node2</title>
<path fill="none" stroke="midnightblue" d="M785.12,-392.3C785.12,-366.77 785.12,-326.14 785.12,-291 785.12,-291 785.12,-291 785.12,-177 785.12,-130.11 734.57,-96.89 700.79,-79.93"/>
<polygon fill="midnightblue" stroke="midnightblue" points="702.29,-76.77 691.77,-75.58 699.25,-83.07 702.29,-76.77"/>
</g>
<!-- Node8 -->
<g id="node8" class="node">
<title>Node8</title>
<g id="a_node8"><a xlink:href="_u___service_8hpp.html" target="_top" xlink:title="Header for U_Service.cpp.">
<polygon fill="none" stroke="black" points="338.62,-336.5 338.62,-355.5 417.62,-355.5 417.62,-336.5 338.62,-336.5"/>
<text text-anchor="middle" x="378.12" y="-343.5" font-family="Helvetica,sans-Serif" font-size="10.00">U_Service.hpp</text>
</a>
</g>
</g>
<!-- Node1&#45;&gt;Node8 -->
<g id="edge7" class="edge">
<title>Node1&#45;&gt;Node8</title>
<path fill="none" stroke="midnightblue" d="M716.01,-406.41C634.2,-392.64 500.13,-369.4 427.87,-356.44"/>
<polygon fill="midnightblue" stroke="midnightblue" points="428.13,-352.94 417.67,-354.61 426.89,-359.83 428.13,-352.94"/>
</g>
<!-- Node13 -->
<g id="node13" class="node">
<title>Node13</title>
<g id="a_node13"><a xlink:href="_u___logs_8hpp.html" target="_top" xlink:title="Header for U_Logs.cpp.">
<polygon fill="none" stroke="black" points="56.12,-168.5 56.12,-187.5 124.12,-187.5 124.12,-168.5 56.12,-168.5"/>
<text text-anchor="middle" x="90.12" y="-175.5" font-family="Helvetica,sans-Serif" font-size="10.00">U_Logs.hpp</text>
</a>
</g>
</g>
<!-- Node1&#45;&gt;Node13 -->
<g id="edge39" class="edge">
<title>Node1&#45;&gt;Node13</title>
<path fill="none" stroke="midnightblue" d="M716.07,-412.06C626.15,-404.1 464.47,-386.77 329.12,-356 197.62,-326.1 117.39,-359.1 47.12,-244 36.44,-226.49 53.48,-206.93 69.16,-193.88"/>
<polygon fill="midnightblue" stroke="midnightblue" points="71.35,-196.61 77.08,-187.7 67.05,-191.09 71.35,-196.61"/>
</g>
<!-- Node22 -->
<g id="node22" class="node">
<title>Node22</title>
<g id="a_node22"><a xlink:href="_shared_defs_8hpp.html" target="_top" xlink:title="Header file which contains the structures, type definitions, constants, global variablesand function ...">
<polygon fill="none" stroke="black" points="954.12,-336.5 954.12,-355.5 1102.12,-355.5 1102.12,-336.5 954.12,-336.5"/>
<text text-anchor="middle" x="1028.12" y="-343.5" font-family="Helvetica,sans-Serif" font-size="10.00">../SharedDefs/SharedDefs.hpp</text>
</a>
</g>
</g>
<!-- Node1&#45;&gt;Node22 -->
<g id="edge40" class="edge">
<title>Node1&#45;&gt;Node22</title>
<path fill="none" stroke="midnightblue" d="M854.43,-397.39C898.03,-384.74 952.69,-368.88 988.93,-358.37"/>
<polygon fill="midnightblue" stroke="midnightblue" points="990.01,-361.7 998.63,-355.55 988.06,-354.98 990.01,-361.7"/>
</g>
<!-- Node23 -->
<g id="node23" class="node">
<title>Node23</title>
<g id="a_node23"><a xlink:href="_u___signature_8hpp.html" target="_top" xlink:title="Header for U_Signature.cpp.">
<polygon fill="none" stroke="black" points="846.62,-336.5 846.62,-355.5 935.62,-355.5 935.62,-336.5 846.62,-336.5"/>
<text text-anchor="middle" x="891.12" y="-343.5" font-family="Helvetica,sans-Serif" font-size="10.00">U_Signature.hpp</text>
</a>
</g>
</g>
<!-- Node1&#45;&gt;Node23 -->
<g id="edge41" class="edge">
<title>Node1&#45;&gt;Node23</title>
<path fill="none" stroke="midnightblue" d="M822.79,-392.45C838.55,-381.96 856.3,-370.16 869.75,-361.22"/>
<polygon fill="midnightblue" stroke="midnightblue" points="871.91,-363.98 878.3,-355.53 868.04,-358.15 871.91,-363.98"/>
</g>
<!-- Node28 -->
<g id="node28" class="node">
<title>Node28</title>
<g id="a_node28"><a xlink:title=" ">
<polygon fill="none" stroke="#bfbfbf" points="1120.12,-336.5 1120.12,-355.5 1178.12,-355.5 1178.12,-336.5 1120.12,-336.5"/>
<text text-anchor="middle" x="1149.12" y="-343.5" font-family="Helvetica,sans-Serif" font-size="10.00">winternl.h</text>
</a>
</g>
</g>
<!-- Node1&#45;&gt;Node28 -->
<g id="edge47" class="edge">
<title>Node1&#45;&gt;Node28</title>
<path fill="none" stroke="midnightblue" d="M854.31,-405.4C918.17,-394.02 1015.86,-376.06 1110.11,-356.14"/>
<polygon fill="midnightblue" stroke="midnightblue" points="1111.05,-359.52 1120.11,-354.02 1109.6,-352.67 1111.05,-359.52"/>
</g>
<!-- Node3 -->
<g id="node3" class="node">
<title>Node3</title>
<g id="a_node3"><a xlink:title=" ">
<polygon fill="none" stroke="#bfbfbf" points="712.62,-0.5 712.62,-19.5 777.62,-19.5 777.62,-0.5 712.62,-0.5"/>
<text text-anchor="middle" x="745.12" y="-7.5" font-family="Helvetica,sans-Serif" font-size="10.00">Windows.h</text>
</a>
</g>
</g>
<!-- Node2&#45;&gt;Node3 -->
<g id="edge2" class="edge">
<title>Node2&#45;&gt;Node3</title>
<path fill="none" stroke="midnightblue" d="M683.01,-56.32C694.27,-48.11 711.41,-35.6 724.83,-25.81"/>
<polygon fill="midnightblue" stroke="midnightblue" points="727,-28.56 733.02,-19.83 722.88,-22.9 727,-28.56"/>
</g>
<!-- Node4 -->
<g id="node4" class="node">
<title>Node4</title>
<g id="a_node4"><a xlink:title=" ">
<polygon fill="none" stroke="#bfbfbf" points="511.62,-0.5 511.62,-19.5 564.62,-19.5 564.62,-0.5 511.62,-0.5"/>
<text text-anchor="middle" x="538.12" y="-7.5" font-family="Helvetica,sans-Serif" font-size="10.00">fltUser.h</text>
</a>
</g>
</g>
<!-- Node2&#45;&gt;Node4 -->
<g id="edge3" class="edge">
<title>Node2&#45;&gt;Node4</title>
<path fill="none" stroke="midnightblue" d="M650.05,-56.44C628.06,-47.52 593.39,-33.44 568.46,-23.32"/>
<polygon fill="midnightblue" stroke="midnightblue" points="569.68,-20.04 559.1,-19.52 567.05,-26.52 569.68,-20.04"/>
</g>
<!-- Node5 -->
<g id="node5" class="node">
<title>Node5</title>
<g id="a_node5"><a xlink:title=" ">
<polygon fill="none" stroke="#bfbfbf" points="583.12,-0.5 583.12,-19.5 629.12,-19.5 629.12,-0.5 583.12,-0.5"/>
<text text-anchor="middle" x="606.12" y="-7.5" font-family="Helvetica,sans-Serif" font-size="10.00">stdio.h</text>
</a>
</g>
</g>
<!-- Node2&#45;&gt;Node5 -->
<g id="edge4" class="edge">
<title>Node2&#45;&gt;Node5</title>
<path fill="none" stroke="midnightblue" d="M660.68,-56.32C650.98,-48.26 636.31,-36.08 624.62,-26.37"/>
<polygon fill="midnightblue" stroke="midnightblue" points="626.68,-23.53 616.76,-19.83 622.21,-28.92 626.68,-23.53"/>
</g>
<!-- Node6 -->
<g id="node6" class="node">
<title>Node6</title>
<g id="a_node6"><a xlink:title=" ">
<polygon fill="none" stroke="#bfbfbf" points="647.62,-0.5 647.62,-19.5 694.62,-19.5 694.62,-0.5 647.62,-0.5"/>
<text text-anchor="middle" x="671.12" y="-7.5" font-family="Helvetica,sans-Serif" font-size="10.00">tchar.h</text>
</a>
</g>
</g>
<!-- Node2&#45;&gt;Node6 -->
<g id="edge5" class="edge">
<title>Node2&#45;&gt;Node6</title>
<path fill="none" stroke="midnightblue" d="M671.12,-56.08C671.12,-49.01 671.12,-38.86 671.12,-29.99"/>
<polygon fill="midnightblue" stroke="midnightblue" points="674.62,-29.75 671.12,-19.75 667.62,-29.75 674.62,-29.75"/>
</g>
<!-- Node7 -->
<g id="node7" class="node">
<title>Node7</title>
<g id="a_node7"><a xlink:title=" ">
<polygon fill="none" stroke="#bfbfbf" points="796.12,-0.5 796.12,-19.5 850.12,-19.5 850.12,-0.5 796.12,-0.5"/>
<text text-anchor="middle" x="823.12" y="-7.5" font-family="Helvetica,sans-Serif" font-size="10.00">strsafe.h</text>
</a>
</g>
</g>
<!-- Node2&#45;&gt;Node7 -->
<g id="edge6" class="edge">
<title>Node2&#45;&gt;Node7</title>
<path fill="none" stroke="midnightblue" d="M695.21,-56.44C720.67,-47.4 761.02,-33.06 789.58,-22.92"/>
<polygon fill="midnightblue" stroke="midnightblue" points="790.9,-26.16 799.15,-19.52 788.56,-19.57 790.9,-26.16"/>
</g>
<!-- Node8&#45;&gt;Node1 -->
<g id="edge38" class="edge">
<title>Node8&#45;&gt;Node1</title>
<path fill="none" stroke="midnightblue" d="M417.81,-353.18C484.34,-364.18 619.26,-387.46 705.79,-402.79"/>
<polygon fill="midnightblue" stroke="midnightblue" points="705.38,-406.27 715.84,-404.57 706.6,-399.38 705.38,-406.27"/>
</g>
<!-- Node8&#45;&gt;Node2 -->
<g id="edge8" class="edge">
<title>Node8&#45;&gt;Node2</title>
<path fill="none" stroke="midnightblue" d="M417.96,-341.63C513.38,-332.48 747.12,-303.1 747.12,-235 747.12,-235 747.12,-235 747.12,-177 747.12,-137.28 713.16,-101.5 690.64,-82.15"/>
<polygon fill="midnightblue" stroke="midnightblue" points="692.6,-79.24 682.67,-75.57 688.15,-84.63 692.6,-79.24"/>
</g>
<!-- Node9 -->
<g id="node9" class="node">
<title>Node9</title>
<g id="a_node9"><a xlink:href="_u___configuration_8hpp.html" target="_top" xlink:title="Header for U_Configuration.cpp.">
<polygon fill="none" stroke="black" points="165.12,-280.5 165.12,-299.5 269.12,-299.5 269.12,-280.5 165.12,-280.5"/>
<text text-anchor="middle" x="217.12" y="-287.5" font-family="Helvetica,sans-Serif" font-size="10.00">U_Configuration.hpp</text>
</a>
</g>
</g>
<!-- Node8&#45;&gt;Node9 -->
<g id="edge9" class="edge">
<title>Node8&#45;&gt;Node9</title>
<path fill="none" stroke="midnightblue" d="M347.52,-336.44C318.57,-327.4 275.63,-313.06 246.94,-302.92"/>
<polygon fill="midnightblue" stroke="midnightblue" points="248.03,-299.59 237.43,-299.52 245.67,-306.18 248.03,-299.59"/>
</g>
<!-- Node8&#45;&gt;Node13 -->
<g id="edge36" class="edge">
<title>Node8&#45;&gt;Node13</title>
<path fill="none" stroke="midnightblue" d="M366.75,-336.26C338.91,-315.14 264.69,-260.36 197.12,-224 173.27,-211.16 144.97,-199.4 123.46,-191.12"/>
<polygon fill="midnightblue" stroke="midnightblue" points="124.69,-187.85 114.1,-187.57 122.21,-194.39 124.69,-187.85"/>
</g>
<!-- Node14 -->
<g id="node14" class="node">
<title>Node14</title>
<g id="a_node14"><a xlink:href="_u___utilitaire_8hpp.html" target="_top" xlink:title="Header for U_Utilitaire.cpp.">
<polygon fill="none" stroke="black" points="336.62,-224.5 336.62,-243.5 419.62,-243.5 419.62,-224.5 336.62,-224.5"/>
<text text-anchor="middle" x="378.12" y="-231.5" font-family="Helvetica,sans-Serif" font-size="10.00">U_Utilitaire.hpp</text>
</a>
</g>
</g>
<!-- Node8&#45;&gt;Node14 -->
<g id="edge37" class="edge">
<title>Node8&#45;&gt;Node14</title>
<path fill="none" stroke="midnightblue" d="M374.28,-336.37C370.93,-318.62 370.48,-277.67 372.91,-253.6"/>
<polygon fill="midnightblue" stroke="midnightblue" points="376.39,-253.97 374.29,-243.59 369.46,-253.02 376.39,-253.97"/>
</g>
<!-- Node21 -->
<g id="node21" class="node">
<title>Node21</title>
<g id="a_node21"><a xlink:href="_u___controller_8hpp.html" target="_top" xlink:title="Header for U_Controller.cpp.">
<polygon fill="none" stroke="black" points="469.62,-280.5 469.62,-299.5 558.62,-299.5 558.62,-280.5 469.62,-280.5"/>
<text text-anchor="middle" x="514.12" y="-287.5" font-family="Helvetica,sans-Serif" font-size="10.00">U_Controller.hpp</text>
</a>
</g>
</g>
<!-- Node8&#45;&gt;Node21 -->
<g id="edge32" class="edge">
<title>Node8&#45;&gt;Node21</title>
<path fill="none" stroke="midnightblue" d="M399.67,-336.44C422.15,-327.52 457.61,-313.44 483.1,-303.32"/>
<polygon fill="midnightblue" stroke="midnightblue" points="484.67,-306.46 492.67,-299.52 482.09,-299.95 484.67,-306.46"/>
</g>
<!-- Node9&#45;&gt;Node2 -->
<g id="edge10" class="edge">
<title>Node9&#45;&gt;Node2</title>
<path fill="none" stroke="midnightblue" d="M208.98,-280.34C195.83,-266.77 168.58,-240.33 141.12,-224 102.67,-201.13 82.18,-215.79 47.12,-188 17.53,-164.54 -16.66,-139.59 9.12,-112 49.45,-68.84 450.16,-65.95 607.85,-66.51"/>
<polygon fill="midnightblue" stroke="midnightblue" points="607.86,-70.01 617.88,-66.55 607.89,-63.01 607.86,-70.01"/>
</g>
<!-- Node9&#45;&gt;Node8 -->
<g id="edge15" class="edge">
<title>Node9&#45;&gt;Node8</title>
<path fill="none" stroke="midnightblue" d="M247.59,-299.52C276.5,-308.55 319.45,-322.88 348.18,-333.04"/>
<polygon fill="midnightblue" stroke="midnightblue" points="347.11,-336.37 357.7,-336.44 349.46,-329.78 347.11,-336.37"/>
</g>
<!-- Node10 -->
<g id="node10" class="node">
<title>Node10</title>
<g id="a_node10"><a xlink:title=" ">
<polygon fill="none" stroke="#bfbfbf" points="619.12,-168.5 619.12,-187.5 681.12,-187.5 681.12,-168.5 619.12,-168.5"/>
<text text-anchor="middle" x="650.12" y="-175.5" font-family="Helvetica,sans-Serif" font-size="10.00">PathCch.h</text>
</a>
</g>
</g>
<!-- Node9&#45;&gt;Node10 -->
<g id="edge11" class="edge">
<title>Node9&#45;&gt;Node10</title>
<path fill="none" stroke="midnightblue" d="M261.8,-280.48C304.67,-272.07 371.11,-258.4 428.12,-244 494.05,-227.34 569.88,-204.29 613.67,-190.58"/>
<polygon fill="midnightblue" stroke="midnightblue" points="614.81,-193.89 623.3,-187.56 612.71,-187.21 614.81,-193.89"/>
</g>
<!-- Node11 -->
<g id="node11" class="node">
<title>Node11</title>
<g id="a_node11"><a xlink:title=" ">
<polygon fill="none" stroke="#bfbfbf" points="56.12,-224.5 56.12,-243.5 132.12,-243.5 132.12,-224.5 56.12,-224.5"/>
<text text-anchor="middle" x="94.12" y="-231.5" font-family="Helvetica,sans-Serif" font-size="10.00">Shlobj_core.h</text>
</a>
</g>
</g>
<!-- Node9&#45;&gt;Node11 -->
<g id="edge12" class="edge">
<title>Node9&#45;&gt;Node11</title>
<path fill="none" stroke="midnightblue" d="M197.63,-280.44C177.48,-271.6 145.8,-257.69 122.79,-247.59"/>
<polygon fill="midnightblue" stroke="midnightblue" points="124.08,-244.33 113.52,-243.52 121.27,-250.74 124.08,-244.33"/>
</g>
<!-- Node12 -->
<g id="node12" class="node">
<title>Node12</title>
<g id="a_node12"><a xlink:href="_u___registry_8hpp.html" target="_top" xlink:title="Header for U_Registry.cpp.">
<polygon fill="none" stroke="black" points="18.62,-112.5 18.62,-131.5 101.62,-131.5 101.62,-112.5 18.62,-112.5"/>
<text text-anchor="middle" x="60.12" y="-119.5" font-family="Helvetica,sans-Serif" font-size="10.00">U_Registry.hpp</text>
</a>
</g>
</g>
<!-- Node9&#45;&gt;Node12 -->
<g id="edge13" class="edge">
<title>Node9&#45;&gt;Node12</title>
<path fill="none" stroke="midnightblue" d="M164.93,-282.2C120.45,-275.21 61.51,-262.69 47.12,-244 24.02,-213.98 39.65,-166.66 51.1,-140.99"/>
<polygon fill="midnightblue" stroke="midnightblue" points="54.37,-142.26 55.48,-131.72 48.04,-139.27 54.37,-142.26"/>
</g>
<!-- Node9&#45;&gt;Node13 -->
<g id="edge16" class="edge">
<title>Node9&#45;&gt;Node13</title>
<path fill="none" stroke="midnightblue" d="M213.2,-280.45C206.69,-267.01 192.52,-240.77 174.12,-224 159.1,-210.31 139.14,-199.39 122.45,-191.74"/>
<polygon fill="midnightblue" stroke="midnightblue" points="123.63,-188.43 113.06,-187.62 120.81,-194.84 123.63,-188.43"/>
</g>
<!-- Node9&#45;&gt;Node14 -->
<g id="edge31" class="edge">
<title>Node9&#45;&gt;Node14</title>
<path fill="none" stroke="midnightblue" d="M242.63,-280.44C269.72,-271.36 312.71,-256.94 342.99,-246.78"/>
<polygon fill="midnightblue" stroke="midnightblue" points="344.36,-250.01 352.73,-243.52 342.14,-243.38 344.36,-250.01"/>
</g>
<!-- Node12&#45;&gt;Node2 -->
<g id="edge14" class="edge">
<title>Node12&#45;&gt;Node2</title>
<path fill="none" stroke="midnightblue" d="M101.66,-113.95C106.53,-113.24 111.43,-112.57 116.12,-112 293.58,-90.58 504.22,-76.63 607.53,-70.53"/>
<polygon fill="midnightblue" stroke="midnightblue" points="608.02,-74.01 617.79,-69.93 607.61,-67.02 608.02,-74.01"/>
</g>
<!-- Node13&#45;&gt;Node2 -->
<g id="edge17" class="edge">
<title>Node13&#45;&gt;Node2</title>
<path fill="none" stroke="midnightblue" d="M95.57,-168.36C105.3,-153.79 127.18,-124.68 154.12,-112 232.93,-74.9 487.65,-68.17 607.57,-67.1"/>
<polygon fill="midnightblue" stroke="midnightblue" points="607.73,-70.6 617.71,-67.02 607.68,-63.6 607.73,-70.6"/>
</g>
<!-- Node13&#45;&gt;Node12 -->
<g id="edge18" class="edge">
<title>Node13&#45;&gt;Node12</title>
<path fill="none" stroke="midnightblue" d="M85.17,-168.08C81.02,-160.61 74.97,-149.72 69.86,-140.52"/>
<polygon fill="midnightblue" stroke="midnightblue" points="72.9,-138.79 64.98,-131.75 66.78,-142.19 72.9,-138.79"/>
</g>
<!-- Node13&#45;&gt;Node14 -->
<g id="edge19" class="edge">
<title>Node13&#45;&gt;Node14</title>
<path fill="none" stroke="midnightblue" d="M124.44,-184.62C174.89,-193.56 269.08,-211.15 327.46,-222.47"/>
<polygon fill="midnightblue" stroke="midnightblue" points="327.09,-225.97 337.58,-224.44 328.43,-219.1 327.09,-225.97"/>
</g>
<!-- Node14&#45;&gt;Node2 -->
<g id="edge28" class="edge">
<title>Node14&#45;&gt;Node2</title>
<path fill="none" stroke="midnightblue" d="M336.52,-229.99C282.17,-225.09 191.49,-213.27 171.12,-188 165.54,-181.08 165.49,-174.88 171.12,-168 225.61,-101.4 485.51,-77.71 607.55,-70.16"/>
<polygon fill="midnightblue" stroke="midnightblue" points="608.09,-73.64 617.86,-69.55 607.67,-66.65 608.09,-73.64"/>
</g>
<!-- Node14&#45;&gt;Node7 -->
<g id="edge25" class="edge">
<title>Node14&#45;&gt;Node7</title>
<path fill="none" stroke="midnightblue" d="M418.38,-224.45C470.76,-213.21 557.24,-194.15 571.12,-188 621.62,-165.63 754.73,-64.09 804.23,-25.73"/>
<polygon fill="midnightblue" stroke="midnightblue" points="806.46,-28.44 812.21,-19.54 802.16,-22.91 806.46,-28.44"/>
</g>
<!-- Node14&#45;&gt;Node8 -->
<g id="edge30" class="edge">
<title>Node14&#45;&gt;Node8</title>
<path fill="none" stroke="midnightblue" d="M381.96,-243.59C385.31,-261.31 385.77,-302.25 383.34,-326.35"/>
<polygon fill="midnightblue" stroke="midnightblue" points="379.86,-325.99 381.97,-336.37 386.79,-326.94 379.86,-325.99"/>
</g>
<!-- Node14&#45;&gt;Node10 -->
<g id="edge21" class="edge">
<title>Node14&#45;&gt;Node10</title>
<path fill="none" stroke="midnightblue" d="M419.96,-224.73C465.52,-215.72 540.5,-200.87 605.12,-188 606.22,-187.78 607.33,-187.56 608.44,-187.34"/>
<polygon fill="midnightblue" stroke="midnightblue" points="609.53,-190.69 618.65,-185.3 608.16,-183.83 609.53,-190.69"/>
</g>
<!-- Node14&#45;&gt;Node13 -->
<g id="edge29" class="edge">
<title>Node14&#45;&gt;Node13</title>
<path fill="none" stroke="midnightblue" d="M336.36,-226.05C282.48,-216.42 189.4,-199.01 134.35,-188.28"/>
<polygon fill="midnightblue" stroke="midnightblue" points="135.02,-184.84 124.54,-186.35 133.68,-191.71 135.02,-184.84"/>
</g>
<!-- Node15 -->
<g id="node15" class="node">
<title>Node15</title>
<g id="a_node15"><a xlink:title=" ">
<polygon fill="none" stroke="#bfbfbf" points="503.62,-168.5 503.62,-187.5 562.62,-187.5 562.62,-168.5 503.62,-168.5"/>
<text text-anchor="middle" x="533.12" y="-175.5" font-family="Helvetica,sans-Serif" font-size="10.00">Shlwapi.h</text>
</a>
</g>
</g>
<!-- Node14&#45;&gt;Node15 -->
<g id="edge20" class="edge">
<title>Node14&#45;&gt;Node15</title>
<path fill="none" stroke="midnightblue" d="M402.68,-224.44C428.64,-215.4 469.79,-201.06 498.92,-190.92"/>
<polygon fill="midnightblue" stroke="midnightblue" points="500.39,-194.11 508.68,-187.52 498.08,-187.5 500.39,-194.11"/>
</g>
<!-- Node16 -->
<g id="node16" class="node">
<title>Node16</title>
<g id="a_node16"><a xlink:title=" ">
<polygon fill="none" stroke="#bfbfbf" points="180.62,-168.5 180.62,-187.5 221.62,-187.5 221.62,-168.5 180.62,-168.5"/>
<text text-anchor="middle" x="201.12" y="-175.5" font-family="Helvetica,sans-Serif" font-size="10.00">string</text>
</a>
</g>
</g>
<!-- Node14&#45;&gt;Node16 -->
<g id="edge22" class="edge">
<title>Node14&#45;&gt;Node16</title>
<path fill="none" stroke="midnightblue" d="M350.08,-224.44C317.74,-214.58 264.79,-198.42 231.5,-188.27"/>
<polygon fill="midnightblue" stroke="midnightblue" points="232.43,-184.89 221.85,-185.32 230.39,-191.59 232.43,-184.89"/>
</g>
<!-- Node17 -->
<g id="node17" class="node">
<title>Node17</title>
<g id="a_node17"><a xlink:title=" ">
<polygon fill="none" stroke="#bfbfbf" points="240.12,-168.5 240.12,-187.5 294.12,-187.5 294.12,-168.5 240.12,-168.5"/>
<text text-anchor="middle" x="267.12" y="-175.5" font-family="Helvetica,sans-Serif" font-size="10.00">iostream</text>
</a>
</g>
</g>
<!-- Node14&#45;&gt;Node17 -->
<g id="edge23" class="edge">
<title>Node14&#45;&gt;Node17</title>
<path fill="none" stroke="midnightblue" d="M360.29,-224.32C342.41,-215.62 314.65,-202.12 294.08,-192.11"/>
<polygon fill="midnightblue" stroke="midnightblue" points="295.44,-188.88 284.91,-187.65 292.37,-195.18 295.44,-188.88"/>
</g>
<!-- Node18 -->
<g id="node18" class="node">
<title>Node18</title>
<g id="a_node18"><a xlink:title=" ">
<polygon fill="none" stroke="#bfbfbf" points="312.12,-168.5 312.12,-187.5 374.12,-187.5 374.12,-168.5 312.12,-168.5"/>
<text text-anchor="middle" x="343.12" y="-175.5" font-family="Helvetica,sans-Serif" font-size="10.00">TlHelp32.h</text>
</a>
</g>
</g>
<!-- Node14&#45;&gt;Node18 -->
<g id="edge24" class="edge">
<title>Node14&#45;&gt;Node18</title>
<path fill="none" stroke="midnightblue" d="M372.34,-224.08C367.45,-216.53 360.29,-205.49 354.29,-196.23"/>
<polygon fill="midnightblue" stroke="midnightblue" points="357.17,-194.24 348.79,-187.75 351.3,-198.05 357.17,-194.24"/>
</g>
<!-- Node19 -->
<g id="node19" class="node">
<title>Node19</title>
<g id="a_node19"><a xlink:title=" ">
<polygon fill="none" stroke="#bfbfbf" points="392.12,-168.5 392.12,-187.5 424.12,-187.5 424.12,-168.5 392.12,-168.5"/>
<text text-anchor="middle" x="408.12" y="-175.5" font-family="Helvetica,sans-Serif" font-size="10.00">io.h</text>
</a>
</g>
</g>
<!-- Node14&#45;&gt;Node19 -->
<g id="edge26" class="edge">
<title>Node14&#45;&gt;Node19</title>
<path fill="none" stroke="midnightblue" d="M383.08,-224.08C387.23,-216.61 393.28,-205.72 398.39,-196.52"/>
<polygon fill="midnightblue" stroke="midnightblue" points="401.46,-198.19 403.26,-187.75 395.34,-194.79 401.46,-198.19"/>
</g>
<!-- Node20 -->
<g id="node20" class="node">
<title>Node20</title>
<g id="a_node20"><a xlink:title=" ">
<polygon fill="none" stroke="#bfbfbf" points="442.62,-168.5 442.62,-187.5 485.62,-187.5 485.62,-168.5 442.62,-168.5"/>
<text text-anchor="middle" x="464.12" y="-175.5" font-family="Helvetica,sans-Serif" font-size="10.00">fcntl.h</text>
</a>
</g>
</g>
<!-- Node14&#45;&gt;Node20 -->
<g id="edge27" class="edge">
<title>Node14&#45;&gt;Node20</title>
<path fill="none" stroke="midnightblue" d="M391.94,-224.32C405.36,-215.9 425.95,-202.97 441.71,-193.07"/>
<polygon fill="midnightblue" stroke="midnightblue" points="443.73,-195.94 450.34,-187.65 440.01,-190.01 443.73,-195.94"/>
</g>
<!-- Node21&#45;&gt;Node2 -->
<g id="edge33" class="edge">
<title>Node21&#45;&gt;Node2</title>
<path fill="none" stroke="midnightblue" d="M549.23,-280.42C591.43,-268.01 660.27,-240.53 690.12,-188 708.78,-155.16 692.4,-109.64 680.62,-84.85"/>
<polygon fill="midnightblue" stroke="midnightblue" points="683.59,-82.95 675.97,-75.59 677.33,-86.09 683.59,-82.95"/>
</g>
<!-- Node21&#45;&gt;Node10 -->
<g id="edge34" class="edge">
<title>Node21&#45;&gt;Node10</title>
<path fill="none" stroke="midnightblue" d="M524.79,-280.37C547.83,-261.73 602.48,-217.53 631.41,-194.13"/>
<polygon fill="midnightblue" stroke="midnightblue" points="633.93,-196.6 639.5,-187.59 629.52,-191.16 633.93,-196.6"/>
</g>
<!-- Node21&#45;&gt;Node14 -->
<g id="edge35" class="edge">
<title>Node21&#45;&gt;Node14</title>
<path fill="none" stroke="midnightblue" d="M492.57,-280.44C470.09,-271.52 434.63,-257.44 409.14,-247.32"/>
<polygon fill="midnightblue" stroke="midnightblue" points="410.16,-243.95 399.57,-243.52 407.57,-250.46 410.16,-243.95"/>
</g>
<!-- Node23&#45;&gt;Node2 -->
<g id="edge42" class="edge">
<title>Node23&#45;&gt;Node2</title>
<path fill="none" stroke="midnightblue" d="M932.68,-336.48C969.6,-328.13 1019.87,-314.55 1034.12,-300 1055.19,-278.5 1053.12,-265.1 1053.12,-235 1053.12,-235 1053.12,-235 1053.12,-177 1053.12,-111.48 842.98,-82.64 734.42,-72.11"/>
<polygon fill="midnightblue" stroke="midnightblue" points="734.52,-68.61 724.24,-71.15 733.86,-75.58 734.52,-68.61"/>
</g>
<!-- Node24 -->
<g id="node24" class="node">
<title>Node24</title>
<g id="a_node24"><a xlink:title=" ">
<polygon fill="none" stroke="#bfbfbf" points="1081.62,-280.5 1081.62,-299.5 1142.62,-299.5 1142.62,-280.5 1081.62,-280.5"/>
<text text-anchor="middle" x="1112.12" y="-287.5" font-family="Helvetica,sans-Serif" font-size="10.00">wincrypt.h</text>
</a>
</g>
</g>
<!-- Node23&#45;&gt;Node24 -->
<g id="edge43" class="edge">
<title>Node23&#45;&gt;Node24</title>
<path fill="none" stroke="midnightblue" d="M926.14,-336.44C965.72,-326.77 1030.05,-311.05 1071.72,-300.87"/>
<polygon fill="midnightblue" stroke="midnightblue" points="1072.65,-304.25 1081.54,-298.47 1070.99,-297.45 1072.65,-304.25"/>
</g>
<!-- Node25 -->
<g id="node25" class="node">
<title>Node25</title>
<g id="a_node25"><a xlink:title=" ">
<polygon fill="none" stroke="#bfbfbf" points="813.12,-280.5 813.12,-299.5 877.12,-299.5 877.12,-280.5 813.12,-280.5"/>
<text text-anchor="middle" x="845.12" y="-287.5" font-family="Helvetica,sans-Serif" font-size="10.00">WinTrust.h</text>
</a>
</g>
</g>
<!-- Node23&#45;&gt;Node25 -->
<g id="edge44" class="edge">
<title>Node23&#45;&gt;Node25</title>
<path fill="none" stroke="midnightblue" d="M883.53,-336.08C876.89,-328.3 867.1,-316.8 859.06,-307.37"/>
<polygon fill="midnightblue" stroke="midnightblue" points="861.73,-305.09 852.58,-299.75 856.4,-309.63 861.73,-305.09"/>
</g>
<!-- Node26 -->
<g id="node26" class="node">
<title>Node26</title>
<g id="a_node26"><a xlink:title=" ">
<polygon fill="none" stroke="#bfbfbf" points="895.62,-280.5 895.62,-299.5 954.62,-299.5 954.62,-280.5 895.62,-280.5"/>
<text text-anchor="middle" x="925.12" y="-287.5" font-family="Helvetica,sans-Serif" font-size="10.00">SoftPub.h</text>
</a>
</g>
</g>
<!-- Node23&#45;&gt;Node26 -->
<g id="edge45" class="edge">
<title>Node23&#45;&gt;Node26</title>
<path fill="none" stroke="midnightblue" d="M896.74,-336.08C901.49,-328.53 908.44,-317.49 914.27,-308.23"/>
<polygon fill="midnightblue" stroke="midnightblue" points="917.25,-310.08 919.61,-299.75 911.32,-306.35 917.25,-310.08"/>
</g>
<!-- Node27 -->
<g id="node27" class="node">
<title>Node27</title>
<g id="a_node27"><a xlink:title=" ">
<polygon fill="none" stroke="#bfbfbf" points="973.12,-280.5 973.12,-299.5 1025.12,-299.5 1025.12,-280.5 973.12,-280.5"/>
<text text-anchor="middle" x="999.12" y="-287.5" font-family="Helvetica,sans-Serif" font-size="10.00">mscat.h</text>
</a>
</g>
</g>
<!-- Node23&#45;&gt;Node27 -->
<g id="edge46" class="edge">
<title>Node23&#45;&gt;Node27</title>
<path fill="none" stroke="midnightblue" d="M908.47,-336.32C925.79,-327.66 952.64,-314.24 972.62,-304.25"/>
<polygon fill="midnightblue" stroke="midnightblue" points="974.43,-307.26 981.81,-299.65 971.3,-301 974.43,-307.26"/>
</g>
</g>
</svg>
