<?xml version="1.0" encoding="UTF-8" standalone="no"?>
<!DOCTYPE svg PUBLIC "-//W3C//DTD SVG 1.1//EN"
 "http://www.w3.org/Graphics/SVG/1.1/DTD/svg11.dtd">
<!-- Generated by graphviz version 5.0.0 (20220707.1540)
 -->
<!-- Title: C:/Users/Gshoo/Desktop/pi&#45;defender&#45;tmp/Sources/PI&#45;Defender_UM/U_Helper.cpp Pages: 1 -->
<!--zoomable 442 -->
<svg id="main" version="1.1" xmlns="http://www.w3.org/2000/svg" xmlns:xlink="http://www.w3.org/1999/xlink" xml:space="preserve" onload="init(evt)">
<style type="text/css"><![CDATA[
.edge:hover path { stroke: red; }
.edge:hover polygon { stroke: red; fill: red; }
]]></style>
<script type="text/javascript"><![CDATA[
var edges = document.getElementsByTagName('g');
if (edges && edges.length) {
  for (var i=0;i<edges.length;i++) {
    if (edges[i].id.substr(0,4)=='edge') {
      edges[i].setAttribute('class','edge');
    }
  }
}
]]></script>
        <defs>
                <circle id="rim" cx="0" cy="0" r="7"/>
                <circle id="rim2" cx="0" cy="0" r="3.5"/>
                <g id="zoomPlus">
                        <use xlink:href="#rim" fill="#404040">
                                <set attributeName="fill" to="#808080" begin="zoomplus.mouseover" end="zoomplus.mouseout"/>
                        </use>
                        <path d="M-4,0h8M0,-4v8" fill="none" stroke="white" stroke-width="1.5" pointer-events="none"/>
                </g>
                <g id="zoomMin">
                        <use xlink:href="#rim" fill="#404040">
                                <set attributeName="fill" to="#808080" begin="zoomminus.mouseover" end="zoomminus.mouseout"/>
                        </use>
                        <path d="M-4,0h8" fill="none" stroke="white" stroke-width="1.5" pointer-events="none"/>
                </g>
                <g id="dirArrow">
                        <path fill="none" stroke="white" stroke-width="1.5" d="M0,-3.0v7 M-2.5,-0.5L0,-3.0L2.5,-0.5"/>
                </g>
               <g id="resetDef">
                       <use xlink:href="#rim2" fill="#404040">
                               <set attributeName="fill" to="#808080" begin="reset.mouseover" end="reset.mouseout"/>
                       </use>
               </g>
        </defs>

<script type="text/javascript">
var viewWidth = 895;
var viewHeight = 442;
var sectionId = 'dynsection-0';
</script>
<script xlink:href="svgpan.js"/>
<svg id="graph" class="graph">
<g id="viewport">
<title>C:/Users/Gshoo/Desktop/pi&#45;defender&#45;tmp/Sources/PI&#45;Defender_UM/U_Helper.cpp</title>
<!-- Node1 -->
<g id="node1" class="node">
<title>Node1</title>
<g id="a_node1"><a xlink:title="Help function used by several .cpp files.">
<polygon fill="#bfbfbf" stroke="black" points="422.5,-392.5 422.5,-433.5 574.5,-433.5 574.5,-392.5 422.5,-392.5"/>
<text text-anchor="start" x="430.5" y="-421.5" font-family="Helvetica,sans-Serif" font-size="10.00">C:/Users/Gshoo/Desktop</text>
<text text-anchor="start" x="430.5" y="-410.5" font-family="Helvetica,sans-Serif" font-size="10.00">/pi&#45;defender&#45;tmp/Sources</text>
<text text-anchor="middle" x="498.5" y="-399.5" font-family="Helvetica,sans-Serif" font-size="10.00">/PI&#45;Defender_UM/U_Helper.cpp</text>
</a>
</g>
</g>
<!-- Node2 -->
<g id="node2" class="node">
<title>Node2</title>
<g id="a_node2"><a xlink:href="_u___helper_8hpp.html" target="_top" xlink:title="Header for U_Helper.cpp.">
<polygon fill="none" stroke="black" points="461,-336.5 461,-355.5 536,-355.5 536,-336.5 461,-336.5"/>
<text text-anchor="middle" x="498.5" y="-343.5" font-family="Helvetica,sans-Serif" font-size="10.00">U_Helper.hpp</text>
</a>
</g>
</g>
<!-- Node1&#45;&gt;Node2 -->
<g id="edge1" class="edge">
<title>Node1&#45;&gt;Node2</title>
<path fill="none" stroke="midnightblue" d="M498.5,-392.5C498.5,-384.07 498.5,-374.24 498.5,-365.87"/>
<polygon fill="midnightblue" stroke="midnightblue" points="502,-365.65 498.5,-355.65 495,-365.65 502,-365.65"/>
</g>
<!-- Node3 -->
<g id="node3" class="node">
<title>Node3</title>
<g id="a_node3"><a xlink:title=" ">
<polygon fill="none" stroke="#bfbfbf" points="0,-280.5 0,-299.5 59,-299.5 59,-280.5 0,-280.5"/>
<text text-anchor="middle" x="29.5" y="-287.5" font-family="Helvetica,sans-Serif" font-size="10.00">Shlwapi.h</text>
</a>
</g>
</g>
<!-- Node2&#45;&gt;Node3 -->
<g id="edge2" class="edge">
<title>Node2&#45;&gt;Node3</title>
<path fill="none" stroke="midnightblue" d="M460.82,-342.24C386.47,-336.51 215.75,-322.03 73.5,-300 72.06,-299.78 70.59,-299.54 69.1,-299.29"/>
<polygon fill="midnightblue" stroke="midnightblue" points="69.72,-295.84 59.25,-297.49 68.46,-302.73 69.72,-295.84"/>
</g>
<!-- Node4 -->
<g id="node4" class="node">
<title>Node4</title>
<g id="a_node4"><a xlink:title=" ">
<polygon fill="none" stroke="#bfbfbf" points="115.5,-168.5 115.5,-187.5 177.5,-187.5 177.5,-168.5 115.5,-168.5"/>
<text text-anchor="middle" x="146.5" y="-175.5" font-family="Helvetica,sans-Serif" font-size="10.00">PathCch.h</text>
</a>
</g>
</g>
<!-- Node2&#45;&gt;Node4 -->
<g id="edge3" class="edge">
<title>Node2&#45;&gt;Node4</title>
<path fill="none" stroke="midnightblue" d="M460.82,-345.5C391.06,-344.24 241.87,-330.85 164.5,-244 153.19,-231.31 148.92,-212.1 147.34,-197.86"/>
<polygon fill="midnightblue" stroke="midnightblue" points="150.82,-197.42 146.57,-187.71 143.84,-197.95 150.82,-197.42"/>
</g>
<!-- Node5 -->
<g id="node5" class="node">
<title>Node5</title>
<g id="a_node5"><a xlink:title=" ">
<polygon fill="none" stroke="#bfbfbf" points="574,-280.5 574,-299.5 615,-299.5 615,-280.5 574,-280.5"/>
<text text-anchor="middle" x="594.5" y="-287.5" font-family="Helvetica,sans-Serif" font-size="10.00">string</text>
</a>
</g>
</g>
<!-- Node2&#45;&gt;Node5 -->
<g id="edge4" class="edge">
<title>Node2&#45;&gt;Node5</title>
<path fill="none" stroke="midnightblue" d="M513.92,-336.32C529.04,-327.82 552.32,-314.73 569.97,-304.8"/>
<polygon fill="midnightblue" stroke="midnightblue" points="572.11,-307.61 579.11,-299.65 568.68,-301.51 572.11,-307.61"/>
</g>
<!-- Node6 -->
<g id="node6" class="node">
<title>Node6</title>
<g id="a_node6"><a xlink:title=" ">
<polygon fill="none" stroke="#bfbfbf" points="633.5,-280.5 633.5,-299.5 687.5,-299.5 687.5,-280.5 633.5,-280.5"/>
<text text-anchor="middle" x="660.5" y="-287.5" font-family="Helvetica,sans-Serif" font-size="10.00">iostream</text>
</a>
</g>
</g>
<!-- Node2&#45;&gt;Node6 -->
<g id="edge5" class="edge">
<title>Node2&#45;&gt;Node6</title>
<path fill="none" stroke="midnightblue" d="M524.17,-336.44C551.42,-327.36 594.68,-312.94 625.15,-302.78"/>
<polygon fill="midnightblue" stroke="midnightblue" points="626.57,-306 634.95,-299.52 624.36,-299.36 626.57,-306"/>
</g>
<!-- Node7 -->
<g id="node7" class="node">
<title>Node7</title>
<g id="a_node7"><a xlink:title=" ">
<polygon fill="none" stroke="#bfbfbf" points="705.5,-280.5 705.5,-299.5 767.5,-299.5 767.5,-280.5 705.5,-280.5"/>
<text text-anchor="middle" x="736.5" y="-287.5" font-family="Helvetica,sans-Serif" font-size="10.00">TlHelp32.h</text>
</a>
</g>
</g>
<!-- Node2&#45;&gt;Node7 -->
<g id="edge6" class="edge">
<title>Node2&#45;&gt;Node7</title>
<path fill="none" stroke="midnightblue" d="M536.21,-336.44C579.62,-326.59 650.68,-310.47 695.45,-300.31"/>
<polygon fill="midnightblue" stroke="midnightblue" points="696.43,-303.68 705.41,-298.05 694.88,-296.85 696.43,-303.68"/>
</g>
<!-- Node8 -->
<g id="node8" class="node">
<title>Node8</title>
<g id="a_node8"><a xlink:title=" ">
<polygon fill="none" stroke="#bfbfbf" points="114.5,-0.5 114.5,-19.5 168.5,-19.5 168.5,-0.5 114.5,-0.5"/>
<text text-anchor="middle" x="141.5" y="-7.5" font-family="Helvetica,sans-Serif" font-size="10.00">strsafe.h</text>
</a>
</g>
</g>
<!-- Node2&#45;&gt;Node8 -->
<g id="edge7" class="edge">
<title>Node2&#45;&gt;Node8</title>
<path fill="none" stroke="midnightblue" d="M460.94,-342.97C359.48,-336.48 87.5,-311.91 87.5,-235 87.5,-235 87.5,-235 87.5,-121 87.5,-84.86 111.27,-48.25 127.27,-27.71"/>
<polygon fill="midnightblue" stroke="midnightblue" points="130.19,-29.67 133.76,-19.69 124.75,-25.26 130.19,-29.67"/>
</g>
<!-- Node9 -->
<g id="node9" class="node">
<title>Node9</title>
<g id="a_node9"><a xlink:title=" ">
<polygon fill="none" stroke="#bfbfbf" points="785.5,-280.5 785.5,-299.5 817.5,-299.5 817.5,-280.5 785.5,-280.5"/>
<text text-anchor="middle" x="801.5" y="-287.5" font-family="Helvetica,sans-Serif" font-size="10.00">io.h</text>
</a>
</g>
</g>
<!-- Node2&#45;&gt;Node9 -->
<g id="edge8" class="edge">
<title>Node2&#45;&gt;Node9</title>
<path fill="none" stroke="midnightblue" d="M536.28,-341.13C588.29,-335.32 684.91,-322.77 775.61,-299.81"/>
<polygon fill="midnightblue" stroke="midnightblue" points="776.69,-303.14 785.5,-297.25 774.94,-296.36 776.69,-303.14"/>
</g>
<!-- Node10 -->
<g id="node10" class="node">
<title>Node10</title>
<g id="a_node10"><a xlink:title=" ">
<polygon fill="none" stroke="#bfbfbf" points="836,-280.5 836,-299.5 879,-299.5 879,-280.5 836,-280.5"/>
<text text-anchor="middle" x="857.5" y="-287.5" font-family="Helvetica,sans-Serif" font-size="10.00">fcntl.h</text>
</a>
</g>
</g>
<!-- Node2&#45;&gt;Node10 -->
<g id="edge9" class="edge">
<title>Node2&#45;&gt;Node10</title>
<path fill="none" stroke="midnightblue" d="M536.19,-341.64C595.72,-335.94 715.22,-322.9 825.92,-299.82"/>
<polygon fill="midnightblue" stroke="midnightblue" points="826.86,-303.2 835.92,-297.7 825.41,-296.35 826.86,-303.2"/>
</g>
<!-- Node11 -->
<g id="node11" class="node">
<title>Node11</title>
<g id="a_node11"><a xlink:href="_u___global_header_8hpp.html" target="_top" xlink:title="Header used by several .hpp files.">
<polygon fill="none" stroke="black" points="372.5,-56.5 372.5,-75.5 478.5,-75.5 478.5,-56.5 372.5,-56.5"/>
<text text-anchor="middle" x="425.5" y="-63.5" font-family="Helvetica,sans-Serif" font-size="10.00">U_GlobalHeader.hpp</text>
</a>
</g>
</g>
<!-- Node2&#45;&gt;Node11 -->
<g id="edge10" class="edge">
<title>Node2&#45;&gt;Node11</title>
<path fill="none" stroke="midnightblue" d="M504.94,-336.47C515.87,-322.59 539.43,-295.13 565.5,-280 695.09,-204.78 917.93,-313.83 883.5,-168 877.11,-140.92 878.38,-127.84 855.5,-112 797.65,-71.93 593.86,-66.42 488.95,-66.34"/>
<polygon fill="midnightblue" stroke="midnightblue" points="488.8,-62.84 478.81,-66.34 488.81,-69.84 488.8,-62.84"/>
</g>
<!-- Node16 -->
<g id="node16" class="node">
<title>Node16</title>
<g id="a_node16"><a xlink:href="_u___logs_8hpp.html" target="_top" xlink:title="Header for U_Logs.cpp.">
<polygon fill="none" stroke="black" points="441.5,-168.5 441.5,-187.5 509.5,-187.5 509.5,-168.5 441.5,-168.5"/>
<text text-anchor="middle" x="475.5" y="-175.5" font-family="Helvetica,sans-Serif" font-size="10.00">U_Logs.hpp</text>
</a>
</g>
</g>
<!-- Node2&#45;&gt;Node16 -->
<g id="edge16" class="edge">
<title>Node2&#45;&gt;Node16</title>
<path fill="none" stroke="midnightblue" d="M494,-336.08C486.17,-309.95 475.14,-233.21 473.62,-197.58"/>
<polygon fill="midnightblue" stroke="midnightblue" points="477.12,-197.52 473.48,-187.57 470.12,-197.62 477.12,-197.52"/>
</g>
<!-- Node18 -->
<g id="node18" class="node">
<title>Node18</title>
<g id="a_node18"><a xlink:href="_u___service_8hpp.html" target="_top" xlink:title="Header for U_Service.cpp.">
<polygon fill="none" stroke="black" points="382,-280.5 382,-299.5 461,-299.5 461,-280.5 382,-280.5"/>
<text text-anchor="middle" x="421.5" y="-287.5" font-family="Helvetica,sans-Serif" font-size="10.00">U_Service.hpp</text>
</a>
</g>
</g>
<!-- Node2&#45;&gt;Node18 -->
<g id="edge21" class="edge">
<title>Node2&#45;&gt;Node18</title>
<path fill="none" stroke="midnightblue" d="M481.01,-336.32C467.65,-328.18 449.7,-315.84 436.89,-306.09"/>
<polygon fill="midnightblue" stroke="midnightblue" points="438.97,-303.27 428.95,-299.83 434.64,-308.77 438.97,-303.27"/>
</g>
<!-- Node11&#45;&gt;Node8 -->
<g id="edge15" class="edge">
<title>Node11&#45;&gt;Node8</title>
<path fill="none" stroke="midnightblue" d="M380.5,-56.44C324.75,-45.84 230.79,-27.98 178.84,-18.1"/>
<polygon fill="midnightblue" stroke="midnightblue" points="179.21,-14.61 168.73,-16.18 177.9,-21.48 179.21,-14.61"/>
</g>
<!-- Node12 -->
<g id="node12" class="node">
<title>Node12</title>
<g id="a_node12"><a xlink:title=" ">
<polygon fill="none" stroke="#bfbfbf" points="355,-0.5 355,-19.5 420,-19.5 420,-0.5 355,-0.5"/>
<text text-anchor="middle" x="387.5" y="-7.5" font-family="Helvetica,sans-Serif" font-size="10.00">Windows.h</text>
</a>
</g>
</g>
<!-- Node11&#45;&gt;Node12 -->
<g id="edge11" class="edge">
<title>Node11&#45;&gt;Node12</title>
<path fill="none" stroke="midnightblue" d="M419.23,-56.08C413.86,-48.46 405.98,-37.26 399.42,-27.94"/>
<polygon fill="midnightblue" stroke="midnightblue" points="402.28,-25.91 393.66,-19.75 396.55,-29.94 402.28,-25.91"/>
</g>
<!-- Node13 -->
<g id="node13" class="node">
<title>Node13</title>
<g id="a_node13"><a xlink:title=" ">
<polygon fill="none" stroke="#bfbfbf" points="438,-0.5 438,-19.5 491,-19.5 491,-0.5 438,-0.5"/>
<text text-anchor="middle" x="464.5" y="-7.5" font-family="Helvetica,sans-Serif" font-size="10.00">fltUser.h</text>
</a>
</g>
</g>
<!-- Node11&#45;&gt;Node13 -->
<g id="edge12" class="edge">
<title>Node11&#45;&gt;Node13</title>
<path fill="none" stroke="midnightblue" d="M431.94,-56.08C437.45,-48.46 445.53,-37.26 452.26,-27.94"/>
<polygon fill="midnightblue" stroke="midnightblue" points="455.16,-29.91 458.18,-19.75 449.49,-25.81 455.16,-29.91"/>
</g>
<!-- Node14 -->
<g id="node14" class="node">
<title>Node14</title>
<g id="a_node14"><a xlink:title=" ">
<polygon fill="none" stroke="#bfbfbf" points="509.5,-0.5 509.5,-19.5 555.5,-19.5 555.5,-0.5 509.5,-0.5"/>
<text text-anchor="middle" x="532.5" y="-7.5" font-family="Helvetica,sans-Serif" font-size="10.00">stdio.h</text>
</a>
</g>
</g>
<!-- Node11&#45;&gt;Node14 -->
<g id="edge13" class="edge">
<title>Node11&#45;&gt;Node14</title>
<path fill="none" stroke="midnightblue" d="M442.69,-56.32C459.85,-47.66 486.45,-34.24 506.25,-24.25"/>
<polygon fill="midnightblue" stroke="midnightblue" points="508,-27.28 515.35,-19.65 504.85,-21.04 508,-27.28"/>
</g>
<!-- Node15 -->
<g id="node15" class="node">
<title>Node15</title>
<g id="a_node15"><a xlink:title=" ">
<polygon fill="none" stroke="#bfbfbf" points="290,-0.5 290,-19.5 337,-19.5 337,-0.5 290,-0.5"/>
<text text-anchor="middle" x="313.5" y="-7.5" font-family="Helvetica,sans-Serif" font-size="10.00">tchar.h</text>
</a>
</g>
</g>
<!-- Node11&#45;&gt;Node15 -->
<g id="edge14" class="edge">
<title>Node11&#45;&gt;Node15</title>
<path fill="none" stroke="midnightblue" d="M407.51,-56.32C389.46,-47.62 361.45,-34.12 340.7,-24.11"/>
<polygon fill="midnightblue" stroke="midnightblue" points="341.98,-20.84 331.45,-19.65 338.94,-27.15 341.98,-20.84"/>
</g>
<!-- Node16&#45;&gt;Node2 -->
<g id="edge20" class="edge">
<title>Node16&#45;&gt;Node2</title>
<path fill="none" stroke="midnightblue" d="M479.89,-187.57C487.7,-213.23 498.75,-289.92 500.35,-325.93"/>
<polygon fill="midnightblue" stroke="midnightblue" points="496.86,-326.14 500.53,-336.08 503.86,-326.02 496.86,-326.14"/>
</g>
<!-- Node16&#45;&gt;Node11 -->
<g id="edge17" class="edge">
<title>Node16&#45;&gt;Node11</title>
<path fill="none" stroke="midnightblue" d="M471.58,-168.37C463.43,-150.46 444.56,-108.92 433.66,-84.95"/>
<polygon fill="midnightblue" stroke="midnightblue" points="436.73,-83.25 429.41,-75.59 430.36,-86.14 436.73,-83.25"/>
</g>
<!-- Node17 -->
<g id="node17" class="node">
<title>Node17</title>
<g id="a_node17"><a xlink:href="_u___registry_8hpp.html" target="_top" xlink:title="Header for U_Registry.cpp.">
<polygon fill="none" stroke="black" points="314,-112.5 314,-131.5 397,-131.5 397,-112.5 314,-112.5"/>
<text text-anchor="middle" x="355.5" y="-119.5" font-family="Helvetica,sans-Serif" font-size="10.00">U_Registry.hpp</text>
</a>
</g>
</g>
<!-- Node16&#45;&gt;Node17 -->
<g id="edge18" class="edge">
<title>Node16&#45;&gt;Node17</title>
<path fill="none" stroke="midnightblue" d="M456.49,-168.44C436.91,-159.64 406.19,-145.81 383.77,-135.72"/>
<polygon fill="midnightblue" stroke="midnightblue" points="384.98,-132.43 374.43,-131.52 382.11,-138.81 384.98,-132.43"/>
</g>
<!-- Node17&#45;&gt;Node11 -->
<g id="edge19" class="edge">
<title>Node17&#45;&gt;Node11</title>
<path fill="none" stroke="midnightblue" d="M366.75,-112.32C377.3,-104.18 393.3,-91.84 405.94,-82.09"/>
<polygon fill="midnightblue" stroke="midnightblue" points="408.27,-84.71 414.05,-75.83 403.99,-79.17 408.27,-84.71"/>
</g>
<!-- Node18&#45;&gt;Node2 -->
<g id="edge36" class="edge">
<title>Node18&#45;&gt;Node2</title>
<path fill="none" stroke="midnightblue" d="M438.95,-299.65C452.39,-307.83 470.47,-320.28 483.31,-330.06"/>
<polygon fill="midnightblue" stroke="midnightblue" points="481.23,-332.87 491.24,-336.32 485.56,-327.38 481.23,-332.87"/>
</g>
<!-- Node18&#45;&gt;Node11 -->
<g id="edge22" class="edge">
<title>Node18&#45;&gt;Node11</title>
<path fill="none" stroke="midnightblue" d="M421.66,-280.3C422.25,-247.63 424.33,-131.87 425.16,-85.96"/>
<polygon fill="midnightblue" stroke="midnightblue" points="428.66,-85.95 425.34,-75.88 421.66,-85.82 428.66,-85.95"/>
</g>
<!-- Node18&#45;&gt;Node16 -->
<g id="edge35" class="edge">
<title>Node18&#45;&gt;Node16</title>
<path fill="none" stroke="midnightblue" d="M425.74,-280.37C434.57,-262.38 455.1,-220.55 466.85,-196.63"/>
<polygon fill="midnightblue" stroke="midnightblue" points="470.02,-198.11 471.28,-187.59 463.73,-195.03 470.02,-198.11"/>
</g>
<!-- Node19 -->
<g id="node19" class="node">
<title>Node19</title>
<g id="a_node19"><a xlink:href="_u___configuration_8hpp.html" target="_top" xlink:title="Header for U_Configuration.cpp.">
<polygon fill="none" stroke="black" points="281.5,-224.5 281.5,-243.5 385.5,-243.5 385.5,-224.5 281.5,-224.5"/>
<text text-anchor="middle" x="333.5" y="-231.5" font-family="Helvetica,sans-Serif" font-size="10.00">U_Configuration.hpp</text>
</a>
</g>
</g>
<!-- Node18&#45;&gt;Node19 -->
<g id="edge23" class="edge">
<title>Node18&#45;&gt;Node19</title>
<path fill="none" stroke="midnightblue" d="M402.25,-280.32C386.93,-272.03 365.98,-259.36 351.11,-249.53"/>
<polygon fill="midnightblue" stroke="midnightblue" points="352.98,-246.57 342.75,-243.83 349.04,-252.35 352.98,-246.57"/>
</g>
<!-- Node21 -->
<g id="node21" class="node">
<title>Node21</title>
<g id="a_node21"><a xlink:href="_u___controller_8hpp.html" target="_top" xlink:title="Header for U_Controller.cpp.">
<polygon fill="none" stroke="black" points="174,-224.5 174,-243.5 263,-243.5 263,-224.5 174,-224.5"/>
<text text-anchor="middle" x="218.5" y="-231.5" font-family="Helvetica,sans-Serif" font-size="10.00">U_Controller.hpp</text>
</a>
</g>
</g>
<!-- Node18&#45;&gt;Node21 -->
<g id="edge31" class="edge">
<title>Node18&#45;&gt;Node21</title>
<path fill="none" stroke="midnightblue" d="M389.33,-280.44C354.44,-271.16 298.61,-256.31 260.33,-246.13"/>
<polygon fill="midnightblue" stroke="midnightblue" points="261.08,-242.7 250.52,-243.52 259.28,-249.47 261.08,-242.7"/>
</g>
<!-- Node22 -->
<g id="node22" class="node">
<title>Node22</title>
<g id="a_node22"><a xlink:href="_u___communication_8hpp.html" target="_top" xlink:title="Header for U_Communication.cpp.">
<polygon fill="none" stroke="black" points="536,-224.5 536,-243.5 651,-243.5 651,-224.5 536,-224.5"/>
<text text-anchor="middle" x="593.5" y="-231.5" font-family="Helvetica,sans-Serif" font-size="10.00">U_Communication.hpp</text>
</a>
</g>
</g>
<!-- Node18&#45;&gt;Node22 -->
<g id="edge37" class="edge">
<title>Node18&#45;&gt;Node22</title>
<path fill="none" stroke="midnightblue" d="M443.67,-280.44C470.96,-271.24 517.54,-256.56 551.6,-246.39"/>
<polygon fill="midnightblue" stroke="midnightblue" points="552.7,-249.71 561.29,-243.52 550.71,-243 552.7,-249.71"/>
</g>
<!-- Node19&#45;&gt;Node2 -->
<g id="edge30" class="edge">
<title>Node19&#45;&gt;Node2</title>
<path fill="none" stroke="midnightblue" d="M336.72,-243.88C342.19,-257.77 354.58,-284.63 373.5,-300 395.78,-318.11 425.95,-329.24 451.06,-335.91"/>
<polygon fill="midnightblue" stroke="midnightblue" points="450.22,-339.3 460.77,-338.33 451.91,-332.51 450.22,-339.3"/>
</g>
<!-- Node19&#45;&gt;Node4 -->
<g id="edge25" class="edge">
<title>Node19&#45;&gt;Node4</title>
<path fill="none" stroke="midnightblue" d="M303.87,-224.44C272,-215.24 221.17,-200.56 185.94,-190.39"/>
<polygon fill="midnightblue" stroke="midnightblue" points="186.57,-186.93 175.99,-187.52 184.63,-193.65 186.57,-186.93"/>
</g>
<!-- Node19&#45;&gt;Node11 -->
<g id="edge24" class="edge">
<title>Node19&#45;&gt;Node11</title>
<path fill="none" stroke="midnightblue" d="M331.79,-224.08C329.3,-211.47 324.33,-187.77 318.5,-168 313.69,-151.68 308.43,-148.76 305.5,-132 303.97,-123.24 300.44,-119.31 305.5,-112 318.63,-93.05 340.8,-82.07 362.53,-75.71"/>
<polygon fill="midnightblue" stroke="midnightblue" points="363.67,-79.03 372.45,-73.1 361.89,-72.26 363.67,-79.03"/>
</g>
<!-- Node19&#45;&gt;Node16 -->
<g id="edge29" class="edge">
<title>Node19&#45;&gt;Node16</title>
<path fill="none" stroke="midnightblue" d="M356,-224.44C379.58,-215.48 416.82,-201.31 443.46,-191.18"/>
<polygon fill="midnightblue" stroke="midnightblue" points="445,-194.34 453.1,-187.52 442.51,-187.8 445,-194.34"/>
</g>
<!-- Node19&#45;&gt;Node17 -->
<g id="edge27" class="edge">
<title>Node19&#45;&gt;Node17</title>
<path fill="none" stroke="midnightblue" d="M337.95,-224.3C342.26,-215.43 348.55,-201.14 351.5,-188 354.95,-172.64 355.83,-154.77 355.92,-141.65"/>
<polygon fill="midnightblue" stroke="midnightblue" points="359.42,-141.51 355.83,-131.53 352.42,-141.56 359.42,-141.51"/>
</g>
<!-- Node19&#45;&gt;Node18 -->
<g id="edge28" class="edge">
<title>Node19&#45;&gt;Node18</title>
<path fill="none" stroke="midnightblue" d="M352.71,-243.65C368.11,-251.99 389.23,-264.76 404.12,-274.62"/>
<polygon fill="midnightblue" stroke="midnightblue" points="402.24,-277.58 412.48,-280.32 406.19,-271.8 402.24,-277.58"/>
</g>
<!-- Node20 -->
<g id="node20" class="node">
<title>Node20</title>
<g id="a_node20"><a xlink:title=" ">
<polygon fill="none" stroke="#bfbfbf" points="233.5,-168.5 233.5,-187.5 309.5,-187.5 309.5,-168.5 233.5,-168.5"/>
<text text-anchor="middle" x="271.5" y="-175.5" font-family="Helvetica,sans-Serif" font-size="10.00">Shlobj_core.h</text>
</a>
</g>
</g>
<!-- Node19&#45;&gt;Node20 -->
<g id="edge26" class="edge">
<title>Node19&#45;&gt;Node20</title>
<path fill="none" stroke="midnightblue" d="M323.54,-224.32C314.37,-216.34 300.56,-204.31 289.47,-194.65"/>
<polygon fill="midnightblue" stroke="midnightblue" points="291.48,-191.76 281.64,-187.83 286.88,-197.04 291.48,-191.76"/>
</g>
<!-- Node21&#45;&gt;Node2 -->
<g id="edge34" class="edge">
<title>Node21&#45;&gt;Node2</title>
<path fill="none" stroke="midnightblue" d="M234.23,-243.61C258.92,-256.89 308.48,-282.66 352.5,-300 386.61,-313.44 426.44,-325.48 455.87,-333.72"/>
<polygon fill="midnightblue" stroke="midnightblue" points="455.26,-337.18 465.83,-336.47 457.12,-330.43 455.26,-337.18"/>
</g>
<!-- Node21&#45;&gt;Node4 -->
<g id="edge33" class="edge">
<title>Node21&#45;&gt;Node4</title>
<path fill="none" stroke="midnightblue" d="M206.93,-224.32C196.08,-216.18 179.62,-203.84 166.62,-194.09"/>
<polygon fill="midnightblue" stroke="midnightblue" points="168.38,-191.03 158.28,-187.83 164.18,-196.63 168.38,-191.03"/>
</g>
<!-- Node21&#45;&gt;Node11 -->
<g id="edge32" class="edge">
<title>Node21&#45;&gt;Node11</title>
<path fill="none" stroke="midnightblue" d="M217.2,-224.36C215.67,-211.27 214.48,-186.03 224.5,-168 253.18,-116.43 318.02,-90.55 366.35,-78"/>
<polygon fill="midnightblue" stroke="midnightblue" points="367.22,-81.39 376.08,-75.59 365.54,-74.6 367.22,-81.39"/>
</g>
<!-- Node22&#45;&gt;Node11 -->
<g id="edge38" class="edge">
<title>Node22&#45;&gt;Node11</title>
<path fill="none" stroke="midnightblue" d="M651.06,-232C723.32,-229.39 841.17,-220.17 868.5,-188 874.26,-181.23 871.11,-176.5 868.5,-168 859.67,-139.25 856.26,-127.53 830.5,-112 774.47,-78.22 588,-69.76 488.82,-67.67"/>
<polygon fill="midnightblue" stroke="midnightblue" points="488.69,-64.16 478.63,-67.47 488.56,-71.16 488.69,-64.16"/>
</g>
<!-- Node22&#45;&gt;Node16 -->
<g id="edge40" class="edge">
<title>Node22&#45;&gt;Node16</title>
<path fill="none" stroke="midnightblue" d="M574.8,-224.44C555.56,-215.64 525.35,-201.81 503.3,-191.72"/>
<polygon fill="midnightblue" stroke="midnightblue" points="504.66,-188.5 494.11,-187.52 501.75,-194.86 504.66,-188.5"/>
</g>
<!-- Node22&#45;&gt;Node18 -->
<g id="edge39" class="edge">
<title>Node22&#45;&gt;Node18</title>
<path fill="none" stroke="midnightblue" d="M571.45,-243.52C544.22,-252.7 497.65,-267.38 463.55,-277.57"/>
<polygon fill="midnightblue" stroke="midnightblue" points="462.44,-274.25 453.84,-280.44 464.43,-280.96 462.44,-274.25"/>
</g>
<!-- Node23 -->
<g id="node23" class="node">
<title>Node23</title>
<g id="a_node23"><a xlink:href="_shared_defs_8hpp.html" target="_top" xlink:title="Header file which contains the structures, type definitions, constants, global variablesand function ...">
<polygon fill="none" stroke="black" points="635.5,-168.5 635.5,-187.5 783.5,-187.5 783.5,-168.5 635.5,-168.5"/>
<text text-anchor="middle" x="709.5" y="-175.5" font-family="Helvetica,sans-Serif" font-size="10.00">../SharedDefs/SharedDefs.hpp</text>
</a>
</g>
</g>
<!-- Node22&#45;&gt;Node23 -->
<g id="edge41" class="edge">
<title>Node22&#45;&gt;Node23</title>
<path fill="none" stroke="midnightblue" d="M611.88,-224.44C630.72,-215.68 660.23,-201.94 681.88,-191.86"/>
<polygon fill="midnightblue" stroke="midnightblue" points="683.62,-194.91 691.21,-187.52 680.66,-188.56 683.62,-194.91"/>
</g>
<!-- Node24 -->
<g id="node24" class="node">
<title>Node24</title>
<g id="a_node24"><a xlink:href="_u___signature_8hpp.html" target="_top" xlink:title="Header for U_Signature.cpp.">
<polygon fill="none" stroke="black" points="528,-168.5 528,-187.5 617,-187.5 617,-168.5 528,-168.5"/>
<text text-anchor="middle" x="572.5" y="-175.5" font-family="Helvetica,sans-Serif" font-size="10.00">U_Signature.hpp</text>
</a>
</g>
</g>
<!-- Node22&#45;&gt;Node24 -->
<g id="edge42" class="edge">
<title>Node22&#45;&gt;Node24</title>
<path fill="none" stroke="midnightblue" d="M590.03,-224.08C587.19,-216.77 583.07,-206.18 579.54,-197.1"/>
<polygon fill="midnightblue" stroke="midnightblue" points="582.79,-195.8 575.9,-187.75 576.27,-198.34 582.79,-195.8"/>
</g>
<!-- Node29 -->
<g id="node29" class="node">
<title>Node29</title>
<g id="a_node29"><a xlink:title=" ">
<polygon fill="none" stroke="#bfbfbf" points="801.5,-168.5 801.5,-187.5 859.5,-187.5 859.5,-168.5 801.5,-168.5"/>
<text text-anchor="middle" x="830.5" y="-175.5" font-family="Helvetica,sans-Serif" font-size="10.00">winternl.h</text>
</a>
</g>
</g>
<!-- Node22&#45;&gt;Node29 -->
<g id="edge48" class="edge">
<title>Node22&#45;&gt;Node29</title>
<path fill="none" stroke="midnightblue" d="M631.68,-224.49C669.72,-215.98 730.07,-202.41 791.58,-188.2"/>
<polygon fill="midnightblue" stroke="midnightblue" points="792.51,-191.57 801.46,-185.91 790.93,-184.75 792.51,-191.57"/>
</g>
<!-- Node24&#45;&gt;Node11 -->
<g id="edge43" class="edge">
<title>Node24&#45;&gt;Node11</title>
<path fill="none" stroke="midnightblue" d="M595.16,-168.46C622.64,-156.83 663.12,-134.84 644.5,-112 625.12,-88.23 546.23,-76.66 488.68,-71.29"/>
<polygon fill="midnightblue" stroke="midnightblue" points="488.83,-67.79 478.56,-70.38 488.21,-74.76 488.83,-67.79"/>
</g>
<!-- Node25 -->
<g id="node25" class="node">
<title>Node25</title>
<g id="a_node25"><a xlink:title=" ">
<polygon fill="none" stroke="#bfbfbf" points="492,-112.5 492,-131.5 553,-131.5 553,-112.5 492,-112.5"/>
<text text-anchor="middle" x="522.5" y="-119.5" font-family="Helvetica,sans-Serif" font-size="10.00">wincrypt.h</text>
</a>
</g>
</g>
<!-- Node24&#45;&gt;Node25 -->
<g id="edge44" class="edge">
<title>Node24&#45;&gt;Node25</title>
<path fill="none" stroke="midnightblue" d="M564.24,-168.08C557.04,-160.3 546.39,-148.8 537.65,-139.37"/>
<polygon fill="midnightblue" stroke="midnightblue" points="539.97,-136.71 530.6,-131.75 534.83,-141.47 539.97,-136.71"/>
</g>
<!-- Node26 -->
<g id="node26" class="node">
<title>Node26</title>
<g id="a_node26"><a xlink:title=" ">
<polygon fill="none" stroke="#bfbfbf" points="571.5,-112.5 571.5,-131.5 635.5,-131.5 635.5,-112.5 571.5,-112.5"/>
<text text-anchor="middle" x="603.5" y="-119.5" font-family="Helvetica,sans-Serif" font-size="10.00">WinTrust.h</text>
</a>
</g>
</g>
<!-- Node24&#45;&gt;Node26 -->
<g id="edge45" class="edge">
<title>Node24&#45;&gt;Node26</title>
<path fill="none" stroke="midnightblue" d="M577.62,-168.08C581.91,-160.61 588.16,-149.72 593.44,-140.52"/>
<polygon fill="midnightblue" stroke="midnightblue" points="596.53,-142.17 598.48,-131.75 590.46,-138.68 596.53,-142.17"/>
</g>
<!-- Node27 -->
<g id="node27" class="node">
<title>Node27</title>
<g id="a_node27"><a xlink:title=" ">
<polygon fill="none" stroke="#bfbfbf" points="692,-112.5 692,-131.5 751,-131.5 751,-112.5 692,-112.5"/>
<text text-anchor="middle" x="721.5" y="-119.5" font-family="Helvetica,sans-Serif" font-size="10.00">SoftPub.h</text>
</a>
</g>
</g>
<!-- Node24&#45;&gt;Node27 -->
<g id="edge46" class="edge">
<title>Node24&#45;&gt;Node27</title>
<path fill="none" stroke="midnightblue" d="M596.11,-168.44C620.96,-159.44 660.27,-145.19 688.25,-135.05"/>
<polygon fill="midnightblue" stroke="midnightblue" points="689.79,-138.21 698,-131.52 687.41,-131.63 689.79,-138.21"/>
</g>
<!-- Node28 -->
<g id="node28" class="node">
<title>Node28</title>
<g id="a_node28"><a xlink:title=" ">
<polygon fill="none" stroke="#bfbfbf" points="769.5,-112.5 769.5,-131.5 821.5,-131.5 821.5,-112.5 769.5,-112.5"/>
<text text-anchor="middle" x="795.5" y="-119.5" font-family="Helvetica,sans-Serif" font-size="10.00">mscat.h</text>
</a>
</g>
</g>
<!-- Node24&#45;&gt;Node28 -->
<g id="edge47" class="edge">
<title>Node24&#45;&gt;Node28</title>
<path fill="none" stroke="midnightblue" d="M608.94,-168.47C644.77,-160.04 701.29,-146.63 759.1,-132.32"/>
<polygon fill="midnightblue" stroke="midnightblue" points="760.28,-135.63 769.14,-129.83 758.59,-128.84 760.28,-135.63"/>
</g>
</g>
</svg>
        <g id="navigator" transform="translate(0 0)" fill="#404254">
                <rect fill="#f2f5e9" fill-opacity="0.5" stroke="#606060" stroke-width=".5" x="0" y="0" width="60" height="60"/>
                <use id="zoomplus" xlink:href="#zoomPlus" x="17" y="9" onmousedown="handleZoom(evt,'in')"/>
                <use id="zoomminus" xlink:href="#zoomMin" x="42" y="9" onmousedown="handleZoom(evt,'out')"/>
                <use id="reset" xlink:href="#resetDef" x="30" y="36" onmousedown="handleReset()"/>
                <g id="arrowUp" xlink:href="#dirArrow" transform="translate(30 24)" onmousedown="handlePan(0,-1)">
                  <use xlink:href="#rim" fill="#404040">
                        <set attributeName="fill" to="#808080" begin="arrowUp.mouseover" end="arrowUp.mouseout"/>
                  </use>
                  <path fill="none" stroke="white" stroke-width="1.5" d="M0,-3.0v7 M-2.5,-0.5L0,-3.0L2.5,-0.5"/>
                </g>
                <g id="arrowRight" xlink:href="#dirArrow" transform="rotate(90) translate(36 -43)" onmousedown="handlePan(1,0)">
                  <use xlink:href="#rim" fill="#404040">
                        <set attributeName="fill" to="#808080" begin="arrowRight.mouseover" end="arrowRight.mouseout"/>
                  </use>
                  <path fill="none" stroke="white" stroke-width="1.5" d="M0,-3.0v7 M-2.5,-0.5L0,-3.0L2.5,-0.5"/>
                </g>
                <g id="arrowDown" xlink:href="#dirArrow" transform="rotate(180) translate(-30 -48)" onmousedown="handlePan(0,1)">
                  <use xlink:href="#rim" fill="#404040">
                        <set attributeName="fill" to="#808080" begin="arrowDown.mouseover" end="arrowDown.mouseout"/>
                  </use>
                  <path fill="none" stroke="white" stroke-width="1.5" d="M0,-3.0v7 M-2.5,-0.5L0,-3.0L2.5,-0.5"/>
                </g>
                <g id="arrowLeft" xlink:href="#dirArrow" transform="rotate(270) translate(-36 17)" onmousedown="handlePan(-1,0)">
                  <use xlink:href="#rim" fill="#404040">
                        <set attributeName="fill" to="#808080" begin="arrowLeft.mouseover" end="arrowLeft.mouseout"/>
                  </use>
                  <path fill="none" stroke="white" stroke-width="1.5" d="M0,-3.0v7 M-2.5,-0.5L0,-3.0L2.5,-0.5"/>
                </g>
        </g>
        <svg viewBox="0 0 15 15" width="100%" height="30px" preserveAspectRatio="xMaxYMin meet">
         <g id="arrow_out" transform="scale(0.3 0.3)">
          <a xlink:href="_u___helper_8cpp__incl_org.svg" target="_base">
           <rect id="button" ry="5" rx="5" y="6" x="6" height="38" width="38"
                fill="#f2f5e9" fill-opacity="0.5" stroke="#606060" stroke-width="1.0"/>
           <path id="arrow"
             d="M 11.500037,31.436501 C 11.940474,20.09759 22.043105,11.32322 32.158766,21.979434 L 37.068811,17.246167 C 37.068811,17.246167 37.088388,32 37.088388,32 L 22.160133,31.978069 C 22.160133,31.978069 26.997745,27.140456 26.997745,27.140456 C 18.528582,18.264221 13.291696,25.230495 11.500037,31.436501 z"
             style="fill:#404040;"/>
          </a>
         </g>
        </svg>
</svg>
