<?xml version="1.0" encoding="UTF-8" standalone="no"?>
<!DOCTYPE svg PUBLIC "-//W3C//DTD SVG 1.1//EN"
 "http://www.w3.org/Graphics/SVG/1.1/DTD/svg11.dtd">
<!-- Generated by graphviz version 4.0.0 (20220529.0937)
 -->
<!-- Title: C:/Users/admin&#45;cyb/Desktop/pi&#45;defender/Sources/PI&#45;Defender_UM/U_Registry.hpp Pages: 1 -->
<!--zoomable 595 -->
<svg id="main" version="1.1" xmlns="http://www.w3.org/2000/svg" xmlns:xlink="http://www.w3.org/1999/xlink" xml:space="preserve" onload="init(evt)">
<style type="text/css"><![CDATA[
.edge:hover path { stroke: red; }
.edge:hover polygon { stroke: red; fill: red; }
]]></style>
<script type="text/javascript"><![CDATA[
var edges = document.getElementsByTagName('g');
if (edges && edges.length) {
  for (var i=0;i<edges.length;i++) {
    if (edges[i].id.substr(0,4)=='edge') {
      edges[i].setAttribute('class','edge');
    }
  }
}
]]></script>
        <defs>
                <circle id="rim" cx="0" cy="0" r="7"/>
                <circle id="rim2" cx="0" cy="0" r="3.5"/>
                <g id="zoomPlus">
                        <use xlink:href="#rim" fill="#404040">
                                <set attributeName="fill" to="#808080" begin="zoomplus.mouseover" end="zoomplus.mouseout"/>
                        </use>
                        <path d="M-4,0h8M0,-4v8" fill="none" stroke="white" stroke-width="1.5" pointer-events="none"/>
                </g>
                <g id="zoomMin">
                        <use xlink:href="#rim" fill="#404040">
                                <set attributeName="fill" to="#808080" begin="zoomminus.mouseover" end="zoomminus.mouseout"/>
                        </use>
                        <path d="M-4,0h8" fill="none" stroke="white" stroke-width="1.5" pointer-events="none"/>
                </g>
                <g id="dirArrow">
                        <path fill="none" stroke="white" stroke-width="1.5" d="M0,-3.0v7 M-2.5,-0.5L0,-3.0L2.5,-0.5"/>
                </g>
               <g id="resetDef">
                       <use xlink:href="#rim2" fill="#404040">
                               <set attributeName="fill" to="#808080" begin="reset.mouseover" end="reset.mouseout"/>
                       </use>
               </g>
        </defs>

<script type="text/javascript">
var viewWidth = 678;
var viewHeight = 595;
var sectionId = 'dynsection-1';
</script>
<script xlink:href="svgpan.js"/>
<svg id="graph" class="graph">
<g id="viewport">
<title>C:/Users/admin&#45;cyb/Desktop/pi&#45;defender/Sources/PI&#45;Defender_UM/U_Registry.hpp</title>
<!-- Node1 -->
<g id="node1" class="node">
<title>Node1</title>
<g id="a_node1"><a xlink:title="Header for U_Registry.cpp.">
<polygon fill="#bfbfbf" stroke="black" points="478,-534.5 478,-586.5 587,-586.5 587,-534.5 478,-534.5"/>
<text text-anchor="start" x="486" y="-574.5" font-family="Helvetica,sans-Serif" font-size="10.00">C:/Users/admin&#45;cyb</text>
<text text-anchor="start" x="486" y="-563.5" font-family="Helvetica,sans-Serif" font-size="10.00">/Desktop/pi&#45;defender</text>
<text text-anchor="start" x="486" y="-552.5" font-family="Helvetica,sans-Serif" font-size="10.00">/Sources/PI&#45;Defender</text>
<text text-anchor="middle" x="532.5" y="-541.5" font-family="Helvetica,sans-Serif" font-size="10.00">_UM/U_Registry.hpp</text>
</a>
</g>
</g>
<!-- Node2 -->
<g id="node2" class="node">
<title>Node2</title>
<g id="a_node2"><a xlink:href="_u___configuration_8hpp.html" target="_top" xlink:title="Header for U_Configuration.cpp.">
<polygon fill="none" stroke="black" points="339,-445.5 339,-497.5 466,-497.5 466,-445.5 339,-445.5"/>
<text text-anchor="start" x="347" y="-485.5" font-family="Helvetica,sans-Serif" font-size="10.00">C:/Users/admin&#45;cyb</text>
<text text-anchor="start" x="347" y="-474.5" font-family="Helvetica,sans-Serif" font-size="10.00">/Desktop/pi&#45;defender</text>
<text text-anchor="start" x="347" y="-463.5" font-family="Helvetica,sans-Serif" font-size="10.00">/Sources/PI&#45;Defender</text>
<text text-anchor="middle" x="402.5" y="-452.5" font-family="Helvetica,sans-Serif" font-size="10.00">_UM/U_Configuration.hpp</text>
</a>
</g>
</g>
<!-- Node1&#45;&gt;Node2 -->
<g id="edge1" class="edge">
<title>Node1&#45;&gt;Node2</title>
<path fill="none" stroke="midnightblue" d="M486.18,-528.5C471.04,-518.37 454.43,-507.25 440.02,-497.61"/>
<polygon fill="midnightblue" stroke="midnightblue" points="484.64,-531.68 494.9,-534.34 488.53,-525.87 484.64,-531.68"/>
</g>
<!-- Node11 -->
<g id="node11" class="node">
<title>Node11</title>
<g id="a_node11"><a xlink:href="_u___logs_8hpp.html" target="_top" xlink:title="Header for U_Logs.cpp.">
<polygon fill="none" stroke="black" points="441,-178.5 441,-230.5 550,-230.5 550,-178.5 441,-178.5"/>
<text text-anchor="start" x="449" y="-218.5" font-family="Helvetica,sans-Serif" font-size="10.00">C:/Users/admin&#45;cyb</text>
<text text-anchor="start" x="449" y="-207.5" font-family="Helvetica,sans-Serif" font-size="10.00">/Desktop/pi&#45;defender</text>
<text text-anchor="start" x="449" y="-196.5" font-family="Helvetica,sans-Serif" font-size="10.00">/Sources/PI&#45;Defender</text>
<text text-anchor="middle" x="495.5" y="-185.5" font-family="Helvetica,sans-Serif" font-size="10.00">_UM/U_Logs.hpp</text>
</a>
</g>
</g>
<!-- Node1&#45;&gt;Node11 -->
<g id="edge22" class="edge">
<title>Node1&#45;&gt;Node11</title>
<path fill="none" stroke="midnightblue" d="M528.79,-524.04C521.33,-452.58 504.62,-292.8 498.14,-230.78"/>
<polygon fill="midnightblue" stroke="midnightblue" points="525.35,-524.74 529.87,-534.32 532.31,-524.02 525.35,-524.74"/>
</g>
<!-- Node14 -->
<g id="node14" class="node">
<title>Node14</title>
<g id="a_node14"><a xlink:href="_u___registry_8cpp.html" target="_top" xlink:title="Create / Write / Delete registry key.">
<polygon fill="none" stroke="black" points="561,-445.5 561,-497.5 670,-497.5 670,-445.5 561,-445.5"/>
<text text-anchor="start" x="569" y="-485.5" font-family="Helvetica,sans-Serif" font-size="10.00">C:/Users/admin&#45;cyb</text>
<text text-anchor="start" x="569" y="-474.5" font-family="Helvetica,sans-Serif" font-size="10.00">/Desktop/pi&#45;defender</text>
<text text-anchor="start" x="569" y="-463.5" font-family="Helvetica,sans-Serif" font-size="10.00">/Sources/PI&#45;Defender</text>
<text text-anchor="middle" x="615.5" y="-452.5" font-family="Helvetica,sans-Serif" font-size="10.00">_UM/U_Registry.cpp</text>
</a>
</g>
</g>
<!-- Node1&#45;&gt;Node14 -->
<g id="edge23" class="edge">
<title>Node1&#45;&gt;Node14</title>
<path fill="none" stroke="midnightblue" d="M563.43,-527.08C572.73,-517.34 582.78,-506.8 591.55,-497.61"/>
<polygon fill="midnightblue" stroke="midnightblue" points="560.88,-524.68 556.51,-534.34 565.94,-529.52 560.88,-524.68"/>
</g>
<!-- Node3 -->
<g id="node3" class="node">
<title>Node3</title>
<g id="a_node3"><a xlink:href="_u___configuration_8cpp.html" target="_top" xlink:title="Set all the needed configuration for the driver and the user&#45;mode service.">
<polygon fill="none" stroke="black" points="301,-356.5 301,-408.5 428,-408.5 428,-356.5 301,-356.5"/>
<text text-anchor="start" x="309" y="-396.5" font-family="Helvetica,sans-Serif" font-size="10.00">C:/Users/admin&#45;cyb</text>
<text text-anchor="start" x="309" y="-385.5" font-family="Helvetica,sans-Serif" font-size="10.00">/Desktop/pi&#45;defender</text>
<text text-anchor="start" x="309" y="-374.5" font-family="Helvetica,sans-Serif" font-size="10.00">/Sources/PI&#45;Defender</text>
<text text-anchor="middle" x="364.5" y="-363.5" font-family="Helvetica,sans-Serif" font-size="10.00">_UM/U_Configuration.cpp</text>
</a>
</g>
</g>
<!-- Node2&#45;&gt;Node3 -->
<g id="edge2" class="edge">
<title>Node2&#45;&gt;Node3</title>
<path fill="none" stroke="midnightblue" d="M387.46,-436.06C383.45,-426.9 379.21,-417.17 375.47,-408.61"/>
<polygon fill="midnightblue" stroke="midnightblue" points="384.3,-437.57 391.51,-445.34 390.71,-434.77 384.3,-437.57"/>
</g>
<!-- Node4 -->
<g id="node4" class="node">
<title>Node4</title>
<g id="a_node4"><a xlink:href="_u___service_8hpp.html" target="_top" xlink:title="Header for U_Service.cpp.">
<polygon fill="none" stroke="black" points="174,-356.5 174,-408.5 283,-408.5 283,-356.5 174,-356.5"/>
<text text-anchor="start" x="182" y="-396.5" font-family="Helvetica,sans-Serif" font-size="10.00">C:/Users/admin&#45;cyb</text>
<text text-anchor="start" x="182" y="-385.5" font-family="Helvetica,sans-Serif" font-size="10.00">/Desktop/pi&#45;defender</text>
<text text-anchor="start" x="182" y="-374.5" font-family="Helvetica,sans-Serif" font-size="10.00">/Sources/PI&#45;Defender</text>
<text text-anchor="middle" x="228.5" y="-363.5" font-family="Helvetica,sans-Serif" font-size="10.00">_UM/U_Service.hpp</text>
</a>
</g>
</g>
<!-- Node2&#45;&gt;Node4 -->
<g id="edge3" class="edge">
<title>Node2&#45;&gt;Node4</title>
<path fill="none" stroke="midnightblue" d="M336.9,-440.92C315.4,-430.41 292.06,-418.7 272.53,-408.61"/>
<polygon fill="midnightblue" stroke="midnightblue" points="335.46,-444.11 345.99,-445.34 338.52,-437.81 335.46,-444.11"/>
</g>
<!-- Node4&#45;&gt;Node2 -->
<g id="edge7" class="edge">
<title>Node4&#45;&gt;Node2</title>
<path fill="none" stroke="midnightblue" d="M292.3,-412.21C314.25,-422.91 338.31,-434.97 358.36,-445.34"/>
<polygon fill="midnightblue" stroke="midnightblue" points="293.56,-408.93 283.04,-407.71 290.51,-415.23 293.56,-408.93"/>
</g>
<!-- Node5 -->
<g id="node5" class="node">
<title>Node5</title>
<g id="a_node5"><a xlink:href="_u___communication_8hpp.html" target="_top" xlink:title="Header for U_Communication.cpp.">
<polygon fill="none" stroke="black" points="77.5,-89.5 77.5,-141.5 215.5,-141.5 215.5,-89.5 77.5,-89.5"/>
<text text-anchor="start" x="85.5" y="-129.5" font-family="Helvetica,sans-Serif" font-size="10.00">C:/Users/admin&#45;cyb</text>
<text text-anchor="start" x="85.5" y="-118.5" font-family="Helvetica,sans-Serif" font-size="10.00">/Desktop/pi&#45;defender</text>
<text text-anchor="start" x="85.5" y="-107.5" font-family="Helvetica,sans-Serif" font-size="10.00">/Sources/PI&#45;Defender</text>
<text text-anchor="middle" x="146.5" y="-96.5" font-family="Helvetica,sans-Serif" font-size="10.00">_UM/U_Communication.hpp</text>
</a>
</g>
</g>
<!-- Node4&#45;&gt;Node5 -->
<g id="edge4" class="edge">
<title>Node4&#45;&gt;Node5</title>
<path fill="none" stroke="midnightblue" d="M207.92,-347.2C194.42,-316.91 177.66,-271.42 165.5,-231 156.36,-200.62 148.03,-165.06 144.87,-141.72"/>
<polygon fill="midnightblue" stroke="midnightblue" points="204.82,-348.84 212.17,-356.47 211.18,-345.92 204.82,-348.84"/>
</g>
<!-- Node7 -->
<g id="node7" class="node">
<title>Node7</title>
<g id="a_node7"><a xlink:href="_u___helper_8hpp.html" target="_top" xlink:title="Header for U_Helper.cpp.">
<polygon fill="none" stroke="black" points="314,-267.5 314,-319.5 423,-319.5 423,-267.5 314,-267.5"/>
<text text-anchor="start" x="322" y="-307.5" font-family="Helvetica,sans-Serif" font-size="10.00">C:/Users/admin&#45;cyb</text>
<text text-anchor="start" x="322" y="-296.5" font-family="Helvetica,sans-Serif" font-size="10.00">/Desktop/pi&#45;defender</text>
<text text-anchor="start" x="322" y="-285.5" font-family="Helvetica,sans-Serif" font-size="10.00">/Sources/PI&#45;Defender</text>
<text text-anchor="middle" x="368.5" y="-274.5" font-family="Helvetica,sans-Serif" font-size="10.00">_UM/U_Helper.hpp</text>
</a>
</g>
</g>
<!-- Node4&#45;&gt;Node7 -->
<g id="edge8" class="edge">
<title>Node4&#45;&gt;Node7</title>
<path fill="none" stroke="midnightblue" d="M271.44,-350.79C287.43,-340.58 305.61,-329.34 321.91,-319.61"/>
<polygon fill="midnightblue" stroke="midnightblue" points="269.33,-347.98 262.81,-356.34 273.11,-353.87 269.33,-347.98"/>
</g>
<!-- Node13 -->
<g id="node13" class="node">
<title>Node13</title>
<g id="a_node13"><a xlink:href="_u___service_8cpp.html" target="_top" xlink:title="Entrypoint of the process &amp; the service.">
<polygon fill="none" stroke="black" points="0,-267.5 0,-319.5 109,-319.5 109,-267.5 0,-267.5"/>
<text text-anchor="start" x="8" y="-307.5" font-family="Helvetica,sans-Serif" font-size="10.00">C:/Users/admin&#45;cyb</text>
<text text-anchor="start" x="8" y="-296.5" font-family="Helvetica,sans-Serif" font-size="10.00">/Desktop/pi&#45;defender</text>
<text text-anchor="start" x="8" y="-285.5" font-family="Helvetica,sans-Serif" font-size="10.00">/Sources/PI&#45;Defender</text>
<text text-anchor="middle" x="54.5" y="-274.5" font-family="Helvetica,sans-Serif" font-size="10.00">_UM/U_Service.cpp</text>
</a>
</g>
</g>
<!-- Node4&#45;&gt;Node13 -->
<g id="edge21" class="edge">
<title>Node4&#45;&gt;Node13</title>
<path fill="none" stroke="midnightblue" d="M169.05,-351.78C148.12,-341.31 124.81,-329.66 104.71,-319.61"/>
<polygon fill="midnightblue" stroke="midnightblue" points="167.66,-354.99 178.17,-356.34 170.79,-348.73 167.66,-354.99"/>
</g>
<!-- Node5&#45;&gt;Node4 -->
<g id="edge6" class="edge">
<title>Node5&#45;&gt;Node4</title>
<path fill="none" stroke="midnightblue" d="M161.7,-151.32C168.19,-174.14 175.54,-204.54 183.5,-231 196.97,-275.79 216.1,-326.82 225.04,-356.47"/>
<polygon fill="midnightblue" stroke="midnightblue" points="165.05,-150.32 158.87,-141.72 158.34,-152.3 165.05,-150.32"/>
</g>
<!-- Node6 -->
<g id="node6" class="node">
<title>Node6</title>
<g id="a_node6"><a xlink:href="_u___communication_8cpp.html" target="_top" xlink:title="Manage the communication with the driver (Connect|Reply|ListenerThread|WorkerThread)">
<polygon fill="none" stroke="black" points="77.5,-0.5 77.5,-52.5 215.5,-52.5 215.5,-0.5 77.5,-0.5"/>
<text text-anchor="start" x="85.5" y="-40.5" font-family="Helvetica,sans-Serif" font-size="10.00">C:/Users/admin&#45;cyb</text>
<text text-anchor="start" x="85.5" y="-29.5" font-family="Helvetica,sans-Serif" font-size="10.00">/Desktop/pi&#45;defender</text>
<text text-anchor="start" x="85.5" y="-18.5" font-family="Helvetica,sans-Serif" font-size="10.00">/Sources/PI&#45;Defender</text>
<text text-anchor="middle" x="146.5" y="-7.5" font-family="Helvetica,sans-Serif" font-size="10.00">_UM/U_Communication.cpp</text>
</a>
</g>
</g>
<!-- Node5&#45;&gt;Node6 -->
<g id="edge5" class="edge">
<title>Node5&#45;&gt;Node6</title>
<path fill="none" stroke="midnightblue" d="M146.5,-79.19C146.5,-70.28 146.5,-60.9 146.5,-52.61"/>
<polygon fill="midnightblue" stroke="midnightblue" points="143,-79.34 146.5,-89.34 150,-79.34 143,-79.34"/>
</g>
<!-- Node7&#45;&gt;Node2 -->
<g id="edge9" class="edge">
<title>Node7&#45;&gt;Node2</title>
<path fill="none" stroke="midnightblue" d="M415.55,-326.53C424.45,-334.99 432.53,-344.9 437.5,-356 450.76,-385.59 434.87,-421.64 420.42,-445.28"/>
<polygon fill="midnightblue" stroke="midnightblue" points="417.72,-323.78 407.92,-319.76 413.08,-329.02 417.72,-323.78"/>
</g>
<!-- Node7&#45;&gt;Node4 -->
<g id="edge20" class="edge">
<title>Node7&#45;&gt;Node4</title>
<path fill="none" stroke="midnightblue" d="M325.65,-325.15C309.67,-335.36 291.49,-346.6 275.18,-356.34"/>
<polygon fill="midnightblue" stroke="midnightblue" points="327.76,-327.96 334.28,-319.61 323.98,-322.07 327.76,-327.96"/>
</g>
<!-- Node8 -->
<g id="node8" class="node">
<title>Node8</title>
<g id="a_node8"><a xlink:href="_u___controller_8hpp.html" target="_top" xlink:title="Header for U_Controller.cpp.">
<polygon fill="none" stroke="black" points="183.5,-178.5 183.5,-230.5 295.5,-230.5 295.5,-178.5 183.5,-178.5"/>
<text text-anchor="start" x="191.5" y="-218.5" font-family="Helvetica,sans-Serif" font-size="10.00">C:/Users/admin&#45;cyb</text>
<text text-anchor="start" x="191.5" y="-207.5" font-family="Helvetica,sans-Serif" font-size="10.00">/Desktop/pi&#45;defender</text>
<text text-anchor="start" x="191.5" y="-196.5" font-family="Helvetica,sans-Serif" font-size="10.00">/Sources/PI&#45;Defender</text>
<text text-anchor="middle" x="239.5" y="-185.5" font-family="Helvetica,sans-Serif" font-size="10.00">_UM/U_Controller.hpp</text>
</a>
</g>
</g>
<!-- Node7&#45;&gt;Node8 -->
<g id="edge10" class="edge">
<title>Node7&#45;&gt;Node8</title>
<path fill="none" stroke="midnightblue" d="M322.54,-261.5C307.52,-251.37 291.03,-240.25 276.73,-230.61"/>
<polygon fill="midnightblue" stroke="midnightblue" points="320.94,-264.65 331.19,-267.34 324.85,-258.84 320.94,-264.65"/>
</g>
<!-- Node10 -->
<g id="node10" class="node">
<title>Node10</title>
<g id="a_node10"><a xlink:href="_u___helper_8cpp.html" target="_top" xlink:title="Help function used by several .cpp files.">
<polygon fill="none" stroke="black" points="314,-178.5 314,-230.5 423,-230.5 423,-178.5 314,-178.5"/>
<text text-anchor="start" x="322" y="-218.5" font-family="Helvetica,sans-Serif" font-size="10.00">C:/Users/admin&#45;cyb</text>
<text text-anchor="start" x="322" y="-207.5" font-family="Helvetica,sans-Serif" font-size="10.00">/Desktop/pi&#45;defender</text>
<text text-anchor="start" x="322" y="-196.5" font-family="Helvetica,sans-Serif" font-size="10.00">/Sources/PI&#45;Defender</text>
<text text-anchor="middle" x="368.5" y="-185.5" font-family="Helvetica,sans-Serif" font-size="10.00">_UM/U_Helper.cpp</text>
</a>
</g>
</g>
<!-- Node7&#45;&gt;Node10 -->
<g id="edge13" class="edge">
<title>Node7&#45;&gt;Node10</title>
<path fill="none" stroke="midnightblue" d="M368.5,-257.19C368.5,-248.28 368.5,-238.9 368.5,-230.61"/>
<polygon fill="midnightblue" stroke="midnightblue" points="365,-257.34 368.5,-267.34 372,-257.34 365,-257.34"/>
</g>
<!-- Node7&#45;&gt;Node11 -->
<g id="edge14" class="edge">
<title>Node7&#45;&gt;Node11</title>
<path fill="none" stroke="midnightblue" d="M407.25,-261.5C421.62,-251.37 437.96,-240.25 452.67,-230.61"/>
<polygon fill="midnightblue" stroke="midnightblue" points="405.17,-258.69 399.05,-267.34 409.23,-264.39 405.17,-258.69"/>
</g>
<!-- Node8&#45;&gt;Node4 -->
<g id="edge12" class="edge">
<title>Node8&#45;&gt;Node4</title>
<path fill="none" stroke="midnightblue" d="M237.3,-240.7C235.16,-274.89 231.97,-325.96 230.08,-356.28"/>
<polygon fill="midnightblue" stroke="midnightblue" points="240.8,-240.87 237.93,-230.67 233.81,-240.43 240.8,-240.87"/>
</g>
<!-- Node9 -->
<g id="node9" class="node">
<title>Node9</title>
<g id="a_node9"><a xlink:href="_u___controller_8cpp.html" target="_top" xlink:title="Controll the service/driver (Install|Start|Stop|Delete|Query)">
<polygon fill="none" stroke="black" points="233.5,-89.5 233.5,-141.5 345.5,-141.5 345.5,-89.5 233.5,-89.5"/>
<text text-anchor="start" x="241.5" y="-129.5" font-family="Helvetica,sans-Serif" font-size="10.00">C:/Users/admin&#45;cyb</text>
<text text-anchor="start" x="241.5" y="-118.5" font-family="Helvetica,sans-Serif" font-size="10.00">/Desktop/pi&#45;defender</text>
<text text-anchor="start" x="241.5" y="-107.5" font-family="Helvetica,sans-Serif" font-size="10.00">/Sources/PI&#45;Defender</text>
<text text-anchor="middle" x="289.5" y="-96.5" font-family="Helvetica,sans-Serif" font-size="10.00">_UM/U_Controller.cpp</text>
</a>
</g>
</g>
<!-- Node8&#45;&gt;Node9 -->
<g id="edge11" class="edge">
<title>Node8&#45;&gt;Node9</title>
<path fill="none" stroke="midnightblue" d="M258.96,-169.64C264.32,-160.31 270.05,-150.35 275.07,-141.61"/>
<polygon fill="midnightblue" stroke="midnightblue" points="255.91,-167.92 253.96,-178.34 261.98,-171.41 255.91,-167.92"/>
</g>
<!-- Node11&#45;&gt;Node2 -->
<g id="edge16" class="edge">
<title>Node11&#45;&gt;Node2</title>
<path fill="none" stroke="midnightblue" d="M493.43,-240.53C489.82,-282.44 480,-353.85 453.5,-409 447.19,-422.13 437.48,-434.83 428.22,-445.25"/>
<polygon fill="midnightblue" stroke="midnightblue" points="496.92,-240.78 494.22,-230.54 489.95,-240.23 496.92,-240.78"/>
</g>
<!-- Node11&#45;&gt;Node4 -->
<g id="edge19" class="edge">
<title>Node11&#45;&gt;Node4</title>
<path fill="none" stroke="midnightblue" d="M484.69,-240.64C475.01,-266.32 458.31,-300.01 432.5,-320 381.36,-359.6 352.95,-335.82 291.5,-356 288.81,-356.88 286.07,-357.83 283.31,-358.81"/>
<polygon fill="midnightblue" stroke="midnightblue" points="488.1,-241.48 488.18,-230.89 481.51,-239.13 488.1,-241.48"/>
</g>
<!-- Node11&#45;&gt;Node5 -->
<g id="edge15" class="edge">
<title>Node11&#45;&gt;Node5</title>
<path fill="none" stroke="midnightblue" d="M430.91,-177.78C340.38,-153.06 312.44,-163.86 224.5,-142 221.6,-141.28 218.64,-140.5 215.67,-139.69"/>
<polygon fill="midnightblue" stroke="midnightblue" points="430.19,-181.22 440.77,-180.55 432.08,-174.48 430.19,-181.22"/>
</g>
<!-- Node11&#45;&gt;Node7 -->
<g id="edge17" class="edge">
<title>Node11&#45;&gt;Node7</title>
<path fill="none" stroke="midnightblue" d="M456.83,-236.44C442.47,-246.57 426.13,-257.69 411.42,-267.34"/>
<polygon fill="midnightblue" stroke="midnightblue" points="458.91,-239.25 465.03,-230.61 454.85,-233.55 458.91,-239.25"/>
</g>
<!-- Node12 -->
<g id="node12" class="node">
<title>Node12</title>
<g id="a_node12"><a xlink:href="_u___logs_8cpp.html" target="_top" xlink:title="Report Event to ETW.">
<polygon fill="none" stroke="black" points="441,-89.5 441,-141.5 550,-141.5 550,-89.5 441,-89.5"/>
<text text-anchor="start" x="449" y="-129.5" font-family="Helvetica,sans-Serif" font-size="10.00">C:/Users/admin&#45;cyb</text>
<text text-anchor="start" x="449" y="-118.5" font-family="Helvetica,sans-Serif" font-size="10.00">/Desktop/pi&#45;defender</text>
<text text-anchor="start" x="449" y="-107.5" font-family="Helvetica,sans-Serif" font-size="10.00">/Sources/PI&#45;Defender</text>
<text text-anchor="middle" x="495.5" y="-96.5" font-family="Helvetica,sans-Serif" font-size="10.00">_UM/U_Logs.cpp</text>
</a>
</g>
</g>
<!-- Node11&#45;&gt;Node12 -->
<g id="edge18" class="edge">
<title>Node11&#45;&gt;Node12</title>
<path fill="none" stroke="midnightblue" d="M495.5,-168.19C495.5,-159.28 495.5,-149.9 495.5,-141.61"/>
<polygon fill="midnightblue" stroke="midnightblue" points="492,-168.34 495.5,-178.34 499,-168.34 492,-168.34"/>
</g>
</g>
</svg>
        <g id="navigator" transform="translate(0 0)" fill="#404254">
                <rect fill="#f2f5e9" fill-opacity="0.5" stroke="#606060" stroke-width=".5" x="0" y="0" width="60" height="60"/>
                <use id="zoomplus" xlink:href="#zoomPlus" x="17" y="9" onmousedown="handleZoom(evt,'in')"/>
                <use id="zoomminus" xlink:href="#zoomMin" x="42" y="9" onmousedown="handleZoom(evt,'out')"/>
                <use id="reset" xlink:href="#resetDef" x="30" y="36" onmousedown="handleReset()"/>
                <g id="arrowUp" xlink:href="#dirArrow" transform="translate(30 24)" onmousedown="handlePan(0,-1)">
                  <use xlink:href="#rim" fill="#404040">
                        <set attributeName="fill" to="#808080" begin="arrowUp.mouseover" end="arrowUp.mouseout"/>
                  </use>
                  <path fill="none" stroke="white" stroke-width="1.5" d="M0,-3.0v7 M-2.5,-0.5L0,-3.0L2.5,-0.5"/>
                </g>
                <g id="arrowRight" xlink:href="#dirArrow" transform="rotate(90) translate(36 -43)" onmousedown="handlePan(1,0)">
                  <use xlink:href="#rim" fill="#404040">
                        <set attributeName="fill" to="#808080" begin="arrowRight.mouseover" end="arrowRight.mouseout"/>
                  </use>
                  <path fill="none" stroke="white" stroke-width="1.5" d="M0,-3.0v7 M-2.5,-0.5L0,-3.0L2.5,-0.5"/>
                </g>
                <g id="arrowDown" xlink:href="#dirArrow" transform="rotate(180) translate(-30 -48)" onmousedown="handlePan(0,1)">
                  <use xlink:href="#rim" fill="#404040">
                        <set attributeName="fill" to="#808080" begin="arrowDown.mouseover" end="arrowDown.mouseout"/>
                  </use>
                  <path fill="none" stroke="white" stroke-width="1.5" d="M0,-3.0v7 M-2.5,-0.5L0,-3.0L2.5,-0.5"/>
                </g>
                <g id="arrowLeft" xlink:href="#dirArrow" transform="rotate(270) translate(-36 17)" onmousedown="handlePan(-1,0)">
                  <use xlink:href="#rim" fill="#404040">
                        <set attributeName="fill" to="#808080" begin="arrowLeft.mouseover" end="arrowLeft.mouseout"/>
                  </use>
                  <path fill="none" stroke="white" stroke-width="1.5" d="M0,-3.0v7 M-2.5,-0.5L0,-3.0L2.5,-0.5"/>
                </g>
        </g>
        <svg viewBox="0 0 15 15" width="100%" height="30px" preserveAspectRatio="xMaxYMin meet">
         <g id="arrow_out" transform="scale(0.3 0.3)">
          <a xlink:href="_u___registry_8hpp__dep__incl_org.svg" target="_base">
           <rect id="button" ry="5" rx="5" y="6" x="6" height="38" width="38"
                fill="#f2f5e9" fill-opacity="0.5" stroke="#606060" stroke-width="1.0"/>
           <path id="arrow"
             d="M 11.500037,31.436501 C 11.940474,20.09759 22.043105,11.32322 32.158766,21.979434 L 37.068811,17.246167 C 37.068811,17.246167 37.088388,32 37.088388,32 L 22.160133,31.978069 C 22.160133,31.978069 26.997745,27.140456 26.997745,27.140456 C 18.528582,18.264221 13.291696,25.230495 11.500037,31.436501 z"
             style="fill:#404040;"/>
          </a>
         </g>
        </svg>
</svg>
