<?xml version="1.0" encoding="UTF-8" standalone="no"?>
<!DOCTYPE svg PUBLIC "-//W3C//DTD SVG 1.1//EN"
 "http://www.w3.org/Graphics/SVG/1.1/DTD/svg11.dtd">
<!-- Generated by graphviz version 4.0.0 (20220529.0937)
 -->
<!-- Title: Service Pages: 1 -->
<!--zoomable 425 -->
<svg id="main" version="1.1" xmlns="http://www.w3.org/2000/svg" xmlns:xlink="http://www.w3.org/1999/xlink" xml:space="preserve" onload="init(evt)">
<style type="text/css"><![CDATA[
.edge:hover path { stroke: red; }
.edge:hover polygon { stroke: red; fill: red; }
]]></style>
<script type="text/javascript"><![CDATA[
var edges = document.getElementsByTagName('g');
if (edges && edges.length) {
  for (var i=0;i<edges.length;i++) {
    if (edges[i].id.substr(0,4)=='edge') {
      edges[i].setAttribute('class','edge');
    }
  }
}
]]></script>
        <defs>
                <circle id="rim" cx="0" cy="0" r="7"/>
                <circle id="rim2" cx="0" cy="0" r="3.5"/>
                <g id="zoomPlus">
                        <use xlink:href="#rim" fill="#404040">
                                <set attributeName="fill" to="#808080" begin="zoomplus.mouseover" end="zoomplus.mouseout"/>
                        </use>
                        <path d="M-4,0h8M0,-4v8" fill="none" stroke="white" stroke-width="1.5" pointer-events="none"/>
                </g>
                <g id="zoomMin">
                        <use xlink:href="#rim" fill="#404040">
                                <set attributeName="fill" to="#808080" begin="zoomminus.mouseover" end="zoomminus.mouseout"/>
                        </use>
                        <path d="M-4,0h8" fill="none" stroke="white" stroke-width="1.5" pointer-events="none"/>
                </g>
                <g id="dirArrow">
                        <path fill="none" stroke="white" stroke-width="1.5" d="M0,-3.0v7 M-2.5,-0.5L0,-3.0L2.5,-0.5"/>
                </g>
               <g id="resetDef">
                       <use xlink:href="#rim2" fill="#404040">
                               <set attributeName="fill" to="#808080" begin="reset.mouseover" end="reset.mouseout"/>
                       </use>
               </g>
        </defs>

<script type="text/javascript">
var viewWidth = 1407;
var viewHeight = 425;
var sectionId = 'dynsection-8';
</script>
<script xlink:href="svgpan.js"/>
<svg id="graph" class="graph">
<g id="viewport">
<title>Service</title>
<!-- Node1 -->
<g id="node1" class="node">
<title>Node1</title>
<g id="a_node1"><a xlink:title="Wrap the call to the service entrypoint.">
<polygon fill="#bfbfbf" stroke="black" points="0,-325 0,-344 48,-344 48,-325 0,-325"/>
<text text-anchor="middle" x="24" y="-332" font-family="Helvetica,sans-Serif" font-size="10.00">Service</text>
</a>
</g>
</g>
<!-- Node2 -->
<g id="node2" class="node">
<title>Node2</title>
<g id="a_node2"><a xlink:href="_u___service_8cpp.html#a2ef7fa664545ef1bfd08460f37d2140a" target="_top" xlink:title="Entrypoint and core of the user space service.">
<polygon fill="none" stroke="black" points="84,-224 84,-243 137,-243 137,-224 84,-224"/>
<text text-anchor="middle" x="110.5" y="-231" font-family="Helvetica,sans-Serif" font-size="10.00">SvcMain</text>
</a>
</g>
</g>
<!-- Node1&#45;&gt;Node2 -->
<g id="edge1" class="edge">
<title>Node1&#45;&gt;Node2</title>
<path fill="none" stroke="midnightblue" d="M33.1,-324.82C47.33,-307.8 77.01,-272.34 94.89,-250.96"/>
<polygon fill="midnightblue" stroke="midnightblue" points="97.81,-252.92 101.55,-243.01 92.44,-248.43 97.81,-252.92"/>
</g>
<!-- Node4 -->
<g id="node4" class="node">
<title>Node4</title>
<g id="a_node4"><a xlink:href="class_u___l_o_g_s.html#a0f2932b79fce103453dd1cfc60de2007" target="_top" xlink:title="Send the reported event in the Event Viewer (Application &#45;&gt; PI&#45;Defender_UM).">
<polygon fill="none" stroke="black" points="445,-386 445,-405 575,-405 575,-386 445,-386"/>
<text text-anchor="middle" x="510" y="-393" font-family="Helvetica,sans-Serif" font-size="10.00">U_LOGS::SvcReportEvent</text>
</a>
</g>
</g>
<!-- Node1&#45;&gt;Node4 -->
<g id="edge40" class="edge">
<title>Node1&#45;&gt;Node4</title>
<path fill="none" stroke="midnightblue" d="M39.74,-344.21C65.48,-360.53 120.86,-392.79 173,-404.5 265.74,-425.33 376.5,-416.01 444.79,-406.47"/>
<polygon fill="midnightblue" stroke="midnightblue" points="445.57,-409.9 454.97,-405.01 444.57,-402.97 445.57,-409.9"/>
</g>
<!-- Node3 -->
<g id="node3" class="node">
<title>Node3</title>
<g id="a_node3"><a xlink:href="class_u___c_o_m_m_u_n_i_c_a_t_i_o_n.html#a8f3d16e06161196da0043bfe31f636eb" target="_top" xlink:title="Connection to the driver.">
<polygon fill="none" stroke="black" points="204.5,-350 204.5,-369 356.5,-369 356.5,-350 204.5,-350"/>
<text text-anchor="middle" x="280.5" y="-357" font-family="Helvetica,sans-Serif" font-size="10.00">U_COMMUNICATION::Connect</text>
</a>
</g>
</g>
<!-- Node2&#45;&gt;Node3 -->
<g id="edge2" class="edge">
<title>Node2&#45;&gt;Node3</title>
<path fill="none" stroke="midnightblue" d="M114.43,-243.15C121.16,-263.63 139.8,-311.55 173,-335.5 179.61,-340.27 187.01,-344.11 194.74,-347.21"/>
<polygon fill="midnightblue" stroke="midnightblue" points="193.71,-350.56 204.3,-350.62 196.06,-343.97 193.71,-350.56"/>
</g>
<!-- Node2&#45;&gt;Node4 -->
<g id="edge38" class="edge">
<title>Node2&#45;&gt;Node4</title>
<path fill="none" stroke="midnightblue" d="M112.22,-243.06C114.81,-269.83 126.16,-345.76 173,-378.5 213.71,-406.96 348.64,-405.11 434.63,-400.66"/>
<polygon fill="midnightblue" stroke="midnightblue" points="435.06,-404.14 444.86,-400.1 434.69,-397.15 435.06,-404.14"/>
</g>
<!-- Node5 -->
<g id="node5" class="node">
<title>Node5</title>
<g id="a_node5"><a xlink:href="class_u___c_o_n_f_i_g_u_r_a_t_i_o_n.html#aafcf880d7361d9f00cd4dd497c3a97fa" target="_top" xlink:title="Get the communication port used by the driver to interact with the service.">
<polygon fill="none" stroke="black" points="173,-148 173,-167 388,-167 388,-148 173,-148"/>
<text text-anchor="middle" x="280.5" y="-155" font-family="Helvetica,sans-Serif" font-size="10.00">U_CONFIGURATION::GetCommunicationPort</text>
</a>
</g>
</g>
<!-- Node2&#45;&gt;Node5 -->
<g id="edge4" class="edge">
<title>Node2&#45;&gt;Node5</title>
<path fill="none" stroke="midnightblue" d="M120.06,-223.84C131.11,-212.01 151.47,-192.21 173,-181.5 182.74,-176.65 193.47,-172.77 204.26,-169.67"/>
<polygon fill="midnightblue" stroke="midnightblue" points="205.39,-172.99 214.15,-167.03 203.59,-166.22 205.39,-172.99"/>
</g>
<!-- Node7 -->
<g id="node7" class="node">
<title>Node7</title>
<g id="a_node7"><a xlink:href="class_u___c_o_n_f_i_g_u_r_a_t_i_o_n.html#a11328249616049976aeafd9ad80429bc" target="_top" xlink:title="Get the number of threads of the service by reading the values in the Registry.">
<polygon fill="none" stroke="black" points="198.5,-98.5 198.5,-128.5 362.5,-128.5 362.5,-98.5 198.5,-98.5"/>
<text text-anchor="start" x="206.5" y="-116.5" font-family="Helvetica,sans-Serif" font-size="10.00">U_CONFIGURATION::GetListener</text>
<text text-anchor="middle" x="280.5" y="-105.5" font-family="Helvetica,sans-Serif" font-size="10.00">Threads</text>
</a>
</g>
</g>
<!-- Node2&#45;&gt;Node7 -->
<g id="edge6" class="edge">
<title>Node2&#45;&gt;Node7</title>
<path fill="none" stroke="midnightblue" d="M114.86,-223.94C122.19,-204.58 141.51,-160.67 173,-138.5 177.92,-135.03 183.26,-132.04 188.84,-129.46"/>
<polygon fill="midnightblue" stroke="midnightblue" points="190.51,-132.56 198.41,-125.49 187.83,-126.09 190.51,-132.56"/>
</g>
<!-- Node8 -->
<g id="node8" class="node">
<title>Node8</title>
<g id="a_node8"><a xlink:href="class_u___c_o_n_f_i_g_u_r_a_t_i_o_n.html#a86c433a3d57e5800ad03a4411ace09d6" target="_top" xlink:title="Get the number of threads of the service by reading the values in the REGISTRY::">
<polygon fill="none" stroke="black" points="191,-49.5 191,-79.5 370,-79.5 370,-49.5 191,-49.5"/>
<text text-anchor="start" x="199" y="-67.5" font-family="Helvetica,sans-Serif" font-size="10.00">U_CONFIGURATION::GetMaxWorker</text>
<text text-anchor="middle" x="280.5" y="-56.5" font-family="Helvetica,sans-Serif" font-size="10.00">Threads</text>
</a>
</g>
</g>
<!-- Node2&#45;&gt;Node8 -->
<g id="edge8" class="edge">
<title>Node2&#45;&gt;Node8</title>
<path fill="none" stroke="midnightblue" d="M112.57,-223.96C116.03,-197.89 129.34,-124.95 173,-88.5 175.78,-86.18 178.73,-84.08 181.82,-82.17"/>
<polygon fill="midnightblue" stroke="midnightblue" points="183.72,-85.11 190.85,-77.27 180.39,-78.96 183.72,-85.11"/>
</g>
<!-- Node9 -->
<g id="node9" class="node">
<title>Node9</title>
<g id="a_node9"><a xlink:href="class_u___c_o_n_f_i_g_u_r_a_t_i_o_n.html#a3979610ba0d110c0e79481925f413ea0" target="_top" xlink:title="Get the number of threads of the service by reading the values in the Registry.">
<polygon fill="none" stroke="black" points="192.5,-0.5 192.5,-30.5 368.5,-30.5 368.5,-0.5 192.5,-0.5"/>
<text text-anchor="start" x="200.5" y="-18.5" font-family="Helvetica,sans-Serif" font-size="10.00">U_CONFIGURATION::GetMinWorker</text>
<text text-anchor="middle" x="280.5" y="-7.5" font-family="Helvetica,sans-Serif" font-size="10.00">Threads</text>
</a>
</g>
</g>
<!-- Node2&#45;&gt;Node9 -->
<g id="edge10" class="edge">
<title>Node2&#45;&gt;Node9</title>
<path fill="none" stroke="midnightblue" d="M111.43,-223.68C111.75,-191.84 117.3,-90.64 173,-39.5 176.22,-36.54 179.72,-33.93 183.43,-31.61"/>
<polygon fill="midnightblue" stroke="midnightblue" points="185.31,-34.57 192.43,-26.73 181.97,-28.42 185.31,-34.57"/>
</g>
<!-- Node10 -->
<g id="node10" class="node">
<title>Node10</title>
<g id="a_node10"><a xlink:href="class_u___c_o_n_t_r_o_l_l_e_r.html#a031d85cad5238299ce37dcac69a91ffc" target="_top" xlink:title="Start the service &quot;szServiceName&quot;.">
<polygon fill="none" stroke="black" points="644.5,-373 644.5,-392 806.5,-392 806.5,-373 644.5,-373"/>
<text text-anchor="middle" x="725.5" y="-380" font-family="Helvetica,sans-Serif" font-size="10.00">U_CONTROLLER::LaunchService</text>
</a>
</g>
</g>
<!-- Node2&#45;&gt;Node10 -->
<g id="edge12" class="edge">
<title>Node2&#45;&gt;Node10</title>
<path fill="none" stroke="midnightblue" d="M117.19,-243.49C126.6,-258.99 147,-288.51 173,-302.5 193.32,-313.43 489.53,-352.48 639.22,-371.68"/>
<polygon fill="midnightblue" stroke="midnightblue" points="638.94,-375.18 649.3,-372.98 639.83,-368.23 638.94,-375.18"/>
</g>
<!-- Node16 -->
<g id="node16" class="node">
<title>Node16</title>
<g id="a_node16"><a xlink:href="class_u___c_o_m_m_u_n_i_c_a_t_i_o_n.html#a1cbfbcf7e7e895608457abf405455e6a" target="_top" xlink:title="Thread listening message sends from kernel driver.">
<polygon fill="none" stroke="black" points="205,-262.5 205,-292.5 356,-292.5 356,-262.5 205,-262.5"/>
<text text-anchor="start" x="213" y="-280.5" font-family="Helvetica,sans-Serif" font-size="10.00">U_COMMUNICATION::Listener</text>
<text text-anchor="middle" x="280.5" y="-269.5" font-family="Helvetica,sans-Serif" font-size="10.00">Thread</text>
</a>
</g>
</g>
<!-- Node2&#45;&gt;Node16 -->
<g id="edge19" class="edge">
<title>Node2&#45;&gt;Node16</title>
<path fill="none" stroke="midnightblue" d="M137.12,-241.85C148.11,-245.32 161.14,-249.28 173,-252.5 182.49,-255.08 192.49,-257.63 202.41,-260.07"/>
<polygon fill="midnightblue" stroke="midnightblue" points="201.74,-263.51 212.28,-262.47 203.39,-256.71 201.74,-263.51"/>
</g>
<!-- Node24 -->
<g id="node24" class="node">
<title>Node24</title>
<g id="a_node24"><a xlink:href="class_u___c_o_n_t_r_o_l_l_e_r.html#a62de7b3a08b00dde2a3de3fa50ed52ea" target="_top" xlink:title="Receive signal send by the User / SC Manager, handle it, update service status.">
<polygon fill="none" stroke="black" points="199,-224 199,-243 362,-243 362,-224 199,-224"/>
<text text-anchor="middle" x="280.5" y="-231" font-family="Helvetica,sans-Serif" font-size="10.00">U_CONTROLLER::SvcCtrlHandler</text>
</a>
</g>
</g>
<!-- Node2&#45;&gt;Node24 -->
<g id="edge30" class="edge">
<title>Node2&#45;&gt;Node24</title>
<path fill="none" stroke="midnightblue" d="M137.02,-233.5C151.1,-233.5 169.54,-233.5 188.45,-233.5"/>
<polygon fill="midnightblue" stroke="midnightblue" points="188.68,-237 198.68,-233.5 188.68,-230 188.68,-237"/>
</g>
<!-- Node28 -->
<g id="node28" class="node">
<title>Node28</title>
<g id="a_node28"><a xlink:href="class_u___c_o_n_t_r_o_l_l_e_r.html#a01343cb31a17c7a8077472a59927415a" target="_top" xlink:title="Depending on the state of the service, it can receive order from the user space.">
<polygon fill="none" stroke="black" points="424,-97 424,-116 596,-116 596,-97 424,-97"/>
<text text-anchor="middle" x="510" y="-104" font-family="Helvetica,sans-Serif" font-size="10.00">U_CONTROLLER::SvcReportStatus</text>
</a>
</g>
</g>
<!-- Node2&#45;&gt;Node28 -->
<g id="edge39" class="edge">
<title>Node2&#45;&gt;Node28</title>
<path fill="none" stroke="midnightblue" d="M137.04,-224.83C148.02,-221.3 161.05,-217.39 173,-214.5 267.32,-191.69 306.07,-228.5 388,-176.5 411.43,-161.63 400.92,-140.89 424,-125.5 426.98,-123.51 430.14,-121.73 433.42,-120.13"/>
<polygon fill="midnightblue" stroke="midnightblue" points="435.09,-123.22 442.93,-116.09 432.36,-116.78 435.09,-123.22"/>
</g>
<!-- Node3&#45;&gt;Node4 -->
<g id="edge3" class="edge">
<title>Node3&#45;&gt;Node4</title>
<path fill="none" stroke="midnightblue" d="M341.57,-369.01C371.39,-373.72 407.59,-379.45 438.69,-384.37"/>
<polygon fill="midnightblue" stroke="midnightblue" points="438.17,-387.83 448.59,-385.94 439.26,-380.92 438.17,-387.83"/>
</g>
<!-- Node6 -->
<g id="node6" class="node">
<title>Node6</title>
<g id="a_node6"><a xlink:href="class_u___r_e_g_i_s_t_r_y.html#ab8fcbe86de2429b471dcaa94d9025aa8" target="_top" xlink:title="Read the content (DWORD) of the registry key &quot;szSubKey&quot; located in the HIVE &quot;hKeyParent&quot;.">
<polygon fill="none" stroke="black" points="444.5,-58 444.5,-77 575.5,-77 575.5,-58 444.5,-58"/>
<text text-anchor="middle" x="510" y="-65" font-family="Helvetica,sans-Serif" font-size="10.00">U_REGISTRY::ReadValue</text>
</a>
</g>
</g>
<!-- Node5&#45;&gt;Node6 -->
<g id="edge5" class="edge">
<title>Node5&#45;&gt;Node6</title>
<path fill="none" stroke="midnightblue" d="M366.09,-147.92C373.81,-145.21 381.25,-141.79 388,-137.5 411.11,-122.81 401.23,-102.71 424,-87.5 427.79,-84.97 431.86,-82.76 436.1,-80.82"/>
<polygon fill="midnightblue" stroke="midnightblue" points="437.61,-83.99 445.58,-77.02 435,-77.49 437.61,-83.99"/>
</g>
<!-- Node7&#45;&gt;Node6 -->
<g id="edge7" class="edge">
<title>Node7&#45;&gt;Node6</title>
<path fill="none" stroke="midnightblue" d="M355.99,-98.44C387.17,-92.13 422.84,-84.92 451.89,-79.05"/>
<polygon fill="midnightblue" stroke="midnightblue" points="452.77,-82.44 461.87,-77.03 451.38,-75.58 452.77,-82.44"/>
</g>
<!-- Node8&#45;&gt;Node6 -->
<g id="edge9" class="edge">
<title>Node8&#45;&gt;Node6</title>
<path fill="none" stroke="midnightblue" d="M370.11,-65.67C391.24,-65.95 413.59,-66.24 434.04,-66.51"/>
<polygon fill="midnightblue" stroke="midnightblue" points="434.19,-70.01 444.23,-66.65 434.28,-63.01 434.19,-70.01"/>
</g>
<!-- Node9&#45;&gt;Node6 -->
<g id="edge11" class="edge">
<title>Node9&#45;&gt;Node6</title>
<path fill="none" stroke="midnightblue" d="M348.55,-30.55C361.64,-33.5 375.25,-36.59 388,-39.5 411.05,-44.76 436.55,-50.65 458.17,-55.67"/>
<polygon fill="midnightblue" stroke="midnightblue" points="457.6,-59.13 468.13,-57.98 459.18,-52.31 457.6,-59.13"/>
</g>
<!-- Node11 -->
<g id="node11" class="node">
<title>Node11</title>
<g id="a_node11"><a xlink:href="class_u___c_o_n_t_r_o_l_l_e_r.html#a65733b52c6801a89b0c12d7836feef9c" target="_top" xlink:title="Get a handle to the Service Controller Database.">
<polygon fill="none" stroke="black" points="855,-61 855,-80 1027,-80 1027,-61 855,-61"/>
<text text-anchor="middle" x="941" y="-68" font-family="Helvetica,sans-Serif" font-size="10.00">U_CONTROLLER::_GetSCMHandle</text>
</a>
</g>
</g>
<!-- Node10&#45;&gt;Node11 -->
<g id="edge13" class="edge">
<title>Node10&#45;&gt;Node11</title>
<path fill="none" stroke="midnightblue" d="M749.62,-372.87C770.08,-363.36 799.61,-347.13 819,-325.5 884.87,-252.01 921.99,-136.33 934.82,-90.33"/>
<polygon fill="midnightblue" stroke="midnightblue" points="938.27,-91 937.51,-80.43 931.51,-89.17 938.27,-91"/>
</g>
<!-- Node12 -->
<g id="node12" class="node">
<title>Node12</title>
<g id="a_node12"><a xlink:href="class_u___c_o_n_t_r_o_l_l_e_r.html#a6cbf07b4ef4a8f7f1e148e7b6d5bcb5d" target="_top" xlink:title="Get a handle to the service.">
<polygon fill="none" stroke="black" points="865,-370.5 865,-400.5 1017,-400.5 1017,-370.5 865,-370.5"/>
<text text-anchor="start" x="873" y="-388.5" font-family="Helvetica,sans-Serif" font-size="10.00">U_CONTROLLER::_GetService</text>
<text text-anchor="middle" x="941" y="-377.5" font-family="Helvetica,sans-Serif" font-size="10.00">Handle</text>
</a>
</g>
</g>
<!-- Node10&#45;&gt;Node12 -->
<g id="edge14" class="edge">
<title>Node10&#45;&gt;Node12</title>
<path fill="none" stroke="midnightblue" d="M806.61,-383.63C822.23,-383.85 838.67,-384.08 854.47,-384.3"/>
<polygon fill="midnightblue" stroke="midnightblue" points="854.69,-387.8 864.74,-384.44 854.79,-380.8 854.69,-387.8"/>
</g>
<!-- Node13 -->
<g id="node13" class="node">
<title>Node13</title>
<g id="a_node13"><a xlink:href="class_u___u_t_i_l_i_t_a_i_r_e.html#ad0b0328deb4197e357bb5d74c3173775" target="_top" xlink:title="This routine will display an error message based off of the Win32 error code that is passed in.">
<polygon fill="none" stroke="black" points="872.5,-332 872.5,-351 1009.5,-351 1009.5,-332 872.5,-332"/>
<text text-anchor="middle" x="941" y="-339" font-family="Helvetica,sans-Serif" font-size="10.00">U_UTILITAIRE::DisplayError</text>
</a>
</g>
</g>
<!-- Node10&#45;&gt;Node13 -->
<g id="edge15" class="edge">
<title>Node10&#45;&gt;Node13</title>
<path fill="none" stroke="midnightblue" d="M776.02,-372.99C807.16,-367.01 847.54,-359.26 880.43,-352.94"/>
<polygon fill="midnightblue" stroke="midnightblue" points="881.22,-356.35 890.38,-351.03 879.9,-349.48 881.22,-356.35"/>
</g>
<!-- Node14 -->
<g id="node14" class="node">
<title>Node14</title>
<g id="a_node14"><a xlink:href="class_u___u_t_i_l_i_t_a_i_r_e.html#aa177d472a3d1e5f03fdb24d9181ab9a9" target="_top" xlink:title="Popup error message displaying the function that failed associated with the error code.">
<polygon fill="none" stroke="black" points="1063,-313 1063,-332 1219,-332 1219,-313 1063,-313"/>
<text text-anchor="middle" x="1141" y="-320" font-family="Helvetica,sans-Serif" font-size="10.00">U_UTILITAIRE::DisplayMessage</text>
</a>
</g>
</g>
<!-- Node13&#45;&gt;Node14 -->
<g id="edge16" class="edge">
<title>Node13&#45;&gt;Node14</title>
<path fill="none" stroke="midnightblue" d="M1009.59,-335.01C1023.51,-333.68 1038.37,-332.25 1052.87,-330.86"/>
<polygon fill="midnightblue" stroke="midnightblue" points="1053.22,-334.34 1062.84,-329.9 1052.56,-327.38 1053.22,-334.34"/>
</g>
<!-- Node15 -->
<g id="node15" class="node">
<title>Node15</title>
<g id="a_node15"><a xlink:href="class_u___u_t_i_l_i_t_a_i_r_e.html#a20839968820f2161ef19972f7316a141" target="_top" xlink:title="Print error message in the terminal.">
<polygon fill="none" stroke="black" points="1255,-332 1255,-351 1399,-351 1399,-332 1255,-332"/>
<text text-anchor="middle" x="1327" y="-339" font-family="Helvetica,sans-Serif" font-size="10.00">U_UTILITAIRE::PrintMessage</text>
</a>
</g>
</g>
<!-- Node13&#45;&gt;Node15 -->
<g id="edge18" class="edge">
<title>Node13&#45;&gt;Node15</title>
<path fill="none" stroke="midnightblue" d="M1009.77,-341.5C1075.33,-341.5 1174.78,-341.5 1244.6,-341.5"/>
<polygon fill="midnightblue" stroke="midnightblue" points="1244.68,-345 1254.68,-341.5 1244.68,-338 1244.68,-345"/>
</g>
<!-- Node14&#45;&gt;Node15 -->
<g id="edge17" class="edge">
<title>Node14&#45;&gt;Node15</title>
<path fill="none" stroke="midnightblue" d="M1219.23,-330.48C1227.62,-331.34 1236.18,-332.23 1244.62,-333.1"/>
<polygon fill="midnightblue" stroke="midnightblue" points="1244.53,-336.61 1254.83,-334.15 1245.24,-329.64 1244.53,-336.61"/>
</g>
<!-- Node16&#45;&gt;Node4 -->
<g id="edge29" class="edge">
<title>Node16&#45;&gt;Node4</title>
<path fill="none" stroke="midnightblue" d="M310.78,-292.68C354.96,-315.6 438.09,-358.72 481.32,-381.14"/>
<polygon fill="midnightblue" stroke="midnightblue" points="479.92,-384.36 490.4,-385.85 483.14,-378.14 479.92,-384.36"/>
</g>
<!-- Node16&#45;&gt;Node13 -->
<g id="edge28" class="edge">
<title>Node16&#45;&gt;Node13</title>
<path fill="none" stroke="midnightblue" d="M356.11,-290.12C377.96,-293.66 401.91,-297.39 424,-300.5 516.2,-313.48 539.23,-317.52 632,-325.5 710.2,-332.22 799.83,-336.49 862.16,-338.91"/>
<polygon fill="midnightblue" stroke="midnightblue" points="862.19,-342.42 872.31,-339.3 862.45,-335.42 862.19,-342.42"/>
</g>
<!-- Node17 -->
<g id="node17" class="node">
<title>Node17</title>
<g id="a_node17"><a xlink:href="class_u___c_o_m_m_u_n_i_c_a_t_i_o_n.html#a3c8d63d47d80de606ed12566e913e2c2" target="_top" xlink:title="Creation of a thread pool used to create worker thread to check file signature.">
<polygon fill="none" stroke="black" points="435,-211.5 435,-241.5 585,-241.5 585,-211.5 435,-211.5"/>
<text text-anchor="start" x="443" y="-229.5" font-family="Helvetica,sans-Serif" font-size="10.00">U_COMMUNICATION::_Create</text>
<text text-anchor="middle" x="510" y="-218.5" font-family="Helvetica,sans-Serif" font-size="10.00">ThreadPool</text>
</a>
</g>
</g>
<!-- Node16&#45;&gt;Node17 -->
<g id="edge20" class="edge">
<title>Node16&#45;&gt;Node17</title>
<path fill="none" stroke="midnightblue" d="M348.53,-262.47C374.79,-256.59 405.08,-249.8 432.22,-243.71"/>
<polygon fill="midnightblue" stroke="midnightblue" points="433.07,-247.11 442.06,-241.51 431.54,-240.28 433.07,-247.11"/>
</g>
<!-- Node18 -->
<g id="node18" class="node">
<title>Node18</title>
<g id="a_node18"><a xlink:href="class_u___c_o_m_m_u_n_i_c_a_t_i_o_n.html#a87d0f531204d9141da9e181c20a18c59" target="_top" xlink:title="Worker thread used to check file signature.">
<polygon fill="none" stroke="black" points="433.5,-260.5 433.5,-290.5 586.5,-290.5 586.5,-260.5 433.5,-260.5"/>
<text text-anchor="start" x="441.5" y="-278.5" font-family="Helvetica,sans-Serif" font-size="10.00">U_COMMUNICATION::_Worker</text>
<text text-anchor="middle" x="510" y="-267.5" font-family="Helvetica,sans-Serif" font-size="10.00">Thread</text>
</a>
</g>
</g>
<!-- Node16&#45;&gt;Node18 -->
<g id="edge21" class="edge">
<title>Node16&#45;&gt;Node18</title>
<path fill="none" stroke="midnightblue" d="M356.31,-276.84C377.76,-276.65 401.31,-276.45 423.36,-276.25"/>
<polygon fill="midnightblue" stroke="midnightblue" points="423.4,-279.75 433.37,-276.16 423.34,-272.75 423.4,-279.75"/>
</g>
<!-- Node19 -->
<g id="node19" class="node">
<title>Node19</title>
<g id="a_node19"><a xlink:href="class_u___c_o_m_m_u_n_i_c_a_t_i_o_n.html#a6f2f0c62b6e4f1270d5c95c6e6521ee3" target="_top" xlink:title="Push a new message in the queue.">
<polygon fill="none" stroke="black" points="632,-236.5 632,-266.5 819,-266.5 819,-236.5 632,-236.5"/>
<text text-anchor="start" x="640" y="-254.5" font-family="Helvetica,sans-Serif" font-size="10.00">U_COMMUNICATION::_PumpMessage</text>
<text text-anchor="middle" x="725.5" y="-243.5" font-family="Helvetica,sans-Serif" font-size="10.00">InQueue</text>
</a>
</g>
</g>
<!-- Node18&#45;&gt;Node19 -->
<g id="edge22" class="edge">
<title>Node18&#45;&gt;Node19</title>
<path fill="none" stroke="midnightblue" d="M586.57,-267C598.01,-265.72 609.96,-264.38 621.85,-263.04"/>
<polygon fill="midnightblue" stroke="midnightblue" points="622.26,-266.51 631.81,-261.92 621.48,-259.56 622.26,-266.51"/>
</g>
<!-- Node20 -->
<g id="node20" class="node">
<title>Node20</title>
<g id="a_node20"><a xlink:href="class_u___c_o_m_m_u_n_i_c_a_t_i_o_n.html#ac7267746e2596819493bbf7fca1d4520" target="_top" xlink:title="Reply to the kernel driver.">
<polygon fill="none" stroke="black" points="652.5,-149 652.5,-168 798.5,-168 798.5,-149 652.5,-149"/>
<text text-anchor="middle" x="725.5" y="-156" font-family="Helvetica,sans-Serif" font-size="10.00">U_COMMUNICATION::_Reply</text>
</a>
</g>
</g>
<!-- Node18&#45;&gt;Node20 -->
<g id="edge24" class="edge">
<title>Node18&#45;&gt;Node20</title>
<path fill="none" stroke="midnightblue" d="M582.46,-260.42C587.3,-257.89 591.88,-254.94 596,-251.5 624.05,-228.03 603.11,-199.93 632,-177.5 635.42,-174.84 639.13,-172.53 643.01,-170.52"/>
<polygon fill="midnightblue" stroke="midnightblue" points="644.66,-173.62 652.38,-166.36 641.82,-167.22 644.66,-173.62"/>
</g>
<!-- Node21 -->
<g id="node21" class="node">
<title>Node21</title>
<g id="a_node21"><a xlink:href="class_u___u_t_i_l_i_t_a_i_r_e.html#adc2b6bd88871b96833fab5b34fb94d23" target="_top" xlink:title="Get the handle to a file by providing it&#39;s name.">
<polygon fill="none" stroke="black" points="649.5,-99.5 649.5,-129.5 801.5,-129.5 801.5,-99.5 649.5,-99.5"/>
<text text-anchor="start" x="657.5" y="-117.5" font-family="Helvetica,sans-Serif" font-size="10.00">U_UTILITAIRE::GetHandleFrom</text>
<text text-anchor="middle" x="725.5" y="-106.5" font-family="Helvetica,sans-Serif" font-size="10.00">FileName</text>
</a>
</g>
</g>
<!-- Node18&#45;&gt;Node21 -->
<g id="edge25" class="edge">
<title>Node18&#45;&gt;Node21</title>
<path fill="none" stroke="midnightblue" d="M584.24,-260.36C588.49,-257.84 592.47,-254.91 596,-251.5 633.63,-215.2 594.17,-175.59 632,-139.5 634.61,-137.01 637.43,-134.77 640.43,-132.74"/>
<polygon fill="midnightblue" stroke="midnightblue" points="642.38,-135.66 649.25,-127.59 638.85,-129.61 642.38,-135.66"/>
</g>
<!-- Node22 -->
<g id="node22" class="node">
<title>Node22</title>
<g id="a_node22"><a xlink:href="class_u___s_i_g_n_a_t_u_r_e.html#a4a2b43ca305cb41a3eab3b76d60cb6db" target="_top" xlink:title="Verify the signature of &#39;szFile&#39; by looking at catalogs files.">
<polygon fill="none" stroke="black" points="651.5,-285.5 651.5,-315.5 799.5,-315.5 799.5,-285.5 651.5,-285.5"/>
<text text-anchor="start" x="659.5" y="-303.5" font-family="Helvetica,sans-Serif" font-size="10.00">U_SIGNATURE::VerifyCatalog</text>
<text text-anchor="middle" x="725.5" y="-292.5" font-family="Helvetica,sans-Serif" font-size="10.00">Signature</text>
</a>
</g>
</g>
<!-- Node18&#45;&gt;Node22 -->
<g id="edge26" class="edge">
<title>Node18&#45;&gt;Node22</title>
<path fill="none" stroke="midnightblue" d="M586.57,-284.35C604.2,-286.41 623.08,-288.62 641.03,-290.73"/>
<polygon fill="midnightblue" stroke="midnightblue" points="640.84,-294.23 651.18,-291.91 641.66,-287.28 640.84,-294.23"/>
</g>
<!-- Node23 -->
<g id="node23" class="node">
<title>Node23</title>
<g id="a_node23"><a xlink:href="class_u___s_i_g_n_a_t_u_r_e.html#a08a76b9f115ae35af11c805c8a58ebb0" target="_top" xlink:title="Check if the file &quot;szFile&quot; is signed by a trusted authority.">
<polygon fill="none" stroke="black" points="645,-187.5 645,-217.5 806,-217.5 806,-187.5 645,-187.5"/>
<text text-anchor="start" x="653" y="-205.5" font-family="Helvetica,sans-Serif" font-size="10.00">U_SIGNATURE::VerifyEmbedded</text>
<text text-anchor="middle" x="725.5" y="-194.5" font-family="Helvetica,sans-Serif" font-size="10.00">Signature</text>
</a>
</g>
</g>
<!-- Node18&#45;&gt;Node23 -->
<g id="edge27" class="edge">
<title>Node18&#45;&gt;Node23</title>
<path fill="none" stroke="midnightblue" d="M573.11,-260.42C580.95,-257.81 588.76,-254.84 596,-251.5 613.47,-243.46 614.49,-235.45 632,-227.5 637.34,-225.08 642.96,-222.85 648.68,-220.81"/>
<polygon fill="midnightblue" stroke="midnightblue" points="650.02,-224.05 658.38,-217.54 647.79,-217.41 650.02,-224.05"/>
</g>
<!-- Node19&#45;&gt;Node13 -->
<g id="edge23" class="edge">
<title>Node19&#45;&gt;Node13</title>
<path fill="none" stroke="midnightblue" d="M789.83,-266.54C799.72,-269.48 809.73,-272.81 819,-276.5 854.21,-290.5 892.33,-312.17 916.18,-326.58"/>
<polygon fill="midnightblue" stroke="midnightblue" points="914.53,-329.68 924.88,-331.91 918.18,-323.7 914.53,-329.68"/>
</g>
<!-- Node24&#45;&gt;Node4 -->
<g id="edge36" class="edge">
<title>Node24&#45;&gt;Node4</title>
<path fill="none" stroke="midnightblue" d="M362.11,-242.02C371.22,-244.88 380.07,-248.62 388,-253.5 410.41,-267.28 407.22,-280.24 424,-300.5 447.12,-328.41 475.44,-359.49 492.85,-378.26"/>
<polygon fill="midnightblue" stroke="midnightblue" points="490.44,-380.8 499.81,-385.73 495.56,-376.03 490.44,-380.8"/>
</g>
<!-- Node25 -->
<g id="node25" class="node">
<title>Node25</title>
<g id="a_node25"><a xlink:href="class_u___c_o_m_m_u_n_i_c_a_t_i_o_n.html#a24b9f6b8b2ec28d44b96e46804ee7ddb" target="_top" xlink:title="Disconnect the client.">
<polygon fill="none" stroke="black" points="427.5,-173 427.5,-192 592.5,-192 592.5,-173 427.5,-173"/>
<text text-anchor="middle" x="510" y="-180" font-family="Helvetica,sans-Serif" font-size="10.00">U_COMMUNICATION::Disconnect</text>
</a>
</g>
</g>
<!-- Node24&#45;&gt;Node25 -->
<g id="edge31" class="edge">
<title>Node24&#45;&gt;Node25</title>
<path fill="none" stroke="midnightblue" d="M323.9,-223.97C352.24,-217.6 390.35,-209.04 424,-201.5 434.4,-199.17 445.51,-196.68 456.16,-194.3"/>
<polygon fill="midnightblue" stroke="midnightblue" points="457.2,-197.66 466.19,-192.06 455.67,-190.83 457.2,-197.66"/>
</g>
<!-- Node26 -->
<g id="node26" class="node">
<title>Node26</title>
<g id="a_node26"><a xlink:href="class_u___c_o_n_t_r_o_l_l_e_r.html#a32bed2bf85d659bbaff8e1d3fcafa42e" target="_top" xlink:title="Stop the service &quot;szServiceName&quot;.">
<polygon fill="none" stroke="black" points="434.5,-135 434.5,-154 585.5,-154 585.5,-135 434.5,-135"/>
<text text-anchor="middle" x="510" y="-142" font-family="Helvetica,sans-Serif" font-size="10.00">U_CONTROLLER::StopService</text>
</a>
</g>
</g>
<!-- Node24&#45;&gt;Node26 -->
<g id="edge32" class="edge">
<title>Node24&#45;&gt;Node26</title>
<path fill="none" stroke="midnightblue" d="M354.9,-223.95C366.52,-220.51 377.99,-215.83 388,-209.5 409.94,-195.62 402.05,-177.36 424,-163.5 427.36,-161.38 430.92,-159.5 434.61,-157.82"/>
<polygon fill="midnightblue" stroke="midnightblue" points="436.01,-161.03 444,-154.07 433.41,-154.53 436.01,-161.03"/>
</g>
<!-- Node24&#45;&gt;Node28 -->
<g id="edge37" class="edge">
<title>Node24&#45;&gt;Node28</title>
<path fill="none" stroke="midnightblue" d="M362.17,-224.07C371.53,-220.53 380.42,-215.8 388,-209.5 419.23,-183.53 392.75,-151.45 424,-125.5 426.04,-123.81 428.19,-122.26 430.44,-120.84"/>
<polygon fill="midnightblue" stroke="midnightblue" points="432.34,-123.8 439.52,-116 429.05,-117.62 432.34,-123.8"/>
</g>
<!-- Node26&#45;&gt;Node11 -->
<g id="edge33" class="edge">
<title>Node26&#45;&gt;Node11</title>
<path fill="none" stroke="midnightblue" d="M573.33,-134.89C581.22,-132.44 588.98,-129.36 596,-125.5 615.83,-114.6 611.37,-98.8 632,-89.5 703.4,-57.32 793.68,-55.69 858,-60.22"/>
<polygon fill="midnightblue" stroke="midnightblue" points="857.86,-63.72 868.1,-61 858.4,-56.74 857.86,-63.72"/>
</g>
<!-- Node27 -->
<g id="node27" class="node">
<title>Node27</title>
<g id="a_node27"><a xlink:href="class_u___c_o_n_t_r_o_l_l_e_r.html#af55beae6c2742cab857466b32140a5dd" target="_top" xlink:title="Query the service &quot;szServiceName&quot; and return its state.">
<polygon fill="none" stroke="black" points="652.5,-11.5 652.5,-41.5 798.5,-41.5 798.5,-11.5 652.5,-11.5"/>
<text text-anchor="start" x="660.5" y="-29.5" font-family="Helvetica,sans-Serif" font-size="10.00">U_CONTROLLER::GetService</text>
<text text-anchor="middle" x="725.5" y="-18.5" font-family="Helvetica,sans-Serif" font-size="10.00">State</text>
</a>
</g>
</g>
<!-- Node26&#45;&gt;Node27 -->
<g id="edge34" class="edge">
<title>Node26&#45;&gt;Node27</title>
<path fill="none" stroke="midnightblue" d="M579.33,-134.98C585.29,-132.48 590.96,-129.37 596,-125.5 623.43,-104.43 605.58,-78.83 632,-56.5 636.63,-52.59 641.77,-49.19 647.2,-46.23"/>
<polygon fill="midnightblue" stroke="midnightblue" points="649.12,-49.18 656.56,-41.65 646.04,-42.9 649.12,-49.18"/>
</g>
<!-- Node27&#45;&gt;Node11 -->
<g id="edge35" class="edge">
<title>Node27&#45;&gt;Node11</title>
<path fill="none" stroke="midnightblue" d="M798.78,-41.4C826.44,-47.1 857.56,-53.51 883.53,-58.86"/>
<polygon fill="midnightblue" stroke="midnightblue" points="883.08,-62.34 893.58,-60.93 884.5,-55.49 883.08,-62.34"/>
</g>
</g>
</svg>
        <g id="navigator" transform="translate(0 0)" fill="#404254">
                <rect fill="#f2f5e9" fill-opacity="0.5" stroke="#606060" stroke-width=".5" x="0" y="0" width="60" height="60"/>
                <use id="zoomplus" xlink:href="#zoomPlus" x="17" y="9" onmousedown="handleZoom(evt,'in')"/>
                <use id="zoomminus" xlink:href="#zoomMin" x="42" y="9" onmousedown="handleZoom(evt,'out')"/>
                <use id="reset" xlink:href="#resetDef" x="30" y="36" onmousedown="handleReset()"/>
                <g id="arrowUp" xlink:href="#dirArrow" transform="translate(30 24)" onmousedown="handlePan(0,-1)">
                  <use xlink:href="#rim" fill="#404040">
                        <set attributeName="fill" to="#808080" begin="arrowUp.mouseover" end="arrowUp.mouseout"/>
                  </use>
                  <path fill="none" stroke="white" stroke-width="1.5" d="M0,-3.0v7 M-2.5,-0.5L0,-3.0L2.5,-0.5"/>
                </g>
                <g id="arrowRight" xlink:href="#dirArrow" transform="rotate(90) translate(36 -43)" onmousedown="handlePan(1,0)">
                  <use xlink:href="#rim" fill="#404040">
                        <set attributeName="fill" to="#808080" begin="arrowRight.mouseover" end="arrowRight.mouseout"/>
                  </use>
                  <path fill="none" stroke="white" stroke-width="1.5" d="M0,-3.0v7 M-2.5,-0.5L0,-3.0L2.5,-0.5"/>
                </g>
                <g id="arrowDown" xlink:href="#dirArrow" transform="rotate(180) translate(-30 -48)" onmousedown="handlePan(0,1)">
                  <use xlink:href="#rim" fill="#404040">
                        <set attributeName="fill" to="#808080" begin="arrowDown.mouseover" end="arrowDown.mouseout"/>
                  </use>
                  <path fill="none" stroke="white" stroke-width="1.5" d="M0,-3.0v7 M-2.5,-0.5L0,-3.0L2.5,-0.5"/>
                </g>
                <g id="arrowLeft" xlink:href="#dirArrow" transform="rotate(270) translate(-36 17)" onmousedown="handlePan(-1,0)">
                  <use xlink:href="#rim" fill="#404040">
                        <set attributeName="fill" to="#808080" begin="arrowLeft.mouseover" end="arrowLeft.mouseout"/>
                  </use>
                  <path fill="none" stroke="white" stroke-width="1.5" d="M0,-3.0v7 M-2.5,-0.5L0,-3.0L2.5,-0.5"/>
                </g>
        </g>
        <svg viewBox="0 0 15 15" width="100%" height="30px" preserveAspectRatio="xMaxYMin meet">
         <g id="arrow_out" transform="scale(0.3 0.3)">
          <a xlink:href="_u___service_8cpp_afa2e3daf278842db7a49d41ebebc8519_cgraph_org.svg" target="_base">
           <rect id="button" ry="5" rx="5" y="6" x="6" height="38" width="38"
                fill="#f2f5e9" fill-opacity="0.5" stroke="#606060" stroke-width="1.0"/>
           <path id="arrow"
             d="M 11.500037,31.436501 C 11.940474,20.09759 22.043105,11.32322 32.158766,21.979434 L 37.068811,17.246167 C 37.068811,17.246167 37.088388,32 37.088388,32 L 22.160133,31.978069 C 22.160133,31.978069 26.997745,27.140456 26.997745,27.140456 C 18.528582,18.264221 13.291696,25.230495 11.500037,31.436501 z"
             style="fill:#404040;"/>
          </a>
         </g>
        </svg>
</svg>
