<?xml version="1.0" encoding="UTF-8" standalone="no"?>
<!DOCTYPE svg PUBLIC "-//W3C//DTD SVG 1.1//EN"
 "http://www.w3.org/Graphics/SVG/1.1/DTD/svg11.dtd">
<!-- Generated by graphviz version 4.0.0 (20220529.0937)
 -->
<!-- Title: Install Pages: 1 -->
<!--zoomable 395 -->
<svg id="main" version="1.1" xmlns="http://www.w3.org/2000/svg" xmlns:xlink="http://www.w3.org/1999/xlink" xml:space="preserve" onload="init(evt)">
<style type="text/css"><![CDATA[
.edge:hover path { stroke: red; }
.edge:hover polygon { stroke: red; fill: red; }
]]></style>
<script type="text/javascript"><![CDATA[
var edges = document.getElementsByTagName('g');
if (edges && edges.length) {
  for (var i=0;i<edges.length;i++) {
    if (edges[i].id.substr(0,4)=='edge') {
      edges[i].setAttribute('class','edge');
    }
  }
}
]]></script>
        <defs>
                <circle id="rim" cx="0" cy="0" r="7"/>
                <circle id="rim2" cx="0" cy="0" r="3.5"/>
                <g id="zoomPlus">
                        <use xlink:href="#rim" fill="#404040">
                                <set attributeName="fill" to="#808080" begin="zoomplus.mouseover" end="zoomplus.mouseout"/>
                        </use>
                        <path d="M-4,0h8M0,-4v8" fill="none" stroke="white" stroke-width="1.5" pointer-events="none"/>
                </g>
                <g id="zoomMin">
                        <use xlink:href="#rim" fill="#404040">
                                <set attributeName="fill" to="#808080" begin="zoomminus.mouseover" end="zoomminus.mouseout"/>
                        </use>
                        <path d="M-4,0h8" fill="none" stroke="white" stroke-width="1.5" pointer-events="none"/>
                </g>
                <g id="dirArrow">
                        <path fill="none" stroke="white" stroke-width="1.5" d="M0,-3.0v7 M-2.5,-0.5L0,-3.0L2.5,-0.5"/>
                </g>
               <g id="resetDef">
                       <use xlink:href="#rim2" fill="#404040">
                               <set attributeName="fill" to="#808080" begin="reset.mouseover" end="reset.mouseout"/>
                       </use>
               </g>
        </defs>

<script type="text/javascript">
var viewWidth = 1002;
var viewHeight = 395;
var sectionId = 'dynsection-4';
</script>
<script xlink:href="svgpan.js"/>
<svg id="graph" class="graph">
<g id="viewport">
<title>Install</title>
<!-- Node1 -->
<g id="node1" class="node">
<title>Node1</title>
<g id="a_node1"><a xlink:title="Wrap the installation of the service.">
<polygon fill="#bfbfbf" stroke="black" points="0,-192.5 0,-211.5 42,-211.5 42,-192.5 0,-192.5"/>
<text text-anchor="middle" x="21" y="-199.5" font-family="Helvetica,sans-Serif" font-size="10.00">Install</text>
</a>
</g>
</g>
<!-- Node2 -->
<g id="node2" class="node">
<title>Node2</title>
<g id="a_node2"><a xlink:href="class_u___c_o_n_t_r_o_l_l_e_r.html#a81c82381327f2e86e44e97bd330f2796" target="_top" xlink:title="Install the service &quot;szServiceName&quot;.">
<polygon fill="none" stroke="black" points="288,-236.5 288,-255.5 444,-255.5 444,-236.5 288,-236.5"/>
<text text-anchor="middle" x="366" y="-243.5" font-family="Helvetica,sans-Serif" font-size="10.00">U_CONTROLLER::InstallService</text>
</a>
</g>
</g>
<!-- Node1&#45;&gt;Node2 -->
<g id="edge1" class="edge">
<title>Node1&#45;&gt;Node2</title>
<path fill="none" stroke="midnightblue" d="M42.07,-207.75C52.68,-210.6 65.96,-213.88 78,-216 144.56,-227.74 220.66,-235.44 277.77,-240.09"/>
<polygon fill="midnightblue" stroke="midnightblue" points="277.6,-243.59 287.85,-240.9 278.16,-236.61 277.6,-243.59"/>
</g>
<!-- Node6 -->
<g id="node6" class="node">
<title>Node6</title>
<g id="a_node6"><a xlink:href="class_u___l_o_g_s.html#a0f2932b79fce103453dd1cfc60de2007" target="_top" xlink:title="Send the reported event in the Event Viewer (Application &#45;&gt; PI&#45;Defender_UM).">
<polygon fill="none" stroke="black" points="864,-66.5 864,-85.5 994,-85.5 994,-66.5 864,-66.5"/>
<text text-anchor="middle" x="929" y="-73.5" font-family="Helvetica,sans-Serif" font-size="10.00">U_LOGS::SvcReportEvent</text>
</a>
</g>
</g>
<!-- Node1&#45;&gt;Node6 -->
<g id="edge30" class="edge">
<title>Node1&#45;&gt;Node6</title>
<path fill="none" stroke="midnightblue" d="M25.51,-192.34C32.63,-173.99 50.48,-133.9 78,-111 183.12,-23.51 228.24,0 365,0 365,0 365,0 567,0 684.29,0 714.4,-9.83 828,-39 851.62,-45.07 877.41,-54.69 896.89,-62.6"/>
<polygon fill="midnightblue" stroke="midnightblue" points="895.6,-65.85 906.18,-66.44 898.27,-59.38 895.6,-65.85"/>
</g>
<!-- Node10 -->
<g id="node10" class="node">
<title>Node10</title>
<g id="a_node10"><a xlink:href="class_u___c_o_n_t_r_o_l_l_e_r.html#ab1f13df84b5c2eaa78de41718b01029a" target="_top" xlink:title="Check if the service is already installed.">
<polygon fill="none" stroke="black" points="78,-272.5 78,-291.5 252,-291.5 252,-272.5 78,-272.5"/>
<text text-anchor="middle" x="165" y="-279.5" font-family="Helvetica,sans-Serif" font-size="10.00">U_CONTROLLER::IsServiceInstalled</text>
</a>
</g>
</g>
<!-- Node1&#45;&gt;Node10 -->
<g id="edge11" class="edge">
<title>Node1&#45;&gt;Node10</title>
<path fill="none" stroke="midnightblue" d="M29.26,-211.63C39.02,-223.92 57.54,-245.02 78,-257 86.55,-262.01 96.18,-266.07 105.82,-269.35"/>
<polygon fill="midnightblue" stroke="midnightblue" points="104.82,-272.71 115.41,-272.38 106.93,-266.03 104.82,-272.71"/>
</g>
<!-- Node11 -->
<g id="node11" class="node">
<title>Node11</title>
<g id="a_node11"><a xlink:href="class_u___c_o_n_f_i_g_u_r_a_t_i_o_n.html#a17aa0c6d783b391a5b324d26c562ac15" target="_top" xlink:title="Create registry keys needed for the driver configuration.">
<polygon fill="none" stroke="black" points="290,-187 290,-217 442,-217 442,-187 290,-187"/>
<text text-anchor="start" x="298" y="-205" font-family="Helvetica,sans-Serif" font-size="10.00">U_CONFIGURATION::SetDriver</text>
<text text-anchor="middle" x="366" y="-194" font-family="Helvetica,sans-Serif" font-size="10.00">Configuration</text>
</a>
</g>
</g>
<!-- Node1&#45;&gt;Node11 -->
<g id="edge13" class="edge">
<title>Node1&#45;&gt;Node11</title>
<path fill="none" stroke="midnightblue" d="M42.43,-202C87.98,-202 200.07,-202 279.28,-202"/>
<polygon fill="midnightblue" stroke="midnightblue" points="279.74,-205.5 289.74,-202 279.74,-198.5 279.74,-205.5"/>
</g>
<!-- Node13 -->
<g id="node13" class="node">
<title>Node13</title>
<g id="a_node13"><a xlink:href="class_u___c_o_n_f_i_g_u_r_a_t_i_o_n.html#adf54f299b42ec1596e92f49cb640d3ba" target="_top" xlink:title="Create registry keys needed for the service configuration.">
<polygon fill="none" stroke="black" points="85,-121 85,-151 245,-151 245,-121 85,-121"/>
<text text-anchor="start" x="93" y="-139" font-family="Helvetica,sans-Serif" font-size="10.00">U_CONFIGURATION::SetService</text>
<text text-anchor="middle" x="165" y="-128" font-family="Helvetica,sans-Serif" font-size="10.00">Configuration</text>
</a>
</g>
</g>
<!-- Node1&#45;&gt;Node13 -->
<g id="edge19" class="edge">
<title>Node1&#45;&gt;Node13</title>
<path fill="none" stroke="midnightblue" d="M42.04,-192.68C62.74,-183.06 95.65,-167.77 122.07,-155.49"/>
<polygon fill="midnightblue" stroke="midnightblue" points="123.88,-158.5 131.48,-151.12 120.93,-152.16 123.88,-158.5"/>
</g>
<!-- Node3 -->
<g id="node3" class="node">
<title>Node3</title>
<g id="a_node3"><a xlink:href="class_u___c_o_n_t_r_o_l_l_e_r.html#a65733b52c6801a89b0c12d7836feef9c" target="_top" xlink:title="Get a handle to the Service Controller Database.">
<polygon fill="none" stroke="black" points="480,-367.5 480,-386.5 652,-386.5 652,-367.5 480,-367.5"/>
<text text-anchor="middle" x="566" y="-374.5" font-family="Helvetica,sans-Serif" font-size="10.00">U_CONTROLLER::_GetSCMHandle</text>
</a>
</g>
</g>
<!-- Node2&#45;&gt;Node3 -->
<g id="edge2" class="edge">
<title>Node2&#45;&gt;Node3</title>
<path fill="none" stroke="midnightblue" d="M377.9,-255.53C393,-268.82 421.01,-293.77 444,-316 460.5,-331.95 460.29,-341.26 480,-353 487.66,-357.56 496.22,-361.29 504.88,-364.32"/>
<polygon fill="midnightblue" stroke="midnightblue" points="504.07,-367.74 514.66,-367.47 506.21,-361.07 504.07,-367.74"/>
</g>
<!-- Node4 -->
<g id="node4" class="node">
<title>Node4</title>
<g id="a_node4"><a xlink:href="class_u___r_e_g_i_s_t_r_y.html#acb3aa163feb4caa0bbd10c41579ff78a" target="_top" xlink:title="Create the registry key &quot;szSubKey&quot; located in the HIVE &quot;hKeyParent&quot;.">
<polygon fill="none" stroke="black" points="483.5,-104.5 483.5,-123.5 648.5,-123.5 648.5,-104.5 483.5,-104.5"/>
<text text-anchor="middle" x="566" y="-111.5" font-family="Helvetica,sans-Serif" font-size="10.00">U_REGISTRY::CreateRegistryKey</text>
</a>
</g>
</g>
<!-- Node2&#45;&gt;Node4 -->
<g id="edge3" class="edge">
<title>Node2&#45;&gt;Node4</title>
<path fill="none" stroke="midnightblue" d="M427.48,-236.41C433.49,-233.73 439.15,-230.32 444,-226 477.09,-196.52 446.41,-161.91 480,-133 481.96,-131.32 484.03,-129.77 486.19,-128.36"/>
<polygon fill="midnightblue" stroke="midnightblue" points="487.89,-131.42 494.95,-123.52 484.51,-125.29 487.89,-131.42"/>
</g>
<!-- Node5 -->
<g id="node5" class="node">
<title>Node5</title>
<g id="a_node5"><a xlink:href="class_u___u_t_i_l_i_t_a_i_r_e.html#a96db4752f1f9917f495d28c520320c88" target="_top" xlink:title="Get the current folder of the binary responsible for the launch of the service.">
<polygon fill="none" stroke="black" points="692.5,-105 692.5,-135 823.5,-135 823.5,-105 692.5,-105"/>
<text text-anchor="start" x="700.5" y="-123" font-family="Helvetica,sans-Serif" font-size="10.00">U_UTILITAIRE::GetCurrent</text>
<text text-anchor="middle" x="758" y="-112" font-family="Helvetica,sans-Serif" font-size="10.00">Folder</text>
</a>
</g>
</g>
<!-- Node2&#45;&gt;Node5 -->
<g id="edge4" class="edge">
<title>Node2&#45;&gt;Node5</title>
<path fill="none" stroke="midnightblue" d="M416.26,-255.52C475.92,-264.45 577.66,-271.12 652,-231 675.78,-218.17 669.85,-202.02 688,-182 700.99,-167.67 716.97,-153.14 730.28,-141.76"/>
<polygon fill="midnightblue" stroke="midnightblue" points="732.79,-144.22 738.18,-135.1 728.27,-138.87 732.79,-144.22"/>
</g>
<!-- Node2&#45;&gt;Node6 -->
<g id="edge6" class="edge">
<title>Node2&#45;&gt;Node6</title>
<path fill="none" stroke="midnightblue" d="M377.15,-255.68C395.74,-272.67 437.3,-307.26 480,-320 553.25,-341.85 577.64,-337.73 652,-320 737.26,-299.67 762.86,-289.65 828,-231 872.47,-190.96 905.31,-126.78 919.79,-95.04"/>
<polygon fill="midnightblue" stroke="midnightblue" points="923.12,-96.16 923.99,-85.6 916.73,-93.32 923.12,-96.16"/>
</g>
<!-- Node7 -->
<g id="node7" class="node">
<title>Node7</title>
<g id="a_node7"><a xlink:href="class_u___r_e_g_i_s_t_r_y.html#ac826205b4627137b899c1e0066b3fb9a" target="_top" xlink:title="Write DWORD in the registry key &quot;szSubKey&quot; located in the HIVE &quot;hKeyParent&quot;.">
<polygon fill="none" stroke="black" points="495.5,-143 495.5,-173 636.5,-173 636.5,-143 495.5,-143"/>
<text text-anchor="start" x="503.5" y="-161" font-family="Helvetica,sans-Serif" font-size="10.00">U_REGISTRY::WriteDwordIn</text>
<text text-anchor="middle" x="566" y="-150" font-family="Helvetica,sans-Serif" font-size="10.00">Registry</text>
</a>
</g>
</g>
<!-- Node2&#45;&gt;Node7 -->
<g id="edge7" class="edge">
<title>Node2&#45;&gt;Node7</title>
<path fill="none" stroke="midnightblue" d="M421.83,-236.37C429.61,-233.71 437.25,-230.32 444,-226 465.28,-212.37 458.87,-195.85 480,-182 482.46,-180.38 485.04,-178.88 487.69,-177.47"/>
<polygon fill="midnightblue" stroke="midnightblue" points="489.44,-180.51 496.97,-173.06 486.43,-174.19 489.44,-180.51"/>
</g>
<!-- Node9 -->
<g id="node9" class="node">
<title>Node9</title>
<g id="a_node9"><a xlink:href="class_u___r_e_g_i_s_t_r_y.html#aa82742460b375f1fbd9534cd8f845bd0" target="_top" xlink:title="Write STRING in the registry key &quot;szSubKey&quot; located in the HIVE &quot;hKeyParent&quot;.">
<polygon fill="none" stroke="black" points="496,-192 496,-222 636,-222 636,-192 496,-192"/>
<text text-anchor="start" x="504" y="-210" font-family="Helvetica,sans-Serif" font-size="10.00">U_REGISTRY::WriteStringIn</text>
<text text-anchor="middle" x="566" y="-199" font-family="Helvetica,sans-Serif" font-size="10.00">Registry</text>
</a>
</g>
</g>
<!-- Node2&#45;&gt;Node9 -->
<g id="edge9" class="edge">
<title>Node2&#45;&gt;Node9</title>
<path fill="none" stroke="midnightblue" d="M415.44,-236.46C436.57,-232.3 461.91,-227.3 485.68,-222.62"/>
<polygon fill="midnightblue" stroke="midnightblue" points="486.62,-226.01 495.75,-220.64 485.26,-219.14 486.62,-226.01"/>
</g>
<!-- Node5&#45;&gt;Node6 -->
<g id="edge5" class="edge">
<title>Node5&#45;&gt;Node6</title>
<path fill="none" stroke="midnightblue" d="M816.69,-104.98C837.87,-99.46 861.57,-93.3 881.63,-88.07"/>
<polygon fill="midnightblue" stroke="midnightblue" points="882.67,-91.42 891.46,-85.51 880.9,-84.64 882.67,-91.42"/>
</g>
<!-- Node8 -->
<g id="node8" class="node">
<title>Node8</title>
<g id="a_node8"><a xlink:href="class_u___r_e_g_i_s_t_r_y.html#aa3f355ae1e9c7c1f9db8496d25ac1f7d" target="_top" xlink:title="Write data in the registry key &quot;szSubKey&quot; located in the HIVE &quot;hKeyParent&quot;.">
<polygon fill="none" stroke="black" points="688,-192 688,-222 828,-222 828,-192 688,-192"/>
<text text-anchor="start" x="696" y="-210" font-family="Helvetica,sans-Serif" font-size="10.00">U_REGISTRY::_WriteDataIn</text>
<text text-anchor="middle" x="758" y="-199" font-family="Helvetica,sans-Serif" font-size="10.00">Registry</text>
</a>
</g>
</g>
<!-- Node7&#45;&gt;Node8 -->
<g id="edge8" class="edge">
<title>Node7&#45;&gt;Node8</title>
<path fill="none" stroke="midnightblue" d="M625.3,-173.03C645.45,-178.23 668.21,-184.1 689.06,-189.48"/>
<polygon fill="midnightblue" stroke="midnightblue" points="688.26,-192.89 698.81,-191.99 690,-186.11 688.26,-192.89"/>
</g>
<!-- Node9&#45;&gt;Node8 -->
<g id="edge10" class="edge">
<title>Node9&#45;&gt;Node8</title>
<path fill="none" stroke="midnightblue" d="M636.13,-207C649.71,-207 664.05,-207 677.92,-207"/>
<polygon fill="midnightblue" stroke="midnightblue" points="677.92,-210.5 687.92,-207 677.92,-203.5 677.92,-210.5"/>
</g>
<!-- Node10&#45;&gt;Node3 -->
<g id="edge12" class="edge">
<title>Node10&#45;&gt;Node3</title>
<path fill="none" stroke="midnightblue" d="M206.08,-291.54C279.43,-309.01 435.02,-346.05 515.1,-365.12"/>
<polygon fill="midnightblue" stroke="midnightblue" points="514.4,-368.55 524.94,-367.46 516.02,-361.74 514.4,-368.55"/>
</g>
<!-- Node11&#45;&gt;Node4 -->
<g id="edge14" class="edge">
<title>Node11&#45;&gt;Node4</title>
<path fill="none" stroke="midnightblue" d="M387.15,-186.86C408.95,-171.17 445.26,-147.04 480,-133 486.31,-130.45 493.03,-128.21 499.82,-126.25"/>
<polygon fill="midnightblue" stroke="midnightblue" points="501.03,-129.55 509.78,-123.57 499.21,-122.79 501.03,-129.55"/>
</g>
<!-- Node11&#45;&gt;Node7 -->
<g id="edge15" class="edge">
<title>Node11&#45;&gt;Node7</title>
<path fill="none" stroke="midnightblue" d="M434.59,-186.98C451.54,-183.21 469.86,-179.14 487.26,-175.28"/>
<polygon fill="midnightblue" stroke="midnightblue" points="488.38,-178.61 497.38,-173.03 486.86,-171.78 488.38,-178.61"/>
</g>
<!-- Node11&#45;&gt;Node9 -->
<g id="edge18" class="edge">
<title>Node11&#45;&gt;Node9</title>
<path fill="none" stroke="midnightblue" d="M442.14,-203.9C456.31,-204.26 471.18,-204.63 485.48,-204.99"/>
<polygon fill="midnightblue" stroke="midnightblue" points="485.69,-208.5 495.78,-205.25 485.87,-201.5 485.69,-208.5"/>
</g>
<!-- Node12 -->
<g id="node12" class="node">
<title>Node12</title>
<g id="a_node12"><a xlink:href="class_u___r_e_g_i_s_t_r_y.html#a46f7e87b2a43abab3f86a367c4ca4c8c" target="_top" xlink:title="Write MULTI_SZ STRING in the registry key &quot;szSubKey&quot; located in the HIVE &quot;hKeyParent&quot;.">
<polygon fill="none" stroke="black" points="489.5,-280 489.5,-310 642.5,-310 642.5,-280 489.5,-280"/>
<text text-anchor="start" x="497.5" y="-298" font-family="Helvetica,sans-Serif" font-size="10.00">U_REGISTRY::WriteMultiString</text>
<text text-anchor="middle" x="566" y="-287" font-family="Helvetica,sans-Serif" font-size="10.00">InRegistry</text>
</a>
</g>
</g>
<!-- Node11&#45;&gt;Node12 -->
<g id="edge16" class="edge">
<title>Node11&#45;&gt;Node12</title>
<path fill="none" stroke="midnightblue" d="M418.07,-217C426.83,-220.02 435.76,-223.39 444,-227 475.12,-240.63 508.66,-259.88 532.52,-274.41"/>
<polygon fill="midnightblue" stroke="midnightblue" points="530.81,-277.47 541.16,-279.73 534.48,-271.51 530.81,-277.47"/>
</g>
<!-- Node12&#45;&gt;Node8 -->
<g id="edge17" class="edge">
<title>Node12&#45;&gt;Node8</title>
<path fill="none" stroke="midnightblue" d="M614.31,-279.86C626.73,-275.46 640.01,-270.38 652,-265 676.71,-253.91 703.42,-239.11 723.72,-227.24"/>
<polygon fill="midnightblue" stroke="midnightblue" points="725.73,-230.12 732.56,-222.02 722.17,-224.09 725.73,-230.12"/>
</g>
<!-- Node13&#45;&gt;Node4 -->
<g id="edge28" class="edge">
<title>Node13&#45;&gt;Node4</title>
<path fill="none" stroke="midnightblue" d="M196.17,-120.78C220.32,-109.49 255.42,-95.06 288,-89 356.16,-76.32 375.03,-81.95 444,-89 457.43,-90.37 486.93,-96.44 513.43,-102.26"/>
<polygon fill="midnightblue" stroke="midnightblue" points="512.88,-105.72 523.4,-104.46 514.39,-98.89 512.88,-105.72"/>
</g>
<!-- Node13&#45;&gt;Node7 -->
<g id="edge29" class="edge">
<title>Node13&#45;&gt;Node7</title>
<path fill="none" stroke="midnightblue" d="M245.31,-140.37C314.84,-144.21 415.43,-149.75 485.13,-153.6"/>
<polygon fill="midnightblue" stroke="midnightblue" points="485,-157.09 495.18,-154.15 485.39,-150.11 485,-157.09"/>
</g>
<!-- Node14 -->
<g id="node14" class="node">
<title>Node14</title>
<g id="a_node14"><a xlink:href="class_u___c_o_n_f_i_g_u_r_a_t_i_o_n.html#ac15b37425890a19a5de6664a2f5b2320" target="_top" xlink:title="Create all the registry keys needed for ETW Logs.">
<polygon fill="none" stroke="black" points="292.5,-99 292.5,-129 439.5,-129 439.5,-99 292.5,-99"/>
<text text-anchor="start" x="300.5" y="-117" font-family="Helvetica,sans-Serif" font-size="10.00">U_CONFIGURATION::_Create</text>
<text text-anchor="middle" x="366" y="-106" font-family="Helvetica,sans-Serif" font-size="10.00">RegistryForLogs</text>
</a>
</g>
</g>
<!-- Node13&#45;&gt;Node14 -->
<g id="edge20" class="edge">
<title>Node13&#45;&gt;Node14</title>
<path fill="none" stroke="midnightblue" d="M245.22,-127.24C257.33,-125.9 269.86,-124.52 282.05,-123.17"/>
<polygon fill="midnightblue" stroke="midnightblue" points="282.63,-126.63 292.19,-122.05 281.86,-119.67 282.63,-126.63"/>
</g>
<!-- Node14&#45;&gt;Node4 -->
<g id="edge21" class="edge">
<title>Node14&#45;&gt;Node4</title>
<path fill="none" stroke="midnightblue" d="M439.6,-114C450.5,-114 461.87,-114 473.1,-114"/>
<polygon fill="midnightblue" stroke="midnightblue" points="473.37,-117.5 483.37,-114 473.37,-110.5 473.37,-117.5"/>
</g>
<!-- Node14&#45;&gt;Node6 -->
<g id="edge25" class="edge">
<title>Node14&#45;&gt;Node6</title>
<path fill="none" stroke="midnightblue" d="M389.15,-98.87C411.1,-84.86 446.23,-65.04 480,-57 619.55,-23.8 790.3,-48.23 875.05,-64.54"/>
<polygon fill="midnightblue" stroke="midnightblue" points="874.46,-67.99 884.95,-66.48 875.81,-61.12 874.46,-67.99"/>
</g>
<!-- Node14&#45;&gt;Node7 -->
<g id="edge26" class="edge">
<title>Node14&#45;&gt;Node7</title>
<path fill="none" stroke="midnightblue" d="M434.59,-129.02C451.54,-132.79 469.86,-136.86 487.26,-140.72"/>
<polygon fill="midnightblue" stroke="midnightblue" points="486.86,-144.22 497.38,-142.97 488.38,-137.39 486.86,-144.22"/>
</g>
<!-- Node14&#45;&gt;Node9 -->
<g id="edge27" class="edge">
<title>Node14&#45;&gt;Node9</title>
<path fill="none" stroke="midnightblue" d="M388.19,-129.02C410.26,-144.1 446.25,-167.17 480,-182 485.32,-184.34 490.93,-186.53 496.61,-188.57"/>
<polygon fill="midnightblue" stroke="midnightblue" points="495.63,-191.93 506.22,-191.86 497.89,-185.31 495.63,-191.93"/>
</g>
<!-- Node15 -->
<g id="node15" class="node">
<title>Node15</title>
<g id="a_node15"><a xlink:href="class_u___u_t_i_l_i_t_a_i_r_e.html#a13ad12137e1edc6873eeac1b4848194e" target="_top" xlink:title="Get the full DOS Path of the message DLL associated with the binary.">
<polygon fill="none" stroke="black" points="492.5,-66.5 492.5,-85.5 639.5,-85.5 639.5,-66.5 492.5,-66.5"/>
<text text-anchor="middle" x="566" y="-73.5" font-family="Helvetica,sans-Serif" font-size="10.00">U_UTILITAIRE::GetDllFullPath</text>
</a>
</g>
</g>
<!-- Node14&#45;&gt;Node15 -->
<g id="edge22" class="edge">
<title>Node14&#45;&gt;Node15</title>
<path fill="none" stroke="midnightblue" d="M439.6,-100.07C461.23,-95.92 484.67,-91.42 505.36,-87.45"/>
<polygon fill="midnightblue" stroke="midnightblue" points="506.12,-90.86 515.28,-85.54 504.8,-83.99 506.12,-90.86"/>
</g>
<!-- Node15&#45;&gt;Node5 -->
<g id="edge23" class="edge">
<title>Node15&#45;&gt;Node5</title>
<path fill="none" stroke="midnightblue" d="M610.27,-85.55C623.65,-88.54 638.44,-91.87 652,-95 662.55,-97.44 673.7,-100.05 684.62,-102.63"/>
<polygon fill="midnightblue" stroke="midnightblue" points="684.03,-106.09 694.57,-104.99 685.65,-99.27 684.03,-106.09"/>
</g>
<!-- Node15&#45;&gt;Node6 -->
<g id="edge24" class="edge">
<title>Node15&#45;&gt;Node6</title>
<path fill="none" stroke="midnightblue" d="M639.62,-76C701.84,-76 791.06,-76 853.75,-76"/>
<polygon fill="midnightblue" stroke="midnightblue" points="853.96,-79.5 863.96,-76 853.96,-72.5 853.96,-79.5"/>
</g>
</g>
</svg>
        <g id="navigator" transform="translate(0 0)" fill="#404254">
                <rect fill="#f2f5e9" fill-opacity="0.5" stroke="#606060" stroke-width=".5" x="0" y="0" width="60" height="60"/>
                <use id="zoomplus" xlink:href="#zoomPlus" x="17" y="9" onmousedown="handleZoom(evt,'in')"/>
                <use id="zoomminus" xlink:href="#zoomMin" x="42" y="9" onmousedown="handleZoom(evt,'out')"/>
                <use id="reset" xlink:href="#resetDef" x="30" y="36" onmousedown="handleReset()"/>
                <g id="arrowUp" xlink:href="#dirArrow" transform="translate(30 24)" onmousedown="handlePan(0,-1)">
                  <use xlink:href="#rim" fill="#404040">
                        <set attributeName="fill" to="#808080" begin="arrowUp.mouseover" end="arrowUp.mouseout"/>
                  </use>
                  <path fill="none" stroke="white" stroke-width="1.5" d="M0,-3.0v7 M-2.5,-0.5L0,-3.0L2.5,-0.5"/>
                </g>
                <g id="arrowRight" xlink:href="#dirArrow" transform="rotate(90) translate(36 -43)" onmousedown="handlePan(1,0)">
                  <use xlink:href="#rim" fill="#404040">
                        <set attributeName="fill" to="#808080" begin="arrowRight.mouseover" end="arrowRight.mouseout"/>
                  </use>
                  <path fill="none" stroke="white" stroke-width="1.5" d="M0,-3.0v7 M-2.5,-0.5L0,-3.0L2.5,-0.5"/>
                </g>
                <g id="arrowDown" xlink:href="#dirArrow" transform="rotate(180) translate(-30 -48)" onmousedown="handlePan(0,1)">
                  <use xlink:href="#rim" fill="#404040">
                        <set attributeName="fill" to="#808080" begin="arrowDown.mouseover" end="arrowDown.mouseout"/>
                  </use>
                  <path fill="none" stroke="white" stroke-width="1.5" d="M0,-3.0v7 M-2.5,-0.5L0,-3.0L2.5,-0.5"/>
                </g>
                <g id="arrowLeft" xlink:href="#dirArrow" transform="rotate(270) translate(-36 17)" onmousedown="handlePan(-1,0)">
                  <use xlink:href="#rim" fill="#404040">
                        <set attributeName="fill" to="#808080" begin="arrowLeft.mouseover" end="arrowLeft.mouseout"/>
                  </use>
                  <path fill="none" stroke="white" stroke-width="1.5" d="M0,-3.0v7 M-2.5,-0.5L0,-3.0L2.5,-0.5"/>
                </g>
        </g>
        <svg viewBox="0 0 15 15" width="100%" height="30px" preserveAspectRatio="xMaxYMin meet">
         <g id="arrow_out" transform="scale(0.3 0.3)">
          <a xlink:href="_u___service_8hpp_ab5c4ad56c0967c7aa59e84c28c445bc6_cgraph_org.svg" target="_base">
           <rect id="button" ry="5" rx="5" y="6" x="6" height="38" width="38"
                fill="#f2f5e9" fill-opacity="0.5" stroke="#606060" stroke-width="1.0"/>
           <path id="arrow"
             d="M 11.500037,31.436501 C 11.940474,20.09759 22.043105,11.32322 32.158766,21.979434 L 37.068811,17.246167 C 37.068811,17.246167 37.088388,32 37.088388,32 L 22.160133,31.978069 C 22.160133,31.978069 26.997745,27.140456 26.997745,27.140456 C 18.528582,18.264221 13.291696,25.230495 11.500037,31.436501 z"
             style="fill:#404040;"/>
          </a>
         </g>
        </svg>
</svg>
