<?xml version="1.0" encoding="UTF-8" standalone="no"?>
<!DOCTYPE svg PUBLIC "-//W3C//DTD SVG 1.1//EN"
 "http://www.w3.org/Graphics/SVG/1.1/DTD/svg11.dtd">
<!-- Generated by graphviz version 4.0.0 (20220529.0937)
 -->
<!-- Title: C:/Users/admin&#45;cyb/Desktop/PI&#45;Defender/Sources/PI&#45;Defender_UM/U_Utilitaire.hpp Pages: 1 -->
<svg width="895pt" height="397pt"
 viewBox="0.00 0.00 895.17 397.00" xmlns="http://www.w3.org/2000/svg" xmlns:xlink="http://www.w3.org/1999/xlink">
<g id="graph0" class="graph" transform="scale(1 1) rotate(0) translate(4 393)">
<title>C:/Users/admin&#45;cyb/Desktop/PI&#45;Defender/Sources/PI&#45;Defender_UM/U_Utilitaire.hpp</title>
<!-- Node1 -->
<g id="node1" class="node">
<title>Node1</title>
<g id="a_node1"><a xlink:title="Header for U_Utilitaire.cpp.">
<polygon fill="#bfbfbf" stroke="black" points="444,-336.5 444,-388.5 553,-388.5 553,-336.5 444,-336.5"/>
<text text-anchor="start" x="452" y="-376.5" font-family="Helvetica,sans-Serif" font-size="10.00">C:/Users/admin&#45;cyb</text>
<text text-anchor="start" x="452" y="-365.5" font-family="Helvetica,sans-Serif" font-size="10.00">/Desktop/PI&#45;Defender</text>
<text text-anchor="start" x="452" y="-354.5" font-family="Helvetica,sans-Serif" font-size="10.00">/Sources/PI&#45;Defender</text>
<text text-anchor="middle" x="498.5" y="-343.5" font-family="Helvetica,sans-Serif" font-size="10.00">_UM/U_Utilitaire.hpp</text>
</a>
</g>
</g>
<!-- Node2 -->
<g id="node2" class="node">
<title>Node2</title>
<g id="a_node2"><a xlink:title=" ">
<polygon fill="none" stroke="#bfbfbf" points="0,-280.5 0,-299.5 59,-299.5 59,-280.5 0,-280.5"/>
<text text-anchor="middle" x="29.5" y="-287.5" font-family="Helvetica,sans-Serif" font-size="10.00">Shlwapi.h</text>
</a>
</g>
</g>
<!-- Node1&#45;&gt;Node2 -->
<g id="edge1" class="edge">
<title>Node1&#45;&gt;Node2</title>
<path fill="none" stroke="midnightblue" d="M444,-354.64C362.98,-344.22 206.07,-323.13 73.5,-300 72.06,-299.75 70.59,-299.49 69.12,-299.21"/>
<polygon fill="midnightblue" stroke="midnightblue" points="69.76,-295.77 59.28,-297.33 68.44,-302.65 69.76,-295.77"/>
</g>
<!-- Node3 -->
<g id="node3" class="node">
<title>Node3</title>
<g id="a_node3"><a xlink:title=" ">
<polygon fill="none" stroke="#bfbfbf" points="115.5,-168.5 115.5,-187.5 177.5,-187.5 177.5,-168.5 115.5,-168.5"/>
<text text-anchor="middle" x="146.5" y="-175.5" font-family="Helvetica,sans-Serif" font-size="10.00">PathCch.h</text>
</a>
</g>
</g>
<!-- Node1&#45;&gt;Node3 -->
<g id="edge2" class="edge">
<title>Node1&#45;&gt;Node3</title>
<path fill="none" stroke="midnightblue" d="M443.84,-357.95C369.51,-350.11 237.47,-324.91 164.5,-244 153.11,-231.38 148.85,-212.16 147.3,-197.9"/>
<polygon fill="midnightblue" stroke="midnightblue" points="150.77,-197.45 146.55,-187.74 143.79,-197.97 150.77,-197.45"/>
</g>
<!-- Node4 -->
<g id="node4" class="node">
<title>Node4</title>
<g id="a_node4"><a xlink:title=" ">
<polygon fill="none" stroke="#bfbfbf" points="574,-280.5 574,-299.5 615,-299.5 615,-280.5 574,-280.5"/>
<text text-anchor="middle" x="594.5" y="-287.5" font-family="Helvetica,sans-Serif" font-size="10.00">string</text>
</a>
</g>
</g>
<!-- Node1&#45;&gt;Node4 -->
<g id="edge3" class="edge">
<title>Node1&#45;&gt;Node4</title>
<path fill="none" stroke="midnightblue" d="M532.62,-336.45C546.67,-326.13 562.45,-314.53 574.57,-305.64"/>
<polygon fill="midnightblue" stroke="midnightblue" points="576.67,-308.44 582.66,-299.7 572.53,-302.79 576.67,-308.44"/>
</g>
<!-- Node5 -->
<g id="node5" class="node">
<title>Node5</title>
<g id="a_node5"><a xlink:title=" ">
<polygon fill="none" stroke="#bfbfbf" points="633.5,-280.5 633.5,-299.5 687.5,-299.5 687.5,-280.5 633.5,-280.5"/>
<text text-anchor="middle" x="660.5" y="-287.5" font-family="Helvetica,sans-Serif" font-size="10.00">iostream</text>
</a>
</g>
</g>
<!-- Node1&#45;&gt;Node5 -->
<g id="edge4" class="edge">
<title>Node1&#45;&gt;Node5</title>
<path fill="none" stroke="midnightblue" d="M553.35,-337.63C579.45,-326.27 609.63,-313.14 631.29,-303.71"/>
<polygon fill="midnightblue" stroke="midnightblue" points="632.82,-306.86 640.6,-299.66 630.03,-300.44 632.82,-306.86"/>
</g>
<!-- Node6 -->
<g id="node6" class="node">
<title>Node6</title>
<g id="a_node6"><a xlink:title=" ">
<polygon fill="none" stroke="#bfbfbf" points="705.5,-280.5 705.5,-299.5 767.5,-299.5 767.5,-280.5 705.5,-280.5"/>
<text text-anchor="middle" x="736.5" y="-287.5" font-family="Helvetica,sans-Serif" font-size="10.00">TlHelp32.h</text>
</a>
</g>
</g>
<!-- Node1&#45;&gt;Node6 -->
<g id="edge5" class="edge">
<title>Node1&#45;&gt;Node6</title>
<path fill="none" stroke="midnightblue" d="M553.1,-345.33C597.42,-332.2 658.78,-314.02 698.06,-302.39"/>
<polygon fill="midnightblue" stroke="midnightblue" points="699.2,-305.7 707.79,-299.5 697.21,-298.99 699.2,-305.7"/>
</g>
<!-- Node7 -->
<g id="node7" class="node">
<title>Node7</title>
<g id="a_node7"><a xlink:title=" ">
<polygon fill="none" stroke="#bfbfbf" points="114.5,-0.5 114.5,-19.5 168.5,-19.5 168.5,-0.5 114.5,-0.5"/>
<text text-anchor="middle" x="141.5" y="-7.5" font-family="Helvetica,sans-Serif" font-size="10.00">strsafe.h</text>
</a>
</g>
</g>
<!-- Node1&#45;&gt;Node7 -->
<g id="edge6" class="edge">
<title>Node1&#45;&gt;Node7</title>
<path fill="none" stroke="midnightblue" d="M443.92,-356.25C332.12,-343.99 87.5,-308.72 87.5,-235 87.5,-235 87.5,-235 87.5,-121 87.5,-84.86 111.27,-48.25 127.27,-27.71"/>
<polygon fill="midnightblue" stroke="midnightblue" points="130.19,-29.67 133.76,-19.69 124.75,-25.26 130.19,-29.67"/>
</g>
<!-- Node8 -->
<g id="node8" class="node">
<title>Node8</title>
<g id="a_node8"><a xlink:title=" ">
<polygon fill="none" stroke="#bfbfbf" points="785.5,-280.5 785.5,-299.5 817.5,-299.5 817.5,-280.5 785.5,-280.5"/>
<text text-anchor="middle" x="801.5" y="-287.5" font-family="Helvetica,sans-Serif" font-size="10.00">io.h</text>
</a>
</g>
</g>
<!-- Node1&#45;&gt;Node8 -->
<g id="edge7" class="edge">
<title>Node1&#45;&gt;Node8</title>
<path fill="none" stroke="midnightblue" d="M553.09,-351.57C607.38,-341.21 693.1,-323.56 775.67,-299.95"/>
<polygon fill="midnightblue" stroke="midnightblue" points="776.83,-303.26 785.46,-297.12 774.88,-296.53 776.83,-303.26"/>
</g>
<!-- Node9 -->
<g id="node9" class="node">
<title>Node9</title>
<g id="a_node9"><a xlink:title=" ">
<polygon fill="none" stroke="#bfbfbf" points="836,-280.5 836,-299.5 879,-299.5 879,-280.5 836,-280.5"/>
<text text-anchor="middle" x="857.5" y="-287.5" font-family="Helvetica,sans-Serif" font-size="10.00">fcntl.h</text>
</a>
</g>
</g>
<!-- Node1&#45;&gt;Node9 -->
<g id="edge8" class="edge">
<title>Node1&#45;&gt;Node9</title>
<path fill="none" stroke="midnightblue" d="M553.11,-352.93C616.44,-342.62 724.12,-323.95 826.05,-299.91"/>
<polygon fill="midnightblue" stroke="midnightblue" points="826.97,-303.28 835.89,-297.56 825.35,-296.47 826.97,-303.28"/>
</g>
<!-- Node10 -->
<g id="node10" class="node">
<title>Node10</title>
<g id="a_node10"><a xlink:href="_u___global_header_8hpp.html" target="_top" xlink:title="Header used by several .hpp files.">
<polygon fill="none" stroke="black" points="372.5,-56.5 372.5,-75.5 478.5,-75.5 478.5,-56.5 372.5,-56.5"/>
<text text-anchor="middle" x="425.5" y="-63.5" font-family="Helvetica,sans-Serif" font-size="10.00">U_GlobalHeader.hpp</text>
</a>
</g>
</g>
<!-- Node1&#45;&gt;Node10 -->
<g id="edge9" class="edge">
<title>Node1&#45;&gt;Node10</title>
<path fill="none" stroke="midnightblue" d="M513.35,-336.3C525.28,-318.14 543.62,-294.4 565.5,-280 690.66,-197.61 917.93,-313.83 883.5,-168 877.11,-140.92 878.38,-127.84 855.5,-112 797.65,-71.93 593.86,-66.42 488.95,-66.34"/>
<polygon fill="midnightblue" stroke="midnightblue" points="488.8,-62.84 478.81,-66.34 488.81,-69.84 488.8,-62.84"/>
</g>
<!-- Node15 -->
<g id="node15" class="node">
<title>Node15</title>
<g id="a_node15"><a xlink:href="_u___logs_8hpp.html" target="_top" xlink:title="Header for U_Logs.cpp.">
<polygon fill="none" stroke="black" points="441.5,-168.5 441.5,-187.5 509.5,-187.5 509.5,-168.5 441.5,-168.5"/>
<text text-anchor="middle" x="475.5" y="-175.5" font-family="Helvetica,sans-Serif" font-size="10.00">U_Logs.hpp</text>
</a>
</g>
</g>
<!-- Node1&#45;&gt;Node15 -->
<g id="edge15" class="edge">
<title>Node1&#45;&gt;Node15</title>
<path fill="none" stroke="midnightblue" d="M490.46,-336.12C483.06,-298.98 474.63,-230.64 473.56,-197.71"/>
<polygon fill="midnightblue" stroke="midnightblue" points="477.06,-197.63 473.5,-187.65 470.06,-197.67 477.06,-197.63"/>
</g>
<!-- Node17 -->
<g id="node17" class="node">
<title>Node17</title>
<g id="a_node17"><a xlink:href="_u___service_8hpp.html" target="_top" xlink:title="Header for U_Service.cpp.">
<polygon fill="none" stroke="black" points="382,-280.5 382,-299.5 461,-299.5 461,-280.5 382,-280.5"/>
<text text-anchor="middle" x="421.5" y="-287.5" font-family="Helvetica,sans-Serif" font-size="10.00">U_Service.hpp</text>
</a>
</g>
</g>
<!-- Node1&#45;&gt;Node17 -->
<g id="edge20" class="edge">
<title>Node1&#45;&gt;Node17</title>
<path fill="none" stroke="midnightblue" d="M464.64,-336.45C453.53,-326.73 441.91,-315.88 433.43,-307.22"/>
<polygon fill="midnightblue" stroke="midnightblue" points="435.77,-304.6 426.37,-299.7 430.66,-309.38 435.77,-304.6"/>
</g>
<!-- Node10&#45;&gt;Node7 -->
<g id="edge14" class="edge">
<title>Node10&#45;&gt;Node7</title>
<path fill="none" stroke="midnightblue" d="M380.5,-56.44C324.75,-45.84 230.79,-27.98 178.84,-18.1"/>
<polygon fill="midnightblue" stroke="midnightblue" points="179.21,-14.61 168.73,-16.18 177.9,-21.48 179.21,-14.61"/>
</g>
<!-- Node11 -->
<g id="node11" class="node">
<title>Node11</title>
<g id="a_node11"><a xlink:title=" ">
<polygon fill="none" stroke="#bfbfbf" points="355,-0.5 355,-19.5 420,-19.5 420,-0.5 355,-0.5"/>
<text text-anchor="middle" x="387.5" y="-7.5" font-family="Helvetica,sans-Serif" font-size="10.00">Windows.h</text>
</a>
</g>
</g>
<!-- Node10&#45;&gt;Node11 -->
<g id="edge10" class="edge">
<title>Node10&#45;&gt;Node11</title>
<path fill="none" stroke="midnightblue" d="M419.23,-56.08C413.86,-48.46 405.98,-37.26 399.42,-27.94"/>
<polygon fill="midnightblue" stroke="midnightblue" points="402.28,-25.91 393.66,-19.75 396.55,-29.94 402.28,-25.91"/>
</g>
<!-- Node12 -->
<g id="node12" class="node">
<title>Node12</title>
<g id="a_node12"><a xlink:title=" ">
<polygon fill="none" stroke="#bfbfbf" points="438,-0.5 438,-19.5 491,-19.5 491,-0.5 438,-0.5"/>
<text text-anchor="middle" x="464.5" y="-7.5" font-family="Helvetica,sans-Serif" font-size="10.00">fltUser.h</text>
</a>
</g>
</g>
<!-- Node10&#45;&gt;Node12 -->
<g id="edge11" class="edge">
<title>Node10&#45;&gt;Node12</title>
<path fill="none" stroke="midnightblue" d="M431.94,-56.08C437.45,-48.46 445.53,-37.26 452.26,-27.94"/>
<polygon fill="midnightblue" stroke="midnightblue" points="455.16,-29.91 458.18,-19.75 449.49,-25.81 455.16,-29.91"/>
</g>
<!-- Node13 -->
<g id="node13" class="node">
<title>Node13</title>
<g id="a_node13"><a xlink:title=" ">
<polygon fill="none" stroke="#bfbfbf" points="509.5,-0.5 509.5,-19.5 555.5,-19.5 555.5,-0.5 509.5,-0.5"/>
<text text-anchor="middle" x="532.5" y="-7.5" font-family="Helvetica,sans-Serif" font-size="10.00">stdio.h</text>
</a>
</g>
</g>
<!-- Node10&#45;&gt;Node13 -->
<g id="edge12" class="edge">
<title>Node10&#45;&gt;Node13</title>
<path fill="none" stroke="midnightblue" d="M442.69,-56.32C459.85,-47.66 486.45,-34.24 506.25,-24.25"/>
<polygon fill="midnightblue" stroke="midnightblue" points="508,-27.28 515.35,-19.65 504.85,-21.04 508,-27.28"/>
</g>
<!-- Node14 -->
<g id="node14" class="node">
<title>Node14</title>
<g id="a_node14"><a xlink:title=" ">
<polygon fill="none" stroke="#bfbfbf" points="290,-0.5 290,-19.5 337,-19.5 337,-0.5 290,-0.5"/>
<text text-anchor="middle" x="313.5" y="-7.5" font-family="Helvetica,sans-Serif" font-size="10.00">tchar.h</text>
</a>
</g>
</g>
<!-- Node10&#45;&gt;Node14 -->
<g id="edge13" class="edge">
<title>Node10&#45;&gt;Node14</title>
<path fill="none" stroke="midnightblue" d="M407.51,-56.32C389.46,-47.62 361.45,-34.12 340.7,-24.11"/>
<polygon fill="midnightblue" stroke="midnightblue" points="341.98,-20.84 331.45,-19.65 338.94,-27.15 341.98,-20.84"/>
</g>
<!-- Node15&#45;&gt;Node1 -->
<g id="edge19" class="edge">
<title>Node15&#45;&gt;Node1</title>
<path fill="none" stroke="midnightblue" d="M479.68,-187.65C486.64,-212.08 496.33,-282.65 499.5,-326"/>
<polygon fill="midnightblue" stroke="midnightblue" points="496.02,-326.37 500.15,-336.12 503,-325.92 496.02,-326.37"/>
</g>
<!-- Node15&#45;&gt;Node10 -->
<g id="edge16" class="edge">
<title>Node15&#45;&gt;Node10</title>
<path fill="none" stroke="midnightblue" d="M471.58,-168.37C463.43,-150.46 444.56,-108.92 433.66,-84.95"/>
<polygon fill="midnightblue" stroke="midnightblue" points="436.73,-83.25 429.41,-75.59 430.36,-86.14 436.73,-83.25"/>
</g>
<!-- Node16 -->
<g id="node16" class="node">
<title>Node16</title>
<g id="a_node16"><a xlink:href="_u___registry_8hpp.html" target="_top" xlink:title="Header for U_Registry.cpp.">
<polygon fill="none" stroke="black" points="314,-112.5 314,-131.5 397,-131.5 397,-112.5 314,-112.5"/>
<text text-anchor="middle" x="355.5" y="-119.5" font-family="Helvetica,sans-Serif" font-size="10.00">U_Registry.hpp</text>
</a>
</g>
</g>
<!-- Node15&#45;&gt;Node16 -->
<g id="edge17" class="edge">
<title>Node15&#45;&gt;Node16</title>
<path fill="none" stroke="midnightblue" d="M456.49,-168.44C436.91,-159.64 406.19,-145.81 383.77,-135.72"/>
<polygon fill="midnightblue" stroke="midnightblue" points="384.98,-132.43 374.43,-131.52 382.11,-138.81 384.98,-132.43"/>
</g>
<!-- Node16&#45;&gt;Node10 -->
<g id="edge18" class="edge">
<title>Node16&#45;&gt;Node10</title>
<path fill="none" stroke="midnightblue" d="M366.75,-112.32C377.3,-104.18 393.3,-91.84 405.94,-82.09"/>
<polygon fill="midnightblue" stroke="midnightblue" points="408.27,-84.71 414.05,-75.83 403.99,-79.17 408.27,-84.71"/>
</g>
<!-- Node17&#45;&gt;Node1 -->
<g id="edge35" class="edge">
<title>Node17&#45;&gt;Node1</title>
<path fill="none" stroke="midnightblue" d="M435.62,-299.7C445.37,-307.19 458.42,-318.49 470.15,-329.39"/>
<polygon fill="midnightblue" stroke="midnightblue" points="467.95,-332.13 477.63,-336.45 472.76,-327.04 467.95,-332.13"/>
</g>
<!-- Node17&#45;&gt;Node10 -->
<g id="edge21" class="edge">
<title>Node17&#45;&gt;Node10</title>
<path fill="none" stroke="midnightblue" d="M421.66,-280.3C422.25,-247.63 424.33,-131.87 425.16,-85.96"/>
<polygon fill="midnightblue" stroke="midnightblue" points="428.66,-85.95 425.34,-75.88 421.66,-85.82 428.66,-85.95"/>
</g>
<!-- Node17&#45;&gt;Node15 -->
<g id="edge34" class="edge">
<title>Node17&#45;&gt;Node15</title>
<path fill="none" stroke="midnightblue" d="M425.74,-280.37C434.57,-262.38 455.1,-220.55 466.85,-196.63"/>
<polygon fill="midnightblue" stroke="midnightblue" points="470.02,-198.11 471.28,-187.59 463.73,-195.03 470.02,-198.11"/>
</g>
<!-- Node18 -->
<g id="node18" class="node">
<title>Node18</title>
<g id="a_node18"><a xlink:href="_u___configuration_8hpp.html" target="_top" xlink:title="Header for U_Configuration.cpp.">
<polygon fill="none" stroke="black" points="281.5,-224.5 281.5,-243.5 385.5,-243.5 385.5,-224.5 281.5,-224.5"/>
<text text-anchor="middle" x="333.5" y="-231.5" font-family="Helvetica,sans-Serif" font-size="10.00">U_Configuration.hpp</text>
</a>
</g>
</g>
<!-- Node17&#45;&gt;Node18 -->
<g id="edge22" class="edge">
<title>Node17&#45;&gt;Node18</title>
<path fill="none" stroke="midnightblue" d="M402.25,-280.32C386.93,-272.03 365.98,-259.36 351.11,-249.53"/>
<polygon fill="midnightblue" stroke="midnightblue" points="352.98,-246.57 342.75,-243.83 349.04,-252.35 352.98,-246.57"/>
</g>
<!-- Node20 -->
<g id="node20" class="node">
<title>Node20</title>
<g id="a_node20"><a xlink:href="_u___controller_8hpp.html" target="_top" xlink:title="Header for U_Controller.cpp.">
<polygon fill="none" stroke="black" points="174,-224.5 174,-243.5 263,-243.5 263,-224.5 174,-224.5"/>
<text text-anchor="middle" x="218.5" y="-231.5" font-family="Helvetica,sans-Serif" font-size="10.00">U_Controller.hpp</text>
</a>
</g>
</g>
<!-- Node17&#45;&gt;Node20 -->
<g id="edge30" class="edge">
<title>Node17&#45;&gt;Node20</title>
<path fill="none" stroke="midnightblue" d="M389.33,-280.44C354.44,-271.16 298.61,-256.31 260.33,-246.13"/>
<polygon fill="midnightblue" stroke="midnightblue" points="261.08,-242.7 250.52,-243.52 259.28,-249.47 261.08,-242.7"/>
</g>
<!-- Node21 -->
<g id="node21" class="node">
<title>Node21</title>
<g id="a_node21"><a xlink:href="_u___communication_8hpp.html" target="_top" xlink:title="Header for U_Communication.cpp.">
<polygon fill="none" stroke="black" points="536,-224.5 536,-243.5 651,-243.5 651,-224.5 536,-224.5"/>
<text text-anchor="middle" x="593.5" y="-231.5" font-family="Helvetica,sans-Serif" font-size="10.00">U_Communication.hpp</text>
</a>
</g>
</g>
<!-- Node17&#45;&gt;Node21 -->
<g id="edge36" class="edge">
<title>Node17&#45;&gt;Node21</title>
<path fill="none" stroke="midnightblue" d="M443.67,-280.44C470.96,-271.24 517.54,-256.56 551.6,-246.39"/>
<polygon fill="midnightblue" stroke="midnightblue" points="552.7,-249.71 561.29,-243.52 550.71,-243 552.7,-249.71"/>
</g>
<!-- Node18&#45;&gt;Node1 -->
<g id="edge29" class="edge">
<title>Node18&#45;&gt;Node1</title>
<path fill="none" stroke="midnightblue" d="M336.93,-243.64C342.69,-257.19 355.47,-283.59 373.5,-300 391.11,-316.02 413.66,-328.81 434.74,-338.49"/>
<polygon fill="midnightblue" stroke="midnightblue" points="433.43,-341.74 443.99,-342.59 436.26,-335.34 433.43,-341.74"/>
</g>
<!-- Node18&#45;&gt;Node3 -->
<g id="edge24" class="edge">
<title>Node18&#45;&gt;Node3</title>
<path fill="none" stroke="midnightblue" d="M303.87,-224.44C272,-215.24 221.17,-200.56 185.94,-190.39"/>
<polygon fill="midnightblue" stroke="midnightblue" points="186.57,-186.93 175.99,-187.52 184.63,-193.65 186.57,-186.93"/>
</g>
<!-- Node18&#45;&gt;Node10 -->
<g id="edge23" class="edge">
<title>Node18&#45;&gt;Node10</title>
<path fill="none" stroke="midnightblue" d="M331.79,-224.08C329.3,-211.47 324.33,-187.77 318.5,-168 313.69,-151.68 308.43,-148.76 305.5,-132 303.97,-123.24 300.44,-119.31 305.5,-112 318.63,-93.05 340.8,-82.07 362.53,-75.71"/>
<polygon fill="midnightblue" stroke="midnightblue" points="363.67,-79.03 372.45,-73.1 361.89,-72.26 363.67,-79.03"/>
</g>
<!-- Node18&#45;&gt;Node15 -->
<g id="edge28" class="edge">
<title>Node18&#45;&gt;Node15</title>
<path fill="none" stroke="midnightblue" d="M356,-224.44C379.58,-215.48 416.82,-201.31 443.46,-191.18"/>
<polygon fill="midnightblue" stroke="midnightblue" points="445,-194.34 453.1,-187.52 442.51,-187.8 445,-194.34"/>
</g>
<!-- Node18&#45;&gt;Node16 -->
<g id="edge26" class="edge">
<title>Node18&#45;&gt;Node16</title>
<path fill="none" stroke="midnightblue" d="M337.95,-224.3C342.26,-215.43 348.55,-201.14 351.5,-188 354.95,-172.64 355.83,-154.77 355.92,-141.65"/>
<polygon fill="midnightblue" stroke="midnightblue" points="359.42,-141.51 355.83,-131.53 352.42,-141.56 359.42,-141.51"/>
</g>
<!-- Node18&#45;&gt;Node17 -->
<g id="edge27" class="edge">
<title>Node18&#45;&gt;Node17</title>
<path fill="none" stroke="midnightblue" d="M352.71,-243.65C368.11,-251.99 389.23,-264.76 404.12,-274.62"/>
<polygon fill="midnightblue" stroke="midnightblue" points="402.24,-277.58 412.48,-280.32 406.19,-271.8 402.24,-277.58"/>
</g>
<!-- Node19 -->
<g id="node19" class="node">
<title>Node19</title>
<g id="a_node19"><a xlink:title=" ">
<polygon fill="none" stroke="#bfbfbf" points="233.5,-168.5 233.5,-187.5 309.5,-187.5 309.5,-168.5 233.5,-168.5"/>
<text text-anchor="middle" x="271.5" y="-175.5" font-family="Helvetica,sans-Serif" font-size="10.00">Shlobj_core.h</text>
</a>
</g>
</g>
<!-- Node18&#45;&gt;Node19 -->
<g id="edge25" class="edge">
<title>Node18&#45;&gt;Node19</title>
<path fill="none" stroke="midnightblue" d="M323.54,-224.32C314.37,-216.34 300.56,-204.31 289.47,-194.65"/>
<polygon fill="midnightblue" stroke="midnightblue" points="291.48,-191.76 281.64,-187.83 286.88,-197.04 291.48,-191.76"/>
</g>
<!-- Node20&#45;&gt;Node1 -->
<g id="edge33" class="edge">
<title>Node20&#45;&gt;Node1</title>
<path fill="none" stroke="midnightblue" d="M235.71,-243.71C261.08,-256.47 310.1,-280.8 352.5,-300 379.17,-312.07 408.9,-324.74 434.53,-335.42"/>
<polygon fill="midnightblue" stroke="midnightblue" points="433.2,-338.65 443.78,-339.25 435.88,-332.19 433.2,-338.65"/>
</g>
<!-- Node20&#45;&gt;Node3 -->
<g id="edge32" class="edge">
<title>Node20&#45;&gt;Node3</title>
<path fill="none" stroke="midnightblue" d="M206.93,-224.32C196.08,-216.18 179.62,-203.84 166.62,-194.09"/>
<polygon fill="midnightblue" stroke="midnightblue" points="168.38,-191.03 158.28,-187.83 164.18,-196.63 168.38,-191.03"/>
</g>
<!-- Node20&#45;&gt;Node10 -->
<g id="edge31" class="edge">
<title>Node20&#45;&gt;Node10</title>
<path fill="none" stroke="midnightblue" d="M217.2,-224.36C215.67,-211.27 214.48,-186.03 224.5,-168 253.18,-116.43 318.02,-90.55 366.35,-78"/>
<polygon fill="midnightblue" stroke="midnightblue" points="367.22,-81.39 376.08,-75.59 365.54,-74.6 367.22,-81.39"/>
</g>
<!-- Node21&#45;&gt;Node10 -->
<g id="edge37" class="edge">
<title>Node21&#45;&gt;Node10</title>
<path fill="none" stroke="midnightblue" d="M651.06,-232C723.32,-229.39 841.17,-220.17 868.5,-188 874.26,-181.23 871.11,-176.5 868.5,-168 859.67,-139.25 856.26,-127.53 830.5,-112 774.47,-78.22 588,-69.76 488.82,-67.67"/>
<polygon fill="midnightblue" stroke="midnightblue" points="488.69,-64.16 478.63,-67.47 488.56,-71.16 488.69,-64.16"/>
</g>
<!-- Node21&#45;&gt;Node15 -->
<g id="edge39" class="edge">
<title>Node21&#45;&gt;Node15</title>
<path fill="none" stroke="midnightblue" d="M574.8,-224.44C555.56,-215.64 525.35,-201.81 503.3,-191.72"/>
<polygon fill="midnightblue" stroke="midnightblue" points="504.66,-188.5 494.11,-187.52 501.75,-194.86 504.66,-188.5"/>
</g>
<!-- Node21&#45;&gt;Node17 -->
<g id="edge38" class="edge">
<title>Node21&#45;&gt;Node17</title>
<path fill="none" stroke="midnightblue" d="M571.45,-243.52C544.22,-252.7 497.65,-267.38 463.55,-277.57"/>
<polygon fill="midnightblue" stroke="midnightblue" points="462.44,-274.25 453.84,-280.44 464.43,-280.96 462.44,-274.25"/>
</g>
<!-- Node22 -->
<g id="node22" class="node">
<title>Node22</title>
<g id="a_node22"><a xlink:href="_shared_defs_8hpp.html" target="_top" xlink:title="Header file which contains the structures, type definitions, constants, global variablesand function ...">
<polygon fill="none" stroke="black" points="635.5,-168.5 635.5,-187.5 783.5,-187.5 783.5,-168.5 635.5,-168.5"/>
<text text-anchor="middle" x="709.5" y="-175.5" font-family="Helvetica,sans-Serif" font-size="10.00">../SharedDefs/SharedDefs.hpp</text>
</a>
</g>
</g>
<!-- Node21&#45;&gt;Node22 -->
<g id="edge40" class="edge">
<title>Node21&#45;&gt;Node22</title>
<path fill="none" stroke="midnightblue" d="M611.88,-224.44C630.72,-215.68 660.23,-201.94 681.88,-191.86"/>
<polygon fill="midnightblue" stroke="midnightblue" points="683.62,-194.91 691.21,-187.52 680.66,-188.56 683.62,-194.91"/>
</g>
<!-- Node23 -->
<g id="node23" class="node">
<title>Node23</title>
<g id="a_node23"><a xlink:href="_u___signature_8hpp.html" target="_top" xlink:title="Header for U_Signature.cpp.">
<polygon fill="none" stroke="black" points="528,-168.5 528,-187.5 617,-187.5 617,-168.5 528,-168.5"/>
<text text-anchor="middle" x="572.5" y="-175.5" font-family="Helvetica,sans-Serif" font-size="10.00">U_Signature.hpp</text>
</a>
</g>
</g>
<!-- Node21&#45;&gt;Node23 -->
<g id="edge41" class="edge">
<title>Node21&#45;&gt;Node23</title>
<path fill="none" stroke="midnightblue" d="M590.03,-224.08C587.19,-216.77 583.07,-206.18 579.54,-197.1"/>
<polygon fill="midnightblue" stroke="midnightblue" points="582.79,-195.8 575.9,-187.75 576.27,-198.34 582.79,-195.8"/>
</g>
<!-- Node28 -->
<g id="node28" class="node">
<title>Node28</title>
<g id="a_node28"><a xlink:title=" ">
<polygon fill="none" stroke="#bfbfbf" points="801.5,-168.5 801.5,-187.5 859.5,-187.5 859.5,-168.5 801.5,-168.5"/>
<text text-anchor="middle" x="830.5" y="-175.5" font-family="Helvetica,sans-Serif" font-size="10.00">winternl.h</text>
</a>
</g>
</g>
<!-- Node21&#45;&gt;Node28 -->
<g id="edge47" class="edge">
<title>Node21&#45;&gt;Node28</title>
<path fill="none" stroke="midnightblue" d="M631.68,-224.49C669.72,-215.98 730.07,-202.41 791.58,-188.2"/>
<polygon fill="midnightblue" stroke="midnightblue" points="792.51,-191.57 801.46,-185.91 790.93,-184.75 792.51,-191.57"/>
</g>
<!-- Node23&#45;&gt;Node10 -->
<g id="edge42" class="edge">
<title>Node23&#45;&gt;Node10</title>
<path fill="none" stroke="midnightblue" d="M595.16,-168.46C622.64,-156.83 663.12,-134.84 644.5,-112 625.12,-88.23 546.23,-76.66 488.68,-71.29"/>
<polygon fill="midnightblue" stroke="midnightblue" points="488.83,-67.79 478.56,-70.38 488.21,-74.76 488.83,-67.79"/>
</g>
<!-- Node24 -->
<g id="node24" class="node">
<title>Node24</title>
<g id="a_node24"><a xlink:title=" ">
<polygon fill="none" stroke="#bfbfbf" points="492,-112.5 492,-131.5 553,-131.5 553,-112.5 492,-112.5"/>
<text text-anchor="middle" x="522.5" y="-119.5" font-family="Helvetica,sans-Serif" font-size="10.00">wincrypt.h</text>
</a>
</g>
</g>
<!-- Node23&#45;&gt;Node24 -->
<g id="edge43" class="edge">
<title>Node23&#45;&gt;Node24</title>
<path fill="none" stroke="midnightblue" d="M564.24,-168.08C557.04,-160.3 546.39,-148.8 537.65,-139.37"/>
<polygon fill="midnightblue" stroke="midnightblue" points="539.97,-136.71 530.6,-131.75 534.83,-141.47 539.97,-136.71"/>
</g>
<!-- Node25 -->
<g id="node25" class="node">
<title>Node25</title>
<g id="a_node25"><a xlink:title=" ">
<polygon fill="none" stroke="#bfbfbf" points="571.5,-112.5 571.5,-131.5 635.5,-131.5 635.5,-112.5 571.5,-112.5"/>
<text text-anchor="middle" x="603.5" y="-119.5" font-family="Helvetica,sans-Serif" font-size="10.00">WinTrust.h</text>
</a>
</g>
</g>
<!-- Node23&#45;&gt;Node25 -->
<g id="edge44" class="edge">
<title>Node23&#45;&gt;Node25</title>
<path fill="none" stroke="midnightblue" d="M577.62,-168.08C581.91,-160.61 588.16,-149.72 593.44,-140.52"/>
<polygon fill="midnightblue" stroke="midnightblue" points="596.53,-142.17 598.48,-131.75 590.46,-138.68 596.53,-142.17"/>
</g>
<!-- Node26 -->
<g id="node26" class="node">
<title>Node26</title>
<g id="a_node26"><a xlink:title=" ">
<polygon fill="none" stroke="#bfbfbf" points="692,-112.5 692,-131.5 751,-131.5 751,-112.5 692,-112.5"/>
<text text-anchor="middle" x="721.5" y="-119.5" font-family="Helvetica,sans-Serif" font-size="10.00">SoftPub.h</text>
</a>
</g>
</g>
<!-- Node23&#45;&gt;Node26 -->
<g id="edge45" class="edge">
<title>Node23&#45;&gt;Node26</title>
<path fill="none" stroke="midnightblue" d="M596.11,-168.44C620.96,-159.44 660.27,-145.19 688.25,-135.05"/>
<polygon fill="midnightblue" stroke="midnightblue" points="689.79,-138.21 698,-131.52 687.41,-131.63 689.79,-138.21"/>
</g>
<!-- Node27 -->
<g id="node27" class="node">
<title>Node27</title>
<g id="a_node27"><a xlink:title=" ">
<polygon fill="none" stroke="#bfbfbf" points="769.5,-112.5 769.5,-131.5 821.5,-131.5 821.5,-112.5 769.5,-112.5"/>
<text text-anchor="middle" x="795.5" y="-119.5" font-family="Helvetica,sans-Serif" font-size="10.00">mscat.h</text>
</a>
</g>
</g>
<!-- Node23&#45;&gt;Node27 -->
<g id="edge46" class="edge">
<title>Node23&#45;&gt;Node27</title>
<path fill="none" stroke="midnightblue" d="M608.94,-168.47C644.77,-160.04 701.29,-146.63 759.1,-132.32"/>
<polygon fill="midnightblue" stroke="midnightblue" points="760.28,-135.63 769.14,-129.83 758.59,-128.84 760.28,-135.63"/>
</g>
</g>
</svg>
