<?xml version="1.0" encoding="UTF-8" standalone="no"?>
<!DOCTYPE svg PUBLIC "-//W3C//DTD SVG 1.1//EN"
 "http://www.w3.org/Graphics/SVG/1.1/DTD/svg11.dtd">
<!-- Generated by graphviz version 4.0.0 (20220529.0937)
 -->
<!-- Title: SvcMain Pages: 1 -->
<!--zoomable 664 -->
<svg id="main" version="1.1" xmlns="http://www.w3.org/2000/svg" xmlns:xlink="http://www.w3.org/1999/xlink" xml:space="preserve" onload="init(evt)">
<style type="text/css"><![CDATA[
.edge:hover path { stroke: red; }
.edge:hover polygon { stroke: red; fill: red; }
]]></style>
<script type="text/javascript"><![CDATA[
var edges = document.getElementsByTagName('g');
if (edges && edges.length) {
  for (var i=0;i<edges.length;i++) {
    if (edges[i].id.substr(0,4)=='edge') {
      edges[i].setAttribute('class','edge');
    }
  }
}
]]></script>
        <defs>
                <circle id="rim" cx="0" cy="0" r="7"/>
                <circle id="rim2" cx="0" cy="0" r="3.5"/>
                <g id="zoomPlus">
                        <use xlink:href="#rim" fill="#404040">
                                <set attributeName="fill" to="#808080" begin="zoomplus.mouseover" end="zoomplus.mouseout"/>
                        </use>
                        <path d="M-4,0h8M0,-4v8" fill="none" stroke="white" stroke-width="1.5" pointer-events="none"/>
                </g>
                <g id="zoomMin">
                        <use xlink:href="#rim" fill="#404040">
                                <set attributeName="fill" to="#808080" begin="zoomminus.mouseover" end="zoomminus.mouseout"/>
                        </use>
                        <path d="M-4,0h8" fill="none" stroke="white" stroke-width="1.5" pointer-events="none"/>
                </g>
                <g id="dirArrow">
                        <path fill="none" stroke="white" stroke-width="1.5" d="M0,-3.0v7 M-2.5,-0.5L0,-3.0L2.5,-0.5"/>
                </g>
               <g id="resetDef">
                       <use xlink:href="#rim2" fill="#404040">
                               <set attributeName="fill" to="#808080" begin="reset.mouseover" end="reset.mouseout"/>
                       </use>
               </g>
        </defs>

<script type="text/javascript">
var viewWidth = 1303;
var viewHeight = 664;
var sectionId = 'dynsection-14';
</script>
<script xlink:href="svgpan.js"/>
<svg id="graph" class="graph">
<g id="viewport">
<title>SvcMain</title>
<!-- Node1 -->
<g id="node1" class="node">
<title>Node1</title>
<g id="a_node1"><a xlink:title="Entrypoint and core of the user space service.">
<polygon fill="#bfbfbf" stroke="black" points="0,-450.89 0,-469.89 53,-469.89 53,-450.89 0,-450.89"/>
<text text-anchor="middle" x="26.5" y="-457.89" font-family="Helvetica,sans-Serif" font-size="10.00">SvcMain</text>
</a>
</g>
</g>
<!-- Node2 -->
<g id="node2" class="node">
<title>Node2</title>
<g id="a_node2"><a xlink:href="class_u___c_o_n_f_i_g_u_r_a_t_i_o_n.html#aafcf880d7361d9f00cd4dd497c3a97fa" target="_top" xlink:title="Get the communication port used by the driver to interact with the service.">
<polygon fill="none" stroke="black" points="89,-636.89 89,-655.89 304,-655.89 304,-636.89 89,-636.89"/>
<text text-anchor="middle" x="196.5" y="-643.89" font-family="Helvetica,sans-Serif" font-size="10.00">U_CONFIGURATION::GetCommunicationPort</text>
</a>
</g>
</g>
<!-- Node1&#45;&gt;Node2 -->
<g id="edge1" class="edge">
<title>Node1&#45;&gt;Node2</title>
<path fill="none" stroke="midnightblue" d="M27.9,-470.18C29.65,-499.23 39.02,-585.53 89,-627.39 90.81,-628.91 92.71,-630.33 94.67,-631.65"/>
<polygon fill="midnightblue" stroke="midnightblue" points="93.24,-634.86 103.65,-636.83 96.74,-628.8 93.24,-634.86"/>
</g>
<!-- Node4 -->
<g id="node4" class="node">
<title>Node4</title>
<g id="a_node4"><a xlink:href="class_u___c_o_n_f_i_g_u_r_a_t_i_o_n.html#a11328249616049976aeafd9ad80429bc" target="_top" xlink:title="Get the number of threads of the service by reading the values in the Registry.">
<polygon fill="none" stroke="black" points="114.5,-587.39 114.5,-617.39 278.5,-617.39 278.5,-587.39 114.5,-587.39"/>
<text text-anchor="start" x="122.5" y="-605.39" font-family="Helvetica,sans-Serif" font-size="10.00">U_CONFIGURATION::GetListener</text>
<text text-anchor="middle" x="196.5" y="-594.39" font-family="Helvetica,sans-Serif" font-size="10.00">Threads</text>
</a>
</g>
</g>
<!-- Node1&#45;&gt;Node4 -->
<g id="edge3" class="edge">
<title>Node1&#45;&gt;Node4</title>
<path fill="none" stroke="midnightblue" d="M29.62,-470.13C35.11,-492.92 52.02,-549.93 89,-578.39 93.98,-582.22 99.45,-585.47 105.21,-588.21"/>
<polygon fill="midnightblue" stroke="midnightblue" points="103.89,-591.45 114.46,-592.11 106.61,-585 103.89,-591.45"/>
</g>
<!-- Node5 -->
<g id="node5" class="node">
<title>Node5</title>
<g id="a_node5"><a xlink:href="class_u___c_o_n_f_i_g_u_r_a_t_i_o_n.html#a86c433a3d57e5800ad03a4411ace09d6" target="_top" xlink:title="Get the number of threads of the service by reading the values in the REGISTRY::">
<polygon fill="none" stroke="black" points="107,-538.39 107,-568.39 286,-568.39 286,-538.39 107,-538.39"/>
<text text-anchor="start" x="115" y="-556.39" font-family="Helvetica,sans-Serif" font-size="10.00">U_CONFIGURATION::GetMaxWorker</text>
<text text-anchor="middle" x="196.5" y="-545.39" font-family="Helvetica,sans-Serif" font-size="10.00">Threads</text>
</a>
</g>
</g>
<!-- Node1&#45;&gt;Node5 -->
<g id="edge5" class="edge">
<title>Node1&#45;&gt;Node5</title>
<path fill="none" stroke="midnightblue" d="M33.32,-470.14C42.92,-485.32 63.56,-514.41 89,-529.39 92.03,-531.18 95.18,-532.83 98.42,-534.36"/>
<polygon fill="midnightblue" stroke="midnightblue" points="97.18,-537.64 107.75,-538.35 99.94,-531.2 97.18,-537.64"/>
</g>
<!-- Node6 -->
<g id="node6" class="node">
<title>Node6</title>
<g id="a_node6"><a xlink:href="class_u___c_o_n_f_i_g_u_r_a_t_i_o_n.html#a3979610ba0d110c0e79481925f413ea0" target="_top" xlink:title="Get the number of threads of the service by reading the values in the Registry.">
<polygon fill="none" stroke="black" points="108.5,-489.39 108.5,-519.39 284.5,-519.39 284.5,-489.39 108.5,-489.39"/>
<text text-anchor="start" x="116.5" y="-507.39" font-family="Helvetica,sans-Serif" font-size="10.00">U_CONFIGURATION::GetMinWorker</text>
<text text-anchor="middle" x="196.5" y="-496.39" font-family="Helvetica,sans-Serif" font-size="10.00">Threads</text>
</a>
</g>
</g>
<!-- Node1&#45;&gt;Node6 -->
<g id="edge7" class="edge">
<title>Node1&#45;&gt;Node6</title>
<path fill="none" stroke="midnightblue" d="M53.02,-467.08C72.96,-472.3 101.63,-479.81 128.03,-486.72"/>
<polygon fill="midnightblue" stroke="midnightblue" points="127.46,-490.19 138.02,-489.34 129.23,-483.42 127.46,-490.19"/>
</g>
<!-- Node7 -->
<g id="node7" class="node">
<title>Node7</title>
<g id="a_node7"><a xlink:href="class_u___c_o_n_t_r_o_l_l_e_r.html#a031d85cad5238299ce37dcac69a91ffc" target="_top" xlink:title="Start the service &quot;szServiceName&quot;.">
<polygon fill="none" stroke="black" points="560.5,-531.89 560.5,-550.89 722.5,-550.89 722.5,-531.89 560.5,-531.89"/>
<text text-anchor="middle" x="641.5" y="-538.89" font-family="Helvetica,sans-Serif" font-size="10.00">U_CONTROLLER::LaunchService</text>
</a>
</g>
</g>
<!-- Node1&#45;&gt;Node7 -->
<g id="edge9" class="edge">
<title>Node1&#45;&gt;Node7</title>
<path fill="none" stroke="midnightblue" d="M53.13,-461.33C102.06,-463.32 212.08,-468.77 304,-480.39 356.67,-487.05 499.99,-514.18 581.59,-529.93"/>
<polygon fill="midnightblue" stroke="midnightblue" points="581.23,-533.42 591.71,-531.88 582.55,-526.55 581.23,-533.42"/>
</g>
<!-- Node13 -->
<g id="node13" class="node">
<title>Node13</title>
<g id="a_node13"><a xlink:href="class_u___c_o_m_m_u_n_i_c_a_t_i_o_n.html#a1cbfbcf7e7e895608457abf405455e6a" target="_top" xlink:title="Thread listening message sends from kernel driver.">
<polygon fill="none" stroke="black" points="121,-393.39 121,-423.39 272,-423.39 272,-393.39 121,-393.39"/>
<text text-anchor="start" x="129" y="-411.39" font-family="Helvetica,sans-Serif" font-size="10.00">U_COMMUNICATION::Listener</text>
<text text-anchor="middle" x="196.5" y="-400.39" font-family="Helvetica,sans-Serif" font-size="10.00">Thread</text>
</a>
</g>
</g>
<!-- Node1&#45;&gt;Node13 -->
<g id="edge16" class="edge">
<title>Node1&#45;&gt;Node13</title>
<path fill="none" stroke="midnightblue" d="M53.02,-452.5C75.19,-445.63 108.15,-435.43 136.78,-426.57"/>
<polygon fill="midnightblue" stroke="midnightblue" points="138.19,-429.8 146.71,-423.5 136.12,-423.11 138.19,-429.8"/>
</g>
<!-- Node17 -->
<g id="node17" class="node">
<title>Node17</title>
<g id="a_node17"><a xlink:href="class_u___l_o_g_s.html#a0f2932b79fce103453dd1cfc60de2007" target="_top" xlink:title="Send the reported event in the Event Viewer (Application &#45;&gt; PI&#45;Defender_UM).">
<polygon fill="none" stroke="black" points="792,-192.89 792,-211.89 922,-211.89 922,-192.89 792,-192.89"/>
<text text-anchor="middle" x="857" y="-199.89" font-family="Helvetica,sans-Serif" font-size="10.00">U_LOGS::SvcReportEvent</text>
</a>
</g>
</g>
<!-- Node1&#45;&gt;Node17 -->
<g id="edge36" class="edge">
<title>Node1&#45;&gt;Node17</title>
<path fill="none" stroke="midnightblue" d="M33.79,-450.64C44.04,-435.26 65.56,-405.03 89,-384.39 187.41,-297.76 217.29,-275.58 340,-229.39 488.89,-173.36 679.13,-182 781.97,-192.6"/>
<polygon fill="midnightblue" stroke="midnightblue" points="781.63,-196.09 791.94,-193.67 782.37,-189.13 781.63,-196.09"/>
</g>
<!-- Node21 -->
<g id="node21" class="node">
<title>Node21</title>
<g id="a_node21"><a xlink:href="class_u___c_o_n_t_r_o_l_l_e_r.html#a62de7b3a08b00dde2a3de3fa50ed52ea" target="_top" xlink:title="Receive signal send by the User / SC Manager, handle it, update service status.">
<polygon fill="none" stroke="black" points="115,-78.89 115,-97.89 278,-97.89 278,-78.89 115,-78.89"/>
<text text-anchor="middle" x="196.5" y="-85.89" font-family="Helvetica,sans-Serif" font-size="10.00">U_CONTROLLER::SvcCtrlHandler</text>
</a>
</g>
</g>
<!-- Node1&#45;&gt;Node21 -->
<g id="edge28" class="edge">
<title>Node1&#45;&gt;Node21</title>
<path fill="none" stroke="midnightblue" d="M28.35,-450.7C32.63,-403.82 52.99,-200.86 89,-150.39 105.31,-127.53 132.89,-111.82 155.9,-101.93"/>
<polygon fill="midnightblue" stroke="midnightblue" points="157.49,-105.06 165.43,-98.04 154.85,-98.58 157.49,-105.06"/>
</g>
<!-- Node25 -->
<g id="node25" class="node">
<title>Node25</title>
<g id="a_node25"><a xlink:href="class_u___c_o_n_t_r_o_l_l_e_r.html#a01343cb31a17c7a8077472a59927415a" target="_top" xlink:title="Depending on the state of the service, it can receive order from the user space.">
<polygon fill="none" stroke="black" points="340,-2.89 340,-21.89 512,-21.89 512,-2.89 340,-2.89"/>
<text text-anchor="middle" x="426" y="-9.89" font-family="Helvetica,sans-Serif" font-size="10.00">U_CONTROLLER::SvcReportStatus</text>
</a>
</g>
</g>
<!-- Node1&#45;&gt;Node25 -->
<g id="edge37" class="edge">
<title>Node1&#45;&gt;Node25</title>
<path fill="none" stroke="midnightblue" d="M27.56,-450.85C28.08,-396.42 33.46,-125.61 89,-69.39 155.76,-1.82 270.93,3.41 347.53,-2.07"/>
<polygon fill="midnightblue" stroke="midnightblue" points="347.37,-5.57 357.61,-2.87 347.92,1.41 347.37,-5.57"/>
</g>
<!-- Node3 -->
<g id="node3" class="node">
<title>Node3</title>
<g id="a_node3"><a xlink:href="class_u___r_e_g_i_s_t_r_y.html#ab8fcbe86de2429b471dcaa94d9025aa8" target="_top" xlink:title="Read the content (DWORD) of the registry key &quot;szSubKey&quot; located in the HIVE &quot;hKeyParent&quot;.">
<polygon fill="none" stroke="black" points="360.5,-574.89 360.5,-593.89 491.5,-593.89 491.5,-574.89 360.5,-574.89"/>
<text text-anchor="middle" x="426" y="-581.89" font-family="Helvetica,sans-Serif" font-size="10.00">U_REGISTRY::ReadValue</text>
</a>
</g>
</g>
<!-- Node2&#45;&gt;Node3 -->
<g id="edge2" class="edge">
<title>Node2&#45;&gt;Node3</title>
<path fill="none" stroke="midnightblue" d="M260.95,-636.84C275.21,-634.21 290.2,-631.05 304,-627.39 334.49,-619.31 368.25,-607.03 392.34,-597.65"/>
<polygon fill="midnightblue" stroke="midnightblue" points="393.69,-600.88 401.71,-593.96 391.13,-594.37 393.69,-600.88"/>
</g>
<!-- Node4&#45;&gt;Node3 -->
<g id="edge4" class="edge">
<title>Node4&#45;&gt;Node3</title>
<path fill="none" stroke="midnightblue" d="M278.67,-595.97C302.01,-594.12 327.35,-592.12 350.29,-590.3"/>
<polygon fill="midnightblue" stroke="midnightblue" points="350.6,-593.79 360.3,-589.51 350.05,-586.81 350.6,-593.79"/>
</g>
<!-- Node5&#45;&gt;Node3 -->
<g id="edge6" class="edge">
<title>Node5&#45;&gt;Node3</title>
<path fill="none" stroke="midnightblue" d="M286.11,-565.47C307.24,-568.35 329.59,-571.39 350.04,-574.18"/>
<polygon fill="midnightblue" stroke="midnightblue" points="349.85,-577.68 360.23,-575.57 350.8,-570.75 349.85,-577.68"/>
</g>
<!-- Node6&#45;&gt;Node3 -->
<g id="edge8" class="edge">
<title>Node6&#45;&gt;Node3</title>
<path fill="none" stroke="midnightblue" d="M270.22,-519.45C281.63,-522.39 293.21,-525.72 304,-529.39 337.21,-540.72 373.65,-557.99 397.78,-570.15"/>
<polygon fill="midnightblue" stroke="midnightblue" points="396.51,-573.43 407.01,-574.86 399.69,-567.2 396.51,-573.43"/>
</g>
<!-- Node8 -->
<g id="node8" class="node">
<title>Node8</title>
<g id="a_node8"><a xlink:href="class_u___c_o_n_t_r_o_l_l_e_r.html#a65733b52c6801a89b0c12d7836feef9c" target="_top" xlink:title="Get a handle to the Service Controller Database.">
<polygon fill="none" stroke="black" points="771,-78.89 771,-97.89 943,-97.89 943,-78.89 771,-78.89"/>
<text text-anchor="middle" x="857" y="-85.89" font-family="Helvetica,sans-Serif" font-size="10.00">U_CONTROLLER::_GetSCMHandle</text>
</a>
</g>
</g>
<!-- Node7&#45;&gt;Node8 -->
<g id="edge10" class="edge">
<title>Node7&#45;&gt;Node8</title>
<path fill="none" stroke="midnightblue" d="M670.84,-531.72C692.17,-522.87 720.17,-507.6 735,-484.39 807.57,-370.87 715.51,-306.17 771,-183.39 785.67,-150.92 815.51,-121.72 835.63,-104.52"/>
<polygon fill="midnightblue" stroke="midnightblue" points="838.14,-106.99 843.59,-97.9 833.66,-101.6 838.14,-106.99"/>
</g>
<!-- Node9 -->
<g id="node9" class="node">
<title>Node9</title>
<g id="a_node9"><a xlink:href="class_u___c_o_n_t_r_o_l_l_e_r.html#a6cbf07b4ef4a8f7f1e148e7b6d5bcb5d" target="_top" xlink:title="Get a handle to the service.">
<polygon fill="none" stroke="black" points="781,-529.39 781,-559.39 933,-559.39 933,-529.39 781,-529.39"/>
<text text-anchor="start" x="789" y="-547.39" font-family="Helvetica,sans-Serif" font-size="10.00">U_CONTROLLER::_GetService</text>
<text text-anchor="middle" x="857" y="-536.39" font-family="Helvetica,sans-Serif" font-size="10.00">Handle</text>
</a>
</g>
</g>
<!-- Node7&#45;&gt;Node9 -->
<g id="edge11" class="edge">
<title>Node7&#45;&gt;Node9</title>
<path fill="none" stroke="midnightblue" d="M722.61,-542.52C738.23,-542.74 754.67,-542.97 770.47,-543.19"/>
<polygon fill="midnightblue" stroke="midnightblue" points="770.69,-546.69 780.74,-543.34 770.79,-539.7 770.69,-546.69"/>
</g>
<!-- Node10 -->
<g id="node10" class="node">
<title>Node10</title>
<g id="a_node10"><a xlink:href="class_u___h_e_l_p_e_r.html#a6fca38e2de32e2da0598743ef731c2f1" target="_top" xlink:title="This routine will display an error message based off of the Win32 error code that is passed in.">
<polygon fill="none" stroke="black" points="793.5,-490.89 793.5,-509.89 920.5,-509.89 920.5,-490.89 793.5,-490.89"/>
<text text-anchor="middle" x="857" y="-497.89" font-family="Helvetica,sans-Serif" font-size="10.00">U_HELPER::DisplayError</text>
</a>
</g>
</g>
<!-- Node7&#45;&gt;Node10 -->
<g id="edge12" class="edge">
<title>Node7&#45;&gt;Node10</title>
<path fill="none" stroke="midnightblue" d="M692.02,-531.88C723.16,-525.9 763.54,-518.15 796.43,-511.83"/>
<polygon fill="midnightblue" stroke="midnightblue" points="797.22,-515.24 806.38,-509.92 795.9,-508.37 797.22,-515.24"/>
</g>
<!-- Node11 -->
<g id="node11" class="node">
<title>Node11</title>
<g id="a_node11"><a xlink:href="class_u___h_e_l_p_e_r.html#a74e583e738595b638363c7cdec7b3d3f" target="_top" xlink:title="Popup error message displaying the function that failed associated with the error code.">
<polygon fill="none" stroke="black" points="979,-509.89 979,-528.89 1125,-528.89 1125,-509.89 979,-509.89"/>
<text text-anchor="middle" x="1052" y="-516.89" font-family="Helvetica,sans-Serif" font-size="10.00">U_HELPER::DisplayMessage</text>
</a>
</g>
</g>
<!-- Node10&#45;&gt;Node11 -->
<g id="edge13" class="edge">
<title>Node10&#45;&gt;Node11</title>
<path fill="none" stroke="midnightblue" d="M920.66,-506.56C936.07,-508.08 952.79,-509.72 968.96,-511.32"/>
<polygon fill="midnightblue" stroke="midnightblue" points="968.64,-514.8 978.93,-512.3 969.32,-507.84 968.64,-514.8"/>
</g>
<!-- Node12 -->
<g id="node12" class="node">
<title>Node12</title>
<g id="a_node12"><a xlink:href="class_u___h_e_l_p_e_r.html#a54991307972870225fd074f0e7a21686" target="_top" xlink:title="Print error message in the terminal.">
<polygon fill="none" stroke="black" points="1161,-490.89 1161,-509.89 1295,-509.89 1295,-490.89 1161,-490.89"/>
<text text-anchor="middle" x="1228" y="-497.89" font-family="Helvetica,sans-Serif" font-size="10.00">U_HELPER::PrintMessage</text>
</a>
</g>
</g>
<!-- Node10&#45;&gt;Node12 -->
<g id="edge15" class="edge">
<title>Node10&#45;&gt;Node12</title>
<path fill="none" stroke="midnightblue" d="M920.6,-500.39C984.16,-500.39 1082.66,-500.39 1150.74,-500.39"/>
<polygon fill="midnightblue" stroke="midnightblue" points="1150.98,-503.89 1160.98,-500.39 1150.98,-496.89 1150.98,-503.89"/>
</g>
<!-- Node11&#45;&gt;Node12 -->
<g id="edge14" class="edge">
<title>Node11&#45;&gt;Node12</title>
<path fill="none" stroke="midnightblue" d="M1125.03,-511.53C1133.56,-510.6 1142.29,-509.64 1150.88,-508.7"/>
<polygon fill="midnightblue" stroke="midnightblue" points="1151.32,-512.18 1160.88,-507.61 1150.56,-505.22 1151.32,-512.18"/>
</g>
<!-- Node13&#45;&gt;Node10 -->
<g id="edge26" class="edge">
<title>Node13&#45;&gt;Node10</title>
<path fill="none" stroke="midnightblue" d="M253.46,-423.46C322.24,-441.3 442.77,-470.35 548,-484.39 628.06,-495.08 720.72,-498.73 783.32,-499.92"/>
<polygon fill="midnightblue" stroke="midnightblue" points="783.43,-503.42 793.49,-500.1 783.55,-496.43 783.43,-503.42"/>
</g>
<!-- Node14 -->
<g id="node14" class="node">
<title>Node14</title>
<g id="a_node14"><a xlink:href="class_u___c_o_m_m_u_n_i_c_a_t_i_o_n.html#a87d0f531204d9141da9e181c20a18c59" target="_top" xlink:title="Worker thread used to check file signature.">
<polygon fill="none" stroke="black" points="349.5,-362.39 349.5,-392.39 502.5,-392.39 502.5,-362.39 349.5,-362.39"/>
<text text-anchor="start" x="357.5" y="-380.39" font-family="Helvetica,sans-Serif" font-size="10.00">U_COMMUNICATION::_Worker</text>
<text text-anchor="middle" x="426" y="-369.39" font-family="Helvetica,sans-Serif" font-size="10.00">Thread</text>
</a>
</g>
</g>
<!-- Node13&#45;&gt;Node14 -->
<g id="edge17" class="edge">
<title>Node13&#45;&gt;Node14</title>
<path fill="none" stroke="midnightblue" d="M272.31,-398.2C293.76,-395.28 317.31,-392.07 339.36,-389.06"/>
<polygon fill="midnightblue" stroke="midnightblue" points="339.93,-392.52 349.37,-387.7 338.99,-385.58 339.93,-392.52"/>
</g>
<!-- Node13&#45;&gt;Node17 -->
<g id="edge27" class="edge">
<title>Node13&#45;&gt;Node17</title>
<path fill="none" stroke="midnightblue" d="M218.27,-393.23C270.5,-356.08 412.8,-260.74 548,-222.39 625.52,-200.41 718.25,-197.35 781.56,-198.57"/>
<polygon fill="midnightblue" stroke="midnightblue" points="781.78,-202.07 791.86,-198.81 781.94,-195.08 781.78,-202.07"/>
</g>
<!-- Node15 -->
<g id="node15" class="node">
<title>Node15</title>
<g id="a_node15"><a xlink:href="class_u___c_o_m_m_u_n_i_c_a_t_i_o_n.html#a6f2f0c62b6e4f1270d5c95c6e6521ee3" target="_top" xlink:title="Push a new message in the queue.">
<polygon fill="none" stroke="black" points="548,-444.39 548,-474.39 735,-474.39 735,-444.39 548,-444.39"/>
<text text-anchor="start" x="556" y="-462.39" font-family="Helvetica,sans-Serif" font-size="10.00">U_COMMUNICATION::_PumpMessage</text>
<text text-anchor="middle" x="641.5" y="-451.39" font-family="Helvetica,sans-Serif" font-size="10.00">InQueue</text>
</a>
</g>
</g>
<!-- Node14&#45;&gt;Node15 -->
<g id="edge18" class="edge">
<title>Node14&#45;&gt;Node15</title>
<path fill="none" stroke="midnightblue" d="M455.24,-392.44C479.38,-404.88 515.31,-422.38 548,-434.39 554.76,-436.88 561.89,-439.24 569.05,-441.44"/>
<polygon fill="midnightblue" stroke="midnightblue" points="568.24,-444.85 578.82,-444.35 570.24,-438.14 568.24,-444.85"/>
</g>
<!-- Node16 -->
<g id="node16" class="node">
<title>Node16</title>
<g id="a_node16"><a xlink:href="class_u___c_o_m_m_u_n_i_c_a_t_i_o_n.html#ac7267746e2596819493bbf7fca1d4520" target="_top" xlink:title="Reply to the kernel driver.">
<polygon fill="none" stroke="black" points="568.5,-405.89 568.5,-424.89 714.5,-424.89 714.5,-405.89 568.5,-405.89"/>
<text text-anchor="middle" x="641.5" y="-412.89" font-family="Helvetica,sans-Serif" font-size="10.00">U_COMMUNICATION::_Reply</text>
</a>
</g>
</g>
<!-- Node14&#45;&gt;Node16 -->
<g id="edge20" class="edge">
<title>Node14&#45;&gt;Node16</title>
<path fill="none" stroke="midnightblue" d="M502.57,-390.84C526.81,-395.16 553.41,-399.89 576.72,-404.04"/>
<polygon fill="midnightblue" stroke="midnightblue" points="576.38,-407.53 586.84,-405.84 577.6,-400.64 576.38,-407.53"/>
</g>
<!-- Node14&#45;&gt;Node17 -->
<g id="edge23" class="edge">
<title>Node14&#45;&gt;Node17</title>
<path fill="none" stroke="midnightblue" d="M502.55,-389.38C567.93,-396.02 663.01,-396.45 735,-358.39 792.94,-327.76 831.83,-255.85 847.81,-221.42"/>
<polygon fill="midnightblue" stroke="midnightblue" points="851.12,-222.58 852.02,-212.03 844.74,-219.72 851.12,-222.58"/>
</g>
<!-- Node18 -->
<g id="node18" class="node">
<title>Node18</title>
<g id="a_node18"><a xlink:href="class_u___h_e_l_p_e_r.html#a0532d2f45a1a8977c99caf1c6d27e7c1" target="_top" xlink:title=" ">
<polygon fill="none" stroke="black" points="550,-329.89 550,-348.89 733,-348.89 733,-329.89 550,-329.89"/>
<text text-anchor="middle" x="641.5" y="-336.89" font-family="Helvetica,sans-Serif" font-size="10.00">U_HELPER::GetHandleFromFileName</text>
</a>
</g>
</g>
<!-- Node14&#45;&gt;Node18 -->
<g id="edge22" class="edge">
<title>Node14&#45;&gt;Node18</title>
<path fill="none" stroke="midnightblue" d="M502.57,-363.94C526.81,-359.63 553.41,-354.89 576.72,-350.74"/>
<polygon fill="midnightblue" stroke="midnightblue" points="577.6,-354.14 586.84,-348.94 576.38,-347.25 577.6,-354.14"/>
</g>
<!-- Node19 -->
<g id="node19" class="node">
<title>Node19</title>
<g id="a_node19"><a xlink:href="class_u___s_i_g_n_a_t_u_r_e.html#a4a2b43ca305cb41a3eab3b76d60cb6db" target="_top" xlink:title="Verify the signature of &#39;szFile&#39; by looking at catalogs files.">
<polygon fill="none" stroke="black" points="567.5,-280.39 567.5,-310.39 715.5,-310.39 715.5,-280.39 567.5,-280.39"/>
<text text-anchor="start" x="575.5" y="-298.39" font-family="Helvetica,sans-Serif" font-size="10.00">U_SIGNATURE::VerifyCatalog</text>
<text text-anchor="middle" x="641.5" y="-287.39" font-family="Helvetica,sans-Serif" font-size="10.00">Signature</text>
</a>
</g>
</g>
<!-- Node14&#45;&gt;Node19 -->
<g id="edge24" class="edge">
<title>Node14&#45;&gt;Node19</title>
<path fill="none" stroke="midnightblue" d="M455.24,-362.35C479.38,-349.91 515.31,-332.41 548,-320.39 554.76,-317.91 561.89,-315.55 569.05,-313.34"/>
<polygon fill="midnightblue" stroke="midnightblue" points="570.24,-316.64 578.82,-310.43 568.24,-309.93 570.24,-316.64"/>
</g>
<!-- Node20 -->
<g id="node20" class="node">
<title>Node20</title>
<g id="a_node20"><a xlink:href="class_u___s_i_g_n_a_t_u_r_e.html#a08a76b9f115ae35af11c805c8a58ebb0" target="_top" xlink:title="Check if the file &quot;szFile&quot; is signed by a trusted authority.">
<polygon fill="none" stroke="black" points="561,-231.39 561,-261.39 722,-261.39 722,-231.39 561,-231.39"/>
<text text-anchor="start" x="569" y="-249.39" font-family="Helvetica,sans-Serif" font-size="10.00">U_SIGNATURE::VerifyEmbedded</text>
<text text-anchor="middle" x="641.5" y="-238.39" font-family="Helvetica,sans-Serif" font-size="10.00">Signature</text>
</a>
</g>
</g>
<!-- Node14&#45;&gt;Node20 -->
<g id="edge25" class="edge">
<title>Node14&#45;&gt;Node20</title>
<path fill="none" stroke="midnightblue" d="M439.92,-362.34C460.47,-339.32 502.95,-295.52 548,-271.39 552.27,-269.11 556.76,-267.02 561.37,-265.11"/>
<polygon fill="midnightblue" stroke="midnightblue" points="562.87,-268.29 570.96,-261.45 560.37,-261.75 562.87,-268.29"/>
</g>
<!-- Node15&#45;&gt;Node10 -->
<g id="edge19" class="edge">
<title>Node15&#45;&gt;Node10</title>
<path fill="none" stroke="midnightblue" d="M720.79,-474.43C745.67,-479.2 772.77,-484.41 796.14,-488.9"/>
<polygon fill="midnightblue" stroke="midnightblue" points="795.77,-492.39 806.25,-490.84 797.09,-485.52 795.77,-492.39"/>
</g>
<!-- Node16&#45;&gt;Node17 -->
<g id="edge21" class="edge">
<title>Node16&#45;&gt;Node17</title>
<path fill="none" stroke="midnightblue" d="M705.56,-405.82C716.01,-402.39 726.27,-397.73 735,-391.39 796.69,-346.64 834.75,-259.93 849.27,-221.51"/>
<polygon fill="midnightblue" stroke="midnightblue" points="852.59,-222.63 852.75,-212.03 846.02,-220.22 852.59,-222.63"/>
</g>
<!-- Node21&#45;&gt;Node17 -->
<g id="edge34" class="edge">
<title>Node21&#45;&gt;Node17</title>
<path fill="none" stroke="midnightblue" d="M266.31,-97.91C289.69,-101.05 315.97,-104.48 340,-107.39 515.31,-128.62 564.21,-105.48 735,-150.39 768.62,-159.24 804.99,-175.92 828.98,-188.01"/>
<polygon fill="midnightblue" stroke="midnightblue" points="827.66,-191.26 838.15,-192.71 830.85,-185.03 827.66,-191.26"/>
</g>
<!-- Node22 -->
<g id="node22" class="node">
<title>Node22</title>
<g id="a_node22"><a xlink:href="class_u___c_o_m_m_u_n_i_c_a_t_i_o_n.html#a24b9f6b8b2ec28d44b96e46804ee7ddb" target="_top" xlink:title="Disconnect the client.">
<polygon fill="none" stroke="black" points="343.5,-78.89 343.5,-97.89 508.5,-97.89 508.5,-78.89 343.5,-78.89"/>
<text text-anchor="middle" x="426" y="-85.89" font-family="Helvetica,sans-Serif" font-size="10.00">U_COMMUNICATION::Disconnect</text>
</a>
</g>
</g>
<!-- Node21&#45;&gt;Node22 -->
<g id="edge29" class="edge">
<title>Node21&#45;&gt;Node22</title>
<path fill="none" stroke="midnightblue" d="M278.03,-88.39C295.93,-88.39 315.04,-88.39 333.35,-88.39"/>
<polygon fill="midnightblue" stroke="midnightblue" points="333.43,-91.89 343.43,-88.39 333.43,-84.89 333.43,-91.89"/>
</g>
<!-- Node23 -->
<g id="node23" class="node">
<title>Node23</title>
<g id="a_node23"><a xlink:href="class_u___c_o_n_t_r_o_l_l_e_r.html#a32bed2bf85d659bbaff8e1d3fcafa42e" target="_top" xlink:title="Stop the service &quot;szServiceName&quot;.">
<polygon fill="none" stroke="black" points="350.5,-40.89 350.5,-59.89 501.5,-59.89 501.5,-40.89 350.5,-40.89"/>
<text text-anchor="middle" x="426" y="-47.89" font-family="Helvetica,sans-Serif" font-size="10.00">U_CONTROLLER::StopService</text>
</a>
</g>
</g>
<!-- Node21&#45;&gt;Node23 -->
<g id="edge30" class="edge">
<title>Node21&#45;&gt;Node23</title>
<path fill="none" stroke="midnightblue" d="M254.61,-78.85C285.99,-73.61 325.07,-67.08 357.89,-61.6"/>
<polygon fill="midnightblue" stroke="midnightblue" points="358.58,-65.04 367.86,-59.94 357.42,-58.13 358.58,-65.04"/>
</g>
<!-- Node21&#45;&gt;Node25 -->
<g id="edge35" class="edge">
<title>Node21&#45;&gt;Node25</title>
<path fill="none" stroke="midnightblue" d="M221.06,-78.86C259.97,-63.12 334.02,-33.24 340,-31.39 348.4,-28.79 357.36,-26.4 366.2,-24.24"/>
<polygon fill="midnightblue" stroke="midnightblue" points="367.17,-27.61 376.1,-21.91 365.56,-20.8 367.17,-27.61"/>
</g>
<!-- Node23&#45;&gt;Node8 -->
<g id="edge31" class="edge">
<title>Node23&#45;&gt;Node8</title>
<path fill="none" stroke="midnightblue" d="M484.42,-59.93C504.49,-63 527.2,-66.17 548,-68.39 619.17,-75.98 699.91,-81.1 760.87,-84.25"/>
<polygon fill="midnightblue" stroke="midnightblue" points="760.7,-87.75 770.86,-84.76 761.05,-80.76 760.7,-87.75"/>
</g>
<!-- Node24 -->
<g id="node24" class="node">
<title>Node24</title>
<g id="a_node24"><a xlink:href="class_u___c_o_n_t_r_o_l_l_e_r.html#af55beae6c2742cab857466b32140a5dd" target="_top" xlink:title="Query the service &quot;szServiceName&quot; and return its state.">
<polygon fill="none" stroke="black" points="568.5,-29.39 568.5,-59.39 714.5,-59.39 714.5,-29.39 568.5,-29.39"/>
<text text-anchor="start" x="576.5" y="-47.39" font-family="Helvetica,sans-Serif" font-size="10.00">U_CONTROLLER::GetService</text>
<text text-anchor="middle" x="641.5" y="-36.39" font-family="Helvetica,sans-Serif" font-size="10.00">State</text>
</a>
</g>
</g>
<!-- Node23&#45;&gt;Node24 -->
<g id="edge32" class="edge">
<title>Node23&#45;&gt;Node24</title>
<path fill="none" stroke="midnightblue" d="M501.67,-48.29C519.93,-47.78 539.58,-47.23 558.18,-46.71"/>
<polygon fill="midnightblue" stroke="midnightblue" points="558.49,-50.2 568.39,-46.42 558.29,-43.2 558.49,-50.2"/>
</g>
<!-- Node24&#45;&gt;Node8 -->
<g id="edge33" class="edge">
<title>Node24&#45;&gt;Node8</title>
<path fill="none" stroke="midnightblue" d="M714.78,-59.29C742.44,-64.99 773.56,-71.4 799.53,-76.76"/>
<polygon fill="midnightblue" stroke="midnightblue" points="799.08,-80.24 809.58,-78.83 800.5,-73.38 799.08,-80.24"/>
</g>
</g>
</svg>
        <g id="navigator" transform="translate(0 0)" fill="#404254">
                <rect fill="#f2f5e9" fill-opacity="0.5" stroke="#606060" stroke-width=".5" x="0" y="0" width="60" height="60"/>
                <use id="zoomplus" xlink:href="#zoomPlus" x="17" y="9" onmousedown="handleZoom(evt,'in')"/>
                <use id="zoomminus" xlink:href="#zoomMin" x="42" y="9" onmousedown="handleZoom(evt,'out')"/>
                <use id="reset" xlink:href="#resetDef" x="30" y="36" onmousedown="handleReset()"/>
                <g id="arrowUp" xlink:href="#dirArrow" transform="translate(30 24)" onmousedown="handlePan(0,-1)">
                  <use xlink:href="#rim" fill="#404040">
                        <set attributeName="fill" to="#808080" begin="arrowUp.mouseover" end="arrowUp.mouseout"/>
                  </use>
                  <path fill="none" stroke="white" stroke-width="1.5" d="M0,-3.0v7 M-2.5,-0.5L0,-3.0L2.5,-0.5"/>
                </g>
                <g id="arrowRight" xlink:href="#dirArrow" transform="rotate(90) translate(36 -43)" onmousedown="handlePan(1,0)">
                  <use xlink:href="#rim" fill="#404040">
                        <set attributeName="fill" to="#808080" begin="arrowRight.mouseover" end="arrowRight.mouseout"/>
                  </use>
                  <path fill="none" stroke="white" stroke-width="1.5" d="M0,-3.0v7 M-2.5,-0.5L0,-3.0L2.5,-0.5"/>
                </g>
                <g id="arrowDown" xlink:href="#dirArrow" transform="rotate(180) translate(-30 -48)" onmousedown="handlePan(0,1)">
                  <use xlink:href="#rim" fill="#404040">
                        <set attributeName="fill" to="#808080" begin="arrowDown.mouseover" end="arrowDown.mouseout"/>
                  </use>
                  <path fill="none" stroke="white" stroke-width="1.5" d="M0,-3.0v7 M-2.5,-0.5L0,-3.0L2.5,-0.5"/>
                </g>
                <g id="arrowLeft" xlink:href="#dirArrow" transform="rotate(270) translate(-36 17)" onmousedown="handlePan(-1,0)">
                  <use xlink:href="#rim" fill="#404040">
                        <set attributeName="fill" to="#808080" begin="arrowLeft.mouseover" end="arrowLeft.mouseout"/>
                  </use>
                  <path fill="none" stroke="white" stroke-width="1.5" d="M0,-3.0v7 M-2.5,-0.5L0,-3.0L2.5,-0.5"/>
                </g>
        </g>
        <svg viewBox="0 0 15 15" width="100%" height="30px" preserveAspectRatio="xMaxYMin meet">
         <g id="arrow_out" transform="scale(0.3 0.3)">
          <a xlink:href="_u___service_8hpp_a2ef7fa664545ef1bfd08460f37d2140a_cgraph_org.svg" target="_base">
           <rect id="button" ry="5" rx="5" y="6" x="6" height="38" width="38"
                fill="#f2f5e9" fill-opacity="0.5" stroke="#606060" stroke-width="1.0"/>
           <path id="arrow"
             d="M 11.500037,31.436501 C 11.940474,20.09759 22.043105,11.32322 32.158766,21.979434 L 37.068811,17.246167 C 37.068811,17.246167 37.088388,32 37.088388,32 L 22.160133,31.978069 C 22.160133,31.978069 26.997745,27.140456 26.997745,27.140456 C 18.528582,18.264221 13.291696,25.230495 11.500037,31.436501 z"
             style="fill:#404040;"/>
          </a>
         </g>
        </svg>
</svg>
