<?xml version="1.0" encoding="UTF-8" standalone="no"?>
<!DOCTYPE svg PUBLIC "-//W3C//DTD SVG 1.1//EN"
 "http://www.w3.org/Graphics/SVG/1.1/DTD/svg11.dtd">
<!-- Generated by graphviz version 4.0.0 (20220529.0937)
 -->
<!-- Title: C:/Users/admin&#45;cyb/Desktop/pi&#45;defender/Sources/PI&#45;Defender_UM/U_Signature.hpp Pages: 1 -->
<svg width="549pt" height="173pt"
 viewBox="0.00 0.00 548.50 173.00" xmlns="http://www.w3.org/2000/svg" xmlns:xlink="http://www.w3.org/1999/xlink">
<g id="graph0" class="graph" transform="scale(1 1) rotate(0) translate(4 169)">
<title>C:/Users/admin&#45;cyb/Desktop/pi&#45;defender/Sources/PI&#45;Defender_UM/U_Signature.hpp</title>
<!-- Node1 -->
<g id="node1" class="node">
<title>Node1</title>
<g id="a_node1"><a xlink:title="Header for U_Signature.cpp.">
<polygon fill="#bfbfbf" stroke="black" points="304.5,-112.5 304.5,-164.5 416.5,-164.5 416.5,-112.5 304.5,-112.5"/>
<text text-anchor="start" x="312.5" y="-152.5" font-family="Helvetica,sans-Serif" font-size="10.00">C:/Users/admin&#45;cyb</text>
<text text-anchor="start" x="312.5" y="-141.5" font-family="Helvetica,sans-Serif" font-size="10.00">/Desktop/pi&#45;defender</text>
<text text-anchor="start" x="312.5" y="-130.5" font-family="Helvetica,sans-Serif" font-size="10.00">/Sources/PI&#45;Defender</text>
<text text-anchor="middle" x="360.5" y="-119.5" font-family="Helvetica,sans-Serif" font-size="10.00">_UM/U_Signature.hpp</text>
</a>
</g>
</g>
<!-- Node2 -->
<g id="node2" class="node">
<title>Node2</title>
<g id="a_node2"><a xlink:href="_u___global_header_8hpp.html" target="_top" xlink:title="Header used by several .hpp files.">
<polygon fill="none" stroke="black" points="124.5,-56.5 124.5,-75.5 230.5,-75.5 230.5,-56.5 124.5,-56.5"/>
<text text-anchor="middle" x="177.5" y="-63.5" font-family="Helvetica,sans-Serif" font-size="10.00">U_GlobalHeader.hpp</text>
</a>
</g>
</g>
<!-- Node1&#45;&gt;Node2 -->
<g id="edge1" class="edge">
<title>Node1&#45;&gt;Node2</title>
<path fill="none" stroke="midnightblue" d="M304.1,-115.77C272.81,-103.72 235.07,-89.18 208.98,-79.13"/>
<polygon fill="midnightblue" stroke="midnightblue" points="210.18,-75.84 199.59,-75.51 207.66,-82.37 210.18,-75.84"/>
</g>
<!-- Node8 -->
<g id="node8" class="node">
<title>Node8</title>
<g id="a_node8"><a xlink:title=" ">
<polygon fill="none" stroke="#bfbfbf" points="249,-56.5 249,-75.5 310,-75.5 310,-56.5 249,-56.5"/>
<text text-anchor="middle" x="279.5" y="-63.5" font-family="Helvetica,sans-Serif" font-size="10.00">wincrypt.h</text>
</a>
</g>
</g>
<!-- Node1&#45;&gt;Node8 -->
<g id="edge7" class="edge">
<title>Node1&#45;&gt;Node8</title>
<path fill="none" stroke="midnightblue" d="M331.71,-112.45C320.2,-102.43 307.31,-91.21 297.22,-82.42"/>
<polygon fill="midnightblue" stroke="midnightblue" points="299.33,-79.62 289.49,-75.7 294.74,-84.9 299.33,-79.62"/>
</g>
<!-- Node9 -->
<g id="node9" class="node">
<title>Node9</title>
<g id="a_node9"><a xlink:title=" ">
<polygon fill="none" stroke="#bfbfbf" points="328.5,-56.5 328.5,-75.5 392.5,-75.5 392.5,-56.5 328.5,-56.5"/>
<text text-anchor="middle" x="360.5" y="-63.5" font-family="Helvetica,sans-Serif" font-size="10.00">WinTrust.h</text>
</a>
</g>
</g>
<!-- Node1&#45;&gt;Node9 -->
<g id="edge8" class="edge">
<title>Node1&#45;&gt;Node9</title>
<path fill="none" stroke="midnightblue" d="M360.5,-112.45C360.5,-103.73 360.5,-94.1 360.5,-85.96"/>
<polygon fill="midnightblue" stroke="midnightblue" points="364,-85.7 360.5,-75.7 357,-85.7 364,-85.7"/>
</g>
<!-- Node10 -->
<g id="node10" class="node">
<title>Node10</title>
<g id="a_node10"><a xlink:title=" ">
<polygon fill="none" stroke="#bfbfbf" points="411,-56.5 411,-75.5 470,-75.5 470,-56.5 411,-56.5"/>
<text text-anchor="middle" x="440.5" y="-63.5" font-family="Helvetica,sans-Serif" font-size="10.00">SoftPub.h</text>
</a>
</g>
</g>
<!-- Node1&#45;&gt;Node10 -->
<g id="edge9" class="edge">
<title>Node1&#45;&gt;Node10</title>
<path fill="none" stroke="midnightblue" d="M388.93,-112.45C400.3,-102.43 413.03,-91.21 423,-82.42"/>
<polygon fill="midnightblue" stroke="midnightblue" points="425.44,-84.93 430.63,-75.7 420.82,-79.68 425.44,-84.93"/>
</g>
<!-- Node11 -->
<g id="node11" class="node">
<title>Node11</title>
<g id="a_node11"><a xlink:title=" ">
<polygon fill="none" stroke="#bfbfbf" points="488.5,-56.5 488.5,-75.5 540.5,-75.5 540.5,-56.5 488.5,-56.5"/>
<text text-anchor="middle" x="514.5" y="-63.5" font-family="Helvetica,sans-Serif" font-size="10.00">mscat.h</text>
</a>
</g>
</g>
<!-- Node1&#45;&gt;Node11 -->
<g id="edge10" class="edge">
<title>Node1&#45;&gt;Node11</title>
<path fill="none" stroke="midnightblue" d="M415.23,-112.45C439.45,-101.36 466.89,-88.8 486.77,-79.7"/>
<polygon fill="midnightblue" stroke="midnightblue" points="488.24,-82.87 495.87,-75.53 485.32,-76.51 488.24,-82.87"/>
</g>
<!-- Node3 -->
<g id="node3" class="node">
<title>Node3</title>
<g id="a_node3"><a xlink:title=" ">
<polygon fill="none" stroke="#bfbfbf" points="0,-0.5 0,-19.5 65,-19.5 65,-0.5 0,-0.5"/>
<text text-anchor="middle" x="32.5" y="-7.5" font-family="Helvetica,sans-Serif" font-size="10.00">Windows.h</text>
</a>
</g>
</g>
<!-- Node2&#45;&gt;Node3 -->
<g id="edge2" class="edge">
<title>Node2&#45;&gt;Node3</title>
<path fill="none" stroke="midnightblue" d="M154.52,-56.44C130.34,-47.44 92.08,-33.19 64.85,-23.05"/>
<polygon fill="midnightblue" stroke="midnightblue" points="65.96,-19.73 55.37,-19.52 63.52,-26.29 65.96,-19.73"/>
</g>
<!-- Node4 -->
<g id="node4" class="node">
<title>Node4</title>
<g id="a_node4"><a xlink:title=" ">
<polygon fill="none" stroke="#bfbfbf" points="83,-0.5 83,-19.5 136,-19.5 136,-0.5 83,-0.5"/>
<text text-anchor="middle" x="109.5" y="-7.5" font-family="Helvetica,sans-Serif" font-size="10.00">fltUser.h</text>
</a>
</g>
</g>
<!-- Node2&#45;&gt;Node4 -->
<g id="edge3" class="edge">
<title>Node2&#45;&gt;Node4</title>
<path fill="none" stroke="midnightblue" d="M166.57,-56.32C156.33,-48.18 140.78,-35.84 128.5,-26.09"/>
<polygon fill="midnightblue" stroke="midnightblue" points="130.63,-23.31 120.62,-19.83 126.28,-28.79 130.63,-23.31"/>
</g>
<!-- Node5 -->
<g id="node5" class="node">
<title>Node5</title>
<g id="a_node5"><a xlink:title=" ">
<polygon fill="none" stroke="#bfbfbf" points="154.5,-0.5 154.5,-19.5 200.5,-19.5 200.5,-0.5 154.5,-0.5"/>
<text text-anchor="middle" x="177.5" y="-7.5" font-family="Helvetica,sans-Serif" font-size="10.00">stdio.h</text>
</a>
</g>
</g>
<!-- Node2&#45;&gt;Node5 -->
<g id="edge4" class="edge">
<title>Node2&#45;&gt;Node5</title>
<path fill="none" stroke="midnightblue" d="M177.5,-56.08C177.5,-49.01 177.5,-38.86 177.5,-29.99"/>
<polygon fill="midnightblue" stroke="midnightblue" points="181,-29.75 177.5,-19.75 174,-29.75 181,-29.75"/>
</g>
<!-- Node6 -->
<g id="node6" class="node">
<title>Node6</title>
<g id="a_node6"><a xlink:title=" ">
<polygon fill="none" stroke="#bfbfbf" points="219,-0.5 219,-19.5 266,-19.5 266,-0.5 219,-0.5"/>
<text text-anchor="middle" x="242.5" y="-7.5" font-family="Helvetica,sans-Serif" font-size="10.00">tchar.h</text>
</a>
</g>
</g>
<!-- Node2&#45;&gt;Node6 -->
<g id="edge5" class="edge">
<title>Node2&#45;&gt;Node6</title>
<path fill="none" stroke="midnightblue" d="M187.94,-56.32C197.65,-48.26 212.32,-36.08 224,-26.37"/>
<polygon fill="midnightblue" stroke="midnightblue" points="226.41,-28.92 231.87,-19.83 221.94,-23.53 226.41,-28.92"/>
</g>
<!-- Node7 -->
<g id="node7" class="node">
<title>Node7</title>
<g id="a_node7"><a xlink:title=" ">
<polygon fill="none" stroke="#bfbfbf" points="284.5,-0.5 284.5,-19.5 338.5,-19.5 338.5,-0.5 284.5,-0.5"/>
<text text-anchor="middle" x="311.5" y="-7.5" font-family="Helvetica,sans-Serif" font-size="10.00">strsafe.h</text>
</a>
</g>
</g>
<!-- Node2&#45;&gt;Node7 -->
<g id="edge6" class="edge">
<title>Node2&#45;&gt;Node7</title>
<path fill="none" stroke="midnightblue" d="M198.73,-56.44C220.88,-47.52 255.82,-33.44 280.94,-23.32"/>
<polygon fill="midnightblue" stroke="midnightblue" points="282.4,-26.5 290.37,-19.52 279.78,-20.01 282.4,-26.5"/>
</g>
</g>
</svg>
