<?xml version="1.0" encoding="UTF-8" standalone="no"?>
<!DOCTYPE svg PUBLIC "-//W3C//DTD SVG 1.1//EN"
 "http://www.w3.org/Graphics/SVG/1.1/DTD/svg11.dtd">
<!-- Generated by graphviz version 4.0.0 (20220529.0937)
 -->
<!-- Title: Stop Pages: 1 -->
<svg width="622pt" height="56pt"
 viewBox="0.00 0.00 622.00 55.50" xmlns="http://www.w3.org/2000/svg" xmlns:xlink="http://www.w3.org/1999/xlink">
<g id="graph0" class="graph" transform="scale(1 1) rotate(0) translate(4 51.5)">
<title>Stop</title>
<!-- Node1 -->
<g id="node1" class="node">
<title>Node1</title>
<g id="a_node1"><a xlink:title="Wrap the stop of the driver and the service.">
<polygon fill="#bfbfbf" stroke="black" points="0,-28 0,-47 37,-47 37,-28 0,-28"/>
<text text-anchor="middle" x="18.5" y="-35" font-family="Helvetica,sans-Serif" font-size="10.00">Stop</text>
</a>
</g>
</g>
<!-- Node2 -->
<g id="node2" class="node">
<title>Node2</title>
<g id="a_node2"><a xlink:href="class_u___c_o_n_t_r_o_l_l_e_r.html#a32bed2bf85d659bbaff8e1d3fcafa42e" target="_top" xlink:title="Stop the service &quot;szServiceName&quot;.">
<polygon fill="none" stroke="black" points="73,-28 73,-47 224,-47 224,-28 73,-28"/>
<text text-anchor="middle" x="148.5" y="-35" font-family="Helvetica,sans-Serif" font-size="10.00">U_CONTROLLER::StopService</text>
</a>
</g>
</g>
<!-- Node1&#45;&gt;Node2 -->
<g id="edge1" class="edge">
<title>Node1&#45;&gt;Node2</title>
<path fill="none" stroke="midnightblue" d="M37.03,-37.5C44.19,-37.5 53.05,-37.5 62.59,-37.5"/>
<polygon fill="midnightblue" stroke="midnightblue" points="62.76,-41 72.76,-37.5 62.76,-34 62.76,-41"/>
</g>
<!-- Node3 -->
<g id="node3" class="node">
<title>Node3</title>
<g id="a_node3"><a xlink:href="class_u___c_o_n_t_r_o_l_l_e_r.html#a65733b52c6801a89b0c12d7836feef9c" target="_top" xlink:title="Get a handle to the Service Controller Database.">
<polygon fill="none" stroke="black" points="442,-28 442,-47 614,-47 614,-28 442,-28"/>
<text text-anchor="middle" x="528" y="-35" font-family="Helvetica,sans-Serif" font-size="10.00">U_CONTROLLER::_GetSCMHandle</text>
</a>
</g>
</g>
<!-- Node2&#45;&gt;Node3 -->
<g id="edge2" class="edge">
<title>Node2&#45;&gt;Node3</title>
<path fill="none" stroke="midnightblue" d="M224.09,-39.8C236.1,-40.09 248.39,-40.34 260,-40.5 324.88,-41.38 341.12,-41.3 406,-40.5 414.31,-40.4 422.93,-40.25 431.58,-40.09"/>
<polygon fill="midnightblue" stroke="midnightblue" points="431.8,-43.58 441.73,-39.88 431.66,-36.58 431.8,-43.58"/>
</g>
<!-- Node4 -->
<g id="node4" class="node">
<title>Node4</title>
<g id="a_node4"><a xlink:href="class_u___c_o_n_t_r_o_l_l_e_r.html#af55beae6c2742cab857466b32140a5dd" target="_top" xlink:title="Query the service &quot;szServiceName&quot; and return its state.">
<polygon fill="none" stroke="black" points="260,-0.5 260,-30.5 406,-30.5 406,-0.5 260,-0.5"/>
<text text-anchor="start" x="268" y="-18.5" font-family="Helvetica,sans-Serif" font-size="10.00">U_CONTROLLER::GetService</text>
<text text-anchor="middle" x="333" y="-7.5" font-family="Helvetica,sans-Serif" font-size="10.00">State</text>
</a>
</g>
</g>
<!-- Node2&#45;&gt;Node4 -->
<g id="edge3" class="edge">
<title>Node2&#45;&gt;Node4</title>
<path fill="none" stroke="midnightblue" d="M224.26,-28.49C232.58,-27.48 241.1,-26.46 249.52,-25.44"/>
<polygon fill="midnightblue" stroke="midnightblue" points="250.21,-28.89 259.72,-24.21 249.37,-21.94 250.21,-28.89"/>
</g>
<!-- Node4&#45;&gt;Node3 -->
<g id="edge4" class="edge">
<title>Node4&#45;&gt;Node3</title>
<path fill="none" stroke="midnightblue" d="M406.14,-23.72C415.1,-24.75 424.37,-25.8 433.59,-26.85"/>
<polygon fill="midnightblue" stroke="midnightblue" points="433.24,-30.34 443.57,-27.99 434.03,-23.38 433.24,-30.34"/>
</g>
</g>
</svg>
