<?xml version="1.0" encoding="UTF-8" standalone="no"?>
<!DOCTYPE svg PUBLIC "-//W3C//DTD SVG 1.1//EN"
 "http://www.w3.org/Graphics/SVG/1.1/DTD/svg11.dtd">
<!-- Generated by graphviz version 4.0.0 (20220529.0937)
 -->
<!-- Title: Start Pages: 1 -->
<svg width="895pt" height="423pt"
 viewBox="0.00 0.00 895.00 422.50" xmlns="http://www.w3.org/2000/svg" xmlns:xlink="http://www.w3.org/1999/xlink">
<g id="graph0" class="graph" transform="scale(1 1) rotate(0) translate(4 418.5)">
<title>Start</title>
<!-- Node1 -->
<g id="node1" class="node">
<title>Node1</title>
<g id="a_node1"><a xlink:title="Wrap the start of the service.">
<polygon fill="#bfbfbf" stroke="black" points="0,-225 0,-244 38,-244 38,-225 0,-225"/>
<text text-anchor="middle" x="19" y="-232" font-family="Helvetica,sans-Serif" font-size="10.00">Start</text>
</a>
</g>
</g>
<!-- Node2 -->
<g id="node2" class="node">
<title>Node2</title>
<g id="a_node2"><a xlink:href="class_u___c_o_n_t_r_o_l_l_e_r.html#a031d85cad5238299ce37dcac69a91ffc" target="_top" xlink:title="Start the service &quot;szServiceName&quot;.">
<polygon fill="none" stroke="black" points="88,-329 88,-348 250,-348 250,-329 88,-329"/>
<text text-anchor="middle" x="169" y="-336" font-family="Helvetica,sans-Serif" font-size="10.00">U_CONTROLLER::LaunchService</text>
</a>
</g>
</g>
<!-- Node1&#45;&gt;Node2 -->
<g id="edge1" class="edge">
<title>Node1&#45;&gt;Node2</title>
<path fill="none" stroke="midnightblue" d="M33.66,-244.1C59.32,-262.13 114.94,-301.21 145.96,-323.01"/>
<polygon fill="midnightblue" stroke="midnightblue" points="144.18,-326.04 154.37,-328.93 148.21,-320.31 144.18,-326.04"/>
</g>
<!-- Node8 -->
<g id="node8" class="node">
<title>Node8</title>
<g id="a_node8"><a xlink:href="class_u___c_o_n_f_i_g_u_r_a_t_i_o_n.html#aad2db6e150e4eac643ee28b874af54fa" target="_top" xlink:title="Print and populate service structure with the configuration read from registry keys.">
<polygon fill="none" stroke="black" points="74,-165 74,-184 264,-184 264,-165 74,-165"/>
<text text-anchor="middle" x="169" y="-172" font-family="Helvetica,sans-Serif" font-size="10.00">U_CONFIGURATION::PrintConfiguration</text>
</a>
</g>
</g>
<!-- Node1&#45;&gt;Node8 -->
<g id="edge8" class="edge">
<title>Node1&#45;&gt;Node8</title>
<path fill="none" stroke="midnightblue" d="M38.15,-227.14C62.14,-217.42 104.87,-200.09 134.73,-187.99"/>
<polygon fill="midnightblue" stroke="midnightblue" points="136.37,-191.1 144.32,-184.1 133.74,-184.61 136.37,-191.1"/>
</g>
<!-- Node3 -->
<g id="node3" class="node">
<title>Node3</title>
<g id="a_node3"><a xlink:href="class_u___c_o_n_t_r_o_l_l_e_r.html#a65733b52c6801a89b0c12d7836feef9c" target="_top" xlink:title="Get a handle to the Service Controller Database.">
<polygon fill="none" stroke="black" points="321.5,-395 321.5,-414 493.5,-414 493.5,-395 321.5,-395"/>
<text text-anchor="middle" x="407.5" y="-402" font-family="Helvetica,sans-Serif" font-size="10.00">U_CONTROLLER::_GetSCMHandle</text>
</a>
</g>
</g>
<!-- Node2&#45;&gt;Node3 -->
<g id="edge2" class="edge">
<title>Node2&#45;&gt;Node3</title>
<path fill="none" stroke="midnightblue" d="M192.64,-348.02C218.28,-358.49 261.52,-375.19 300,-385.5 310.49,-388.31 321.67,-390.82 332.69,-393.02"/>
<polygon fill="midnightblue" stroke="midnightblue" points="332.27,-396.5 342.75,-394.96 333.6,-389.63 332.27,-396.5"/>
</g>
<!-- Node4 -->
<g id="node4" class="node">
<title>Node4</title>
<g id="a_node4"><a xlink:href="class_u___c_o_n_t_r_o_l_l_e_r.html#a6cbf07b4ef4a8f7f1e148e7b6d5bcb5d" target="_top" xlink:title="Get a handle to the service.">
<polygon fill="none" stroke="black" points="331.5,-345.5 331.5,-375.5 483.5,-375.5 483.5,-345.5 331.5,-345.5"/>
<text text-anchor="start" x="339.5" y="-363.5" font-family="Helvetica,sans-Serif" font-size="10.00">U_CONTROLLER::_GetService</text>
<text text-anchor="middle" x="407.5" y="-352.5" font-family="Helvetica,sans-Serif" font-size="10.00">Handle</text>
</a>
</g>
</g>
<!-- Node2&#45;&gt;Node4 -->
<g id="edge3" class="edge">
<title>Node2&#45;&gt;Node4</title>
<path fill="none" stroke="midnightblue" d="M250.07,-345.95C272.95,-348.08 297.96,-350.4 321.15,-352.56"/>
<polygon fill="midnightblue" stroke="midnightblue" points="321.02,-356.06 331.3,-353.51 321.67,-349.09 321.02,-356.06"/>
</g>
<!-- Node5 -->
<g id="node5" class="node">
<title>Node5</title>
<g id="a_node5"><a xlink:href="class_u___u_t_i_l_i_t_a_i_r_e.html#ad0b0328deb4197e357bb5d74c3173775" target="_top" xlink:title="This routine will display an error message based off of the Win32 error code that is passed in.">
<polygon fill="none" stroke="black" points="339,-307 339,-326 476,-326 476,-307 339,-307"/>
<text text-anchor="middle" x="407.5" y="-314" font-family="Helvetica,sans-Serif" font-size="10.00">U_UTILITAIRE::DisplayError</text>
</a>
</g>
</g>
<!-- Node2&#45;&gt;Node5 -->
<g id="edge4" class="edge">
<title>Node2&#45;&gt;Node5</title>
<path fill="none" stroke="midnightblue" d="M250.07,-331.05C275.39,-328.7 303.33,-326.1 328.5,-323.76"/>
<polygon fill="midnightblue" stroke="midnightblue" points="329.11,-327.21 338.74,-322.8 328.46,-320.24 329.11,-327.21"/>
</g>
<!-- Node6 -->
<g id="node6" class="node">
<title>Node6</title>
<g id="a_node6"><a xlink:href="class_u___u_t_i_l_i_t_a_i_r_e.html#aa177d472a3d1e5f03fdb24d9181ab9a9" target="_top" xlink:title="Popup error message displaying the function that failed associated with the error code.">
<polygon fill="none" stroke="black" points="551,-326 551,-345 707,-345 707,-326 551,-326"/>
<text text-anchor="middle" x="629" y="-333" font-family="Helvetica,sans-Serif" font-size="10.00">U_UTILITAIRE::DisplayMessage</text>
</a>
</g>
</g>
<!-- Node5&#45;&gt;Node6 -->
<g id="edge5" class="edge">
<title>Node5&#45;&gt;Node6</title>
<path fill="none" stroke="midnightblue" d="M476.15,-322.36C496.59,-324.13 519.33,-326.09 540.86,-327.96"/>
<polygon fill="midnightblue" stroke="midnightblue" points="540.72,-331.46 550.98,-328.83 541.32,-324.48 540.72,-331.46"/>
</g>
<!-- Node7 -->
<g id="node7" class="node">
<title>Node7</title>
<g id="a_node7"><a xlink:href="class_u___u_t_i_l_i_t_a_i_r_e.html#a20839968820f2161ef19972f7316a141" target="_top" xlink:title="Print error message in the terminal.">
<polygon fill="none" stroke="black" points="743,-307 743,-326 887,-326 887,-307 743,-307"/>
<text text-anchor="middle" x="815" y="-314" font-family="Helvetica,sans-Serif" font-size="10.00">U_UTILITAIRE::PrintMessage</text>
</a>
</g>
</g>
<!-- Node5&#45;&gt;Node7 -->
<g id="edge7" class="edge">
<title>Node5&#45;&gt;Node7</title>
<path fill="none" stroke="midnightblue" d="M476.37,-316.5C546.89,-316.5 657.26,-316.5 732.46,-316.5"/>
<polygon fill="midnightblue" stroke="midnightblue" points="732.84,-320 742.84,-316.5 732.84,-313 732.84,-320"/>
</g>
<!-- Node6&#45;&gt;Node7 -->
<g id="edge6" class="edge">
<title>Node6&#45;&gt;Node7</title>
<path fill="none" stroke="midnightblue" d="M707.23,-327.52C715.62,-326.66 724.18,-325.77 732.62,-324.9"/>
<polygon fill="midnightblue" stroke="midnightblue" points="733.24,-328.36 742.83,-323.85 732.53,-321.39 733.24,-328.36"/>
</g>
<!-- Node9 -->
<g id="node9" class="node">
<title>Node9</title>
<g id="a_node9"><a xlink:href="class_u___c_o_n_f_i_g_u_r_a_t_i_o_n.html#a5d693465439549ecef553ae863f04cb5" target="_top" xlink:title="Get the number of items to be kept in the cache by the filter.">
<polygon fill="none" stroke="black" points="319.5,-269 319.5,-288 495.5,-288 495.5,-269 319.5,-269"/>
<text text-anchor="middle" x="407.5" y="-276" font-family="Helvetica,sans-Serif" font-size="10.00">U_CONFIGURATION::GetCacheSize</text>
</a>
</g>
</g>
<!-- Node8&#45;&gt;Node9 -->
<g id="edge9" class="edge">
<title>Node8&#45;&gt;Node9</title>
<path fill="none" stroke="midnightblue" d="M181.29,-184.2C202.81,-202.14 251.88,-240.4 300,-259.5 306.78,-262.19 313.96,-264.5 321.25,-266.49"/>
<polygon fill="midnightblue" stroke="midnightblue" points="320.69,-269.96 331.24,-269 322.4,-263.17 320.69,-269.96"/>
</g>
<!-- Node11 -->
<g id="node11" class="node">
<title>Node11</title>
<g id="a_node11"><a xlink:href="class_u___c_o_n_f_i_g_u_r_a_t_i_o_n.html#aafcf880d7361d9f00cd4dd497c3a97fa" target="_top" xlink:title="Get the communication port used by the driver to interact with the service.">
<polygon fill="none" stroke="black" points="300,-231 300,-250 515,-250 515,-231 300,-231"/>
<text text-anchor="middle" x="407.5" y="-238" font-family="Helvetica,sans-Serif" font-size="10.00">U_CONFIGURATION::GetCommunicationPort</text>
</a>
</g>
</g>
<!-- Node8&#45;&gt;Node11 -->
<g id="edge11" class="edge">
<title>Node8&#45;&gt;Node11</title>
<path fill="none" stroke="midnightblue" d="M192.64,-184.02C218.28,-194.49 261.52,-211.19 300,-221.5 310.49,-224.31 321.67,-226.82 332.69,-229.02"/>
<polygon fill="midnightblue" stroke="midnightblue" points="332.27,-232.5 342.75,-230.96 333.6,-225.63 332.27,-232.5"/>
</g>
<!-- Node12 -->
<g id="node12" class="node">
<title>Node12</title>
<g id="a_node12"><a xlink:href="class_u___c_o_n_f_i_g_u_r_a_t_i_o_n.html#a11328249616049976aeafd9ad80429bc" target="_top" xlink:title="Get the number of threads of the service by reading the values in the Registry.">
<polygon fill="none" stroke="black" points="325.5,-181.5 325.5,-211.5 489.5,-211.5 489.5,-181.5 325.5,-181.5"/>
<text text-anchor="start" x="333.5" y="-199.5" font-family="Helvetica,sans-Serif" font-size="10.00">U_CONFIGURATION::GetListener</text>
<text text-anchor="middle" x="407.5" y="-188.5" font-family="Helvetica,sans-Serif" font-size="10.00">Threads</text>
</a>
</g>
</g>
<!-- Node8&#45;&gt;Node12 -->
<g id="edge13" class="edge">
<title>Node8&#45;&gt;Node12</title>
<path fill="none" stroke="midnightblue" d="M264.15,-183.26C280.9,-184.82 298.32,-186.44 314.99,-187.99"/>
<polygon fill="midnightblue" stroke="midnightblue" points="314.98,-191.5 325.26,-188.94 315.63,-184.53 314.98,-191.5"/>
</g>
<!-- Node13 -->
<g id="node13" class="node">
<title>Node13</title>
<g id="a_node13"><a xlink:href="class_u___c_o_n_f_i_g_u_r_a_t_i_o_n.html#a16a3374e66a338c898a4e84fc6602368" target="_top" xlink:title="Get the maximum number of clients of the service by reading the values in the REGISTRY:: &#160;[i] This va...">
<polygon fill="none" stroke="black" points="318.5,-143 318.5,-162 496.5,-162 496.5,-143 318.5,-143"/>
<text text-anchor="middle" x="407.5" y="-150" font-family="Helvetica,sans-Serif" font-size="10.00">U_CONFIGURATION::GetMaxClients</text>
</a>
</g>
</g>
<!-- Node8&#45;&gt;Node13 -->
<g id="edge15" class="edge">
<title>Node8&#45;&gt;Node13</title>
<path fill="none" stroke="midnightblue" d="M264.15,-165.74C278.7,-164.39 293.75,-162.99 308.39,-161.63"/>
<polygon fill="midnightblue" stroke="midnightblue" points="308.8,-165.1 318.44,-160.69 308.16,-158.13 308.8,-165.1"/>
</g>
<!-- Node14 -->
<g id="node14" class="node">
<title>Node14</title>
<g id="a_node14"><a xlink:href="class_u___c_o_n_f_i_g_u_r_a_t_i_o_n.html#a86c433a3d57e5800ad03a4411ace09d6" target="_top" xlink:title="Get the number of threads of the service by reading the values in the REGISTRY::">
<polygon fill="none" stroke="black" points="318,-93.5 318,-123.5 497,-123.5 497,-93.5 318,-93.5"/>
<text text-anchor="start" x="326" y="-111.5" font-family="Helvetica,sans-Serif" font-size="10.00">U_CONFIGURATION::GetMaxWorker</text>
<text text-anchor="middle" x="407.5" y="-100.5" font-family="Helvetica,sans-Serif" font-size="10.00">Threads</text>
</a>
</g>
</g>
<!-- Node8&#45;&gt;Node14 -->
<g id="edge17" class="edge">
<title>Node8&#45;&gt;Node14</title>
<path fill="none" stroke="midnightblue" d="M198.22,-164.93C224.43,-156.2 264.63,-143.21 300,-133.5 309.41,-130.92 319.33,-128.36 329.18,-125.93"/>
<polygon fill="midnightblue" stroke="midnightblue" points="330.1,-129.31 338.98,-123.54 328.44,-122.51 330.1,-129.31"/>
</g>
<!-- Node15 -->
<g id="node15" class="node">
<title>Node15</title>
<g id="a_node15"><a xlink:href="class_u___c_o_n_f_i_g_u_r_a_t_i_o_n.html#a3979610ba0d110c0e79481925f413ea0" target="_top" xlink:title="Get the number of threads of the service by reading the values in the Registry.">
<polygon fill="none" stroke="black" points="319.5,-44.5 319.5,-74.5 495.5,-74.5 495.5,-44.5 319.5,-44.5"/>
<text text-anchor="start" x="327.5" y="-62.5" font-family="Helvetica,sans-Serif" font-size="10.00">U_CONFIGURATION::GetMinWorker</text>
<text text-anchor="middle" x="407.5" y="-51.5" font-family="Helvetica,sans-Serif" font-size="10.00">Threads</text>
</a>
</g>
</g>
<!-- Node8&#45;&gt;Node15 -->
<g id="edge19" class="edge">
<title>Node8&#45;&gt;Node15</title>
<path fill="none" stroke="midnightblue" d="M180.95,-164.74C202.28,-146.24 251.58,-106.01 300,-84.5 305.7,-81.97 311.68,-79.68 317.79,-77.6"/>
<polygon fill="midnightblue" stroke="midnightblue" points="318.99,-80.89 327.46,-74.52 316.87,-74.22 318.99,-80.89"/>
</g>
<!-- Node16 -->
<g id="node16" class="node">
<title>Node16</title>
<g id="a_node16"><a xlink:href="class_u___c_o_n_f_i_g_u_r_a_t_i_o_n.html#a3d4d97df1d0d20e20f7a1d696f9c4150" target="_top" xlink:title="Get the whitelist used to allow user&#45;specified apps.">
<polygon fill="none" stroke="black" points="324,-6 324,-25 491,-25 491,-6 324,-6"/>
<text text-anchor="middle" x="407.5" y="-13" font-family="Helvetica,sans-Serif" font-size="10.00">U_CONFIGURATION::GetWhitelist</text>
</a>
</g>
</g>
<!-- Node8&#45;&gt;Node16 -->
<g id="edge21" class="edge">
<title>Node8&#45;&gt;Node16</title>
<path fill="none" stroke="midnightblue" d="M175.84,-164.69C191.93,-138.62 239.73,-67.39 300,-34.5 304.52,-32.03 309.3,-29.88 314.22,-27.99"/>
<polygon fill="midnightblue" stroke="midnightblue" points="315.51,-31.25 323.84,-24.7 313.24,-24.63 315.51,-31.25"/>
</g>
<!-- Node10 -->
<g id="node10" class="node">
<title>Node10</title>
<g id="a_node10"><a xlink:href="class_u___r_e_g_i_s_t_r_y.html#ab8fcbe86de2429b471dcaa94d9025aa8" target="_top" xlink:title="Read the content (DWORD) of the registry key &quot;szSubKey&quot; located in the HIVE &quot;hKeyParent&quot;.">
<polygon fill="none" stroke="black" points="563.5,-165 563.5,-184 694.5,-184 694.5,-165 563.5,-165"/>
<text text-anchor="middle" x="629" y="-172" font-family="Helvetica,sans-Serif" font-size="10.00">U_REGISTRY::ReadValue</text>
</a>
</g>
</g>
<!-- Node9&#45;&gt;Node10 -->
<g id="edge10" class="edge">
<title>Node9&#45;&gt;Node10</title>
<path fill="none" stroke="midnightblue" d="M486.54,-268.96C496.34,-266.5 506.05,-263.4 515,-259.5 553.15,-242.89 590.32,-211.01 611.08,-191.36"/>
<polygon fill="midnightblue" stroke="midnightblue" points="613.68,-193.72 618.45,-184.25 608.82,-188.68 613.68,-193.72"/>
</g>
<!-- Node11&#45;&gt;Node10 -->
<g id="edge12" class="edge">
<title>Node11&#45;&gt;Node10</title>
<path fill="none" stroke="midnightblue" d="M474.92,-230.95C488.31,-228.39 502.2,-225.25 515,-221.5 544.48,-212.85 576.71,-198.98 599.18,-188.54"/>
<polygon fill="midnightblue" stroke="midnightblue" points="600.92,-191.59 608.47,-184.16 597.93,-185.26 600.92,-191.59"/>
</g>
<!-- Node12&#45;&gt;Node10 -->
<g id="edge14" class="edge">
<title>Node12&#45;&gt;Node10</title>
<path fill="none" stroke="midnightblue" d="M489.61,-188.37C510.4,-186.29 532.66,-184.06 553.12,-182"/>
<polygon fill="midnightblue" stroke="midnightblue" points="553.72,-185.46 563.32,-180.98 553.02,-178.5 553.72,-185.46"/>
</g>
<!-- Node13&#45;&gt;Node10 -->
<g id="edge16" class="edge">
<title>Node13&#45;&gt;Node10</title>
<path fill="none" stroke="midnightblue" d="M496.51,-161.32C515.33,-163.21 535.04,-165.18 553.3,-167.01"/>
<polygon fill="midnightblue" stroke="midnightblue" points="552.98,-170.5 563.28,-168.01 553.68,-163.53 552.98,-170.5"/>
</g>
<!-- Node14&#45;&gt;Node10 -->
<g id="edge18" class="edge">
<title>Node14&#45;&gt;Node10</title>
<path fill="none" stroke="midnightblue" d="M477.85,-123.53C490.28,-126.58 503.08,-129.95 515,-133.5 542.18,-141.59 572.35,-152.64 594.67,-161.24"/>
<polygon fill="midnightblue" stroke="midnightblue" points="593.44,-164.51 604.03,-164.87 595.97,-157.99 593.44,-164.51"/>
</g>
<!-- Node15&#45;&gt;Node10 -->
<g id="edge20" class="edge">
<title>Node15&#45;&gt;Node10</title>
<path fill="none" stroke="midnightblue" d="M489.77,-74.58C498.48,-77.37 507.05,-80.65 515,-84.5 553.65,-103.24 591.16,-137.19 611.76,-157.61"/>
<polygon fill="midnightblue" stroke="midnightblue" points="609.51,-160.31 619.03,-164.96 614.48,-155.39 609.51,-160.31"/>
</g>
<!-- Node17 -->
<g id="node17" class="node">
<title>Node17</title>
<g id="a_node17"><a xlink:href="class_u___u_t_i_l_i_t_a_i_r_e.html#a2c076a3a7da58e7cf05d81404acd5b55" target="_top" xlink:title="Returns the number of Unicode strings found in a buffer (raw data from REG_MULTI_SZ)">
<polygon fill="none" stroke="black" points="554,-0.5 554,-30.5 704,-30.5 704,-0.5 554,-0.5"/>
<text text-anchor="start" x="562" y="-18.5" font-family="Helvetica,sans-Serif" font-size="10.00">U_UTILITAIRE::CountWStrings</text>
<text text-anchor="middle" x="629" y="-7.5" font-family="Helvetica,sans-Serif" font-size="10.00">InBuffer</text>
</a>
</g>
</g>
<!-- Node16&#45;&gt;Node17 -->
<g id="edge22" class="edge">
<title>Node16&#45;&gt;Node17</title>
<path fill="none" stroke="midnightblue" d="M491.17,-15.5C508.34,-15.5 526.45,-15.5 543.68,-15.5"/>
<polygon fill="midnightblue" stroke="midnightblue" points="543.7,-19 553.7,-15.5 543.7,-12 543.7,-19"/>
</g>
</g>
</svg>
