<?xml version="1.0" encoding="UTF-8" standalone="no"?>
<!DOCTYPE svg PUBLIC "-//W3C//DTD SVG 1.1//EN"
 "http://www.w3.org/Graphics/SVG/1.1/DTD/svg11.dtd">
<!-- Generated by graphviz version 4.0.0 (20220529.0937)
 -->
<!-- Title: U_COMMUNICATION::_WorkerThread Pages: 1 -->
<svg width="902pt" height="266pt"
 viewBox="0.00 0.00 902.00 265.50" xmlns="http://www.w3.org/2000/svg" xmlns:xlink="http://www.w3.org/1999/xlink">
<g id="graph0" class="graph" transform="scale(1 1) rotate(0) translate(4 261.5)">
<title>U_COMMUNICATION::_WorkerThread</title>
<!-- Node1 -->
<g id="node1" class="node">
<title>Node1</title>
<g id="a_node1"><a xlink:title="Worker thread used to check file signature.">
<polygon fill="#bfbfbf" stroke="black" points="0,-112.5 0,-142.5 153,-142.5 153,-112.5 0,-112.5"/>
<text text-anchor="start" x="8" y="-130.5" font-family="Helvetica,sans-Serif" font-size="10.00">U_COMMUNICATION::_Worker</text>
<text text-anchor="middle" x="76.5" y="-119.5" font-family="Helvetica,sans-Serif" font-size="10.00">Thread</text>
</a>
</g>
</g>
<!-- Node2 -->
<g id="node2" class="node">
<title>Node2</title>
<g id="a_node2"><a xlink:href="class_u___c_o_m_m_u_n_i_c_a_t_i_o_n.html#a6f2f0c62b6e4f1270d5c95c6e6521ee3" target="_top" xlink:title="Push a new message in the queue.">
<polygon fill="none" stroke="black" points="189,-213.5 189,-243.5 376,-243.5 376,-213.5 189,-213.5"/>
<text text-anchor="start" x="197" y="-231.5" font-family="Helvetica,sans-Serif" font-size="10.00">U_COMMUNICATION::_PumpMessage</text>
<text text-anchor="middle" x="282.5" y="-220.5" font-family="Helvetica,sans-Serif" font-size="10.00">InQueue</text>
</a>
</g>
</g>
<!-- Node1&#45;&gt;Node2 -->
<g id="edge1" class="edge">
<title>Node1&#45;&gt;Node2</title>
<path fill="none" stroke="midnightblue" d="M95.67,-142.74C116.84,-159.79 153.46,-187.15 189,-203.5 194.23,-205.9 199.73,-208.12 205.34,-210.14"/>
<polygon fill="midnightblue" stroke="midnightblue" points="204.26,-213.47 214.85,-213.38 206.52,-206.84 204.26,-213.47"/>
</g>
<!-- Node6 -->
<g id="node6" class="node">
<title>Node6</title>
<g id="a_node6"><a xlink:href="class_u___c_o_m_m_u_n_i_c_a_t_i_o_n.html#ac7267746e2596819493bbf7fca1d4520" target="_top" xlink:title="Reply to the kernel driver.">
<polygon fill="none" stroke="black" points="209.5,-175 209.5,-194 355.5,-194 355.5,-175 209.5,-175"/>
<text text-anchor="middle" x="282.5" y="-182" font-family="Helvetica,sans-Serif" font-size="10.00">U_COMMUNICATION::_Reply</text>
</a>
</g>
</g>
<!-- Node1&#45;&gt;Node6 -->
<g id="edge6" class="edge">
<title>Node1&#45;&gt;Node6</title>
<path fill="none" stroke="midnightblue" d="M127.07,-142.56C146.36,-148.32 168.67,-154.86 189,-160.5 203.55,-164.54 219.44,-168.74 233.88,-172.48"/>
<polygon fill="midnightblue" stroke="midnightblue" points="233.06,-175.88 243.62,-174.98 234.81,-169.1 233.06,-175.88"/>
</g>
<!-- Node7 -->
<g id="node7" class="node">
<title>Node7</title>
<g id="a_node7"><a xlink:href="class_u___l_o_g_s.html#a0f2932b79fce103453dd1cfc60de2007" target="_top" xlink:title="Send the reported event in the Event Viewer (Application &#45;&gt; PI&#45;Defender_UM).">
<polygon fill="none" stroke="black" points="412,-156 412,-175 542,-175 542,-156 412,-156"/>
<text text-anchor="middle" x="477" y="-163" font-family="Helvetica,sans-Serif" font-size="10.00">U_LOGS::SvcReportEvent</text>
</a>
</g>
</g>
<!-- Node1&#45;&gt;Node7 -->
<g id="edge9" class="edge">
<title>Node1&#45;&gt;Node7</title>
<path fill="none" stroke="midnightblue" d="M153.39,-134.74C224.74,-141.54 330.89,-151.66 401.71,-158.42"/>
<polygon fill="midnightblue" stroke="midnightblue" points="401.61,-161.92 411.9,-159.39 402.27,-154.95 401.61,-161.92"/>
</g>
<!-- Node8 -->
<g id="node8" class="node">
<title>Node8</title>
<g id="a_node8"><a xlink:href="class_u___h_e_l_p_e_r.html#a0532d2f45a1a8977c99caf1c6d27e7c1" target="_top" xlink:title=" ">
<polygon fill="none" stroke="black" points="191,-99 191,-118 374,-118 374,-99 191,-99"/>
<text text-anchor="middle" x="282.5" y="-106" font-family="Helvetica,sans-Serif" font-size="10.00">U_HELPER::GetHandleFromFileName</text>
</a>
</g>
</g>
<!-- Node1&#45;&gt;Node8 -->
<g id="edge8" class="edge">
<title>Node1&#45;&gt;Node8</title>
<path fill="none" stroke="midnightblue" d="M153.17,-120.45C162.17,-119.61 171.45,-118.75 180.72,-117.89"/>
<polygon fill="midnightblue" stroke="midnightblue" points="181.13,-121.36 190.77,-116.95 180.49,-114.39 181.13,-121.36"/>
</g>
<!-- Node9 -->
<g id="node9" class="node">
<title>Node9</title>
<g id="a_node9"><a xlink:href="class_u___s_i_g_n_a_t_u_r_e.html#a4a2b43ca305cb41a3eab3b76d60cb6db" target="_top" xlink:title="Verify the signature of &#39;szFile&#39; by looking at catalogs files.">
<polygon fill="none" stroke="black" points="208.5,-49.5 208.5,-79.5 356.5,-79.5 356.5,-49.5 208.5,-49.5"/>
<text text-anchor="start" x="216.5" y="-67.5" font-family="Helvetica,sans-Serif" font-size="10.00">U_SIGNATURE::VerifyCatalog</text>
<text text-anchor="middle" x="282.5" y="-56.5" font-family="Helvetica,sans-Serif" font-size="10.00">Signature</text>
</a>
</g>
</g>
<!-- Node1&#45;&gt;Node9 -->
<g id="edge10" class="edge">
<title>Node1&#45;&gt;Node9</title>
<path fill="none" stroke="midnightblue" d="M119.65,-112.42C140.43,-105.17 165.92,-96.54 189,-89.5 197.01,-87.06 205.44,-84.61 213.82,-82.25"/>
<polygon fill="midnightblue" stroke="midnightblue" points="214.91,-85.58 223.6,-79.53 213.03,-78.84 214.91,-85.58"/>
</g>
<!-- Node10 -->
<g id="node10" class="node">
<title>Node10</title>
<g id="a_node10"><a xlink:href="class_u___s_i_g_n_a_t_u_r_e.html#a08a76b9f115ae35af11c805c8a58ebb0" target="_top" xlink:title="Check if the file &quot;szFile&quot; is signed by a trusted authority.">
<polygon fill="none" stroke="black" points="202,-0.5 202,-30.5 363,-30.5 363,-0.5 202,-0.5"/>
<text text-anchor="start" x="210" y="-18.5" font-family="Helvetica,sans-Serif" font-size="10.00">U_SIGNATURE::VerifyEmbedded</text>
<text text-anchor="middle" x="282.5" y="-7.5" font-family="Helvetica,sans-Serif" font-size="10.00">Signature</text>
</a>
</g>
</g>
<!-- Node1&#45;&gt;Node10 -->
<g id="edge11" class="edge">
<title>Node1&#45;&gt;Node10</title>
<path fill="none" stroke="midnightblue" d="M92.32,-112.41C112.44,-92.77 150.35,-58.7 189,-39.5 192.84,-37.59 196.86,-35.82 200.96,-34.18"/>
<polygon fill="midnightblue" stroke="midnightblue" points="202.51,-37.34 210.68,-30.6 200.09,-30.78 202.51,-37.34"/>
</g>
<!-- Node3 -->
<g id="node3" class="node">
<title>Node3</title>
<g id="a_node3"><a xlink:href="class_u___h_e_l_p_e_r.html#a6fca38e2de32e2da0598743ef731c2f1" target="_top" xlink:title="This routine will display an error message based off of the Win32 error code that is passed in.">
<polygon fill="none" stroke="black" points="413.5,-219 413.5,-238 540.5,-238 540.5,-219 413.5,-219"/>
<text text-anchor="middle" x="477" y="-226" font-family="Helvetica,sans-Serif" font-size="10.00">U_HELPER::DisplayError</text>
</a>
</g>
</g>
<!-- Node2&#45;&gt;Node3 -->
<g id="edge2" class="edge">
<title>Node2&#45;&gt;Node3</title>
<path fill="none" stroke="midnightblue" d="M376.09,-228.5C385.15,-228.5 394.27,-228.5 403.1,-228.5"/>
<polygon fill="midnightblue" stroke="midnightblue" points="403.32,-232 413.32,-228.5 403.32,-225 403.32,-232"/>
</g>
<!-- Node4 -->
<g id="node4" class="node">
<title>Node4</title>
<g id="a_node4"><a xlink:href="class_u___h_e_l_p_e_r.html#a74e583e738595b638363c7cdec7b3d3f" target="_top" xlink:title="Popup error message displaying the function that failed associated with the error code.">
<polygon fill="none" stroke="black" points="578,-238 578,-257 724,-257 724,-238 578,-238"/>
<text text-anchor="middle" x="651" y="-245" font-family="Helvetica,sans-Serif" font-size="10.00">U_HELPER::DisplayMessage</text>
</a>
</g>
</g>
<!-- Node3&#45;&gt;Node4 -->
<g id="edge3" class="edge">
<title>Node3&#45;&gt;Node4</title>
<path fill="none" stroke="midnightblue" d="M540.58,-235.41C549.38,-236.38 558.52,-237.39 567.62,-238.4"/>
<polygon fill="midnightblue" stroke="midnightblue" points="567.51,-241.91 577.84,-239.53 568.28,-234.95 567.51,-241.91"/>
</g>
<!-- Node5 -->
<g id="node5" class="node">
<title>Node5</title>
<g id="a_node5"><a xlink:href="class_u___h_e_l_p_e_r.html#a54991307972870225fd074f0e7a21686" target="_top" xlink:title="Print error message in the terminal.">
<polygon fill="none" stroke="black" points="760,-219 760,-238 894,-238 894,-219 760,-219"/>
<text text-anchor="middle" x="827" y="-226" font-family="Helvetica,sans-Serif" font-size="10.00">U_HELPER::PrintMessage</text>
</a>
</g>
</g>
<!-- Node3&#45;&gt;Node5 -->
<g id="edge5" class="edge">
<title>Node3&#45;&gt;Node5</title>
<path fill="none" stroke="midnightblue" d="M540.62,-228.5C599.19,-228.5 686.82,-228.5 749.51,-228.5"/>
<polygon fill="midnightblue" stroke="midnightblue" points="749.74,-232 759.74,-228.5 749.74,-225 749.74,-232"/>
</g>
<!-- Node4&#45;&gt;Node5 -->
<g id="edge4" class="edge">
<title>Node4&#45;&gt;Node5</title>
<path fill="none" stroke="midnightblue" d="M724.03,-239.63C732.56,-238.7 741.29,-237.75 749.88,-236.81"/>
<polygon fill="midnightblue" stroke="midnightblue" points="750.32,-240.28 759.88,-235.72 749.56,-233.33 750.32,-240.28"/>
</g>
<!-- Node6&#45;&gt;Node7 -->
<g id="edge7" class="edge">
<title>Node6&#45;&gt;Node7</title>
<path fill="none" stroke="midnightblue" d="M355.73,-177.37C370.72,-175.89 386.55,-174.33 401.62,-172.84"/>
<polygon fill="midnightblue" stroke="midnightblue" points="402.31,-176.29 411.92,-171.83 401.62,-169.32 402.31,-176.29"/>
</g>
</g>
</svg>
