<?xml version="1.0" encoding="UTF-8" standalone="no"?>
<!DOCTYPE svg PUBLIC "-//W3C//DTD SVG 1.1//EN"
 "http://www.w3.org/Graphics/SVG/1.1/DTD/svg11.dtd">
<!-- Generated by graphviz version 4.0.0 (20220529.0937)
 -->
<!-- Title: U_CONFIGURATION::_CreateRegistryForLogs Pages: 1 -->
<svg width="698pt" height="214pt"
 viewBox="0.00 0.00 698.00 214.00" xmlns="http://www.w3.org/2000/svg" xmlns:xlink="http://www.w3.org/1999/xlink">
<g id="graph0" class="graph" transform="scale(1 1) rotate(0) translate(4 210)">
<title>U_CONFIGURATION::_CreateRegistryForLogs</title>
<!-- Node1 -->
<g id="node1" class="node">
<title>Node1</title>
<g id="a_node1"><a xlink:title="Create all the registry keys needed for ETW Logs.">
<polygon fill="#bfbfbf" stroke="black" points="0,-93.5 0,-123.5 147,-123.5 147,-93.5 0,-93.5"/>
<text text-anchor="start" x="8" y="-111.5" font-family="Helvetica,sans-Serif" font-size="10.00">U_CONFIGURATION::_Create</text>
<text text-anchor="middle" x="73.5" y="-100.5" font-family="Helvetica,sans-Serif" font-size="10.00">RegistryForLogs</text>
</a>
</g>
</g>
<!-- Node2 -->
<g id="node2" class="node">
<title>Node2</title>
<g id="a_node2"><a xlink:href="class_u___r_e_g_i_s_t_r_y.html#acb3aa163feb4caa0bbd10c41579ff78a" target="_top" xlink:title="Create the registry key &quot;szSubKey&quot; located in the HIVE &quot;hKeyParent&quot;.">
<polygon fill="none" stroke="black" points="183,-175 183,-194 348,-194 348,-175 183,-175"/>
<text text-anchor="middle" x="265.5" y="-182" font-family="Helvetica,sans-Serif" font-size="10.00">U_REGISTRY::CreateRegistryKey</text>
</a>
</g>
</g>
<!-- Node1&#45;&gt;Node2 -->
<g id="edge1" class="edge">
<title>Node1&#45;&gt;Node2</title>
<path fill="none" stroke="midnightblue" d="M99.09,-123.74C120.55,-136.47 152.89,-154.29 183,-165.5 189.83,-168.04 197.12,-170.32 204.42,-172.34"/>
<polygon fill="midnightblue" stroke="midnightblue" points="203.78,-175.79 214.34,-174.93 205.55,-169.01 203.78,-175.79"/>
</g>
<!-- Node3 -->
<g id="node3" class="node">
<title>Node3</title>
<g id="a_node3"><a xlink:href="class_u___u_t_i_l_i_t_a_i_r_e.html#a13ad12137e1edc6873eeac1b4848194e" target="_top" xlink:title="Get the full DOS Path of the message DLL associated with the binary.">
<polygon fill="none" stroke="black" points="192,-137 192,-156 339,-156 339,-137 192,-137"/>
<text text-anchor="middle" x="265.5" y="-144" font-family="Helvetica,sans-Serif" font-size="10.00">U_UTILITAIRE::GetDllFullPath</text>
</a>
</g>
</g>
<!-- Node1&#45;&gt;Node3 -->
<g id="edge2" class="edge">
<title>Node1&#45;&gt;Node3</title>
<path fill="none" stroke="midnightblue" d="M147.14,-123.03C166.95,-126.99 188.12,-131.22 206.96,-134.99"/>
<polygon fill="midnightblue" stroke="midnightblue" points="206.38,-138.44 216.87,-136.97 207.75,-131.58 206.38,-138.44"/>
</g>
<!-- Node5 -->
<g id="node5" class="node">
<title>Node5</title>
<g id="a_node5"><a xlink:href="class_u___l_o_g_s.html#a0f2932b79fce103453dd1cfc60de2007" target="_top" xlink:title="Send the reported event in the Event Viewer (Application &#45;&gt; PI&#45;Defender_UM).">
<polygon fill="none" stroke="black" points="560,-137 560,-156 690,-156 690,-137 560,-137"/>
<text text-anchor="middle" x="625" y="-144" font-family="Helvetica,sans-Serif" font-size="10.00">U_LOGS::SvcReportEvent</text>
</a>
</g>
</g>
<!-- Node1&#45;&gt;Node5 -->
<g id="edge6" class="edge">
<title>Node1&#45;&gt;Node5</title>
<path fill="none" stroke="midnightblue" d="M147.19,-113.53C251.77,-120.76 443.72,-134.03 549.38,-141.34"/>
<polygon fill="midnightblue" stroke="midnightblue" points="549.42,-144.85 559.64,-142.05 549.9,-137.87 549.42,-144.85"/>
</g>
<!-- Node6 -->
<g id="node6" class="node">
<title>Node6</title>
<g id="a_node6"><a xlink:href="class_u___r_e_g_i_s_t_r_y.html#ac826205b4627137b899c1e0066b3fb9a" target="_top" xlink:title="Write DWORD in the registry key &quot;szSubKey&quot; located in the HIVE &quot;hKeyParent&quot;.">
<polygon fill="none" stroke="black" points="195,-49.5 195,-79.5 336,-79.5 336,-49.5 195,-49.5"/>
<text text-anchor="start" x="203" y="-67.5" font-family="Helvetica,sans-Serif" font-size="10.00">U_REGISTRY::WriteDwordIn</text>
<text text-anchor="middle" x="265.5" y="-56.5" font-family="Helvetica,sans-Serif" font-size="10.00">Registry</text>
</a>
</g>
</g>
<!-- Node1&#45;&gt;Node6 -->
<g id="edge7" class="edge">
<title>Node1&#45;&gt;Node6</title>
<path fill="none" stroke="midnightblue" d="M139.36,-93.48C155.47,-89.75 172.87,-85.72 189.43,-81.88"/>
<polygon fill="midnightblue" stroke="midnightblue" points="190.66,-85.19 199.61,-79.53 189.08,-78.37 190.66,-85.19"/>
</g>
<!-- Node8 -->
<g id="node8" class="node">
<title>Node8</title>
<g id="a_node8"><a xlink:href="class_u___r_e_g_i_s_t_r_y.html#aa82742460b375f1fbd9534cd8f845bd0" target="_top" xlink:title="Write STRING in the registry key &quot;szSubKey&quot; located in the HIVE &quot;hKeyParent&quot;.">
<polygon fill="none" stroke="black" points="195.5,-0.5 195.5,-30.5 335.5,-30.5 335.5,-0.5 195.5,-0.5"/>
<text text-anchor="start" x="203.5" y="-18.5" font-family="Helvetica,sans-Serif" font-size="10.00">U_REGISTRY::WriteStringIn</text>
<text text-anchor="middle" x="265.5" y="-7.5" font-family="Helvetica,sans-Serif" font-size="10.00">Registry</text>
</a>
</g>
</g>
<!-- Node1&#45;&gt;Node8 -->
<g id="edge9" class="edge">
<title>Node1&#45;&gt;Node8</title>
<path fill="none" stroke="midnightblue" d="M94.33,-93.47C115.37,-78.12 150.07,-54.46 183,-39.5 187.31,-37.54 191.81,-35.7 196.4,-33.97"/>
<polygon fill="midnightblue" stroke="midnightblue" points="197.65,-37.25 205.89,-30.59 195.3,-30.65 197.65,-37.25"/>
</g>
<!-- Node4 -->
<g id="node4" class="node">
<title>Node4</title>
<g id="a_node4"><a xlink:href="class_u___u_t_i_l_i_t_a_i_r_e.html#a96db4752f1f9917f495d28c520320c88" target="_top" xlink:title="Get the current folder of the binary responsible for the launch of the service.">
<polygon fill="none" stroke="black" points="388.5,-175.5 388.5,-205.5 519.5,-205.5 519.5,-175.5 388.5,-175.5"/>
<text text-anchor="start" x="396.5" y="-193.5" font-family="Helvetica,sans-Serif" font-size="10.00">U_UTILITAIRE::GetCurrent</text>
<text text-anchor="middle" x="454" y="-182.5" font-family="Helvetica,sans-Serif" font-size="10.00">Folder</text>
</a>
</g>
</g>
<!-- Node3&#45;&gt;Node4 -->
<g id="edge3" class="edge">
<title>Node3&#45;&gt;Node4</title>
<path fill="none" stroke="midnightblue" d="M307.55,-156.03C320.5,-159.05 334.85,-162.4 348,-165.5 358.4,-167.95 369.38,-170.55 380.17,-173.11"/>
<polygon fill="midnightblue" stroke="midnightblue" points="379.45,-176.54 389.99,-175.45 381.07,-169.73 379.45,-176.54"/>
</g>
<!-- Node3&#45;&gt;Node5 -->
<g id="edge5" class="edge">
<title>Node3&#45;&gt;Node5</title>
<path fill="none" stroke="midnightblue" d="M339.28,-146.5C400.58,-146.5 487.91,-146.5 549.66,-146.5"/>
<polygon fill="midnightblue" stroke="midnightblue" points="549.72,-150 559.72,-146.5 549.72,-143 549.72,-150"/>
</g>
<!-- Node4&#45;&gt;Node5 -->
<g id="edge4" class="edge">
<title>Node4&#45;&gt;Node5</title>
<path fill="none" stroke="midnightblue" d="M512.69,-175.48C533.87,-169.96 557.57,-163.8 577.63,-158.57"/>
<polygon fill="midnightblue" stroke="midnightblue" points="578.67,-161.92 587.46,-156.01 576.9,-155.14 578.67,-161.92"/>
</g>
<!-- Node7 -->
<g id="node7" class="node">
<title>Node7</title>
<g id="a_node7"><a xlink:href="class_u___r_e_g_i_s_t_r_y.html#aa3f355ae1e9c7c1f9db8496d25ac1f7d" target="_top" xlink:title="Write data in the registry key &quot;szSubKey&quot; located in the HIVE &quot;hKeyParent&quot;.">
<polygon fill="none" stroke="black" points="384,-25.5 384,-55.5 524,-55.5 524,-25.5 384,-25.5"/>
<text text-anchor="start" x="392" y="-43.5" font-family="Helvetica,sans-Serif" font-size="10.00">U_REGISTRY::_WriteDataIn</text>
<text text-anchor="middle" x="454" y="-32.5" font-family="Helvetica,sans-Serif" font-size="10.00">Registry</text>
</a>
</g>
</g>
<!-- Node6&#45;&gt;Node7 -->
<g id="edge8" class="edge">
<title>Node6&#45;&gt;Node7</title>
<path fill="none" stroke="midnightblue" d="M336.21,-55.53C348.54,-53.94 361.45,-52.28 374.01,-50.66"/>
<polygon fill="midnightblue" stroke="midnightblue" points="374.52,-54.13 383.99,-49.38 373.63,-47.19 374.52,-54.13"/>
</g>
<!-- Node8&#45;&gt;Node7 -->
<g id="edge10" class="edge">
<title>Node8&#45;&gt;Node7</title>
<path fill="none" stroke="midnightblue" d="M335.68,-24.77C348.11,-26.44 361.16,-28.19 373.85,-29.89"/>
<polygon fill="midnightblue" stroke="midnightblue" points="373.55,-33.38 383.93,-31.24 374.48,-26.44 373.55,-33.38"/>
</g>
</g>
</svg>
