<?xml version="1.0" encoding="UTF-8" standalone="no"?>
<!DOCTYPE svg PUBLIC "-//W3C//DTD SVG 1.1//EN"
 "http://www.w3.org/Graphics/SVG/1.1/DTD/svg11.dtd">
<!-- Generated by graphviz version 4.0.0 (20220529.0937)
 -->
<!-- Title: U_CONTROLLER::InstallService Pages: 1 -->
<!--zoomable 253 -->
<svg id="main" version="1.1" xmlns="http://www.w3.org/2000/svg" xmlns:xlink="http://www.w3.org/1999/xlink" xml:space="preserve" onload="init(evt)">
<style type="text/css"><![CDATA[
.edge:hover path { stroke: red; }
.edge:hover polygon { stroke: red; fill: red; }
]]></style>
<script type="text/javascript"><![CDATA[
var edges = document.getElementsByTagName('g');
if (edges && edges.length) {
  for (var i=0;i<edges.length;i++) {
    if (edges[i].id.substr(0,4)=='edge') {
      edges[i].setAttribute('class','edge');
    }
  }
}
]]></script>
        <defs>
                <circle id="rim" cx="0" cy="0" r="7"/>
                <circle id="rim2" cx="0" cy="0" r="3.5"/>
                <g id="zoomPlus">
                        <use xlink:href="#rim" fill="#404040">
                                <set attributeName="fill" to="#808080" begin="zoomplus.mouseover" end="zoomplus.mouseout"/>
                        </use>
                        <path d="M-4,0h8M0,-4v8" fill="none" stroke="white" stroke-width="1.5" pointer-events="none"/>
                </g>
                <g id="zoomMin">
                        <use xlink:href="#rim" fill="#404040">
                                <set attributeName="fill" to="#808080" begin="zoomminus.mouseover" end="zoomminus.mouseout"/>
                        </use>
                        <path d="M-4,0h8" fill="none" stroke="white" stroke-width="1.5" pointer-events="none"/>
                </g>
                <g id="dirArrow">
                        <path fill="none" stroke="white" stroke-width="1.5" d="M0,-3.0v7 M-2.5,-0.5L0,-3.0L2.5,-0.5"/>
                </g>
               <g id="resetDef">
                       <use xlink:href="#rim2" fill="#404040">
                               <set attributeName="fill" to="#808080" begin="reset.mouseover" end="reset.mouseout"/>
                       </use>
               </g>
        </defs>

<script type="text/javascript">
var viewWidth = 548;
var viewHeight = 253;
var sectionId = 'dynsection-6';
</script>
<script xlink:href="svgpan.js"/>
<svg id="graph" class="graph">
<g id="viewport">
<title>U_CONTROLLER::InstallService</title>
<!-- Node1 -->
<g id="node1" class="node">
<title>Node1</title>
<g id="a_node1"><a xlink:title="Install the service &quot;szServiceName&quot;.">
<polygon fill="#bfbfbf" stroke="black" points="0,-121 0,-140 156,-140 156,-121 0,-121"/>
<text text-anchor="middle" x="78" y="-128" font-family="Helvetica,sans-Serif" font-size="10.00">U_CONTROLLER::InstallService</text>
</a>
</g>
</g>
<!-- Node2 -->
<g id="node2" class="node">
<title>Node2</title>
<g id="a_node2"><a xlink:href="class_u___c_o_n_t_r_o_l_l_e_r.html#a65733b52c6801a89b0c12d7836feef9c" target="_top" xlink:title="Get a handle to the Service Controller Database.">
<polygon fill="none" stroke="black" points="192,-225 192,-244 364,-244 364,-225 192,-225"/>
<text text-anchor="middle" x="278" y="-232" font-family="Helvetica,sans-Serif" font-size="10.00">U_CONTROLLER::_GetSCMHandle</text>
</a>
</g>
</g>
<!-- Node1&#45;&gt;Node2 -->
<g id="edge1" class="edge">
<title>Node1&#45;&gt;Node2</title>
<path fill="none" stroke="midnightblue" d="M88.63,-140.08C107.04,-157.81 149.2,-195.75 192,-215.5 197.37,-217.98 203.07,-220.14 208.89,-222.03"/>
<polygon fill="midnightblue" stroke="midnightblue" points="208.17,-225.46 218.76,-224.95 210.16,-218.75 208.17,-225.46"/>
</g>
<!-- Node3 -->
<g id="node3" class="node">
<title>Node3</title>
<g id="a_node3"><a xlink:href="class_u___r_e_g_i_s_t_r_y.html#acb3aa163feb4caa0bbd10c41579ff78a" target="_top" xlink:title="Create the registry key &quot;szSubKey&quot; located in the HIVE &quot;hKeyParent&quot;.">
<polygon fill="none" stroke="black" points="195.5,-187 195.5,-206 360.5,-206 360.5,-187 195.5,-187"/>
<text text-anchor="middle" x="278" y="-194" font-family="Helvetica,sans-Serif" font-size="10.00">U_REGISTRY::CreateRegistryKey</text>
</a>
</g>
</g>
<!-- Node1&#45;&gt;Node3 -->
<g id="edge2" class="edge">
<title>Node1&#45;&gt;Node3</title>
<path fill="none" stroke="midnightblue" d="M99.02,-140.08C121.3,-150.44 158.58,-166.9 192,-177.5 200.27,-180.12 209.11,-182.53 217.84,-184.67"/>
<polygon fill="midnightblue" stroke="midnightblue" points="217.08,-188.09 227.62,-186.99 218.69,-181.28 217.08,-188.09"/>
</g>
<!-- Node4 -->
<g id="node4" class="node">
<title>Node4</title>
<g id="a_node4"><a xlink:href="class_u___u_t_i_l_i_t_a_i_r_e.html#a96db4752f1f9917f495d28c520320c88" target="_top" xlink:title="Get the current folder of the binary responsible for the launch of the service.">
<polygon fill="none" stroke="black" points="212.5,-137.5 212.5,-167.5 343.5,-167.5 343.5,-137.5 212.5,-137.5"/>
<text text-anchor="start" x="220.5" y="-155.5" font-family="Helvetica,sans-Serif" font-size="10.00">U_UTILITAIRE::GetCurrent</text>
<text text-anchor="middle" x="278" y="-144.5" font-family="Helvetica,sans-Serif" font-size="10.00">Folder</text>
</a>
</g>
</g>
<!-- Node1&#45;&gt;Node4 -->
<g id="edge3" class="edge">
<title>Node1&#45;&gt;Node4</title>
<path fill="none" stroke="midnightblue" d="M156.12,-139.07C171.21,-140.75 187.01,-142.5 202.02,-144.17"/>
<polygon fill="midnightblue" stroke="midnightblue" points="201.95,-147.68 212.27,-145.31 202.72,-140.73 201.95,-147.68"/>
</g>
<!-- Node5 -->
<g id="node5" class="node">
<title>Node5</title>
<g id="a_node5"><a xlink:href="class_u___l_o_g_s.html#a0f2932b79fce103453dd1cfc60de2007" target="_top" xlink:title="Send the reported event in the Event Viewer (Application &#45;&gt; PI&#45;Defender_UM).">
<polygon fill="none" stroke="black" points="405,-111 405,-130 535,-130 535,-111 405,-111"/>
<text text-anchor="middle" x="470" y="-118" font-family="Helvetica,sans-Serif" font-size="10.00">U_LOGS::SvcReportEvent</text>
</a>
</g>
</g>
<!-- Node1&#45;&gt;Node5 -->
<g id="edge5" class="edge">
<title>Node1&#45;&gt;Node5</title>
<path fill="none" stroke="midnightblue" d="M156.05,-128.52C225.2,-126.75 326.05,-124.17 394.43,-122.41"/>
<polygon fill="midnightblue" stroke="midnightblue" points="394.79,-125.9 404.7,-122.15 394.61,-118.91 394.79,-125.9"/>
</g>
<!-- Node6 -->
<g id="node6" class="node">
<title>Node6</title>
<g id="a_node6"><a xlink:href="class_u___r_e_g_i_s_t_r_y.html#ac826205b4627137b899c1e0066b3fb9a" target="_top" xlink:title="Write DWORD in the registry key &quot;szSubKey&quot; located in the HIVE &quot;hKeyParent&quot;.">
<polygon fill="none" stroke="black" points="207.5,-49.5 207.5,-79.5 348.5,-79.5 348.5,-49.5 207.5,-49.5"/>
<text text-anchor="start" x="215.5" y="-67.5" font-family="Helvetica,sans-Serif" font-size="10.00">U_REGISTRY::WriteDwordIn</text>
<text text-anchor="middle" x="278" y="-56.5" font-family="Helvetica,sans-Serif" font-size="10.00">Registry</text>
</a>
</g>
</g>
<!-- Node1&#45;&gt;Node6 -->
<g id="edge6" class="edge">
<title>Node1&#45;&gt;Node6</title>
<path fill="none" stroke="midnightblue" d="M107.79,-120.9C137.62,-110.96 184.98,-95.17 222.02,-82.83"/>
<polygon fill="midnightblue" stroke="midnightblue" points="223.3,-86.09 231.68,-79.61 221.08,-79.45 223.3,-86.09"/>
</g>
<!-- Node8 -->
<g id="node8" class="node">
<title>Node8</title>
<g id="a_node8"><a xlink:href="class_u___r_e_g_i_s_t_r_y.html#aa82742460b375f1fbd9534cd8f845bd0" target="_top" xlink:title="Write STRING in the registry key &quot;szSubKey&quot; located in the HIVE &quot;hKeyParent&quot;.">
<polygon fill="none" stroke="black" points="208,-0.5 208,-30.5 348,-30.5 348,-0.5 208,-0.5"/>
<text text-anchor="start" x="216" y="-18.5" font-family="Helvetica,sans-Serif" font-size="10.00">U_REGISTRY::WriteStringIn</text>
<text text-anchor="middle" x="278" y="-7.5" font-family="Helvetica,sans-Serif" font-size="10.00">Registry</text>
</a>
</g>
</g>
<!-- Node1&#45;&gt;Node8 -->
<g id="edge8" class="edge">
<title>Node1&#45;&gt;Node8</title>
<path fill="none" stroke="midnightblue" d="M88.31,-120.73C106.51,-102.2 148.8,-61.8 192,-39.5 195.58,-37.65 199.31,-35.93 203.14,-34.33"/>
<polygon fill="midnightblue" stroke="midnightblue" points="204.73,-37.47 212.8,-30.6 202.21,-30.94 204.73,-37.47"/>
</g>
<!-- Node4&#45;&gt;Node5 -->
<g id="edge4" class="edge">
<title>Node4&#45;&gt;Node5</title>
<path fill="none" stroke="midnightblue" d="M343.59,-141.62C362.56,-138.43 383.33,-134.93 402.42,-131.71"/>
<polygon fill="midnightblue" stroke="midnightblue" points="403.25,-135.12 412.53,-130.01 402.09,-128.22 403.25,-135.12"/>
</g>
<!-- Node7 -->
<g id="node7" class="node">
<title>Node7</title>
<g id="a_node7"><a xlink:href="class_u___r_e_g_i_s_t_r_y.html#aa3f355ae1e9c7c1f9db8496d25ac1f7d" target="_top" xlink:title="Write data in the registry key &quot;szSubKey&quot; located in the HIVE &quot;hKeyParent&quot;.">
<polygon fill="none" stroke="black" points="400,-37.5 400,-67.5 540,-67.5 540,-37.5 400,-37.5"/>
<text text-anchor="start" x="408" y="-55.5" font-family="Helvetica,sans-Serif" font-size="10.00">U_REGISTRY::_WriteDataIn</text>
<text text-anchor="middle" x="470" y="-44.5" font-family="Helvetica,sans-Serif" font-size="10.00">Registry</text>
</a>
</g>
</g>
<!-- Node6&#45;&gt;Node7 -->
<g id="edge7" class="edge">
<title>Node6&#45;&gt;Node7</title>
<path fill="none" stroke="midnightblue" d="M348.67,-60.1C362,-59.26 376.06,-58.37 389.67,-57.51"/>
<polygon fill="midnightblue" stroke="midnightblue" points="390.21,-60.98 399.97,-56.86 389.77,-54 390.21,-60.98"/>
</g>
<!-- Node8&#45;&gt;Node7 -->
<g id="edge9" class="edge">
<title>Node8&#45;&gt;Node7</title>
<path fill="none" stroke="midnightblue" d="M348.13,-28.96C361.71,-31.61 376.05,-34.4 389.92,-37.1"/>
<polygon fill="midnightblue" stroke="midnightblue" points="389.43,-40.57 399.92,-39.05 390.77,-33.7 389.43,-40.57"/>
</g>
</g>
</svg>
        <g id="navigator" transform="translate(0 0)" fill="#404254">
                <rect fill="#f2f5e9" fill-opacity="0.5" stroke="#606060" stroke-width=".5" x="0" y="0" width="60" height="60"/>
                <use id="zoomplus" xlink:href="#zoomPlus" x="17" y="9" onmousedown="handleZoom(evt,'in')"/>
                <use id="zoomminus" xlink:href="#zoomMin" x="42" y="9" onmousedown="handleZoom(evt,'out')"/>
                <use id="reset" xlink:href="#resetDef" x="30" y="36" onmousedown="handleReset()"/>
                <g id="arrowUp" xlink:href="#dirArrow" transform="translate(30 24)" onmousedown="handlePan(0,-1)">
                  <use xlink:href="#rim" fill="#404040">
                        <set attributeName="fill" to="#808080" begin="arrowUp.mouseover" end="arrowUp.mouseout"/>
                  </use>
                  <path fill="none" stroke="white" stroke-width="1.5" d="M0,-3.0v7 M-2.5,-0.5L0,-3.0L2.5,-0.5"/>
                </g>
                <g id="arrowRight" xlink:href="#dirArrow" transform="rotate(90) translate(36 -43)" onmousedown="handlePan(1,0)">
                  <use xlink:href="#rim" fill="#404040">
                        <set attributeName="fill" to="#808080" begin="arrowRight.mouseover" end="arrowRight.mouseout"/>
                  </use>
                  <path fill="none" stroke="white" stroke-width="1.5" d="M0,-3.0v7 M-2.5,-0.5L0,-3.0L2.5,-0.5"/>
                </g>
                <g id="arrowDown" xlink:href="#dirArrow" transform="rotate(180) translate(-30 -48)" onmousedown="handlePan(0,1)">
                  <use xlink:href="#rim" fill="#404040">
                        <set attributeName="fill" to="#808080" begin="arrowDown.mouseover" end="arrowDown.mouseout"/>
                  </use>
                  <path fill="none" stroke="white" stroke-width="1.5" d="M0,-3.0v7 M-2.5,-0.5L0,-3.0L2.5,-0.5"/>
                </g>
                <g id="arrowLeft" xlink:href="#dirArrow" transform="rotate(270) translate(-36 17)" onmousedown="handlePan(-1,0)">
                  <use xlink:href="#rim" fill="#404040">
                        <set attributeName="fill" to="#808080" begin="arrowLeft.mouseover" end="arrowLeft.mouseout"/>
                  </use>
                  <path fill="none" stroke="white" stroke-width="1.5" d="M0,-3.0v7 M-2.5,-0.5L0,-3.0L2.5,-0.5"/>
                </g>
        </g>
        <svg viewBox="0 0 15 15" width="100%" height="30px" preserveAspectRatio="xMaxYMin meet">
         <g id="arrow_out" transform="scale(0.3 0.3)">
          <a xlink:href="class_u___c_o_n_t_r_o_l_l_e_r_a81c82381327f2e86e44e97bd330f2796_cgraph_org.svg" target="_base">
           <rect id="button" ry="5" rx="5" y="6" x="6" height="38" width="38"
                fill="#f2f5e9" fill-opacity="0.5" stroke="#606060" stroke-width="1.0"/>
           <path id="arrow"
             d="M 11.500037,31.436501 C 11.940474,20.09759 22.043105,11.32322 32.158766,21.979434 L 37.068811,17.246167 C 37.068811,17.246167 37.088388,32 37.088388,32 L 22.160133,31.978069 C 22.160133,31.978069 26.997745,27.140456 26.997745,27.140456 C 18.528582,18.264221 13.291696,25.230495 11.500037,31.436501 z"
             style="fill:#404040;"/>
          </a>
         </g>
        </svg>
</svg>
