<?xml version="1.0" encoding="UTF-8" standalone="no"?>
<!DOCTYPE svg PUBLIC "-//W3C//DTD SVG 1.1//EN"
 "http://www.w3.org/Graphics/SVG/1.1/DTD/svg11.dtd">
<!-- Generated by graphviz version 4.0.0 (20220529.0937)
 -->
<!-- Title: U_CONFIGURATION::PrintConfiguration Pages: 1 -->
<svg width="635pt" height="297pt"
 viewBox="0.00 0.00 635.00 296.50" xmlns="http://www.w3.org/2000/svg" xmlns:xlink="http://www.w3.org/1999/xlink">
<g id="graph0" class="graph" transform="scale(1 1) rotate(0) translate(4 292.5)">
<title>U_CONFIGURATION::PrintConfiguration</title>
<!-- Node1 -->
<g id="node1" class="node">
<title>Node1</title>
<g id="a_node1"><a xlink:title="Print and populate service structure with the configuration read from registry keys.">
<polygon fill="#bfbfbf" stroke="black" points="0,-143 0,-162 190,-162 190,-143 0,-143"/>
<text text-anchor="middle" x="95" y="-150" font-family="Helvetica,sans-Serif" font-size="10.00">U_CONFIGURATION::PrintConfiguration</text>
</a>
</g>
</g>
<!-- Node2 -->
<g id="node2" class="node">
<title>Node2</title>
<g id="a_node2"><a xlink:href="class_u___c_o_n_f_i_g_u_r_a_t_i_o_n.html#a5d693465439549ecef553ae863f04cb5" target="_top" xlink:title="Get the number of items to be kept in the cache by the filter.">
<polygon fill="none" stroke="black" points="245.5,-269 245.5,-288 421.5,-288 421.5,-269 245.5,-269"/>
<text text-anchor="middle" x="333.5" y="-276" font-family="Helvetica,sans-Serif" font-size="10.00">U_CONFIGURATION::GetCacheSize</text>
</a>
</g>
</g>
<!-- Node1&#45;&gt;Node2 -->
<g id="edge1" class="edge">
<title>Node1&#45;&gt;Node2</title>
<path fill="none" stroke="midnightblue" d="M104.32,-162.1C123.43,-183.47 172.92,-234.99 226,-259.5 231.41,-262 237.11,-264.17 242.95,-266.05"/>
<polygon fill="midnightblue" stroke="midnightblue" points="242.3,-269.51 252.88,-268.96 244.27,-262.79 242.3,-269.51"/>
</g>
<!-- Node4 -->
<g id="node4" class="node">
<title>Node4</title>
<g id="a_node4"><a xlink:href="class_u___c_o_n_f_i_g_u_r_a_t_i_o_n.html#aafcf880d7361d9f00cd4dd497c3a97fa" target="_top" xlink:title="Get the communication port used by the driver to interact with the service.">
<polygon fill="none" stroke="black" points="226,-231 226,-250 441,-250 441,-231 226,-231"/>
<text text-anchor="middle" x="333.5" y="-238" font-family="Helvetica,sans-Serif" font-size="10.00">U_CONFIGURATION::GetCommunicationPort</text>
</a>
</g>
</g>
<!-- Node1&#45;&gt;Node4 -->
<g id="edge3" class="edge">
<title>Node1&#45;&gt;Node4</title>
<path fill="none" stroke="midnightblue" d="M110.52,-162.16C133.84,-177.23 181.56,-206.17 226,-221.5 234.13,-224.3 242.75,-226.71 251.44,-228.78"/>
<polygon fill="midnightblue" stroke="midnightblue" points="250.73,-232.2 261.25,-230.97 252.25,-225.37 250.73,-232.2"/>
</g>
<!-- Node5 -->
<g id="node5" class="node">
<title>Node5</title>
<g id="a_node5"><a xlink:href="class_u___c_o_n_f_i_g_u_r_a_t_i_o_n.html#a11328249616049976aeafd9ad80429bc" target="_top" xlink:title="Get the number of threads of the service by reading the values in the Registry.">
<polygon fill="none" stroke="black" points="251.5,-181.5 251.5,-211.5 415.5,-211.5 415.5,-181.5 251.5,-181.5"/>
<text text-anchor="start" x="259.5" y="-199.5" font-family="Helvetica,sans-Serif" font-size="10.00">U_CONFIGURATION::GetListener</text>
<text text-anchor="middle" x="333.5" y="-188.5" font-family="Helvetica,sans-Serif" font-size="10.00">Threads</text>
</a>
</g>
</g>
<!-- Node1&#45;&gt;Node5 -->
<g id="edge5" class="edge">
<title>Node1&#45;&gt;Node5</title>
<path fill="none" stroke="midnightblue" d="M147.32,-162.05C174.78,-167.16 209.42,-173.6 241.29,-179.53"/>
<polygon fill="midnightblue" stroke="midnightblue" points="241.05,-183.05 251.52,-181.43 242.33,-176.16 241.05,-183.05"/>
</g>
<!-- Node6 -->
<g id="node6" class="node">
<title>Node6</title>
<g id="a_node6"><a xlink:href="class_u___c_o_n_f_i_g_u_r_a_t_i_o_n.html#a16a3374e66a338c898a4e84fc6602368" target="_top" xlink:title="Get the maximum number of clients of the service by reading the values in the REGISTRY:: &#160;[i] This va...">
<polygon fill="none" stroke="black" points="244.5,-143 244.5,-162 422.5,-162 422.5,-143 244.5,-143"/>
<text text-anchor="middle" x="333.5" y="-150" font-family="Helvetica,sans-Serif" font-size="10.00">U_CONFIGURATION::GetMaxClients</text>
</a>
</g>
</g>
<!-- Node1&#45;&gt;Node6 -->
<g id="edge7" class="edge">
<title>Node1&#45;&gt;Node6</title>
<path fill="none" stroke="midnightblue" d="M190.15,-152.5C204.7,-152.5 219.75,-152.5 234.39,-152.5"/>
<polygon fill="midnightblue" stroke="midnightblue" points="234.44,-156 244.44,-152.5 234.44,-149 234.44,-156"/>
</g>
<!-- Node7 -->
<g id="node7" class="node">
<title>Node7</title>
<g id="a_node7"><a xlink:href="class_u___c_o_n_f_i_g_u_r_a_t_i_o_n.html#a86c433a3d57e5800ad03a4411ace09d6" target="_top" xlink:title="Get the number of threads of the service by reading the values in the REGISTRY::">
<polygon fill="none" stroke="black" points="244,-93.5 244,-123.5 423,-123.5 423,-93.5 244,-93.5"/>
<text text-anchor="start" x="252" y="-111.5" font-family="Helvetica,sans-Serif" font-size="10.00">U_CONFIGURATION::GetMaxWorker</text>
<text text-anchor="middle" x="333.5" y="-100.5" font-family="Helvetica,sans-Serif" font-size="10.00">Threads</text>
</a>
</g>
</g>
<!-- Node1&#45;&gt;Node7 -->
<g id="edge9" class="edge">
<title>Node1&#45;&gt;Node7</title>
<path fill="none" stroke="midnightblue" d="M147.32,-142.95C174.78,-137.84 209.42,-131.4 241.29,-125.47"/>
<polygon fill="midnightblue" stroke="midnightblue" points="242.33,-128.84 251.52,-123.57 241.05,-121.95 242.33,-128.84"/>
</g>
<!-- Node8 -->
<g id="node8" class="node">
<title>Node8</title>
<g id="a_node8"><a xlink:href="class_u___c_o_n_f_i_g_u_r_a_t_i_o_n.html#a3979610ba0d110c0e79481925f413ea0" target="_top" xlink:title="Get the number of threads of the service by reading the values in the Registry.">
<polygon fill="none" stroke="black" points="245.5,-44.5 245.5,-74.5 421.5,-74.5 421.5,-44.5 245.5,-44.5"/>
<text text-anchor="start" x="253.5" y="-62.5" font-family="Helvetica,sans-Serif" font-size="10.00">U_CONFIGURATION::GetMinWorker</text>
<text text-anchor="middle" x="333.5" y="-51.5" font-family="Helvetica,sans-Serif" font-size="10.00">Threads</text>
</a>
</g>
</g>
<!-- Node1&#45;&gt;Node8 -->
<g id="edge11" class="edge">
<title>Node1&#45;&gt;Node8</title>
<path fill="none" stroke="midnightblue" d="M111.42,-142.79C135.18,-128.22 182.55,-100.67 226,-84.5 232.99,-81.9 240.35,-79.51 247.79,-77.32"/>
<polygon fill="midnightblue" stroke="midnightblue" points="248.91,-80.64 257.6,-74.57 247.02,-73.9 248.91,-80.64"/>
</g>
<!-- Node9 -->
<g id="node9" class="node">
<title>Node9</title>
<g id="a_node9"><a xlink:href="class_u___c_o_n_f_i_g_u_r_a_t_i_o_n.html#a3d4d97df1d0d20e20f7a1d696f9c4150" target="_top" xlink:title="Get the whitelist used to allow user&#45;specified apps.">
<polygon fill="none" stroke="black" points="250,-6 250,-25 417,-25 417,-6 250,-6"/>
<text text-anchor="middle" x="333.5" y="-13" font-family="Helvetica,sans-Serif" font-size="10.00">U_CONFIGURATION::GetWhitelist</text>
</a>
</g>
</g>
<!-- Node1&#45;&gt;Node9 -->
<g id="edge13" class="edge">
<title>Node1&#45;&gt;Node9</title>
<path fill="none" stroke="midnightblue" d="M103.27,-142.93C121.26,-120 170.47,-61.79 226,-34.5 230.95,-32.07 236.17,-29.94 241.53,-28.09"/>
<polygon fill="midnightblue" stroke="midnightblue" points="242.79,-31.36 251.29,-25.03 240.7,-24.68 242.79,-31.36"/>
</g>
<!-- Node3 -->
<g id="node3" class="node">
<title>Node3</title>
<g id="a_node3"><a xlink:href="class_u___r_e_g_i_s_t_r_y.html#ab8fcbe86de2429b471dcaa94d9025aa8" target="_top" xlink:title="Read the content (DWORD) of the registry key &quot;szSubKey&quot; located in the HIVE &quot;hKeyParent&quot;.">
<polygon fill="none" stroke="black" points="486.5,-165 486.5,-184 617.5,-184 617.5,-165 486.5,-165"/>
<text text-anchor="middle" x="552" y="-172" font-family="Helvetica,sans-Serif" font-size="10.00">U_REGISTRY::ReadValue</text>
</a>
</g>
</g>
<!-- Node2&#45;&gt;Node3 -->
<g id="edge2" class="edge">
<title>Node2&#45;&gt;Node3</title>
<path fill="none" stroke="midnightblue" d="M413.16,-268.93C422.75,-266.47 432.24,-263.38 441,-259.5 478.4,-242.92 514.5,-211.03 534.62,-191.38"/>
<polygon fill="midnightblue" stroke="midnightblue" points="537.15,-193.8 541.76,-184.26 532.2,-188.84 537.15,-193.8"/>
</g>
<!-- Node4&#45;&gt;Node3 -->
<g id="edge4" class="edge">
<title>Node4&#45;&gt;Node3</title>
<path fill="none" stroke="midnightblue" d="M401.23,-231C414.54,-228.43 428.31,-225.29 441,-221.5 469.77,-212.91 501.14,-199.03 522.99,-188.57"/>
<polygon fill="midnightblue" stroke="midnightblue" points="524.55,-191.7 532.02,-184.19 521.5,-185.41 524.55,-191.7"/>
</g>
<!-- Node5&#45;&gt;Node3 -->
<g id="edge6" class="edge">
<title>Node5&#45;&gt;Node3</title>
<path fill="none" stroke="midnightblue" d="M415.73,-188.25C435.55,-186.23 456.67,-184.09 476.18,-182.1"/>
<polygon fill="midnightblue" stroke="midnightblue" points="476.62,-185.58 486.21,-181.08 475.91,-178.61 476.62,-185.58"/>
</g>
<!-- Node6&#45;&gt;Node3 -->
<g id="edge8" class="edge">
<title>Node6&#45;&gt;Node3</title>
<path fill="none" stroke="midnightblue" d="M422.56,-161.45C440.37,-163.26 458.94,-165.14 476.24,-166.9"/>
<polygon fill="midnightblue" stroke="midnightblue" points="475.96,-170.39 486.26,-167.92 476.67,-163.43 475.96,-170.39"/>
</g>
<!-- Node7&#45;&gt;Node3 -->
<g id="edge10" class="edge">
<title>Node7&#45;&gt;Node3</title>
<path fill="none" stroke="midnightblue" d="M404.16,-123.52C416.5,-126.56 429.18,-129.93 441,-133.5 467.39,-141.48 496.61,-152.48 518.29,-161.07"/>
<polygon fill="midnightblue" stroke="midnightblue" points="517.11,-164.37 527.69,-164.83 519.71,-157.87 517.11,-164.37"/>
</g>
<!-- Node8&#45;&gt;Node3 -->
<g id="edge12" class="edge">
<title>Node8&#45;&gt;Node3</title>
<path fill="none" stroke="midnightblue" d="M416.1,-74.57C424.71,-77.35 433.16,-80.64 441,-84.5 478.9,-103.19 515.32,-137.15 535.28,-157.59"/>
<polygon fill="midnightblue" stroke="midnightblue" points="532.88,-160.14 542.32,-164.95 537.94,-155.3 532.88,-160.14"/>
</g>
<!-- Node10 -->
<g id="node10" class="node">
<title>Node10</title>
<g id="a_node10"><a xlink:href="class_u___u_t_i_l_i_t_a_i_r_e.html#a2c076a3a7da58e7cf05d81404acd5b55" target="_top" xlink:title="Returns the number of Unicode strings found in a buffer (raw data from REG_MULTI_SZ)">
<polygon fill="none" stroke="black" points="477,-0.5 477,-30.5 627,-30.5 627,-0.5 477,-0.5"/>
<text text-anchor="start" x="485" y="-18.5" font-family="Helvetica,sans-Serif" font-size="10.00">U_UTILITAIRE::CountWStrings</text>
<text text-anchor="middle" x="552" y="-7.5" font-family="Helvetica,sans-Serif" font-size="10.00">InBuffer</text>
</a>
</g>
</g>
<!-- Node9&#45;&gt;Node10 -->
<g id="edge14" class="edge">
<title>Node9&#45;&gt;Node10</title>
<path fill="none" stroke="midnightblue" d="M417.28,-15.5C433.49,-15.5 450.51,-15.5 466.77,-15.5"/>
<polygon fill="midnightblue" stroke="midnightblue" points="466.78,-19 476.78,-15.5 466.78,-12 466.78,-19"/>
</g>
</g>
</svg>
