<?xml version="1.0" encoding="UTF-8" standalone="no"?>
<!DOCTYPE svg PUBLIC "-//W3C//DTD SVG 1.1//EN"
 "http://www.w3.org/Graphics/SVG/1.1/DTD/svg11.dtd">
<!-- Generated by graphviz version 4.0.0 (20220529.0937)
 -->
<!-- Title: K_WHITELIST::Initialize Pages: 1 -->
<svg width="324pt" height="78pt"
 viewBox="0.00 0.00 324.00 77.50" xmlns="http://www.w3.org/2000/svg" xmlns:xlink="http://www.w3.org/1999/xlink">
<g id="graph0" class="graph" transform="scale(1 1) rotate(0) translate(4 73.5)">
<title>K_WHITELIST::Initialize</title>
<!-- Node1 -->
<g id="node1" class="node">
<title>Node1</title>
<g id="a_node1"><a xlink:title="Set maximum size of Cache and initialize mutex.">
<polygon fill="#bfbfbf" stroke="black" points="0,-22.5 0,-41.5 120,-41.5 120,-22.5 0,-22.5"/>
<text text-anchor="middle" x="60" y="-29.5" font-family="Helvetica,sans-Serif" font-size="10.00">K_WHITELIST::Initialize</text>
</a>
</g>
</g>
<!-- Node2 -->
<g id="node2" class="node">
<title>Node2</title>
<g id="a_node2"><a xlink:href="class_k___u_t_i_l_i_t_a_i_r_e.html#a98e7806ad180b50600ded0f2cfbe7721" target="_top" xlink:title="Returns the number of Unicode strings found in a buffer (raw data from REG_MULTI_SZ).">
<polygon fill="none" stroke="black" points="161,-39 161,-69 311,-69 311,-39 161,-39"/>
<text text-anchor="start" x="169" y="-57" font-family="Helvetica,sans-Serif" font-size="10.00">K_UTILITAIRE::CountWStrings</text>
<text text-anchor="middle" x="236" y="-46" font-family="Helvetica,sans-Serif" font-size="10.00">InBuffer</text>
</a>
</g>
</g>
<!-- Node1&#45;&gt;Node2 -->
<g id="edge1" class="edge">
<title>Node1&#45;&gt;Node2</title>
<path fill="none" stroke="midnightblue" d="M120.39,-39.51C130.14,-40.74 140.4,-42.04 150.62,-43.33"/>
<polygon fill="midnightblue" stroke="midnightblue" points="150.43,-46.84 160.79,-44.62 151.31,-39.89 150.43,-46.84"/>
</g>
<!-- Node3 -->
<g id="node3" class="node">
<title>Node3</title>
<g id="a_node3"><a xlink:href="class_k___u_t_i_l_i_t_a_i_r_e.html#a23d61cfecbdbc066af919da96cd175cd" target="_top" xlink:title="Translate a DOS path into a NT path.">
<polygon fill="none" stroke="black" points="156,-0.5 156,-19.5 316,-19.5 316,-0.5 156,-0.5"/>
<text text-anchor="middle" x="236" y="-7.5" font-family="Helvetica,sans-Serif" font-size="10.00">K_UTILITAIRE::DosPathtoNtPath</text>
</a>
</g>
</g>
<!-- Node1&#45;&gt;Node3 -->
<g id="edge2" class="edge">
<title>Node1&#45;&gt;Node3</title>
<path fill="none" stroke="midnightblue" d="M120.39,-24.49C129.75,-23.31 139.57,-22.07 149.38,-20.83"/>
<polygon fill="midnightblue" stroke="midnightblue" points="150.08,-24.26 159.57,-19.54 149.21,-17.32 150.08,-24.26"/>
</g>
</g>
</svg>
