<?xml version="1.0" encoding="UTF-8" standalone="no"?>
<!DOCTYPE svg PUBLIC "-//W3C//DTD SVG 1.1//EN"
 "http://www.w3.org/Graphics/SVG/1.1/DTD/svg11.dtd">
<!-- Generated by graphviz version 4.0.0 (20220529.0937)
 -->
<!-- Title: K_WHITELIST Pages: 1 -->
<svg width="187pt" height="298pt"
 viewBox="0.00 0.00 186.50 298.00" xmlns="http://www.w3.org/2000/svg" xmlns:xlink="http://www.w3.org/1999/xlink">
<g id="graph0" class="graph" transform="scale(1 1) rotate(0) translate(4 294)">
<title>K_WHITELIST</title>
<!-- Node1 -->
<g id="node1" class="node">
<title>Node1</title>
<g id="a_node1"><a xlink:title=" ">
<polygon fill="#bfbfbf" stroke="black" points="59,-0.5 59,-79.5 144,-79.5 144,-0.5 59,-0.5"/>
<text text-anchor="middle" x="101.5" y="-67.5" font-family="Helvetica,sans-Serif" font-size="10.00">K_WHITELIST</text>
<polyline fill="none" stroke="black" points="59,-60.5 144,-60.5 "/>
<text text-anchor="middle" x="101.5" y="-48.5" font-family="Helvetica,sans-Serif" font-size="10.00"> </text>
<polyline fill="none" stroke="black" points="59,-41.5 144,-41.5 "/>
<text text-anchor="start" x="67" y="-29.5" font-family="Helvetica,sans-Serif" font-size="10.00">+ Unload()</text>
<text text-anchor="start" x="67" y="-18.5" font-family="Helvetica,sans-Serif" font-size="10.00">+ Initialize()</text>
<text text-anchor="start" x="67" y="-7.5" font-family="Helvetica,sans-Serif" font-size="10.00">+ IsInWhitelist()</text>
</a>
</g>
</g>
<!-- Node2 -->
<g id="node2" class="node">
<title>Node2</title>
<g id="a_node2"><a xlink:href="struct_k___w_h_i_t_e_l_i_s_t_1_1___w_h_i_t_e_l_i_s_t.html" target="_top" xlink:title=" ">
<polygon fill="none" stroke="black" points="31.5,-127.5 31.5,-184.5 171.5,-184.5 171.5,-127.5 31.5,-127.5"/>
<text text-anchor="middle" x="101.5" y="-172.5" font-family="Helvetica,sans-Serif" font-size="10.00">K_WHITELIST::_WHITELIST</text>
<polyline fill="none" stroke="black" points="31.5,-165.5 171.5,-165.5 "/>
<text text-anchor="middle" x="101.5" y="-153.5" font-family="Helvetica,sans-Serif" font-size="10.00"> </text>
<polyline fill="none" stroke="black" points="31.5,-146.5 171.5,-146.5 "/>
<text text-anchor="middle" x="101.5" y="-134.5" font-family="Helvetica,sans-Serif" font-size="10.00"> </text>
</a>
</g>
</g>
<!-- Node2&#45;&gt;Node1 -->
<g id="edge1" class="edge">
<title>Node2&#45;&gt;Node1</title>
<path fill="none" stroke="#404040" d="M101.5,-127.4C101.5,-116.63 101.5,-103.93 101.5,-91.62"/>
<polygon fill="none" stroke="#404040" points="101.5,-91.54 97.5,-85.54 101.5,-79.54 105.5,-85.54 101.5,-91.54"/>
<text text-anchor="middle" x="126.5" y="-101" font-family="Helvetica,sans-Serif" font-size="10.00"> &#45;_Whitelist</text>
</g>
<!-- Node3 -->
<g id="node3" class="node">
<title>Node3</title>
<g id="a_node3"><a xlink:title=" ">
<polygon fill="none" stroke="black" points="0,-232.5 0,-289.5 107,-289.5 107,-232.5 0,-232.5"/>
<text text-anchor="middle" x="53.5" y="-277.5" font-family="Helvetica,sans-Serif" font-size="10.00">UNICODE_STRING *</text>
<polyline fill="none" stroke="black" points="0,-270.5 107,-270.5 "/>
<text text-anchor="middle" x="53.5" y="-258.5" font-family="Helvetica,sans-Serif" font-size="10.00"> </text>
<polyline fill="none" stroke="black" points="0,-251.5 107,-251.5 "/>
<text text-anchor="middle" x="53.5" y="-239.5" font-family="Helvetica,sans-Serif" font-size="10.00"> </text>
</a>
</g>
</g>
<!-- Node3&#45;&gt;Node2 -->
<g id="edge2" class="edge">
<title>Node3&#45;&gt;Node2</title>
<path fill="none" stroke="#404040" d="M66.36,-232.4C71.58,-221.2 77.7,-208.06 83.36,-195.92"/>
<polygon fill="none" stroke="#404040" points="83.53,-195.56 82.44,-188.43 88.6,-184.68 89.69,-191.81 83.53,-195.56"/>
<text text-anchor="middle" x="102" y="-206" font-family="Helvetica,sans-Serif" font-size="10.00"> +szBuffer</text>
</g>
<!-- Node4 -->
<g id="node4" class="node">
<title>Node4</title>
<g id="a_node4"><a xlink:title=" ">
<polygon fill="none" stroke="black" points="125.5,-232.5 125.5,-289.5 175.5,-289.5 175.5,-232.5 125.5,-232.5"/>
<text text-anchor="middle" x="150.5" y="-277.5" font-family="Helvetica,sans-Serif" font-size="10.00">ULONG</text>
<polyline fill="none" stroke="black" points="125.5,-270.5 175.5,-270.5 "/>
<text text-anchor="middle" x="150.5" y="-258.5" font-family="Helvetica,sans-Serif" font-size="10.00"> </text>
<polyline fill="none" stroke="black" points="125.5,-251.5 175.5,-251.5 "/>
<text text-anchor="middle" x="150.5" y="-239.5" font-family="Helvetica,sans-Serif" font-size="10.00"> </text>
</a>
</g>
</g>
<!-- Node4&#45;&gt;Node2 -->
<g id="edge3" class="edge">
<title>Node4&#45;&gt;Node2</title>
<path fill="none" stroke="#404040" d="M140.87,-232.36C137.3,-222.91 133.02,-212.36 128.5,-203 127.32,-200.56 126.06,-198.08 124.75,-195.59"/>
<polygon fill="none" stroke="#404040" points="124.61,-195.33 118.2,-192.01 118.8,-184.82 125.21,-188.14 124.61,-195.33"/>
<text text-anchor="middle" x="155.5" y="-206" font-family="Helvetica,sans-Serif" font-size="10.00"> +ulLength</text>
</g>
</g>
</svg>
