<?xml version="1.0" encoding="UTF-8" standalone="no"?>
<!DOCTYPE svg PUBLIC "-//W3C//DTD SVG 1.1//EN"
 "http://www.w3.org/Graphics/SVG/1.1/DTD/svg11.dtd">
<!-- Generated by graphviz version 4.0.0 (20220529.0937)
 -->
<!-- Title: U_UTILITAIRE::DisplayMessage Pages: 1 -->
<!--zoomable 206 -->
<svg id="main" version="1.1" xmlns="http://www.w3.org/2000/svg" xmlns:xlink="http://www.w3.org/1999/xlink" xml:space="preserve" onload="init(evt)">
<style type="text/css"><![CDATA[
.edge:hover path { stroke: red; }
.edge:hover polygon { stroke: red; fill: red; }
]]></style>
<script type="text/javascript"><![CDATA[
var edges = document.getElementsByTagName('g');
if (edges && edges.length) {
  for (var i=0;i<edges.length;i++) {
    if (edges[i].id.substr(0,4)=='edge') {
      edges[i].setAttribute('class','edge');
    }
  }
}
]]></script>
        <defs>
                <circle id="rim" cx="0" cy="0" r="7"/>
                <circle id="rim2" cx="0" cy="0" r="3.5"/>
                <g id="zoomPlus">
                        <use xlink:href="#rim" fill="#404040">
                                <set attributeName="fill" to="#808080" begin="zoomplus.mouseover" end="zoomplus.mouseout"/>
                        </use>
                        <path d="M-4,0h8M0,-4v8" fill="none" stroke="white" stroke-width="1.5" pointer-events="none"/>
                </g>
                <g id="zoomMin">
                        <use xlink:href="#rim" fill="#404040">
                                <set attributeName="fill" to="#808080" begin="zoomminus.mouseover" end="zoomminus.mouseout"/>
                        </use>
                        <path d="M-4,0h8" fill="none" stroke="white" stroke-width="1.5" pointer-events="none"/>
                </g>
                <g id="dirArrow">
                        <path fill="none" stroke="white" stroke-width="1.5" d="M0,-3.0v7 M-2.5,-0.5L0,-3.0L2.5,-0.5"/>
                </g>
               <g id="resetDef">
                       <use xlink:href="#rim2" fill="#404040">
                               <set attributeName="fill" to="#808080" begin="reset.mouseover" end="reset.mouseout"/>
                       </use>
               </g>
        </defs>

<script type="text/javascript">
var viewWidth = 1328;
var viewHeight = 206;
var sectionId = 'dynsection-5';
</script>
<script xlink:href="svgpan.js"/>
<svg id="graph" class="graph">
<g id="viewport">
<title>U_UTILITAIRE::DisplayMessage</title>
<!-- Node1 -->
<g id="node1" class="node">
<title>Node1</title>
<g id="a_node1"><a xlink:title="Popup error message displaying the function that failed associated with the error code.">
<polygon fill="#bfbfbf" stroke="black" points="1164,-90.73 1164,-109.73 1320,-109.73 1320,-90.73 1164,-90.73"/>
<text text-anchor="middle" x="1242" y="-97.73" font-family="Helvetica,sans-Serif" font-size="10.00">U_UTILITAIRE::DisplayMessage</text>
</a>
</g>
</g>
<!-- Node2 -->
<g id="node2" class="node">
<title>Node2</title>
<g id="a_node2"><a xlink:href="class_u___u_t_i_l_i_t_a_i_r_e.html#ad0b0328deb4197e357bb5d74c3173775" target="_top" xlink:title="This routine will display an error message based off of the Win32 error code that is passed in.">
<polygon fill="none" stroke="black" points="991,-90.73 991,-109.73 1128,-109.73 1128,-90.73 991,-90.73"/>
<text text-anchor="middle" x="1059.5" y="-97.73" font-family="Helvetica,sans-Serif" font-size="10.00">U_UTILITAIRE::DisplayError</text>
</a>
</g>
</g>
<!-- Node1&#45;&gt;Node2 -->
<g id="edge1" class="edge">
<title>Node1&#45;&gt;Node2</title>
<path fill="none" stroke="midnightblue" d="M1153.85,-100.23C1145.23,-100.23 1136.58,-100.23 1128.2,-100.23"/>
<polygon fill="midnightblue" stroke="midnightblue" points="1153.93,-103.73 1163.93,-100.23 1153.93,-96.73 1153.93,-103.73"/>
</g>
<!-- Node3 -->
<g id="node3" class="node">
<title>Node3</title>
<g id="a_node3"><a xlink:href="class_u___c_o_m_m_u_n_i_c_a_t_i_o_n.html#a6f2f0c62b6e4f1270d5c95c6e6521ee3" target="_top" xlink:title="Push a new message in the queue.">
<polygon fill="none" stroke="black" points="768,-167.23 768,-197.23 955,-197.23 955,-167.23 768,-167.23"/>
<text text-anchor="start" x="776" y="-185.23" font-family="Helvetica,sans-Serif" font-size="10.00">U_COMMUNICATION::_PumpMessage</text>
<text text-anchor="middle" x="861.5" y="-174.23" font-family="Helvetica,sans-Serif" font-size="10.00">InQueue</text>
</a>
</g>
</g>
<!-- Node2&#45;&gt;Node3 -->
<g id="edge2" class="edge">
<title>Node2&#45;&gt;Node3</title>
<path fill="none" stroke="midnightblue" d="M1032.5,-114.68C1011.88,-125.8 982.1,-141.1 955,-152.23 941.88,-157.62 927.41,-162.7 913.89,-167.1"/>
<polygon fill="midnightblue" stroke="midnightblue" points="1034.19,-117.75 1041.3,-109.89 1030.84,-111.6 1034.19,-117.75"/>
</g>
<!-- Node5 -->
<g id="node5" class="node">
<title>Node5</title>
<g id="a_node5"><a xlink:href="class_u___c_o_m_m_u_n_i_c_a_t_i_o_n.html#a1cbfbcf7e7e895608457abf405455e6a" target="_top" xlink:title="Thread listening message sends from kernel driver.">
<polygon fill="none" stroke="black" points="386.5,-148.23 386.5,-178.23 537.5,-178.23 537.5,-148.23 386.5,-148.23"/>
<text text-anchor="start" x="394.5" y="-166.23" font-family="Helvetica,sans-Serif" font-size="10.00">U_COMMUNICATION::Listener</text>
<text text-anchor="middle" x="462" y="-155.23" font-family="Helvetica,sans-Serif" font-size="10.00">Thread</text>
</a>
</g>
</g>
<!-- Node2&#45;&gt;Node5 -->
<g id="edge16" class="edge">
<title>Node2&#45;&gt;Node5</title>
<path fill="none" stroke="midnightblue" d="M980.75,-111.05C972.07,-112.17 963.35,-113.25 955,-114.23 807.3,-131.57 634.18,-147.88 537.69,-156.62"/>
<polygon fill="midnightblue" stroke="midnightblue" points="981.44,-114.49 990.9,-109.72 980.53,-107.55 981.44,-114.49"/>
</g>
<!-- Node9 -->
<g id="node9" class="node">
<title>Node9</title>
<g id="a_node9"><a xlink:href="_u___service_8cpp.html#a3e9716f0248a5a48598490cd4920cbee" target="_top" xlink:title="Entrypoint of the user space executable.">
<polygon fill="none" stroke="black" points="0,-71.73 0,-90.73 46,-90.73 46,-71.73 0,-71.73"/>
<text text-anchor="middle" x="23" y="-78.73" font-family="Helvetica,sans-Serif" font-size="10.00">_tmain</text>
</a>
</g>
</g>
<!-- Node2&#45;&gt;Node9 -->
<g id="edge9" class="edge">
<title>Node2&#45;&gt;Node9</title>
<path fill="none" stroke="midnightblue" d="M980.82,-100.23C899.85,-100.23 769.28,-100.23 656.5,-100.23 656.5,-100.23 656.5,-100.23 254.5,-100.23 177.81,-100.23 87.25,-89.66 46.2,-84.28"/>
<polygon fill="midnightblue" stroke="midnightblue" points="980.93,-103.73 990.93,-100.23 980.93,-96.73 980.93,-103.73"/>
</g>
<!-- Node10 -->
<g id="node10" class="node">
<title>Node10</title>
<g id="a_node10"><a xlink:href="class_u___u_t_i_l_i_t_a_i_r_e.html#a79692e46fa7724a4ada34301a145bad3" target="_top" xlink:title="Enable the virtual terminal to be able to print text in color.">
<polygon fill="none" stroke="black" points="584.5,-3.23 584.5,-33.23 726.5,-33.23 726.5,-3.23 584.5,-3.23"/>
<text text-anchor="start" x="592.5" y="-21.23" font-family="Helvetica,sans-Serif" font-size="10.00">U_UTILITAIRE::EnableVirtual</text>
<text text-anchor="middle" x="655.5" y="-10.23" font-family="Helvetica,sans-Serif" font-size="10.00">Terminal</text>
</a>
</g>
</g>
<!-- Node2&#45;&gt;Node10 -->
<g id="edge10" class="edge">
<title>Node2&#45;&gt;Node10</title>
<path fill="none" stroke="midnightblue" d="M1035.22,-85.42C1014.88,-73.25 984.14,-56.7 955,-48.23 878.98,-26.14 788,-19.7 726.63,-18.12"/>
<polygon fill="midnightblue" stroke="midnightblue" points="1033.43,-88.42 1043.79,-90.65 1037.08,-82.45 1033.43,-88.42"/>
</g>
<!-- Node11 -->
<g id="node11" class="node">
<title>Node11</title>
<g id="a_node11"><a xlink:href="class_u___c_o_n_t_r_o_l_l_e_r.html#a031d85cad5238299ce37dcac69a91ffc" target="_top" xlink:title="Start the service &quot;szServiceName&quot;.">
<polygon fill="none" stroke="black" points="381,-52.73 381,-71.73 543,-71.73 543,-52.73 381,-52.73"/>
<text text-anchor="middle" x="462" y="-59.73" font-family="Helvetica,sans-Serif" font-size="10.00">U_CONTROLLER::LaunchService</text>
</a>
</g>
</g>
<!-- Node2&#45;&gt;Node11 -->
<g id="edge12" class="edge">
<title>Node2&#45;&gt;Node11</title>
<path fill="none" stroke="midnightblue" d="M984.35,-89.42C974.5,-88.21 964.51,-87.11 955,-86.23 810.23,-72.93 640.77,-66.71 543.25,-64.04"/>
<polygon fill="midnightblue" stroke="midnightblue" points="984.19,-92.93 994.55,-90.71 985.07,-85.98 984.19,-92.93"/>
</g>
<!-- Node4 -->
<g id="node4" class="node">
<title>Node4</title>
<g id="a_node4"><a xlink:href="class_u___c_o_m_m_u_n_i_c_a_t_i_o_n.html#a87d0f531204d9141da9e181c20a18c59" target="_top" xlink:title="Worker thread used to check file signature.">
<polygon fill="none" stroke="black" points="579,-167.23 579,-197.23 732,-197.23 732,-167.23 579,-167.23"/>
<text text-anchor="start" x="587" y="-185.23" font-family="Helvetica,sans-Serif" font-size="10.00">U_COMMUNICATION::_Worker</text>
<text text-anchor="middle" x="655.5" y="-174.23" font-family="Helvetica,sans-Serif" font-size="10.00">Thread</text>
</a>
</g>
</g>
<!-- Node3&#45;&gt;Node4 -->
<g id="edge3" class="edge">
<title>Node3&#45;&gt;Node4</title>
<path fill="none" stroke="midnightblue" d="M757.69,-182.23C749.11,-182.23 740.54,-182.23 732.22,-182.23"/>
<polygon fill="midnightblue" stroke="midnightblue" points="757.75,-185.73 767.75,-182.23 757.75,-178.73 757.75,-185.73"/>
</g>
<!-- Node4&#45;&gt;Node5 -->
<g id="edge4" class="edge">
<title>Node4&#45;&gt;Node5</title>
<path fill="none" stroke="midnightblue" d="M568.86,-173.73C558.4,-172.7 547.78,-171.64 537.51,-170.62"/>
<polygon fill="midnightblue" stroke="midnightblue" points="568.52,-177.22 578.81,-174.72 569.21,-170.25 568.52,-177.22"/>
</g>
<!-- Node6 -->
<g id="node6" class="node">
<title>Node6</title>
<g id="a_node6"><a xlink:href="class_u___c_o_m_m_u_n_i_c_a_t_i_o_n.html#a6deffcdba8e0b72ee1a4da15b9f8597c" target="_top" xlink:title="Creation of threads listening to message sends from kernel driver.">
<polygon fill="none" stroke="black" points="166,-167.23 166,-197.23 345,-197.23 345,-167.23 166,-167.23"/>
<text text-anchor="start" x="174" y="-185.23" font-family="Helvetica,sans-Serif" font-size="10.00">U_COMMUNICATION::CreateListener</text>
<text text-anchor="middle" x="255.5" y="-174.23" font-family="Helvetica,sans-Serif" font-size="10.00">Thread</text>
</a>
</g>
</g>
<!-- Node5&#45;&gt;Node6 -->
<g id="edge5" class="edge">
<title>Node5&#45;&gt;Node6</title>
<path fill="none" stroke="midnightblue" d="M376.18,-171.11C365.96,-172.06 355.5,-173.03 345.23,-173.99"/>
<polygon fill="midnightblue" stroke="midnightblue" points="376.67,-174.58 386.3,-170.17 376.02,-167.61 376.67,-174.58"/>
</g>
<!-- Node7 -->
<g id="node7" class="node">
<title>Node7</title>
<g id="a_node7"><a xlink:href="_u___service_8cpp.html#a2ef7fa664545ef1bfd08460f37d2140a" target="_top" xlink:title="Entrypoint and core of the user space service.">
<polygon fill="none" stroke="black" points="229,-128.73 229,-147.73 282,-147.73 282,-128.73 229,-128.73"/>
<text text-anchor="middle" x="255.5" y="-135.73" font-family="Helvetica,sans-Serif" font-size="10.00">SvcMain</text>
</a>
</g>
</g>
<!-- Node5&#45;&gt;Node7 -->
<g id="edge6" class="edge">
<title>Node5&#45;&gt;Node7</title>
<path fill="none" stroke="midnightblue" d="M376.35,-152.88C342.45,-148.74 305.87,-144.27 282.17,-141.37"/>
<polygon fill="midnightblue" stroke="midnightblue" points="375.95,-156.36 386.3,-154.1 376.8,-149.41 375.95,-156.36"/>
</g>
<!-- Node8 -->
<g id="node8" class="node">
<title>Node8</title>
<g id="a_node8"><a xlink:href="_u___service_8cpp.html#afa2e3daf278842db7a49d41ebebc8519" target="_top" xlink:title="Wrap the call to the service entrypoint.">
<polygon fill="none" stroke="black" points="82,-128.73 82,-147.73 130,-147.73 130,-128.73 82,-128.73"/>
<text text-anchor="middle" x="106" y="-135.73" font-family="Helvetica,sans-Serif" font-size="10.00">Service</text>
</a>
</g>
</g>
<!-- Node7&#45;&gt;Node8 -->
<g id="edge7" class="edge">
<title>Node7&#45;&gt;Node8</title>
<path fill="none" stroke="midnightblue" d="M218.45,-138.23C191.04,-138.23 154.14,-138.23 130.45,-138.23"/>
<polygon fill="midnightblue" stroke="midnightblue" points="218.81,-141.73 228.81,-138.23 218.81,-134.73 218.81,-141.73"/>
</g>
<!-- Node8&#45;&gt;Node9 -->
<g id="edge8" class="edge">
<title>Node8&#45;&gt;Node9</title>
<path fill="none" stroke="midnightblue" d="M82.84,-122.64C68.35,-112.44 49.88,-99.44 37.54,-90.76"/>
<polygon fill="midnightblue" stroke="midnightblue" points="81.07,-125.67 91.26,-128.56 85.1,-119.95 81.07,-125.67"/>
</g>
<!-- Node10&#45;&gt;Node9 -->
<g id="edge11" class="edge">
<title>Node10&#45;&gt;Node9</title>
<path fill="none" stroke="midnightblue" d="M574.16,-8.63C461.21,1.97 250.43,11.06 82,-43.23 63.67,-49.14 45.59,-62.51 34.62,-71.7"/>
<polygon fill="midnightblue" stroke="midnightblue" points="573.82,-12.11 584.11,-9.59 574.5,-5.14 573.82,-12.11"/>
</g>
<!-- Node11&#45;&gt;Node7 -->
<g id="edge15" class="edge">
<title>Node11&#45;&gt;Node7</title>
<path fill="none" stroke="midnightblue" d="M425.53,-75.41C384.64,-90.61 318.41,-115.22 282.19,-128.68"/>
<polygon fill="midnightblue" stroke="midnightblue" points="426.95,-78.62 435.1,-71.86 424.51,-72.06 426.95,-78.62"/>
</g>
<!-- Node12 -->
<g id="node12" class="node">
<title>Node12</title>
<g id="a_node12"><a xlink:href="_u___service_8cpp.html#a21146308d44a2de57aa21d12af7e5b65" target="_top" xlink:title="Wrap the start of the service.">
<polygon fill="none" stroke="black" points="87,-52.73 87,-71.73 125,-71.73 125,-52.73 87,-52.73"/>
<text text-anchor="middle" x="106" y="-59.73" font-family="Helvetica,sans-Serif" font-size="10.00">Start</text>
</a>
</g>
</g>
<!-- Node11&#45;&gt;Node12 -->
<g id="edge13" class="edge">
<title>Node11&#45;&gt;Node12</title>
<path fill="none" stroke="midnightblue" d="M370.43,-62.23C287.14,-62.23 169.99,-62.23 125.3,-62.23"/>
<polygon fill="midnightblue" stroke="midnightblue" points="370.67,-65.73 380.67,-62.23 370.67,-58.73 370.67,-65.73"/>
</g>
<!-- Node12&#45;&gt;Node9 -->
<g id="edge14" class="edge">
<title>Node12&#45;&gt;Node9</title>
<path fill="none" stroke="midnightblue" d="M76.67,-68.88C66.63,-71.23 55.49,-73.85 46.05,-76.06"/>
<polygon fill="midnightblue" stroke="midnightblue" points="77.68,-72.23 86.62,-66.54 76.08,-65.42 77.68,-72.23"/>
</g>
</g>
</svg>
        <g id="navigator" transform="translate(0 0)" fill="#404254">
                <rect fill="#f2f5e9" fill-opacity="0.5" stroke="#606060" stroke-width=".5" x="0" y="0" width="60" height="60"/>
                <use id="zoomplus" xlink:href="#zoomPlus" x="17" y="9" onmousedown="handleZoom(evt,'in')"/>
                <use id="zoomminus" xlink:href="#zoomMin" x="42" y="9" onmousedown="handleZoom(evt,'out')"/>
                <use id="reset" xlink:href="#resetDef" x="30" y="36" onmousedown="handleReset()"/>
                <g id="arrowUp" xlink:href="#dirArrow" transform="translate(30 24)" onmousedown="handlePan(0,-1)">
                  <use xlink:href="#rim" fill="#404040">
                        <set attributeName="fill" to="#808080" begin="arrowUp.mouseover" end="arrowUp.mouseout"/>
                  </use>
                  <path fill="none" stroke="white" stroke-width="1.5" d="M0,-3.0v7 M-2.5,-0.5L0,-3.0L2.5,-0.5"/>
                </g>
                <g id="arrowRight" xlink:href="#dirArrow" transform="rotate(90) translate(36 -43)" onmousedown="handlePan(1,0)">
                  <use xlink:href="#rim" fill="#404040">
                        <set attributeName="fill" to="#808080" begin="arrowRight.mouseover" end="arrowRight.mouseout"/>
                  </use>
                  <path fill="none" stroke="white" stroke-width="1.5" d="M0,-3.0v7 M-2.5,-0.5L0,-3.0L2.5,-0.5"/>
                </g>
                <g id="arrowDown" xlink:href="#dirArrow" transform="rotate(180) translate(-30 -48)" onmousedown="handlePan(0,1)">
                  <use xlink:href="#rim" fill="#404040">
                        <set attributeName="fill" to="#808080" begin="arrowDown.mouseover" end="arrowDown.mouseout"/>
                  </use>
                  <path fill="none" stroke="white" stroke-width="1.5" d="M0,-3.0v7 M-2.5,-0.5L0,-3.0L2.5,-0.5"/>
                </g>
                <g id="arrowLeft" xlink:href="#dirArrow" transform="rotate(270) translate(-36 17)" onmousedown="handlePan(-1,0)">
                  <use xlink:href="#rim" fill="#404040">
                        <set attributeName="fill" to="#808080" begin="arrowLeft.mouseover" end="arrowLeft.mouseout"/>
                  </use>
                  <path fill="none" stroke="white" stroke-width="1.5" d="M0,-3.0v7 M-2.5,-0.5L0,-3.0L2.5,-0.5"/>
                </g>
        </g>
        <svg viewBox="0 0 15 15" width="100%" height="30px" preserveAspectRatio="xMaxYMin meet">
         <g id="arrow_out" transform="scale(0.3 0.3)">
          <a xlink:href="class_u___u_t_i_l_i_t_a_i_r_e_aa177d472a3d1e5f03fdb24d9181ab9a9_icgraph_org.svg" target="_base">
           <rect id="button" ry="5" rx="5" y="6" x="6" height="38" width="38"
                fill="#f2f5e9" fill-opacity="0.5" stroke="#606060" stroke-width="1.0"/>
           <path id="arrow"
             d="M 11.500037,31.436501 C 11.940474,20.09759 22.043105,11.32322 32.158766,21.979434 L 37.068811,17.246167 C 37.068811,17.246167 37.088388,32 37.088388,32 L 22.160133,31.978069 C 22.160133,31.978069 26.997745,27.140456 26.997745,27.140456 C 18.528582,18.264221 13.291696,25.230495 11.500037,31.436501 z"
             style="fill:#404040;"/>
          </a>
         </g>
        </svg>
</svg>
