<?xml version="1.0" encoding="UTF-8" standalone="no"?>
<!DOCTYPE svg PUBLIC "-//W3C//DTD SVG 1.1//EN"
 "http://www.w3.org/Graphics/SVG/1.1/DTD/svg11.dtd">
<!-- Generated by graphviz version 4.0.0 (20220529.0937)
 -->
<!-- Title: U_COMMUNICATION Pages: 1 -->
<svg width="208pt" height="281pt"
 viewBox="0.00 0.00 208.00 281.00" xmlns="http://www.w3.org/2000/svg" xmlns:xlink="http://www.w3.org/1999/xlink">
<g id="graph0" class="graph" transform="scale(1 1) rotate(0) translate(4 277)">
<title>U_COMMUNICATION</title>
<!-- Node1 -->
<g id="node1" class="node">
<title>Node1</title>
<g id="a_node1"><a xlink:title=" ">
<polygon fill="#bfbfbf" stroke="black" points="4.5,-0.5 4.5,-145.5 139.5,-145.5 139.5,-0.5 4.5,-0.5"/>
<text text-anchor="middle" x="72" y="-133.5" font-family="Helvetica,sans-Serif" font-size="10.00">U_COMMUNICATION</text>
<polyline fill="none" stroke="black" points="4.5,-126.5 139.5,-126.5 "/>
<text text-anchor="middle" x="72" y="-114.5" font-family="Helvetica,sans-Serif" font-size="10.00"> </text>
<polyline fill="none" stroke="black" points="4.5,-107.5 139.5,-107.5 "/>
<text text-anchor="start" x="12.5" y="-95.5" font-family="Helvetica,sans-Serif" font-size="10.00">+ U_COMMUNICATION()</text>
<text text-anchor="start" x="12.5" y="-84.5" font-family="Helvetica,sans-Serif" font-size="10.00">+ Connect()</text>
<text text-anchor="start" x="12.5" y="-73.5" font-family="Helvetica,sans-Serif" font-size="10.00">+ CreateListenerThread()</text>
<text text-anchor="start" x="12.5" y="-62.5" font-family="Helvetica,sans-Serif" font-size="10.00">+ Disconnect()</text>
<text text-anchor="start" x="12.5" y="-51.5" font-family="Helvetica,sans-Serif" font-size="10.00">+ ListenerThread()</text>
<text text-anchor="start" x="12.5" y="-40.5" font-family="Helvetica,sans-Serif" font-size="10.00">&#45; _WorkerThread()</text>
<text text-anchor="start" x="12.5" y="-29.5" font-family="Helvetica,sans-Serif" font-size="10.00">&#45; _CreateThreadPool()</text>
<text text-anchor="start" x="12.5" y="-18.5" font-family="Helvetica,sans-Serif" font-size="10.00">&#45; _Reply()</text>
<text text-anchor="start" x="12.5" y="-7.5" font-family="Helvetica,sans-Serif" font-size="10.00">&#45; _PumpMessageInQueue()</text>
</a>
</g>
</g>
<!-- Node2 -->
<g id="node2" class="node">
<title>Node2</title>
<g id="a_node2"><a xlink:title=" ">
<polygon fill="none" stroke="black" points="0,-215.5 0,-272.5 56,-272.5 56,-215.5 0,-215.5"/>
<text text-anchor="middle" x="28" y="-260.5" font-family="Helvetica,sans-Serif" font-size="10.00">HANDLE</text>
<polyline fill="none" stroke="black" points="0,-253.5 56,-253.5 "/>
<text text-anchor="middle" x="28" y="-241.5" font-family="Helvetica,sans-Serif" font-size="10.00"> </text>
<polyline fill="none" stroke="black" points="0,-234.5 56,-234.5 "/>
<text text-anchor="middle" x="28" y="-222.5" font-family="Helvetica,sans-Serif" font-size="10.00"> </text>
</a>
</g>
</g>
<!-- Node2&#45;&gt;Node1 -->
<g id="edge1" class="edge">
<title>Node2&#45;&gt;Node1</title>
<path fill="none" stroke="#404040" d="M25.46,-215.23C24.78,-199.92 25.1,-180.7 29,-164 29.53,-161.72 30.13,-159.44 30.78,-157.15"/>
<polygon fill="none" stroke="#404040" points="30.78,-157.14 28.81,-150.2 34.45,-145.71 36.42,-152.65 30.78,-157.14"/>
<text text-anchor="middle" x="62" y="-189" font-family="Helvetica,sans-Serif" font-size="10.00"> &#45;_hCompletion</text>
<text text-anchor="middle" x="62" y="-178" font-family="Helvetica,sans-Serif" font-size="10.00">&#45;_hPort</text>
<text text-anchor="middle" x="62" y="-167" font-family="Helvetica,sans-Serif" font-size="10.00">&#45;_hThreads</text>
</g>
<!-- Node3 -->
<g id="node3" class="node">
<title>Node3</title>
<g id="a_node3"><a xlink:title=" ">
<polygon fill="none" stroke="black" points="90,-215.5 90,-272.5 144,-272.5 144,-215.5 90,-215.5"/>
<text text-anchor="middle" x="117" y="-260.5" font-family="Helvetica,sans-Serif" font-size="10.00">DWORD</text>
<polyline fill="none" stroke="black" points="90,-253.5 144,-253.5 "/>
<text text-anchor="middle" x="117" y="-241.5" font-family="Helvetica,sans-Serif" font-size="10.00"> </text>
<polyline fill="none" stroke="black" points="90,-234.5 144,-234.5 "/>
<text text-anchor="middle" x="117" y="-222.5" font-family="Helvetica,sans-Serif" font-size="10.00"> </text>
</a>
</g>
</g>
<!-- Node3&#45;&gt;Node1 -->
<g id="edge2" class="edge">
<title>Node3&#45;&gt;Node1</title>
<path fill="none" stroke="#404040" d="M109.67,-215.47C105.4,-199.45 99.78,-178.32 94.18,-157.28"/>
<polygon fill="none" stroke="#404040" points="94.16,-157.24 88.75,-152.47 91.08,-145.64 96.49,-150.41 94.16,-157.24"/>
<text text-anchor="middle" x="151.5" y="-178" font-family="Helvetica,sans-Serif" font-size="10.00"> &#45;_dwListeningThreads</text>
</g>
</g>
</svg>
