<?xml version="1.0" encoding="UTF-8" standalone="no"?>
<!DOCTYPE svg PUBLIC "-//W3C//DTD SVG 1.1//EN"
 "http://www.w3.org/Graphics/SVG/1.1/DTD/svg11.dtd">
<!-- Generated by graphviz version 4.0.0 (20220529.0937)
 -->
<!-- Title: U_COMMUNICATION::CreateListenerThread Pages: 1 -->
<!--zoomable 302 -->
<svg id="main" version="1.1" xmlns="http://www.w3.org/2000/svg" xmlns:xlink="http://www.w3.org/1999/xlink" xml:space="preserve" onload="init(evt)">
<style type="text/css"><![CDATA[
.edge:hover path { stroke: red; }
.edge:hover polygon { stroke: red; fill: red; }
]]></style>
<script type="text/javascript"><![CDATA[
var edges = document.getElementsByTagName('g');
if (edges && edges.length) {
  for (var i=0;i<edges.length;i++) {
    if (edges[i].id.substr(0,4)=='edge') {
      edges[i].setAttribute('class','edge');
    }
  }
}
]]></script>
        <defs>
                <circle id="rim" cx="0" cy="0" r="7"/>
                <circle id="rim2" cx="0" cy="0" r="3.5"/>
                <g id="zoomPlus">
                        <use xlink:href="#rim" fill="#404040">
                                <set attributeName="fill" to="#808080" begin="zoomplus.mouseover" end="zoomplus.mouseout"/>
                        </use>
                        <path d="M-4,0h8M0,-4v8" fill="none" stroke="white" stroke-width="1.5" pointer-events="none"/>
                </g>
                <g id="zoomMin">
                        <use xlink:href="#rim" fill="#404040">
                                <set attributeName="fill" to="#808080" begin="zoomminus.mouseover" end="zoomminus.mouseout"/>
                        </use>
                        <path d="M-4,0h8" fill="none" stroke="white" stroke-width="1.5" pointer-events="none"/>
                </g>
                <g id="dirArrow">
                        <path fill="none" stroke="white" stroke-width="1.5" d="M0,-3.0v7 M-2.5,-0.5L0,-3.0L2.5,-0.5"/>
                </g>
               <g id="resetDef">
                       <use xlink:href="#rim2" fill="#404040">
                               <set attributeName="fill" to="#808080" begin="reset.mouseover" end="reset.mouseout"/>
                       </use>
               </g>
        </defs>

<script type="text/javascript">
var viewWidth = 1331;
var viewHeight = 302;
var sectionId = 'dynsection-9';
</script>
<script xlink:href="svgpan.js"/>
<svg id="graph" class="graph">
<g id="viewport">
<title>U_COMMUNICATION::CreateListenerThread</title>
<!-- Node1 -->
<g id="node1" class="node">
<title>Node1</title>
<g id="a_node1"><a xlink:title="Creation of threads listening to message sends from kernel driver.">
<polygon fill="#bfbfbf" stroke="black" points="0,-17 0,-47 179,-47 179,-17 0,-17"/>
<text text-anchor="start" x="8" y="-35" font-family="Helvetica,sans-Serif" font-size="10.00">U_COMMUNICATION::CreateListener</text>
<text text-anchor="middle" x="89.5" y="-24" font-family="Helvetica,sans-Serif" font-size="10.00">Thread</text>
</a>
</g>
</g>
<!-- Node2 -->
<g id="node2" class="node">
<title>Node2</title>
<g id="a_node2"><a xlink:href="class_u___c_o_m_m_u_n_i_c_a_t_i_o_n.html#a1cbfbcf7e7e895608457abf405455e6a" target="_top" xlink:title="Thread listening message sends from kernel driver.">
<polygon fill="none" stroke="black" points="215,-39 215,-69 366,-69 366,-39 215,-39"/>
<text text-anchor="start" x="223" y="-57" font-family="Helvetica,sans-Serif" font-size="10.00">U_COMMUNICATION::Listener</text>
<text text-anchor="middle" x="290.5" y="-46" font-family="Helvetica,sans-Serif" font-size="10.00">Thread</text>
</a>
</g>
</g>
<!-- Node1&#45;&gt;Node2 -->
<g id="edge1" class="edge">
<title>Node1&#45;&gt;Node2</title>
<path fill="none" stroke="midnightblue" d="M179.23,-41.81C187.71,-42.75 196.29,-43.69 204.72,-44.63"/>
<polygon fill="midnightblue" stroke="midnightblue" points="204.6,-48.14 214.92,-45.76 205.37,-41.18 204.6,-48.14"/>
</g>
<!-- Node13 -->
<g id="node13" class="node">
<title>Node13</title>
<g id="a_node13"><a xlink:href="class_u___l_o_g_s.html#a0f2932b79fce103453dd1cfc60de2007" target="_top" xlink:title="Send the reported event in the Event Viewer (Application &#45;&gt; PI&#45;Defender_UM).">
<polygon fill="none" stroke="black" points="413.5,-0.5 413.5,-19.5 543.5,-19.5 543.5,-0.5 413.5,-0.5"/>
<text text-anchor="middle" x="478.5" y="-7.5" font-family="Helvetica,sans-Serif" font-size="10.00">U_LOGS::SvcReportEvent</text>
</a>
</g>
</g>
<!-- Node1&#45;&gt;Node13 -->
<g id="edge15" class="edge">
<title>Node1&#45;&gt;Node13</title>
<path fill="none" stroke="midnightblue" d="M179.29,-26.95C247.07,-23.1 339.39,-17.85 403.27,-14.22"/>
<polygon fill="midnightblue" stroke="midnightblue" points="403.48,-17.71 413.27,-13.65 403.09,-10.72 403.48,-17.71"/>
</g>
<!-- Node3 -->
<g id="node3" class="node">
<title>Node3</title>
<g id="a_node3"><a xlink:href="class_u___c_o_m_m_u_n_i_c_a_t_i_o_n.html#a3c8d63d47d80de606ed12566e913e2c2" target="_top" xlink:title="Creation of a thread pool used to create worker thread to check file signature.">
<polygon fill="none" stroke="black" points="403.5,-175 403.5,-205 553.5,-205 553.5,-175 403.5,-175"/>
<text text-anchor="start" x="411.5" y="-193" font-family="Helvetica,sans-Serif" font-size="10.00">U_COMMUNICATION::_Create</text>
<text text-anchor="middle" x="478.5" y="-182" font-family="Helvetica,sans-Serif" font-size="10.00">ThreadPool</text>
</a>
</g>
</g>
<!-- Node2&#45;&gt;Node3 -->
<g id="edge2" class="edge">
<title>Node2&#45;&gt;Node3</title>
<path fill="none" stroke="midnightblue" d="M302.64,-69.36C320.81,-93.36 359.15,-139.73 402,-166 404.76,-167.69 407.64,-169.27 410.61,-170.75"/>
<polygon fill="midnightblue" stroke="midnightblue" points="409.17,-173.94 419.72,-174.89 412.06,-167.56 409.17,-173.94"/>
</g>
<!-- Node4 -->
<g id="node4" class="node">
<title>Node4</title>
<g id="a_node4"><a xlink:href="class_u___c_o_m_m_u_n_i_c_a_t_i_o_n.html#a87d0f531204d9141da9e181c20a18c59" target="_top" xlink:title="Worker thread used to check file signature.">
<polygon fill="none" stroke="black" points="402,-126 402,-156 555,-156 555,-126 402,-126"/>
<text text-anchor="start" x="410" y="-144" font-family="Helvetica,sans-Serif" font-size="10.00">U_COMMUNICATION::_Worker</text>
<text text-anchor="middle" x="478.5" y="-133" font-family="Helvetica,sans-Serif" font-size="10.00">Thread</text>
</a>
</g>
</g>
<!-- Node2&#45;&gt;Node4 -->
<g id="edge3" class="edge">
<title>Node2&#45;&gt;Node4</title>
<path fill="none" stroke="midnightblue" d="M323.9,-69.15C355.01,-83.71 402.14,-105.75 435.99,-121.58"/>
<polygon fill="midnightblue" stroke="midnightblue" points="434.62,-124.81 445.16,-125.87 437.59,-118.47 434.62,-124.81"/>
</g>
<!-- Node6 -->
<g id="node6" class="node">
<title>Node6</title>
<g id="a_node6"><a xlink:href="class_u___u_t_i_l_i_t_a_i_r_e.html#ad0b0328deb4197e357bb5d74c3173775" target="_top" xlink:title="This routine will display an error message based off of the Win32 error code that is passed in.">
<polygon fill="none" stroke="black" points="814,-153.5 814,-172.5 951,-172.5 951,-153.5 814,-153.5"/>
<text text-anchor="middle" x="882.5" y="-160.5" font-family="Helvetica,sans-Serif" font-size="10.00">U_UTILITAIRE::DisplayError</text>
</a>
</g>
</g>
<!-- Node2&#45;&gt;Node6 -->
<g id="edge13" class="edge">
<title>Node2&#45;&gt;Node6</title>
<path fill="none" stroke="midnightblue" d="M366.3,-49.85C483.76,-44.38 705.58,-38.6 778,-68 817.5,-84.04 851.31,-122.47 868.79,-145.23"/>
<polygon fill="midnightblue" stroke="midnightblue" points="866.08,-147.45 874.86,-153.38 871.69,-143.27 866.08,-147.45"/>
</g>
<!-- Node2&#45;&gt;Node13 -->
<g id="edge14" class="edge">
<title>Node2&#45;&gt;Node13</title>
<path fill="none" stroke="midnightblue" d="M354.99,-38.98C378.63,-33.39 405.1,-27.13 427.38,-21.86"/>
<polygon fill="midnightblue" stroke="midnightblue" points="428.36,-25.22 437.29,-19.51 426.75,-18.41 428.36,-25.22"/>
</g>
<!-- Node5 -->
<g id="node5" class="node">
<title>Node5</title>
<g id="a_node5"><a xlink:href="class_u___c_o_m_m_u_n_i_c_a_t_i_o_n.html#a6f2f0c62b6e4f1270d5c95c6e6521ee3" target="_top" xlink:title="Push a new message in the queue.">
<polygon fill="none" stroke="black" points="591,-263 591,-293 778,-293 778,-263 591,-263"/>
<text text-anchor="start" x="599" y="-281" font-family="Helvetica,sans-Serif" font-size="10.00">U_COMMUNICATION::_PumpMessage</text>
<text text-anchor="middle" x="684.5" y="-270" font-family="Helvetica,sans-Serif" font-size="10.00">InQueue</text>
</a>
</g>
</g>
<!-- Node4&#45;&gt;Node5 -->
<g id="edge4" class="edge">
<title>Node4&#45;&gt;Node5</title>
<path fill="none" stroke="midnightblue" d="M541.04,-156.12C546.1,-158.88 550.85,-162.14 555,-166 585.64,-194.5 559.57,-225.37 591,-253 592.78,-254.56 594.64,-256.03 596.58,-257.4"/>
<polygon fill="midnightblue" stroke="midnightblue" points="595.14,-260.62 605.49,-262.87 598.8,-254.66 595.14,-260.62"/>
</g>
<!-- Node9 -->
<g id="node9" class="node">
<title>Node9</title>
<g id="a_node9"><a xlink:href="class_u___c_o_m_m_u_n_i_c_a_t_i_o_n.html#ac7267746e2596819493bbf7fca1d4520" target="_top" xlink:title="Reply to the kernel driver.">
<polygon fill="none" stroke="black" points="611.5,-224.5 611.5,-243.5 757.5,-243.5 757.5,-224.5 611.5,-224.5"/>
<text text-anchor="middle" x="684.5" y="-231.5" font-family="Helvetica,sans-Serif" font-size="10.00">U_COMMUNICATION::_Reply</text>
</a>
</g>
</g>
<!-- Node4&#45;&gt;Node9 -->
<g id="edge9" class="edge">
<title>Node4&#45;&gt;Node9</title>
<path fill="none" stroke="midnightblue" d="M537.8,-156.15C543.88,-158.93 549.75,-162.18 555,-166 576.86,-181.89 568.25,-200.42 591,-215 594.4,-217.18 598,-219.11 601.73,-220.83"/>
<polygon fill="midnightblue" stroke="midnightblue" points="600.65,-224.17 611.23,-224.67 603.27,-217.68 600.65,-224.17"/>
</g>
<!-- Node10 -->
<g id="node10" class="node">
<title>Node10</title>
<g id="a_node10"><a xlink:href="class_u___u_t_i_l_i_t_a_i_r_e.html#adc2b6bd88871b96833fab5b34fb94d23" target="_top" xlink:title="Get the handle to a file by providing it&#39;s name.">
<polygon fill="none" stroke="black" points="608.5,-175 608.5,-205 760.5,-205 760.5,-175 608.5,-175"/>
<text text-anchor="start" x="616.5" y="-193" font-family="Helvetica,sans-Serif" font-size="10.00">U_UTILITAIRE::GetHandleFrom</text>
<text text-anchor="middle" x="684.5" y="-182" font-family="Helvetica,sans-Serif" font-size="10.00">FileName</text>
</a>
</g>
</g>
<!-- Node4&#45;&gt;Node10 -->
<g id="edge10" class="edge">
<title>Node4&#45;&gt;Node10</title>
<path fill="none" stroke="midnightblue" d="M542.09,-156.03C563.93,-161.28 588.61,-167.21 611.17,-172.63"/>
<polygon fill="midnightblue" stroke="midnightblue" points="610.48,-176.06 621.03,-174.99 612.12,-169.26 610.48,-176.06"/>
</g>
<!-- Node11 -->
<g id="node11" class="node">
<title>Node11</title>
<g id="a_node11"><a xlink:href="class_u___s_i_g_n_a_t_u_r_e.html#a4a2b43ca305cb41a3eab3b76d60cb6db" target="_top" xlink:title="Verify the signature of &#39;szFile&#39; by looking at catalogs files.">
<polygon fill="none" stroke="black" points="610.5,-126 610.5,-156 758.5,-156 758.5,-126 610.5,-126"/>
<text text-anchor="start" x="618.5" y="-144" font-family="Helvetica,sans-Serif" font-size="10.00">U_SIGNATURE::VerifyCatalog</text>
<text text-anchor="middle" x="684.5" y="-133" font-family="Helvetica,sans-Serif" font-size="10.00">Signature</text>
</a>
</g>
</g>
<!-- Node4&#45;&gt;Node11 -->
<g id="edge11" class="edge">
<title>Node4&#45;&gt;Node11</title>
<path fill="none" stroke="midnightblue" d="M555.17,-141C569.82,-141 585.25,-141 600.13,-141"/>
<polygon fill="midnightblue" stroke="midnightblue" points="600.32,-144.5 610.32,-141 600.32,-137.5 600.32,-144.5"/>
</g>
<!-- Node12 -->
<g id="node12" class="node">
<title>Node12</title>
<g id="a_node12"><a xlink:href="class_u___s_i_g_n_a_t_u_r_e.html#a08a76b9f115ae35af11c805c8a58ebb0" target="_top" xlink:title="Check if the file &quot;szFile&quot; is signed by a trusted authority.">
<polygon fill="none" stroke="black" points="604,-77 604,-107 765,-107 765,-77 604,-77"/>
<text text-anchor="start" x="612" y="-95" font-family="Helvetica,sans-Serif" font-size="10.00">U_SIGNATURE::VerifyEmbedded</text>
<text text-anchor="middle" x="684.5" y="-84" font-family="Helvetica,sans-Serif" font-size="10.00">Signature</text>
</a>
</g>
</g>
<!-- Node4&#45;&gt;Node12 -->
<g id="edge12" class="edge">
<title>Node4&#45;&gt;Node12</title>
<path fill="none" stroke="midnightblue" d="M542.09,-125.97C563.93,-120.72 588.61,-114.79 611.17,-109.37"/>
<polygon fill="midnightblue" stroke="midnightblue" points="612.12,-112.74 621.03,-107.01 610.48,-105.94 612.12,-112.74"/>
</g>
<!-- Node5&#45;&gt;Node6 -->
<g id="edge5" class="edge">
<title>Node5&#45;&gt;Node6</title>
<path fill="none" stroke="midnightblue" d="M755.02,-262.92C762.98,-260.12 770.81,-256.84 778,-253 813.64,-234 847.49,-200.66 866.28,-180.33"/>
<polygon fill="midnightblue" stroke="midnightblue" points="869.03,-182.5 873.15,-172.74 863.84,-177.81 869.03,-182.5"/>
</g>
<!-- Node7 -->
<g id="node7" class="node">
<title>Node7</title>
<g id="a_node7"><a xlink:href="class_u___u_t_i_l_i_t_a_i_r_e.html#aa177d472a3d1e5f03fdb24d9181ab9a9" target="_top" xlink:title="Popup error message displaying the function that failed associated with the error code.">
<polygon fill="none" stroke="black" points="987,-172.5 987,-191.5 1143,-191.5 1143,-172.5 987,-172.5"/>
<text text-anchor="middle" x="1065" y="-179.5" font-family="Helvetica,sans-Serif" font-size="10.00">U_UTILITAIRE::DisplayMessage</text>
</a>
</g>
</g>
<!-- Node6&#45;&gt;Node7 -->
<g id="edge6" class="edge">
<title>Node6&#45;&gt;Node7</title>
<path fill="none" stroke="midnightblue" d="M951.23,-170.13C959.57,-171.01 968.18,-171.91 976.76,-172.82"/>
<polygon fill="midnightblue" stroke="midnightblue" points="976.48,-176.31 986.79,-173.87 977.21,-169.35 976.48,-176.31"/>
</g>
<!-- Node8 -->
<g id="node8" class="node">
<title>Node8</title>
<g id="a_node8"><a xlink:href="class_u___u_t_i_l_i_t_a_i_r_e.html#a20839968820f2161ef19972f7316a141" target="_top" xlink:title="Print error message in the terminal.">
<polygon fill="none" stroke="black" points="1179,-153.5 1179,-172.5 1323,-172.5 1323,-153.5 1179,-153.5"/>
<text text-anchor="middle" x="1251" y="-160.5" font-family="Helvetica,sans-Serif" font-size="10.00">U_UTILITAIRE::PrintMessage</text>
</a>
</g>
</g>
<!-- Node6&#45;&gt;Node8 -->
<g id="edge8" class="edge">
<title>Node6&#45;&gt;Node8</title>
<path fill="none" stroke="midnightblue" d="M951.15,-163C1012.6,-163 1103.36,-163 1168.73,-163"/>
<polygon fill="midnightblue" stroke="midnightblue" points="1168.99,-166.5 1178.99,-163 1168.99,-159.5 1168.99,-166.5"/>
</g>
<!-- Node7&#45;&gt;Node8 -->
<g id="edge7" class="edge">
<title>Node7&#45;&gt;Node8</title>
<path fill="none" stroke="midnightblue" d="M1143.23,-174.02C1151.62,-173.16 1160.18,-172.27 1168.62,-171.4"/>
<polygon fill="midnightblue" stroke="midnightblue" points="1169.24,-174.86 1178.83,-170.35 1168.53,-167.89 1169.24,-174.86"/>
</g>
</g>
</svg>
        <g id="navigator" transform="translate(0 0)" fill="#404254">
                <rect fill="#f2f5e9" fill-opacity="0.5" stroke="#606060" stroke-width=".5" x="0" y="0" width="60" height="60"/>
                <use id="zoomplus" xlink:href="#zoomPlus" x="17" y="9" onmousedown="handleZoom(evt,'in')"/>
                <use id="zoomminus" xlink:href="#zoomMin" x="42" y="9" onmousedown="handleZoom(evt,'out')"/>
                <use id="reset" xlink:href="#resetDef" x="30" y="36" onmousedown="handleReset()"/>
                <g id="arrowUp" xlink:href="#dirArrow" transform="translate(30 24)" onmousedown="handlePan(0,-1)">
                  <use xlink:href="#rim" fill="#404040">
                        <set attributeName="fill" to="#808080" begin="arrowUp.mouseover" end="arrowUp.mouseout"/>
                  </use>
                  <path fill="none" stroke="white" stroke-width="1.5" d="M0,-3.0v7 M-2.5,-0.5L0,-3.0L2.5,-0.5"/>
                </g>
                <g id="arrowRight" xlink:href="#dirArrow" transform="rotate(90) translate(36 -43)" onmousedown="handlePan(1,0)">
                  <use xlink:href="#rim" fill="#404040">
                        <set attributeName="fill" to="#808080" begin="arrowRight.mouseover" end="arrowRight.mouseout"/>
                  </use>
                  <path fill="none" stroke="white" stroke-width="1.5" d="M0,-3.0v7 M-2.5,-0.5L0,-3.0L2.5,-0.5"/>
                </g>
                <g id="arrowDown" xlink:href="#dirArrow" transform="rotate(180) translate(-30 -48)" onmousedown="handlePan(0,1)">
                  <use xlink:href="#rim" fill="#404040">
                        <set attributeName="fill" to="#808080" begin="arrowDown.mouseover" end="arrowDown.mouseout"/>
                  </use>
                  <path fill="none" stroke="white" stroke-width="1.5" d="M0,-3.0v7 M-2.5,-0.5L0,-3.0L2.5,-0.5"/>
                </g>
                <g id="arrowLeft" xlink:href="#dirArrow" transform="rotate(270) translate(-36 17)" onmousedown="handlePan(-1,0)">
                  <use xlink:href="#rim" fill="#404040">
                        <set attributeName="fill" to="#808080" begin="arrowLeft.mouseover" end="arrowLeft.mouseout"/>
                  </use>
                  <path fill="none" stroke="white" stroke-width="1.5" d="M0,-3.0v7 M-2.5,-0.5L0,-3.0L2.5,-0.5"/>
                </g>
        </g>
        <svg viewBox="0 0 15 15" width="100%" height="30px" preserveAspectRatio="xMaxYMin meet">
         <g id="arrow_out" transform="scale(0.3 0.3)">
          <a xlink:href="class_u___c_o_m_m_u_n_i_c_a_t_i_o_n_a6deffcdba8e0b72ee1a4da15b9f8597c_cgraph_org.svg" target="_base">
           <rect id="button" ry="5" rx="5" y="6" x="6" height="38" width="38"
                fill="#f2f5e9" fill-opacity="0.5" stroke="#606060" stroke-width="1.0"/>
           <path id="arrow"
             d="M 11.500037,31.436501 C 11.940474,20.09759 22.043105,11.32322 32.158766,21.979434 L 37.068811,17.246167 C 37.068811,17.246167 37.088388,32 37.088388,32 L 22.160133,31.978069 C 22.160133,31.978069 26.997745,27.140456 26.997745,27.140456 C 18.528582,18.264221 13.291696,25.230495 11.500037,31.436501 z"
             style="fill:#404040;"/>
          </a>
         </g>
        </svg>
</svg>
