<?xml version="1.0" encoding="UTF-8" standalone="no"?>
<!DOCTYPE svg PUBLIC "-//W3C//DTD SVG 1.1//EN"
 "http://www.w3.org/Graphics/SVG/1.1/DTD/svg11.dtd">
<!-- Generated by graphviz version 4.0.0 (20220529.0937)
 -->
<!-- Title: U_UTILITAIRE::GetDllFullPath Pages: 1 -->
<svg width="488pt" height="56pt"
 viewBox="0.00 0.00 488.00 55.50" xmlns="http://www.w3.org/2000/svg" xmlns:xlink="http://www.w3.org/1999/xlink">
<g id="graph0" class="graph" transform="scale(1 1) rotate(0) translate(4 51.5)">
<title>U_UTILITAIRE::GetDllFullPath</title>
<!-- Node1 -->
<g id="node1" class="node">
<title>Node1</title>
<g id="a_node1"><a xlink:title="Get the full DOS Path of the message DLL associated with the binary.">
<polygon fill="#bfbfbf" stroke="black" points="0,-0.5 0,-19.5 147,-19.5 147,-0.5 0,-0.5"/>
<text text-anchor="middle" x="73.5" y="-7.5" font-family="Helvetica,sans-Serif" font-size="10.00">U_UTILITAIRE::GetDllFullPath</text>
</a>
</g>
</g>
<!-- Node2 -->
<g id="node2" class="node">
<title>Node2</title>
<g id="a_node2"><a xlink:href="class_u___u_t_i_l_i_t_a_i_r_e.html#a96db4752f1f9917f495d28c520320c88" target="_top" xlink:title="Get the current folder of the binary responsible for the launch of the service.">
<polygon fill="none" stroke="black" points="183,-17 183,-47 314,-47 314,-17 183,-17"/>
<text text-anchor="start" x="191" y="-35" font-family="Helvetica,sans-Serif" font-size="10.00">U_UTILITAIRE::GetCurrent</text>
<text text-anchor="middle" x="248.5" y="-24" font-family="Helvetica,sans-Serif" font-size="10.00">Folder</text>
</a>
</g>
</g>
<!-- Node1&#45;&gt;Node2 -->
<g id="edge1" class="edge">
<title>Node1&#45;&gt;Node2</title>
<path fill="none" stroke="midnightblue" d="M147.12,-19.23C155.62,-20.32 164.31,-21.42 172.85,-22.51"/>
<polygon fill="midnightblue" stroke="midnightblue" points="172.41,-25.98 182.77,-23.77 173.3,-19.04 172.41,-25.98"/>
</g>
<!-- Node3 -->
<g id="node3" class="node">
<title>Node3</title>
<g id="a_node3"><a xlink:href="class_u___l_o_g_s.html#a0f2932b79fce103453dd1cfc60de2007" target="_top" xlink:title="Send the reported event in the Event Viewer (Application &#45;&gt; PI&#45;Defender_UM).">
<polygon fill="none" stroke="black" points="350,-0.5 350,-19.5 480,-19.5 480,-0.5 350,-0.5"/>
<text text-anchor="middle" x="415" y="-7.5" font-family="Helvetica,sans-Serif" font-size="10.00">U_LOGS::SvcReportEvent</text>
</a>
</g>
</g>
<!-- Node1&#45;&gt;Node3 -->
<g id="edge3" class="edge">
<title>Node1&#45;&gt;Node3</title>
<path fill="none" stroke="midnightblue" d="M147.16,-8.48C159.13,-8.28 171.41,-8.11 183,-8 241.22,-7.46 255.78,-7.42 314,-8 322.36,-8.08 331.12,-8.21 339.82,-8.35"/>
<polygon fill="midnightblue" stroke="midnightblue" points="339.93,-11.85 349.99,-8.53 340.05,-4.85 339.93,-11.85"/>
</g>
<!-- Node2&#45;&gt;Node3 -->
<g id="edge2" class="edge">
<title>Node2&#45;&gt;Node3</title>
<path fill="none" stroke="midnightblue" d="M314.04,-23.37C322.52,-22.23 331.26,-21.07 339.87,-19.91"/>
<polygon fill="midnightblue" stroke="midnightblue" points="340.47,-23.37 349.91,-18.57 339.54,-16.43 340.47,-23.37"/>
</g>
</g>
</svg>
