<?xml version="1.0" encoding="UTF-8" standalone="no"?>
<!DOCTYPE svg PUBLIC "-//W3C//DTD SVG 1.1//EN"
 "http://www.w3.org/Graphics/SVG/1.1/DTD/svg11.dtd">
<!-- Generated by graphviz version 4.0.0 (20220529.0937)
 -->
<!-- Title: U_COMMUNICATION Pages: 1 -->
<svg width="216pt" height="292pt"
 viewBox="0.00 0.00 216.00 292.00" xmlns="http://www.w3.org/2000/svg" xmlns:xlink="http://www.w3.org/1999/xlink">
<g id="graph0" class="graph" transform="scale(1 1) rotate(0) translate(4 288)">
<title>U_COMMUNICATION</title>
<!-- Node1 -->
<g id="node1" class="node">
<title>Node1</title>
<g id="a_node1"><a xlink:title=" ">
<polygon fill="#bfbfbf" stroke="black" points="20.5,-0.5 20.5,-134.5 155.5,-134.5 155.5,-0.5 20.5,-0.5"/>
<text text-anchor="middle" x="88" y="-122.5" font-family="Helvetica,sans-Serif" font-size="10.00">U_COMMUNICATION</text>
<polyline fill="none" stroke="black" points="20.5,-115.5 155.5,-115.5 "/>
<text text-anchor="middle" x="88" y="-103.5" font-family="Helvetica,sans-Serif" font-size="10.00"> </text>
<polyline fill="none" stroke="black" points="20.5,-96.5 155.5,-96.5 "/>
<text text-anchor="start" x="28.5" y="-84.5" font-family="Helvetica,sans-Serif" font-size="10.00">+ U_COMMUNICATION()</text>
<text text-anchor="start" x="28.5" y="-73.5" font-family="Helvetica,sans-Serif" font-size="10.00">+ _Success_()</text>
<text text-anchor="start" x="28.5" y="-62.5" font-family="Helvetica,sans-Serif" font-size="10.00">+ Disconnect()</text>
<text text-anchor="start" x="28.5" y="-51.5" font-family="Helvetica,sans-Serif" font-size="10.00">+ ListenerThread()</text>
<text text-anchor="start" x="28.5" y="-40.5" font-family="Helvetica,sans-Serif" font-size="10.00">&#45; _WorkerThread()</text>
<text text-anchor="start" x="28.5" y="-29.5" font-family="Helvetica,sans-Serif" font-size="10.00">&#45; _Success_()</text>
<text text-anchor="start" x="28.5" y="-18.5" font-family="Helvetica,sans-Serif" font-size="10.00">&#45; _Reply()</text>
<text text-anchor="start" x="28.5" y="-7.5" font-family="Helvetica,sans-Serif" font-size="10.00">&#45; _PumpMessageInQueue()</text>
</a>
</g>
</g>
<!-- Node2 -->
<g id="node2" class="node">
<title>Node2</title>
<g id="a_node2"><a xlink:title=" ">
<polygon fill="none" stroke="black" points="0,-226.5 0,-283.5 54,-283.5 54,-226.5 0,-226.5"/>
<text text-anchor="middle" x="27" y="-271.5" font-family="Helvetica,sans-Serif" font-size="10.00">DWORD</text>
<polyline fill="none" stroke="black" points="0,-264.5 54,-264.5 "/>
<text text-anchor="middle" x="27" y="-252.5" font-family="Helvetica,sans-Serif" font-size="10.00"> </text>
<polyline fill="none" stroke="black" points="0,-245.5 54,-245.5 "/>
<text text-anchor="middle" x="27" y="-233.5" font-family="Helvetica,sans-Serif" font-size="10.00"> </text>
</a>
</g>
</g>
<!-- Node2&#45;&gt;Node1 -->
<g id="edge1" class="edge">
<title>Node2&#45;&gt;Node1</title>
<path fill="none" stroke="#404040" d="M22.89,-226.28C20.86,-205.57 20.26,-176.85 28,-153 28.78,-150.59 29.66,-148.2 30.62,-145.81"/>
<polygon fill="none" stroke="#404040" points="30.66,-145.72 29.52,-138.6 35.65,-134.81 36.79,-141.93 30.66,-145.72"/>
<text text-anchor="middle" x="78" y="-200" font-family="Helvetica,sans-Serif" font-size="10.00"> +dwListeningThreads</text>
<text text-anchor="middle" x="78" y="-189" font-family="Helvetica,sans-Serif" font-size="10.00">+hCompletion</text>
<text text-anchor="middle" x="78" y="-178" font-family="Helvetica,sans-Serif" font-size="10.00">+hPort</text>
<text text-anchor="middle" x="78" y="-167" font-family="Helvetica,sans-Serif" font-size="10.00">&#45;dwMaxWorkerThreads</text>
<text text-anchor="middle" x="78" y="-156" font-family="Helvetica,sans-Serif" font-size="10.00">&#45;pEnv</text>
</g>
<!-- Node3 -->
<g id="node3" class="node">
<title>Node3</title>
<g id="a_node3"><a xlink:title=" ">
<polygon fill="none" stroke="black" points="122,-226.5 122,-283.5 178,-283.5 178,-226.5 122,-226.5"/>
<text text-anchor="middle" x="150" y="-271.5" font-family="Helvetica,sans-Serif" font-size="10.00">HANDLE</text>
<polyline fill="none" stroke="black" points="122,-264.5 178,-264.5 "/>
<text text-anchor="middle" x="150" y="-252.5" font-family="Helvetica,sans-Serif" font-size="10.00"> </text>
<polyline fill="none" stroke="black" points="122,-245.5 178,-245.5 "/>
<text text-anchor="middle" x="150" y="-233.5" font-family="Helvetica,sans-Serif" font-size="10.00"> </text>
</a>
</g>
</g>
<!-- Node3&#45;&gt;Node1 -->
<g id="edge2" class="edge">
<title>Node3&#45;&gt;Node1</title>
<path fill="none" stroke="#404040" d="M145.69,-226.1C142.09,-205.56 136.22,-177.12 128,-153 127.23,-150.75 126.43,-148.49 125.58,-146.21"/>
<polygon fill="none" stroke="#404040" points="125.49,-145.97 119.57,-141.85 121.1,-134.8 127.02,-138.92 125.49,-145.97"/>
<text text-anchor="middle" x="175" y="-183.5" font-family="Helvetica,sans-Serif" font-size="10.00"> &#45;_hCompletion</text>
<text text-anchor="middle" x="175" y="-172.5" font-family="Helvetica,sans-Serif" font-size="10.00">&#45;_hPort</text>
</g>
</g>
</svg>
