<?xml version="1.0" encoding="UTF-8" standalone="no"?>
<!DOCTYPE svg PUBLIC "-//W3C//DTD SVG 1.1//EN"
 "http://www.w3.org/Graphics/SVG/1.1/DTD/svg11.dtd">
<!-- Generated by graphviz version 4.0.0 (20220529.0937)
 -->
<!-- Title: U_HELPER::CountWStringsInBuffer Pages: 1 -->
<svg width="745pt" height="66pt"
 viewBox="0.00 0.00 745.00 66.00" xmlns="http://www.w3.org/2000/svg" xmlns:xlink="http://www.w3.org/1999/xlink">
<g id="graph0" class="graph" transform="scale(1 1) rotate(0) translate(4 62)">
<title>U_HELPER::CountWStringsInBuffer</title>
<!-- Node1 -->
<g id="node1" class="node">
<title>Node1</title>
<g id="a_node1"><a xlink:title="Returns the number of Unicode strings found in a buffer (raw data from REG_MULTI_SZ)">
<polygon fill="#bfbfbf" stroke="black" points="590,-14 590,-44 737,-44 737,-14 590,-14"/>
<text text-anchor="start" x="598" y="-32" font-family="Helvetica,sans-Serif" font-size="10.00">U_HELPER::CountWStringsIn</text>
<text text-anchor="middle" x="663.5" y="-21" font-family="Helvetica,sans-Serif" font-size="10.00">Buffer</text>
</a>
</g>
</g>
<!-- Node2 -->
<g id="node2" class="node">
<title>Node2</title>
<g id="a_node2"><a xlink:href="class_u___c_o_n_f_i_g_u_r_a_t_i_o_n.html#a3d4d97df1d0d20e20f7a1d696f9c4150" target="_top" xlink:title="Get the whitelist used to allow user&#45;specified apps.">
<polygon fill="none" stroke="black" points="387,-19.5 387,-38.5 554,-38.5 554,-19.5 387,-19.5"/>
<text text-anchor="middle" x="470.5" y="-26.5" font-family="Helvetica,sans-Serif" font-size="10.00">U_CONFIGURATION::GetWhitelist</text>
</a>
</g>
</g>
<!-- Node1&#45;&gt;Node2 -->
<g id="edge1" class="edge">
<title>Node1&#45;&gt;Node2</title>
<path fill="none" stroke="midnightblue" d="M579.59,-29C571.19,-29 562.67,-29 554.27,-29"/>
<polygon fill="midnightblue" stroke="midnightblue" points="579.75,-32.5 589.75,-29 579.75,-25.5 579.75,-32.5"/>
</g>
<!-- Node3 -->
<g id="node3" class="node">
<title>Node3</title>
<g id="a_node3"><a xlink:href="class_u___c_o_n_f_i_g_u_r_a_t_i_o_n.html#aad2db6e150e4eac643ee28b874af54fa" target="_top" xlink:title="Print and populate service structure with the configuration read from registry keys.">
<polygon fill="none" stroke="black" points="161,-19.5 161,-38.5 351,-38.5 351,-19.5 161,-19.5"/>
<text text-anchor="middle" x="256" y="-26.5" font-family="Helvetica,sans-Serif" font-size="10.00">U_CONFIGURATION::PrintConfiguration</text>
</a>
</g>
</g>
<!-- Node2&#45;&gt;Node3 -->
<g id="edge2" class="edge">
<title>Node2&#45;&gt;Node3</title>
<path fill="none" stroke="midnightblue" d="M376.54,-29C368.13,-29 359.6,-29 351.18,-29"/>
<polygon fill="midnightblue" stroke="midnightblue" points="376.73,-32.5 386.73,-29 376.73,-25.5 376.73,-32.5"/>
</g>
<!-- Node4 -->
<g id="node4" class="node">
<title>Node4</title>
<g id="a_node4"><a xlink:href="_u___service_8cpp.html#aff39ead9760e0687df750416a070f137" target="_top" xlink:title="Wrap the query information about the service.">
<polygon fill="none" stroke="black" points="82,-38.5 82,-57.5 125,-57.5 125,-38.5 82,-38.5"/>
<text text-anchor="middle" x="103.5" y="-45.5" font-family="Helvetica,sans-Serif" font-size="10.00">Query</text>
</a>
</g>
</g>
<!-- Node3&#45;&gt;Node4 -->
<g id="edge3" class="edge">
<title>Node3&#45;&gt;Node4</title>
<path fill="none" stroke="midnightblue" d="M169.07,-39.85C152.74,-41.91 137.08,-43.89 125.28,-45.38"/>
<polygon fill="midnightblue" stroke="midnightblue" points="169.83,-43.28 179.31,-38.56 168.95,-36.34 169.83,-43.28"/>
</g>
<!-- Node6 -->
<g id="node6" class="node">
<title>Node6</title>
<g id="a_node6"><a xlink:href="_u___service_8cpp.html#a21146308d44a2de57aa21d12af7e5b65" target="_top" xlink:title="Wrap the start of the service.">
<polygon fill="none" stroke="black" points="84.5,-0.5 84.5,-19.5 122.5,-19.5 122.5,-0.5 84.5,-0.5"/>
<text text-anchor="middle" x="103.5" y="-7.5" font-family="Helvetica,sans-Serif" font-size="10.00">Start</text>
</a>
</g>
</g>
<!-- Node3&#45;&gt;Node6 -->
<g id="edge5" class="edge">
<title>Node3&#45;&gt;Node6</title>
<path fill="none" stroke="midnightblue" d="M168.89,-18.13C151.31,-15.91 134.54,-13.79 122.52,-12.28"/>
<polygon fill="midnightblue" stroke="midnightblue" points="168.95,-21.66 179.31,-19.44 169.83,-14.72 168.95,-21.66"/>
</g>
<!-- Node5 -->
<g id="node5" class="node">
<title>Node5</title>
<g id="a_node5"><a xlink:href="_u___service_8cpp.html#a3e9716f0248a5a48598490cd4920cbee" target="_top" xlink:title="Entrypoint of the user space executable.">
<polygon fill="none" stroke="black" points="0,-19.5 0,-38.5 46,-38.5 46,-19.5 0,-19.5"/>
<text text-anchor="middle" x="23" y="-26.5" font-family="Helvetica,sans-Serif" font-size="10.00">_tmain</text>
</a>
</g>
</g>
<!-- Node4&#45;&gt;Node5 -->
<g id="edge4" class="edge">
<title>Node4&#45;&gt;Node5</title>
<path fill="none" stroke="midnightblue" d="M72.11,-40.64C63.45,-38.55 54.2,-36.31 46.14,-34.36"/>
<polygon fill="midnightblue" stroke="midnightblue" points="71.33,-44.06 81.88,-43.01 72.98,-37.25 71.33,-44.06"/>
</g>
<!-- Node6&#45;&gt;Node5 -->
<g id="edge6" class="edge">
<title>Node6&#45;&gt;Node5</title>
<path fill="none" stroke="midnightblue" d="M74.3,-16.83C65,-19.08 54.79,-21.55 46.02,-23.67"/>
<polygon fill="midnightblue" stroke="midnightblue" points="75.4,-20.16 84.29,-14.41 73.75,-13.36 75.4,-20.16"/>
</g>
</g>
</svg>
