<?xml version="1.0" encoding="UTF-8" standalone="no"?>
<!DOCTYPE svg PUBLIC "-//W3C//DTD SVG 1.1//EN"
 "http://www.w3.org/Graphics/SVG/1.1/DTD/svg11.dtd">
<!-- Generated by graphviz version 4.0.0 (20220529.0937)
 -->
<!-- Title: K_CONFIGURATION::Initialize Pages: 1 -->
<svg width="567pt" height="230pt"
 viewBox="0.00 0.00 567.00 230.00" xmlns="http://www.w3.org/2000/svg" xmlns:xlink="http://www.w3.org/1999/xlink">
<g id="graph0" class="graph" transform="scale(1 1) rotate(0) translate(4 226)">
<title>K_CONFIGURATION::Initialize</title>
<!-- Node1 -->
<g id="node1" class="node">
<title>Node1</title>
<g id="a_node1"><a xlink:title="Initialize configuration from Registry.">
<polygon fill="#bfbfbf" stroke="black" points="0,-104.5 0,-123.5 149,-123.5 149,-104.5 0,-104.5"/>
<text text-anchor="middle" x="74.5" y="-111.5" font-family="Helvetica,sans-Serif" font-size="10.00">K_CONFIGURATION::Initialize</text>
</a>
</g>
</g>
<!-- Node2 -->
<g id="node2" class="node">
<title>Node2</title>
<g id="a_node2"><a xlink:href="class_k___c_a_c_h_e.html#a85480c0051eb20e2188f5ff40d3debee" target="_top" xlink:title="Set maximum size of Cache and initialize mutex.">
<polygon fill="none" stroke="black" points="222,-202.5 222,-221.5 326,-221.5 326,-202.5 222,-202.5"/>
<text text-anchor="middle" x="274" y="-209.5" font-family="Helvetica,sans-Serif" font-size="10.00">K_CACHE::Initialize</text>
</a>
</g>
</g>
<!-- Node1&#45;&gt;Node2 -->
<g id="edge1" class="edge">
<title>Node1&#45;&gt;Node2</title>
<path fill="none" stroke="midnightblue" d="M85.76,-123.7C104.13,-140.51 144.52,-174.98 185,-193 193.39,-196.73 202.56,-199.76 211.72,-202.19"/>
<polygon fill="midnightblue" stroke="midnightblue" points="211.06,-205.64 221.61,-204.62 212.73,-198.84 211.06,-205.64"/>
</g>
<!-- Node3 -->
<g id="node3" class="node">
<title>Node3</title>
<g id="a_node3"><a xlink:href="class_k___w_h_i_t_e_l_i_s_t.html#a1932a532f12efb5c5ce142933536d0ad" target="_top" xlink:title="Set maximum size of Cache and initialize mutex.">
<polygon fill="none" stroke="black" points="214,-164.5 214,-183.5 334,-183.5 334,-164.5 214,-164.5"/>
<text text-anchor="middle" x="274" y="-171.5" font-family="Helvetica,sans-Serif" font-size="10.00">K_WHITELIST::Initialize</text>
</a>
</g>
</g>
<!-- Node1&#45;&gt;Node3 -->
<g id="edge2" class="edge">
<title>Node1&#45;&gt;Node3</title>
<path fill="none" stroke="midnightblue" d="M98.24,-123.63C120.16,-132.64 154.42,-146.03 185,-155 193.81,-157.59 203.21,-159.99 212.47,-162.15"/>
<polygon fill="midnightblue" stroke="midnightblue" points="211.9,-165.61 222.42,-164.4 213.44,-158.78 211.9,-165.61"/>
</g>
<!-- Node6 -->
<g id="node6" class="node">
<title>Node6</title>
<g id="a_node6"><a xlink:href="class_k___u_t_i_l_i_t_a_i_r_e.html#a2bb4656fb57aaaf242dce4841cfcf3a5" target="_top" xlink:title="Returns TRUE if the passed _KEY_VALUE_PARTIAL_INFORMATION structure extracted from the Registry conta...">
<polygon fill="none" stroke="black" points="204.5,-126.5 204.5,-145.5 343.5,-145.5 343.5,-126.5 204.5,-126.5"/>
<text text-anchor="middle" x="274" y="-133.5" font-family="Helvetica,sans-Serif" font-size="10.00">K_UTILITAIRE::IsValidString</text>
</a>
</g>
</g>
<!-- Node1&#45;&gt;Node6 -->
<g id="edge5" class="edge">
<title>Node1&#45;&gt;Node6</title>
<path fill="none" stroke="midnightblue" d="M149.04,-122.19C163.74,-123.83 179.25,-125.56 194.12,-127.21"/>
<polygon fill="midnightblue" stroke="midnightblue" points="193.97,-130.72 204.3,-128.35 194.75,-123.76 193.97,-130.72"/>
</g>
<!-- Node7 -->
<g id="node7" class="node">
<title>Node7</title>
<g id="a_node7"><a xlink:href="class_k___u_t_i_l_i_t_a_i_r_e.html#a74a9a8166861c8b2f8cd1ce816030e59" target="_top" xlink:title="Returns TRUE if the passed _KEY_VALUE_PARTIAL_INFORMATION structure extracted from the Registry conta...">
<polygon fill="none" stroke="black" points="204.5,-77 204.5,-107 343.5,-107 343.5,-77 204.5,-77"/>
<text text-anchor="start" x="212.5" y="-95" font-family="Helvetica,sans-Serif" font-size="10.00">K_UTILITAIRE::IsValidString</text>
<text text-anchor="middle" x="274" y="-84" font-family="Helvetica,sans-Serif" font-size="10.00">Array</text>
</a>
</g>
</g>
<!-- Node1&#45;&gt;Node7 -->
<g id="edge6" class="edge">
<title>Node1&#45;&gt;Node7</title>
<path fill="none" stroke="midnightblue" d="M149.04,-105.81C163.74,-104.17 179.25,-102.44 194.12,-100.79"/>
<polygon fill="midnightblue" stroke="midnightblue" points="194.75,-104.24 204.3,-99.65 193.97,-97.28 194.75,-104.24"/>
</g>
<!-- Node8 -->
<g id="node8" class="node">
<title>Node8</title>
<g id="a_node8"><a xlink:href="class_k___u_t_i_l_i_t_a_i_r_e.html#ac0ef6d450ccad1191414cd7551723e5d" target="_top" xlink:title="Wrapper for ZwOpenKey .">
<polygon fill="none" stroke="black" points="199,-38.5 199,-57.5 349,-57.5 349,-38.5 199,-38.5"/>
<text text-anchor="middle" x="274" y="-45.5" font-family="Helvetica,sans-Serif" font-size="10.00">K_UTILITAIRE::MyZwOpenKey</text>
</a>
</g>
</g>
<!-- Node1&#45;&gt;Node8 -->
<g id="edge7" class="edge">
<title>Node1&#45;&gt;Node8</title>
<path fill="none" stroke="midnightblue" d="M94.85,-104.34C116.39,-93.91 152.48,-77.38 185,-67 193.33,-64.34 202.22,-61.94 211.03,-59.8"/>
<polygon fill="midnightblue" stroke="midnightblue" points="211.96,-63.18 220.91,-57.51 210.38,-56.36 211.96,-63.18"/>
</g>
<!-- Node9 -->
<g id="node9" class="node">
<title>Node9</title>
<g id="a_node9"><a xlink:href="class_k___u_t_i_l_i_t_a_i_r_e.html#a1e6236708e8f0490c13b4ebd7752cacd" target="_top" xlink:title="Wrapper for ZwQueryValueKey.">
<polygon fill="none" stroke="black" points="185,-0.5 185,-19.5 363,-19.5 363,-0.5 185,-0.5"/>
<text text-anchor="middle" x="274" y="-7.5" font-family="Helvetica,sans-Serif" font-size="10.00">K_UTILITAIRE::MyZwQueryValueKey</text>
</a>
</g>
</g>
<!-- Node1&#45;&gt;Node9 -->
<g id="edge8" class="edge">
<title>Node1&#45;&gt;Node9</title>
<path fill="none" stroke="midnightblue" d="M84.76,-104.38C102.47,-86.58 143.12,-48.53 185,-29 190.35,-26.5 196.05,-24.33 201.86,-22.44"/>
<polygon fill="midnightblue" stroke="midnightblue" points="203.12,-25.71 211.72,-19.51 201.13,-19 203.12,-25.71"/>
</g>
<!-- Node4 -->
<g id="node4" class="node">
<title>Node4</title>
<g id="a_node4"><a xlink:href="class_k___u_t_i_l_i_t_a_i_r_e.html#a98e7806ad180b50600ded0f2cfbe7721" target="_top" xlink:title="Returns the number of Unicode strings found in a buffer (raw data from REG_MULTI_SZ).">
<polygon fill="none" stroke="black" points="404,-181 404,-211 554,-211 554,-181 404,-181"/>
<text text-anchor="start" x="412" y="-199" font-family="Helvetica,sans-Serif" font-size="10.00">K_UTILITAIRE::CountWStrings</text>
<text text-anchor="middle" x="479" y="-188" font-family="Helvetica,sans-Serif" font-size="10.00">InBuffer</text>
</a>
</g>
</g>
<!-- Node3&#45;&gt;Node4 -->
<g id="edge3" class="edge">
<title>Node3&#45;&gt;Node4</title>
<path fill="none" stroke="midnightblue" d="M334.26,-180.42C352.88,-182.44 373.81,-184.71 393.82,-186.88"/>
<polygon fill="midnightblue" stroke="midnightblue" points="393.54,-190.37 403.86,-187.97 394.3,-183.41 393.54,-190.37"/>
</g>
<!-- Node5 -->
<g id="node5" class="node">
<title>Node5</title>
<g id="a_node5"><a xlink:href="class_k___u_t_i_l_i_t_a_i_r_e.html#a23d61cfecbdbc066af919da96cd175cd" target="_top" xlink:title="Translate a DOS path into a NT path.">
<polygon fill="none" stroke="black" points="399,-142.5 399,-161.5 559,-161.5 559,-142.5 399,-142.5"/>
<text text-anchor="middle" x="479" y="-149.5" font-family="Helvetica,sans-Serif" font-size="10.00">K_UTILITAIRE::DosPathtoNtPath</text>
</a>
</g>
</g>
<!-- Node3&#45;&gt;Node5 -->
<g id="edge4" class="edge">
<title>Node3&#45;&gt;Node5</title>
<path fill="none" stroke="midnightblue" d="M334.26,-167.58C351.25,-165.74 370.15,-163.69 388.52,-161.7"/>
<polygon fill="midnightblue" stroke="midnightblue" points="389.09,-165.16 398.66,-160.6 388.34,-158.2 389.09,-165.16"/>
</g>
</g>
</svg>
