<?xml version="1.0" encoding="UTF-8" standalone="no"?>
<!DOCTYPE svg PUBLIC "-//W3C//DTD SVG 1.1//EN"
 "http://www.w3.org/Graphics/SVG/1.1/DTD/svg11.dtd">
<!-- Generated by graphviz version 4.0.0 (20220529.0937)
 -->
<!-- Title: K_CONFIGURATION::IsInWhitelist Pages: 1 -->
<svg width="530pt" height="39pt"
 viewBox="0.00 0.00 530.00 39.00" xmlns="http://www.w3.org/2000/svg" xmlns:xlink="http://www.w3.org/1999/xlink">
<g id="graph0" class="graph" transform="scale(1 1) rotate(0) translate(4 35)">
<title>K_CONFIGURATION::IsInWhitelist</title>
<!-- Node1 -->
<g id="node1" class="node">
<title>Node1</title>
<g id="a_node1"><a xlink:title=" ">
<polygon fill="#bfbfbf" stroke="black" points="0,-6 0,-25 167,-25 167,-6 0,-6"/>
<text text-anchor="middle" x="83.5" y="-13" font-family="Helvetica,sans-Serif" font-size="10.00">K_CONFIGURATION::IsInWhitelist</text>
</a>
</g>
</g>
<!-- Node2 -->
<g id="node2" class="node">
<title>Node2</title>
<g id="a_node2"><a xlink:href="class_k___w_h_i_t_e_l_i_s_t.html#a0002133cb46ec30f7f0044eecc5c58a9" target="_top" xlink:title="Check if whitelist contains provided string.">
<polygon fill="none" stroke="black" points="203,-6 203,-25 341,-25 341,-6 203,-6"/>
<text text-anchor="middle" x="272" y="-13" font-family="Helvetica,sans-Serif" font-size="10.00">K_WHITELIST::IsInWhitelist</text>
</a>
</g>
</g>
<!-- Node1&#45;&gt;Node2 -->
<g id="edge1" class="edge">
<title>Node1&#45;&gt;Node2</title>
<path fill="none" stroke="midnightblue" d="M167.12,-15.5C175.64,-15.5 184.28,-15.5 192.75,-15.5"/>
<polygon fill="midnightblue" stroke="midnightblue" points="192.98,-19 202.98,-15.5 192.98,-12 192.98,-19"/>
</g>
<!-- Node3 -->
<g id="node3" class="node">
<title>Node3</title>
<g id="a_node3"><a xlink:href="class_k___u_t_i_l_i_t_a_i_r_e.html#aadb9afab0bf42478750a9332ff264f77" target="_top" xlink:title="Remake of PathCchRemoveFileSpec available in kernel&#45;mode.">
<polygon fill="none" stroke="black" points="377,-0.5 377,-30.5 522,-30.5 522,-0.5 377,-0.5"/>
<text text-anchor="start" x="385" y="-18.5" font-family="Helvetica,sans-Serif" font-size="10.00">K_UTILITAIRE::MyNtPathCch</text>
<text text-anchor="middle" x="449.5" y="-7.5" font-family="Helvetica,sans-Serif" font-size="10.00">RemoveFileSpec</text>
</a>
</g>
</g>
<!-- Node2&#45;&gt;Node3 -->
<g id="edge2" class="edge">
<title>Node2&#45;&gt;Node3</title>
<path fill="none" stroke="midnightblue" d="M341.1,-15.5C349.55,-15.5 358.26,-15.5 366.88,-15.5"/>
<polygon fill="midnightblue" stroke="midnightblue" points="366.95,-19 376.95,-15.5 366.95,-12 366.95,-19"/>
</g>
</g>
</svg>
