<?xml version="1.0" encoding="UTF-8" standalone="no"?>
<!DOCTYPE svg PUBLIC "-//W3C//DTD SVG 1.1//EN"
 "http://www.w3.org/Graphics/SVG/1.1/DTD/svg11.dtd">
<!-- Generated by graphviz version 4.0.0 (20220529.0937)
 -->
<!-- Title: U_COMMUNICATION::ListenerThread Pages: 1 -->
<svg width="414pt" height="39pt"
 viewBox="0.00 0.00 414.00 39.00" xmlns="http://www.w3.org/2000/svg" xmlns:xlink="http://www.w3.org/1999/xlink">
<g id="graph0" class="graph" transform="scale(1 1) rotate(0) translate(4 35)">
<title>U_COMMUNICATION::ListenerThread</title>
<!-- Node1 -->
<g id="node1" class="node">
<title>Node1</title>
<g id="a_node1"><a xlink:title="Thread listening message sends from kernel driver.">
<polygon fill="#bfbfbf" stroke="black" points="255,-0.5 255,-30.5 406,-30.5 406,-0.5 255,-0.5"/>
<text text-anchor="start" x="263" y="-18.5" font-family="Helvetica,sans-Serif" font-size="10.00">U_COMMUNICATION::Listener</text>
<text text-anchor="middle" x="330.5" y="-7.5" font-family="Helvetica,sans-Serif" font-size="10.00">Thread</text>
</a>
</g>
</g>
<!-- Node2 -->
<g id="node2" class="node">
<title>Node2</title>
<g id="a_node2"><a xlink:href="_u___service_8cpp.html#a2ef7fa664545ef1bfd08460f37d2140a" target="_top" xlink:title="Entrypoint and core of the user space service.">
<polygon fill="none" stroke="black" points="166,-6 166,-25 219,-25 219,-6 166,-6"/>
<text text-anchor="middle" x="192.5" y="-13" font-family="Helvetica,sans-Serif" font-size="10.00">SvcMain</text>
</a>
</g>
</g>
<!-- Node1&#45;&gt;Node2 -->
<g id="edge1" class="edge">
<title>Node1&#45;&gt;Node2</title>
<path fill="none" stroke="midnightblue" d="M244.61,-15.5C235.4,-15.5 226.64,-15.5 219.05,-15.5"/>
<polygon fill="midnightblue" stroke="midnightblue" points="244.74,-19 254.74,-15.5 244.74,-12 244.74,-19"/>
</g>
<!-- Node3 -->
<g id="node3" class="node">
<title>Node3</title>
<g id="a_node3"><a xlink:href="_u___service_8cpp.html#afa2e3daf278842db7a49d41ebebc8519" target="_top" xlink:title="Wrap the call to the service entrypoint.">
<polygon fill="none" stroke="black" points="82,-6 82,-25 130,-25 130,-6 82,-6"/>
<text text-anchor="middle" x="106" y="-13" font-family="Helvetica,sans-Serif" font-size="10.00">Service</text>
</a>
</g>
</g>
<!-- Node2&#45;&gt;Node3 -->
<g id="edge2" class="edge">
<title>Node2&#45;&gt;Node3</title>
<path fill="none" stroke="midnightblue" d="M155.47,-15.5C146.86,-15.5 137.91,-15.5 130.07,-15.5"/>
<polygon fill="midnightblue" stroke="midnightblue" points="155.69,-19 165.69,-15.5 155.69,-12 155.69,-19"/>
</g>
<!-- Node4 -->
<g id="node4" class="node">
<title>Node4</title>
<g id="a_node4"><a xlink:href="_u___service_8cpp.html#a3e9716f0248a5a48598490cd4920cbee" target="_top" xlink:title="Entrypoint of the user space executable.">
<polygon fill="none" stroke="black" points="0,-6 0,-25 46,-25 46,-6 0,-6"/>
<text text-anchor="middle" x="23" y="-13" font-family="Helvetica,sans-Serif" font-size="10.00">_tmain</text>
</a>
</g>
</g>
<!-- Node3&#45;&gt;Node4 -->
<g id="edge3" class="edge">
<title>Node3&#45;&gt;Node4</title>
<path fill="none" stroke="midnightblue" d="M71.51,-15.5C63,-15.5 54.06,-15.5 46.26,-15.5"/>
<polygon fill="midnightblue" stroke="midnightblue" points="71.57,-19 81.57,-15.5 71.57,-12 71.57,-19"/>
</g>
</g>
</svg>
