<?xml version="1.0" encoding="UTF-8" standalone="no"?>
<!DOCTYPE svg PUBLIC "-//W3C//DTD SVG 1.1//EN"
 "http://www.w3.org/Graphics/SVG/1.1/DTD/svg11.dtd">
<!-- Generated by graphviz version 4.0.0 (20220529.0937)
 -->
<!-- Title: K_UTILITAIRE::IsValidStringArray Pages: 1 -->
<svg width="432pt" height="39pt"
 viewBox="0.00 0.00 432.00 39.00" xmlns="http://www.w3.org/2000/svg" xmlns:xlink="http://www.w3.org/1999/xlink">
<g id="graph0" class="graph" transform="scale(1 1) rotate(0) translate(4 35)">
<title>K_UTILITAIRE::IsValidStringArray</title>
<!-- Node1 -->
<g id="node1" class="node">
<title>Node1</title>
<g id="a_node1"><a xlink:title="Returns TRUE if the passed _KEY_VALUE_PARTIAL_INFORMATION structure extracted from the Registry conta...">
<polygon fill="#bfbfbf" stroke="black" points="285,-0.5 285,-30.5 424,-30.5 424,-0.5 285,-0.5"/>
<text text-anchor="start" x="293" y="-18.5" font-family="Helvetica,sans-Serif" font-size="10.00">K_UTILITAIRE::IsValidString</text>
<text text-anchor="middle" x="354.5" y="-7.5" font-family="Helvetica,sans-Serif" font-size="10.00">Array</text>
</a>
</g>
</g>
<!-- Node2 -->
<g id="node2" class="node">
<title>Node2</title>
<g id="a_node2"><a xlink:href="class_k___c_o_n_f_i_g_u_r_a_t_i_o_n.html#aef0897b9b976104c3162254f84211b12" target="_top" xlink:title="Initialize configuration from Registry.">
<polygon fill="none" stroke="black" points="100,-6 100,-25 249,-25 249,-6 100,-6"/>
<text text-anchor="middle" x="174.5" y="-13" font-family="Helvetica,sans-Serif" font-size="10.00">K_CONFIGURATION::Initialize</text>
</a>
</g>
</g>
<!-- Node1&#45;&gt;Node2 -->
<g id="edge1" class="edge">
<title>Node1&#45;&gt;Node2</title>
<path fill="none" stroke="midnightblue" d="M274.92,-15.5C266.32,-15.5 257.59,-15.5 249.05,-15.5"/>
<polygon fill="midnightblue" stroke="midnightblue" points="274.94,-19 284.94,-15.5 274.94,-12 274.94,-19"/>
</g>
<!-- Node3 -->
<g id="node3" class="node">
<title>Node3</title>
<g id="a_node3"><a xlink:href="_k___driver_8cpp.html#abd482ac5174a4365b1fa1c26e463c60d" target="_top" xlink:title="Main Driver Entry Routine.">
<polygon fill="none" stroke="black" points="0,-6 0,-25 64,-25 64,-6 0,-6"/>
<text text-anchor="middle" x="32" y="-13" font-family="Helvetica,sans-Serif" font-size="10.00">DriverEntry</text>
</a>
</g>
</g>
<!-- Node2&#45;&gt;Node3 -->
<g id="edge2" class="edge">
<title>Node2&#45;&gt;Node3</title>
<path fill="none" stroke="midnightblue" d="M89.68,-15.5C80.65,-15.5 71.94,-15.5 64.17,-15.5"/>
<polygon fill="midnightblue" stroke="midnightblue" points="89.96,-19 99.96,-15.5 89.96,-12 89.96,-19"/>
</g>
</g>
</svg>
