<?xml version="1.0" encoding="UTF-8" standalone="no"?>
<!DOCTYPE svg PUBLIC "-//W3C//DTD SVG 1.1//EN"
 "http://www.w3.org/Graphics/SVG/1.1/DTD/svg11.dtd">
<!-- Generated by graphviz version 4.0.0 (20220529.0937)
 -->
<!-- Title: U_COMMUNICATION::_WorkerThread Pages: 1 -->
<!--zoomable 239 -->
<svg id="main" version="1.1" xmlns="http://www.w3.org/2000/svg" xmlns:xlink="http://www.w3.org/1999/xlink" xml:space="preserve" onload="init(evt)">
<style type="text/css"><![CDATA[
.edge:hover path { stroke: red; }
.edge:hover polygon { stroke: red; fill: red; }
]]></style>
<script type="text/javascript"><![CDATA[
var edges = document.getElementsByTagName('g');
if (edges && edges.length) {
  for (var i=0;i<edges.length;i++) {
    if (edges[i].id.substr(0,4)=='edge') {
      edges[i].setAttribute('class','edge');
    }
  }
}
]]></script>
        <defs>
                <circle id="rim" cx="0" cy="0" r="7"/>
                <circle id="rim2" cx="0" cy="0" r="3.5"/>
                <g id="zoomPlus">
                        <use xlink:href="#rim" fill="#404040">
                                <set attributeName="fill" to="#808080" begin="zoomplus.mouseover" end="zoomplus.mouseout"/>
                        </use>
                        <path d="M-4,0h8M0,-4v8" fill="none" stroke="white" stroke-width="1.5" pointer-events="none"/>
                </g>
                <g id="zoomMin">
                        <use xlink:href="#rim" fill="#404040">
                                <set attributeName="fill" to="#808080" begin="zoomminus.mouseover" end="zoomminus.mouseout"/>
                        </use>
                        <path d="M-4,0h8" fill="none" stroke="white" stroke-width="1.5" pointer-events="none"/>
                </g>
                <g id="dirArrow">
                        <path fill="none" stroke="white" stroke-width="1.5" d="M0,-3.0v7 M-2.5,-0.5L0,-3.0L2.5,-0.5"/>
                </g>
               <g id="resetDef">
                       <use xlink:href="#rim2" fill="#404040">
                               <set attributeName="fill" to="#808080" begin="reset.mouseover" end="reset.mouseout"/>
                       </use>
               </g>
        </defs>

<script type="text/javascript">
var viewWidth = 929;
var viewHeight = 239;
var sectionId = 'dynsection-5';
</script>
<script xlink:href="svgpan.js"/>
<svg id="graph" class="graph">
<g id="viewport">
<title>U_COMMUNICATION::_WorkerThread</title>
<!-- Node1 -->
<g id="node1" class="node">
<title>Node1</title>
<g id="a_node1"><a xlink:title="Worker thread used to check file signature.">
<polygon fill="#bfbfbf" stroke="black" points="0,-98.5 0,-128.5 153,-128.5 153,-98.5 0,-98.5"/>
<text text-anchor="start" x="8" y="-116.5" font-family="Helvetica,sans-Serif" font-size="10.00">U_COMMUNICATION::_Worker</text>
<text text-anchor="middle" x="76.5" y="-105.5" font-family="Helvetica,sans-Serif" font-size="10.00">Thread</text>
</a>
</g>
</g>
<!-- Node2 -->
<g id="node2" class="node">
<title>Node2</title>
<g id="a_node2"><a xlink:href="class_u___c_o_m_m_u_n_i_c_a_t_i_o_n.html#a6f2f0c62b6e4f1270d5c95c6e6521ee3" target="_top" xlink:title="Push a new message in the queue.">
<polygon fill="none" stroke="black" points="189,-186.5 189,-216.5 376,-216.5 376,-186.5 189,-186.5"/>
<text text-anchor="start" x="197" y="-204.5" font-family="Helvetica,sans-Serif" font-size="10.00">U_COMMUNICATION::_PumpMessage</text>
<text text-anchor="middle" x="282.5" y="-193.5" font-family="Helvetica,sans-Serif" font-size="10.00">InQueue</text>
</a>
</g>
</g>
<!-- Node1&#45;&gt;Node2 -->
<g id="edge1" class="edge">
<title>Node1&#45;&gt;Node2</title>
<path fill="none" stroke="midnightblue" d="M100.14,-128.54C122.08,-142.56 156.7,-163.26 189,-176.5 195.1,-179 201.53,-181.33 208.04,-183.47"/>
<polygon fill="midnightblue" stroke="midnightblue" points="207.02,-186.82 217.61,-186.49 209.12,-180.14 207.02,-186.82"/>
</g>
<!-- Node6 -->
<g id="node6" class="node">
<title>Node6</title>
<g id="a_node6"><a xlink:href="class_u___c_o_m_m_u_n_i_c_a_t_i_o_n.html#ac7267746e2596819493bbf7fca1d4520" target="_top" xlink:title="Reply to the kernel driver.">
<polygon fill="none" stroke="black" points="209.5,-148 209.5,-167 355.5,-167 355.5,-148 209.5,-148"/>
<text text-anchor="middle" x="282.5" y="-155" font-family="Helvetica,sans-Serif" font-size="10.00">U_COMMUNICATION::_Reply</text>
</a>
</g>
</g>
<!-- Node1&#45;&gt;Node6 -->
<g id="edge6" class="edge">
<title>Node1&#45;&gt;Node6</title>
<path fill="none" stroke="midnightblue" d="M143.49,-128.5C158.44,-131.84 174.26,-135.33 189,-138.5 200.41,-140.95 212.62,-143.51 224.31,-145.92"/>
<polygon fill="midnightblue" stroke="midnightblue" points="223.91,-149.41 234.41,-148 225.32,-142.55 223.91,-149.41"/>
</g>
<!-- Node7 -->
<g id="node7" class="node">
<title>Node7</title>
<g id="a_node7"><a xlink:href="class_u___u_t_i_l_i_t_a_i_r_e.html#adc2b6bd88871b96833fab5b34fb94d23" target="_top" xlink:title="Get the handle to a file by providing it&#39;s name.">
<polygon fill="none" stroke="black" points="206.5,-98.5 206.5,-128.5 358.5,-128.5 358.5,-98.5 206.5,-98.5"/>
<text text-anchor="start" x="214.5" y="-116.5" font-family="Helvetica,sans-Serif" font-size="10.00">U_UTILITAIRE::GetHandleFrom</text>
<text text-anchor="middle" x="282.5" y="-105.5" font-family="Helvetica,sans-Serif" font-size="10.00">FileName</text>
</a>
</g>
</g>
<!-- Node1&#45;&gt;Node7 -->
<g id="edge7" class="edge">
<title>Node1&#45;&gt;Node7</title>
<path fill="none" stroke="midnightblue" d="M153.17,-113.5C167.13,-113.5 181.8,-113.5 196.03,-113.5"/>
<polygon fill="midnightblue" stroke="midnightblue" points="196.29,-117 206.29,-113.5 196.29,-110 196.29,-117"/>
</g>
<!-- Node8 -->
<g id="node8" class="node">
<title>Node8</title>
<g id="a_node8"><a xlink:href="class_u___s_i_g_n_a_t_u_r_e.html#a4a2b43ca305cb41a3eab3b76d60cb6db" target="_top" xlink:title="Verify the signature of &#39;szFile&#39; by looking at catalogs files.">
<polygon fill="none" stroke="black" points="208.5,-49.5 208.5,-79.5 356.5,-79.5 356.5,-49.5 208.5,-49.5"/>
<text text-anchor="start" x="216.5" y="-67.5" font-family="Helvetica,sans-Serif" font-size="10.00">U_SIGNATURE::VerifyCatalog</text>
<text text-anchor="middle" x="282.5" y="-56.5" font-family="Helvetica,sans-Serif" font-size="10.00">Signature</text>
</a>
</g>
</g>
<!-- Node1&#45;&gt;Node8 -->
<g id="edge8" class="edge">
<title>Node1&#45;&gt;Node8</title>
<path fill="none" stroke="midnightblue" d="M140.09,-98.47C161.93,-93.22 186.61,-87.29 209.17,-81.87"/>
<polygon fill="midnightblue" stroke="midnightblue" points="210.12,-85.24 219.03,-79.51 208.48,-78.44 210.12,-85.24"/>
</g>
<!-- Node9 -->
<g id="node9" class="node">
<title>Node9</title>
<g id="a_node9"><a xlink:href="class_u___s_i_g_n_a_t_u_r_e.html#a08a76b9f115ae35af11c805c8a58ebb0" target="_top" xlink:title="Check if the file &quot;szFile&quot; is signed by a trusted authority.">
<polygon fill="none" stroke="black" points="202,-0.5 202,-30.5 363,-30.5 363,-0.5 202,-0.5"/>
<text text-anchor="start" x="210" y="-18.5" font-family="Helvetica,sans-Serif" font-size="10.00">U_SIGNATURE::VerifyEmbedded</text>
<text text-anchor="middle" x="282.5" y="-7.5" font-family="Helvetica,sans-Serif" font-size="10.00">Signature</text>
</a>
</g>
</g>
<!-- Node1&#45;&gt;Node9 -->
<g id="edge9" class="edge">
<title>Node1&#45;&gt;Node9</title>
<path fill="none" stroke="midnightblue" d="M96.55,-98.31C117.92,-81.94 154.17,-56.13 189,-40.5 194.35,-38.1 199.98,-35.89 205.7,-33.86"/>
<polygon fill="midnightblue" stroke="midnightblue" points="207.04,-37.1 215.41,-30.61 204.82,-30.46 207.04,-37.1"/>
</g>
<!-- Node3 -->
<g id="node3" class="node">
<title>Node3</title>
<g id="a_node3"><a xlink:href="class_u___u_t_i_l_i_t_a_i_r_e.html#ad0b0328deb4197e357bb5d74c3173775" target="_top" xlink:title="This routine will display an error message based off of the Win32 error code that is passed in.">
<polygon fill="none" stroke="black" points="412,-192 412,-211 549,-211 549,-192 412,-192"/>
<text text-anchor="middle" x="480.5" y="-199" font-family="Helvetica,sans-Serif" font-size="10.00">U_UTILITAIRE::DisplayError</text>
</a>
</g>
</g>
<!-- Node2&#45;&gt;Node3 -->
<g id="edge2" class="edge">
<title>Node2&#45;&gt;Node3</title>
<path fill="none" stroke="midnightblue" d="M376.05,-201.5C384.64,-201.5 393.3,-201.5 401.74,-201.5"/>
<polygon fill="midnightblue" stroke="midnightblue" points="401.92,-205 411.92,-201.5 401.92,-198 401.92,-205"/>
</g>
<!-- Node4 -->
<g id="node4" class="node">
<title>Node4</title>
<g id="a_node4"><a xlink:href="class_u___u_t_i_l_i_t_a_i_r_e.html#aa177d472a3d1e5f03fdb24d9181ab9a9" target="_top" xlink:title="Popup error message displaying the function that failed associated with the error code.">
<polygon fill="none" stroke="black" points="585,-211 585,-230 741,-230 741,-211 585,-211"/>
<text text-anchor="middle" x="663" y="-218" font-family="Helvetica,sans-Serif" font-size="10.00">U_UTILITAIRE::DisplayMessage</text>
</a>
</g>
</g>
<!-- Node3&#45;&gt;Node4 -->
<g id="edge3" class="edge">
<title>Node3&#45;&gt;Node4</title>
<path fill="none" stroke="midnightblue" d="M549.23,-208.63C557.57,-209.51 566.18,-210.41 574.76,-211.32"/>
<polygon fill="midnightblue" stroke="midnightblue" points="574.48,-214.81 584.79,-212.37 575.21,-207.85 574.48,-214.81"/>
</g>
<!-- Node5 -->
<g id="node5" class="node">
<title>Node5</title>
<g id="a_node5"><a xlink:href="class_u___u_t_i_l_i_t_a_i_r_e.html#a20839968820f2161ef19972f7316a141" target="_top" xlink:title="Print error message in the terminal.">
<polygon fill="none" stroke="black" points="777,-192 777,-211 921,-211 921,-192 777,-192"/>
<text text-anchor="middle" x="849" y="-199" font-family="Helvetica,sans-Serif" font-size="10.00">U_UTILITAIRE::PrintMessage</text>
</a>
</g>
</g>
<!-- Node3&#45;&gt;Node5 -->
<g id="edge5" class="edge">
<title>Node3&#45;&gt;Node5</title>
<path fill="none" stroke="midnightblue" d="M549.15,-201.5C610.6,-201.5 701.36,-201.5 766.73,-201.5"/>
<polygon fill="midnightblue" stroke="midnightblue" points="766.99,-205 776.99,-201.5 766.99,-198 766.99,-205"/>
</g>
<!-- Node4&#45;&gt;Node5 -->
<g id="edge4" class="edge">
<title>Node4&#45;&gt;Node5</title>
<path fill="none" stroke="midnightblue" d="M741.23,-212.52C749.62,-211.66 758.18,-210.77 766.62,-209.9"/>
<polygon fill="midnightblue" stroke="midnightblue" points="767.24,-213.36 776.83,-208.85 766.53,-206.39 767.24,-213.36"/>
</g>
</g>
</svg>
        <g id="navigator" transform="translate(0 0)" fill="#404254">
                <rect fill="#f2f5e9" fill-opacity="0.5" stroke="#606060" stroke-width=".5" x="0" y="0" width="60" height="60"/>
                <use id="zoomplus" xlink:href="#zoomPlus" x="17" y="9" onmousedown="handleZoom(evt,'in')"/>
                <use id="zoomminus" xlink:href="#zoomMin" x="42" y="9" onmousedown="handleZoom(evt,'out')"/>
                <use id="reset" xlink:href="#resetDef" x="30" y="36" onmousedown="handleReset()"/>
                <g id="arrowUp" xlink:href="#dirArrow" transform="translate(30 24)" onmousedown="handlePan(0,-1)">
                  <use xlink:href="#rim" fill="#404040">
                        <set attributeName="fill" to="#808080" begin="arrowUp.mouseover" end="arrowUp.mouseout"/>
                  </use>
                  <path fill="none" stroke="white" stroke-width="1.5" d="M0,-3.0v7 M-2.5,-0.5L0,-3.0L2.5,-0.5"/>
                </g>
                <g id="arrowRight" xlink:href="#dirArrow" transform="rotate(90) translate(36 -43)" onmousedown="handlePan(1,0)">
                  <use xlink:href="#rim" fill="#404040">
                        <set attributeName="fill" to="#808080" begin="arrowRight.mouseover" end="arrowRight.mouseout"/>
                  </use>
                  <path fill="none" stroke="white" stroke-width="1.5" d="M0,-3.0v7 M-2.5,-0.5L0,-3.0L2.5,-0.5"/>
                </g>
                <g id="arrowDown" xlink:href="#dirArrow" transform="rotate(180) translate(-30 -48)" onmousedown="handlePan(0,1)">
                  <use xlink:href="#rim" fill="#404040">
                        <set attributeName="fill" to="#808080" begin="arrowDown.mouseover" end="arrowDown.mouseout"/>
                  </use>
                  <path fill="none" stroke="white" stroke-width="1.5" d="M0,-3.0v7 M-2.5,-0.5L0,-3.0L2.5,-0.5"/>
                </g>
                <g id="arrowLeft" xlink:href="#dirArrow" transform="rotate(270) translate(-36 17)" onmousedown="handlePan(-1,0)">
                  <use xlink:href="#rim" fill="#404040">
                        <set attributeName="fill" to="#808080" begin="arrowLeft.mouseover" end="arrowLeft.mouseout"/>
                  </use>
                  <path fill="none" stroke="white" stroke-width="1.5" d="M0,-3.0v7 M-2.5,-0.5L0,-3.0L2.5,-0.5"/>
                </g>
        </g>
        <svg viewBox="0 0 15 15" width="100%" height="30px" preserveAspectRatio="xMaxYMin meet">
         <g id="arrow_out" transform="scale(0.3 0.3)">
          <a xlink:href="class_u___c_o_m_m_u_n_i_c_a_t_i_o_n_a87d0f531204d9141da9e181c20a18c59_cgraph_org.svg" target="_base">
           <rect id="button" ry="5" rx="5" y="6" x="6" height="38" width="38"
                fill="#f2f5e9" fill-opacity="0.5" stroke="#606060" stroke-width="1.0"/>
           <path id="arrow"
             d="M 11.500037,31.436501 C 11.940474,20.09759 22.043105,11.32322 32.158766,21.979434 L 37.068811,17.246167 C 37.068811,17.246167 37.088388,32 37.088388,32 L 22.160133,31.978069 C 22.160133,31.978069 26.997745,27.140456 26.997745,27.140456 C 18.528582,18.264221 13.291696,25.230495 11.500037,31.436501 z"
             style="fill:#404040;"/>
          </a>
         </g>
        </svg>
</svg>
