<?xml version="1.0" encoding="UTF-8" standalone="no"?>
<!DOCTYPE svg PUBLIC "-//W3C//DTD SVG 1.1//EN"
 "http://www.w3.org/Graphics/SVG/1.1/DTD/svg11.dtd">
<!-- Generated by graphviz version 4.0.0 (20220529.0937)
 -->
<!-- Title: U_UTILITAIRE::GetCurrentFolder Pages: 1 -->
<svg width="870pt" height="78pt"
 viewBox="0.00 0.00 870.00 77.50" xmlns="http://www.w3.org/2000/svg" xmlns:xlink="http://www.w3.org/1999/xlink">
<g id="graph0" class="graph" transform="scale(1 1) rotate(0) translate(4 73.5)">
<title>U_UTILITAIRE::GetCurrentFolder</title>
<!-- Node1 -->
<g id="node1" class="node">
<title>Node1</title>
<g id="a_node1"><a xlink:title="Get the current folder of the binary responsible for the launch of the service.">
<polygon fill="#bfbfbf" stroke="black" points="731,-17 731,-47 862,-47 862,-17 731,-17"/>
<text text-anchor="start" x="739" y="-35" font-family="Helvetica,sans-Serif" font-size="10.00">U_UTILITAIRE::GetCurrent</text>
<text text-anchor="middle" x="796.5" y="-24" font-family="Helvetica,sans-Serif" font-size="10.00">Folder</text>
</a>
</g>
</g>
<!-- Node2 -->
<g id="node2" class="node">
<title>Node2</title>
<g id="a_node2"><a xlink:href="class_u___u_t_i_l_i_t_a_i_r_e.html#a13ad12137e1edc6873eeac1b4848194e" target="_top" xlink:title="Get the full DOS Path of the message DLL associated with the binary.">
<polygon fill="none" stroke="black" points="548,-42.5 548,-61.5 695,-61.5 695,-42.5 548,-42.5"/>
<text text-anchor="middle" x="621.5" y="-49.5" font-family="Helvetica,sans-Serif" font-size="10.00">U_UTILITAIRE::GetDllFullPath</text>
</a>
</g>
</g>
<!-- Node1&#45;&gt;Node2 -->
<g id="edge1" class="edge">
<title>Node1&#45;&gt;Node2</title>
<path fill="none" stroke="midnightblue" d="M720.41,-40.68C711.99,-41.65 703.42,-42.64 695.03,-43.61"/>
<polygon fill="midnightblue" stroke="midnightblue" points="721.06,-44.13 730.59,-39.5 720.25,-37.18 721.06,-44.13"/>
</g>
<!-- Node7 -->
<g id="node7" class="node">
<title>Node7</title>
<g id="a_node7"><a xlink:href="class_u___c_o_n_t_r_o_l_l_e_r.html#a81c82381327f2e86e44e97bd330f2796" target="_top" xlink:title="Install the service &quot;szServiceName&quot;.">
<polygon fill="none" stroke="black" points="356,-0.5 356,-19.5 512,-19.5 512,-0.5 356,-0.5"/>
<text text-anchor="middle" x="434" y="-7.5" font-family="Helvetica,sans-Serif" font-size="10.00">U_CONTROLLER::InstallService</text>
</a>
</g>
</g>
<!-- Node1&#45;&gt;Node7 -->
<g id="edge6" class="edge">
<title>Node1&#45;&gt;Node7</title>
<path fill="none" stroke="midnightblue" d="M720.31,-27.41C659.32,-23.69 573.7,-18.46 512.18,-14.71"/>
<polygon fill="midnightblue" stroke="midnightblue" points="720.44,-30.93 730.63,-28.04 720.87,-23.94 720.44,-30.93"/>
</g>
<!-- Node3 -->
<g id="node3" class="node">
<title>Node3</title>
<g id="a_node3"><a xlink:href="class_u___c_o_n_f_i_g_u_r_a_t_i_o_n.html#ac15b37425890a19a5de6664a2f5b2320" target="_top" xlink:title="Create all the registry keys needed for ETW Logs.">
<polygon fill="none" stroke="black" points="360.5,-39 360.5,-69 507.5,-69 507.5,-39 360.5,-39"/>
<text text-anchor="start" x="368.5" y="-57" font-family="Helvetica,sans-Serif" font-size="10.00">U_CONFIGURATION::_Create</text>
<text text-anchor="middle" x="434" y="-46" font-family="Helvetica,sans-Serif" font-size="10.00">RegistryForLogs</text>
</a>
</g>
</g>
<!-- Node2&#45;&gt;Node3 -->
<g id="edge2" class="edge">
<title>Node2&#45;&gt;Node3</title>
<path fill="none" stroke="midnightblue" d="M537.67,-52.89C527.7,-53 517.58,-53.11 507.77,-53.22"/>
<polygon fill="midnightblue" stroke="midnightblue" points="538.02,-56.39 547.98,-52.78 537.95,-49.39 538.02,-56.39"/>
</g>
<!-- Node4 -->
<g id="node4" class="node">
<title>Node4</title>
<g id="a_node4"><a xlink:href="class_u___c_o_n_f_i_g_u_r_a_t_i_o_n.html#adf54f299b42ec1596e92f49cb640d3ba" target="_top" xlink:title="Create registry keys needed for the service configuration.">
<polygon fill="none" stroke="black" points="160,-39 160,-69 320,-69 320,-39 160,-39"/>
<text text-anchor="start" x="168" y="-57" font-family="Helvetica,sans-Serif" font-size="10.00">U_CONFIGURATION::SetService</text>
<text text-anchor="middle" x="240" y="-46" font-family="Helvetica,sans-Serif" font-size="10.00">Configuration</text>
</a>
</g>
</g>
<!-- Node3&#45;&gt;Node4 -->
<g id="edge3" class="edge">
<title>Node3&#45;&gt;Node4</title>
<path fill="none" stroke="midnightblue" d="M350.12,-54C340.16,-54 330.01,-54 320.11,-54"/>
<polygon fill="midnightblue" stroke="midnightblue" points="350.41,-57.5 360.41,-54 350.41,-50.5 350.41,-57.5"/>
</g>
<!-- Node5 -->
<g id="node5" class="node">
<title>Node5</title>
<g id="a_node5"><a xlink:href="_u___service_8cpp.html#ab5c4ad56c0967c7aa59e84c28c445bc6" target="_top" xlink:title="Wrap the installation of the service.">
<polygon fill="none" stroke="black" points="82,-22.5 82,-41.5 124,-41.5 124,-22.5 82,-22.5"/>
<text text-anchor="middle" x="103" y="-29.5" font-family="Helvetica,sans-Serif" font-size="10.00">Install</text>
</a>
</g>
</g>
<!-- Node4&#45;&gt;Node5 -->
<g id="edge4" class="edge">
<title>Node4&#45;&gt;Node5</title>
<path fill="none" stroke="midnightblue" d="M149.64,-39.44C140.18,-37.9 131.37,-36.46 124.06,-35.27"/>
<polygon fill="midnightblue" stroke="midnightblue" points="149.26,-42.92 159.69,-41.08 150.38,-36.01 149.26,-42.92"/>
</g>
<!-- Node6 -->
<g id="node6" class="node">
<title>Node6</title>
<g id="a_node6"><a xlink:href="_u___service_8cpp.html#a3e9716f0248a5a48598490cd4920cbee" target="_top" xlink:title="Entrypoint of the user space executable.">
<polygon fill="none" stroke="black" points="0,-22.5 0,-41.5 46,-41.5 46,-22.5 0,-22.5"/>
<text text-anchor="middle" x="23" y="-29.5" font-family="Helvetica,sans-Serif" font-size="10.00">_tmain</text>
</a>
</g>
</g>
<!-- Node5&#45;&gt;Node6 -->
<g id="edge5" class="edge">
<title>Node5&#45;&gt;Node6</title>
<path fill="none" stroke="midnightblue" d="M71.9,-32C63.36,-32 54.21,-32 46.22,-32"/>
<polygon fill="midnightblue" stroke="midnightblue" points="71.91,-35.5 81.91,-32 71.91,-28.5 71.91,-35.5"/>
</g>
<!-- Node7&#45;&gt;Node5 -->
<g id="edge7" class="edge">
<title>Node7&#45;&gt;Node5</title>
<path fill="none" stroke="midnightblue" d="M345.45,-15.85C270.28,-20.88 167.43,-27.76 124.32,-30.64"/>
<polygon fill="midnightblue" stroke="midnightblue" points="346.12,-19.32 355.86,-15.16 345.65,-12.33 346.12,-19.32"/>
</g>
</g>
</svg>
