<?xml version="1.0" encoding="UTF-8" standalone="no"?>
<!DOCTYPE svg PUBLIC "-//W3C//DTD SVG 1.1//EN"
 "http://www.w3.org/Graphics/SVG/1.1/DTD/svg11.dtd">
<!-- Generated by graphviz version 4.0.0 (20220529.0937)
 -->
<!-- Title: K_CACHE::_GetCachedValue Pages: 1 -->
<!--zoomable 66 -->
<svg id="main" version="1.1" xmlns="http://www.w3.org/2000/svg" xmlns:xlink="http://www.w3.org/1999/xlink" xml:space="preserve" onload="init(evt)">
<style type="text/css"><![CDATA[
.edge:hover path { stroke: red; }
.edge:hover polygon { stroke: red; fill: red; }
]]></style>
<script type="text/javascript"><![CDATA[
var edges = document.getElementsByTagName('g');
if (edges && edges.length) {
  for (var i=0;i<edges.length;i++) {
    if (edges[i].id.substr(0,4)=='edge') {
      edges[i].setAttribute('class','edge');
    }
  }
}
]]></script>
        <defs>
                <circle id="rim" cx="0" cy="0" r="7"/>
                <circle id="rim2" cx="0" cy="0" r="3.5"/>
                <g id="zoomPlus">
                        <use xlink:href="#rim" fill="#404040">
                                <set attributeName="fill" to="#808080" begin="zoomplus.mouseover" end="zoomplus.mouseout"/>
                        </use>
                        <path d="M-4,0h8M0,-4v8" fill="none" stroke="white" stroke-width="1.5" pointer-events="none"/>
                </g>
                <g id="zoomMin">
                        <use xlink:href="#rim" fill="#404040">
                                <set attributeName="fill" to="#808080" begin="zoomminus.mouseover" end="zoomminus.mouseout"/>
                        </use>
                        <path d="M-4,0h8" fill="none" stroke="white" stroke-width="1.5" pointer-events="none"/>
                </g>
                <g id="dirArrow">
                        <path fill="none" stroke="white" stroke-width="1.5" d="M0,-3.0v7 M-2.5,-0.5L0,-3.0L2.5,-0.5"/>
                </g>
               <g id="resetDef">
                       <use xlink:href="#rim2" fill="#404040">
                               <set attributeName="fill" to="#808080" begin="reset.mouseover" end="reset.mouseout"/>
                       </use>
               </g>
        </defs>

<script type="text/javascript">
var viewWidth = 913;
var viewHeight = 66;
var sectionId = 'dynsection-1';
</script>
<script xlink:href="svgpan.js"/>
<svg id="graph" class="graph">
<g id="viewport">
<title>K_CACHE::_GetCachedValue</title>
<!-- Node1 -->
<g id="node1" class="node">
<title>Node1</title>
<g id="a_node1"><a xlink:title="Set &quot;pbIsOk&quot; to TRUE if cache contains specified Hash, FALSE otherwise.">
<polygon fill="#bfbfbf" stroke="black" points="758,-19.5 758,-38.5 905,-38.5 905,-19.5 758,-19.5"/>
<text text-anchor="middle" x="831.5" y="-26.5" font-family="Helvetica,sans-Serif" font-size="10.00">K_CACHE::_GetCachedValue</text>
</a>
</g>
</g>
<!-- Node2 -->
<g id="node2" class="node">
<title>Node2</title>
<g id="a_node2"><a xlink:href="class_k___c_a_c_h_e.html#a785a988fa6c22e5a7626afe75bd447e3" target="_top" xlink:title="Add a Hash in the Cache and remember if it is signed or not.">
<polygon fill="none" stroke="black" points="608,-38.5 608,-57.5 694,-57.5 694,-38.5 608,-38.5"/>
<text text-anchor="middle" x="651" y="-45.5" font-family="Helvetica,sans-Serif" font-size="10.00">K_CACHE::Add</text>
</a>
</g>
</g>
<!-- Node1&#45;&gt;Node2 -->
<g id="edge1" class="edge">
<title>Node1&#45;&gt;Node2</title>
<path fill="none" stroke="midnightblue" d="M747.9,-37.79C729.24,-39.78 710.2,-41.81 694.05,-43.52"/>
<polygon fill="midnightblue" stroke="midnightblue" points="748.32,-41.27 757.9,-36.73 747.58,-34.31 748.32,-41.27"/>
</g>
<!-- Node7 -->
<g id="node7" class="node">
<title>Node7</title>
<g id="a_node7"><a xlink:href="class_k___c_a_c_h_e.html#a98344c274506318cf85edd7debb5de80" target="_top" xlink:title="Set bIsOk to TRUE if cache contains specified Hash, FALSE otherwise.">
<polygon fill="none" stroke="black" points="580,-0.5 580,-19.5 722,-19.5 722,-0.5 580,-0.5"/>
<text text-anchor="middle" x="651" y="-7.5" font-family="Helvetica,sans-Serif" font-size="10.00">K_CACHE::GetCachedValue</text>
</a>
</g>
</g>
<!-- Node1&#45;&gt;Node7 -->
<g id="edge6" class="edge">
<title>Node1&#45;&gt;Node7</title>
<path fill="none" stroke="midnightblue" d="M747.89,-20.21C739.31,-19.29 730.65,-18.37 722.23,-17.48"/>
<polygon fill="midnightblue" stroke="midnightblue" points="747.58,-23.69 757.9,-21.27 748.32,-16.73 747.58,-23.69"/>
</g>
<!-- Node3 -->
<g id="node3" class="node">
<title>Node3</title>
<g id="a_node3"><a xlink:href="class_k___c_o_n_f_i_g_u_r_a_t_i_o_n.html#a499a9ef09e19ef4cc0827bff8ff04130" target="_top" xlink:title=" ">
<polygon fill="none" stroke="black" points="375,-38.5 375,-57.5 544,-57.5 544,-38.5 375,-38.5"/>
<text text-anchor="middle" x="459.5" y="-45.5" font-family="Helvetica,sans-Serif" font-size="10.00">K_CONFIGURATION::AddToCache</text>
</a>
</g>
</g>
<!-- Node2&#45;&gt;Node3 -->
<g id="edge2" class="edge">
<title>Node2&#45;&gt;Node3</title>
<path fill="none" stroke="midnightblue" d="M597.88,-48C581.22,-48 562.33,-48 544.01,-48"/>
<polygon fill="midnightblue" stroke="midnightblue" points="597.94,-51.5 607.94,-48 597.94,-44.5 597.94,-51.5"/>
</g>
<!-- Node4 -->
<g id="node4" class="node">
<title>Node4</title>
<g id="a_node4"><a xlink:href="class_k___o_b.html#a6b236f7c3b792f31133c3428966a2921" target="_top" xlink:title="We get notify when a process want a handle.">
<polygon fill="none" stroke="black" points="220,-19.5 220,-38.5 339,-38.5 339,-19.5 220,-19.5"/>
<text text-anchor="middle" x="279.5" y="-26.5" font-family="Helvetica,sans-Serif" font-size="10.00">K_OB::_PreObCallback</text>
</a>
</g>
</g>
<!-- Node3&#45;&gt;Node4 -->
<g id="edge3" class="edge">
<title>Node3&#45;&gt;Node4</title>
<path fill="none" stroke="midnightblue" d="M364.75,-37.99C356.04,-37.06 347.4,-36.14 339.15,-35.26"/>
<polygon fill="midnightblue" stroke="midnightblue" points="364.66,-41.5 374.97,-39.08 365.4,-34.54 364.66,-41.5"/>
</g>
<!-- Node5 -->
<g id="node5" class="node">
<title>Node5</title>
<g id="a_node5"><a xlink:href="class_k___o_b.html#a21fe4100571040a8d156fa0f045168ea" target="_top" xlink:title="Register the ObCallback routine.">
<polygon fill="none" stroke="black" points="100,-19.5 100,-38.5 184,-38.5 184,-19.5 100,-19.5"/>
<text text-anchor="middle" x="142" y="-26.5" font-family="Helvetica,sans-Serif" font-size="10.00">K_OB::Initialize</text>
</a>
</g>
</g>
<!-- Node4&#45;&gt;Node5 -->
<g id="edge4" class="edge">
<title>Node4&#45;&gt;Node5</title>
<path fill="none" stroke="midnightblue" d="M209.66,-29C200.95,-29 192.27,-29 184.19,-29"/>
<polygon fill="midnightblue" stroke="midnightblue" points="209.86,-32.5 219.86,-29 209.86,-25.5 209.86,-32.5"/>
</g>
<!-- Node6 -->
<g id="node6" class="node">
<title>Node6</title>
<g id="a_node6"><a xlink:href="_k___driver_8cpp.html#abd482ac5174a4365b1fa1c26e463c60d" target="_top" xlink:title="Main Driver Entry Routine.">
<polygon fill="none" stroke="black" points="0,-19.5 0,-38.5 64,-38.5 64,-19.5 0,-19.5"/>
<text text-anchor="middle" x="32" y="-26.5" font-family="Helvetica,sans-Serif" font-size="10.00">DriverEntry</text>
</a>
</g>
</g>
<!-- Node5&#45;&gt;Node6 -->
<g id="edge5" class="edge">
<title>Node5&#45;&gt;Node6</title>
<path fill="none" stroke="midnightblue" d="M89.75,-29C81.05,-29 72.26,-29 64.28,-29"/>
<polygon fill="midnightblue" stroke="midnightblue" points="89.86,-32.5 99.86,-29 89.86,-25.5 89.86,-32.5"/>
</g>
<!-- Node8 -->
<g id="node8" class="node">
<title>Node8</title>
<g id="a_node8"><a xlink:href="class_k___c_o_n_f_i_g_u_r_a_t_i_o_n.html#afb0e428195d7ac67b5685dfb73166d94" target="_top" xlink:title=" ">
<polygon fill="none" stroke="black" points="381.5,-0.5 381.5,-19.5 537.5,-19.5 537.5,-0.5 381.5,-0.5"/>
<text text-anchor="middle" x="459.5" y="-7.5" font-family="Helvetica,sans-Serif" font-size="10.00">K_CONFIGURATION::IsInCache</text>
</a>
</g>
</g>
<!-- Node7&#45;&gt;Node8 -->
<g id="edge7" class="edge">
<title>Node7&#45;&gt;Node8</title>
<path fill="none" stroke="midnightblue" d="M569.83,-10C559.14,-10 548.2,-10 537.57,-10"/>
<polygon fill="midnightblue" stroke="midnightblue" points="569.98,-13.5 579.98,-10 569.98,-6.5 569.98,-13.5"/>
</g>
<!-- Node8&#45;&gt;Node4 -->
<g id="edge8" class="edge">
<title>Node8&#45;&gt;Node4</title>
<path fill="none" stroke="midnightblue" d="M371.44,-19.29C360.49,-20.46 349.5,-21.63 339.14,-22.74"/>
<polygon fill="midnightblue" stroke="midnightblue" points="371.89,-22.76 381.46,-18.22 371.15,-15.8 371.89,-22.76"/>
</g>
</g>
</svg>
        <g id="navigator" transform="translate(0 0)" fill="#404254">
                <rect fill="#f2f5e9" fill-opacity="0.5" stroke="#606060" stroke-width=".5" x="0" y="0" width="60" height="60"/>
                <use id="zoomplus" xlink:href="#zoomPlus" x="17" y="9" onmousedown="handleZoom(evt,'in')"/>
                <use id="zoomminus" xlink:href="#zoomMin" x="42" y="9" onmousedown="handleZoom(evt,'out')"/>
                <use id="reset" xlink:href="#resetDef" x="30" y="36" onmousedown="handleReset()"/>
                <g id="arrowUp" xlink:href="#dirArrow" transform="translate(30 24)" onmousedown="handlePan(0,-1)">
                  <use xlink:href="#rim" fill="#404040">
                        <set attributeName="fill" to="#808080" begin="arrowUp.mouseover" end="arrowUp.mouseout"/>
                  </use>
                  <path fill="none" stroke="white" stroke-width="1.5" d="M0,-3.0v7 M-2.5,-0.5L0,-3.0L2.5,-0.5"/>
                </g>
                <g id="arrowRight" xlink:href="#dirArrow" transform="rotate(90) translate(36 -43)" onmousedown="handlePan(1,0)">
                  <use xlink:href="#rim" fill="#404040">
                        <set attributeName="fill" to="#808080" begin="arrowRight.mouseover" end="arrowRight.mouseout"/>
                  </use>
                  <path fill="none" stroke="white" stroke-width="1.5" d="M0,-3.0v7 M-2.5,-0.5L0,-3.0L2.5,-0.5"/>
                </g>
                <g id="arrowDown" xlink:href="#dirArrow" transform="rotate(180) translate(-30 -48)" onmousedown="handlePan(0,1)">
                  <use xlink:href="#rim" fill="#404040">
                        <set attributeName="fill" to="#808080" begin="arrowDown.mouseover" end="arrowDown.mouseout"/>
                  </use>
                  <path fill="none" stroke="white" stroke-width="1.5" d="M0,-3.0v7 M-2.5,-0.5L0,-3.0L2.5,-0.5"/>
                </g>
                <g id="arrowLeft" xlink:href="#dirArrow" transform="rotate(270) translate(-36 17)" onmousedown="handlePan(-1,0)">
                  <use xlink:href="#rim" fill="#404040">
                        <set attributeName="fill" to="#808080" begin="arrowLeft.mouseover" end="arrowLeft.mouseout"/>
                  </use>
                  <path fill="none" stroke="white" stroke-width="1.5" d="M0,-3.0v7 M-2.5,-0.5L0,-3.0L2.5,-0.5"/>
                </g>
        </g>
        <svg viewBox="0 0 15 15" width="100%" height="30px" preserveAspectRatio="xMaxYMin meet">
         <g id="arrow_out" transform="scale(0.3 0.3)">
          <a xlink:href="class_k___c_a_c_h_e_a2a803e7f4af2e18b582ccc4f2b9f747a_icgraph_org.svg" target="_base">
           <rect id="button" ry="5" rx="5" y="6" x="6" height="38" width="38"
                fill="#f2f5e9" fill-opacity="0.5" stroke="#606060" stroke-width="1.0"/>
           <path id="arrow"
             d="M 11.500037,31.436501 C 11.940474,20.09759 22.043105,11.32322 32.158766,21.979434 L 37.068811,17.246167 C 37.068811,17.246167 37.088388,32 37.088388,32 L 22.160133,31.978069 C 22.160133,31.978069 26.997745,27.140456 26.997745,27.140456 C 18.528582,18.264221 13.291696,25.230495 11.500037,31.436501 z"
             style="fill:#404040;"/>
          </a>
         </g>
        </svg>
</svg>
