<?xml version="1.0" encoding="UTF-8" standalone="no"?>
<!DOCTYPE svg PUBLIC "-//W3C//DTD SVG 1.1//EN"
 "http://www.w3.org/Graphics/SVG/1.1/DTD/svg11.dtd">
<!-- Generated by graphviz version 4.0.0 (20220529.0937)
 -->
<!-- Title: K_OB::Initialize Pages: 1 -->
<svg width="813pt" height="318pt"
 viewBox="0.00 0.00 813.00 318.00" xmlns="http://www.w3.org/2000/svg" xmlns:xlink="http://www.w3.org/1999/xlink">
<g id="graph0" class="graph" transform="scale(1 1) rotate(0) translate(4 314)">
<title>K_OB::Initialize</title>
<!-- Node1 -->
<g id="node1" class="node">
<title>Node1</title>
<g id="a_node1"><a xlink:title="Register the ObCallback routine.">
<polygon fill="#bfbfbf" stroke="black" points="0,-142.5 0,-161.5 84,-161.5 84,-142.5 0,-142.5"/>
<text text-anchor="middle" x="42" y="-149.5" font-family="Helvetica,sans-Serif" font-size="10.00">K_OB::Initialize</text>
</a>
</g>
</g>
<!-- Node2 -->
<g id="node2" class="node">
<title>Node2</title>
<g id="a_node2"><a xlink:href="class_k___o_b.html#a6b236f7c3b792f31133c3428966a2921" target="_top" xlink:title="We get notify when a process want a handle.">
<polygon fill="none" stroke="black" points="120,-142.5 120,-161.5 239,-161.5 239,-142.5 120,-142.5"/>
<text text-anchor="middle" x="179.5" y="-149.5" font-family="Helvetica,sans-Serif" font-size="10.00">K_OB::_PreObCallback</text>
</a>
</g>
</g>
<!-- Node1&#45;&gt;Node2 -->
<g id="edge1" class="edge">
<title>Node1&#45;&gt;Node2</title>
<path fill="none" stroke="midnightblue" d="M84.02,-152C92.08,-152 100.75,-152 109.44,-152"/>
<polygon fill="midnightblue" stroke="midnightblue" points="109.62,-155.5 119.62,-152 109.62,-148.5 109.62,-155.5"/>
</g>
<!-- Node3 -->
<g id="node3" class="node">
<title>Node3</title>
<g id="a_node3"><a xlink:href="class_k___o_b.html#adbc9032c14f29ca14460dde65ee71b0d" target="_top" xlink:title="Checks if : .">
<polygon fill="none" stroke="black" points="316,-290.5 316,-309.5 403,-309.5 403,-290.5 316,-290.5"/>
<text text-anchor="middle" x="359.5" y="-297.5" font-family="Helvetica,sans-Serif" font-size="10.00">K_OB::_Checks</text>
</a>
</g>
</g>
<!-- Node2&#45;&gt;Node3 -->
<g id="edge2" class="edge">
<title>Node2&#45;&gt;Node3</title>
<path fill="none" stroke="midnightblue" d="M184.59,-161.6C195.45,-185.83 227.43,-249.76 275,-281 284.23,-287.06 295.13,-291.2 305.96,-294.03"/>
<polygon fill="midnightblue" stroke="midnightblue" points="305.3,-297.47 315.83,-296.28 306.85,-290.65 305.3,-297.47"/>
</g>
<!-- Node4 -->
<g id="node4" class="node">
<title>Node4</title>
<g id="a_node4"><a xlink:href="class_k___c_o_n_f_i_g_u_r_a_t_i_o_n.html#a499a9ef09e19ef4cc0827bff8ff04130" target="_top" xlink:title=" ">
<polygon fill="none" stroke="black" points="275,-252.5 275,-271.5 444,-271.5 444,-252.5 275,-252.5"/>
<text text-anchor="middle" x="359.5" y="-259.5" font-family="Helvetica,sans-Serif" font-size="10.00">K_CONFIGURATION::AddToCache</text>
</a>
</g>
</g>
<!-- Node2&#45;&gt;Node4 -->
<g id="edge3" class="edge">
<title>Node2&#45;&gt;Node4</title>
<path fill="none" stroke="midnightblue" d="M187.6,-161.73C201.9,-180.57 236.12,-222.01 275,-243 279.27,-245.31 283.81,-247.33 288.48,-249.12"/>
<polygon fill="midnightblue" stroke="midnightblue" points="287.62,-252.52 298.21,-252.44 289.88,-245.89 287.62,-252.52"/>
</g>
<!-- Node7 -->
<g id="node7" class="node">
<title>Node7</title>
<g id="a_node7"><a xlink:href="class_k___u_t_i_l_i_t_a_i_r_e.html#a04500e749540f2f0f34735f5a5542a29" target="_top" xlink:title="Convert NT Path to DOS Path (letter)">
<polygon fill="none" stroke="black" points="286.5,-203 286.5,-233 432.5,-233 432.5,-203 286.5,-203"/>
<text text-anchor="start" x="294.5" y="-221" font-family="Helvetica,sans-Serif" font-size="10.00">K_UTILITAIRE::ConvertNtPath</text>
<text text-anchor="middle" x="359.5" y="-210" font-family="Helvetica,sans-Serif" font-size="10.00">ToDosPath</text>
</a>
</g>
</g>
<!-- Node2&#45;&gt;Node7 -->
<g id="edge6" class="edge">
<title>Node2&#45;&gt;Node7</title>
<path fill="none" stroke="midnightblue" d="M200.5,-161.5C219.44,-170.3 248.79,-183.43 275,-193 281.4,-195.34 288.13,-197.62 294.88,-199.81"/>
<polygon fill="midnightblue" stroke="midnightblue" points="294.15,-203.25 304.74,-202.93 296.26,-196.57 294.15,-203.25"/>
</g>
<!-- Node8 -->
<g id="node8" class="node">
<title>Node8</title>
<g id="a_node8"><a xlink:href="class_k___u_t_i_l_i_t_a_i_r_e.html#a256b9ffb749d08ded50470033c7038cc" target="_top" xlink:title="Retrieve the file hash of &quot;FileName&quot;.">
<polygon fill="none" stroke="black" points="290.5,-164.5 290.5,-183.5 428.5,-183.5 428.5,-164.5 290.5,-164.5"/>
<text text-anchor="middle" x="359.5" y="-171.5" font-family="Helvetica,sans-Serif" font-size="10.00">K_UTILITAIRE::GetFileHash</text>
</a>
</g>
</g>
<!-- Node2&#45;&gt;Node8 -->
<g id="edge7" class="edge">
<title>Node2&#45;&gt;Node8</title>
<path fill="none" stroke="midnightblue" d="M239.28,-159.26C252.4,-160.89 266.51,-162.63 280.27,-164.33"/>
<polygon fill="midnightblue" stroke="midnightblue" points="279.86,-167.81 290.22,-165.56 280.72,-160.86 279.86,-167.81"/>
</g>
<!-- Node9 -->
<g id="node9" class="node">
<title>Node9</title>
<g id="a_node9"><a xlink:href="class_k___u_t_i_l_i_t_a_i_r_e.html#add7e1153991b68995c3c05d631c48ed6" target="_top" xlink:title="Get the full image name by providing a handle to a process.">
<polygon fill="none" stroke="black" points="288.5,-115 288.5,-145 430.5,-145 430.5,-115 288.5,-115"/>
<text text-anchor="start" x="296.5" y="-133" font-family="Helvetica,sans-Serif" font-size="10.00">K_UTILITAIRE::GetFullImage</text>
<text text-anchor="middle" x="359.5" y="-122" font-family="Helvetica,sans-Serif" font-size="10.00">NameByHandle</text>
</a>
</g>
</g>
<!-- Node2&#45;&gt;Node9 -->
<g id="edge8" class="edge">
<title>Node2&#45;&gt;Node9</title>
<path fill="none" stroke="midnightblue" d="M239.28,-144.74C251.78,-143.19 265.2,-141.53 278.35,-139.91"/>
<polygon fill="midnightblue" stroke="midnightblue" points="278.84,-143.37 288.33,-138.67 277.98,-136.43 278.84,-143.37"/>
</g>
<!-- Node10 -->
<g id="node10" class="node">
<title>Node10</title>
<g id="a_node10"><a xlink:href="class_k___c_o_n_f_i_g_u_r_a_t_i_o_n.html#afb0e428195d7ac67b5685dfb73166d94" target="_top" xlink:title=" ">
<polygon fill="none" stroke="black" points="281.5,-76.5 281.5,-95.5 437.5,-95.5 437.5,-76.5 281.5,-76.5"/>
<text text-anchor="middle" x="359.5" y="-83.5" font-family="Helvetica,sans-Serif" font-size="10.00">K_CONFIGURATION::IsInCache</text>
</a>
</g>
</g>
<!-- Node2&#45;&gt;Node10 -->
<g id="edge9" class="edge">
<title>Node2&#45;&gt;Node10</title>
<path fill="none" stroke="midnightblue" d="M197.43,-142.36C215.97,-132.13 246.83,-116.09 275,-106 283.26,-103.04 292.13,-100.39 300.9,-98.05"/>
<polygon fill="midnightblue" stroke="midnightblue" points="301.9,-101.41 310.72,-95.55 300.17,-94.63 301.9,-101.41"/>
</g>
<!-- Node12 -->
<g id="node12" class="node">
<title>Node12</title>
<g id="a_node12"><a xlink:href="class_k___c_o_n_f_i_g_u_r_a_t_i_o_n.html#aa0eade5fe406c90f04b739bf85e098f5" target="_top" xlink:title=" ">
<polygon fill="none" stroke="black" points="276,-38.5 276,-57.5 443,-57.5 443,-38.5 276,-38.5"/>
<text text-anchor="middle" x="359.5" y="-45.5" font-family="Helvetica,sans-Serif" font-size="10.00">K_CONFIGURATION::IsInWhitelist</text>
</a>
</g>
</g>
<!-- Node2&#45;&gt;Node12 -->
<g id="edge12" class="edge">
<title>Node2&#45;&gt;Node12</title>
<path fill="none" stroke="midnightblue" d="M188.21,-142.37C203.04,-124.56 237.38,-86.49 275,-67 279.58,-64.62 284.46,-62.54 289.47,-60.72"/>
<polygon fill="midnightblue" stroke="midnightblue" points="290.8,-63.97 299.21,-57.53 288.62,-57.32 290.8,-63.97"/>
</g>
<!-- Node15 -->
<g id="node15" class="node">
<title>Node15</title>
<g id="a_node15"><a xlink:href="class_k___c_o_m_m_u_n_i_c_a_t_i_o_n.html#a896b333aee4306520563c138c09f7b4e" target="_top" xlink:title="This function is used to send Data to the User&#45;Mode service.">
<polygon fill="none" stroke="black" points="290,-0.5 290,-19.5 429,-19.5 429,-0.5 290,-0.5"/>
<text text-anchor="middle" x="359.5" y="-7.5" font-family="Helvetica,sans-Serif" font-size="10.00">K_COMMUNICATION::Send</text>
</a>
</g>
</g>
<!-- Node2&#45;&gt;Node15 -->
<g id="edge15" class="edge">
<title>Node2&#45;&gt;Node15</title>
<path fill="none" stroke="midnightblue" d="M185.06,-142.16C196.52,-118.55 228.97,-58.49 275,-29 278.19,-26.96 281.58,-25.13 285.08,-23.5"/>
<polygon fill="midnightblue" stroke="midnightblue" points="286.66,-26.63 294.61,-19.62 284.02,-20.15 286.66,-26.63"/>
</g>
<!-- Node5 -->
<g id="node5" class="node">
<title>Node5</title>
<g id="a_node5"><a xlink:href="class_k___c_a_c_h_e.html#a785a988fa6c22e5a7626afe75bd447e3" target="_top" xlink:title="Add a Hash in the Cache and remember if it is signed or not.">
<polygon fill="none" stroke="black" points="508,-184.5 508,-203.5 594,-203.5 594,-184.5 508,-184.5"/>
<text text-anchor="middle" x="551" y="-191.5" font-family="Helvetica,sans-Serif" font-size="10.00">K_CACHE::Add</text>
</a>
</g>
</g>
<!-- Node4&#45;&gt;Node5 -->
<g id="edge4" class="edge">
<title>Node4&#45;&gt;Node5</title>
<path fill="none" stroke="midnightblue" d="M410.43,-252.43C421.6,-249.8 433.3,-246.64 444,-243 471.79,-233.53 502.06,-219.09 523.11,-208.34"/>
<polygon fill="midnightblue" stroke="midnightblue" points="524.82,-211.4 532.09,-203.69 521.6,-205.18 524.82,-211.4"/>
</g>
<!-- Node6 -->
<g id="node6" class="node">
<title>Node6</title>
<g id="a_node6"><a xlink:href="class_k___c_a_c_h_e.html#a2a803e7f4af2e18b582ccc4f2b9f747a" target="_top" xlink:title="Set &quot;pbIsOk&quot; to TRUE if cache contains specified Hash, FALSE otherwise.">
<polygon fill="none" stroke="black" points="658,-133.5 658,-152.5 805,-152.5 805,-133.5 658,-133.5"/>
<text text-anchor="middle" x="731.5" y="-140.5" font-family="Helvetica,sans-Serif" font-size="10.00">K_CACHE::_GetCachedValue</text>
</a>
</g>
</g>
<!-- Node5&#45;&gt;Node6 -->
<g id="edge5" class="edge">
<title>Node5&#45;&gt;Node6</title>
<path fill="none" stroke="midnightblue" d="M585.57,-184.41C614.37,-176.18 656.04,-164.27 687.32,-155.34"/>
<polygon fill="midnightblue" stroke="midnightblue" points="688.42,-158.66 697.08,-152.55 686.5,-151.93 688.42,-158.66"/>
</g>
<!-- Node11 -->
<g id="node11" class="node">
<title>Node11</title>
<g id="a_node11"><a xlink:href="class_k___c_a_c_h_e.html#a98344c274506318cf85edd7debb5de80" target="_top" xlink:title="Set bIsOk to TRUE if cache contains specified Hash, FALSE otherwise.">
<polygon fill="none" stroke="black" points="480,-79.5 480,-98.5 622,-98.5 622,-79.5 480,-79.5"/>
<text text-anchor="middle" x="551" y="-86.5" font-family="Helvetica,sans-Serif" font-size="10.00">K_CACHE::GetCachedValue</text>
</a>
</g>
</g>
<!-- Node10&#45;&gt;Node11 -->
<g id="edge10" class="edge">
<title>Node10&#45;&gt;Node11</title>
<path fill="none" stroke="midnightblue" d="M437.58,-87.22C448.14,-87.39 459,-87.56 469.62,-87.73"/>
<polygon fill="midnightblue" stroke="midnightblue" points="469.65,-91.23 479.71,-87.89 469.76,-84.23 469.65,-91.23"/>
</g>
<!-- Node11&#45;&gt;Node6 -->
<g id="edge11" class="edge">
<title>Node11&#45;&gt;Node6</title>
<path fill="none" stroke="midnightblue" d="M583.5,-98.53C612.98,-107.45 657.19,-120.82 689.42,-130.57"/>
<polygon fill="midnightblue" stroke="midnightblue" points="688.43,-133.93 699.01,-133.47 690.46,-127.23 688.43,-133.93"/>
</g>
<!-- Node13 -->
<g id="node13" class="node">
<title>Node13</title>
<g id="a_node13"><a xlink:href="class_k___w_h_i_t_e_l_i_s_t.html#a0002133cb46ec30f7f0044eecc5c58a9" target="_top" xlink:title="Check if whitelist contains provided string.">
<polygon fill="none" stroke="black" points="482,-38.5 482,-57.5 620,-57.5 620,-38.5 482,-38.5"/>
<text text-anchor="middle" x="551" y="-45.5" font-family="Helvetica,sans-Serif" font-size="10.00">K_WHITELIST::IsInWhitelist</text>
</a>
</g>
</g>
<!-- Node12&#45;&gt;Node13 -->
<g id="edge13" class="edge">
<title>Node12&#45;&gt;Node13</title>
<path fill="none" stroke="midnightblue" d="M443.07,-48C452.59,-48 462.28,-48 471.74,-48"/>
<polygon fill="midnightblue" stroke="midnightblue" points="471.9,-51.5 481.9,-48 471.9,-44.5 471.9,-51.5"/>
</g>
<!-- Node14 -->
<g id="node14" class="node">
<title>Node14</title>
<g id="a_node14"><a xlink:href="class_k___u_t_i_l_i_t_a_i_r_e.html#aadb9afab0bf42478750a9332ff264f77" target="_top" xlink:title="Remake of PathCchRemoveFileSpec available in kernel&#45;mode.">
<polygon fill="none" stroke="black" points="659,-33 659,-63 804,-63 804,-33 659,-33"/>
<text text-anchor="start" x="667" y="-51" font-family="Helvetica,sans-Serif" font-size="10.00">K_UTILITAIRE::MyNtPathCch</text>
<text text-anchor="middle" x="731.5" y="-40" font-family="Helvetica,sans-Serif" font-size="10.00">RemoveFileSpec</text>
</a>
</g>
</g>
<!-- Node13&#45;&gt;Node14 -->
<g id="edge14" class="edge">
<title>Node13&#45;&gt;Node14</title>
<path fill="none" stroke="midnightblue" d="M620.25,-48C629.5,-48 639.07,-48 648.53,-48"/>
<polygon fill="midnightblue" stroke="midnightblue" points="648.73,-51.5 658.73,-48 648.73,-44.5 648.73,-51.5"/>
</g>
</g>
</svg>
