<?xml version="1.0" encoding="UTF-8" standalone="no"?>
<!DOCTYPE svg PUBLIC "-//W3C//DTD SVG 1.1//EN"
 "http://www.w3.org/Graphics/SVG/1.1/DTD/svg11.dtd">
<!-- Generated by graphviz version 4.0.0 (20220529.0937)
 -->
<!-- Title: U_LOGS Pages: 1 -->
<svg width="115pt" height="193pt"
 viewBox="0.00 0.00 115.00 193.00" xmlns="http://www.w3.org/2000/svg" xmlns:xlink="http://www.w3.org/1999/xlink">
<g id="graph0" class="graph" transform="scale(1 1) rotate(0) translate(4 189)">
<title>U_LOGS</title>
<!-- Node1 -->
<g id="node1" class="node">
<title>Node1</title>
<g id="a_node1"><a xlink:title=" ">
<polygon fill="#bfbfbf" stroke="black" points="0,-0.5 0,-79.5 100,-79.5 100,-0.5 0,-0.5"/>
<text text-anchor="middle" x="50" y="-67.5" font-family="Helvetica,sans-Serif" font-size="10.00">U_LOGS</text>
<polyline fill="none" stroke="black" points="0,-60.5 100,-60.5 "/>
<text text-anchor="middle" x="50" y="-48.5" font-family="Helvetica,sans-Serif" font-size="10.00"> </text>
<polyline fill="none" stroke="black" points="0,-41.5 100,-41.5 "/>
<text text-anchor="start" x="8" y="-29.5" font-family="Helvetica,sans-Serif" font-size="10.00">+ Initialize()</text>
<text text-anchor="start" x="8" y="-18.5" font-family="Helvetica,sans-Serif" font-size="10.00">+ Unload()</text>
<text text-anchor="start" x="8" y="-7.5" font-family="Helvetica,sans-Serif" font-size="10.00">+ SvcReportEvent()</text>
</a>
</g>
</g>
<!-- Node2 -->
<g id="node2" class="node">
<title>Node2</title>
<g id="a_node2"><a xlink:title=" ">
<polygon fill="none" stroke="black" points="22,-127.5 22,-184.5 78,-184.5 78,-127.5 22,-127.5"/>
<text text-anchor="middle" x="50" y="-172.5" font-family="Helvetica,sans-Serif" font-size="10.00">HANDLE</text>
<polyline fill="none" stroke="black" points="22,-165.5 78,-165.5 "/>
<text text-anchor="middle" x="50" y="-153.5" font-family="Helvetica,sans-Serif" font-size="10.00"> </text>
<polyline fill="none" stroke="black" points="22,-146.5 78,-146.5 "/>
<text text-anchor="middle" x="50" y="-134.5" font-family="Helvetica,sans-Serif" font-size="10.00"> </text>
</a>
</g>
</g>
<!-- Node2&#45;&gt;Node1 -->
<g id="edge1" class="edge">
<title>Node2&#45;&gt;Node1</title>
<path fill="none" stroke="#404040" d="M50,-127.4C50,-116.63 50,-103.93 50,-91.62"/>
<polygon fill="none" stroke="#404040" points="50,-91.54 46,-85.54 50,-79.54 54,-85.54 50,-91.54"/>
<text text-anchor="middle" x="78.5" y="-101" font-family="Helvetica,sans-Serif" font-size="10.00"> &#45;_hEventLog</text>
</g>
</g>
</svg>
