<?xml version="1.0" encoding="UTF-8" standalone="no"?>
<!DOCTYPE svg PUBLIC "-//W3C//DTD SVG 1.1//EN"
 "http://www.w3.org/Graphics/SVG/1.1/DTD/svg11.dtd">
<!-- Generated by graphviz version 4.0.0 (20220529.0937)
 -->
<!-- Title: U_COMMUNICATION::ListenerThread Pages: 1 -->
<svg width="1116pt" height="302pt"
 viewBox="0.00 0.00 1116.00 301.50" xmlns="http://www.w3.org/2000/svg" xmlns:xlink="http://www.w3.org/1999/xlink">
<g id="graph0" class="graph" transform="scale(1 1) rotate(0) translate(4 297.5)">
<title>U_COMMUNICATION::ListenerThread</title>
<!-- Node1 -->
<g id="node1" class="node">
<title>Node1</title>
<g id="a_node1"><a xlink:title="Thread listening message sends from kernel driver.">
<polygon fill="#bfbfbf" stroke="black" points="0,-79 0,-109 151,-109 151,-79 0,-79"/>
<text text-anchor="start" x="8" y="-97" font-family="Helvetica,sans-Serif" font-size="10.00">U_COMMUNICATION::Listener</text>
<text text-anchor="middle" x="75.5" y="-86" font-family="Helvetica,sans-Serif" font-size="10.00">Thread</text>
</a>
</g>
</g>
<!-- Node2 -->
<g id="node2" class="node">
<title>Node2</title>
<g id="a_node2"><a xlink:href="class_u___c_o_m_m_u_n_i_c_a_t_i_o_n.html#a3c8d63d47d80de606ed12566e913e2c2" target="_top" xlink:title="Creation of a thread pool used to create worker thread to check file signature.">
<polygon fill="none" stroke="black" points="188.5,-175 188.5,-205 338.5,-205 338.5,-175 188.5,-175"/>
<text text-anchor="start" x="196.5" y="-193" font-family="Helvetica,sans-Serif" font-size="10.00">U_COMMUNICATION::_Create</text>
<text text-anchor="middle" x="263.5" y="-182" font-family="Helvetica,sans-Serif" font-size="10.00">ThreadPool</text>
</a>
</g>
</g>
<!-- Node1&#45;&gt;Node2 -->
<g id="edge1" class="edge">
<title>Node1&#45;&gt;Node2</title>
<path fill="none" stroke="midnightblue" d="M96.3,-109.27C117.7,-125.2 153.27,-150.01 187,-166 191.02,-167.91 195.24,-169.72 199.53,-171.42"/>
<polygon fill="midnightblue" stroke="midnightblue" points="198.41,-174.74 209,-174.98 200.87,-168.19 198.41,-174.74"/>
</g>
<!-- Node3 -->
<g id="node3" class="node">
<title>Node3</title>
<g id="a_node3"><a xlink:href="class_u___c_o_m_m_u_n_i_c_a_t_i_o_n.html#a87d0f531204d9141da9e181c20a18c59" target="_top" xlink:title="Worker thread used to check file signature.">
<polygon fill="none" stroke="black" points="187,-126 187,-156 340,-156 340,-126 187,-126"/>
<text text-anchor="start" x="195" y="-144" font-family="Helvetica,sans-Serif" font-size="10.00">U_COMMUNICATION::_Worker</text>
<text text-anchor="middle" x="263.5" y="-133" font-family="Helvetica,sans-Serif" font-size="10.00">Thread</text>
</a>
</g>
</g>
<!-- Node1&#45;&gt;Node3 -->
<g id="edge2" class="edge">
<title>Node1&#45;&gt;Node3</title>
<path fill="none" stroke="midnightblue" d="M135.86,-109C154.15,-113.62 174.44,-118.75 193.33,-123.52"/>
<polygon fill="midnightblue" stroke="midnightblue" points="192.51,-126.92 203.06,-125.98 194.23,-120.14 192.51,-126.92"/>
</g>
<!-- Node5 -->
<g id="node5" class="node">
<title>Node5</title>
<g id="a_node5"><a xlink:href="class_u___u_t_i_l_i_t_a_i_r_e.html#ad0b0328deb4197e357bb5d74c3173775" target="_top" xlink:title="This routine will display an error message based off of the Win32 error code that is passed in.">
<polygon fill="none" stroke="black" points="599,-153.5 599,-172.5 736,-172.5 736,-153.5 599,-153.5"/>
<text text-anchor="middle" x="667.5" y="-160.5" font-family="Helvetica,sans-Serif" font-size="10.00">U_UTILITAIRE::DisplayError</text>
</a>
</g>
</g>
<!-- Node1&#45;&gt;Node5 -->
<g id="edge12" class="edge">
<title>Node1&#45;&gt;Node5</title>
<path fill="none" stroke="midnightblue" d="M123.12,-78.96C212.2,-52.88 411.22,-7.44 563,-67 603.08,-82.73 636.89,-122.08 654.16,-145.22"/>
<polygon fill="midnightblue" stroke="midnightblue" points="651.45,-147.44 660.14,-153.49 657.12,-143.34 651.45,-147.44"/>
</g>
<!-- Node12 -->
<g id="node12" class="node">
<title>Node12</title>
<g id="a_node12"><a xlink:href="class_u___l_o_g_s.html#a0f2932b79fce103453dd1cfc60de2007" target="_top" xlink:title="Send the reported event in the Event Viewer (Application &#45;&gt; PI&#45;Defender_UM).">
<polygon fill="none" stroke="black" points="198.5,-0.5 198.5,-19.5 328.5,-19.5 328.5,-0.5 198.5,-0.5"/>
<text text-anchor="middle" x="263.5" y="-7.5" font-family="Helvetica,sans-Serif" font-size="10.00">U_LOGS::SvcReportEvent</text>
</a>
</g>
</g>
<!-- Node1&#45;&gt;Node12 -->
<g id="edge13" class="edge">
<title>Node1&#45;&gt;Node12</title>
<path fill="none" stroke="midnightblue" d="M101.28,-78.78C123.24,-65.72 156.47,-47 187,-34 196.88,-29.79 207.75,-25.92 218.09,-22.57"/>
<polygon fill="midnightblue" stroke="midnightblue" points="219.31,-25.86 227.8,-19.52 217.21,-19.18 219.31,-25.86"/>
</g>
<!-- Node4 -->
<g id="node4" class="node">
<title>Node4</title>
<g id="a_node4"><a xlink:href="class_u___c_o_m_m_u_n_i_c_a_t_i_o_n.html#a6f2f0c62b6e4f1270d5c95c6e6521ee3" target="_top" xlink:title="Push a new message in the queue.">
<polygon fill="none" stroke="black" points="376,-263 376,-293 563,-293 563,-263 376,-263"/>
<text text-anchor="start" x="384" y="-281" font-family="Helvetica,sans-Serif" font-size="10.00">U_COMMUNICATION::_PumpMessage</text>
<text text-anchor="middle" x="469.5" y="-270" font-family="Helvetica,sans-Serif" font-size="10.00">InQueue</text>
</a>
</g>
</g>
<!-- Node3&#45;&gt;Node4 -->
<g id="edge3" class="edge">
<title>Node3&#45;&gt;Node4</title>
<path fill="none" stroke="midnightblue" d="M326.04,-156.12C331.1,-158.88 335.85,-162.14 340,-166 370.64,-194.5 344.57,-225.37 376,-253 377.78,-254.56 379.64,-256.03 381.58,-257.4"/>
<polygon fill="midnightblue" stroke="midnightblue" points="380.14,-260.62 390.49,-262.87 383.8,-254.66 380.14,-260.62"/>
</g>
<!-- Node8 -->
<g id="node8" class="node">
<title>Node8</title>
<g id="a_node8"><a xlink:href="class_u___c_o_m_m_u_n_i_c_a_t_i_o_n.html#ac7267746e2596819493bbf7fca1d4520" target="_top" xlink:title="Reply to the kernel driver.">
<polygon fill="none" stroke="black" points="396.5,-224.5 396.5,-243.5 542.5,-243.5 542.5,-224.5 396.5,-224.5"/>
<text text-anchor="middle" x="469.5" y="-231.5" font-family="Helvetica,sans-Serif" font-size="10.00">U_COMMUNICATION::_Reply</text>
</a>
</g>
</g>
<!-- Node3&#45;&gt;Node8 -->
<g id="edge8" class="edge">
<title>Node3&#45;&gt;Node8</title>
<path fill="none" stroke="midnightblue" d="M322.8,-156.15C328.88,-158.93 334.75,-162.18 340,-166 361.86,-181.89 353.25,-200.42 376,-215 379.4,-217.18 383,-219.11 386.73,-220.83"/>
<polygon fill="midnightblue" stroke="midnightblue" points="385.65,-224.17 396.23,-224.67 388.27,-217.68 385.65,-224.17"/>
</g>
<!-- Node9 -->
<g id="node9" class="node">
<title>Node9</title>
<g id="a_node9"><a xlink:href="class_u___u_t_i_l_i_t_a_i_r_e.html#adc2b6bd88871b96833fab5b34fb94d23" target="_top" xlink:title="Get the handle to a file by providing it&#39;s name.">
<polygon fill="none" stroke="black" points="393.5,-175 393.5,-205 545.5,-205 545.5,-175 393.5,-175"/>
<text text-anchor="start" x="401.5" y="-193" font-family="Helvetica,sans-Serif" font-size="10.00">U_UTILITAIRE::GetHandleFrom</text>
<text text-anchor="middle" x="469.5" y="-182" font-family="Helvetica,sans-Serif" font-size="10.00">FileName</text>
</a>
</g>
</g>
<!-- Node3&#45;&gt;Node9 -->
<g id="edge9" class="edge">
<title>Node3&#45;&gt;Node9</title>
<path fill="none" stroke="midnightblue" d="M327.09,-156.03C348.93,-161.28 373.61,-167.21 396.17,-172.63"/>
<polygon fill="midnightblue" stroke="midnightblue" points="395.48,-176.06 406.03,-174.99 397.12,-169.26 395.48,-176.06"/>
</g>
<!-- Node10 -->
<g id="node10" class="node">
<title>Node10</title>
<g id="a_node10"><a xlink:href="class_u___s_i_g_n_a_t_u_r_e.html#a4a2b43ca305cb41a3eab3b76d60cb6db" target="_top" xlink:title="Verify the signature of &#39;szFile&#39; by looking at catalogs files.">
<polygon fill="none" stroke="black" points="395.5,-126 395.5,-156 543.5,-156 543.5,-126 395.5,-126"/>
<text text-anchor="start" x="403.5" y="-144" font-family="Helvetica,sans-Serif" font-size="10.00">U_SIGNATURE::VerifyCatalog</text>
<text text-anchor="middle" x="469.5" y="-133" font-family="Helvetica,sans-Serif" font-size="10.00">Signature</text>
</a>
</g>
</g>
<!-- Node3&#45;&gt;Node10 -->
<g id="edge10" class="edge">
<title>Node3&#45;&gt;Node10</title>
<path fill="none" stroke="midnightblue" d="M340.17,-141C354.82,-141 370.25,-141 385.13,-141"/>
<polygon fill="midnightblue" stroke="midnightblue" points="385.32,-144.5 395.32,-141 385.32,-137.5 385.32,-144.5"/>
</g>
<!-- Node11 -->
<g id="node11" class="node">
<title>Node11</title>
<g id="a_node11"><a xlink:href="class_u___s_i_g_n_a_t_u_r_e.html#a08a76b9f115ae35af11c805c8a58ebb0" target="_top" xlink:title="Check if the file &quot;szFile&quot; is signed by a trusted authority.">
<polygon fill="none" stroke="black" points="389,-77 389,-107 550,-107 550,-77 389,-77"/>
<text text-anchor="start" x="397" y="-95" font-family="Helvetica,sans-Serif" font-size="10.00">U_SIGNATURE::VerifyEmbedded</text>
<text text-anchor="middle" x="469.5" y="-84" font-family="Helvetica,sans-Serif" font-size="10.00">Signature</text>
</a>
</g>
</g>
<!-- Node3&#45;&gt;Node11 -->
<g id="edge11" class="edge">
<title>Node3&#45;&gt;Node11</title>
<path fill="none" stroke="midnightblue" d="M327.09,-125.97C348.93,-120.72 373.61,-114.79 396.17,-109.37"/>
<polygon fill="midnightblue" stroke="midnightblue" points="397.12,-112.74 406.03,-107.01 395.48,-105.94 397.12,-112.74"/>
</g>
<!-- Node4&#45;&gt;Node5 -->
<g id="edge4" class="edge">
<title>Node4&#45;&gt;Node5</title>
<path fill="none" stroke="midnightblue" d="M540.02,-262.92C547.98,-260.12 555.81,-256.84 563,-253 598.64,-234 632.49,-200.66 651.28,-180.33"/>
<polygon fill="midnightblue" stroke="midnightblue" points="654.03,-182.5 658.15,-172.74 648.84,-177.81 654.03,-182.5"/>
</g>
<!-- Node6 -->
<g id="node6" class="node">
<title>Node6</title>
<g id="a_node6"><a xlink:href="class_u___u_t_i_l_i_t_a_i_r_e.html#aa177d472a3d1e5f03fdb24d9181ab9a9" target="_top" xlink:title="Popup error message displaying the function that failed associated with the error code.">
<polygon fill="none" stroke="black" points="772,-172.5 772,-191.5 928,-191.5 928,-172.5 772,-172.5"/>
<text text-anchor="middle" x="850" y="-179.5" font-family="Helvetica,sans-Serif" font-size="10.00">U_UTILITAIRE::DisplayMessage</text>
</a>
</g>
</g>
<!-- Node5&#45;&gt;Node6 -->
<g id="edge5" class="edge">
<title>Node5&#45;&gt;Node6</title>
<path fill="none" stroke="midnightblue" d="M736.23,-170.13C744.57,-171.01 753.18,-171.91 761.76,-172.82"/>
<polygon fill="midnightblue" stroke="midnightblue" points="761.48,-176.31 771.79,-173.87 762.21,-169.35 761.48,-176.31"/>
</g>
<!-- Node7 -->
<g id="node7" class="node">
<title>Node7</title>
<g id="a_node7"><a xlink:href="class_u___u_t_i_l_i_t_a_i_r_e.html#a20839968820f2161ef19972f7316a141" target="_top" xlink:title="Print error message in the terminal.">
<polygon fill="none" stroke="black" points="964,-153.5 964,-172.5 1108,-172.5 1108,-153.5 964,-153.5"/>
<text text-anchor="middle" x="1036" y="-160.5" font-family="Helvetica,sans-Serif" font-size="10.00">U_UTILITAIRE::PrintMessage</text>
</a>
</g>
</g>
<!-- Node5&#45;&gt;Node7 -->
<g id="edge7" class="edge">
<title>Node5&#45;&gt;Node7</title>
<path fill="none" stroke="midnightblue" d="M736.15,-163C797.6,-163 888.36,-163 953.73,-163"/>
<polygon fill="midnightblue" stroke="midnightblue" points="953.99,-166.5 963.99,-163 953.99,-159.5 953.99,-166.5"/>
</g>
<!-- Node6&#45;&gt;Node7 -->
<g id="edge6" class="edge">
<title>Node6&#45;&gt;Node7</title>
<path fill="none" stroke="midnightblue" d="M928.23,-174.02C936.62,-173.16 945.18,-172.27 953.62,-171.4"/>
<polygon fill="midnightblue" stroke="midnightblue" points="954.24,-174.86 963.83,-170.35 953.53,-167.89 954.24,-174.86"/>
</g>
</g>
</svg>
