<?xml version="1.0" encoding="UTF-8" standalone="no"?>
<!DOCTYPE svg PUBLIC "-//W3C//DTD SVG 1.1//EN"
 "http://www.w3.org/Graphics/SVG/1.1/DTD/svg11.dtd">
<!-- Generated by graphviz version 4.0.0 (20220529.0937)
 -->
<!-- Title: K_CONFIGURATION::AddToCache Pages: 1 -->
<svg width="482pt" height="28pt"
 viewBox="0.00 0.00 482.00 28.00" xmlns="http://www.w3.org/2000/svg" xmlns:xlink="http://www.w3.org/1999/xlink">
<g id="graph0" class="graph" transform="scale(1 1) rotate(0) translate(4 24)">
<title>K_CONFIGURATION::AddToCache</title>
<!-- Node1 -->
<g id="node1" class="node">
<title>Node1</title>
<g id="a_node1"><a xlink:title=" ">
<polygon fill="#bfbfbf" stroke="black" points="0,-0.5 0,-19.5 169,-19.5 169,-0.5 0,-0.5"/>
<text text-anchor="middle" x="84.5" y="-7.5" font-family="Helvetica,sans-Serif" font-size="10.00">K_CONFIGURATION::AddToCache</text>
</a>
</g>
</g>
<!-- Node2 -->
<g id="node2" class="node">
<title>Node2</title>
<g id="a_node2"><a xlink:href="class_k___c_a_c_h_e.html#a785a988fa6c22e5a7626afe75bd447e3" target="_top" xlink:title="Add a Hash in the Cache and remember if it is signed or not.">
<polygon fill="none" stroke="black" points="205,-0.5 205,-19.5 291,-19.5 291,-0.5 205,-0.5"/>
<text text-anchor="middle" x="248" y="-7.5" font-family="Helvetica,sans-Serif" font-size="10.00">K_CACHE::Add</text>
</a>
</g>
</g>
<!-- Node1&#45;&gt;Node2 -->
<g id="edge1" class="edge">
<title>Node1&#45;&gt;Node2</title>
<path fill="none" stroke="midnightblue" d="M169.09,-10C177.75,-10 186.36,-10 194.54,-10"/>
<polygon fill="midnightblue" stroke="midnightblue" points="194.62,-13.5 204.62,-10 194.62,-6.5 194.62,-13.5"/>
</g>
<!-- Node3 -->
<g id="node3" class="node">
<title>Node3</title>
<g id="a_node3"><a xlink:href="class_k___c_a_c_h_e.html#a2a803e7f4af2e18b582ccc4f2b9f747a" target="_top" xlink:title="Set &quot;pbIsOk&quot; to TRUE if cache contains specified Hash, FALSE otherwise.">
<polygon fill="none" stroke="black" points="327,-0.5 327,-19.5 474,-19.5 474,-0.5 327,-0.5"/>
<text text-anchor="middle" x="400.5" y="-7.5" font-family="Helvetica,sans-Serif" font-size="10.00">K_CACHE::_GetCachedValue</text>
</a>
</g>
</g>
<!-- Node2&#45;&gt;Node3 -->
<g id="edge2" class="edge">
<title>Node2&#45;&gt;Node3</title>
<path fill="none" stroke="midnightblue" d="M291.32,-10C299.26,-10 307.8,-10 316.49,-10"/>
<polygon fill="midnightblue" stroke="midnightblue" points="316.72,-13.5 326.72,-10 316.72,-6.5 316.72,-13.5"/>
</g>
</g>
</svg>
