<?xml version="1.0" encoding="UTF-8" standalone="no"?>
<!DOCTYPE svg PUBLIC "-//W3C//DTD SVG 1.1//EN"
 "http://www.w3.org/Graphics/SVG/1.1/DTD/svg11.dtd">
<!-- Generated by graphviz version 4.0.0 (20220529.0937)
 -->
<!-- Title: U_REGISTRY::WriteStringInRegistry Pages: 1 -->
<svg width="696pt" height="127pt"
 viewBox="0.00 0.00 696.00 127.00" xmlns="http://www.w3.org/2000/svg" xmlns:xlink="http://www.w3.org/1999/xlink">
<g id="graph0" class="graph" transform="scale(1 1) rotate(0) translate(4 123)">
<title>U_REGISTRY::WriteStringInRegistry</title>
<!-- Node1 -->
<g id="node1" class="node">
<title>Node1</title>
<g id="a_node1"><a xlink:title="Write STRING in the registry key &quot;szSubKey&quot; located in the HIVE &quot;hKeyParent&quot;.">
<polygon fill="#bfbfbf" stroke="black" points="548,-44.5 548,-74.5 688,-74.5 688,-44.5 548,-44.5"/>
<text text-anchor="start" x="556" y="-62.5" font-family="Helvetica,sans-Serif" font-size="10.00">U_REGISTRY::WriteStringIn</text>
<text text-anchor="middle" x="618" y="-51.5" font-family="Helvetica,sans-Serif" font-size="10.00">Registry</text>
</a>
</g>
</g>
<!-- Node2 -->
<g id="node2" class="node">
<title>Node2</title>
<g id="a_node2"><a xlink:href="class_u___c_o_n_f_i_g_u_r_a_t_i_o_n.html#ac15b37425890a19a5de6664a2f5b2320" target="_top" xlink:title="Create all the registry keys needed for ETW Logs.">
<polygon fill="none" stroke="black" points="360.5,-88.5 360.5,-118.5 507.5,-118.5 507.5,-88.5 360.5,-88.5"/>
<text text-anchor="start" x="368.5" y="-106.5" font-family="Helvetica,sans-Serif" font-size="10.00">U_CONFIGURATION::_Create</text>
<text text-anchor="middle" x="434" y="-95.5" font-family="Helvetica,sans-Serif" font-size="10.00">RegistryForLogs</text>
</a>
</g>
</g>
<!-- Node1&#45;&gt;Node2 -->
<g id="edge1" class="edge">
<title>Node1&#45;&gt;Node2</title>
<path fill="none" stroke="midnightblue" d="M545.12,-76.88C529.26,-80.71 512.59,-84.74 497.15,-88.47"/>
<polygon fill="midnightblue" stroke="midnightblue" points="545.98,-80.27 554.87,-74.52 544.33,-73.47 545.98,-80.27"/>
</g>
<!-- Node6 -->
<g id="node6" class="node">
<title>Node6</title>
<g id="a_node6"><a xlink:href="class_u___c_o_n_t_r_o_l_l_e_r.html#a81c82381327f2e86e44e97bd330f2796" target="_top" xlink:title="Install the service &quot;szServiceName&quot;.">
<polygon fill="none" stroke="black" points="356,-50 356,-69 512,-69 512,-50 356,-50"/>
<text text-anchor="middle" x="434" y="-57" font-family="Helvetica,sans-Serif" font-size="10.00">U_CONTROLLER::InstallService</text>
</a>
</g>
</g>
<!-- Node1&#45;&gt;Node6 -->
<g id="edge5" class="edge">
<title>Node1&#45;&gt;Node6</title>
<path fill="none" stroke="midnightblue" d="M537.71,-59.5C529.26,-59.5 520.67,-59.5 512.24,-59.5"/>
<polygon fill="midnightblue" stroke="midnightblue" points="537.93,-63 547.93,-59.5 537.93,-56 537.93,-63"/>
</g>
<!-- Node7 -->
<g id="node7" class="node">
<title>Node7</title>
<g id="a_node7"><a xlink:href="class_u___c_o_n_f_i_g_u_r_a_t_i_o_n.html#a17aa0c6d783b391a5b324d26c562ac15" target="_top" xlink:title="Create registry keys needed for the driver configuration.">
<polygon fill="none" stroke="black" points="164,-0.5 164,-30.5 316,-30.5 316,-0.5 164,-0.5"/>
<text text-anchor="start" x="172" y="-18.5" font-family="Helvetica,sans-Serif" font-size="10.00">U_CONFIGURATION::SetDriver</text>
<text text-anchor="middle" x="240" y="-7.5" font-family="Helvetica,sans-Serif" font-size="10.00">Configuration</text>
</a>
</g>
</g>
<!-- Node1&#45;&gt;Node7 -->
<g id="edge7" class="edge">
<title>Node1&#45;&gt;Node7</title>
<path fill="none" stroke="midnightblue" d="M538.08,-44.46C529.3,-43.01 520.47,-41.65 512,-40.5 446.11,-31.52 370.75,-24.85 316.26,-20.68"/>
<polygon fill="midnightblue" stroke="midnightblue" points="537.5,-47.91 547.95,-46.12 538.67,-41.01 537.5,-47.91"/>
</g>
<!-- Node3 -->
<g id="node3" class="node">
<title>Node3</title>
<g id="a_node3"><a xlink:href="class_u___c_o_n_f_i_g_u_r_a_t_i_o_n.html#adf54f299b42ec1596e92f49cb640d3ba" target="_top" xlink:title="Create registry keys needed for the service configuration.">
<polygon fill="none" stroke="black" points="160,-88.5 160,-118.5 320,-118.5 320,-88.5 160,-88.5"/>
<text text-anchor="start" x="168" y="-106.5" font-family="Helvetica,sans-Serif" font-size="10.00">U_CONFIGURATION::SetService</text>
<text text-anchor="middle" x="240" y="-95.5" font-family="Helvetica,sans-Serif" font-size="10.00">Configuration</text>
</a>
</g>
</g>
<!-- Node2&#45;&gt;Node3 -->
<g id="edge2" class="edge">
<title>Node2&#45;&gt;Node3</title>
<path fill="none" stroke="midnightblue" d="M350.12,-103.5C340.16,-103.5 330.01,-103.5 320.11,-103.5"/>
<polygon fill="midnightblue" stroke="midnightblue" points="350.41,-107 360.41,-103.5 350.41,-100 350.41,-107"/>
</g>
<!-- Node4 -->
<g id="node4" class="node">
<title>Node4</title>
<g id="a_node4"><a xlink:href="_u___service_8cpp.html#ab5c4ad56c0967c7aa59e84c28c445bc6" target="_top" xlink:title="Wrap the installation of the service.">
<polygon fill="none" stroke="black" points="82,-50 82,-69 124,-69 124,-50 82,-50"/>
<text text-anchor="middle" x="103" y="-57" font-family="Helvetica,sans-Serif" font-size="10.00">Install</text>
</a>
</g>
</g>
<!-- Node3&#45;&gt;Node4 -->
<g id="edge3" class="edge">
<title>Node3&#45;&gt;Node4</title>
<path fill="none" stroke="midnightblue" d="M183.15,-85.3C162.28,-78.49 139.87,-71.19 124.25,-66.1"/>
<polygon fill="midnightblue" stroke="midnightblue" points="182.33,-88.71 192.92,-88.48 184.5,-82.05 182.33,-88.71"/>
</g>
<!-- Node5 -->
<g id="node5" class="node">
<title>Node5</title>
<g id="a_node5"><a xlink:href="_u___service_8cpp.html#a3e9716f0248a5a48598490cd4920cbee" target="_top" xlink:title="Entrypoint of the user space executable.">
<polygon fill="none" stroke="black" points="0,-50 0,-69 46,-69 46,-50 0,-50"/>
<text text-anchor="middle" x="23" y="-57" font-family="Helvetica,sans-Serif" font-size="10.00">_tmain</text>
</a>
</g>
</g>
<!-- Node4&#45;&gt;Node5 -->
<g id="edge4" class="edge">
<title>Node4&#45;&gt;Node5</title>
<path fill="none" stroke="midnightblue" d="M71.9,-59.5C63.36,-59.5 54.21,-59.5 46.22,-59.5"/>
<polygon fill="midnightblue" stroke="midnightblue" points="71.91,-63 81.91,-59.5 71.91,-56 71.91,-63"/>
</g>
<!-- Node6&#45;&gt;Node4 -->
<g id="edge6" class="edge">
<title>Node6&#45;&gt;Node4</title>
<path fill="none" stroke="midnightblue" d="M345.45,-59.5C270.28,-59.5 167.43,-59.5 124.32,-59.5"/>
<polygon fill="midnightblue" stroke="midnightblue" points="345.86,-63 355.86,-59.5 345.86,-56 345.86,-63"/>
</g>
<!-- Node7&#45;&gt;Node4 -->
<g id="edge8" class="edge">
<title>Node7&#45;&gt;Node4</title>
<path fill="none" stroke="midnightblue" d="M183.15,-33.7C162.28,-40.51 139.87,-47.81 124.25,-52.9"/>
<polygon fill="midnightblue" stroke="midnightblue" points="184.5,-36.95 192.92,-30.52 182.33,-30.29 184.5,-36.95"/>
</g>
</g>
</svg>
