<?xml version="1.0" encoding="UTF-8" standalone="no"?>
<!DOCTYPE svg PUBLIC "-//W3C//DTD SVG 1.1//EN"
 "http://www.w3.org/Graphics/SVG/1.1/DTD/svg11.dtd">
<!-- Generated by graphviz version 4.0.0 (20220529.0937)
 -->
<!-- Title: K_CONFIGURATION::IsInWhitelist Pages: 1 -->
<svg width="550pt" height="28pt"
 viewBox="0.00 0.00 550.00 28.00" xmlns="http://www.w3.org/2000/svg" xmlns:xlink="http://www.w3.org/1999/xlink">
<g id="graph0" class="graph" transform="scale(1 1) rotate(0) translate(4 24)">
<title>K_CONFIGURATION::IsInWhitelist</title>
<!-- Node1 -->
<g id="node1" class="node">
<title>Node1</title>
<g id="a_node1"><a xlink:title=" ">
<polygon fill="#bfbfbf" stroke="black" points="375,-0.5 375,-19.5 542,-19.5 542,-0.5 375,-0.5"/>
<text text-anchor="middle" x="458.5" y="-7.5" font-family="Helvetica,sans-Serif" font-size="10.00">K_CONFIGURATION::IsInWhitelist</text>
</a>
</g>
</g>
<!-- Node2 -->
<g id="node2" class="node">
<title>Node2</title>
<g id="a_node2"><a xlink:href="class_k___o_b.html#a6b236f7c3b792f31133c3428966a2921" target="_top" xlink:title="We get notify when a process want a handle.">
<polygon fill="none" stroke="black" points="220,-0.5 220,-19.5 339,-19.5 339,-0.5 220,-0.5"/>
<text text-anchor="middle" x="279.5" y="-7.5" font-family="Helvetica,sans-Serif" font-size="10.00">K_OB::_PreObCallback</text>
</a>
</g>
</g>
<!-- Node1&#45;&gt;Node2 -->
<g id="edge1" class="edge">
<title>Node1&#45;&gt;Node2</title>
<path fill="none" stroke="midnightblue" d="M364.75,-10C356.07,-10 347.43,-10 339.19,-10"/>
<polygon fill="midnightblue" stroke="midnightblue" points="364.96,-13.5 374.96,-10 364.96,-6.5 364.96,-13.5"/>
</g>
<!-- Node3 -->
<g id="node3" class="node">
<title>Node3</title>
<g id="a_node3"><a xlink:href="class_k___o_b.html#a21fe4100571040a8d156fa0f045168ea" target="_top" xlink:title="Register the ObCallback routine.">
<polygon fill="none" stroke="black" points="100,-0.5 100,-19.5 184,-19.5 184,-0.5 100,-0.5"/>
<text text-anchor="middle" x="142" y="-7.5" font-family="Helvetica,sans-Serif" font-size="10.00">K_OB::Initialize</text>
</a>
</g>
</g>
<!-- Node2&#45;&gt;Node3 -->
<g id="edge2" class="edge">
<title>Node2&#45;&gt;Node3</title>
<path fill="none" stroke="midnightblue" d="M209.66,-10C200.95,-10 192.27,-10 184.19,-10"/>
<polygon fill="midnightblue" stroke="midnightblue" points="209.86,-13.5 219.86,-10 209.86,-6.5 209.86,-13.5"/>
</g>
<!-- Node4 -->
<g id="node4" class="node">
<title>Node4</title>
<g id="a_node4"><a xlink:href="_k___driver_8cpp.html#abd482ac5174a4365b1fa1c26e463c60d" target="_top" xlink:title="Main Driver Entry Routine.">
<polygon fill="none" stroke="black" points="0,-0.5 0,-19.5 64,-19.5 64,-0.5 0,-0.5"/>
<text text-anchor="middle" x="32" y="-7.5" font-family="Helvetica,sans-Serif" font-size="10.00">DriverEntry</text>
</a>
</g>
</g>
<!-- Node3&#45;&gt;Node4 -->
<g id="edge3" class="edge">
<title>Node3&#45;&gt;Node4</title>
<path fill="none" stroke="midnightblue" d="M89.75,-10C81.05,-10 72.26,-10 64.28,-10"/>
<polygon fill="midnightblue" stroke="midnightblue" points="89.86,-13.5 99.86,-10 89.86,-6.5 89.86,-13.5"/>
</g>
</g>
</svg>
