<?xml version="1.0" encoding="UTF-8" standalone="no"?>
<!DOCTYPE svg PUBLIC "-//W3C//DTD SVG 1.1//EN"
 "http://www.w3.org/Graphics/SVG/1.1/DTD/svg11.dtd">
<!-- Generated by graphviz version 4.0.0 (20220529.0937)
 -->
<!-- Title: U_LOGS::SvcReportEvent Pages: 1 -->
<!--zoomable 485 -->
<svg id="main" version="1.1" xmlns="http://www.w3.org/2000/svg" xmlns:xlink="http://www.w3.org/1999/xlink" xml:space="preserve" onload="init(evt)">
<style type="text/css"><![CDATA[
.edge:hover path { stroke: red; }
.edge:hover polygon { stroke: red; fill: red; }
]]></style>
<script type="text/javascript"><![CDATA[
var edges = document.getElementsByTagName('g');
if (edges && edges.length) {
  for (var i=0;i<edges.length;i++) {
    if (edges[i].id.substr(0,4)=='edge') {
      edges[i].setAttribute('class','edge');
    }
  }
}
]]></script>
        <defs>
                <circle id="rim" cx="0" cy="0" r="7"/>
                <circle id="rim2" cx="0" cy="0" r="3.5"/>
                <g id="zoomPlus">
                        <use xlink:href="#rim" fill="#404040">
                                <set attributeName="fill" to="#808080" begin="zoomplus.mouseover" end="zoomplus.mouseout"/>
                        </use>
                        <path d="M-4,0h8M0,-4v8" fill="none" stroke="white" stroke-width="1.5" pointer-events="none"/>
                </g>
                <g id="zoomMin">
                        <use xlink:href="#rim" fill="#404040">
                                <set attributeName="fill" to="#808080" begin="zoomminus.mouseover" end="zoomminus.mouseout"/>
                        </use>
                        <path d="M-4,0h8" fill="none" stroke="white" stroke-width="1.5" pointer-events="none"/>
                </g>
                <g id="dirArrow">
                        <path fill="none" stroke="white" stroke-width="1.5" d="M0,-3.0v7 M-2.5,-0.5L0,-3.0L2.5,-0.5"/>
                </g>
               <g id="resetDef">
                       <use xlink:href="#rim2" fill="#404040">
                               <set attributeName="fill" to="#808080" begin="reset.mouseover" end="reset.mouseout"/>
                       </use>
               </g>
        </defs>

<script type="text/javascript">
var viewWidth = 1091;
var viewHeight = 485;
var sectionId = 'dynsection-2';
</script>
<script xlink:href="svgpan.js"/>
<svg id="graph" class="graph">
<g id="viewport">
<title>U_LOGS::SvcReportEvent</title>
<!-- Node1 -->
<g id="node1" class="node">
<title>Node1</title>
<g id="a_node1"><a xlink:title="Send the reported event in the Event Viewer (Application &#45;&gt; PI&#45;Defender_UM).">
<polygon fill="#bfbfbf" stroke="black" points="953,-233 953,-252 1083,-252 1083,-233 953,-233"/>
<text text-anchor="middle" x="1018" y="-240" font-family="Helvetica,sans-Serif" font-size="10.00">U_LOGS::SvcReportEvent</text>
</a>
</g>
</g>
<!-- Node2 -->
<g id="node2" class="node">
<title>Node2</title>
<g id="a_node2"><a xlink:href="class_u___c_o_n_f_i_g_u_r_a_t_i_o_n.html#ac15b37425890a19a5de6664a2f5b2320" target="_top" xlink:title="Create all the registry keys needed for ETW Logs.">
<polygon fill="none" stroke="black" points="356,-388.5 356,-418.5 503,-418.5 503,-388.5 356,-388.5"/>
<text text-anchor="start" x="364" y="-406.5" font-family="Helvetica,sans-Serif" font-size="10.00">U_CONFIGURATION::_Create</text>
<text text-anchor="middle" x="429.5" y="-395.5" font-family="Helvetica,sans-Serif" font-size="10.00">RegistryForLogs</text>
</a>
</g>
</g>
<!-- Node1&#45;&gt;Node2 -->
<g id="edge1" class="edge">
<title>Node1&#45;&gt;Node2</title>
<path fill="none" stroke="midnightblue" d="M1013.51,-262.47C1005.17,-303.24 979.93,-395.41 917,-433.5 770.4,-522.22 551.32,-451.81 466.15,-418.51"/>
<polygon fill="midnightblue" stroke="midnightblue" points="1016.99,-262.9 1015.42,-252.42 1010.11,-261.59 1016.99,-262.9"/>
</g>
<!-- Node4 -->
<g id="node4" class="node">
<title>Node4</title>
<g id="a_node4"><a xlink:href="_u___service_8cpp.html#ab5c4ad56c0967c7aa59e84c28c445bc6" target="_top" xlink:title="Wrap the installation of the service.">
<polygon fill="none" stroke="black" points="82,-309 82,-328 124,-328 124,-309 82,-309"/>
<text text-anchor="middle" x="103" y="-316" font-family="Helvetica,sans-Serif" font-size="10.00">Install</text>
</a>
</g>
</g>
<!-- Node1&#45;&gt;Node4 -->
<g id="edge19" class="edge">
<title>Node1&#45;&gt;Node4</title>
<path fill="none" stroke="midnightblue" d="M968.39,-254.31C895.3,-271.01 752.57,-299.5 629.5,-299.5 629.5,-299.5 629.5,-299.5 428.5,-299.5 313.09,-299.5 175,-311.62 124.1,-316.5"/>
<polygon fill="midnightblue" stroke="midnightblue" points="969.27,-257.7 978.23,-252.04 967.7,-250.88 969.27,-257.7"/>
</g>
<!-- Node6 -->
<g id="node6" class="node">
<title>Node6</title>
<g id="a_node6"><a xlink:href="class_u___c_o_m_m_u_n_i_c_a_t_i_o_n.html#a8f3d16e06161196da0043bfe31f636eb" target="_top" xlink:title="Connection to the driver.">
<polygon fill="none" stroke="black" points="759.5,-176 759.5,-195 911.5,-195 911.5,-176 759.5,-176"/>
<text text-anchor="middle" x="835.5" y="-183" font-family="Helvetica,sans-Serif" font-size="10.00">U_COMMUNICATION::Connect</text>
</a>
</g>
</g>
<!-- Node1&#45;&gt;Node6 -->
<g id="edge5" class="edge">
<title>Node1&#45;&gt;Node6</title>
<path fill="none" stroke="midnightblue" d="M979.01,-229.68C960.37,-223.46 937.55,-215.95 917,-209.5 901.42,-204.61 884.06,-199.4 869.47,-195.09"/>
<polygon fill="midnightblue" stroke="midnightblue" points="978.03,-233.04 988.62,-232.89 980.25,-226.4 978.03,-233.04"/>
</g>
<!-- Node7 -->
<g id="node7" class="node">
<title>Node7</title>
<g id="a_node7"><a xlink:href="_u___service_8cpp.html#a2ef7fa664545ef1bfd08460f37d2140a" target="_top" xlink:title="Entrypoint and core of the user space service.">
<polygon fill="none" stroke="black" points="602,-176 602,-195 655,-195 655,-176 602,-176"/>
<text text-anchor="middle" x="628.5" y="-183" font-family="Helvetica,sans-Serif" font-size="10.00">SvcMain</text>
</a>
</g>
</g>
<!-- Node1&#45;&gt;Node7 -->
<g id="edge27" class="edge">
<title>Node1&#45;&gt;Node7</title>
<path fill="none" stroke="midnightblue" d="M943,-231.97C890.29,-224.43 817.77,-213.97 754,-204.5 719.83,-199.42 680.41,-193.38 655.24,-189.49"/>
<polygon fill="midnightblue" stroke="midnightblue" points="942.54,-235.44 952.94,-233.39 943.53,-228.51 942.54,-235.44"/>
</g>
<!-- Node8 -->
<g id="node8" class="node">
<title>Node8</title>
<g id="a_node8"><a xlink:href="_u___service_8cpp.html#afa2e3daf278842db7a49d41ebebc8519" target="_top" xlink:title="Wrap the call to the service entrypoint.">
<polygon fill="none" stroke="black" points="405.5,-214 405.5,-233 453.5,-233 453.5,-214 405.5,-214"/>
<text text-anchor="middle" x="429.5" y="-221" font-family="Helvetica,sans-Serif" font-size="10.00">Service</text>
</a>
</g>
</g>
<!-- Node1&#45;&gt;Node8 -->
<g id="edge24" class="edge">
<title>Node1&#45;&gt;Node8</title>
<path fill="none" stroke="midnightblue" d="M942.69,-240.09C809.12,-235.77 534.79,-226.88 453.62,-224.25"/>
<polygon fill="midnightblue" stroke="midnightblue" points="942.73,-243.6 952.84,-240.42 942.96,-236.6 942.73,-243.6"/>
</g>
<!-- Node9 -->
<g id="node9" class="node">
<title>Node9</title>
<g id="a_node9"><a xlink:href="class_u___c_o_m_m_u_n_i_c_a_t_i_o_n.html#a6deffcdba8e0b72ee1a4da15b9f8597c" target="_top" xlink:title="Creation of threads listening to message sends from kernel driver.">
<polygon fill="none" stroke="black" points="539,-66.5 539,-96.5 718,-96.5 718,-66.5 539,-66.5"/>
<text text-anchor="start" x="547" y="-84.5" font-family="Helvetica,sans-Serif" font-size="10.00">U_COMMUNICATION::CreateListener</text>
<text text-anchor="middle" x="628.5" y="-73.5" font-family="Helvetica,sans-Serif" font-size="10.00">Thread</text>
</a>
</g>
</g>
<!-- Node1&#45;&gt;Node9 -->
<g id="edge9" class="edge">
<title>Node1&#45;&gt;Node9</title>
<path fill="none" stroke="midnightblue" d="M1011.86,-222.82C1001.2,-186.52 972.87,-109.87 917,-78.5 843.33,-37.14 741.41,-51.78 680.79,-66.45"/>
<polygon fill="midnightblue" stroke="midnightblue" points="1008.56,-224.01 1014.62,-232.7 1015.3,-222.13 1008.56,-224.01"/>
</g>
<!-- Node10 -->
<g id="node10" class="node">
<title>Node10</title>
<g id="a_node10"><a xlink:href="class_u___c_o_n_f_i_g_u_r_a_t_i_o_n.html#a0dc19a661a499390a39c084c0526c11d" target="_top" xlink:title="Delete all the registry keys needed for ETW Logs.">
<polygon fill="none" stroke="black" points="754.5,-0.5 754.5,-30.5 916.5,-30.5 916.5,-0.5 754.5,-0.5"/>
<text text-anchor="start" x="762.5" y="-18.5" font-family="Helvetica,sans-Serif" font-size="10.00">U_CONFIGURATION::DeleteLogs</text>
<text text-anchor="middle" x="835.5" y="-7.5" font-family="Helvetica,sans-Serif" font-size="10.00">Registry</text>
</a>
</g>
</g>
<!-- Node1&#45;&gt;Node10 -->
<g id="edge10" class="edge">
<title>Node1&#45;&gt;Node10</title>
<path fill="none" stroke="midnightblue" d="M1012.21,-222.88C1001.66,-183.72 972.84,-95.36 917,-45.5 910.21,-39.44 902.09,-34.57 893.65,-30.65"/>
<polygon fill="midnightblue" stroke="midnightblue" points="1008.87,-223.94 1014.75,-232.75 1015.64,-222.19 1008.87,-223.94"/>
</g>
<!-- Node12 -->
<g id="node12" class="node">
<title>Node12</title>
<g id="a_node12"><a xlink:href="class_u___u_t_i_l_i_t_a_i_r_e.html#a96db4752f1f9917f495d28c520320c88" target="_top" xlink:title="Get the current folder of the binary responsible for the launch of the service.">
<polygon fill="none" stroke="black" points="770,-366.5 770,-396.5 901,-396.5 901,-366.5 770,-366.5"/>
<text text-anchor="start" x="778" y="-384.5" font-family="Helvetica,sans-Serif" font-size="10.00">U_UTILITAIRE::GetCurrent</text>
<text text-anchor="middle" x="835.5" y="-373.5" font-family="Helvetica,sans-Serif" font-size="10.00">Folder</text>
</a>
</g>
</g>
<!-- Node1&#45;&gt;Node12 -->
<g id="edge13" class="edge">
<title>Node1&#45;&gt;Node12</title>
<path fill="none" stroke="midnightblue" d="M1004.7,-260.52C987.58,-284.36 954.42,-326.3 917,-351.5 908.22,-357.41 898.11,-362.36 888.1,-366.41"/>
<polygon fill="midnightblue" stroke="midnightblue" points="1007.75,-262.25 1010.64,-252.06 1002.03,-258.23 1007.75,-262.25"/>
</g>
<!-- Node13 -->
<g id="node13" class="node">
<title>Node13</title>
<g id="a_node13"><a xlink:href="class_u___u_t_i_l_i_t_a_i_r_e.html#a13ad12137e1edc6873eeac1b4848194e" target="_top" xlink:title="Get the full DOS Path of the message DLL associated with the binary.">
<polygon fill="none" stroke="black" points="555,-394 555,-413 702,-413 702,-394 555,-394"/>
<text text-anchor="middle" x="628.5" y="-401" font-family="Helvetica,sans-Serif" font-size="10.00">U_UTILITAIRE::GetDllFullPath</text>
</a>
</g>
</g>
<!-- Node1&#45;&gt;Node13 -->
<g id="edge18" class="edge">
<title>Node1&#45;&gt;Node13</title>
<path fill="none" stroke="midnightblue" d="M1011.86,-262.18C1001.2,-298.48 972.87,-375.13 917,-406.5 833.87,-453.18 714.75,-428.53 659.61,-413.01"/>
<polygon fill="midnightblue" stroke="midnightblue" points="1015.3,-262.87 1014.62,-252.3 1008.56,-260.99 1015.3,-262.87"/>
</g>
<!-- Node14 -->
<g id="node14" class="node">
<title>Node14</title>
<g id="a_node14"><a xlink:href="class_u___c_o_n_t_r_o_l_l_e_r.html#a81c82381327f2e86e44e97bd330f2796" target="_top" xlink:title="Install the service &quot;szServiceName&quot;.">
<polygon fill="none" stroke="black" points="550.5,-328 550.5,-347 706.5,-347 706.5,-328 550.5,-328"/>
<text text-anchor="middle" x="628.5" y="-335" font-family="Helvetica,sans-Serif" font-size="10.00">U_CONTROLLER::InstallService</text>
</a>
</g>
</g>
<!-- Node1&#45;&gt;Node14 -->
<g id="edge20" class="edge">
<title>Node1&#45;&gt;Node14</title>
<path fill="none" stroke="midnightblue" d="M999.87,-259.12C981.18,-276.09 949.58,-301.6 917,-313.5 848.9,-338.38 765.9,-342.8 706.61,-341.94"/>
<polygon fill="midnightblue" stroke="midnightblue" points="1002.34,-261.59 1007.27,-252.22 997.57,-256.47 1002.34,-261.59"/>
</g>
<!-- Node15 -->
<g id="node15" class="node">
<title>Node15</title>
<g id="a_node15"><a xlink:href="class_u___c_o_m_m_u_n_i_c_a_t_i_o_n.html#a1cbfbcf7e7e895608457abf405455e6a" target="_top" xlink:title="Thread listening message sends from kernel driver.">
<polygon fill="none" stroke="black" points="760,-88.5 760,-118.5 911,-118.5 911,-88.5 760,-88.5"/>
<text text-anchor="start" x="768" y="-106.5" font-family="Helvetica,sans-Serif" font-size="10.00">U_COMMUNICATION::Listener</text>
<text text-anchor="middle" x="835.5" y="-95.5" font-family="Helvetica,sans-Serif" font-size="10.00">Thread</text>
</a>
</g>
</g>
<!-- Node1&#45;&gt;Node15 -->
<g id="edge21" class="edge">
<title>Node1&#45;&gt;Node15</title>
<path fill="none" stroke="midnightblue" d="M1005.82,-224.41C989.38,-199.28 956.35,-154.05 917,-128.5 911.11,-124.67 904.6,-121.4 897.9,-118.62"/>
<polygon fill="midnightblue" stroke="midnightblue" points="1002.95,-226.42 1011.28,-232.97 1008.85,-222.65 1002.95,-226.42"/>
</g>
<!-- Node16 -->
<g id="node16" class="node">
<title>Node16</title>
<g id="a_node16"><a xlink:href="class_u___c_o_n_t_r_o_l_l_e_r.html#a62de7b3a08b00dde2a3de3fa50ed52ea" target="_top" xlink:title="Receive signal send by the User / SC Manager, handle it, update service status.">
<polygon fill="none" stroke="black" points="754,-138 754,-157 917,-157 917,-138 754,-138"/>
<text text-anchor="middle" x="835.5" y="-145" font-family="Helvetica,sans-Serif" font-size="10.00">U_CONTROLLER::SvcCtrlHandler</text>
</a>
</g>
</g>
<!-- Node1&#45;&gt;Node16 -->
<g id="edge25" class="edge">
<title>Node1&#45;&gt;Node16</title>
<path fill="none" stroke="midnightblue" d="M999.99,-225.95C981.2,-208.58 949.3,-181.74 917,-166.5 908.82,-162.64 899.79,-159.53 890.82,-157.03"/>
<polygon fill="midnightblue" stroke="midnightblue" points="997.75,-228.65 1007.43,-232.96 1002.56,-223.56 997.75,-228.65"/>
</g>
<!-- Node3 -->
<g id="node3" class="node">
<title>Node3</title>
<g id="a_node3"><a xlink:href="class_u___c_o_n_f_i_g_u_r_a_t_i_o_n.html#adf54f299b42ec1596e92f49cb640d3ba" target="_top" xlink:title="Create registry keys needed for the service configuration.">
<polygon fill="none" stroke="black" points="160,-377.5 160,-407.5 320,-407.5 320,-377.5 160,-377.5"/>
<text text-anchor="start" x="168" y="-395.5" font-family="Helvetica,sans-Serif" font-size="10.00">U_CONFIGURATION::SetService</text>
<text text-anchor="middle" x="240" y="-384.5" font-family="Helvetica,sans-Serif" font-size="10.00">Configuration</text>
</a>
</g>
</g>
<!-- Node2&#45;&gt;Node3 -->
<g id="edge2" class="edge">
<title>Node2&#45;&gt;Node3</title>
<path fill="none" stroke="midnightblue" d="M345.56,-398.63C337.15,-398.14 328.62,-397.64 320.25,-397.15"/>
<polygon fill="midnightblue" stroke="midnightblue" points="345.55,-402.14 355.74,-399.23 345.96,-395.15 345.55,-402.14"/>
</g>
<!-- Node3&#45;&gt;Node4 -->
<g id="edge3" class="edge">
<title>Node3&#45;&gt;Node4</title>
<path fill="none" stroke="midnightblue" d="M200.11,-372.84C187.26,-366.21 172.95,-358.67 160,-351.5 146.38,-343.96 131.17,-334.96 120.04,-328.26"/>
<polygon fill="midnightblue" stroke="midnightblue" points="198.67,-376.04 209.16,-377.49 201.87,-369.81 198.67,-376.04"/>
</g>
<!-- Node5 -->
<g id="node5" class="node">
<title>Node5</title>
<g id="a_node5"><a xlink:href="_u___service_8cpp.html#a3e9716f0248a5a48598490cd4920cbee" target="_top" xlink:title="Entrypoint of the user space executable.">
<polygon fill="none" stroke="black" points="0,-214 0,-233 46,-233 46,-214 0,-214"/>
<text text-anchor="middle" x="23" y="-221" font-family="Helvetica,sans-Serif" font-size="10.00">_tmain</text>
</a>
</g>
</g>
<!-- Node4&#45;&gt;Node5 -->
<g id="edge4" class="edge">
<title>Node4&#45;&gt;Node5</title>
<path fill="none" stroke="midnightblue" d="M87.58,-300.93C71.16,-280.94 44.93,-249 31.89,-233.11"/>
<polygon fill="midnightblue" stroke="midnightblue" points="84.9,-303.18 93.95,-308.69 90.31,-298.74 84.9,-303.18"/>
</g>
<!-- Node6&#45;&gt;Node7 -->
<g id="edge6" class="edge">
<title>Node6&#45;&gt;Node7</title>
<path fill="none" stroke="midnightblue" d="M748.93,-185.5C715.1,-185.5 678.75,-185.5 655.15,-185.5"/>
<polygon fill="midnightblue" stroke="midnightblue" points="749.33,-189 759.33,-185.5 749.33,-182 749.33,-189"/>
</g>
<!-- Node7&#45;&gt;Node8 -->
<g id="edge7" class="edge">
<title>Node7&#45;&gt;Node8</title>
<path fill="none" stroke="midnightblue" d="M591.83,-192.38C551.66,-200.13 487.56,-212.49 453.51,-219.06"/>
<polygon fill="midnightblue" stroke="midnightblue" points="592.59,-195.8 601.75,-190.47 591.26,-188.93 592.59,-195.8"/>
</g>
<!-- Node8&#45;&gt;Node5 -->
<g id="edge8" class="edge">
<title>Node8&#45;&gt;Node5</title>
<path fill="none" stroke="midnightblue" d="M395.28,-223.5C315.21,-223.5 113.28,-223.5 46.11,-223.5"/>
<polygon fill="midnightblue" stroke="midnightblue" points="395.3,-227 405.3,-223.5 395.3,-220 395.3,-227"/>
</g>
<!-- Node11 -->
<g id="node11" class="node">
<title>Node11</title>
<g id="a_node11"><a xlink:href="_u___service_8cpp.html#a1d7c8f0ec682b654c05c04ba5fcb6e12" target="_top" xlink:title="Wrap the deletion of the driver and the service.">
<polygon fill="none" stroke="black" points="218,-94 218,-113 262,-113 262,-94 218,-94"/>
<text text-anchor="middle" x="240" y="-101" font-family="Helvetica,sans-Serif" font-size="10.00">Delete</text>
</a>
</g>
</g>
<!-- Node10&#45;&gt;Node11 -->
<g id="edge11" class="edge">
<title>Node10&#45;&gt;Node11</title>
<path fill="none" stroke="midnightblue" d="M744.52,-27.54C685.94,-35.49 607.89,-46.29 539,-56.5 435.12,-71.9 311.16,-92.01 262.3,-100"/>
<polygon fill="midnightblue" stroke="midnightblue" points="745.05,-31 754.49,-26.19 744.11,-24.07 745.05,-31"/>
</g>
<!-- Node11&#45;&gt;Node5 -->
<g id="edge12" class="edge">
<title>Node11&#45;&gt;Node5</title>
<path fill="none" stroke="midnightblue" d="M213,-118.01C168.51,-142.84 78.97,-192.82 41.31,-213.84"/>
<polygon fill="midnightblue" stroke="midnightblue" points="214.74,-121.05 221.77,-113.12 211.33,-114.93 214.74,-121.05"/>
</g>
<!-- Node12&#45;&gt;Node13 -->
<g id="edge14" class="edge">
<title>Node12&#45;&gt;Node13</title>
<path fill="none" stroke="midnightblue" d="M759.94,-389.5C741.16,-391.52 721.02,-393.68 702.32,-395.69"/>
<polygon fill="midnightblue" stroke="midnightblue" points="760.35,-392.98 769.92,-388.43 759.6,-386.02 760.35,-392.98"/>
</g>
<!-- Node12&#45;&gt;Node14 -->
<g id="edge16" class="edge">
<title>Node12&#45;&gt;Node14</title>
<path fill="none" stroke="midnightblue" d="M759.87,-365.48C731.06,-359.3 699.06,-352.43 673.98,-347.05"/>
<polygon fill="midnightblue" stroke="midnightblue" points="759.41,-368.96 769.92,-367.64 760.88,-362.12 759.41,-368.96"/>
</g>
<!-- Node13&#45;&gt;Node2 -->
<g id="edge15" class="edge">
<title>Node13&#45;&gt;Node2</title>
<path fill="none" stroke="midnightblue" d="M544.97,-403.5C531.1,-403.5 516.79,-403.5 503.19,-403.5"/>
<polygon fill="midnightblue" stroke="midnightblue" points="544.98,-407 554.98,-403.5 544.98,-400 544.98,-407"/>
</g>
<!-- Node14&#45;&gt;Node4 -->
<g id="edge17" class="edge">
<title>Node14&#45;&gt;Node4</title>
<path fill="none" stroke="midnightblue" d="M539.93,-334.32C414.76,-329.78 192.25,-321.7 124.28,-319.24"/>
<polygon fill="midnightblue" stroke="midnightblue" points="540.14,-337.83 550.26,-334.7 540.39,-330.84 540.14,-337.83"/>
</g>
<!-- Node15&#45;&gt;Node7 -->
<g id="edge23" class="edge">
<title>Node15&#45;&gt;Node7</title>
<path fill="none" stroke="midnightblue" d="M773.13,-121.66C766.63,-123.85 760.15,-126.15 754,-128.5 715.81,-143.1 672.74,-163.81 648.58,-175.83"/>
<polygon fill="midnightblue" stroke="midnightblue" points="774.23,-124.98 782.63,-118.53 772.04,-118.33 774.23,-124.98"/>
</g>
<!-- Node15&#45;&gt;Node9 -->
<g id="edge22" class="edge">
<title>Node15&#45;&gt;Node9</title>
<path fill="none" stroke="midnightblue" d="M749.66,-94.4C739.32,-93.29 728.73,-92.15 718.32,-91.03"/>
<polygon fill="midnightblue" stroke="midnightblue" points="749.59,-97.91 759.91,-95.5 750.34,-90.95 749.59,-97.91"/>
</g>
<!-- Node16&#45;&gt;Node7 -->
<g id="edge26" class="edge">
<title>Node16&#45;&gt;Node7</title>
<path fill="none" stroke="midnightblue" d="M772.97,-158.9C733.53,-166.22 684.4,-175.32 655.07,-180.76"/>
<polygon fill="midnightblue" stroke="midnightblue" points="773.84,-162.3 783.03,-157.04 772.56,-155.42 773.84,-162.3"/>
</g>
</g>
</svg>
        <g id="navigator" transform="translate(0 0)" fill="#404254">
                <rect fill="#f2f5e9" fill-opacity="0.5" stroke="#606060" stroke-width=".5" x="0" y="0" width="60" height="60"/>
                <use id="zoomplus" xlink:href="#zoomPlus" x="17" y="9" onmousedown="handleZoom(evt,'in')"/>
                <use id="zoomminus" xlink:href="#zoomMin" x="42" y="9" onmousedown="handleZoom(evt,'out')"/>
                <use id="reset" xlink:href="#resetDef" x="30" y="36" onmousedown="handleReset()"/>
                <g id="arrowUp" xlink:href="#dirArrow" transform="translate(30 24)" onmousedown="handlePan(0,-1)">
                  <use xlink:href="#rim" fill="#404040">
                        <set attributeName="fill" to="#808080" begin="arrowUp.mouseover" end="arrowUp.mouseout"/>
                  </use>
                  <path fill="none" stroke="white" stroke-width="1.5" d="M0,-3.0v7 M-2.5,-0.5L0,-3.0L2.5,-0.5"/>
                </g>
                <g id="arrowRight" xlink:href="#dirArrow" transform="rotate(90) translate(36 -43)" onmousedown="handlePan(1,0)">
                  <use xlink:href="#rim" fill="#404040">
                        <set attributeName="fill" to="#808080" begin="arrowRight.mouseover" end="arrowRight.mouseout"/>
                  </use>
                  <path fill="none" stroke="white" stroke-width="1.5" d="M0,-3.0v7 M-2.5,-0.5L0,-3.0L2.5,-0.5"/>
                </g>
                <g id="arrowDown" xlink:href="#dirArrow" transform="rotate(180) translate(-30 -48)" onmousedown="handlePan(0,1)">
                  <use xlink:href="#rim" fill="#404040">
                        <set attributeName="fill" to="#808080" begin="arrowDown.mouseover" end="arrowDown.mouseout"/>
                  </use>
                  <path fill="none" stroke="white" stroke-width="1.5" d="M0,-3.0v7 M-2.5,-0.5L0,-3.0L2.5,-0.5"/>
                </g>
                <g id="arrowLeft" xlink:href="#dirArrow" transform="rotate(270) translate(-36 17)" onmousedown="handlePan(-1,0)">
                  <use xlink:href="#rim" fill="#404040">
                        <set attributeName="fill" to="#808080" begin="arrowLeft.mouseover" end="arrowLeft.mouseout"/>
                  </use>
                  <path fill="none" stroke="white" stroke-width="1.5" d="M0,-3.0v7 M-2.5,-0.5L0,-3.0L2.5,-0.5"/>
                </g>
        </g>
        <svg viewBox="0 0 15 15" width="100%" height="30px" preserveAspectRatio="xMaxYMin meet">
         <g id="arrow_out" transform="scale(0.3 0.3)">
          <a xlink:href="class_u___l_o_g_s_a0f2932b79fce103453dd1cfc60de2007_icgraph_org.svg" target="_base">
           <rect id="button" ry="5" rx="5" y="6" x="6" height="38" width="38"
                fill="#f2f5e9" fill-opacity="0.5" stroke="#606060" stroke-width="1.0"/>
           <path id="arrow"
             d="M 11.500037,31.436501 C 11.940474,20.09759 22.043105,11.32322 32.158766,21.979434 L 37.068811,17.246167 C 37.068811,17.246167 37.088388,32 37.088388,32 L 22.160133,31.978069 C 22.160133,31.978069 26.997745,27.140456 26.997745,27.140456 C 18.528582,18.264221 13.291696,25.230495 11.500037,31.436501 z"
             style="fill:#404040;"/>
          </a>
         </g>
        </svg>
</svg>
