<?xml version="1.0" encoding="UTF-8" standalone="no"?>
<!DOCTYPE svg PUBLIC "-//W3C//DTD SVG 1.1//EN"
 "http://www.w3.org/Graphics/SVG/1.1/DTD/svg11.dtd">
<!-- Generated by graphviz version 4.0.0 (20220529.0937)
 -->
<!-- Title: U_COMMUNICATION::_PumpMessageInQueue Pages: 1 -->
<svg width="740pt" height="53pt"
 viewBox="0.00 0.00 740.00 52.50" xmlns="http://www.w3.org/2000/svg" xmlns:xlink="http://www.w3.org/1999/xlink">
<g id="graph0" class="graph" transform="scale(1 1) rotate(0) translate(4 48.5)">
<title>U_COMMUNICATION::_PumpMessageInQueue</title>
<!-- Node1 -->
<g id="node1" class="node">
<title>Node1</title>
<g id="a_node1"><a xlink:title="Push a new message in the queue.">
<polygon fill="#bfbfbf" stroke="black" points="0,-0.5 0,-30.5 187,-30.5 187,-0.5 0,-0.5"/>
<text text-anchor="start" x="8" y="-18.5" font-family="Helvetica,sans-Serif" font-size="10.00">U_COMMUNICATION::_PumpMessage</text>
<text text-anchor="middle" x="93.5" y="-7.5" font-family="Helvetica,sans-Serif" font-size="10.00">InQueue</text>
</a>
</g>
</g>
<!-- Node2 -->
<g id="node2" class="node">
<title>Node2</title>
<g id="a_node2"><a xlink:href="class_u___u_t_i_l_i_t_a_i_r_e.html#ad0b0328deb4197e357bb5d74c3173775" target="_top" xlink:title="This routine will display an error message based off of the Win32 error code that is passed in.">
<polygon fill="none" stroke="black" points="223,-6 223,-25 360,-25 360,-6 223,-6"/>
<text text-anchor="middle" x="291.5" y="-13" font-family="Helvetica,sans-Serif" font-size="10.00">U_UTILITAIRE::DisplayError</text>
</a>
</g>
</g>
<!-- Node1&#45;&gt;Node2 -->
<g id="edge1" class="edge">
<title>Node1&#45;&gt;Node2</title>
<path fill="none" stroke="midnightblue" d="M187.05,-15.5C195.64,-15.5 204.3,-15.5 212.74,-15.5"/>
<polygon fill="midnightblue" stroke="midnightblue" points="212.92,-19 222.92,-15.5 212.92,-12 212.92,-19"/>
</g>
<!-- Node3 -->
<g id="node3" class="node">
<title>Node3</title>
<g id="a_node3"><a xlink:href="class_u___u_t_i_l_i_t_a_i_r_e.html#aa177d472a3d1e5f03fdb24d9181ab9a9" target="_top" xlink:title="Popup error message displaying the function that failed associated with the error code.">
<polygon fill="none" stroke="black" points="396,-25 396,-44 552,-44 552,-25 396,-25"/>
<text text-anchor="middle" x="474" y="-32" font-family="Helvetica,sans-Serif" font-size="10.00">U_UTILITAIRE::DisplayMessage</text>
</a>
</g>
</g>
<!-- Node2&#45;&gt;Node3 -->
<g id="edge2" class="edge">
<title>Node2&#45;&gt;Node3</title>
<path fill="none" stroke="midnightblue" d="M360.23,-22.63C368.57,-23.51 377.18,-24.41 385.76,-25.32"/>
<polygon fill="midnightblue" stroke="midnightblue" points="385.48,-28.81 395.79,-26.37 386.21,-21.85 385.48,-28.81"/>
</g>
<!-- Node4 -->
<g id="node4" class="node">
<title>Node4</title>
<g id="a_node4"><a xlink:href="class_u___u_t_i_l_i_t_a_i_r_e.html#a20839968820f2161ef19972f7316a141" target="_top" xlink:title="Print error message in the terminal.">
<polygon fill="none" stroke="black" points="588,-6 588,-25 732,-25 732,-6 588,-6"/>
<text text-anchor="middle" x="660" y="-13" font-family="Helvetica,sans-Serif" font-size="10.00">U_UTILITAIRE::PrintMessage</text>
</a>
</g>
</g>
<!-- Node2&#45;&gt;Node4 -->
<g id="edge4" class="edge">
<title>Node2&#45;&gt;Node4</title>
<path fill="none" stroke="midnightblue" d="M360.15,-15.5C421.6,-15.5 512.36,-15.5 577.73,-15.5"/>
<polygon fill="midnightblue" stroke="midnightblue" points="577.99,-19 587.99,-15.5 577.99,-12 577.99,-19"/>
</g>
<!-- Node3&#45;&gt;Node4 -->
<g id="edge3" class="edge">
<title>Node3&#45;&gt;Node4</title>
<path fill="none" stroke="midnightblue" d="M552.23,-26.52C560.62,-25.66 569.18,-24.77 577.62,-23.9"/>
<polygon fill="midnightblue" stroke="midnightblue" points="578.24,-27.36 587.83,-22.85 577.53,-20.39 578.24,-27.36"/>
</g>
</g>
</svg>
