<?xml version="1.0" encoding="UTF-8" standalone="no"?>
<!DOCTYPE svg PUBLIC "-//W3C//DTD SVG 1.1//EN"
 "http://www.w3.org/Graphics/SVG/1.1/DTD/svg11.dtd">
<!-- Generated by graphviz version 4.0.0 (20220529.0937)
 -->
<!-- Title: K_WHITELIST::Unload Pages: 1 -->
<svg width="509pt" height="28pt"
 viewBox="0.00 0.00 509.00 28.00" xmlns="http://www.w3.org/2000/svg" xmlns:xlink="http://www.w3.org/1999/xlink">
<g id="graph0" class="graph" transform="scale(1 1) rotate(0) translate(4 24)">
<title>K_WHITELIST::Unload</title>
<!-- Node1 -->
<g id="node1" class="node">
<title>Node1</title>
<g id="a_node1"><a xlink:title="Free previously allocated memory.">
<polygon fill="#bfbfbf" stroke="black" points="386,-0.5 386,-19.5 501,-19.5 501,-0.5 386,-0.5"/>
<text text-anchor="middle" x="443.5" y="-7.5" font-family="Helvetica,sans-Serif" font-size="10.00">K_WHITELIST::Unload</text>
</a>
</g>
</g>
<!-- Node2 -->
<g id="node2" class="node">
<title>Node2</title>
<g id="a_node2"><a xlink:href="class_k___c_o_n_f_i_g_u_r_a_t_i_o_n.html#aea522a70a76fab44d00ff8600c7559ef" target="_top" xlink:title="Free previously allocated memory.">
<polygon fill="none" stroke="black" points="207,-0.5 207,-19.5 350,-19.5 350,-0.5 207,-0.5"/>
<text text-anchor="middle" x="278.5" y="-7.5" font-family="Helvetica,sans-Serif" font-size="10.00">K_CONFIGURATION::Unload</text>
</a>
</g>
</g>
<!-- Node1&#45;&gt;Node2 -->
<g id="edge1" class="edge">
<title>Node1&#45;&gt;Node2</title>
<path fill="none" stroke="midnightblue" d="M375.74,-10C367.26,-10 358.56,-10 350.03,-10"/>
<polygon fill="midnightblue" stroke="midnightblue" points="375.95,-13.5 385.95,-10 375.95,-6.5 375.95,-13.5"/>
</g>
<!-- Node3 -->
<g id="node3" class="node">
<title>Node3</title>
<g id="a_node3"><a xlink:href="_k___driver_8cpp.html#a551262cb86f3d855ff91a51b2448945f" target="_top" xlink:title="Driver Unloading Routine.">
<polygon fill="none" stroke="black" points="100,-0.5 100,-19.5 171,-19.5 171,-0.5 100,-0.5"/>
<text text-anchor="middle" x="135.5" y="-7.5" font-family="Helvetica,sans-Serif" font-size="10.00">DriverUnload</text>
</a>
</g>
</g>
<!-- Node2&#45;&gt;Node3 -->
<g id="edge2" class="edge">
<title>Node2&#45;&gt;Node3</title>
<path fill="none" stroke="midnightblue" d="M196.5,-10C187.62,-10 178.96,-10 171.12,-10"/>
<polygon fill="midnightblue" stroke="midnightblue" points="196.59,-13.5 206.59,-10 196.59,-6.5 196.59,-13.5"/>
</g>
<!-- Node4 -->
<g id="node4" class="node">
<title>Node4</title>
<g id="a_node4"><a xlink:href="_k___driver_8cpp.html#abd482ac5174a4365b1fa1c26e463c60d" target="_top" xlink:title="Main Driver Entry Routine.">
<polygon fill="none" stroke="black" points="0,-0.5 0,-19.5 64,-19.5 64,-0.5 0,-0.5"/>
<text text-anchor="middle" x="32" y="-7.5" font-family="Helvetica,sans-Serif" font-size="10.00">DriverEntry</text>
</a>
</g>
</g>
<!-- Node3&#45;&gt;Node4 -->
<g id="edge3" class="edge">
<title>Node3&#45;&gt;Node4</title>
<path fill="none" stroke="midnightblue" d="M89.83,-10C81.14,-10 72.22,-10 64.09,-10"/>
<polygon fill="midnightblue" stroke="midnightblue" points="89.85,-13.5 99.85,-10 89.85,-6.5 89.85,-13.5"/>
</g>
</g>
</svg>
