<?xml version="1.0" encoding="UTF-8" standalone="no"?>
<!DOCTYPE svg PUBLIC "-//W3C//DTD SVG 1.1//EN"
 "http://www.w3.org/Graphics/SVG/1.1/DTD/svg11.dtd">
<!-- Generated by graphviz version 4.0.0 (20220529.0937)
 -->
<!-- Title: U_COMMUNICATION::ListenerThread Pages: 1 -->
<svg width="540pt" height="78pt"
 viewBox="0.00 0.00 540.00 77.50" xmlns="http://www.w3.org/2000/svg" xmlns:xlink="http://www.w3.org/1999/xlink">
<g id="graph0" class="graph" transform="scale(1 1) rotate(0) translate(4 73.5)">
<title>U_COMMUNICATION::ListenerThread</title>
<!-- Node1 -->
<g id="node1" class="node">
<title>Node1</title>
<g id="a_node1"><a xlink:title="Thread listening message sends from kernel driver.">
<polygon fill="#bfbfbf" stroke="black" points="381,-17 381,-47 532,-47 532,-17 381,-17"/>
<text text-anchor="start" x="389" y="-35" font-family="Helvetica,sans-Serif" font-size="10.00">U_COMMUNICATION::Listener</text>
<text text-anchor="middle" x="456.5" y="-24" font-family="Helvetica,sans-Serif" font-size="10.00">Thread</text>
</a>
</g>
</g>
<!-- Node2 -->
<g id="node2" class="node">
<title>Node2</title>
<g id="a_node2"><a xlink:href="class_u___c_o_m_m_u_n_i_c_a_t_i_o_n.html#a6deffcdba8e0b72ee1a4da15b9f8597c" target="_top" xlink:title="Creation of threads listening to message sends from kernel driver.">
<polygon fill="none" stroke="black" points="166,-39 166,-69 345,-69 345,-39 166,-39"/>
<text text-anchor="start" x="174" y="-57" font-family="Helvetica,sans-Serif" font-size="10.00">U_COMMUNICATION::CreateListener</text>
<text text-anchor="middle" x="255.5" y="-46" font-family="Helvetica,sans-Serif" font-size="10.00">Thread</text>
</a>
</g>
</g>
<!-- Node1&#45;&gt;Node2 -->
<g id="edge1" class="edge">
<title>Node1&#45;&gt;Node2</title>
<path fill="none" stroke="midnightblue" d="M370.69,-41.38C362.3,-42.3 353.77,-43.25 345.34,-44.18"/>
<polygon fill="midnightblue" stroke="midnightblue" points="371.28,-44.83 380.83,-40.25 370.51,-37.87 371.28,-44.83"/>
</g>
<!-- Node3 -->
<g id="node3" class="node">
<title>Node3</title>
<g id="a_node3"><a xlink:href="_u___service_8cpp.html#a2ef7fa664545ef1bfd08460f37d2140a" target="_top" xlink:title="Entrypoint and core of the user space service.">
<polygon fill="none" stroke="black" points="229,-0.5 229,-19.5 282,-19.5 282,-0.5 229,-0.5"/>
<text text-anchor="middle" x="255.5" y="-7.5" font-family="Helvetica,sans-Serif" font-size="10.00">SvcMain</text>
</a>
</g>
</g>
<!-- Node1&#45;&gt;Node3 -->
<g id="edge2" class="edge">
<title>Node1&#45;&gt;Node3</title>
<path fill="none" stroke="midnightblue" d="M370.58,-22.61C338.74,-19.09 304.85,-15.35 282.36,-12.86"/>
<polygon fill="midnightblue" stroke="midnightblue" points="370.51,-26.13 380.83,-23.75 371.28,-19.17 370.51,-26.13"/>
</g>
<!-- Node4 -->
<g id="node4" class="node">
<title>Node4</title>
<g id="a_node4"><a xlink:href="_u___service_8cpp.html#afa2e3daf278842db7a49d41ebebc8519" target="_top" xlink:title="Wrap the call to the service entrypoint.">
<polygon fill="none" stroke="black" points="82,-0.5 82,-19.5 130,-19.5 130,-0.5 82,-0.5"/>
<text text-anchor="middle" x="106" y="-7.5" font-family="Helvetica,sans-Serif" font-size="10.00">Service</text>
</a>
</g>
</g>
<!-- Node3&#45;&gt;Node4 -->
<g id="edge3" class="edge">
<title>Node3&#45;&gt;Node4</title>
<path fill="none" stroke="midnightblue" d="M218.45,-10C191.04,-10 154.14,-10 130.45,-10"/>
<polygon fill="midnightblue" stroke="midnightblue" points="218.81,-13.5 228.81,-10 218.81,-6.5 218.81,-13.5"/>
</g>
<!-- Node5 -->
<g id="node5" class="node">
<title>Node5</title>
<g id="a_node5"><a xlink:href="_u___service_8cpp.html#a3e9716f0248a5a48598490cd4920cbee" target="_top" xlink:title="Entrypoint of the user space executable.">
<polygon fill="none" stroke="black" points="0,-0.5 0,-19.5 46,-19.5 46,-0.5 0,-0.5"/>
<text text-anchor="middle" x="23" y="-7.5" font-family="Helvetica,sans-Serif" font-size="10.00">_tmain</text>
</a>
</g>
</g>
<!-- Node4&#45;&gt;Node5 -->
<g id="edge4" class="edge">
<title>Node4&#45;&gt;Node5</title>
<path fill="none" stroke="midnightblue" d="M71.51,-10C63,-10 54.06,-10 46.26,-10"/>
<polygon fill="midnightblue" stroke="midnightblue" points="71.57,-13.5 81.57,-10 71.57,-6.5 71.57,-13.5"/>
</g>
</g>
</svg>
