<?xml version="1.0" encoding="UTF-8" standalone="no"?>
<!DOCTYPE svg PUBLIC "-//W3C//DTD SVG 1.1//EN"
 "http://www.w3.org/Graphics/SVG/1.1/DTD/svg11.dtd">
<!-- Generated by graphviz version 5.0.0 (20220707.1540)
 -->
<!-- Title: Graph Legend Pages: 1 -->
<svg width="507pt" height="159pt"
 viewBox="0.00 0.00 506.50 159.00" xmlns="http://www.w3.org/2000/svg" xmlns:xlink="http://www.w3.org/1999/xlink">
<g id="graph0" class="graph" transform="scale(1 1) rotate(0) translate(4 155)">
<title>Graph Legend</title>
<!-- Node9 -->
<g id="node1" class="node">
<title>Node9</title>
<polygon fill="#bfbfbf" stroke="black" points="290.5,-19 237.5,-19 237.5,0 290.5,0 290.5,-19"/>
<text text-anchor="middle" x="264" y="-7" font-family="Helvetica,sans-Serif" font-size="10.00">Inherited</text>
</g>
<!-- Node10 -->
<g id="node2" class="node">
<title>Node10</title>
<polygon fill="none" stroke="black" points="66,-85 0,-85 0,-66 66,-66 66,-85"/>
<text text-anchor="middle" x="33" y="-73" font-family="Helvetica,sans-Serif" font-size="10.00">PublicBase</text>
</g>
<!-- Node10&#45;&gt;Node9 -->
<g id="edge1" class="edge">
<title>Node10&#45;&gt;Node9</title>
<path fill="none" stroke="midnightblue" d="M74.04,-63.13C121.19,-50.07 197.19,-29.01 237.27,-17.9"/>
<polygon fill="midnightblue" stroke="midnightblue" points="72.86,-59.83 64.15,-65.87 74.73,-66.57 72.86,-59.83"/>
</g>
<!-- Node11 -->
<g id="node3" class="node">
<title>Node11</title>
<polygon fill="none" stroke="red" points="62.5,-151 3.5,-151 3.5,-132 62.5,-132 62.5,-151"/>
<text text-anchor="middle" x="33" y="-139" font-family="Helvetica,sans-Serif" font-size="10.00">Truncated</text>
</g>
<!-- Node11&#45;&gt;Node10 -->
<g id="edge2" class="edge">
<title>Node11&#45;&gt;Node10</title>
<path fill="none" stroke="midnightblue" d="M33,-121.58C33,-109.63 33,-94.72 33,-85.41"/>
<polygon fill="midnightblue" stroke="midnightblue" points="29.5,-121.87 33,-131.87 36.5,-121.87 29.5,-121.87"/>
</g>
<!-- Node13 -->
<g id="node4" class="node">
<title>Node13</title>
<polygon fill="none" stroke="black" points="165.5,-85 84.5,-85 84.5,-66 165.5,-66 165.5,-85"/>
<text text-anchor="middle" x="125" y="-73" font-family="Helvetica,sans-Serif" font-size="10.00">ProtectedBase</text>
</g>
<!-- Node13&#45;&gt;Node9 -->
<g id="edge3" class="edge">
<title>Node13&#45;&gt;Node9</title>
<path fill="none" stroke="darkgreen" d="M153.17,-61.53C180.57,-48.92 221.41,-30.11 245.11,-19.2"/>
<polygon fill="darkgreen" stroke="darkgreen" points="151.37,-58.51 143.75,-65.87 154.29,-64.87 151.37,-58.51"/>
</g>
<!-- Node14 -->
<g id="node5" class="node">
<title>Node14</title>
<polygon fill="none" stroke="black" points="252,-85 184,-85 184,-66 252,-66 252,-85"/>
<text text-anchor="middle" x="218" y="-73" font-family="Helvetica,sans-Serif" font-size="10.00">PrivateBase</text>
</g>
<!-- Node14&#45;&gt;Node9 -->
<g id="edge4" class="edge">
<title>Node14&#45;&gt;Node9</title>
<path fill="none" stroke="#8b1a1a" d="M230.28,-57.41C239.08,-45.18 250.56,-29.2 257.6,-19.41"/>
<polygon fill="#8b1a1a" stroke="#8b1a1a" points="227.2,-55.71 224.2,-65.87 232.88,-59.79 227.2,-55.71"/>
</g>
<!-- Node15 -->
<g id="node6" class="node">
<title>Node15</title>
<polygon fill="none" stroke="#bfbfbf" points="352,-85 270,-85 270,-66 352,-66 352,-85"/>
<text text-anchor="middle" x="311" y="-73" font-family="Helvetica,sans-Serif" font-size="10.00">Undocumented</text>
</g>
<!-- Node15&#45;&gt;Node9 -->
<g id="edge5" class="edge">
<title>Node15&#45;&gt;Node9</title>
<path fill="none" stroke="midnightblue" d="M298.71,-57.77C289.7,-45.49 277.8,-29.3 270.54,-19.41"/>
<polygon fill="midnightblue" stroke="midnightblue" points="295.92,-59.88 304.66,-65.87 301.56,-55.74 295.92,-59.88"/>
</g>
<!-- Node16 -->
<g id="node7" class="node">
<title>Node16</title>
<polygon fill="none" stroke="black" points="441.5,-85 370.5,-85 370.5,-66 441.5,-66 441.5,-85"/>
<text text-anchor="middle" x="406" y="-73" font-family="Helvetica,sans-Serif" font-size="10.00">Templ&lt; int &gt;</text>
</g>
<!-- Node16&#45;&gt;Node9 -->
<g id="edge6" class="edge">
<title>Node16&#45;&gt;Node9</title>
<path fill="none" stroke="midnightblue" d="M377.59,-61.69C349.6,-49.08 307.62,-30.16 283.3,-19.2"/>
<polygon fill="midnightblue" stroke="midnightblue" points="376.29,-64.95 386.85,-65.87 379.17,-58.57 376.29,-64.95"/>
</g>
<!-- Node17 -->
<g id="node8" class="node">
<title>Node17</title>
<polygon fill="none" stroke="black" points="439,-151 373,-151 373,-132 439,-132 439,-151"/>
<text text-anchor="middle" x="406" y="-139" font-family="Helvetica,sans-Serif" font-size="10.00">Templ&lt; T &gt;</text>
</g>
<!-- Node17&#45;&gt;Node16 -->
<g id="edge7" class="edge">
<title>Node17&#45;&gt;Node16</title>
<path fill="none" stroke="orange" stroke-dasharray="5,2" d="M406,-121.58C406,-109.63 406,-94.72 406,-85.41"/>
<polygon fill="orange" stroke="orange" points="402.5,-121.87 406,-131.87 409.5,-121.87 402.5,-121.87"/>
<text text-anchor="middle" x="420.5" y="-106" font-family="Helvetica,sans-Serif" font-size="10.00">&lt; int &gt;</text>
</g>
<!-- Node18 -->
<g id="node9" class="node">
<title>Node18</title>
<polygon fill="none" stroke="black" points="498.5,-85 459.5,-85 459.5,-66 498.5,-66 498.5,-85"/>
<text text-anchor="middle" x="479" y="-73" font-family="Helvetica,sans-Serif" font-size="10.00">Used</text>
</g>
<!-- Node18&#45;&gt;Node9 -->
<g id="edge8" class="edge">
<title>Node18&#45;&gt;Node9</title>
<path fill="none" stroke="#9a32cd" stroke-dasharray="5,2" d="M449.82,-65.66C387.45,-46.95 325.16,-28.53 290.65,-18.35"/>
<polygon fill="#9a32cd" stroke="#9a32cd" points="448.84,-69.02 459.42,-68.54 450.85,-62.31 448.84,-69.02"/>
<text text-anchor="middle" x="419" y="-40" font-family="Helvetica,sans-Serif" font-size="10.00">m_usedClass</text>
</g>
</g>
</svg>
