<?xml version="1.0" encoding="UTF-8" standalone="no"?>
<!DOCTYPE svg PUBLIC "-//W3C//DTD SVG 1.1//EN"
 "http://www.w3.org/Graphics/SVG/1.1/DTD/svg11.dtd">
<!-- Generated by graphviz version 4.0.0 (20220529.0937)
 -->
<!-- Title: K_WHITELIST::_WHITELIST Pages: 1 -->
<svg width="187pt" height="171pt"
 viewBox="0.00 0.00 186.50 171.00" xmlns="http://www.w3.org/2000/svg" xmlns:xlink="http://www.w3.org/1999/xlink">
<g id="graph0" class="graph" transform="scale(1 1) rotate(0) translate(4 167)">
<title>K_WHITELIST::_WHITELIST</title>
<!-- Node1 -->
<g id="node1" class="node">
<title>Node1</title>
<g id="a_node1"><a xlink:title=" ">
<polygon fill="#bfbfbf" stroke="black" points="31.5,-0.5 31.5,-57.5 171.5,-57.5 171.5,-0.5 31.5,-0.5"/>
<text text-anchor="middle" x="101.5" y="-45.5" font-family="Helvetica,sans-Serif" font-size="10.00">K_WHITELIST::_WHITELIST</text>
<polyline fill="none" stroke="black" points="31.5,-38.5 171.5,-38.5 "/>
<text text-anchor="middle" x="101.5" y="-26.5" font-family="Helvetica,sans-Serif" font-size="10.00"> </text>
<polyline fill="none" stroke="black" points="31.5,-19.5 171.5,-19.5 "/>
<text text-anchor="middle" x="101.5" y="-7.5" font-family="Helvetica,sans-Serif" font-size="10.00"> </text>
</a>
</g>
</g>
<!-- Node2 -->
<g id="node2" class="node">
<title>Node2</title>
<g id="a_node2"><a xlink:title=" ">
<polygon fill="none" stroke="black" points="0,-105.5 0,-162.5 107,-162.5 107,-105.5 0,-105.5"/>
<text text-anchor="middle" x="53.5" y="-150.5" font-family="Helvetica,sans-Serif" font-size="10.00">UNICODE_STRING *</text>
<polyline fill="none" stroke="black" points="0,-143.5 107,-143.5 "/>
<text text-anchor="middle" x="53.5" y="-131.5" font-family="Helvetica,sans-Serif" font-size="10.00"> </text>
<polyline fill="none" stroke="black" points="0,-124.5 107,-124.5 "/>
<text text-anchor="middle" x="53.5" y="-112.5" font-family="Helvetica,sans-Serif" font-size="10.00"> </text>
</a>
</g>
</g>
<!-- Node2&#45;&gt;Node1 -->
<g id="edge1" class="edge">
<title>Node2&#45;&gt;Node1</title>
<path fill="none" stroke="#404040" d="M66.36,-105.4C71.58,-94.2 77.7,-81.06 83.36,-68.92"/>
<polygon fill="none" stroke="#404040" points="83.53,-68.56 82.44,-61.43 88.6,-57.68 89.69,-64.81 83.53,-68.56"/>
<text text-anchor="middle" x="102" y="-79" font-family="Helvetica,sans-Serif" font-size="10.00"> +szBuffer</text>
</g>
<!-- Node3 -->
<g id="node3" class="node">
<title>Node3</title>
<g id="a_node3"><a xlink:title=" ">
<polygon fill="none" stroke="black" points="125.5,-105.5 125.5,-162.5 175.5,-162.5 175.5,-105.5 125.5,-105.5"/>
<text text-anchor="middle" x="150.5" y="-150.5" font-family="Helvetica,sans-Serif" font-size="10.00">ULONG</text>
<polyline fill="none" stroke="black" points="125.5,-143.5 175.5,-143.5 "/>
<text text-anchor="middle" x="150.5" y="-131.5" font-family="Helvetica,sans-Serif" font-size="10.00"> </text>
<polyline fill="none" stroke="black" points="125.5,-124.5 175.5,-124.5 "/>
<text text-anchor="middle" x="150.5" y="-112.5" font-family="Helvetica,sans-Serif" font-size="10.00"> </text>
</a>
</g>
</g>
<!-- Node3&#45;&gt;Node1 -->
<g id="edge2" class="edge">
<title>Node3&#45;&gt;Node1</title>
<path fill="none" stroke="#404040" d="M140.87,-105.36C137.3,-95.91 133.02,-85.36 128.5,-76 127.32,-73.56 126.06,-71.08 124.75,-68.59"/>
<polygon fill="none" stroke="#404040" points="124.61,-68.33 118.2,-65.01 118.8,-57.82 125.21,-61.14 124.61,-68.33"/>
<text text-anchor="middle" x="155.5" y="-79" font-family="Helvetica,sans-Serif" font-size="10.00"> +ulLength</text>
</g>
</g>
</svg>
