<?xml version="1.0" encoding="UTF-8" standalone="no"?>
<!DOCTYPE svg PUBLIC "-//W3C//DTD SVG 1.1//EN"
 "http://www.w3.org/Graphics/SVG/1.1/DTD/svg11.dtd">
<!-- Generated by graphviz version 4.0.0 (20220529.0937)
 -->
<!-- Title: K_CACHE::_HASH Pages: 1 -->
<svg width="206pt" height="171pt"
 viewBox="0.00 0.00 206.00 171.00" xmlns="http://www.w3.org/2000/svg" xmlns:xlink="http://www.w3.org/1999/xlink">
<g id="graph0" class="graph" transform="scale(1 1) rotate(0) translate(4 167)">
<title>K_CACHE::_HASH</title>
<!-- Node1 -->
<g id="node1" class="node">
<title>Node1</title>
<g id="a_node1"><a xlink:title=" ">
<polygon fill="#bfbfbf" stroke="black" points="41.5,-0.5 41.5,-57.5 142.5,-57.5 142.5,-0.5 41.5,-0.5"/>
<text text-anchor="middle" x="92" y="-45.5" font-family="Helvetica,sans-Serif" font-size="10.00">K_CACHE::_HASH</text>
<polyline fill="none" stroke="black" points="41.5,-38.5 142.5,-38.5 "/>
<text text-anchor="middle" x="92" y="-26.5" font-family="Helvetica,sans-Serif" font-size="10.00"> </text>
<polyline fill="none" stroke="black" points="41.5,-19.5 142.5,-19.5 "/>
<text text-anchor="middle" x="92" y="-7.5" font-family="Helvetica,sans-Serif" font-size="10.00"> </text>
</a>
</g>
</g>
<!-- Node2 -->
<g id="node2" class="node">
<title>Node2</title>
<g id="a_node2"><a xlink:title=" ">
<polygon fill="none" stroke="black" points="0,-105.5 0,-162.5 50,-162.5 50,-105.5 0,-105.5"/>
<text text-anchor="middle" x="25" y="-150.5" font-family="Helvetica,sans-Serif" font-size="10.00">ULONG</text>
<polyline fill="none" stroke="black" points="0,-143.5 50,-143.5 "/>
<text text-anchor="middle" x="25" y="-131.5" font-family="Helvetica,sans-Serif" font-size="10.00"> </text>
<polyline fill="none" stroke="black" points="0,-124.5 50,-124.5 "/>
<text text-anchor="middle" x="25" y="-112.5" font-family="Helvetica,sans-Serif" font-size="10.00"> </text>
</a>
</g>
</g>
<!-- Node2&#45;&gt;Node1 -->
<g id="edge1" class="edge">
<title>Node2&#45;&gt;Node1</title>
<path fill="none" stroke="#404040" d="M33.76,-105.28C37.44,-95.62 42.21,-84.96 48,-76 50,-72.9 52.23,-69.82 54.6,-66.82"/>
<polygon fill="none" stroke="#404040" points="54.72,-66.67 55.56,-59.51 62.49,-57.52 61.65,-64.68 54.72,-66.67"/>
<text text-anchor="middle" x="68" y="-79" font-family="Helvetica,sans-Serif" font-size="10.00"> +ulHash</text>
</g>
<!-- Node3 -->
<g id="node3" class="node">
<title>Node3</title>
<g id="a_node3"><a xlink:title=" ">
<polygon fill="none" stroke="black" points="68.5,-105.5 68.5,-162.5 115.5,-162.5 115.5,-105.5 68.5,-105.5"/>
<text text-anchor="middle" x="92" y="-150.5" font-family="Helvetica,sans-Serif" font-size="10.00">PVOID</text>
<polyline fill="none" stroke="black" points="68.5,-143.5 115.5,-143.5 "/>
<text text-anchor="middle" x="92" y="-131.5" font-family="Helvetica,sans-Serif" font-size="10.00"> </text>
<polyline fill="none" stroke="black" points="68.5,-124.5 115.5,-124.5 "/>
<text text-anchor="middle" x="92" y="-112.5" font-family="Helvetica,sans-Serif" font-size="10.00"> </text>
</a>
</g>
</g>
<!-- Node3&#45;&gt;Node1 -->
<g id="edge2" class="edge">
<title>Node3&#45;&gt;Node1</title>
<path fill="none" stroke="#404040" d="M92,-105.4C92,-94.55 92,-81.87 92,-70.05"/>
<polygon fill="none" stroke="#404040" points="92,-69.68 88,-63.68 92,-57.68 96,-63.68 92,-69.68"/>
<text text-anchor="middle" x="110.5" y="-79" font-family="Helvetica,sans-Serif" font-size="10.00"> +pHash</text>
</g>
<!-- Node4 -->
<g id="node4" class="node">
<title>Node4</title>
<g id="a_node4"><a xlink:title=" ">
<polygon fill="none" stroke="black" points="134,-105.5 134,-162.5 198,-162.5 198,-105.5 134,-105.5"/>
<text text-anchor="middle" x="166" y="-150.5" font-family="Helvetica,sans-Serif" font-size="10.00">BOOLEAN</text>
<polyline fill="none" stroke="black" points="134,-143.5 198,-143.5 "/>
<text text-anchor="middle" x="166" y="-131.5" font-family="Helvetica,sans-Serif" font-size="10.00"> </text>
<polyline fill="none" stroke="black" points="134,-124.5 198,-124.5 "/>
<text text-anchor="middle" x="166" y="-112.5" font-family="Helvetica,sans-Serif" font-size="10.00"> </text>
</a>
</g>
</g>
<!-- Node4&#45;&gt;Node1 -->
<g id="edge3" class="edge">
<title>Node4&#45;&gt;Node1</title>
<path fill="none" stroke="#404040" d="M151.48,-105.33C146.07,-95.77 139.64,-85.17 133,-76 130.87,-73.06 128.59,-70.09 126.23,-67.16"/>
<polygon fill="none" stroke="#404040" points="126.23,-67.16 119.31,-65.12 118.53,-57.96 125.45,-59.99 126.23,-67.16"/>
<text text-anchor="middle" x="157.5" y="-79" font-family="Helvetica,sans-Serif" font-size="10.00"> +bIsOk</text>
</g>
</g>
</svg>
