<?xml version="1.0" encoding="UTF-8" standalone="no"?>
<!DOCTYPE svg PUBLIC "-//W3C//DTD SVG 1.1//EN"
 "http://www.w3.org/Graphics/SVG/1.1/DTD/svg11.dtd">
<!-- Generated by graphviz version 4.0.0 (20220529.0937)
 -->
<!-- Title: DRIVER_DATA Pages: 1 -->
<svg width="269pt" height="171pt"
 viewBox="0.00 0.00 268.50 171.00" xmlns="http://www.w3.org/2000/svg" xmlns:xlink="http://www.w3.org/1999/xlink">
<g id="graph0" class="graph" transform="scale(1 1) rotate(0) translate(4 167)">
<title>DRIVER_DATA</title>
<!-- Node1 -->
<g id="node1" class="node">
<title>Node1</title>
<g id="a_node1"><a xlink:title=" ">
<polygon fill="#bfbfbf" stroke="black" points="89,-0.5 89,-57.5 172,-57.5 172,-0.5 89,-0.5"/>
<text text-anchor="middle" x="130.5" y="-45.5" font-family="Helvetica,sans-Serif" font-size="10.00">DRIVER_DATA</text>
<polyline fill="none" stroke="black" points="89,-38.5 172,-38.5 "/>
<text text-anchor="middle" x="130.5" y="-26.5" font-family="Helvetica,sans-Serif" font-size="10.00"> </text>
<polyline fill="none" stroke="black" points="89,-19.5 172,-19.5 "/>
<text text-anchor="middle" x="130.5" y="-7.5" font-family="Helvetica,sans-Serif" font-size="10.00"> </text>
</a>
</g>
</g>
<!-- Node2 -->
<g id="node2" class="node">
<title>Node2</title>
<g id="a_node2"><a xlink:title=" ">
<polygon fill="none" stroke="black" points="0,-105.5 0,-162.5 77,-162.5 77,-105.5 0,-105.5"/>
<text text-anchor="middle" x="38.5" y="-150.5" font-family="Helvetica,sans-Serif" font-size="10.00">PFLT_FILTER</text>
<polyline fill="none" stroke="black" points="0,-143.5 77,-143.5 "/>
<text text-anchor="middle" x="38.5" y="-131.5" font-family="Helvetica,sans-Serif" font-size="10.00"> </text>
<polyline fill="none" stroke="black" points="0,-124.5 77,-124.5 "/>
<text text-anchor="middle" x="38.5" y="-112.5" font-family="Helvetica,sans-Serif" font-size="10.00"> </text>
</a>
</g>
</g>
<!-- Node2&#45;&gt;Node1 -->
<g id="edge1" class="edge">
<title>Node2&#45;&gt;Node1</title>
<path fill="none" stroke="#404040" d="M63.15,-105.4C73.78,-93.51 86.35,-79.43 97.74,-66.68"/>
<polygon fill="none" stroke="#404040" points="97.78,-66.63 98.8,-59.49 105.78,-57.68 104.76,-64.82 97.78,-66.63"/>
<text text-anchor="middle" x="105" y="-79" font-family="Helvetica,sans-Serif" font-size="10.00"> +pFilter</text>
</g>
<!-- Node3 -->
<g id="node3" class="node">
<title>Node3</title>
<g id="a_node3"><a xlink:title=" ">
<polygon fill="none" stroke="black" points="95,-105.5 95,-162.5 166,-162.5 166,-105.5 95,-105.5"/>
<text text-anchor="middle" x="130.5" y="-150.5" font-family="Helvetica,sans-Serif" font-size="10.00">PFLT_PORT</text>
<polyline fill="none" stroke="black" points="95,-143.5 166,-143.5 "/>
<text text-anchor="middle" x="130.5" y="-131.5" font-family="Helvetica,sans-Serif" font-size="10.00"> </text>
<polyline fill="none" stroke="black" points="95,-124.5 166,-124.5 "/>
<text text-anchor="middle" x="130.5" y="-112.5" font-family="Helvetica,sans-Serif" font-size="10.00"> </text>
</a>
</g>
</g>
<!-- Node3&#45;&gt;Node1 -->
<g id="edge2" class="edge">
<title>Node3&#45;&gt;Node1</title>
<path fill="none" stroke="#404040" d="M130.5,-105.4C130.5,-94.55 130.5,-81.87 130.5,-70.05"/>
<polygon fill="none" stroke="#404040" points="130.5,-69.68 126.5,-63.68 130.5,-57.68 134.5,-63.68 130.5,-69.68"/>
<text text-anchor="middle" x="159.5" y="-79" font-family="Helvetica,sans-Serif" font-size="10.00"> +pClientPort</text>
</g>
<!-- Node4 -->
<g id="node4" class="node">
<title>Node4</title>
<g id="a_node4"><a xlink:title=" ">
<polygon fill="none" stroke="black" points="188,-105.5 188,-162.5 235,-162.5 235,-105.5 188,-105.5"/>
<text text-anchor="middle" x="211.5" y="-150.5" font-family="Helvetica,sans-Serif" font-size="10.00">PVOID</text>
<polyline fill="none" stroke="black" points="188,-143.5 235,-143.5 "/>
<text text-anchor="middle" x="211.5" y="-131.5" font-family="Helvetica,sans-Serif" font-size="10.00"> </text>
<polyline fill="none" stroke="black" points="188,-124.5 235,-124.5 "/>
<text text-anchor="middle" x="211.5" y="-112.5" font-family="Helvetica,sans-Serif" font-size="10.00"> </text>
</a>
</g>
</g>
<!-- Node4&#45;&gt;Node1 -->
<g id="edge3" class="edge">
<title>Node4&#45;&gt;Node1</title>
<path fill="none" stroke="#404040" d="M204.19,-105.37C200.75,-95.5 195.95,-84.69 189.5,-76 186.87,-72.45 183.89,-69.04 180.72,-65.78"/>
<polygon fill="none" stroke="#404040" points="180.68,-65.75 173.57,-64.57 171.92,-57.55 179.04,-58.73 180.68,-65.75"/>
<text text-anchor="middle" x="228" y="-79" font-family="Helvetica,sans-Serif" font-size="10.00"> +pObCallback</text>
</g>
</g>
</svg>
