<?xml version="1.0" encoding="UTF-8" standalone="no"?>
<!DOCTYPE svg PUBLIC "-//W3C//DTD SVG 1.1//EN"
 "http://www.w3.org/Graphics/SVG/1.1/DTD/svg11.dtd">
<!-- Generated by graphviz version 4.0.0 (20220529.0937)
 -->
<!-- Title: _sSERVICE Pages: 1 -->
<svg width="348pt" height="171pt"
 viewBox="0.00 0.00 348.00 171.00" xmlns="http://www.w3.org/2000/svg" xmlns:xlink="http://www.w3.org/1999/xlink">
<g id="graph0" class="graph" transform="scale(1 1) rotate(0) translate(4 167)">
<title>_sSERVICE</title>
<!-- Node1 -->
<g id="node1" class="node">
<title>Node1</title>
<g id="a_node1"><a xlink:title=" ">
<polygon fill="#bfbfbf" stroke="black" points="112,-0.5 112,-57.5 182,-57.5 182,-0.5 112,-0.5"/>
<text text-anchor="middle" x="147" y="-45.5" font-family="Helvetica,sans-Serif" font-size="10.00">_sSERVICE</text>
<polyline fill="none" stroke="black" points="112,-38.5 182,-38.5 "/>
<text text-anchor="middle" x="147" y="-26.5" font-family="Helvetica,sans-Serif" font-size="10.00"> </text>
<polyline fill="none" stroke="black" points="112,-19.5 182,-19.5 "/>
<text text-anchor="middle" x="147" y="-7.5" font-family="Helvetica,sans-Serif" font-size="10.00"> </text>
</a>
</g>
</g>
<!-- Node2 -->
<g id="node2" class="node">
<title>Node2</title>
<g id="a_node2"><a xlink:title=" ">
<polygon fill="none" stroke="black" points="0,-105.5 0,-162.5 56,-162.5 56,-105.5 0,-105.5"/>
<text text-anchor="middle" x="28" y="-150.5" font-family="Helvetica,sans-Serif" font-size="10.00">HANDLE</text>
<polyline fill="none" stroke="black" points="0,-143.5 56,-143.5 "/>
<text text-anchor="middle" x="28" y="-131.5" font-family="Helvetica,sans-Serif" font-size="10.00"> </text>
<polyline fill="none" stroke="black" points="0,-124.5 56,-124.5 "/>
<text text-anchor="middle" x="28" y="-112.5" font-family="Helvetica,sans-Serif" font-size="10.00"> </text>
</a>
</g>
</g>
<!-- Node2&#45;&gt;Node1 -->
<g id="edge1" class="edge">
<title>Node2&#45;&gt;Node1</title>
<path fill="none" stroke="#404040" d="M43.96,-105.28C50.56,-95.3 58.83,-84.42 68,-76 77.74,-67.05 89.52,-59.05 100.97,-52.33"/>
<polygon fill="none" stroke="#404040" points="101.29,-52.15 104.58,-45.73 111.77,-46.29 108.48,-52.71 101.29,-52.15"/>
<text text-anchor="middle" x="105.5" y="-79" font-family="Helvetica,sans-Serif" font-size="10.00"> +hSvcStopEvent</text>
</g>
<!-- Node3 -->
<g id="node3" class="node">
<title>Node3</title>
<g id="a_node3"><a xlink:title=" ">
<polygon fill="none" stroke="black" points="74,-105.5 74,-162.5 220,-162.5 220,-105.5 74,-105.5"/>
<text text-anchor="middle" x="147" y="-150.5" font-family="Helvetica,sans-Serif" font-size="10.00">SERVICE_STATUS_HANDLE</text>
<polyline fill="none" stroke="black" points="74,-143.5 220,-143.5 "/>
<text text-anchor="middle" x="147" y="-131.5" font-family="Helvetica,sans-Serif" font-size="10.00"> </text>
<polyline fill="none" stroke="black" points="74,-124.5 220,-124.5 "/>
<text text-anchor="middle" x="147" y="-112.5" font-family="Helvetica,sans-Serif" font-size="10.00"> </text>
</a>
</g>
</g>
<!-- Node3&#45;&gt;Node1 -->
<g id="edge2" class="edge">
<title>Node3&#45;&gt;Node1</title>
<path fill="none" stroke="#404040" d="M147,-105.4C147,-94.55 147,-81.87 147,-70.05"/>
<polygon fill="none" stroke="#404040" points="147,-69.68 143,-63.68 147,-57.68 151,-63.68 147,-69.68"/>
<text text-anchor="middle" x="176.5" y="-79" font-family="Helvetica,sans-Serif" font-size="10.00"> +hSvcStatus</text>
</g>
<!-- Node4 -->
<g id="node4" class="node">
<title>Node4</title>
<g id="a_node4"><a xlink:title=" ">
<polygon fill="none" stroke="black" points="238,-105.5 238,-162.5 340,-162.5 340,-105.5 238,-105.5"/>
<text text-anchor="middle" x="289" y="-150.5" font-family="Helvetica,sans-Serif" font-size="10.00">SERVICE_STATUS</text>
<polyline fill="none" stroke="black" points="238,-143.5 340,-143.5 "/>
<text text-anchor="middle" x="289" y="-131.5" font-family="Helvetica,sans-Serif" font-size="10.00"> </text>
<polyline fill="none" stroke="black" points="238,-124.5 340,-124.5 "/>
<text text-anchor="middle" x="289" y="-112.5" font-family="Helvetica,sans-Serif" font-size="10.00"> </text>
</a>
</g>
</g>
<!-- Node4&#45;&gt;Node1 -->
<g id="edge3" class="edge">
<title>Node4&#45;&gt;Node1</title>
<path fill="none" stroke="#404040" d="M250.95,-105.4C232.84,-92.26 211.06,-76.47 192.13,-62.73"/>
<polygon fill="none" stroke="#404040" points="191.95,-62.6 184.74,-62.32 182.23,-55.56 189.44,-55.84 191.95,-62.6"/>
<text text-anchor="middle" x="249" y="-79" font-family="Helvetica,sans-Serif" font-size="10.00"> +SvcStatus</text>
</g>
</g>
</svg>
