<?xml version="1.0" encoding="UTF-8" standalone="no"?>
<!DOCTYPE svg PUBLIC "-//W3C//DTD SVG 1.1//EN"
 "http://www.w3.org/Graphics/SVG/1.1/DTD/svg11.dtd">
<!-- Generated by graphviz version 4.0.0 (20220529.0937)
 -->
<!-- Title: _WHITELIST Pages: 1 -->
<svg width="131pt" height="171pt"
 viewBox="0.00 0.00 130.50 171.00" xmlns="http://www.w3.org/2000/svg" xmlns:xlink="http://www.w3.org/1999/xlink">
<g id="graph0" class="graph" transform="scale(1 1) rotate(0) translate(4 167)">
<title>_WHITELIST</title>
<!-- Node1 -->
<g id="node1" class="node">
<title>Node1</title>
<g id="a_node1"><a xlink:title=" ">
<polygon fill="#bfbfbf" stroke="black" points="27.5,-0.5 27.5,-57.5 99.5,-57.5 99.5,-0.5 27.5,-0.5"/>
<text text-anchor="middle" x="63.5" y="-45.5" font-family="Helvetica,sans-Serif" font-size="10.00">_WHITELIST</text>
<polyline fill="none" stroke="black" points="27.5,-38.5 99.5,-38.5 "/>
<text text-anchor="middle" x="63.5" y="-26.5" font-family="Helvetica,sans-Serif" font-size="10.00"> </text>
<polyline fill="none" stroke="black" points="27.5,-19.5 99.5,-19.5 "/>
<text text-anchor="middle" x="63.5" y="-7.5" font-family="Helvetica,sans-Serif" font-size="10.00"> </text>
</a>
</g>
</g>
<!-- Node2 -->
<g id="node2" class="node">
<title>Node2</title>
<g id="a_node2"><a xlink:title=" ">
<polygon fill="none" stroke="black" points="0,-105.5 0,-162.5 59,-162.5 59,-105.5 0,-105.5"/>
<text text-anchor="middle" x="29.5" y="-150.5" font-family="Helvetica,sans-Serif" font-size="10.00">PCWSTR</text>
<polyline fill="none" stroke="black" points="0,-143.5 59,-143.5 "/>
<text text-anchor="middle" x="29.5" y="-131.5" font-family="Helvetica,sans-Serif" font-size="10.00"> </text>
<polyline fill="none" stroke="black" points="0,-124.5 59,-124.5 "/>
<text text-anchor="middle" x="29.5" y="-112.5" font-family="Helvetica,sans-Serif" font-size="10.00"> </text>
</a>
</g>
</g>
<!-- Node2&#45;&gt;Node1 -->
<g id="edge1" class="edge">
<title>Node2&#45;&gt;Node1</title>
<path fill="none" stroke="#404040" d="M26.69,-105.48C26.57,-95.93 27.42,-85.3 30.5,-76 31.35,-73.42 32.41,-70.87 33.61,-68.36"/>
<polygon fill="none" stroke="#404040" points="33.72,-68.16 33.21,-60.96 39.65,-57.72 40.16,-64.92 33.72,-68.16"/>
<text text-anchor="middle" x="53" y="-79" font-family="Helvetica,sans-Serif" font-size="10.00"> +szBuffer</text>
</g>
<!-- Node3 -->
<g id="node3" class="node">
<title>Node3</title>
<g id="a_node3"><a xlink:title=" ">
<polygon fill="none" stroke="black" points="83,-105.5 83,-162.5 112,-162.5 112,-105.5 83,-105.5"/>
<text text-anchor="middle" x="97.5" y="-150.5" font-family="Helvetica,sans-Serif" font-size="10.00">int</text>
<polyline fill="none" stroke="black" points="83,-143.5 112,-143.5 "/>
<text text-anchor="middle" x="97.5" y="-131.5" font-family="Helvetica,sans-Serif" font-size="10.00"> </text>
<polyline fill="none" stroke="black" points="83,-124.5 112,-124.5 "/>
<text text-anchor="middle" x="97.5" y="-112.5" font-family="Helvetica,sans-Serif" font-size="10.00"> </text>
</a>
</g>
</g>
<!-- Node3&#45;&gt;Node1 -->
<g id="edge2" class="edge">
<title>Node3&#45;&gt;Node1</title>
<path fill="none" stroke="#404040" d="M88.39,-105.4C84.73,-94.31 80.44,-81.33 76.47,-69.3"/>
<polygon fill="none" stroke="#404040" points="76.4,-69.07 70.72,-64.63 72.64,-57.68 78.32,-62.12 76.4,-69.07"/>
<text text-anchor="middle" x="102" y="-79" font-family="Helvetica,sans-Serif" font-size="10.00"> +iLength</text>
</g>
</g>
</svg>
