<?xml version="1.0" encoding="UTF-8" standalone="no"?>
<!DOCTYPE svg PUBLIC "-//W3C//DTD SVG 1.1//EN"
 "http://www.w3.org/Graphics/SVG/1.1/DTD/svg11.dtd">
<!-- Generated by graphviz version 4.0.0 (20220529.0937)
 -->
<!-- Title: _DATA_REPLY Pages: 1 -->
<svg width="103pt" height="171pt"
 viewBox="0.00 0.00 102.50 171.00" xmlns="http://www.w3.org/2000/svg" xmlns:xlink="http://www.w3.org/1999/xlink">
<g id="graph0" class="graph" transform="scale(1 1) rotate(0) translate(4 167)">
<title>_DATA_REPLY</title>
<!-- Node1 -->
<g id="node1" class="node">
<title>Node1</title>
<g id="a_node1"><a xlink:title=" ">
<polygon fill="#bfbfbf" stroke="black" points="0,-0.5 0,-57.5 85,-57.5 85,-0.5 0,-0.5"/>
<text text-anchor="middle" x="42.5" y="-45.5" font-family="Helvetica,sans-Serif" font-size="10.00">_DATA_REPLY</text>
<polyline fill="none" stroke="black" points="0,-38.5 85,-38.5 "/>
<text text-anchor="middle" x="42.5" y="-26.5" font-family="Helvetica,sans-Serif" font-size="10.00"> </text>
<polyline fill="none" stroke="black" points="0,-19.5 85,-19.5 "/>
<text text-anchor="middle" x="42.5" y="-7.5" font-family="Helvetica,sans-Serif" font-size="10.00"> </text>
</a>
</g>
</g>
<!-- Node2 -->
<g id="node2" class="node">
<title>Node2</title>
<g id="a_node2"><a xlink:title=" ">
<polygon fill="none" stroke="black" points="10.5,-105.5 10.5,-162.5 74.5,-162.5 74.5,-105.5 10.5,-105.5"/>
<text text-anchor="middle" x="42.5" y="-150.5" font-family="Helvetica,sans-Serif" font-size="10.00">BOOLEAN</text>
<polyline fill="none" stroke="black" points="10.5,-143.5 74.5,-143.5 "/>
<text text-anchor="middle" x="42.5" y="-131.5" font-family="Helvetica,sans-Serif" font-size="10.00"> </text>
<polyline fill="none" stroke="black" points="10.5,-124.5 74.5,-124.5 "/>
<text text-anchor="middle" x="42.5" y="-112.5" font-family="Helvetica,sans-Serif" font-size="10.00"> </text>
</a>
</g>
</g>
<!-- Node2&#45;&gt;Node1 -->
<g id="edge1" class="edge">
<title>Node2&#45;&gt;Node1</title>
<path fill="none" stroke="#404040" d="M42.5,-105.4C42.5,-94.55 42.5,-81.87 42.5,-70.05"/>
<polygon fill="none" stroke="#404040" points="42.5,-69.68 38.5,-63.68 42.5,-57.68 46.5,-63.68 42.5,-69.68"/>
<text text-anchor="middle" x="68.5" y="-79" font-family="Helvetica,sans-Serif" font-size="10.00"> +bIsSigned</text>
</g>
</g>
</svg>
