<?xml version="1.0" encoding="UTF-8" standalone="no"?>
<!DOCTYPE svg PUBLIC "-//W3C//DTD SVG 1.1//EN"
 "http://www.w3.org/Graphics/SVG/1.1/DTD/svg11.dtd">
<!-- Generated by graphviz version 5.0.0 (20220707.1540)
 -->
<!-- Title: SharedDefs.hpp Pages: 1 -->
<!--zoomable 420 -->
<svg id="main" version="1.1" xmlns="http://www.w3.org/2000/svg" xmlns:xlink="http://www.w3.org/1999/xlink" xml:space="preserve" onload="init(evt)">
<style type="text/css"><![CDATA[
.edge:hover path { stroke: red; }
.edge:hover polygon { stroke: red; fill: red; }
]]></style>
<script type="text/javascript"><![CDATA[
var edges = document.getElementsByTagName('g');
if (edges && edges.length) {
  for (var i=0;i<edges.length;i++) {
    if (edges[i].id.substr(0,4)=='edge') {
      edges[i].setAttribute('class','edge');
    }
  }
}
]]></script>
        <defs>
                <circle id="rim" cx="0" cy="0" r="7"/>
                <circle id="rim2" cx="0" cy="0" r="3.5"/>
                <g id="zoomPlus">
                        <use xlink:href="#rim" fill="#404040">
                                <set attributeName="fill" to="#808080" begin="zoomplus.mouseover" end="zoomplus.mouseout"/>
                        </use>
                        <path d="M-4,0h8M0,-4v8" fill="none" stroke="white" stroke-width="1.5" pointer-events="none"/>
                </g>
                <g id="zoomMin">
                        <use xlink:href="#rim" fill="#404040">
                                <set attributeName="fill" to="#808080" begin="zoomminus.mouseover" end="zoomminus.mouseout"/>
                        </use>
                        <path d="M-4,0h8" fill="none" stroke="white" stroke-width="1.5" pointer-events="none"/>
                </g>
                <g id="dirArrow">
                        <path fill="none" stroke="white" stroke-width="1.5" d="M0,-3.0v7 M-2.5,-0.5L0,-3.0L2.5,-0.5"/>
                </g>
               <g id="resetDef">
                       <use xlink:href="#rim2" fill="#404040">
                               <set attributeName="fill" to="#808080" begin="reset.mouseover" end="reset.mouseout"/>
                       </use>
               </g>
        </defs>

<script type="text/javascript">
var viewWidth = 1199;
var viewHeight = 420;
var sectionId = 'dynsection-0';
</script>
<script xlink:href="../../svgpan.js"/>
<svg id="graph" class="graph">
<g id="viewport">
<title>SharedDefs.hpp</title>
<!-- Node1 -->
<g id="node1" class="node">
<title>Node1</title>
<g id="a_node1"><a xlink:title="Header file which contains the structures, type definitions, constants, global variablesand function ...">
<polygon fill="#bfbfbf" stroke="black" points="354.47,-392.5 354.47,-411.5 440.47,-411.5 440.47,-392.5 354.47,-392.5"/>
<text text-anchor="middle" x="397.47" y="-399.5" font-family="Helvetica,sans-Serif" font-size="10.00">SharedDefs.hpp</text>
</a>
</g>
</g>
<!-- Node2 -->
<g id="node2" class="node">
<title>Node2</title>
<g id="a_node2"><a xlink:href="../../d6/d2f/_k___communication_8hpp.html" target="_top" xlink:title="Header for K_Communication.cpp.">
<polygon fill="none" stroke="black" points="49.97,-224.5 49.97,-243.5 164.97,-243.5 164.97,-224.5 49.97,-224.5"/>
<text text-anchor="middle" x="107.47" y="-231.5" font-family="Helvetica,sans-Serif" font-size="10.00">K_Communication.hpp</text>
</a>
</g>
</g>
<!-- Node1&#45;&gt;Node2 -->
<g id="edge1" class="edge">
<title>Node1&#45;&gt;Node2</title>
<path fill="none" stroke="midnightblue" d="M373.48,-387.27C315.63,-354.15 169.77,-270.66 122.5,-243.61"/>
<polygon fill="midnightblue" stroke="midnightblue" points="371.87,-390.38 382.29,-392.31 375.35,-384.3 371.87,-390.38"/>
</g>
<!-- Node10 -->
<g id="node10" class="node">
<title>Node10</title>
<g id="a_node10"><a xlink:href="../../d0/dfc/_k___helper_8hpp.html" target="_top" xlink:title="Header for K_Helper.cpp.">
<polygon fill="none" stroke="black" points="359.97,-336.5 359.97,-355.5 434.97,-355.5 434.97,-336.5 359.97,-336.5"/>
<text text-anchor="middle" x="397.47" y="-343.5" font-family="Helvetica,sans-Serif" font-size="10.00">K_Helper.hpp</text>
</a>
</g>
</g>
<!-- Node1&#45;&gt;Node10 -->
<g id="edge10" class="edge">
<title>Node1&#45;&gt;Node10</title>
<path fill="none" stroke="midnightblue" d="M397.47,-381.8C397.47,-372.91 397.47,-362.78 397.47,-355.75"/>
<polygon fill="midnightblue" stroke="midnightblue" points="393.97,-382.08 397.47,-392.08 400.97,-382.08 393.97,-382.08"/>
</g>
<!-- Node19 -->
<g id="node19" class="node">
<title>Node19</title>
<g id="a_node19"><a xlink:href="../../d9/dc9/_u___communication_8hpp.html" target="_top" xlink:title="Header for U_Communication.cpp.">
<polygon fill="none" stroke="black" points="901.97,-336.5 901.97,-355.5 1016.97,-355.5 1016.97,-336.5 901.97,-336.5"/>
<text text-anchor="middle" x="959.47" y="-343.5" font-family="Helvetica,sans-Serif" font-size="10.00">U_Communication.hpp</text>
</a>
</g>
</g>
<!-- Node1&#45;&gt;Node19 -->
<g id="edge31" class="edge">
<title>Node1&#45;&gt;Node19</title>
<path fill="none" stroke="midnightblue" d="M450.77,-395.88C556.6,-385.71 792.45,-363.05 901.78,-352.54"/>
<polygon fill="midnightblue" stroke="midnightblue" points="450.26,-392.41 440.64,-396.85 450.93,-399.38 450.26,-392.41"/>
</g>
<!-- Node3 -->
<g id="node3" class="node">
<title>Node3</title>
<g id="a_node3"><a xlink:href="../../d3/d0b/_k___communication_8cpp.html" target="_top" xlink:title="Create the communication server, send data to the user&#45;mode service once a client is connected.">
<polygon fill="none" stroke="black" points="11.97,-168.5 11.97,-187.5 126.97,-187.5 126.97,-168.5 11.97,-168.5"/>
<text text-anchor="middle" x="69.47" y="-175.5" font-family="Helvetica,sans-Serif" font-size="10.00">K_Communication.cpp</text>
</a>
</g>
</g>
<!-- Node2&#45;&gt;Node3 -->
<g id="edge2" class="edge">
<title>Node2&#45;&gt;Node3</title>
<path fill="none" stroke="midnightblue" d="M95.41,-215.86C88.83,-206.5 80.96,-195.33 75.63,-187.75"/>
<polygon fill="midnightblue" stroke="midnightblue" points="92.58,-217.92 101.2,-224.08 98.3,-213.89 92.58,-217.92"/>
</g>
<!-- Node4 -->
<g id="node4" class="node">
<title>Node4</title>
<g id="a_node4"><a xlink:href="../../db/d96/_k___filter_8hpp.html" target="_top" xlink:title="Header for K_Filter.cpp.">
<polygon fill="none" stroke="black" points="133.97,-112.5 133.97,-131.5 202.97,-131.5 202.97,-112.5 133.97,-112.5"/>
<text text-anchor="middle" x="168.47" y="-119.5" font-family="Helvetica,sans-Serif" font-size="10.00">K_Filter.hpp</text>
</a>
</g>
</g>
<!-- Node2&#45;&gt;Node4 -->
<g id="edge3" class="edge">
<title>Node2&#45;&gt;Node4</title>
<path fill="none" stroke="midnightblue" d="M118.7,-215.74C123.96,-207.45 130.22,-197.32 135.47,-188 146.66,-168.15 158.43,-144.08 164.43,-131.54"/>
<polygon fill="midnightblue" stroke="midnightblue" points="115.74,-213.87 113.28,-224.17 121.63,-217.65 115.74,-213.87"/>
</g>
<!-- Node8 -->
<g id="node8" class="node">
<title>Node8</title>
<g id="a_node8"><a xlink:href="../../d5/d8d/_k___ob_callback_8hpp.html" target="_top" xlink:title="Header for K_ObCallback.cpp.">
<polygon fill="none" stroke="black" points="494.47,-112.5 494.47,-131.5 592.47,-131.5 592.47,-112.5 494.47,-112.5"/>
<text text-anchor="middle" x="543.47" y="-119.5" font-family="Helvetica,sans-Serif" font-size="10.00">K_ObCallback.hpp</text>
</a>
</g>
</g>
<!-- Node2&#45;&gt;Node8 -->
<g id="edge7" class="edge">
<title>Node2&#45;&gt;Node8</title>
<path fill="none" stroke="midnightblue" d="M137.02,-220.63C172.45,-206.21 233.91,-182.5 288.47,-168 326.49,-157.9 431.69,-140.58 494.46,-130.63"/>
<polygon fill="midnightblue" stroke="midnightblue" points="135.66,-217.4 127.74,-224.43 138.32,-223.88 135.66,-217.4"/>
</g>
<!-- Node5 -->
<g id="node5" class="node">
<title>Node5</title>
<g id="a_node5"><a xlink:href="../../d3/dde/_k___driver_8hpp.html" target="_top" xlink:title="Header for K_Driver.cpp.">
<polygon fill="none" stroke="black" points="235.97,-56.5 235.97,-75.5 306.97,-75.5 306.97,-56.5 235.97,-56.5"/>
<text text-anchor="middle" x="271.47" y="-63.5" font-family="Helvetica,sans-Serif" font-size="10.00">K_Driver.hpp</text>
</a>
</g>
</g>
<!-- Node4&#45;&gt;Node5 -->
<g id="edge4" class="edge">
<title>Node4&#45;&gt;Node5</title>
<path fill="none" stroke="midnightblue" d="M194.05,-107.59C213.1,-97.61 238.54,-84.27 254.96,-75.65"/>
<polygon fill="midnightblue" stroke="midnightblue" points="192.25,-104.58 185.02,-112.32 195.5,-110.78 192.25,-104.58"/>
</g>
<!-- Node7 -->
<g id="node7" class="node">
<title>Node7</title>
<g id="a_node7"><a xlink:href="../../d2/d94/_k___filter_8cpp.html" target="_top" xlink:title="Initialize filter object used by the communication.">
<polygon fill="none" stroke="black" points="133.97,-56.5 133.97,-75.5 202.97,-75.5 202.97,-56.5 133.97,-56.5"/>
<text text-anchor="middle" x="168.47" y="-63.5" font-family="Helvetica,sans-Serif" font-size="10.00">K_Filter.cpp</text>
</a>
</g>
</g>
<!-- Node4&#45;&gt;Node7 -->
<g id="edge6" class="edge">
<title>Node4&#45;&gt;Node7</title>
<path fill="none" stroke="midnightblue" d="M168.47,-101.8C168.47,-92.91 168.47,-82.78 168.47,-75.75"/>
<polygon fill="midnightblue" stroke="midnightblue" points="164.97,-102.08 168.47,-112.08 171.97,-102.08 164.97,-102.08"/>
</g>
<!-- Node6 -->
<g id="node6" class="node">
<title>Node6</title>
<g id="a_node6"><a xlink:href="../../d3/d9c/_k___driver_8cpp.html" target="_top" xlink:title="Entrypoint of the driver, unload routine.">
<polygon fill="none" stroke="black" points="235.97,-0.5 235.97,-19.5 306.97,-19.5 306.97,-0.5 235.97,-0.5"/>
<text text-anchor="middle" x="271.47" y="-7.5" font-family="Helvetica,sans-Serif" font-size="10.00">K_Driver.cpp</text>
</a>
</g>
</g>
<!-- Node5&#45;&gt;Node6 -->
<g id="edge5" class="edge">
<title>Node5&#45;&gt;Node6</title>
<path fill="none" stroke="midnightblue" d="M271.47,-45.8C271.47,-36.91 271.47,-26.78 271.47,-19.75"/>
<polygon fill="midnightblue" stroke="midnightblue" points="267.97,-46.08 271.47,-56.08 274.97,-46.08 267.97,-46.08"/>
</g>
<!-- Node8&#45;&gt;Node5 -->
<g id="edge8" class="edge">
<title>Node8&#45;&gt;Node5</title>
<path fill="none" stroke="midnightblue" d="M490.27,-110.44C436.12,-99.69 353.7,-83.32 307,-74.05"/>
<polygon fill="midnightblue" stroke="midnightblue" points="489.88,-113.93 500.37,-112.44 491.25,-107.06 489.88,-113.93"/>
</g>
<!-- Node9 -->
<g id="node9" class="node">
<title>Node9</title>
<g id="a_node9"><a xlink:href="../../da/d12/_k___ob_callback_8cpp.html" target="_top" xlink:title="Handle request callback.">
<polygon fill="none" stroke="black" points="494.47,-56.5 494.47,-75.5 592.47,-75.5 592.47,-56.5 494.47,-56.5"/>
<text text-anchor="middle" x="543.47" y="-63.5" font-family="Helvetica,sans-Serif" font-size="10.00">K_ObCallback.cpp</text>
</a>
</g>
</g>
<!-- Node8&#45;&gt;Node9 -->
<g id="edge9" class="edge">
<title>Node8&#45;&gt;Node9</title>
<path fill="none" stroke="midnightblue" d="M543.47,-101.8C543.47,-92.91 543.47,-82.78 543.47,-75.75"/>
<polygon fill="midnightblue" stroke="midnightblue" points="539.97,-102.08 543.47,-112.08 546.97,-102.08 539.97,-102.08"/>
</g>
<!-- Node10&#45;&gt;Node4 -->
<g id="edge11" class="edge">
<title>Node10&#45;&gt;Node4</title>
<path fill="none" stroke="midnightblue" d="M349.69,-341.82C276.67,-334.84 135.8,-312.8 40.47,-244 16.08,-226.4 11.31,-216.75 2.47,-188 -14.39,-133.12 80.34,-123.64 133.8,-122.59"/>
<polygon fill="midnightblue" stroke="midnightblue" points="349.68,-345.33 359.95,-342.74 350.31,-338.36 349.68,-345.33"/>
</g>
<!-- Node10&#45;&gt;Node8 -->
<g id="edge30" class="edge">
<title>Node10&#45;&gt;Node8</title>
<path fill="none" stroke="midnightblue" d="M438.38,-333.38C496.07,-314.28 597.22,-269.93 623.47,-188 626.18,-179.54 627.96,-175.67 623.47,-168 612.77,-149.71 591.6,-138.27 573.72,-131.51"/>
<polygon fill="midnightblue" stroke="midnightblue" points="437.28,-330.06 428.83,-336.45 439.42,-336.73 437.28,-330.06"/>
</g>
<!-- Node11 -->
<g id="node11" class="node">
<title>Node11</title>
<g id="a_node11"><a xlink:href="../../d6/dc4/_k___global_header_8hpp.html" target="_top" xlink:title="Header used by several .cpp files.">
<polygon fill="none" stroke="black" points="344.47,-280.5 344.47,-299.5 450.47,-299.5 450.47,-280.5 344.47,-280.5"/>
<text text-anchor="middle" x="397.47" y="-287.5" font-family="Helvetica,sans-Serif" font-size="10.00">K_GlobalHeader.hpp</text>
</a>
</g>
</g>
<!-- Node10&#45;&gt;Node11 -->
<g id="edge12" class="edge">
<title>Node10&#45;&gt;Node11</title>
<path fill="none" stroke="midnightblue" d="M391,-326.1C390.37,-317.14 390.81,-306.86 392.34,-299.75"/>
<polygon fill="midnightblue" stroke="midnightblue" points="387.54,-326.62 392.31,-336.08 394.48,-325.71 387.54,-326.62"/>
</g>
<!-- Node18 -->
<g id="node18" class="node">
<title>Node18</title>
<g id="a_node18"><a xlink:href="../../df/deb/_k___helper_8cpp.html" target="_top" xlink:title="Help functions used by several .cpp files.">
<polygon fill="none" stroke="black" points="693.97,-280.5 693.97,-299.5 768.97,-299.5 768.97,-280.5 693.97,-280.5"/>
<text text-anchor="middle" x="731.47" y="-287.5" font-family="Helvetica,sans-Serif" font-size="10.00">K_Helper.cpp</text>
</a>
</g>
</g>
<!-- Node10&#45;&gt;Node18 -->
<g id="edge29" class="edge">
<title>Node10&#45;&gt;Node18</title>
<path fill="none" stroke="midnightblue" d="M445.36,-337.55C501.49,-328.78 597.29,-313.67 679.47,-300 684.08,-299.23 688.92,-298.42 693.71,-297.6"/>
<polygon fill="midnightblue" stroke="midnightblue" points="444.7,-334.12 435.36,-339.12 445.78,-341.03 444.7,-334.12"/>
</g>
<!-- Node11&#45;&gt;Node2 -->
<g id="edge20" class="edge">
<title>Node11&#45;&gt;Node2</title>
<path fill="none" stroke="midnightblue" d="M341.62,-278.6C286.82,-268.4 204.24,-253.02 153.21,-243.52"/>
<polygon fill="midnightblue" stroke="midnightblue" points="341.05,-282.05 351.52,-280.44 342.33,-275.17 341.05,-282.05"/>
</g>
<!-- Node11&#45;&gt;Node4 -->
<g id="edge23" class="edge">
<title>Node11&#45;&gt;Node4</title>
<path fill="none" stroke="midnightblue" d="M333.95,-287.15C296.15,-282.92 249.47,-271.81 217.47,-244 182.23,-213.37 171.98,-153.69 169.32,-131.54"/>
<polygon fill="midnightblue" stroke="midnightblue" points="334.07,-290.68 344.36,-288.17 334.75,-283.71 334.07,-290.68"/>
</g>
<!-- Node11&#45;&gt;Node5 -->
<g id="edge22" class="edge">
<title>Node11&#45;&gt;Node5</title>
<path fill="none" stroke="midnightblue" d="M358.91,-276.55C341.82,-269.37 322.65,-258.77 309.47,-244 264.7,-193.81 268.23,-103.85 270.59,-75.68"/>
<polygon fill="midnightblue" stroke="midnightblue" points="358.08,-279.99 368.67,-280.39 360.64,-273.47 358.08,-279.99"/>
</g>
<!-- Node11&#45;&gt;Node8 -->
<g id="edge25" class="edge">
<title>Node11&#45;&gt;Node8</title>
<path fill="none" stroke="midnightblue" d="M460.62,-280.35C512.8,-269.25 582.25,-244.17 607.47,-188 618.57,-163.3 586.28,-142.59 563.62,-131.57"/>
<polygon fill="midnightblue" stroke="midnightblue" points="459.88,-276.93 450.76,-282.33 461.25,-283.79 459.88,-276.93"/>
</g>
<!-- Node11&#45;&gt;Node10 -->
<g id="edge24" class="edge">
<title>Node11&#45;&gt;Node10</title>
<path fill="none" stroke="midnightblue" d="M403.93,-309.69C404.58,-318.64 404.15,-328.93 402.64,-336.08"/>
<polygon fill="midnightblue" stroke="midnightblue" points="407.39,-309.2 402.6,-299.75 400.46,-310.13 407.39,-309.2"/>
</g>
<!-- Node12 -->
<g id="node12" class="node">
<title>Node12</title>
<g id="a_node12"><a xlink:href="../../d8/d1e/_k___cache_8hpp.html" target="_top" xlink:title="Header for K_Cache.cpp.">
<polygon fill="none" stroke="black" points="460.97,-224.5 460.97,-243.5 535.97,-243.5 535.97,-224.5 460.97,-224.5"/>
<text text-anchor="middle" x="498.47" y="-231.5" font-family="Helvetica,sans-Serif" font-size="10.00">K_Cache.hpp</text>
</a>
</g>
</g>
<!-- Node11&#45;&gt;Node12 -->
<g id="edge13" class="edge">
<title>Node11&#45;&gt;Node12</title>
<path fill="none" stroke="midnightblue" d="M422.55,-275.59C441.23,-265.61 466.18,-252.27 482.28,-243.65"/>
<polygon fill="midnightblue" stroke="midnightblue" points="420.87,-272.52 413.7,-280.32 424.17,-278.7 420.87,-272.52"/>
</g>
<!-- Node14 -->
<g id="node14" class="node">
<title>Node14</title>
<g id="a_node14"><a xlink:href="../../d8/d22/_k___configuration_8hpp.html" target="_top" xlink:title="Header for K_Configuration.cpp.">
<polygon fill="none" stroke="black" points="401.47,-168.5 401.47,-187.5 505.47,-187.5 505.47,-168.5 401.47,-168.5"/>
<text text-anchor="middle" x="453.47" y="-175.5" font-family="Helvetica,sans-Serif" font-size="10.00">K_Configuration.hpp</text>
</a>
</g>
</g>
<!-- Node11&#45;&gt;Node14 -->
<g id="edge21" class="edge">
<title>Node11&#45;&gt;Node14</title>
<path fill="none" stroke="midnightblue" d="M406.47,-271.32C418.67,-247.37 439.96,-205.55 449.1,-187.59"/>
<polygon fill="midnightblue" stroke="midnightblue" points="403.28,-269.87 401.87,-280.37 409.52,-273.04 403.28,-269.87"/>
</g>
<!-- Node16 -->
<g id="node16" class="node">
<title>Node16</title>
<g id="a_node16"><a xlink:href="../../d6/db7/_k___whitelist_8hpp.html" target="_top" xlink:title="Header for K_Whitelist.cpp.">
<polygon fill="none" stroke="black" points="318.47,-224.5 318.47,-243.5 404.47,-243.5 404.47,-224.5 318.47,-224.5"/>
<text text-anchor="middle" x="361.47" y="-231.5" font-family="Helvetica,sans-Serif" font-size="10.00">K_Whitelist.hpp</text>
</a>
</g>
</g>
<!-- Node11&#45;&gt;Node16 -->
<g id="edge26" class="edge">
<title>Node11&#45;&gt;Node16</title>
<path fill="none" stroke="midnightblue" d="M385.85,-271.57C379.66,-262.27 372.3,-251.25 367.31,-243.75"/>
<polygon fill="midnightblue" stroke="midnightblue" points="383.07,-273.7 391.53,-280.08 388.89,-269.82 383.07,-273.7"/>
</g>
<!-- Node13 -->
<g id="node13" class="node">
<title>Node13</title>
<g id="a_node13"><a xlink:href="../../dd/d28/_k___cache_8cpp.html" target="_top" xlink:title="Store hash of signed and unsigned executable previously scanned.">
<polygon fill="none" stroke="black" points="523.97,-168.5 523.97,-187.5 598.97,-187.5 598.97,-168.5 523.97,-168.5"/>
<text text-anchor="middle" x="561.47" y="-175.5" font-family="Helvetica,sans-Serif" font-size="10.00">K_Cache.cpp</text>
</a>
</g>
</g>
<!-- Node12&#45;&gt;Node13 -->
<g id="edge14" class="edge">
<title>Node12&#45;&gt;Node13</title>
<path fill="none" stroke="midnightblue" d="M516.51,-217.54C527.74,-207.91 541.79,-195.87 551.17,-187.83"/>
<polygon fill="midnightblue" stroke="midnightblue" points="513.91,-215.16 508.59,-224.32 518.46,-220.47 513.91,-215.16"/>
</g>
<!-- Node12&#45;&gt;Node14 -->
<g id="edge15" class="edge">
<title>Node12&#45;&gt;Node14</title>
<path fill="none" stroke="midnightblue" d="M484.43,-216.14C476.58,-206.74 467.14,-195.4 460.76,-187.75"/>
<polygon fill="midnightblue" stroke="midnightblue" points="481.95,-218.64 491.04,-224.08 487.33,-214.16 481.95,-218.64"/>
</g>
<!-- Node14&#45;&gt;Node4 -->
<g id="edge18" class="edge">
<title>Node14&#45;&gt;Node4</title>
<path fill="none" stroke="midnightblue" d="M398.26,-166.54C340.52,-155.6 251.68,-138.77 203.11,-129.56"/>
<polygon fill="midnightblue" stroke="midnightblue" points="397.84,-170.02 408.31,-168.44 399.14,-163.14 397.84,-170.02"/>
</g>
<!-- Node14&#45;&gt;Node5 -->
<g id="edge17" class="edge">
<title>Node14&#45;&gt;Node5</title>
<path fill="none" stroke="midnightblue" d="M425.04,-164.14C407.03,-155.67 383.45,-143.96 363.47,-132 332.93,-113.72 299.32,-88.58 282.43,-75.57"/>
<polygon fill="midnightblue" stroke="midnightblue" points="423.87,-167.46 434.41,-168.5 426.82,-161.11 423.87,-167.46"/>
</g>
<!-- Node14&#45;&gt;Node8 -->
<g id="edge19" class="edge">
<title>Node14&#45;&gt;Node8</title>
<path fill="none" stroke="midnightblue" d="M476.51,-163.18C493.07,-153.24 514.89,-140.15 529.05,-131.65"/>
<polygon fill="midnightblue" stroke="midnightblue" points="474.71,-160.18 467.93,-168.32 478.31,-166.18 474.71,-160.18"/>
</g>
<!-- Node15 -->
<g id="node15" class="node">
<title>Node15</title>
<g id="a_node15"><a xlink:href="../../dc/da7/_k___configuration_8cpp.html" target="_top" xlink:title="Load the configuration of the driver.">
<polygon fill="none" stroke="black" points="372.47,-112.5 372.47,-131.5 476.47,-131.5 476.47,-112.5 372.47,-112.5"/>
<text text-anchor="middle" x="424.47" y="-119.5" font-family="Helvetica,sans-Serif" font-size="10.00">K_Configuration.cpp</text>
</a>
</g>
</g>
<!-- Node14&#45;&gt;Node15 -->
<g id="edge16" class="edge">
<title>Node14&#45;&gt;Node15</title>
<path fill="none" stroke="midnightblue" d="M443.8,-158.98C438.87,-149.82 433.11,-139.09 429.17,-131.75"/>
<polygon fill="midnightblue" stroke="midnightblue" points="440.87,-160.93 448.68,-168.08 447.04,-157.62 440.87,-160.93"/>
</g>
<!-- Node16&#45;&gt;Node14 -->
<g id="edge27" class="edge">
<title>Node16&#45;&gt;Node14</title>
<path fill="none" stroke="midnightblue" d="M385.02,-219.18C401.95,-209.24 424.25,-196.15 438.73,-187.65"/>
<polygon fill="midnightblue" stroke="midnightblue" points="383.11,-216.24 376.25,-224.32 386.65,-222.28 383.11,-216.24"/>
</g>
<!-- Node17 -->
<g id="node17" class="node">
<title>Node17</title>
<g id="a_node17"><a xlink:href="../../d2/de6/_k___whitelist_8cpp.html" target="_top" xlink:title="Store paths of autorized files and folders.">
<polygon fill="none" stroke="black" points="297.47,-168.5 297.47,-187.5 383.47,-187.5 383.47,-168.5 297.47,-168.5"/>
<text text-anchor="middle" x="340.47" y="-175.5" font-family="Helvetica,sans-Serif" font-size="10.00">K_Whitelist.cpp</text>
</a>
</g>
</g>
<!-- Node16&#45;&gt;Node17 -->
<g id="edge28" class="edge">
<title>Node16&#45;&gt;Node17</title>
<path fill="none" stroke="midnightblue" d="M354.35,-214.69C350.81,-205.59 346.7,-195.01 343.88,-187.75"/>
<polygon fill="midnightblue" stroke="midnightblue" points="351.12,-216.03 358,-224.08 357.64,-213.49 351.12,-216.03"/>
</g>
<!-- Node20 -->
<g id="node20" class="node">
<title>Node20</title>
<g id="a_node20"><a xlink:href="../../d6/da6/_u___communication_8cpp.html" target="_top" xlink:title="Manage the communication with the driver (Connect|Reply|ListenerThread|WorkerThread)">
<polygon fill="none" stroke="black" points="786.97,-280.5 786.97,-299.5 901.97,-299.5 901.97,-280.5 786.97,-280.5"/>
<text text-anchor="middle" x="844.47" y="-287.5" font-family="Helvetica,sans-Serif" font-size="10.00">U_Communication.cpp</text>
</a>
</g>
</g>
<!-- Node19&#45;&gt;Node20 -->
<g id="edge32" class="edge">
<title>Node19&#45;&gt;Node20</title>
<path fill="none" stroke="midnightblue" d="M931.99,-332.1C910.51,-322.01 881.25,-308.27 862.61,-299.52"/>
<polygon fill="midnightblue" stroke="midnightblue" points="930.71,-335.36 941.25,-336.44 933.69,-329.02 930.71,-335.36"/>
</g>
<!-- Node21 -->
<g id="node21" class="node">
<title>Node21</title>
<g id="a_node21"><a xlink:href="../../d2/de1/_u___service_8hpp.html" target="_top" xlink:title="Header for U_Service.cpp.">
<polygon fill="none" stroke="black" points="919.97,-280.5 919.97,-299.5 998.97,-299.5 998.97,-280.5 919.97,-280.5"/>
<text text-anchor="middle" x="959.47" y="-287.5" font-family="Helvetica,sans-Serif" font-size="10.00">U_Service.hpp</text>
</a>
</g>
</g>
<!-- Node19&#45;&gt;Node21 -->
<g id="edge33" class="edge">
<title>Node19&#45;&gt;Node21</title>
<path fill="none" stroke="midnightblue" d="M953,-326.1C952.37,-317.14 952.81,-306.86 954.34,-299.75"/>
<polygon fill="midnightblue" stroke="midnightblue" points="949.54,-326.62 954.31,-336.08 956.48,-325.71 949.54,-326.62"/>
</g>
<!-- Node21&#45;&gt;Node19 -->
<g id="edge34" class="edge">
<title>Node21&#45;&gt;Node19</title>
<path fill="none" stroke="midnightblue" d="M965.93,-309.69C966.58,-318.64 966.15,-328.93 964.64,-336.08"/>
<polygon fill="midnightblue" stroke="midnightblue" points="969.39,-309.2 964.6,-299.75 962.46,-310.13 969.39,-309.2"/>
</g>
<!-- Node22 -->
<g id="node22" class="node">
<title>Node22</title>
<g id="a_node22"><a xlink:href="../../d6/de0/_u___configuration_8hpp.html" target="_top" xlink:title="Header for U_Configuration.cpp.">
<polygon fill="none" stroke="black" points="817.47,-112.5 817.47,-131.5 921.47,-131.5 921.47,-112.5 817.47,-112.5"/>
<text text-anchor="middle" x="869.47" y="-119.5" font-family="Helvetica,sans-Serif" font-size="10.00">U_Configuration.hpp</text>
</a>
</g>
</g>
<!-- Node21&#45;&gt;Node22 -->
<g id="edge35" class="edge">
<title>Node21&#45;&gt;Node22</title>
<path fill="none" stroke="midnightblue" d="M933.18,-274.55C922.84,-266.41 911.92,-255.56 904.47,-244 879.89,-205.86 866.63,-152.12 866.68,-131.51"/>
<polygon fill="midnightblue" stroke="midnightblue" points="931.12,-277.39 941.26,-280.47 935.26,-271.74 931.12,-277.39"/>
</g>
<!-- Node24 -->
<g id="node24" class="node">
<title>Node24</title>
<g id="a_node24"><a xlink:href="../../d5/d09/_u___helper_8hpp.html" target="_top" xlink:title="Header for U_Helper.cpp.">
<polygon fill="none" stroke="black" points="921.97,-224.5 921.97,-243.5 996.97,-243.5 996.97,-224.5 921.97,-224.5"/>
<text text-anchor="middle" x="959.47" y="-231.5" font-family="Helvetica,sans-Serif" font-size="10.00">U_Helper.hpp</text>
</a>
</g>
</g>
<!-- Node21&#45;&gt;Node24 -->
<g id="edge38" class="edge">
<title>Node21&#45;&gt;Node24</title>
<path fill="none" stroke="midnightblue" d="M953,-270.1C952.37,-261.14 952.81,-250.86 954.34,-243.75"/>
<polygon fill="midnightblue" stroke="midnightblue" points="949.54,-270.62 954.31,-280.08 956.48,-269.71 949.54,-270.62"/>
</g>
<!-- Node30 -->
<g id="node30" class="node">
<title>Node30</title>
<g id="a_node30"><a xlink:href="../../d7/dc4/_u___service_8cpp.html" target="_top" xlink:title="Entrypoint of the process &amp; the service.">
<polygon fill="none" stroke="black" points="729.97,-224.5 729.97,-243.5 808.97,-243.5 808.97,-224.5 729.97,-224.5"/>
<text text-anchor="middle" x="769.47" y="-231.5" font-family="Helvetica,sans-Serif" font-size="10.00">U_Service.cpp</text>
</a>
</g>
</g>
<!-- Node21&#45;&gt;Node30 -->
<g id="edge51" class="edge">
<title>Node21&#45;&gt;Node30</title>
<path fill="none" stroke="midnightblue" d="M919.71,-277.7C883.85,-267.51 831.9,-252.74 799.44,-243.52"/>
<polygon fill="midnightblue" stroke="midnightblue" points="918.79,-281.08 929.37,-280.44 920.7,-274.34 918.79,-281.08"/>
</g>
<!-- Node22&#45;&gt;Node21 -->
<g id="edge37" class="edge">
<title>Node22&#45;&gt;Node21</title>
<path fill="none" stroke="midnightblue" d="M879.38,-141.03C888.23,-165.72 901.06,-210.78 922.47,-244 931.91,-258.65 946.93,-272.15 955.18,-280.47"/>
<polygon fill="midnightblue" stroke="midnightblue" points="882.57,-139.57 875.7,-131.51 876.04,-142.1 882.57,-139.57"/>
</g>
<!-- Node23 -->
<g id="node23" class="node">
<title>Node23</title>
<g id="a_node23"><a xlink:href="../../dd/da0/_u___configuration_8cpp.html" target="_top" xlink:title="Set all the needed configuration for the driver and the user&#45;mode service.">
<polygon fill="none" stroke="black" points="817.47,-56.5 817.47,-75.5 921.47,-75.5 921.47,-56.5 817.47,-56.5"/>
<text text-anchor="middle" x="869.47" y="-63.5" font-family="Helvetica,sans-Serif" font-size="10.00">U_Configuration.cpp</text>
</a>
</g>
</g>
<!-- Node22&#45;&gt;Node23 -->
<g id="edge36" class="edge">
<title>Node22&#45;&gt;Node23</title>
<path fill="none" stroke="midnightblue" d="M869.47,-101.8C869.47,-92.91 869.47,-82.78 869.47,-75.75"/>
<polygon fill="midnightblue" stroke="midnightblue" points="865.97,-102.08 869.47,-112.08 872.97,-102.08 865.97,-102.08"/>
</g>
<!-- Node24&#45;&gt;Node21 -->
<g id="edge50" class="edge">
<title>Node24&#45;&gt;Node21</title>
<path fill="none" stroke="midnightblue" d="M965.93,-253.69C966.58,-262.64 966.15,-272.93 964.64,-280.08"/>
<polygon fill="midnightblue" stroke="midnightblue" points="969.39,-253.2 964.6,-243.75 962.46,-254.13 969.39,-253.2"/>
</g>
<!-- Node24&#45;&gt;Node22 -->
<g id="edge39" class="edge">
<title>Node24&#45;&gt;Node22</title>
<path fill="none" stroke="midnightblue" d="M941.81,-217.31C932.88,-208.99 922.13,-198.37 913.47,-188 897.75,-169.17 882.38,-144.69 874.65,-131.81"/>
<polygon fill="midnightblue" stroke="midnightblue" points="939.64,-220.06 949.38,-224.22 944.36,-214.89 939.64,-220.06"/>
</g>
<!-- Node25 -->
<g id="node25" class="node">
<title>Node25</title>
<g id="a_node25"><a xlink:href="../../d3/de9/_u___controller_8hpp.html" target="_top" xlink:title="Header for U_Controller.cpp.">
<polygon fill="none" stroke="black" points="1101.97,-168.5 1101.97,-187.5 1190.97,-187.5 1190.97,-168.5 1101.97,-168.5"/>
<text text-anchor="middle" x="1146.47" y="-175.5" font-family="Helvetica,sans-Serif" font-size="10.00">U_Controller.hpp</text>
</a>
</g>
</g>
<!-- Node24&#45;&gt;Node25 -->
<g id="edge40" class="edge">
<title>Node24&#45;&gt;Node25</title>
<path fill="none" stroke="midnightblue" d="M999.06,-221.57C1034.34,-211.38 1085.17,-196.7 1116.98,-187.52"/>
<polygon fill="midnightblue" stroke="midnightblue" points="997.74,-218.31 989.1,-224.44 999.68,-225.03 997.74,-218.31"/>
</g>
<!-- Node27 -->
<g id="node27" class="node">
<title>Node27</title>
<g id="a_node27"><a xlink:href="../../d8/d69/_u___helper_8cpp.html" target="_top" xlink:title="Help function used by several .cpp files.">
<polygon fill="none" stroke="black" points="921.97,-168.5 921.97,-187.5 996.97,-187.5 996.97,-168.5 921.97,-168.5"/>
<text text-anchor="middle" x="959.47" y="-175.5" font-family="Helvetica,sans-Serif" font-size="10.00">U_Helper.cpp</text>
</a>
</g>
</g>
<!-- Node24&#45;&gt;Node27 -->
<g id="edge43" class="edge">
<title>Node24&#45;&gt;Node27</title>
<path fill="none" stroke="midnightblue" d="M959.47,-213.8C959.47,-204.91 959.47,-194.78 959.47,-187.75"/>
<polygon fill="midnightblue" stroke="midnightblue" points="955.97,-214.08 959.47,-224.08 962.97,-214.08 955.97,-214.08"/>
</g>
<!-- Node28 -->
<g id="node28" class="node">
<title>Node28</title>
<g id="a_node28"><a xlink:href="../../d3/d40/_u___logs_8hpp.html" target="_top" xlink:title="Header for U_Logs.cpp.">
<polygon fill="none" stroke="black" points="1015.47,-168.5 1015.47,-187.5 1083.47,-187.5 1083.47,-168.5 1015.47,-168.5"/>
<text text-anchor="middle" x="1049.47" y="-175.5" font-family="Helvetica,sans-Serif" font-size="10.00">U_Logs.hpp</text>
</a>
</g>
</g>
<!-- Node24&#45;&gt;Node28 -->
<g id="edge44" class="edge">
<title>Node24&#45;&gt;Node28</title>
<path fill="none" stroke="midnightblue" d="M977.39,-218.62C992.64,-208.76 1014.23,-195.99 1029.94,-187.65"/>
<polygon fill="midnightblue" stroke="midnightblue" points="975.2,-215.87 968.82,-224.32 979.08,-221.7 975.2,-215.87"/>
</g>
<!-- Node25&#45;&gt;Node21 -->
<g id="edge42" class="edge">
<title>Node25&#45;&gt;Node21</title>
<path fill="none" stroke="midnightblue" d="M1122.77,-192.94C1083.57,-216 1006.37,-261.41 974.15,-280.37"/>
<polygon fill="midnightblue" stroke="midnightblue" points="1125.02,-195.68 1131.87,-187.59 1121.47,-189.64 1125.02,-195.68"/>
</g>
<!-- Node26 -->
<g id="node26" class="node">
<title>Node26</title>
<g id="a_node26"><a xlink:href="../../d8/d62/_u___controller_8cpp.html" target="_top" xlink:title="Controll the service/driver (Install|Start|Stop|Delete|Query)">
<polygon fill="none" stroke="black" points="1101.97,-112.5 1101.97,-131.5 1190.97,-131.5 1190.97,-112.5 1101.97,-112.5"/>
<text text-anchor="middle" x="1146.47" y="-119.5" font-family="Helvetica,sans-Serif" font-size="10.00">U_Controller.cpp</text>
</a>
</g>
</g>
<!-- Node25&#45;&gt;Node26 -->
<g id="edge41" class="edge">
<title>Node25&#45;&gt;Node26</title>
<path fill="none" stroke="midnightblue" d="M1146.47,-157.8C1146.47,-148.91 1146.47,-138.78 1146.47,-131.75"/>
<polygon fill="midnightblue" stroke="midnightblue" points="1142.97,-158.08 1146.47,-168.08 1149.97,-158.08 1142.97,-158.08"/>
</g>
<!-- Node28&#45;&gt;Node19 -->
<g id="edge45" class="edge">
<title>Node28&#45;&gt;Node19</title>
<path fill="none" stroke="midnightblue" d="M1046.21,-197.47C1041.18,-222.35 1029.79,-267.29 1008.47,-300 998.76,-314.9 983,-328.16 971.98,-336.36"/>
<polygon fill="midnightblue" stroke="midnightblue" points="1049.66,-198.04 1048.09,-187.56 1042.79,-196.73 1049.66,-198.04"/>
</g>
<!-- Node28&#45;&gt;Node21 -->
<g id="edge49" class="edge">
<title>Node28&#45;&gt;Node21</title>
<path fill="none" stroke="midnightblue" d="M1039.3,-196.61C1031.15,-210.13 1019.03,-228.96 1006.47,-244 995.03,-257.7 979.81,-271.63 969.83,-280.29"/>
<polygon fill="midnightblue" stroke="midnightblue" points="1042.41,-198.23 1044.48,-187.84 1036.38,-194.67 1042.41,-198.23"/>
</g>
<!-- Node28&#45;&gt;Node22 -->
<g id="edge46" class="edge">
<title>Node28&#45;&gt;Node22</title>
<path fill="none" stroke="midnightblue" d="M1011.36,-165.57C977.41,-155.38 928.48,-140.7 897.86,-131.52"/>
<polygon fill="midnightblue" stroke="midnightblue" points="1010.37,-168.92 1020.95,-168.44 1012.38,-162.22 1010.37,-168.92"/>
</g>
<!-- Node28&#45;&gt;Node24 -->
<g id="edge47" class="edge">
<title>Node28&#45;&gt;Node24</title>
<path fill="none" stroke="midnightblue" d="M1031.59,-193.35C1016.35,-203.21 994.76,-215.98 979.05,-224.32"/>
<polygon fill="midnightblue" stroke="midnightblue" points="1033.77,-196.11 1040.16,-187.65 1029.89,-190.28 1033.77,-196.11"/>
</g>
<!-- Node29 -->
<g id="node29" class="node">
<title>Node29</title>
<g id="a_node29"><a xlink:href="../../da/d56/_u___logs_8cpp.html" target="_top" xlink:title="Report Event to ETW.">
<polygon fill="none" stroke="black" points="1015.47,-112.5 1015.47,-131.5 1083.47,-131.5 1083.47,-112.5 1015.47,-112.5"/>
<text text-anchor="middle" x="1049.47" y="-119.5" font-family="Helvetica,sans-Serif" font-size="10.00">U_Logs.cpp</text>
</a>
</g>
</g>
<!-- Node28&#45;&gt;Node29 -->
<g id="edge48" class="edge">
<title>Node28&#45;&gt;Node29</title>
<path fill="none" stroke="midnightblue" d="M1049.47,-157.8C1049.47,-148.91 1049.47,-138.78 1049.47,-131.75"/>
<polygon fill="midnightblue" stroke="midnightblue" points="1045.97,-158.08 1049.47,-168.08 1052.97,-158.08 1045.97,-158.08"/>
</g>
</g>
</svg>
        <g id="navigator" transform="translate(0 0)" fill="#404254">
                <rect fill="#f2f5e9" fill-opacity="0.5" stroke="#606060" stroke-width=".5" x="0" y="0" width="60" height="60"/>
                <use id="zoomplus" xlink:href="#zoomPlus" x="17" y="9" onmousedown="handleZoom(evt,'in')"/>
                <use id="zoomminus" xlink:href="#zoomMin" x="42" y="9" onmousedown="handleZoom(evt,'out')"/>
                <use id="reset" xlink:href="#resetDef" x="30" y="36" onmousedown="handleReset()"/>
                <g id="arrowUp" xlink:href="#dirArrow" transform="translate(30 24)" onmousedown="handlePan(0,-1)">
                  <use xlink:href="#rim" fill="#404040">
                        <set attributeName="fill" to="#808080" begin="arrowUp.mouseover" end="arrowUp.mouseout"/>
                  </use>
                  <path fill="none" stroke="white" stroke-width="1.5" d="M0,-3.0v7 M-2.5,-0.5L0,-3.0L2.5,-0.5"/>
                </g>
                <g id="arrowRight" xlink:href="#dirArrow" transform="rotate(90) translate(36 -43)" onmousedown="handlePan(1,0)">
                  <use xlink:href="#rim" fill="#404040">
                        <set attributeName="fill" to="#808080" begin="arrowRight.mouseover" end="arrowRight.mouseout"/>
                  </use>
                  <path fill="none" stroke="white" stroke-width="1.5" d="M0,-3.0v7 M-2.5,-0.5L0,-3.0L2.5,-0.5"/>
                </g>
                <g id="arrowDown" xlink:href="#dirArrow" transform="rotate(180) translate(-30 -48)" onmousedown="handlePan(0,1)">
                  <use xlink:href="#rim" fill="#404040">
                        <set attributeName="fill" to="#808080" begin="arrowDown.mouseover" end="arrowDown.mouseout"/>
                  </use>
                  <path fill="none" stroke="white" stroke-width="1.5" d="M0,-3.0v7 M-2.5,-0.5L0,-3.0L2.5,-0.5"/>
                </g>
                <g id="arrowLeft" xlink:href="#dirArrow" transform="rotate(270) translate(-36 17)" onmousedown="handlePan(-1,0)">
                  <use xlink:href="#rim" fill="#404040">
                        <set attributeName="fill" to="#808080" begin="arrowLeft.mouseover" end="arrowLeft.mouseout"/>
                  </use>
                  <path fill="none" stroke="white" stroke-width="1.5" d="M0,-3.0v7 M-2.5,-0.5L0,-3.0L2.5,-0.5"/>
                </g>
        </g>
        <svg viewBox="0 0 15 15" width="100%" height="30px" preserveAspectRatio="xMaxYMin meet">
         <g id="arrow_out" transform="scale(0.3 0.3)">
          <a xlink:href="_shared_defs_8hpp__dep__incl_org.svg" target="_base">
           <rect id="button" ry="5" rx="5" y="6" x="6" height="38" width="38"
                fill="#f2f5e9" fill-opacity="0.5" stroke="#606060" stroke-width="1.0"/>
           <path id="arrow"
             d="M 11.500037,31.436501 C 11.940474,20.09759 22.043105,11.32322 32.158766,21.979434 L 37.068811,17.246167 C 37.068811,17.246167 37.088388,32 37.088388,32 L 22.160133,31.978069 C 22.160133,31.978069 26.997745,27.140456 26.997745,27.140456 C 18.528582,18.264221 13.291696,25.230495 11.500037,31.436501 z"
             style="fill:#404040;"/>
          </a>
         </g>
        </svg>
</svg>
