<?xml version="1.0" encoding="UTF-8" standalone="no"?>
<!DOCTYPE svg PUBLIC "-//W3C//DTD SVG 1.1//EN"
 "http://www.w3.org/Graphics/SVG/1.1/DTD/svg11.dtd">
<!-- Generated by graphviz version 5.0.0 (20220707.1540)
 -->
<!-- Title: K_COMMUNICATION::_DisconnectionCallback Pages: 1 -->
<svg width="617pt" height="39pt"
 viewBox="0.00 0.00 617.00 39.00" xmlns="http://www.w3.org/2000/svg" xmlns:xlink="http://www.w3.org/1999/xlink">
<g id="graph0" class="graph" transform="scale(1 1) rotate(0) translate(4 35)">
<title>K_COMMUNICATION::_DisconnectionCallback</title>
<!-- Node1 -->
<g id="node1" class="node">
<title>Node1</title>
<g id="a_node1"><a xlink:title="The disconnection notify callback is called when a user mode application disconnect from the server p...">
<polygon fill="#bfbfbf" stroke="black" points="426,-0.5 426,-30.5 609,-30.5 609,-0.5 426,-0.5"/>
<text text-anchor="start" x="434" y="-18.5" font-family="Helvetica,sans-Serif" font-size="10.00">K_COMMUNICATION::_Disconnection</text>
<text text-anchor="middle" x="517.5" y="-7.5" font-family="Helvetica,sans-Serif" font-size="10.00">Callback</text>
</a>
</g>
</g>
<!-- Node2 -->
<g id="node2" class="node">
<title>Node2</title>
<g id="a_node2"><a xlink:href="../../d5/d00/class_k___c_o_m_m_u_n_i_c_a_t_i_o_n.html#afa2b920efeb5d740d33f1ff7d443059f" target="_top" xlink:title="Initialize the communicaton.">
<polygon fill="none" stroke="black" points="238,-6 238,-25 390,-25 390,-6 238,-6"/>
<text text-anchor="middle" x="314" y="-13" font-family="Helvetica,sans-Serif" font-size="10.00">K_COMMUNICATION::Initialize</text>
</a>
</g>
</g>
<!-- Node1&#45;&gt;Node2 -->
<g id="edge1" class="edge">
<title>Node1&#45;&gt;Node2</title>
<path fill="none" stroke="midnightblue" d="M415.69,-15.5C407.1,-15.5 398.5,-15.5 390.15,-15.5"/>
<polygon fill="midnightblue" stroke="midnightblue" points="415.77,-19 425.77,-15.5 415.77,-12 415.77,-19"/>
</g>
<!-- Node3 -->
<g id="node3" class="node">
<title>Node3</title>
<g id="a_node3"><a xlink:href="../../da/d00/class_k___f_i_l_t_e_r.html#a67527d5cd60280cd85245421ee9f657d" target="_top" xlink:title="Initialize the filter.">
<polygon fill="none" stroke="black" points="100,-6 100,-25 202,-25 202,-6 100,-6"/>
<text text-anchor="middle" x="151" y="-13" font-family="Helvetica,sans-Serif" font-size="10.00">K_FILTER::Initialize</text>
</a>
</g>
</g>
<!-- Node2&#45;&gt;Node3 -->
<g id="edge2" class="edge">
<title>Node2&#45;&gt;Node3</title>
<path fill="none" stroke="midnightblue" d="M227.59,-15.5C219,-15.5 210.49,-15.5 202.44,-15.5"/>
<polygon fill="midnightblue" stroke="midnightblue" points="227.69,-19 237.69,-15.5 227.69,-12 227.69,-19"/>
</g>
<!-- Node4 -->
<g id="node4" class="node">
<title>Node4</title>
<g id="a_node4"><a xlink:href="../../d3/d00/_k___driver_8cpp.html#abd482ac5174a4365b1fa1c26e463c60d" target="_top" xlink:title="Main Driver Entry Routine.">
<polygon fill="none" stroke="black" points="0,-6 0,-25 64,-25 64,-6 0,-6"/>
<text text-anchor="middle" x="32" y="-13" font-family="Helvetica,sans-Serif" font-size="10.00">DriverEntry</text>
</a>
</g>
</g>
<!-- Node3&#45;&gt;Node4 -->
<g id="edge3" class="edge">
<title>Node3&#45;&gt;Node4</title>
<path fill="none" stroke="midnightblue" d="M89.5,-15.5C80.79,-15.5 72.14,-15.5 64.33,-15.5"/>
<polygon fill="midnightblue" stroke="midnightblue" points="89.7,-19 99.7,-15.5 89.7,-12 89.7,-19"/>
</g>
</g>
</svg>
