<?xml version="1.0" encoding="UTF-8" standalone="no"?>
<!DOCTYPE svg PUBLIC "-//W3C//DTD SVG 1.1//EN"
 "http://www.w3.org/Graphics/SVG/1.1/DTD/svg11.dtd">
<!-- Generated by graphviz version 5.0.0 (20220707.1540)
 -->
<!-- Title: U_COMMUNICATION::_THREAD_PARAMETERS Pages: 1 -->
<svg width="409pt" height="403pt"
 viewBox="0.00 0.00 408.50 403.00" xmlns="http://www.w3.org/2000/svg" xmlns:xlink="http://www.w3.org/1999/xlink">
<g id="graph0" class="graph" transform="scale(1 1) rotate(0) translate(4 399)">
<title>U_COMMUNICATION::_THREAD_PARAMETERS</title>
<!-- Node1 -->
<g id="node1" class="node">
<title>Node1</title>
<g id="a_node1"><a xlink:title=" ">
<polygon fill="#bfbfbf" stroke="black" points="137,-0.5 137,-68.5 298,-68.5 298,-0.5 137,-0.5"/>
<text text-anchor="start" x="145" y="-56.5" font-family="Helvetica,sans-Serif" font-size="10.00">U_COMMUNICATION::_THREAD</text>
<text text-anchor="middle" x="217.5" y="-45.5" font-family="Helvetica,sans-Serif" font-size="10.00">_PARAMETERS</text>
<polyline fill="none" stroke="black" points="137,-38.5 298,-38.5 "/>
<text text-anchor="middle" x="217.5" y="-26.5" font-family="Helvetica,sans-Serif" font-size="10.00"> </text>
<polyline fill="none" stroke="black" points="137,-19.5 298,-19.5 "/>
<text text-anchor="middle" x="217.5" y="-7.5" font-family="Helvetica,sans-Serif" font-size="10.00"> </text>
</a>
</g>
</g>
<!-- Node2 -->
<g id="node2" class="node">
<title>Node2</title>
<g id="a_node2"><a xlink:title=" ">
<polygon fill="none" stroke="black" points="57.5,-127.5 57.5,-184.5 113.5,-184.5 113.5,-127.5 57.5,-127.5"/>
<text text-anchor="middle" x="85.5" y="-172.5" font-family="Helvetica,sans-Serif" font-size="10.00">HANDLE</text>
<polyline fill="none" stroke="black" points="57.5,-165.5 113.5,-165.5 "/>
<text text-anchor="middle" x="85.5" y="-153.5" font-family="Helvetica,sans-Serif" font-size="10.00"> </text>
<polyline fill="none" stroke="black" points="57.5,-146.5 113.5,-146.5 "/>
<text text-anchor="middle" x="85.5" y="-134.5" font-family="Helvetica,sans-Serif" font-size="10.00"> </text>
</a>
</g>
</g>
<!-- Node2&#45;&gt;Node1 -->
<g id="edge1" class="edge">
<title>Node2&#45;&gt;Node1</title>
<path fill="none" stroke="#404040" d="M109.74,-127.18C121.31,-114.45 135.63,-99.46 149.5,-87 153.51,-83.4 157.76,-79.77 162.09,-76.21"/>
<polygon fill="none" stroke="#404040" points="162.3,-76.05 164.48,-69.18 171.66,-68.55 169.48,-75.42 162.3,-76.05"/>
<text text-anchor="middle" x="181.5" y="-101" font-family="Helvetica,sans-Serif" font-size="10.00"> +hCompletion</text>
<text text-anchor="middle" x="181.5" y="-90" font-family="Helvetica,sans-Serif" font-size="10.00">+hPort</text>
</g>
<!-- Node3 -->
<g id="node3" class="node">
<title>Node3</title>
<g id="a_node3"><a xlink:href="../../d6/d01/struct_u___c_o_m_m_u_n_i_c_a_t_i_o_n_1_1___m_e_s_s_a_g_e.html" target="_top" xlink:title=" ">
<polygon fill="none" stroke="black" points="132,-127.5 132,-184.5 303,-184.5 303,-127.5 132,-127.5"/>
<text text-anchor="middle" x="217.5" y="-172.5" font-family="Helvetica,sans-Serif" font-size="10.00">U_COMMUNICATION::_MESSAGE</text>
<polyline fill="none" stroke="black" points="132,-165.5 303,-165.5 "/>
<text text-anchor="middle" x="217.5" y="-153.5" font-family="Helvetica,sans-Serif" font-size="10.00"> </text>
<polyline fill="none" stroke="black" points="132,-146.5 303,-146.5 "/>
<text text-anchor="middle" x="217.5" y="-134.5" font-family="Helvetica,sans-Serif" font-size="10.00"> </text>
</a>
</g>
</g>
<!-- Node3&#45;&gt;Node1 -->
<g id="edge2" class="edge">
<title>Node3&#45;&gt;Node1</title>
<path fill="none" stroke="#404040" d="M217.5,-127.28C217.5,-113.47 217.5,-96.4 217.5,-80.75"/>
<polygon fill="none" stroke="#404040" points="217.5,-80.59 213.5,-74.59 217.5,-68.59 221.5,-74.59 217.5,-80.59"/>
<text text-anchor="middle" x="231.5" y="-95.5" font-family="Helvetica,sans-Serif" font-size="10.00"> +Msg</text>
</g>
<!-- Node4 -->
<g id="node4" class="node">
<title>Node4</title>
<g id="a_node4"><a xlink:title=" ">
<polygon fill="none" stroke="black" points="0,-232.5 0,-289.5 149,-289.5 149,-232.5 0,-232.5"/>
<text text-anchor="middle" x="74.5" y="-277.5" font-family="Helvetica,sans-Serif" font-size="10.00">FILTER_MESSAGE_HEADER</text>
<polyline fill="none" stroke="black" points="0,-270.5 149,-270.5 "/>
<text text-anchor="middle" x="74.5" y="-258.5" font-family="Helvetica,sans-Serif" font-size="10.00"> </text>
<polyline fill="none" stroke="black" points="0,-251.5 149,-251.5 "/>
<text text-anchor="middle" x="74.5" y="-239.5" font-family="Helvetica,sans-Serif" font-size="10.00"> </text>
</a>
</g>
</g>
<!-- Node4&#45;&gt;Node3 -->
<g id="edge3" class="edge">
<title>Node4&#45;&gt;Node3</title>
<path fill="none" stroke="#404040" d="M100.16,-232.29C110.06,-222.41 121.8,-211.61 133.5,-203 139.16,-198.83 145.24,-194.79 151.45,-190.94"/>
<polygon fill="none" stroke="#404040" points="151.67,-190.81 154.77,-184.3 161.97,-184.65 158.87,-191.16 151.67,-190.81"/>
<text text-anchor="middle" x="173.5" y="-206" font-family="Helvetica,sans-Serif" font-size="10.00"> +messageHeader</text>
</g>
<!-- Node5 -->
<g id="node5" class="node">
<title>Node5</title>
<g id="a_node5"><a xlink:href="../../d4/d02/struct___d_a_t_a___t_r_a_n_s_m_i_t.html" target="_top" xlink:title=" ">
<polygon fill="none" stroke="black" points="167,-232.5 167,-289.5 268,-289.5 268,-232.5 167,-232.5"/>
<text text-anchor="middle" x="217.5" y="-277.5" font-family="Helvetica,sans-Serif" font-size="10.00">_DATA_TRANSMIT</text>
<polyline fill="none" stroke="black" points="167,-270.5 268,-270.5 "/>
<text text-anchor="middle" x="217.5" y="-258.5" font-family="Helvetica,sans-Serif" font-size="10.00"> </text>
<polyline fill="none" stroke="black" points="167,-251.5 268,-251.5 "/>
<text text-anchor="middle" x="217.5" y="-239.5" font-family="Helvetica,sans-Serif" font-size="10.00"> </text>
</a>
</g>
</g>
<!-- Node5&#45;&gt;Node3 -->
<g id="edge4" class="edge">
<title>Node5&#45;&gt;Node3</title>
<path fill="none" stroke="#404040" d="M217.5,-232.4C217.5,-221.55 217.5,-208.87 217.5,-197.05"/>
<polygon fill="none" stroke="#404040" points="217.5,-196.68 213.5,-190.68 217.5,-184.68 221.5,-190.68 217.5,-196.68"/>
<text text-anchor="middle" x="232.5" y="-206" font-family="Helvetica,sans-Serif" font-size="10.00"> +Data</text>
</g>
<!-- Node6 -->
<g id="node6" class="node">
<title>Node6</title>
<g id="a_node6"><a xlink:title=" ">
<polygon fill="none" stroke="black" points="191,-337.5 191,-394.5 244,-394.5 244,-337.5 191,-337.5"/>
<text text-anchor="middle" x="217.5" y="-382.5" font-family="Helvetica,sans-Serif" font-size="10.00">WCHAR</text>
<polyline fill="none" stroke="black" points="191,-375.5 244,-375.5 "/>
<text text-anchor="middle" x="217.5" y="-363.5" font-family="Helvetica,sans-Serif" font-size="10.00"> </text>
<polyline fill="none" stroke="black" points="191,-356.5 244,-356.5 "/>
<text text-anchor="middle" x="217.5" y="-344.5" font-family="Helvetica,sans-Serif" font-size="10.00"> </text>
</a>
</g>
</g>
<!-- Node6&#45;&gt;Node5 -->
<g id="edge5" class="edge">
<title>Node6&#45;&gt;Node5</title>
<path fill="none" stroke="#404040" d="M217.5,-337.4C217.5,-326.55 217.5,-313.87 217.5,-302.05"/>
<polygon fill="none" stroke="#404040" points="217.5,-301.68 213.5,-295.68 217.5,-289.68 221.5,-295.68 217.5,-301.68"/>
<text text-anchor="middle" x="246.5" y="-311" font-family="Helvetica,sans-Serif" font-size="10.00"> +wFileName</text>
</g>
<!-- Node7 -->
<g id="node7" class="node">
<title>Node7</title>
<g id="a_node7"><a xlink:title=" ">
<polygon fill="none" stroke="black" points="286,-232.5 286,-289.5 369,-289.5 369,-232.5 286,-232.5"/>
<text text-anchor="middle" x="327.5" y="-277.5" font-family="Helvetica,sans-Serif" font-size="10.00">OVERLAPPED</text>
<polyline fill="none" stroke="black" points="286,-270.5 369,-270.5 "/>
<text text-anchor="middle" x="327.5" y="-258.5" font-family="Helvetica,sans-Serif" font-size="10.00"> </text>
<polyline fill="none" stroke="black" points="286,-251.5 369,-251.5 "/>
<text text-anchor="middle" x="327.5" y="-239.5" font-family="Helvetica,sans-Serif" font-size="10.00"> </text>
</a>
</g>
</g>
<!-- Node7&#45;&gt;Node3 -->
<g id="edge6" class="edge">
<title>Node7&#45;&gt;Node3</title>
<path fill="none" stroke="#404040" d="M298.02,-232.4C285.08,-220.28 269.7,-205.88 255.88,-192.94"/>
<polygon fill="none" stroke="#404040" points="255.82,-192.88 248.71,-191.7 247.06,-184.68 254.17,-185.86 255.82,-192.88"/>
<text text-anchor="middle" x="289.5" y="-206" font-family="Helvetica,sans-Serif" font-size="10.00"> +Ovlp</text>
</g>
<!-- Node8 -->
<g id="node8" class="node">
<title>Node8</title>
<g id="a_node8"><a xlink:title=" ">
<polygon fill="none" stroke="black" points="321.5,-127.5 321.5,-184.5 375.5,-184.5 375.5,-127.5 321.5,-127.5"/>
<text text-anchor="middle" x="348.5" y="-172.5" font-family="Helvetica,sans-Serif" font-size="10.00">DWORD</text>
<polyline fill="none" stroke="black" points="321.5,-165.5 375.5,-165.5 "/>
<text text-anchor="middle" x="348.5" y="-153.5" font-family="Helvetica,sans-Serif" font-size="10.00"> </text>
<polyline fill="none" stroke="black" points="321.5,-146.5 375.5,-146.5 "/>
<text text-anchor="middle" x="348.5" y="-134.5" font-family="Helvetica,sans-Serif" font-size="10.00"> </text>
</a>
</g>
</g>
<!-- Node8&#45;&gt;Node1 -->
<g id="edge7" class="edge">
<title>Node8&#45;&gt;Node1</title>
<path fill="none" stroke="#404040" d="M321.36,-130.24C304.54,-114.9 282.5,-94.8 263.06,-77.06"/>
<polygon fill="none" stroke="#404040" points="262.92,-76.93 255.79,-75.84 254.05,-68.84 261.18,-69.93 262.92,-76.93"/>
<text text-anchor="middle" x="347.5" y="-101" font-family="Helvetica,sans-Serif" font-size="10.00"> +dwMaxWorkerThreads</text>
<text text-anchor="middle" x="347.5" y="-90" font-family="Helvetica,sans-Serif" font-size="10.00">+dwMinWorkerThreads</text>
</g>
</g>
</svg>
