<?xml version="1.0" encoding="UTF-8" standalone="no"?>
<!DOCTYPE svg PUBLIC "-//W3C//DTD SVG 1.1//EN"
 "http://www.w3.org/Graphics/SVG/1.1/DTD/svg11.dtd">
<!-- Generated by graphviz version 5.0.0 (20220707.1540)
 -->
<!-- Title: U_Signature.hpp Pages: 1 -->
<svg width="488pt" height="364pt"
 viewBox="0.00 0.00 488.00 364.00" xmlns="http://www.w3.org/2000/svg" xmlns:xlink="http://www.w3.org/1999/xlink">
<g id="graph0" class="graph" transform="scale(1 1) rotate(0) translate(4 360)">
<title>U_Signature.hpp</title>
<!-- Node1 -->
<g id="node1" class="node">
<title>Node1</title>
<g id="a_node1"><a xlink:title="Header for U_Signature.cpp.">
<polygon fill="#bfbfbf" stroke="black" points="211,-336.5 211,-355.5 300,-355.5 300,-336.5 211,-336.5"/>
<text text-anchor="middle" x="255.5" y="-343.5" font-family="Helvetica,sans-Serif" font-size="10.00">U_Signature.hpp</text>
</a>
</g>
</g>
<!-- Node2 -->
<g id="node2" class="node">
<title>Node2</title>
<g id="a_node2"><a xlink:href="../../d9/d01/_u___communication_8hpp.html" target="_top" xlink:title="Header for U_Communication.cpp.">
<polygon fill="none" stroke="black" points="138,-280.5 138,-299.5 253,-299.5 253,-280.5 138,-280.5"/>
<text text-anchor="middle" x="195.5" y="-287.5" font-family="Helvetica,sans-Serif" font-size="10.00">U_Communication.hpp</text>
</a>
</g>
</g>
<!-- Node1&#45;&gt;Node2 -->
<g id="edge1" class="edge">
<title>Node1&#45;&gt;Node2</title>
<path fill="none" stroke="midnightblue" d="M238.32,-329.54C227.62,-319.91 214.24,-307.87 205.32,-299.83"/>
<polygon fill="midnightblue" stroke="midnightblue" points="236.09,-332.24 245.86,-336.32 240.77,-327.03 236.09,-332.24"/>
</g>
<!-- Node14 -->
<g id="node14" class="node">
<title>Node14</title>
<g id="a_node14"><a xlink:href="../../d0/d03/_u___signature_8cpp.html" target="_top" xlink:title="Verify embedded signature and catalog signature of an executable.">
<polygon fill="none" stroke="black" points="271,-280.5 271,-299.5 360,-299.5 360,-280.5 271,-280.5"/>
<text text-anchor="middle" x="315.5" y="-287.5" font-family="Helvetica,sans-Serif" font-size="10.00">U_Signature.cpp</text>
</a>
</g>
</g>
<!-- Node1&#45;&gt;Node14 -->
<g id="edge22" class="edge">
<title>Node1&#45;&gt;Node14</title>
<path fill="none" stroke="midnightblue" d="M272.68,-329.54C283.38,-319.91 296.76,-307.87 305.68,-299.83"/>
<polygon fill="midnightblue" stroke="midnightblue" points="270.23,-327.03 265.14,-336.32 274.91,-332.24 270.23,-327.03"/>
</g>
<!-- Node3 -->
<g id="node3" class="node">
<title>Node3</title>
<g id="a_node3"><a xlink:href="../../d6/d02/_u___communication_8cpp.html" target="_top" xlink:title="Manage the communication with the driver (Connect|Reply|ListenerThread|WorkerThread)">
<polygon fill="none" stroke="black" points="0,-224.5 0,-243.5 115,-243.5 115,-224.5 0,-224.5"/>
<text text-anchor="middle" x="57.5" y="-231.5" font-family="Helvetica,sans-Serif" font-size="10.00">U_Communication.cpp</text>
</a>
</g>
</g>
<!-- Node2&#45;&gt;Node3 -->
<g id="edge2" class="edge">
<title>Node2&#45;&gt;Node3</title>
<path fill="none" stroke="midnightblue" d="M164.25,-276.77C138.33,-266.63 102.14,-252.47 79.26,-243.52"/>
<polygon fill="midnightblue" stroke="midnightblue" points="163.05,-280.06 173.63,-280.44 165.6,-273.54 163.05,-280.06"/>
</g>
<!-- Node4 -->
<g id="node4" class="node">
<title>Node4</title>
<g id="a_node4"><a xlink:href="../../d2/d01/_u___service_8hpp.html" target="_top" xlink:title="Header for U_Service.cpp.">
<polygon fill="none" stroke="black" points="208,-224.5 208,-243.5 287,-243.5 287,-224.5 208,-224.5"/>
<text text-anchor="middle" x="247.5" y="-231.5" font-family="Helvetica,sans-Serif" font-size="10.00">U_Service.hpp</text>
</a>
</g>
</g>
<!-- Node2&#45;&gt;Node4 -->
<g id="edge3" class="edge">
<title>Node2&#45;&gt;Node4</title>
<path fill="none" stroke="midnightblue" d="M205.42,-272.14C213.62,-262.74 224.93,-251.4 233.94,-243.75"/>
<polygon fill="midnightblue" stroke="midnightblue" points="202.55,-270.13 198.92,-280.08 207.97,-274.57 202.55,-270.13"/>
</g>
<!-- Node4&#45;&gt;Node2 -->
<g id="edge4" class="edge">
<title>Node4&#45;&gt;Node2</title>
<path fill="none" stroke="midnightblue" d="M237.62,-251.8C229.39,-261.25 218.02,-272.65 208.97,-280.32"/>
<polygon fill="midnightblue" stroke="midnightblue" points="240.52,-253.79 244.14,-243.83 235.1,-249.36 240.52,-253.79"/>
</g>
<!-- Node5 -->
<g id="node5" class="node">
<title>Node5</title>
<g id="a_node5"><a xlink:href="../../d6/d00/_u___configuration_8hpp.html" target="_top" xlink:title="Header for U_Configuration.cpp.">
<polygon fill="none" stroke="black" points="245.5,-56.5 245.5,-75.5 349.5,-75.5 349.5,-56.5 245.5,-56.5"/>
<text text-anchor="middle" x="297.5" y="-63.5" font-family="Helvetica,sans-Serif" font-size="10.00">U_Configuration.hpp</text>
</a>
</g>
</g>
<!-- Node4&#45;&gt;Node5 -->
<g id="edge5" class="edge">
<title>Node4&#45;&gt;Node5</title>
<path fill="none" stroke="midnightblue" d="M261.32,-217.58C269.69,-209.85 279.37,-199.66 284.5,-188 301.61,-149.14 294.21,-96.27 294.75,-75.69"/>
<polygon fill="midnightblue" stroke="midnightblue" points="258.75,-215.19 253.6,-224.45 263.4,-220.41 258.75,-215.19"/>
</g>
<!-- Node7 -->
<g id="node7" class="node">
<title>Node7</title>
<g id="a_node7"><a xlink:href="../../d5/d01/_u___helper_8hpp.html" target="_top" xlink:title="Header for U_Helper.cpp.">
<polygon fill="none" stroke="black" points="210,-168.5 210,-187.5 285,-187.5 285,-168.5 210,-168.5"/>
<text text-anchor="middle" x="247.5" y="-175.5" font-family="Helvetica,sans-Serif" font-size="10.00">U_Helper.hpp</text>
</a>
</g>
</g>
<!-- Node4&#45;&gt;Node7 -->
<g id="edge8" class="edge">
<title>Node4&#45;&gt;Node7</title>
<path fill="none" stroke="midnightblue" d="M241.03,-214.1C240.4,-205.14 240.84,-194.86 242.37,-187.75"/>
<polygon fill="midnightblue" stroke="midnightblue" points="237.57,-214.62 242.33,-224.08 244.51,-213.71 237.57,-214.62"/>
</g>
<!-- Node13 -->
<g id="node13" class="node">
<title>Node13</title>
<g id="a_node13"><a xlink:href="../../d7/d00/_u___service_8cpp.html" target="_top" xlink:title="Entrypoint of the process &amp; the service.">
<polygon fill="none" stroke="black" points="360,-168.5 360,-187.5 439,-187.5 439,-168.5 360,-168.5"/>
<text text-anchor="middle" x="399.5" y="-175.5" font-family="Helvetica,sans-Serif" font-size="10.00">U_Service.cpp</text>
</a>
</g>
</g>
<!-- Node4&#45;&gt;Node13 -->
<g id="edge21" class="edge">
<title>Node4&#45;&gt;Node13</title>
<path fill="none" stroke="midnightblue" d="M281.17,-221.04C309.77,-210.88 350.11,-196.55 375.53,-187.52"/>
<polygon fill="midnightblue" stroke="midnightblue" points="279.84,-217.8 271.58,-224.44 282.18,-224.39 279.84,-217.8"/>
</g>
<!-- Node5&#45;&gt;Node4 -->
<g id="edge7" class="edge">
<title>Node5&#45;&gt;Node4</title>
<path fill="none" stroke="midnightblue" d="M307.11,-85.49C313.74,-110.07 317.34,-154.3 302.5,-188 295.66,-203.54 280.72,-216.49 267.84,-224.45"/>
<polygon fill="midnightblue" stroke="midnightblue" points="310.34,-84.11 303.9,-75.69 303.69,-86.29 310.34,-84.11"/>
</g>
<!-- Node6 -->
<g id="node6" class="node">
<title>Node6</title>
<g id="a_node6"><a xlink:href="../../dd/d00/_u___configuration_8cpp.html" target="_top" xlink:title="Set all the needed configuration for the driver and the user&#45;mode service.">
<polygon fill="none" stroke="black" points="245.5,-0.5 245.5,-19.5 349.5,-19.5 349.5,-0.5 245.5,-0.5"/>
<text text-anchor="middle" x="297.5" y="-7.5" font-family="Helvetica,sans-Serif" font-size="10.00">U_Configuration.cpp</text>
</a>
</g>
</g>
<!-- Node5&#45;&gt;Node6 -->
<g id="edge6" class="edge">
<title>Node5&#45;&gt;Node6</title>
<path fill="none" stroke="midnightblue" d="M297.5,-45.8C297.5,-36.91 297.5,-26.78 297.5,-19.75"/>
<polygon fill="midnightblue" stroke="midnightblue" points="294,-46.08 297.5,-56.08 301,-46.08 294,-46.08"/>
</g>
<!-- Node7&#45;&gt;Node4 -->
<g id="edge20" class="edge">
<title>Node7&#45;&gt;Node4</title>
<path fill="none" stroke="midnightblue" d="M253.96,-197.69C254.61,-206.64 254.18,-216.93 252.67,-224.08"/>
<polygon fill="midnightblue" stroke="midnightblue" points="257.42,-197.2 252.63,-187.75 250.48,-198.13 257.42,-197.2"/>
</g>
<!-- Node7&#45;&gt;Node5 -->
<g id="edge9" class="edge">
<title>Node7&#45;&gt;Node5</title>
<path fill="none" stroke="midnightblue" d="M255.68,-159C266.59,-135 285.47,-93.47 293.59,-75.59"/>
<polygon fill="midnightblue" stroke="midnightblue" points="252.38,-157.82 251.42,-168.37 258.75,-160.71 252.38,-157.82"/>
</g>
<!-- Node8 -->
<g id="node8" class="node">
<title>Node8</title>
<g id="a_node8"><a xlink:href="../../d3/d01/_u___controller_8hpp.html" target="_top" xlink:title="Header for U_Controller.cpp.">
<polygon fill="none" stroke="black" points="391,-112.5 391,-131.5 480,-131.5 480,-112.5 391,-112.5"/>
<text text-anchor="middle" x="435.5" y="-119.5" font-family="Helvetica,sans-Serif" font-size="10.00">U_Controller.hpp</text>
</a>
</g>
</g>
<!-- Node7&#45;&gt;Node8 -->
<g id="edge10" class="edge">
<title>Node7&#45;&gt;Node8</title>
<path fill="none" stroke="midnightblue" d="M287.3,-165.57C322.77,-155.38 373.87,-140.7 405.85,-131.52"/>
<polygon fill="midnightblue" stroke="midnightblue" points="285.93,-162.32 277.29,-168.44 287.87,-169.05 285.93,-162.32"/>
</g>
<!-- Node10 -->
<g id="node10" class="node">
<title>Node10</title>
<g id="a_node10"><a xlink:href="../../d8/d01/_u___helper_8cpp.html" target="_top" xlink:title="Help function used by several .cpp files.">
<polygon fill="none" stroke="black" points="172,-112.5 172,-131.5 247,-131.5 247,-112.5 172,-112.5"/>
<text text-anchor="middle" x="209.5" y="-119.5" font-family="Helvetica,sans-Serif" font-size="10.00">U_Helper.cpp</text>
</a>
</g>
</g>
<!-- Node7&#45;&gt;Node10 -->
<g id="edge13" class="edge">
<title>Node7&#45;&gt;Node10</title>
<path fill="none" stroke="midnightblue" d="M235.44,-159.86C228.86,-150.5 220.99,-139.33 215.66,-131.75"/>
<polygon fill="midnightblue" stroke="midnightblue" points="232.61,-161.92 241.23,-168.08 238.33,-157.89 232.61,-161.92"/>
</g>
<!-- Node11 -->
<g id="node11" class="node">
<title>Node11</title>
<g id="a_node11"><a xlink:href="../../d3/d00/_u___logs_8hpp.html" target="_top" xlink:title="Header for U_Logs.cpp.">
<polygon fill="none" stroke="black" points="85.5,-112.5 85.5,-131.5 153.5,-131.5 153.5,-112.5 85.5,-112.5"/>
<text text-anchor="middle" x="119.5" y="-119.5" font-family="Helvetica,sans-Serif" font-size="10.00">U_Logs.hpp</text>
</a>
</g>
</g>
<!-- Node7&#45;&gt;Node11 -->
<g id="edge14" class="edge">
<title>Node7&#45;&gt;Node11</title>
<path fill="none" stroke="midnightblue" d="M212.76,-164.77C187.19,-154.63 153.85,-140.47 134.61,-131.52"/>
<polygon fill="midnightblue" stroke="midnightblue" points="211.54,-168.05 222.13,-168.44 214.1,-161.54 211.54,-168.05"/>
</g>
<!-- Node8&#45;&gt;Node4 -->
<g id="edge12" class="edge">
<title>Node8&#45;&gt;Node4</title>
<path fill="none" stroke="midnightblue" d="M445.96,-140.42C453.01,-154.66 459.25,-174.57 448.5,-188 428.66,-212.77 339.7,-224.83 287.01,-229.89"/>
<polygon fill="midnightblue" stroke="midnightblue" points="449.02,-138.71 441.15,-131.61 442.87,-142.06 449.02,-138.71"/>
</g>
<!-- Node9 -->
<g id="node9" class="node">
<title>Node9</title>
<g id="a_node9"><a xlink:href="../../d8/d02/_u___controller_8cpp.html" target="_top" xlink:title="Controll the service/driver (Install|Start|Stop|Delete|Query)">
<polygon fill="none" stroke="black" points="391,-56.5 391,-75.5 480,-75.5 480,-56.5 391,-56.5"/>
<text text-anchor="middle" x="435.5" y="-63.5" font-family="Helvetica,sans-Serif" font-size="10.00">U_Controller.cpp</text>
</a>
</g>
</g>
<!-- Node8&#45;&gt;Node9 -->
<g id="edge11" class="edge">
<title>Node8&#45;&gt;Node9</title>
<path fill="none" stroke="midnightblue" d="M435.5,-101.8C435.5,-92.91 435.5,-82.78 435.5,-75.75"/>
<polygon fill="midnightblue" stroke="midnightblue" points="432,-102.08 435.5,-112.08 439,-102.08 432,-102.08"/>
</g>
<!-- Node11&#45;&gt;Node2 -->
<g id="edge15" class="edge">
<title>Node11&#45;&gt;Node2</title>
<path fill="none" stroke="midnightblue" d="M127.59,-140.66C143.71,-175.88 179.35,-253.72 191.41,-280.08"/>
<polygon fill="midnightblue" stroke="midnightblue" points="130.77,-139.2 123.42,-131.57 124.4,-142.12 130.77,-139.2"/>
</g>
<!-- Node11&#45;&gt;Node4 -->
<g id="edge19" class="edge">
<title>Node11&#45;&gt;Node4</title>
<path fill="none" stroke="midnightblue" d="M137.11,-138.13C164.34,-161.53 215.77,-205.73 237.46,-224.37"/>
<polygon fill="midnightblue" stroke="midnightblue" points="139.36,-135.45 129.5,-131.59 134.8,-140.76 139.36,-135.45"/>
</g>
<!-- Node11&#45;&gt;Node5 -->
<g id="edge16" class="edge">
<title>Node11&#45;&gt;Node5</title>
<path fill="none" stroke="midnightblue" d="M157.62,-109.44C191.18,-99.26 239.27,-84.66 269.43,-75.52"/>
<polygon fill="midnightblue" stroke="midnightblue" points="156.26,-106.19 147.7,-112.44 158.29,-112.89 156.26,-106.19"/>
</g>
<!-- Node11&#45;&gt;Node7 -->
<g id="edge17" class="edge">
<title>Node11&#45;&gt;Node7</title>
<path fill="none" stroke="midnightblue" d="M154.13,-135.18C179.67,-145.31 213.02,-159.48 232.31,-168.44"/>
<polygon fill="midnightblue" stroke="midnightblue" points="155.35,-131.9 144.77,-131.52 152.8,-138.42 155.35,-131.9"/>
</g>
<!-- Node12 -->
<g id="node12" class="node">
<title>Node12</title>
<g id="a_node12"><a xlink:href="../../da/d02/_u___logs_8cpp.html" target="_top" xlink:title="Report Event to ETW.">
<polygon fill="none" stroke="black" points="85.5,-56.5 85.5,-75.5 153.5,-75.5 153.5,-56.5 85.5,-56.5"/>
<text text-anchor="middle" x="119.5" y="-63.5" font-family="Helvetica,sans-Serif" font-size="10.00">U_Logs.cpp</text>
</a>
</g>
</g>
<!-- Node11&#45;&gt;Node12 -->
<g id="edge18" class="edge">
<title>Node11&#45;&gt;Node12</title>
<path fill="none" stroke="midnightblue" d="M119.5,-101.8C119.5,-92.91 119.5,-82.78 119.5,-75.75"/>
<polygon fill="midnightblue" stroke="midnightblue" points="116,-102.08 119.5,-112.08 123,-102.08 116,-102.08"/>
</g>
</g>
</svg>
