<?xml version="1.0" encoding="UTF-8" standalone="no"?>
<!DOCTYPE svg PUBLIC "-//W3C//DTD SVG 1.1//EN"
 "http://www.w3.org/Graphics/SVG/1.1/DTD/svg11.dtd">
<!-- Generated by graphviz version 5.0.0 (20220707.1540)
 -->
<!-- Title: K_ObCallback.hpp Pages: 1 -->
<svg width="500pt" height="308pt"
 viewBox="0.00 0.00 499.65 308.00" xmlns="http://www.w3.org/2000/svg" xmlns:xlink="http://www.w3.org/1999/xlink">
<g id="graph0" class="graph" transform="scale(1 1) rotate(0) translate(4 304)">
<title>K_ObCallback.hpp</title>
<!-- Node1 -->
<g id="node1" class="node">
<title>Node1</title>
<g id="a_node1"><a xlink:title="Header for K_ObCallback.cpp.">
<polygon fill="#bfbfbf" stroke="black" points="326.15,-280.5 326.15,-299.5 424.15,-299.5 424.15,-280.5 326.15,-280.5"/>
<text text-anchor="middle" x="375.15" y="-287.5" font-family="Helvetica,sans-Serif" font-size="10.00">K_ObCallback.hpp</text>
</a>
</g>
</g>
<!-- Node2 -->
<g id="node2" class="node">
<title>Node2</title>
<g id="a_node2"><a xlink:href="../../d6/d00/_k___global_header_8hpp.html" target="_top" xlink:title="Header used by several .cpp files.">
<polygon fill="none" stroke="black" points="257.15,-112.5 257.15,-131.5 363.15,-131.5 363.15,-112.5 257.15,-112.5"/>
<text text-anchor="middle" x="310.15" y="-119.5" font-family="Helvetica,sans-Serif" font-size="10.00">K_GlobalHeader.hpp</text>
</a>
</g>
</g>
<!-- Node1&#45;&gt;Node2 -->
<g id="edge1" class="edge">
<title>Node1&#45;&gt;Node2</title>
<path fill="none" stroke="midnightblue" d="M377.9,-280.26C384.01,-259.14 396.44,-204.36 374.15,-168 365.86,-154.49 351.84,-143.95 339.02,-136.47"/>
<polygon fill="midnightblue" stroke="midnightblue" points="340.46,-133.27 330,-131.57 337.12,-139.42 340.46,-133.27"/>
</g>
<!-- Node8 -->
<g id="node8" class="node">
<title>Node8</title>
<g id="a_node8"><a xlink:href="../../d0/d00/_k___helper_8hpp.html" target="_top" xlink:title="Header for K_Helper.cpp.">
<polygon fill="none" stroke="black" points="416.65,-56.5 416.65,-75.5 491.65,-75.5 491.65,-56.5 416.65,-56.5"/>
<text text-anchor="middle" x="454.15" y="-63.5" font-family="Helvetica,sans-Serif" font-size="10.00">K_Helper.hpp</text>
</a>
</g>
</g>
<!-- Node1&#45;&gt;Node8 -->
<g id="edge11" class="edge">
<title>Node1&#45;&gt;Node8</title>
<path fill="none" stroke="midnightblue" d="M380.44,-280.28C385.68,-271.38 393.69,-257.07 399.15,-244 422.55,-187.96 441.34,-118.34 449.6,-85.63"/>
<polygon fill="midnightblue" stroke="midnightblue" points="453.06,-86.23 452.07,-75.68 446.26,-84.54 453.06,-86.23"/>
</g>
<!-- Node11 -->
<g id="node11" class="node">
<title>Node11</title>
<g id="a_node11"><a xlink:href="../../d6/d03/_k___communication_8hpp.html" target="_top" xlink:title="Header for K_Communication.cpp.">
<polygon fill="none" stroke="black" points="37.65,-168.5 37.65,-187.5 152.65,-187.5 152.65,-168.5 37.65,-168.5"/>
<text text-anchor="middle" x="95.15" y="-175.5" font-family="Helvetica,sans-Serif" font-size="10.00">K_Communication.hpp</text>
</a>
</g>
</g>
<!-- Node1&#45;&gt;Node11 -->
<g id="edge12" class="edge">
<title>Node1&#45;&gt;Node11</title>
<path fill="none" stroke="midnightblue" d="M353.1,-280.39C329.94,-271.34 292.48,-256.69 260.15,-244 213.53,-225.7 159.53,-204.41 126.36,-191.32"/>
<polygon fill="midnightblue" stroke="midnightblue" points="127.35,-187.95 116.76,-187.53 124.78,-194.46 127.35,-187.95"/>
</g>
<!-- Node12 -->
<g id="node12" class="node">
<title>Node12</title>
<g id="a_node12"><a xlink:href="../../d8/d02/_k___configuration_8hpp.html" target="_top" xlink:title="Header for K_Configuration.cpp.">
<polygon fill="none" stroke="black" points="269.15,-224.5 269.15,-243.5 373.15,-243.5 373.15,-224.5 269.15,-224.5"/>
<text text-anchor="middle" x="321.15" y="-231.5" font-family="Helvetica,sans-Serif" font-size="10.00">K_Configuration.hpp</text>
</a>
</g>
</g>
<!-- Node1&#45;&gt;Node12 -->
<g id="edge15" class="edge">
<title>Node1&#45;&gt;Node12</title>
<path fill="none" stroke="midnightblue" d="M366.23,-280.08C358.37,-272.22 346.72,-260.57 337.23,-251.08"/>
<polygon fill="midnightblue" stroke="midnightblue" points="339.44,-248.35 329.9,-243.75 334.5,-253.3 339.44,-248.35"/>
</g>
<!-- Node3 -->
<g id="node3" class="node">
<title>Node3</title>
<g id="a_node3"><a xlink:title=" ">
<polygon fill="none" stroke="#bfbfbf" points="292.65,-56.5 292.65,-75.5 335.65,-75.5 335.65,-56.5 292.65,-56.5"/>
<text text-anchor="middle" x="314.15" y="-63.5" font-family="Helvetica,sans-Serif" font-size="10.00">ntifs.h</text>
</a>
</g>
</g>
<!-- Node2&#45;&gt;Node3 -->
<g id="edge2" class="edge">
<title>Node2&#45;&gt;Node3</title>
<path fill="none" stroke="midnightblue" d="M310.81,-112.08C311.33,-105.01 312.08,-94.86 312.74,-85.99"/>
<polygon fill="midnightblue" stroke="midnightblue" points="316.25,-85.98 313.5,-75.75 309.27,-85.47 316.25,-85.98"/>
</g>
<!-- Node4 -->
<g id="node4" class="node">
<title>Node4</title>
<g id="a_node4"><a xlink:title=" ">
<polygon fill="none" stroke="#bfbfbf" points="353.65,-56.5 353.65,-75.5 398.65,-75.5 398.65,-56.5 353.65,-56.5"/>
<text text-anchor="middle" x="376.15" y="-63.5" font-family="Helvetica,sans-Serif" font-size="10.00">wdm.h</text>
</a>
</g>
</g>
<!-- Node2&#45;&gt;Node4 -->
<g id="edge3" class="edge">
<title>Node2&#45;&gt;Node4</title>
<path fill="none" stroke="midnightblue" d="M320.75,-112.32C330.6,-104.26 345.5,-92.08 357.36,-82.37"/>
<polygon fill="midnightblue" stroke="midnightblue" points="359.83,-84.88 365.35,-75.83 355.39,-79.46 359.83,-84.88"/>
</g>
<!-- Node5 -->
<g id="node5" class="node">
<title>Node5</title>
<g id="a_node5"><a xlink:title=" ">
<polygon fill="none" stroke="#bfbfbf" points="17.15,-56.5 17.15,-75.5 77.15,-75.5 77.15,-56.5 17.15,-56.5"/>
<text text-anchor="middle" x="47.15" y="-63.5" font-family="Helvetica,sans-Serif" font-size="10.00">fltKernel.h</text>
</a>
</g>
</g>
<!-- Node2&#45;&gt;Node5 -->
<g id="edge4" class="edge">
<title>Node2&#45;&gt;Node5</title>
<path fill="none" stroke="midnightblue" d="M265.87,-112.49C222.75,-104.12 155.09,-90.76 87.35,-76.22"/>
<polygon fill="midnightblue" stroke="midnightblue" points="87.88,-72.75 77.36,-74.06 86.4,-79.59 87.88,-72.75"/>
</g>
<!-- Node6 -->
<g id="node6" class="node">
<title>Node6</title>
<g id="a_node6"><a xlink:title=" ">
<polygon fill="none" stroke="#bfbfbf" points="95.15,-56.5 95.15,-75.5 157.15,-75.5 157.15,-56.5 95.15,-56.5"/>
<text text-anchor="middle" x="126.15" y="-63.5" font-family="Helvetica,sans-Serif" font-size="10.00">ntstrsafe.h</text>
</a>
</g>
</g>
<!-- Node2&#45;&gt;Node6 -->
<g id="edge5" class="edge">
<title>Node2&#45;&gt;Node6</title>
<path fill="none" stroke="midnightblue" d="M280.99,-112.44C249.63,-103.24 199.62,-88.56 164.95,-78.39"/>
<polygon fill="midnightblue" stroke="midnightblue" points="165.75,-74.97 155.17,-75.52 163.78,-81.69 165.75,-74.97"/>
</g>
<!-- Node7 -->
<g id="node7" class="node">
<title>Node7</title>
<g id="a_node7"><a xlink:href="../../df/d00/_k___wpp_tracing_8hpp.html" target="_top" xlink:title="WppTracing header.">
<polygon fill="none" stroke="black" points="175.65,-56.5 175.65,-75.5 274.65,-75.5 274.65,-56.5 175.65,-56.5"/>
<text text-anchor="middle" x="225.15" y="-63.5" font-family="Helvetica,sans-Serif" font-size="10.00">K_WppTracing.hpp</text>
</a>
</g>
</g>
<!-- Node2&#45;&gt;Node7 -->
<g id="edge6" class="edge">
<title>Node2&#45;&gt;Node7</title>
<path fill="none" stroke="midnightblue" d="M296.49,-112.32C283.23,-103.9 262.88,-90.97 247.3,-81.07"/>
<polygon fill="midnightblue" stroke="midnightblue" points="249.09,-78.06 238.77,-75.65 245.33,-83.97 249.09,-78.06"/>
</g>
<!-- Node2&#45;&gt;Node8 -->
<g id="edge7" class="edge">
<title>Node2&#45;&gt;Node8</title>
<path fill="none" stroke="midnightblue" d="M327.88,-112.44C350.01,-103.4 388.03,-89.06 416.66,-78.92"/>
<polygon fill="midnightblue" stroke="midnightblue" points="418.08,-82.13 426.36,-75.52 415.76,-75.52 418.08,-82.13"/>
</g>
<!-- Node8&#45;&gt;Node2 -->
<g id="edge8" class="edge">
<title>Node8&#45;&gt;Node2</title>
<path fill="none" stroke="midnightblue" d="M436.52,-75.52C414.43,-84.55 376.42,-98.88 347.76,-109.04"/>
<polygon fill="midnightblue" stroke="midnightblue" points="346.33,-105.83 338.05,-112.44 348.65,-112.44 346.33,-105.83"/>
</g>
<!-- Node9 -->
<g id="node9" class="node">
<title>Node9</title>
<g id="a_node9"><a xlink:href="../../d3/d03/_shared_defs_8hpp.html" target="_top" xlink:title="Header file which contains the structures, type definitions, constants, global variablesand function ...">
<polygon fill="none" stroke="black" points="89.15,-0.5 89.15,-19.5 237.15,-19.5 237.15,-0.5 89.15,-0.5"/>
<text text-anchor="middle" x="163.15" y="-7.5" font-family="Helvetica,sans-Serif" font-size="10.00">../SharedDefs/SharedDefs.hpp</text>
</a>
</g>
</g>
<!-- Node8&#45;&gt;Node9 -->
<g id="edge9" class="edge">
<title>Node8&#45;&gt;Node9</title>
<path fill="none" stroke="midnightblue" d="M416.5,-57.6C413.67,-57.05 410.87,-56.52 408.15,-56 343.95,-43.82 270.19,-30.35 220.52,-21.34"/>
<polygon fill="midnightblue" stroke="midnightblue" points="221.07,-17.89 210.6,-19.55 219.82,-24.77 221.07,-17.89"/>
</g>
<!-- Node10 -->
<g id="node10" class="node">
<title>Node10</title>
<g id="a_node10"><a xlink:title=" ">
<polygon fill="none" stroke="#bfbfbf" points="428.15,-0.5 428.15,-19.5 480.15,-19.5 480.15,-0.5 428.15,-0.5"/>
<text text-anchor="middle" x="454.15" y="-7.5" font-family="Helvetica,sans-Serif" font-size="10.00">bcrypt.h</text>
</a>
</g>
</g>
<!-- Node8&#45;&gt;Node10 -->
<g id="edge10" class="edge">
<title>Node8&#45;&gt;Node10</title>
<path fill="none" stroke="midnightblue" d="M454.15,-56.08C454.15,-49.01 454.15,-38.86 454.15,-29.99"/>
<polygon fill="midnightblue" stroke="midnightblue" points="457.65,-29.75 454.15,-19.75 450.65,-29.75 457.65,-29.75"/>
</g>
<!-- Node11&#45;&gt;Node2 -->
<g id="edge13" class="edge">
<title>Node11&#45;&gt;Node2</title>
<path fill="none" stroke="midnightblue" d="M129.22,-168.44C166.33,-159.12 225.81,-144.18 266.36,-134"/>
<polygon fill="midnightblue" stroke="midnightblue" points="267.39,-137.35 276.24,-131.52 265.69,-130.56 267.39,-137.35"/>
</g>
<!-- Node11&#45;&gt;Node9 -->
<g id="edge14" class="edge">
<title>Node11&#45;&gt;Node9</title>
<path fill="none" stroke="midnightblue" d="M80.5,-168.4C48.36,-148.46 -23.08,-97.58 8.15,-56 19.5,-40.88 61.95,-29.2 99.56,-21.53"/>
<polygon fill="midnightblue" stroke="midnightblue" points="100.37,-24.94 109.5,-19.57 99.02,-18.07 100.37,-24.94"/>
</g>
<!-- Node12&#45;&gt;Node2 -->
<g id="edge16" class="edge">
<title>Node12&#45;&gt;Node2</title>
<path fill="none" stroke="midnightblue" d="M332.67,-224.1C346.97,-211.89 368.4,-189.06 359.15,-168 353.76,-155.73 343.19,-145.34 333.24,-137.65"/>
<polygon fill="midnightblue" stroke="midnightblue" points="334.98,-134.58 324.81,-131.6 330.9,-140.27 334.98,-134.58"/>
</g>
<!-- Node13 -->
<g id="node13" class="node">
<title>Node13</title>
<g id="a_node13"><a xlink:href="../../d8/d02/_k___cache_8hpp.html" target="_top" xlink:title="Header for K_Cache.cpp.">
<polygon fill="none" stroke="black" points="170.65,-168.5 170.65,-187.5 245.65,-187.5 245.65,-168.5 170.65,-168.5"/>
<text text-anchor="middle" x="208.15" y="-175.5" font-family="Helvetica,sans-Serif" font-size="10.00">K_Cache.hpp</text>
</a>
</g>
</g>
<!-- Node12&#45;&gt;Node13 -->
<g id="edge17" class="edge">
<title>Node12&#45;&gt;Node13</title>
<path fill="none" stroke="midnightblue" d="M303.24,-224.44C284.89,-215.68 256.14,-201.94 235.05,-191.86"/>
<polygon fill="midnightblue" stroke="midnightblue" points="236.5,-188.67 225.97,-187.52 233.48,-194.99 236.5,-188.67"/>
</g>
<!-- Node14 -->
<g id="node14" class="node">
<title>Node14</title>
<g id="a_node14"><a xlink:href="../../d6/d03/_k___whitelist_8hpp.html" target="_top" xlink:title="Header for K_Whitelist.cpp.">
<polygon fill="none" stroke="black" points="264.15,-168.5 264.15,-187.5 350.15,-187.5 350.15,-168.5 264.15,-168.5"/>
<text text-anchor="middle" x="307.15" y="-175.5" font-family="Helvetica,sans-Serif" font-size="10.00">K_Whitelist.hpp</text>
</a>
</g>
</g>
<!-- Node12&#45;&gt;Node14 -->
<g id="edge19" class="edge">
<title>Node12&#45;&gt;Node14</title>
<path fill="none" stroke="midnightblue" d="M318.84,-224.08C316.98,-216.93 314.31,-206.64 311.99,-197.69"/>
<polygon fill="midnightblue" stroke="midnightblue" points="315.31,-196.55 309.42,-187.75 308.54,-198.31 315.31,-196.55"/>
</g>
<!-- Node13&#45;&gt;Node2 -->
<g id="edge18" class="edge">
<title>Node13&#45;&gt;Node2</title>
<path fill="none" stroke="midnightblue" d="M224.54,-168.32C240.82,-159.7 266.02,-146.36 284.86,-136.39"/>
<polygon fill="midnightblue" stroke="midnightblue" points="286.6,-139.43 293.8,-131.65 283.32,-133.24 286.6,-139.43"/>
</g>
<!-- Node14&#45;&gt;Node2 -->
<g id="edge20" class="edge">
<title>Node14&#45;&gt;Node2</title>
<path fill="none" stroke="midnightblue" d="M307.64,-168.08C308.04,-161.01 308.6,-150.86 309.09,-141.99"/>
<polygon fill="midnightblue" stroke="midnightblue" points="312.6,-141.93 309.66,-131.75 305.61,-141.54 312.6,-141.93"/>
</g>
</g>
</svg>
