<?xml version="1.0" encoding="UTF-8" standalone="no"?>
<!DOCTYPE svg PUBLIC "-//W3C//DTD SVG 1.1//EN"
 "http://www.w3.org/Graphics/SVG/1.1/DTD/svg11.dtd">
<!-- Generated by graphviz version 5.0.0 (20220707.1540)
 -->
<!-- Title: U_REGISTRY::CreateRegistryKey Pages: 1 -->
<svg width="721pt" height="163pt"
 viewBox="0.00 0.00 721.00 163.00" xmlns="http://www.w3.org/2000/svg" xmlns:xlink="http://www.w3.org/1999/xlink">
<g id="graph0" class="graph" transform="scale(1 1) rotate(0) translate(4 159)">
<title>U_REGISTRY::CreateRegistryKey</title>
<!-- Node1 -->
<g id="node1" class="node">
<title>Node1</title>
<g id="a_node1"><a xlink:title="Create the registry key &quot;szSubKey&quot; located in the HIVE &quot;hKeyParent&quot;.">
<polygon fill="#bfbfbf" stroke="black" points="548,-67 548,-86 713,-86 713,-67 548,-67"/>
<text text-anchor="middle" x="630.5" y="-74" font-family="Helvetica,sans-Serif" font-size="10.00">U_REGISTRY::CreateRegistryKey</text>
</a>
</g>
</g>
<!-- Node2 -->
<g id="node2" class="node">
<title>Node2</title>
<g id="a_node2"><a xlink:href="../../d6/d00/class_u___c_o_n_f_i_g_u_r_a_t_i_o_n.html#ac15b37425890a19a5de6664a2f5b2320" target="_top" xlink:title="Create all the registry keys needed for ETW Logs.">
<polygon fill="none" stroke="black" points="360.5,-124.5 360.5,-154.5 507.5,-154.5 507.5,-124.5 360.5,-124.5"/>
<text text-anchor="start" x="368.5" y="-142.5" font-family="Helvetica,sans-Serif" font-size="10.00">U_CONFIGURATION::_Create</text>
<text text-anchor="middle" x="434" y="-131.5" font-family="Helvetica,sans-Serif" font-size="10.00">RegistryForLogs</text>
</a>
</g>
</g>
<!-- Node1&#45;&gt;Node2 -->
<g id="edge1" class="edge">
<title>Node1&#45;&gt;Node2</title>
<path fill="none" stroke="midnightblue" d="M590.24,-89.22C558.82,-99.39 514.69,-113.69 481.51,-124.43"/>
<polygon fill="midnightblue" stroke="midnightblue" points="591.52,-92.48 599.96,-86.07 589.37,-85.82 591.52,-92.48"/>
</g>
<!-- Node3 -->
<g id="node3" class="node">
<title>Node3</title>
<g id="a_node3"><a xlink:href="../../d6/d00/class_u___c_o_n_f_i_g_u_r_a_t_i_o_n.html#adf54f299b42ec1596e92f49cb640d3ba" target="_top" xlink:title="Create registry keys needed for the service configuration.">
<polygon fill="none" stroke="black" points="160,-88.5 160,-118.5 320,-118.5 320,-88.5 160,-88.5"/>
<text text-anchor="start" x="168" y="-106.5" font-family="Helvetica,sans-Serif" font-size="10.00">U_CONFIGURATION::SetService</text>
<text text-anchor="middle" x="240" y="-95.5" font-family="Helvetica,sans-Serif" font-size="10.00">Configuration</text>
</a>
</g>
</g>
<!-- Node1&#45;&gt;Node3 -->
<g id="edge9" class="edge">
<title>Node1&#45;&gt;Node3</title>
<path fill="none" stroke="midnightblue" d="M537.58,-82.89C471.44,-87.48 383.16,-93.62 320.15,-98"/>
<polygon fill="midnightblue" stroke="midnightblue" points="537.85,-86.38 547.58,-82.19 537.37,-79.39 537.85,-86.38"/>
</g>
<!-- Node6 -->
<g id="node6" class="node">
<title>Node6</title>
<g id="a_node6"><a xlink:href="../../d8/d03/class_u___c_o_n_t_r_o_l_l_e_r.html#a81c82381327f2e86e44e97bd330f2796" target="_top" xlink:title="Install the service &quot;szServiceName&quot;.">
<polygon fill="none" stroke="black" points="356,-48 356,-67 512,-67 512,-48 356,-48"/>
<text text-anchor="middle" x="434" y="-55" font-family="Helvetica,sans-Serif" font-size="10.00">U_CONTROLLER::InstallService</text>
</a>
</g>
</g>
<!-- Node1&#45;&gt;Node6 -->
<g id="edge5" class="edge">
<title>Node1&#45;&gt;Node6</title>
<path fill="none" stroke="midnightblue" d="M537.8,-67.54C529.2,-66.7 520.53,-65.86 512.08,-65.03"/>
<polygon fill="midnightblue" stroke="midnightblue" points="537.57,-71.04 547.86,-68.52 538.25,-64.07 537.57,-71.04"/>
</g>
<!-- Node7 -->
<g id="node7" class="node">
<title>Node7</title>
<g id="a_node7"><a xlink:href="../../d6/d00/class_u___c_o_n_f_i_g_u_r_a_t_i_o_n.html#a17aa0c6d783b391a5b324d26c562ac15" target="_top" xlink:title="Create registry keys needed for the driver configuration.">
<polygon fill="none" stroke="black" points="164,-0.5 164,-30.5 316,-30.5 316,-0.5 164,-0.5"/>
<text text-anchor="start" x="172" y="-18.5" font-family="Helvetica,sans-Serif" font-size="10.00">U_CONFIGURATION::SetDriver</text>
<text text-anchor="middle" x="240" y="-7.5" font-family="Helvetica,sans-Serif" font-size="10.00">Configuration</text>
</a>
</g>
</g>
<!-- Node1&#45;&gt;Node7 -->
<g id="edge7" class="edge">
<title>Node1&#45;&gt;Node7</title>
<path fill="none" stroke="midnightblue" d="M596.23,-63.49C573,-54.97 541.06,-44.35 512,-38.5 446.62,-25.33 370.88,-19.69 316.13,-17.28"/>
<polygon fill="midnightblue" stroke="midnightblue" points="595.03,-66.78 605.63,-67 597.48,-60.22 595.03,-66.78"/>
</g>
<!-- Node2&#45;&gt;Node3 -->
<g id="edge2" class="edge">
<title>Node2&#45;&gt;Node3</title>
<path fill="none" stroke="midnightblue" d="M350.44,-124.02C340.38,-122.13 330.12,-120.21 320.11,-118.33"/>
<polygon fill="midnightblue" stroke="midnightblue" points="349.94,-127.49 360.41,-125.89 351.23,-120.61 349.94,-127.49"/>
</g>
<!-- Node4 -->
<g id="node4" class="node">
<title>Node4</title>
<g id="a_node4"><a xlink:href="../../d7/d00/_u___service_8cpp.html#ab5c4ad56c0967c7aa59e84c28c445bc6" target="_top" xlink:title="Wrap the installation of the service.">
<polygon fill="none" stroke="black" points="82,-50 82,-69 124,-69 124,-50 82,-50"/>
<text text-anchor="middle" x="103" y="-57" font-family="Helvetica,sans-Serif" font-size="10.00">Install</text>
</a>
</g>
</g>
<!-- Node3&#45;&gt;Node4 -->
<g id="edge3" class="edge">
<title>Node3&#45;&gt;Node4</title>
<path fill="none" stroke="midnightblue" d="M183.15,-85.3C162.28,-78.49 139.87,-71.19 124.25,-66.1"/>
<polygon fill="midnightblue" stroke="midnightblue" points="182.33,-88.71 192.92,-88.48 184.5,-82.05 182.33,-88.71"/>
</g>
<!-- Node5 -->
<g id="node5" class="node">
<title>Node5</title>
<g id="a_node5"><a xlink:href="../../d7/d00/_u___service_8cpp.html#a3e9716f0248a5a48598490cd4920cbee" target="_top" xlink:title="Entrypoint of the user space executable.">
<polygon fill="none" stroke="black" points="0,-50 0,-69 46,-69 46,-50 0,-50"/>
<text text-anchor="middle" x="23" y="-57" font-family="Helvetica,sans-Serif" font-size="10.00">_tmain</text>
</a>
</g>
</g>
<!-- Node4&#45;&gt;Node5 -->
<g id="edge4" class="edge">
<title>Node4&#45;&gt;Node5</title>
<path fill="none" stroke="midnightblue" d="M71.9,-59.5C63.36,-59.5 54.21,-59.5 46.22,-59.5"/>
<polygon fill="midnightblue" stroke="midnightblue" points="71.91,-63 81.91,-59.5 71.91,-56 71.91,-63"/>
</g>
<!-- Node6&#45;&gt;Node4 -->
<g id="edge6" class="edge">
<title>Node6&#45;&gt;Node4</title>
<path fill="none" stroke="midnightblue" d="M345.45,-58.03C270.28,-58.49 167.43,-59.11 124.32,-59.38"/>
<polygon fill="midnightblue" stroke="midnightblue" points="345.89,-61.53 355.86,-57.97 345.84,-54.53 345.89,-61.53"/>
</g>
<!-- Node7&#45;&gt;Node4 -->
<g id="edge8" class="edge">
<title>Node7&#45;&gt;Node4</title>
<path fill="none" stroke="midnightblue" d="M183.15,-33.7C162.28,-40.51 139.87,-47.81 124.25,-52.9"/>
<polygon fill="midnightblue" stroke="midnightblue" points="184.5,-36.95 192.92,-30.52 182.33,-30.29 184.5,-36.95"/>
</g>
</g>
</svg>
