<?xml version="1.0" encoding="UTF-8" standalone="no"?>
<!DOCTYPE svg PUBLIC "-//W3C//DTD SVG 1.1//EN"
 "http://www.w3.org/Graphics/SVG/1.1/DTD/svg11.dtd">
<!-- Generated by graphviz version 5.0.0 (20220707.1540)
 -->
<!-- Title: K_CONFIGURATION Pages: 1 -->
<svg width="219pt" height="237pt"
 viewBox="0.00 0.00 218.50 237.00" xmlns="http://www.w3.org/2000/svg" xmlns:xlink="http://www.w3.org/1999/xlink">
<g id="graph0" class="graph" transform="scale(1 1) rotate(0) translate(4 233)">
<title>K_CONFIGURATION</title>
<!-- Node1 -->
<g id="node1" class="node">
<title>Node1</title>
<g id="a_node1"><a xlink:title=" ">
<polygon fill="#bfbfbf" stroke="black" points="28,-0.5 28,-123.5 161,-123.5 161,-0.5 28,-0.5"/>
<text text-anchor="middle" x="94.5" y="-111.5" font-family="Helvetica,sans-Serif" font-size="10.00">K_CONFIGURATION</text>
<polyline fill="none" stroke="black" points="28,-104.5 161,-104.5 "/>
<text text-anchor="middle" x="94.5" y="-92.5" font-family="Helvetica,sans-Serif" font-size="10.00"> </text>
<polyline fill="none" stroke="black" points="28,-85.5 161,-85.5 "/>
<text text-anchor="start" x="36" y="-73.5" font-family="Helvetica,sans-Serif" font-size="10.00">+ Unload()</text>
<text text-anchor="start" x="36" y="-62.5" font-family="Helvetica,sans-Serif" font-size="10.00">+ Initialize()</text>
<text text-anchor="start" x="36" y="-51.5" font-family="Helvetica,sans-Serif" font-size="10.00">+ GetCommunicationPort()</text>
<text text-anchor="start" x="36" y="-40.5" font-family="Helvetica,sans-Serif" font-size="10.00">+ GetMaxClients()</text>
<text text-anchor="start" x="36" y="-29.5" font-family="Helvetica,sans-Serif" font-size="10.00">+ IsInWhitelist()</text>
<text text-anchor="start" x="36" y="-18.5" font-family="Helvetica,sans-Serif" font-size="10.00">+ IsInCache()</text>
<text text-anchor="start" x="36" y="-7.5" font-family="Helvetica,sans-Serif" font-size="10.00">+ AddToCache()</text>
</a>
</g>
</g>
<!-- Node2 -->
<g id="node2" class="node">
<title>Node2</title>
<g id="a_node2"><a xlink:title=" ">
<polygon fill="none" stroke="black" points="0,-171.5 0,-228.5 59,-228.5 59,-171.5 0,-171.5"/>
<text text-anchor="middle" x="29.5" y="-216.5" font-family="Helvetica,sans-Serif" font-size="10.00">PCWSTR</text>
<polyline fill="none" stroke="black" points="0,-209.5 59,-209.5 "/>
<text text-anchor="middle" x="29.5" y="-197.5" font-family="Helvetica,sans-Serif" font-size="10.00"> </text>
<polyline fill="none" stroke="black" points="0,-190.5 59,-190.5 "/>
<text text-anchor="middle" x="29.5" y="-178.5" font-family="Helvetica,sans-Serif" font-size="10.00"> </text>
</a>
</g>
</g>
<!-- Node2&#45;&gt;Node1 -->
<g id="edge1" class="edge">
<title>Node2&#45;&gt;Node1</title>
<path fill="none" stroke="#404040" d="M26.38,-171.37C26.24,-161.82 27.15,-151.21 30.5,-142 31.43,-139.44 32.48,-136.9 33.64,-134.39"/>
<polygon fill="none" stroke="#404040" points="33.73,-134.21 32.98,-127.04 39.3,-123.58 40.06,-130.75 33.73,-134.21"/>
<text text-anchor="middle" x="84.5" y="-145" font-family="Helvetica,sans-Serif" font-size="10.00"> &#45;_szCommunicationPort</text>
</g>
<!-- Node3 -->
<g id="node3" class="node">
<title>Node3</title>
<g id="a_node3"><a xlink:title=" ">
<polygon fill="none" stroke="black" points="135.5,-171.5 135.5,-228.5 185.5,-228.5 185.5,-171.5 135.5,-171.5"/>
<text text-anchor="middle" x="160.5" y="-216.5" font-family="Helvetica,sans-Serif" font-size="10.00">ULONG</text>
<polyline fill="none" stroke="black" points="135.5,-209.5 185.5,-209.5 "/>
<text text-anchor="middle" x="160.5" y="-197.5" font-family="Helvetica,sans-Serif" font-size="10.00"> </text>
<polyline fill="none" stroke="black" points="135.5,-190.5 185.5,-190.5 "/>
<text text-anchor="middle" x="160.5" y="-178.5" font-family="Helvetica,sans-Serif" font-size="10.00"> </text>
</a>
</g>
</g>
<!-- Node3&#45;&gt;Node1 -->
<g id="edge2" class="edge">
<title>Node3&#45;&gt;Node1</title>
<path fill="none" stroke="#404040" d="M150.74,-171.42C147.17,-161.97 142.91,-151.41 138.5,-142 137.36,-139.57 136.18,-137.12 134.97,-134.66"/>
<polygon fill="none" stroke="#404040" points="134.89,-134.51 128.61,-130.96 129.47,-123.8 135.75,-127.35 134.89,-134.51"/>
<text text-anchor="middle" x="176.5" y="-145" font-family="Helvetica,sans-Serif" font-size="10.00"> &#45;_ulMaxClients</text>
</g>
</g>
</svg>
