<?xml version="1.0" encoding="UTF-8" standalone="no"?>
<!DOCTYPE svg PUBLIC "-//W3C//DTD SVG 1.1//EN"
 "http://www.w3.org/Graphics/SVG/1.1/DTD/svg11.dtd">
<!-- Generated by graphviz version 5.0.0 (20220707.1540)
 -->
<!-- Title: U_Logs.hpp Pages: 1 -->
<svg width="386pt" height="308pt"
 viewBox="0.00 0.00 386.11 308.00" xmlns="http://www.w3.org/2000/svg" xmlns:xlink="http://www.w3.org/1999/xlink">
<g id="graph0" class="graph" transform="scale(1 1) rotate(0) translate(4 304)">
<title>U_Logs.hpp</title>
<!-- Node1 -->
<g id="node1" class="node">
<title>Node1</title>
<g id="a_node1"><a xlink:title="Header for U_Logs.cpp.">
<polygon fill="#bfbfbf" stroke="black" points="215.11,-280.5 215.11,-299.5 283.11,-299.5 283.11,-280.5 215.11,-280.5"/>
<text text-anchor="middle" x="249.11" y="-287.5" font-family="Helvetica,sans-Serif" font-size="10.00">U_Logs.hpp</text>
</a>
</g>
</g>
<!-- Node2 -->
<g id="node2" class="node">
<title>Node2</title>
<g id="a_node2"><a xlink:href="../../d9/dc9/_u___communication_8hpp.html" target="_top" xlink:title="Header for U_Communication.cpp.">
<polygon fill="none" stroke="black" points="82.61,-224.5 82.61,-243.5 197.61,-243.5 197.61,-224.5 82.61,-224.5"/>
<text text-anchor="middle" x="140.11" y="-231.5" font-family="Helvetica,sans-Serif" font-size="10.00">U_Communication.hpp</text>
</a>
</g>
</g>
<!-- Node1&#45;&gt;Node2 -->
<g id="edge1" class="edge">
<title>Node1&#45;&gt;Node2</title>
<path fill="none" stroke="midnightblue" d="M222.59,-275.86C202.38,-265.85 175.12,-252.35 157.58,-243.65"/>
<polygon fill="midnightblue" stroke="midnightblue" points="221.08,-279.02 231.59,-280.32 224.19,-272.75 221.08,-279.02"/>
</g>
<!-- Node4 -->
<g id="node4" class="node">
<title>Node4</title>
<g id="a_node4"><a xlink:href="../../d2/de1/_u___service_8hpp.html" target="_top" xlink:title="Header for U_Service.cpp.">
<polygon fill="none" stroke="black" points="147.61,-168.5 147.61,-187.5 226.61,-187.5 226.61,-168.5 147.61,-168.5"/>
<text text-anchor="middle" x="187.11" y="-175.5" font-family="Helvetica,sans-Serif" font-size="10.00">U_Service.hpp</text>
</a>
</g>
</g>
<!-- Node1&#45;&gt;Node4 -->
<g id="edge20" class="edge">
<title>Node1&#45;&gt;Node4</title>
<path fill="none" stroke="midnightblue" d="M239.32,-271.64C225.85,-247.74 202.12,-205.63 191.95,-187.59"/>
<polygon fill="midnightblue" stroke="midnightblue" points="236.28,-273.38 244.24,-280.37 242.38,-269.94 236.28,-273.38"/>
</g>
<!-- Node5 -->
<g id="node5" class="node">
<title>Node5</title>
<g id="a_node5"><a xlink:href="../../d6/de0/_u___configuration_8hpp.html" target="_top" xlink:title="Header for U_Configuration.cpp.">
<polygon fill="none" stroke="black" points="11.11,-56.5 11.11,-75.5 115.11,-75.5 115.11,-56.5 11.11,-56.5"/>
<text text-anchor="middle" x="63.11" y="-63.5" font-family="Helvetica,sans-Serif" font-size="10.00">U_Configuration.hpp</text>
</a>
</g>
</g>
<!-- Node1&#45;&gt;Node5 -->
<g id="edge17" class="edge">
<title>Node1&#45;&gt;Node5</title>
<path fill="none" stroke="midnightblue" d="M204.85,-287.16C144.52,-281.85 39.97,-261.88 5.11,-188 -14.78,-145.87 31.81,-95.71 53.14,-75.79"/>
<polygon fill="midnightblue" stroke="midnightblue" points="204.61,-290.65 214.86,-287.94 205.16,-283.67 204.61,-290.65"/>
</g>
<!-- Node7 -->
<g id="node7" class="node">
<title>Node7</title>
<g id="a_node7"><a xlink:href="../../d5/d09/_u___helper_8hpp.html" target="_top" xlink:title="Header for U_Helper.cpp.">
<polygon fill="none" stroke="black" points="235.61,-112.5 235.61,-131.5 310.61,-131.5 310.61,-112.5 235.61,-112.5"/>
<text text-anchor="middle" x="273.11" y="-119.5" font-family="Helvetica,sans-Serif" font-size="10.00">U_Helper.hpp</text>
</a>
</g>
</g>
<!-- Node1&#45;&gt;Node7 -->
<g id="edge18" class="edge">
<title>Node1&#45;&gt;Node7</title>
<path fill="none" stroke="midnightblue" d="M247.37,-269.93C249.19,-233.92 260.71,-157.23 268.66,-131.57"/>
<polygon fill="midnightblue" stroke="midnightblue" points="243.87,-270 247.13,-280.08 250.86,-270.16 243.87,-270"/>
</g>
<!-- Node12 -->
<g id="node12" class="node">
<title>Node12</title>
<g id="a_node12"><a xlink:href="../../da/d56/_u___logs_8cpp.html" target="_top" xlink:title="Report Event to ETW.">
<polygon fill="none" stroke="black" points="310.11,-224.5 310.11,-243.5 378.11,-243.5 378.11,-224.5 310.11,-224.5"/>
<text text-anchor="middle" x="344.11" y="-231.5" font-family="Helvetica,sans-Serif" font-size="10.00">U_Logs.cpp</text>
</a>
</g>
</g>
<!-- Node1&#45;&gt;Node12 -->
<g id="edge19" class="edge">
<title>Node1&#45;&gt;Node12</title>
<path fill="none" stroke="midnightblue" d="M273.43,-275.18C290.91,-265.24 313.94,-252.15 328.88,-243.65"/>
<polygon fill="midnightblue" stroke="midnightblue" points="271.34,-272.34 264.37,-280.32 274.79,-278.43 271.34,-272.34"/>
</g>
<!-- Node3 -->
<g id="node3" class="node">
<title>Node3</title>
<g id="a_node3"><a xlink:href="../../d6/da6/_u___communication_8cpp.html" target="_top" xlink:title="Manage the communication with the driver (Connect|Reply|ListenerThread|WorkerThread)">
<polygon fill="none" stroke="black" points="14.61,-168.5 14.61,-187.5 129.61,-187.5 129.61,-168.5 14.61,-168.5"/>
<text text-anchor="middle" x="72.11" y="-175.5" font-family="Helvetica,sans-Serif" font-size="10.00">U_Communication.cpp</text>
</a>
</g>
</g>
<!-- Node2&#45;&gt;Node3 -->
<g id="edge2" class="edge">
<title>Node2&#45;&gt;Node3</title>
<path fill="none" stroke="midnightblue" d="M121.35,-218.1C109.11,-208.38 93.55,-196.03 83.23,-187.83"/>
<polygon fill="midnightblue" stroke="midnightblue" points="119.17,-220.85 129.18,-224.32 123.53,-215.36 119.17,-220.85"/>
</g>
<!-- Node2&#45;&gt;Node4 -->
<g id="edge3" class="edge">
<title>Node2&#45;&gt;Node4</title>
<path fill="none" stroke="midnightblue" d="M148.7,-215.86C156.01,-206.5 166.14,-195.33 174.36,-187.75"/>
<polygon fill="midnightblue" stroke="midnightblue" points="145.76,-213.94 142.7,-224.08 151.42,-218.06 145.76,-213.94"/>
</g>
<!-- Node4&#45;&gt;Node2 -->
<g id="edge4" class="edge">
<title>Node4&#45;&gt;Node2</title>
<path fill="none" stroke="midnightblue" d="M178.56,-196.09C171.22,-205.48 161.02,-216.73 152.77,-224.32"/>
<polygon fill="midnightblue" stroke="midnightblue" points="181.52,-197.98 184.57,-187.83 175.85,-193.86 181.52,-197.98"/>
</g>
<!-- Node4&#45;&gt;Node5 -->
<g id="edge5" class="edge">
<title>Node4&#45;&gt;Node5</title>
<path fill="none" stroke="midnightblue" d="M157.57,-163.4C143.59,-154.99 127.35,-143.6 114.11,-132 93.08,-113.59 71.62,-88.5 64.21,-75.54"/>
<polygon fill="midnightblue" stroke="midnightblue" points="155.96,-166.52 166.37,-168.48 159.45,-160.45 155.96,-166.52"/>
</g>
<!-- Node4&#45;&gt;Node7 -->
<g id="edge8" class="edge">
<title>Node4&#45;&gt;Node7</title>
<path fill="none" stroke="midnightblue" d="M204.37,-162.34C218.87,-152.52 239.27,-139.91 254.21,-131.65"/>
<polygon fill="midnightblue" stroke="midnightblue" points="202,-159.73 195.81,-168.32 206.01,-165.47 202,-159.73"/>
</g>
<!-- Node11 -->
<g id="node11" class="node">
<title>Node11</title>
<g id="a_node11"><a xlink:href="../../d7/dc4/_u___service_8cpp.html" target="_top" xlink:title="Entrypoint of the process &amp; the service.">
<polygon fill="none" stroke="black" points="138.61,-112.5 138.61,-131.5 217.61,-131.5 217.61,-112.5 138.61,-112.5"/>
<text text-anchor="middle" x="178.11" y="-119.5" font-family="Helvetica,sans-Serif" font-size="10.00">U_Service.cpp</text>
</a>
</g>
</g>
<!-- Node4&#45;&gt;Node11 -->
<g id="edge16" class="edge">
<title>Node4&#45;&gt;Node11</title>
<path fill="none" stroke="midnightblue" d="M183.96,-158.1C182.46,-149.14 180.75,-138.86 179.57,-131.75"/>
<polygon fill="midnightblue" stroke="midnightblue" points="180.52,-158.79 185.62,-168.08 187.43,-157.64 180.52,-158.79"/>
</g>
<!-- Node5&#45;&gt;Node4 -->
<g id="edge7" class="edge">
<title>Node5&#45;&gt;Node4</title>
<path fill="none" stroke="midnightblue" d="M83.15,-82.82C96.65,-96.55 114.53,-116.61 132.11,-132 148.25,-146.14 168.85,-159.96 180.13,-168.48"/>
<polygon fill="midnightblue" stroke="midnightblue" points="85.33,-80.05 75.74,-75.54 80.43,-85.04 85.33,-80.05"/>
</g>
<!-- Node6 -->
<g id="node6" class="node">
<title>Node6</title>
<g id="a_node6"><a xlink:href="../../dd/da0/_u___configuration_8cpp.html" target="_top" xlink:title="Set all the needed configuration for the driver and the user&#45;mode service.">
<polygon fill="none" stroke="black" points="11.11,-0.5 11.11,-19.5 115.11,-19.5 115.11,-0.5 11.11,-0.5"/>
<text text-anchor="middle" x="63.11" y="-7.5" font-family="Helvetica,sans-Serif" font-size="10.00">U_Configuration.cpp</text>
</a>
</g>
</g>
<!-- Node5&#45;&gt;Node6 -->
<g id="edge6" class="edge">
<title>Node5&#45;&gt;Node6</title>
<path fill="none" stroke="midnightblue" d="M63.11,-45.8C63.11,-36.91 63.11,-26.78 63.11,-19.75"/>
<polygon fill="midnightblue" stroke="midnightblue" points="59.61,-46.08 63.11,-56.08 66.61,-46.08 59.61,-46.08"/>
</g>
<!-- Node7&#45;&gt;Node1 -->
<g id="edge14" class="edge">
<title>Node7&#45;&gt;Node1</title>
<path fill="none" stroke="midnightblue" d="M274.87,-141.58C273.14,-177.21 261.65,-253.95 253.66,-280.08"/>
<polygon fill="midnightblue" stroke="midnightblue" points="278.37,-141.64 275.07,-131.57 271.37,-141.5 278.37,-141.64"/>
</g>
<!-- Node7&#45;&gt;Node4 -->
<g id="edge15" class="edge">
<title>Node7&#45;&gt;Node4</title>
<path fill="none" stroke="midnightblue" d="M255.62,-137.81C241.15,-147.6 220.91,-160.11 206.04,-168.32"/>
<polygon fill="midnightblue" stroke="midnightblue" points="257.99,-140.43 264.19,-131.83 253.98,-134.68 257.99,-140.43"/>
</g>
<!-- Node7&#45;&gt;Node5 -->
<g id="edge9" class="edge">
<title>Node7&#45;&gt;Node5</title>
<path fill="none" stroke="midnightblue" d="M229.92,-109.89C190.26,-99.7 132.34,-84.8 96.23,-75.52"/>
<polygon fill="midnightblue" stroke="midnightblue" points="229.28,-113.34 239.83,-112.44 231.02,-106.56 229.28,-113.34"/>
</g>
<!-- Node8 -->
<g id="node8" class="node">
<title>Node8</title>
<g id="a_node8"><a xlink:href="../../d3/de9/_u___controller_8hpp.html" target="_top" xlink:title="Header for U_Controller.cpp.">
<polygon fill="none" stroke="black" points="133.61,-56.5 133.61,-75.5 222.61,-75.5 222.61,-56.5 133.61,-56.5"/>
<text text-anchor="middle" x="178.11" y="-63.5" font-family="Helvetica,sans-Serif" font-size="10.00">U_Controller.hpp</text>
</a>
</g>
</g>
<!-- Node7&#45;&gt;Node8 -->
<g id="edge10" class="edge">
<title>Node7&#45;&gt;Node8</title>
<path fill="none" stroke="midnightblue" d="M248.79,-107.18C231.31,-97.24 208.28,-84.15 193.33,-75.65"/>
<polygon fill="midnightblue" stroke="midnightblue" points="247.42,-110.43 257.84,-112.32 250.88,-104.34 247.42,-110.43"/>
</g>
<!-- Node10 -->
<g id="node10" class="node">
<title>Node10</title>
<g id="a_node10"><a xlink:href="../../d8/d69/_u___helper_8cpp.html" target="_top" xlink:title="Help function used by several .cpp files.">
<polygon fill="none" stroke="black" points="240.61,-56.5 240.61,-75.5 315.61,-75.5 315.61,-56.5 240.61,-56.5"/>
<text text-anchor="middle" x="278.11" y="-63.5" font-family="Helvetica,sans-Serif" font-size="10.00">U_Helper.cpp</text>
</a>
</g>
</g>
<!-- Node7&#45;&gt;Node10 -->
<g id="edge13" class="edge">
<title>Node7&#45;&gt;Node10</title>
<path fill="none" stroke="midnightblue" d="M274.86,-102.1C275.69,-93.14 276.64,-82.86 277.3,-75.75"/>
<polygon fill="midnightblue" stroke="midnightblue" points="271.37,-101.8 273.93,-112.08 278.34,-102.45 271.37,-101.8"/>
</g>
<!-- Node8&#45;&gt;Node4 -->
<g id="edge12" class="edge">
<title>Node8&#45;&gt;Node4</title>
<path fill="none" stroke="midnightblue" d="M155.02,-81.44C138.18,-93.95 119.79,-112.98 129.11,-132 137.29,-148.71 155.01,-161 168.72,-168.47"/>
<polygon fill="midnightblue" stroke="midnightblue" points="157.32,-84.11 163.54,-75.53 153.33,-78.36 157.32,-84.11"/>
</g>
<!-- Node9 -->
<g id="node9" class="node">
<title>Node9</title>
<g id="a_node9"><a xlink:href="../../d8/d62/_u___controller_8cpp.html" target="_top" xlink:title="Controll the service/driver (Install|Start|Stop|Delete|Query)">
<polygon fill="none" stroke="black" points="133.61,-0.5 133.61,-19.5 222.61,-19.5 222.61,-0.5 133.61,-0.5"/>
<text text-anchor="middle" x="178.11" y="-7.5" font-family="Helvetica,sans-Serif" font-size="10.00">U_Controller.cpp</text>
</a>
</g>
</g>
<!-- Node8&#45;&gt;Node9 -->
<g id="edge11" class="edge">
<title>Node8&#45;&gt;Node9</title>
<path fill="none" stroke="midnightblue" d="M178.11,-45.8C178.11,-36.91 178.11,-26.78 178.11,-19.75"/>
<polygon fill="midnightblue" stroke="midnightblue" points="174.61,-46.08 178.11,-56.08 181.61,-46.08 174.61,-46.08"/>
</g>
</g>
</svg>
