<?xml version="1.0" encoding="UTF-8" standalone="no"?>
<!DOCTYPE svg PUBLIC "-//W3C//DTD SVG 1.1//EN"
 "http://www.w3.org/Graphics/SVG/1.1/DTD/svg11.dtd">
<!-- Generated by graphviz version 5.0.0 (20220707.1540)
 -->
<!-- Title: K_CACHE Pages: 1 -->
<svg width="305pt" height="425pt"
 viewBox="0.00 0.00 304.50 425.00" xmlns="http://www.w3.org/2000/svg" xmlns:xlink="http://www.w3.org/1999/xlink">
<g id="graph0" class="graph" transform="scale(1 1) rotate(0) translate(4 421)">
<title>K_CACHE</title>
<!-- Node1 -->
<g id="node1" class="node">
<title>Node1</title>
<g id="a_node1"><a xlink:title=" ">
<polygon fill="#bfbfbf" stroke="black" points="94.5,-0.5 94.5,-90.5 201.5,-90.5 201.5,-0.5 94.5,-0.5"/>
<text text-anchor="middle" x="148" y="-78.5" font-family="Helvetica,sans-Serif" font-size="10.00">K_CACHE</text>
<polyline fill="none" stroke="black" points="94.5,-71.5 201.5,-71.5 "/>
<text text-anchor="middle" x="148" y="-59.5" font-family="Helvetica,sans-Serif" font-size="10.00"> </text>
<polyline fill="none" stroke="black" points="94.5,-52.5 201.5,-52.5 "/>
<text text-anchor="start" x="102.5" y="-40.5" font-family="Helvetica,sans-Serif" font-size="10.00">+ Initialize()</text>
<text text-anchor="start" x="102.5" y="-29.5" font-family="Helvetica,sans-Serif" font-size="10.00">+ GetCachedValue()</text>
<text text-anchor="start" x="102.5" y="-18.5" font-family="Helvetica,sans-Serif" font-size="10.00">+ Add()</text>
<text text-anchor="start" x="102.5" y="-7.5" font-family="Helvetica,sans-Serif" font-size="10.00">&#45; _GetCachedValue()</text>
</a>
</g>
</g>
<!-- Node2 -->
<g id="node2" class="node">
<title>Node2</title>
<g id="a_node2"><a xlink:href="../../d3/d00/struct_k___c_a_c_h_e_1_1___c_a_c_h_e_l_i_s_t.html" target="_top" xlink:title=" ">
<polygon fill="none" stroke="black" points="8.5,-138.5 8.5,-195.5 135.5,-195.5 135.5,-138.5 8.5,-138.5"/>
<text text-anchor="middle" x="72" y="-183.5" font-family="Helvetica,sans-Serif" font-size="10.00">K_CACHE::_CACHELIST</text>
<polyline fill="none" stroke="black" points="8.5,-176.5 135.5,-176.5 "/>
<text text-anchor="middle" x="72" y="-164.5" font-family="Helvetica,sans-Serif" font-size="10.00"> </text>
<polyline fill="none" stroke="black" points="8.5,-157.5 135.5,-157.5 "/>
<text text-anchor="middle" x="72" y="-145.5" font-family="Helvetica,sans-Serif" font-size="10.00"> </text>
</a>
</g>
</g>
<!-- Node2&#45;&gt;Node1 -->
<g id="edge1" class="edge">
<title>Node2&#45;&gt;Node1</title>
<path fill="none" stroke="#404040" d="M89.63,-138.28C96.69,-127.19 105.08,-113.99 113.26,-101.12"/>
<polygon fill="none" stroke="#404040" points="113.31,-101.04 113.16,-93.83 119.75,-90.91 119.91,-98.12 113.31,-101.04"/>
<text text-anchor="middle" x="128" y="-112" font-family="Helvetica,sans-Serif" font-size="10.00"> &#45;_Cache</text>
</g>
<!-- Node3 -->
<g id="node3" class="node">
<title>Node3</title>
<g id="a_node3"><a xlink:title=" ">
<polygon fill="none" stroke="black" points="0,-254.5 0,-311.5 54,-311.5 54,-254.5 0,-254.5"/>
<text text-anchor="middle" x="27" y="-299.5" font-family="Helvetica,sans-Serif" font-size="10.00">DWORD</text>
<polyline fill="none" stroke="black" points="0,-292.5 54,-292.5 "/>
<text text-anchor="middle" x="27" y="-280.5" font-family="Helvetica,sans-Serif" font-size="10.00"> </text>
<polyline fill="none" stroke="black" points="0,-273.5 54,-273.5 "/>
<text text-anchor="middle" x="27" y="-261.5" font-family="Helvetica,sans-Serif" font-size="10.00"> </text>
</a>
</g>
</g>
<!-- Node3&#45;&gt;Node2 -->
<g id="edge2" class="edge">
<title>Node3&#45;&gt;Node2</title>
<path fill="none" stroke="#404040" d="M24.56,-254.27C24.45,-241.56 25.79,-226.56 31,-214 32.18,-211.15 33.62,-208.35 35.24,-205.64"/>
<polygon fill="none" stroke="#404040" points="35.37,-205.46 35.53,-198.25 42.24,-195.63 42.08,-202.84 35.37,-205.46"/>
<text text-anchor="middle" x="64.5" y="-228" font-family="Helvetica,sans-Serif" font-size="10.00"> +dwLength</text>
<text text-anchor="middle" x="64.5" y="-217" font-family="Helvetica,sans-Serif" font-size="10.00">+dwMaxLength</text>
</g>
<!-- Node4 -->
<g id="node4" class="node">
<title>Node4</title>
<g id="a_node4"><a xlink:href="../../d3/d01/struct_k___c_a_c_h_e_1_1___h_a_s_h.html" target="_top" xlink:title=" ">
<polygon fill="none" stroke="black" points="72.5,-254.5 72.5,-311.5 173.5,-311.5 173.5,-254.5 72.5,-254.5"/>
<text text-anchor="middle" x="123" y="-299.5" font-family="Helvetica,sans-Serif" font-size="10.00">K_CACHE::_HASH</text>
<polyline fill="none" stroke="black" points="72.5,-292.5 173.5,-292.5 "/>
<text text-anchor="middle" x="123" y="-280.5" font-family="Helvetica,sans-Serif" font-size="10.00"> </text>
<polyline fill="none" stroke="black" points="72.5,-273.5 173.5,-273.5 "/>
<text text-anchor="middle" x="123" y="-261.5" font-family="Helvetica,sans-Serif" font-size="10.00"> </text>
</a>
</g>
</g>
<!-- Node4&#45;&gt;Node2 -->
<g id="edge3" class="edge">
<title>Node4&#45;&gt;Node2</title>
<path fill="none" stroke="#404040" d="M114.02,-254.46C109.64,-241.92 104.02,-227.01 98,-214 96.87,-211.56 95.66,-209.09 94.41,-206.6"/>
<polygon fill="none" stroke="#404040" points="94.32,-206.44 87.97,-203.02 88.69,-195.84 95.04,-199.26 94.32,-206.44"/>
<text text-anchor="middle" x="127" y="-222.5" font-family="Helvetica,sans-Serif" font-size="10.00"> +pBuffer</text>
</g>
<!-- Node5 -->
<g id="node5" class="node">
<title>Node5</title>
<g id="a_node5"><a xlink:title=" ">
<polygon fill="none" stroke="black" points="31,-359.5 31,-416.5 81,-416.5 81,-359.5 31,-359.5"/>
<text text-anchor="middle" x="56" y="-404.5" font-family="Helvetica,sans-Serif" font-size="10.00">ULONG</text>
<polyline fill="none" stroke="black" points="31,-397.5 81,-397.5 "/>
<text text-anchor="middle" x="56" y="-385.5" font-family="Helvetica,sans-Serif" font-size="10.00"> </text>
<polyline fill="none" stroke="black" points="31,-378.5 81,-378.5 "/>
<text text-anchor="middle" x="56" y="-366.5" font-family="Helvetica,sans-Serif" font-size="10.00"> </text>
</a>
</g>
</g>
<!-- Node5&#45;&gt;Node4 -->
<g id="edge4" class="edge">
<title>Node5&#45;&gt;Node4</title>
<path fill="none" stroke="#404040" d="M64.76,-359.28C68.44,-349.62 73.21,-338.96 79,-330 81,-326.9 83.23,-323.82 85.6,-320.82"/>
<polygon fill="none" stroke="#404040" points="85.72,-320.67 86.56,-313.51 93.49,-311.52 92.65,-318.68 85.72,-320.67"/>
<text text-anchor="middle" x="99" y="-333" font-family="Helvetica,sans-Serif" font-size="10.00"> +ulHash</text>
</g>
<!-- Node6 -->
<g id="node6" class="node">
<title>Node6</title>
<g id="a_node6"><a xlink:title=" ">
<polygon fill="none" stroke="black" points="99.5,-359.5 99.5,-416.5 146.5,-416.5 146.5,-359.5 99.5,-359.5"/>
<text text-anchor="middle" x="123" y="-404.5" font-family="Helvetica,sans-Serif" font-size="10.00">PVOID</text>
<polyline fill="none" stroke="black" points="99.5,-397.5 146.5,-397.5 "/>
<text text-anchor="middle" x="123" y="-385.5" font-family="Helvetica,sans-Serif" font-size="10.00"> </text>
<polyline fill="none" stroke="black" points="99.5,-378.5 146.5,-378.5 "/>
<text text-anchor="middle" x="123" y="-366.5" font-family="Helvetica,sans-Serif" font-size="10.00"> </text>
</a>
</g>
</g>
<!-- Node6&#45;&gt;Node4 -->
<g id="edge5" class="edge">
<title>Node6&#45;&gt;Node4</title>
<path fill="none" stroke="#404040" d="M123,-359.4C123,-348.55 123,-335.87 123,-324.05"/>
<polygon fill="none" stroke="#404040" points="123,-323.68 119,-317.68 123,-311.68 127,-317.68 123,-323.68"/>
<text text-anchor="middle" x="141.5" y="-333" font-family="Helvetica,sans-Serif" font-size="10.00"> +pHash</text>
</g>
<!-- Node7 -->
<g id="node7" class="node">
<title>Node7</title>
<g id="a_node7"><a xlink:title=" ">
<polygon fill="none" stroke="black" points="165,-359.5 165,-416.5 229,-416.5 229,-359.5 165,-359.5"/>
<text text-anchor="middle" x="197" y="-404.5" font-family="Helvetica,sans-Serif" font-size="10.00">BOOLEAN</text>
<polyline fill="none" stroke="black" points="165,-397.5 229,-397.5 "/>
<text text-anchor="middle" x="197" y="-385.5" font-family="Helvetica,sans-Serif" font-size="10.00"> </text>
<polyline fill="none" stroke="black" points="165,-378.5 229,-378.5 "/>
<text text-anchor="middle" x="197" y="-366.5" font-family="Helvetica,sans-Serif" font-size="10.00"> </text>
</a>
</g>
</g>
<!-- Node7&#45;&gt;Node4 -->
<g id="edge6" class="edge">
<title>Node7&#45;&gt;Node4</title>
<path fill="none" stroke="#404040" d="M182.48,-359.33C177.07,-349.77 170.64,-339.17 164,-330 161.87,-327.06 159.59,-324.09 157.23,-321.16"/>
<polygon fill="none" stroke="#404040" points="157.23,-321.16 150.31,-319.12 149.53,-311.96 156.45,-313.99 157.23,-321.16"/>
<text text-anchor="middle" x="188.5" y="-333" font-family="Helvetica,sans-Serif" font-size="10.00"> +bIsOk</text>
</g>
<!-- Node8 -->
<g id="node8" class="node">
<title>Node8</title>
<g id="a_node8"><a xlink:title=" ">
<polygon fill="none" stroke="black" points="153.5,-138.5 153.5,-195.5 296.5,-195.5 296.5,-138.5 153.5,-138.5"/>
<text text-anchor="middle" x="225" y="-183.5" font-family="Helvetica,sans-Serif" font-size="10.00">static PKGUARDED_MUTEX</text>
<polyline fill="none" stroke="black" points="153.5,-176.5 296.5,-176.5 "/>
<text text-anchor="middle" x="225" y="-164.5" font-family="Helvetica,sans-Serif" font-size="10.00"> </text>
<polyline fill="none" stroke="black" points="153.5,-157.5 296.5,-157.5 "/>
<text text-anchor="middle" x="225" y="-145.5" font-family="Helvetica,sans-Serif" font-size="10.00"> </text>
</a>
</g>
</g>
<!-- Node8&#45;&gt;Node1 -->
<g id="edge7" class="edge">
<title>Node8&#45;&gt;Node1</title>
<path fill="none" stroke="#404040" d="M207.14,-138.28C199.99,-127.19 191.49,-113.99 183.2,-101.12"/>
<polygon fill="none" stroke="#404040" points="183.12,-101 176.5,-98.12 176.62,-90.91 183.23,-93.79 183.12,-101"/>
<text text-anchor="middle" x="215" y="-112" font-family="Helvetica,sans-Serif" font-size="10.00"> &#45;_pMutex</text>
</g>
</g>
</svg>
